<?xml version="1.0" encoding="UTF-8"?>
<svg xmlns="http://www.w3.org/2000/svg" xmlns:xlink="http://www.w3.org/1999/xlink" width="512" height="512" viewBox="0 0 48 60" version="1.1"><!-- Generator: Sketch 51.3 (57544) - http://www.bohemiancoding.com/sketch --><title>001 - Malt</title><desc>Created with Sketch.</desc><defs/><g id="Page-1" stroke="none" stroke-width="1" fill="none" fill-rule="evenodd"><g id="001---Malt" fill="#000000" fill-rule="nonzero"><path d="M4.193,58.8 L6.71,58.078 C7.96552155,57.5496231 9.3473547,57.3967808 10.688,57.638 C11.4328788,57.8728172 12.163163,58.1516408 12.875,58.473 C13.9983196,59.0035281 15.1820174,59.3954076 16.4,59.64 C18.3206376,59.9120817 20.2611501,60.0181407 22.2,59.957 L23,59.957 L25.8,59.957 L26.6,59.957 C28.2725984,59.9913185 29.9451282,59.8852801 31.6,59.64 C32.8194836,59.3937957 34.004511,59.0002417 35.129,58.468 C35.8402955,58.1469796 36.5698939,57.8681628 37.314,57.633 C38.6553166,57.3921369 40.0376876,57.5449619 41.294,58.073 L43.812,58.796 C45.2111497,59.1860005 46.6895909,58.5236857 47.33,57.22 C47.6951296,56.3818532 47.7030733,55.4311311 47.352,54.587 C47.294,54.409 47.229,54.233 47.165,54.06 C47.107,53.906 47.051,53.76 47.005,53.607 C46.805,52.971 46.678,52.632 46.597,52.419 C46.57,52.348 46.551,52.301 46.547,52.319 C46.547,52.26 46.553,52.186 46.562,52.066 C46.577,51.846 46.6,51.519 46.62,50.995 C46.855,44.557 46.745,36.335 46.335,29.395 C46.7435379,29.025604 46.9837077,28.5055372 47,27.955 L47,21.424 C47,18.624 40.031,17.379 33.668,16.824 L42.457,8.53 C42.5447805,8.4593806 42.6282626,8.38357883 42.707,8.303 C42.718,8.293 42.72,8.279 42.73,8.268 C42.74,8.257 42.76,8.243 42.772,8.229 C44.5310269,6.10021843 44.2312816,2.94852693 42.1025,1.1895 C39.9737184,-0.569526928 36.8220269,-0.269781568 35.063,1.859 L35.051,1.869 C34.9773098,1.96017134 34.9126715,2.05830095 34.858,2.162 L28,12.947 C26.0259818,12.7629531 24.0891039,13.5693925 22.829,15.1 L21.709,16.454 C17.323,16.537 1,17.139 1,21.424 L1,27.955 C1.01763837,28.5037824 1.25769325,29.0217956 1.665,29.39 C1.255,36.331 1.145,44.553 1.38,50.99 C1.4,51.514 1.423,51.841 1.438,52.061 C1.43796854,52.126409 1.44602977,52.1915706 1.462,52.255 C1.45,52.298 1.43,52.347 1.403,52.418 C1.322,52.631 1.193,52.97 0.996,53.605 C0.949,53.754 0.896,53.905 0.835,54.059 C0.771,54.232 0.706,54.408 0.653,54.573 C0.29729317,55.423344 0.304518259,56.3821133 0.673,57.227 C1.31427712,58.5307478 2.7939467,59.1919751 4.193,58.8 Z M45.534,56.345 C45.3153271,56.7789405 44.822899,57.0007625 44.353,56.877 L41.865,56.163 C40.2417932,55.5079551 38.4597738,55.35333 36.748,55.719 C35.9274442,55.9756076 35.1230024,56.2811552 34.339,56.634 C33.3590141,57.1021301 32.3262572,57.4506352 31.263,57.672 C29.4541913,57.9233921 27.6272389,58.0200757 25.802,57.961 L25.002,57.961 L22.202,57.961 C20.3764355,58.0194163 18.549207,57.9227358 16.74,57.672 C15.6771079,57.4504739 14.644701,57.1019736 13.665,56.634 C12.8802962,56.2809156 12.0751946,55.9750371 11.254,55.718 C9.54267142,55.3545903 7.7618601,55.5095192 6.139,56.163 L3.652,56.876 C3.18488896,57.0010744 2.69390253,56.782673 2.474,56.352 C2.33951732,55.973744 2.36775634,55.5566755 2.552,55.2 C2.601,55.049 2.652,54.9 2.71,54.754 C2.78,54.567 2.848,54.382 2.905,54.199 C3.083,53.625 3.2,53.319 3.272,53.127 C3.44158626,52.7480909 3.49785108,52.3281886 3.434,51.918 C3.419,51.712 3.397,51.406 3.379,50.918 C3.157,44.851 3.247,37.19 3.605,30.533 C7.313,32.008 15.056,32.955 24.005,32.955 C32.954,32.955 40.69,32.008 44.405,30.532 C44.763,37.189 44.853,44.851 44.631,50.918 C44.613,51.408 44.591,51.718 44.576,51.918 C44.5121489,52.3281886 44.5684137,52.7480909 44.738,53.127 C44.81,53.319 44.927,53.627 45.105,54.201 C45.162,54.382 45.23,54.567 45.305,54.754 C45.359,54.901 45.414,55.054 45.468,55.213 C45.6426461,55.5643356 45.6664809,55.9716943 45.534,56.341 L45.534,56.345 Z M15.749,26.145 C17.643,26.279 19.624,26.345 21.633,26.387 C21.6698611,26.3960838 21.7072731,26.4027645 21.745,26.407 C21.772,26.407 21.797,26.393 21.824,26.391 C22.55,26.403 23.265,26.427 24,26.427 C25.6,26.427 27.178,26.397 28.679,26.336 C32.844,26.173 41.179,25.611 45,23.713 L45,27.897 C44.9244331,27.9929193 44.8335434,28.0756998 44.731,28.142 C42.758,29.538 35,30.955 24,30.955 C13,30.955 5.242,29.538 3.27,28.14 C3.16711175,28.0733703 3.07589243,27.9902593 3,27.894 L3,23.71 C5.8,25.1 11.083,25.8 15.749,26.142 L15.749,26.145 Z M30.857,24.226 L32.081,22.745 C32.9703039,21.6712091 33.4578937,20.3212324 33.46,18.927 C33.46,18.889 33.454,18.854 33.453,18.816 C41.16,19.496 44.443,20.798 44.961,21.427 C44.366,22.158 40.254,23.664 30.857,24.223 L30.857,24.226 Z M37.007,7.357 C37.7076333,7.94111962 38.5072712,8.39495902 39.368,8.697 L32.293,15.37 C31.7029082,14.5678691 30.9224502,13.9252197 30.022,13.5 L35.246,5.288 C35.7031175,6.07757466 36.299794,6.77759375 37.007,7.354 L37.007,7.357 Z M38.921,2.046 C40.0783975,2.04743457 41.1317394,2.71452873 41.6277843,3.76023928 C42.1238293,4.80594983 41.9740909,6.04373904 41.243,6.941 C40.957,7.107 39.631,6.932 38.281,5.815 C37.3648825,5.20189833 36.7548776,4.22610881 36.605,3.134 C37.175286,2.44265332 38.0247935,2.04247514 38.921,2.043 L38.921,2.046 Z M24.371,16.371 C25.0446476,15.5509255 26.0173865,15.0331864 27.0738737,14.9323987 C28.1303609,14.8316111 29.1834463,15.1560889 30,15.834 C30.496329,16.2387801 30.8860065,16.7589224 31.135,17.349 C31.2235662,17.5538269 31.2905933,17.7673082 31.335,17.986 C31.4192426,18.2914615 31.4606383,18.6071458 31.458,18.924 C31.4555853,19.8528922 31.1299599,20.7519859 30.537,21.467 L28.155,24.348 C26.812,24.397 25.42,24.424 23.998,24.424 L23.93,24.424 L28.137,19.614 C28.4648702,19.1956132 28.408128,18.5938363 28.0078315,18.2441092 C27.607535,17.894382 27.0035877,17.9189342 26.633,18.3 L21.314,24.383 C20.141,24.357 18.992,24.313 17.857,24.254 L24.371,16.371 Z M20.02,18.5 L15.382,24.11 C7.082,23.451 3.582,22.08 3.039,21.427 C3.762,20.509 9.342,18.84 20.02,18.5 Z" id="Shape"/><path d="M35.259,44.591 C34.7455757,44.7709218 34.1900159,44.7928656 33.664,44.654 C33.646,44.647 33.631,44.636 33.615,44.629 C33.7745615,44.5635078 33.9284214,44.4849055 34.075,44.394 C35.43,43.542 37.309,40.724 38.006,39.157 C38.2750131,38.5488094 38.224122,37.8466835 37.8702165,37.2836429 C37.516311,36.7206024 36.9056879,36.3703023 36.241,36.349 C34.523,36.305 31.173,36.769 29.818,37.621 C29.6717201,37.7138259 29.5335602,37.8188676 29.405,37.935 C29.405,37.92 29.405,37.904 29.405,37.889 C29.4991232,37.3469451 29.7627667,36.8487184 30.158,36.466 C30.5951134,35.9834942 30.6710616,35.2741054 30.346,34.71 C30.0295355,34.150886 29.3901451,33.8577985 28.76,33.983 C26.8173363,34.2766267 25.0572377,35.2931122 23.832,36.829 C22.1814046,37.2130032 20.7076073,38.1402453 19.647,39.462 C17.6733708,39.8883572 15.9602407,41.1039172 14.906,42.826 C13.4283084,45.0723997 13.9764559,48.0834685 16.151,49.665 C16.185,49.687 16.224,49.709 16.259,49.732 C14.8177155,50.8383372 13.8102158,52.4152318 13.412,54.188 C13.3288382,54.5377887 13.4398548,54.9052966 13.7027649,55.1505441 C13.965675,55.3957917 14.340004,55.4810235 14.6831745,55.3737759 C15.026345,55.2665282 15.2855266,54.9833116 15.362,54.632 C15.6463448,53.4009167 16.3272535,52.2973388 17.3,51.491 C17.7326228,53.9529245 19.9248447,55.7115813 22.422,55.6 C22.586,55.6 22.752,55.593 22.922,55.58 C24.9187649,55.3783034 26.7472379,54.3719934 27.986,52.793 C29.6589929,52.4110502 31.1526014,51.4720796 32.222,50.13 C34.124804,49.6865435 35.7915761,48.5444299 36.892,46.93 C37.2834238,46.4119017 37.2970424,45.7007758 36.9257424,45.1680708 C36.5544424,44.6353657 35.8825418,44.4020526 35.261,44.59 L35.259,44.591 Z M30.882,39.314 C32.5680034,38.6463777 34.3688296,38.3167925 36.182,38.344 C35.419224,39.9889215 34.3419903,41.4687166 33.011,42.7 C32.5004145,42.9222703 31.9160062,42.8975666 31.426,42.633 C31.3155642,42.5766743 31.2020521,42.5265954 31.086,42.483 C30.8184702,42.3512188 30.5605049,42.2008504 30.314,42.033 C30.2690908,41.7350552 30.2453646,41.4343011 30.243,41.133 C30.2536733,41.010643 30.257346,40.8877761 30.254,40.765 C30.2297027,40.210613 30.4611963,39.6757451 30.882,39.314 Z M23.7,42.462 C23.8396569,42.7143729 23.9474795,42.9830899 24.021,43.262 C24.031,43.332 24.037,43.396 24.04,43.452 C23.8847771,44.4402715 23.291691,45.305648 22.426,45.807 C22.1814804,45.7241759 21.9467517,45.6148594 21.726,45.481 C21.6239906,45.0535595 21.4701865,44.6401691 21.268,44.25 C21.0661886,43.9393327 20.9553422,43.5783891 20.948,43.208 C21.0392693,42.6664903 21.300551,42.1680936 21.694,41.785 C22.1315735,41.3023234 22.2094333,40.593113 21.887,40.027 C21.88,40.015 21.869,40.008 21.862,39.996 C22.3740493,39.5515485 22.9630752,39.2045045 23.6,38.972 C23.3740522,39.4021113 23.2312242,39.8709671 23.179,40.354 C23.1429969,41.0924761 23.3241224,41.8253217 23.7,42.462 Z M27.931,39.8 C28.0723315,40.0568596 28.1802079,40.3307513 28.252,40.615 C28.24,40.777 28.236,40.934 28.236,41.088 C27.9722859,41.9402474 27.4126164,42.6701587 26.658,43.146 C26.4132794,43.064957 26.1784659,42.9566074 25.958,42.823 C25.8547044,42.3923648 25.6992209,41.975951 25.495,41.583 C25.294781,41.2743662 25.1830607,40.9167229 25.172,40.549 C25.2733176,40.0096461 25.5354721,39.5135744 25.924,39.126 C26.3611134,38.6434942 26.4370616,37.9341054 26.112,37.37 C26.1045611,37.3592442 26.0965496,37.3488959 26.088,37.339 C26.6034452,36.8933572 27.195327,36.5447331 27.835,36.31 C27.609939,36.740046 27.4674793,37.2084671 27.415,37.691 C27.3774089,38.4293005 27.5567864,39.162454 27.931,39.8 Z M16.631,43.836 C17.2523597,42.8006385 18.2223973,42.0206375 19.367,41.636 C19.1435983,42.0642263 19.0028131,42.5306833 18.952,43.011 C18.9108909,43.7520959 19.0893397,44.4888496 19.465,45.129 C19.6096896,45.3890883 19.7183512,45.6676386 19.788,45.957 C19.935,46.795 19.1,47.845 18.193,48.468 C17.8645982,48.3567737 17.5530222,48.2009857 17.267,48.005 C15.9729644,47.010309 15.6921351,45.1727948 16.63,43.837 L16.631,43.836 Z M22.759,53.582 C21.1488304,53.8505515 19.6133342,52.8015973 19.278,51.204 C19.2247649,50.8607341 19.2193803,50.5117448 19.262,50.167 C20.217,49.621 21.526,49.324 22.217,49.819 C22.446623,50.0074742 22.6500834,50.2257317 22.822,50.468 C23.2355185,51.0845229 23.8221119,51.5650006 24.508,51.849 C24.9637331,52.0094674 25.4450175,52.0850494 25.928,52.072 C25.0848129,52.9368526 23.9608092,53.4726159 22.758,53.583 L22.759,53.582 Z M28.484,50.539 C28.476,50.528 28.474,50.514 28.466,50.502 C28.0968308,49.9650047 27.4231822,49.7277931 26.799,49.915 C26.2829044,50.1024562 25.7207109,50.1217094 25.193,49.97 C24.903,49.864 24.709,49.631 24.393,49.229 C24.1288458,48.8769495 23.8225654,48.558579 23.481,48.281 C23.4567419,48.0229533 23.4614378,47.7630022 23.495,47.506 C24.3180332,46.9456655 25.3490503,46.7841676 26.304,47.066 C26.365,47.1 26.418,47.131 26.45,47.153 C26.6827165,47.3433759 26.8885863,47.5643832 27.062,47.81 C27.4765485,48.4256657 28.0623215,48.9064515 28.747,49.193 C29.2019788,49.353207 29.6829321,49.4268085 30.165,49.41 C29.6780828,49.8862694 29.107998,50.2692634 28.483,50.54 L28.484,50.539 Z M32.713,47.877 C32.705,47.866 32.703,47.852 32.695,47.841 C32.3265194,47.3024577 31.6521455,47.0639201 31.027,47.251 C30.5135745,47.4397962 29.9536806,47.4618421 29.427,47.314 C29.138,47.207 28.944,46.974 28.627,46.572 C28.3615146,46.2137429 28.0524727,45.8899207 27.707,45.608 C27.6842235,45.3541869 27.6895894,45.0986333 27.723,44.846 C28.4817475,44.3678341 29.3874748,44.1793036 30.274,44.315 C30.405,44.378 30.539,44.438 30.681,44.495 C30.9119008,44.6845572 31.1163839,44.9041747 31.289,45.148 C31.7036696,45.7641871 32.2898229,46.2453473 32.975,46.532 C33.4304988,46.6915101 33.9116477,46.7650896 34.394,46.749 C33.9060681,47.2237643 33.3362112,47.6062664 32.712,47.878 L32.713,47.877 Z" id="Shape"/><path d="M9.386,51.955 C8.80447352,52.0066413 8.23200414,51.7848972 7.837,51.355 C7.29075806,50.3796235 7.12341427,49.2370571 7.367,48.146 C7.47469553,47.6042087 7.12279134,47.0776955 6.581,46.97 C6.03920866,46.8623045 5.51269553,47.2142087 5.405,47.756 C5.343,48.068 4.838,50.851 6.288,52.62 C7.05768847,53.5224048 8.20356146,54.0151302 9.388,53.953 C9.94028475,53.953 10.388,53.5052847 10.388,52.953 C10.388,52.4007153 9.94028475,51.953 9.388,51.953 L9.386,51.955 Z" id="Shape"/><path d="M41.192,46.975 C40.6511498,47.082175 40.2990969,47.6068993 40.405,48.148 C40.6481876,49.2391829 40.4804918,50.381722 39.934,51.357 C39.5393951,51.7868648 38.9672321,52.0086334 38.386,51.957 C37.8337153,51.957 37.386,52.4047153 37.386,52.957 C37.386,53.5092847 37.8337153,53.957 38.386,53.957 C39.5705496,54.019752 40.7166864,53.5269131 41.486,52.624 C42.936,50.855 42.432,48.072 42.369,47.76 C42.3171125,47.4997714 42.1639248,47.270835 41.9431682,47.1236014 C41.7224115,46.9763678 41.4521882,46.9229103 41.192,46.975 Z" id="Shape"/></g></g></svg>
