<?xml version="1.0" encoding="UTF-8"?>
<svg xmlns="http://www.w3.org/2000/svg" xmlns:xlink="http://www.w3.org/1999/xlink" width="512" height="512" viewBox="0 0 60 60" version="1.1"><!-- Generator: Sketch 51.3 (57544) - http://www.bohemiancoding.com/sketch --><title>002 - Malt Grinder</title><desc>Created with Sketch.</desc><defs/><g id="Page-1" stroke="none" stroke-width="1" fill="none" fill-rule="evenodd"><g id="002---Malt-Grinder" fill="#000000" fill-rule="nonzero"><circle id="Oval" cx="37.999" cy="48" r="1"/><circle id="Oval" cx="47.999" cy="48" r="1"/><path d="M14.074,16.185 L15.316,16.87 C15.9231608,17.1151457 16.450873,17.5231278 16.841,18.049 C17.0298162,18.415129 17.1967754,18.7921228 17.341,19.178 C17.5803278,19.8434417 17.8982442,20.4779315 18.288,21.068 C18.9321006,21.9289487 19.6501621,22.7319997 20.434,23.468 L21.848,24.882 C22.5834171,25.668857 23.3865007,26.3896245 24.248,27.036 C24.7925777,27.4040835 25.3811712,27.7024117 26,27.924 L26,37 C26,37.018 26.009,37.033 26.01,37.05 C26.0140883,37.1525343 26.0343376,37.2537805 26.07,37.35 C26.076,37.367 26.078,37.386 26.085,37.403 C26.1255065,37.4967689 26.1801403,37.5837784 26.247,37.661 L32.015,44.256 L24.05,48.156 L24.044,48.156 C24.0050143,48.1691601 23.9669327,48.1848604 23.93,48.203 L23.907,48.214 C23.7985204,48.2589887 23.6929786,48.3107576 23.591,48.369 L23.44,48.442 C23.3889852,48.4687764 23.3395687,48.4984931 23.292,48.531 C23.272,48.544 23.262,48.565 23.244,48.58 C22.1890863,49.3396304 21.7453757,50.6935132 22.1460383,51.9301824 C22.5467009,53.1668517 23.7000499,54.0033107 25,54 L33,54 L33,58 C33,59.1045695 33.8954305,60 35,60 L51,60 C52.1045695,60 53,59.1045695 53,58 L53,51.31 C54.2383253,49.4483428 54.3336291,47.0510866 53.247,45.097 L59.747,37.658 C59.8138597,37.5807784 59.8684935,37.4937689 59.909,37.4 C59.916,37.383 59.918,37.364 59.925,37.347 C59.9599281,37.2506155 59.9798273,37.1494331 59.984,37.047 C59.984,37.03 59.995,37.015 59.995,36.997 L59.995,22 C59.995,20.8954305 59.0995695,20 57.995,20 L55.723,20 C54.8823333,18.456 53.939,16.6403333 52.893,14.553 C50.928,10.622 46.768,8.922 40.854,9.608 C40.204,8.855 39.494,8.081 38.706,7.293 C36.6900398,5.26281441 34.4850577,3.42951497 32.121,1.818 C29.909,0.355 28.726,-1.33226763e-15 28.017,0.1 C27.8250072,0.105230109 27.6388567,0.167164306 27.482,0.278 C27.4170878,0.327032731 27.3562249,0.381207429 27.3,0.44 C24.312,3.075 18.336,8.753 15.875,11.383 C15.682,11.594 15.564,11.731 15.483,11.824 L15.469,11.841 C15.349,11.895 15.162,11.979 14.82,12.159 C14.755,12.195 14.686,12.227 14.62,12.259 C14.526,12.302 14.431,12.347 14.359,12.385 C13.7850575,12.6265778 13.3363587,13.0944548 13.119,13.678 C12.7925103,14.6345982 13.1938113,15.6880659 14.074,16.185 Z M52,48 C52,50.209139 50.209139,52 48,52 C45.790861,52 44,50.209139 44,48 C44,45.790861 45.790861,44 48,44 C50.209139,44 52,45.790861 52,48 Z M42,48 C42.0028067,49.0616745 41.5807877,50.0803536 40.828,50.829 C39.2443094,52.3382067 36.7546906,52.3382067 35.171,50.829 C33.8912686,49.5487499 33.6308255,47.5686352 34.5359777,46.0010089 C35.4411299,44.4333826 37.2862416,43.6690217 39.0347993,44.1373149 C40.783357,44.6056082 41.9994814,46.1898198 42,48 Z M25,52 C24.4477153,52 24,51.5522847 24,51 C24.0034121,50.6340896 24.2083859,50.2999016 24.533,50.131 L24.657,50.069 C25.033846,49.9215229 25.462428,50.0157067 25.7427207,50.3075943 C26.0230133,50.599482 26.0997568,51.0315277 25.9371339,51.4020897 C25.7745109,51.7726517 25.4045827,52.0086733 25,52 Z M27.815,52 C28.2202407,50.9122009 27.9457883,49.6877513 27.115,48.877 L32.224,46.377 C32.0757811,46.9052768 32.0004179,47.4513242 32,48 C31.9965973,49.1810537 32.3447011,50.3364102 33,51.319 L33,52 L27.815,52 Z M35,58 L35,54 L38,54 C39.5919249,54.0044641 41.1194531,53.371775 42.242,52.243 C42.5248288,51.9592181 42.7787441,51.6480211 43,51.314 C44.7464944,53.9631392 48.2586458,54.7858607 51,53.188 L51,58 L35,58 Z M51.97,43.515 C50.7880675,42.4604185 49.235372,41.9189736 47.6539705,42.009945 C46.072569,42.1009164 44.5922047,42.8168405 43.539,44 L42.461,44 C42.388,43.919 42.319,43.835 42.241,43.757 C40.5057308,42.0222276 37.8890426,41.5188508 35.634,42.486 C35.625889,42.4875266 35.6178751,42.4895301 35.61,42.492 L35.31,42.637 C35.257,42.664 35.202,42.687 35.15,42.716 L33.871,43.342 L29.2,38 L56.8,38 L51.97,43.515 Z M58,36 L28,36 L28,29.221 C28.155,29.457 28.3,29.721 28.456,30.004 L29.149,31.263 C29.6479584,32.1436763 30.7041413,32.5431085 31.661,32.213 C32.2319238,31.99785 32.6909974,31.5600699 32.933,31 C32.994,30.885 33.047,30.767 33.099,30.651 L33.171,30.493 C33.328,30.2 33.413,30.019 33.484,29.86 L33.515,29.834 C33.608,29.753 33.743,29.634 33.95,29.444 C35.757,27.761 38.841,24.559 41.241,22.003 L58,22.003 L58,36 Z M44.343,18.637 L44.561,18.761 C45.1351511,19.091687 45.6543599,19.5096855 46.1,20 L43.1,20 C43.549,19.51 43.967,19.053 44.343,18.637 Z M51.104,15.447 C51.948,17.135 52.73,18.6526667 53.45,20 L48.564,20 C47.8331008,18.7647767 46.7951597,17.7395816 45.551,17.024 L44.634,16.501 C44.626,16.501 44.618,16.501 44.61,16.494 C44.577675,16.4774268 44.5442653,16.4630606 44.51,16.451 C44.47094,16.4358021 44.4308363,16.4234368 44.39,16.414 C44.325738,16.3840774 44.254311,16.372982 44.184,16.382 C44.1760078,16.3814995 44.1679922,16.3814995 44.16,16.382 C44.1190382,16.3794962 44.0779618,16.3794962 44.037,16.382 C43.997,16.387 43.96,16.392 43.921,16.4 C43.8792182,16.4115964 43.8381485,16.4256202 43.798,16.442 L43.79,16.442 C43.758,16.454 43.726,16.459 43.696,16.473 C43.689,16.473 43.681,16.473 43.674,16.481 C42.863,16.41 40.115,15.007 37.011,12.4 C38.1837975,12.0665402 39.3783381,11.8149348 40.586,11.647 C44.263,11.141 49.075,11.39 51.1,15.447 L51.104,15.447 Z M37.292,8.707 C37.7206667,9.137 38.129,9.562 38.517,9.982 C37.4215869,10.2061021 36.3401022,10.4935854 35.278,10.843 C35.086,10.661 34.894,10.482 34.706,10.293 C32.2958768,8.03356611 30.3542738,5.32164205 28.992,2.312 C32.0714581,4.00355816 34.8711362,6.16065953 37.292,8.707 Z M15.266,14.164 C15.328,14.131 15.391,14.103 15.454,14.073 C15.573,14.019 15.689,13.963 15.772,13.916 C16.049,13.771 16.204,13.702 16.302,13.658 C16.5801901,13.5500638 16.8226535,13.3664843 17.002,13.128 C17.073,13.045 17.178,12.928 17.343,12.743 C19.419,10.52 24.07,6.068 27.214,3.2 C28.155,5.733 30.834,9.246 33.292,11.7 C33.639,12.047 33.992,12.384 34.35,12.717 C35.838,14.095 39.45,17.05 42.132,18.088 C41.51,18.769 40.818,19.519 40.079,20.309 C37.666,22.887 34.43,26.253 32.591,27.967 C32.408,28.136 32.291,28.242 32.203,28.314 C31.9655776,28.4930277 31.781332,28.7332728 31.67,29.009 C31.626,29.109 31.556,29.261 31.394,29.566 C31.353,29.648 31.314,29.735 31.274,29.823 C31.234,29.911 31.205,29.979 31.154,30.076 C31.1185936,30.1635708 31.0689208,30.2446693 31.007,30.316 C30.9647778,30.3301229 30.918304,30.3146317 30.893,30.278 L30.216,29.05 C29.8088843,28.0923177 29.1178007,27.2825632 28.236,26.73 C27.959,26.575 27.682,26.451 27.389,26.322 L26.895,26.122 C26.3760329,25.9419834 25.881026,25.6991815 25.421,25.399 C24.6514819,24.8178657 23.9337948,24.1711108 23.276,23.466 L21.851,22.04 C21.1507575,21.3867123 20.5083612,20.6740539 19.931,19.91 C19.6331293,19.4457387 19.389535,18.9488195 19.205,18.429 C19.0297933,17.966647 18.826412,17.5154677 18.596,17.078 C18.0344525,16.2027464 17.2241009,15.5153231 16.269,15.104 L15.055,14.435 C15.0133832,14.4131761 14.9925761,14.3653198 15.005,14.32 C15.082947,14.2541656 15.1711025,14.2014749 15.266,14.164 Z" id="Shape"/><path d="M54,32 C53.4477153,32 53,32.4477153 53,33 C53,33.5522847 53.4477153,34 54,34 L55,34 C55.5522847,34 56,33.5522847 56,33 C56,32.4477153 55.5522847,32 55,32 L54,32 Z" id="Shape"/><path d="M50,32 L42,32 C41.4477153,32 41,32.4477153 41,33 C41,33.5522847 41.4477153,34 42,34 L50,34 C50.5522847,34 51,33.5522847 51,33 C51,32.4477153 50.5522847,32 50,32 Z" id="Shape"/><path d="M28.551,25.45 C29.3448451,25.811386 30.206768,25.9989088 31.079,26 C31.9001004,26.0048383 32.710863,25.8167907 33.446,25.451 C33.9400187,25.2038526 34.1401474,24.6030187 33.893,24.109 C33.6458525,23.6149813 33.0450187,23.4148526 32.551,23.662 C31.5604576,24.099335 30.4315424,24.099335 29.441,23.662 C28.9472057,23.4211587 28.3515903,23.6237818 28.1071018,24.1157806 C27.8626133,24.6077794 28.0608238,25.2048777 28.551,25.453 L28.551,25.45 Z" id="Shape"/><path d="M0.55,43.463 C-0.232129614,45.6948248 -0.0758942737,48.1484051 0.983,50.263 C1.99735226,52.3577574 4.09258096,53.7144912 6.419,53.783 C7.16689775,53.7834182 7.90653997,53.6266999 8.59,53.323 C8.728,53.261 8.881,53.185 9.04,53.103 C9.22482157,56.0112734 10.9443641,58.6010652 13.553,59.9 C13.8727527,60.0596977 14.2534141,60.0366785 14.5515927,59.8396134 C14.8497714,59.6425483 15.0201668,59.3013762 14.9985927,58.9446134 C14.9770187,58.5878505 14.7667527,58.2696977 14.447,58.11 C12.5328082,57.1561844 11.2470779,55.281287 11.047,53.152 C11.169,53.215 11.292,53.275 11.411,53.33 C12.0935234,53.6320122 12.8316425,53.7880152 13.578,53.788 C15.9050815,53.7203318 18.0017578,52.3650643 19.019,50.271 C20.0732807,48.1552095 20.2297477,45.7036532 19.453,43.471 C20.0833948,41.5991932 20.0869052,39.5729798 19.463,37.699 C20.1722341,35.5165201 20.0656405,33.1508511 19.163,31.041 C18.9209281,30.389687 18.2861544,29.9690636 17.592,30 C16.8921878,30.0291177 16.2906849,30.5054758 16.102,31.18 C15.9471101,31.8827535 15.572734,32.5180372 15.033,32.994 C15.012,33.01 14.988,33.019 14.966,33.034 C14.6853943,31.7342881 14.1978516,30.4880831 13.522,29.343 C12.5237623,27.6110888 11.8303521,25.7206161 11.472,23.754 C11.4653003,23.6994583 11.4539251,23.6455934 11.438,23.593 C11.2490587,22.9564037 10.6640434,22.5197974 10,22.5197974 C9.33595656,22.5197974 8.75094133,22.9564037 8.562,23.593 C8.54607487,23.6455934 8.53469968,23.6994583 8.528,23.754 C8.16964786,25.7206161 7.47623775,27.6110888 6.478,29.343 C5.80157519,30.4882689 5.31368265,31.7348428 5.033,33.035 C5.011,33.02 4.986,33.011 4.964,32.994 C4.42591377,32.5178999 4.05327162,31.8829373 3.9,31.181 C3.71039324,30.5052752 3.10724396,30.0284886 2.406,30 C1.71607382,29.9705293 1.0850864,30.3870213 0.841,31.033 C-0.0606027451,33.1423882 -0.167183295,35.5070553 0.541,37.689 C-0.0868979889,39.5629617 -0.0837368547,41.5910048 0.55,43.463 Z M6.412,42.242 C6.97771779,42.2417444 7.53977542,42.151275 8.077,41.974 C8.67000093,42.8423684 8.9912922,43.8675068 9,44.919 C8.66938111,45.2180663 8.29293312,45.4621666 7.885,45.642 C7.851,45.656 7.819,45.673 7.785,45.69 L7.76,45.7 L7.753,45.7 C5.684,46.608 3.676,45.305 2.753,43.538 C2.66675404,43.3757626 2.58963401,43.2088361 2.522,43.038 C2.16301823,42.1596453 2.01043409,41.210613 2.076,40.264 C3.18444569,41.4961675 4.75488722,42.2125728 6.412,42.242 Z M17.917,40.275 C17.9856901,41.2245891 17.8333718,42.1771776 17.472,43.058 C17.4044734,43.224981 17.3280301,43.3882159 17.243,43.547 C16.321,45.315 14.298,46.622 12.216,45.696 L12.189,45.685 L12.146,45.665 C11.726153,45.4795458 11.3391361,45.2272756 11,44.918 C11.0085136,43.8673978 11.3290857,42.8430293 11.921,41.975 C12.4575574,42.1520755 13.0189783,42.2422134 13.584,42.242 C15.2384109,42.2146883 16.8073949,41.5024354 17.917,40.275 Z M7.776,51.5 C5.698,52.417 3.676,51.109 2.755,49.337 C2.21864925,48.3184932 1.98347563,47.168293 2.077,46.021 C3.18452473,47.250777 4.75325481,47.9650545 6.408,47.993 C6.96344013,47.9927045 7.51542593,47.9056554 8.044,47.735 C8.66150521,48.6071551 8.99531223,49.6483816 9,50.717 C8.63814476,51.0439405 8.22452148,51.3085378 7.776,51.5 Z M17.243,49.341 C16.321,51.1 14.3,52.413 12.227,51.5 C11.7776865,51.3083226 11.3631094,51.0437636 11,50.717 C11.0064889,49.6480505 11.3408763,48.6068422 11.958,47.734 C12.4839121,47.902391 13.0327871,47.9880789 13.585,47.988 C15.2389356,47.9607894 16.8075274,47.2489123 17.917,46.022 C18.0116697,47.1685827 17.7778872,48.3184177 17.243,49.337 L17.243,49.341 Z M16.257,34.581 C16.8514399,34.1063478 17.3227438,33.4954363 17.631,32.8 C18.1604216,34.4530993 18.0218748,36.2477468 17.245,37.8 C16.32,39.57 14.299,40.877 12.221,39.952 C11.773406,39.7635533 11.3606594,39.5012344 11,39.176 C11.036,37.706 11.623,36.036 12.71,35.593 C13.0744377,35.4697565 13.4538843,35.3964237 13.838,35.375 L13.886,35.37 L13.901,35.37 C14.7469718,35.3416845 15.5660828,35.0659821 16.257,34.577 L16.257,34.581 Z M10,26.269 C10.471517,27.639863 11.0527312,28.9705023 11.738,30.248 C12.3435388,31.2393701 12.7706654,32.3291859 13,33.468 C12.644768,33.5177421 12.296677,33.6093803 11.963,33.741 C11.1320541,34.1043749 10.4427001,34.7294642 10,35.521 C9.55772276,34.7302288 8.86959008,34.1052919 8.04,33.741 C7.70716882,33.6101708 7.36012561,33.518879 7.006,33.469 C7.2335738,32.330133 7.65901132,31.2399705 8.263,30.248 C8.94792631,28.9704708 9.52880573,27.6398322 10,26.269 Z M2.366,32.8 C2.67480478,33.4937061 3.14608367,34.1028701 3.74,34.576 C4.38108597,35.0383164 5.14170256,35.30632 5.931,35.348 C5.956,35.353 5.98,35.354 6.005,35.357 L6.157,35.375 C6.54111569,35.3964237 6.92056225,35.4697565 7.285,35.593 C8.373,36.036 8.959,37.705 8.995,39.176 C8.63486993,39.5006906 8.22281731,39.7626601 7.776,39.951 C5.698,40.874 3.676,39.568 2.752,37.799 C2.65665735,37.6160983 2.57054916,37.4285293 2.494,37.237 C2.487,37.224 2.486,37.209 2.479,37.196 C1.9584865,35.7830502 1.91876622,34.2378259 2.366,32.8 Z" id="Shape"/></g></g></svg>
