<?xml version="1.0" encoding="UTF-8"?>
<svg xmlns="http://www.w3.org/2000/svg" xmlns:xlink="http://www.w3.org/1999/xlink" width="512" height="512" viewBox="0 0 60 60" version="1.1"><!-- Generator: Sketch 51.3 (57544) - http://www.bohemiancoding.com/sketch --><title>004 - Brewing Tank</title><desc>Created with Sketch.</desc><defs/><g id="Page-1" stroke="none" stroke-width="1" fill="none" fill-rule="evenodd"><g id="004---Brewing-Tank" fill="#000000" fill-rule="nonzero"><path d="M5,21 C4.44771525,21 4,21.4477153 4,22 L4,23 C4,23.5522847 4.44771525,24 5,24 C5.55228475,24 6,23.5522847 6,23 L6,22 C6,21.4477153 5.55228475,21 5,21 Z" id="Shape"/><path d="M58,53.184 L58,48 C57.9941978,46.718874 57.1754893,45.5828055 55.962,45.172 C55.571,37.711 50.002,32.142 44.8,30.072 C43.883,29.707 43.006,29.382 42.173,29.072 C37.163,27.22 34.4,26.2 34,20.91 L33.985,20.732 C34.6104746,20.3795009 34.9981542,19.7179629 35,19 L35,5.232 C35.5622254,3.91243984 36.5737127,2.83470093 37.855,2.19 L38.447,1.895 C38.862452,1.68794008 39.0807945,1.22220932 38.9742238,0.770416345 C38.8676531,0.318623369 38.4641918,-0.000433897871 38,7.14367259e-16 L22,7.14367259e-16 C21.5317622,-0.00526359458 21.1225738,0.315103372 21.0153355,0.770926045 C20.9080973,1.22674872 21.1315298,1.69594807 21.553,1.9 L22.145,2.195 C23.4254181,2.83845968 24.4367942,3.91430883 25,5.232 L25,19 C25.0024565,19.7185897 25.3913686,20.3802752 26.018,20.732 L26,20.914 C25.594,26.199 22.834,27.22 17.824,29.073 C16.991,29.381 16.114,29.706 15.197,30.073 C14.4394053,30.3787689 13.7051237,30.7393924 13,31.152 L13,29 C14.6568542,29 16,27.6568542 16,26 L16,15 C16,13.3431458 14.6568542,12 13,12 L11,12 C9.34314575,12 8,13.3431458 8,15 L8,19.026 C7.13961114,18.3641933 6.08546927,18.0036768 5,18 C2.23857625,18 3.38176876e-16,20.2385763 0,23 C-3.38176876e-16,25.7614237 2.23857625,28 5,28 C6.14723671,27.994877 7.25710298,27.5915784 8.14,26.859 C8.51644572,28.1255778 9.67867053,28.9956209 11,29 L11,32.5 C6.94240849,35.5066075 4.39965432,40.1348437 4.038,45.172 C2.8245107,45.5828055 2.00580217,46.718874 2,48 L2,53.184 C0.805649135,53.6062546 0.00525139351,54.7332146 0,56 L0,57 C2.02906125e-16,58.6568542 1.34314575,60 3,60 L57,60 C58.6568542,60 60,58.6568542 60,57 L60,56 C59.9947486,54.7332146 59.1943509,53.6062546 58,53.184 Z M11,14 L13,14 C13.5522847,14 14,14.4477153 14,15 L14,18 L10,18 L10,15 C10,14.4477153 10.4477153,14 11,14 Z M5,26 C3.34314575,26 2,24.6568542 2,23 C2,21.3431458 3.34314575,20 5,20 C6.65685425,20 8,21.3431458 8,23 C8,24.6568542 6.65685425,26 5,26 Z M10,26 L10,20 L14,20 L14,26 C14,26.5522847 13.5522847,27 13,27 L11,27 C10.4477153,27 10,26.5522847 10,26 Z M27,19 L27,6 L33,6 L33,19 L27,19 Z M34.776,2 C34.2031053,2.59051904 33.7235954,3.26493519 33.354,4 L26.646,4 C26.2764046,3.26493519 25.7968947,2.59051904 25.224,2 L34.776,2 Z M11,35.1 L11,40 C11,40.5522847 11.4477153,41 12,41 C12.5522847,41 13,40.5522847 13,40 L13,33.513 C13.9198403,32.8802443 14.9056064,32.3491377 15.94,31.929 C16.84,31.57 17.703,31.251 18.521,30.949 C23.534,29.1 27.493,27.63 28,21.071 L28,21 L32,21 L32,21.067 C32.5,27.63 36.463,29.095 41.476,30.949 C42.294,31.249 43.156,31.57 44.057,31.929 C48.612,33.743 53.497,38.553 53.957,45 L6.036,45 C6.37131878,41.1887626 8.14643091,37.6485511 11,35.1 Z M4,48 C4,47.4477153 4.44771525,47 5,47 L55,47 C55.5522847,47 56,47.4477153 56,48 L56,53 L51,53 L51,50 C51,49.4477153 50.5522847,49 50,49 C49.4477153,49 49,49.4477153 49,50 L49,53 L47,53 L47,50 C47,49.4477153 46.5522847,49 46,49 C45.4477153,49 45,49.4477153 45,50 L45,53 L15,53 L15,50 C15,49.4477153 14.5522847,49 14,49 C13.4477153,49 13,49.4477153 13,50 L13,53 L11,53 L11,50 C11,49.4477153 10.5522847,49 10,49 C9.44771525,49 9,49.4477153 9,50 L9,53 L4,53 L4,48 Z M58,57 C58,57.5522847 57.5522847,58 57,58 L3,58 C2.44771525,58 2,57.5522847 2,57 L2,56 C2,55.4477153 2.44771525,55 3,55 L57,55 C57.5522847,55 58,55.4477153 58,56 L58,57 Z" id="Shape"/><path d="M30,43 C35.215,43 39,40.056 39,36 C39,31.944 35.215,29 30,29 C25.691,29 22.365,31.013 21.337,34 L20,34 C19.4477153,34 19,34.4477153 19,35 C19,35.5522847 19.4477153,36 20,36 L21,36 C21.0002771,36.6807731 21.1141752,37.3567262 21.337,38 L20,38 C19.4477153,38 19,38.4477153 19,39 C19,39.5522847 19.4477153,40 20,40 L22.475,40 C24.4264761,42.0485529 27.1743899,43.1440666 30,43 Z M30,31 C34.056,31 37,33.1 37,36 C37,38.9 34.056,41 30,41 C27.219,41 24.962,40.011 23.817,38.456 C23.8,38.431 23.785,38.404 23.766,38.38 C23.2679515,37.6863469 23.0000411,36.8539361 23,36 C23,33.1 25.944,31 30,31 Z" id="Shape"/><path d="M30,39 C33.1,39 35.444,37.495 35.444,35.5 C35.444,33.505 33.1,32 30,32 C26.9,32 24.556,33.505 24.556,35.5 C24.556,37.495 26.9,39 30,39 Z M30,34 C32.071,34 33.444,34.9 33.444,35.5 C33.444,36.1 32.071,37 30,37 C27.929,37 26.556,36.1 26.556,35.5 C26.556,34.9 27.929,34 30,34 Z" id="Shape"/></g></g></svg>
