<?xml version="1.0" encoding="UTF-8"?>
<svg xmlns="http://www.w3.org/2000/svg" xmlns:xlink="http://www.w3.org/1999/xlink" width="512" height="512" viewBox="0 0 34 60" version="1.1"><!-- Generator: Sketch 51.3 (57544) - http://www.bohemiancoding.com/sketch --><title>005 - Fermenting Tank</title><desc>Created with Sketch.</desc><defs/><g id="Page-1" stroke="none" stroke-width="1" fill="none" fill-rule="evenodd"><g id="005---Fermenting-Tank" fill="#000000" fill-rule="nonzero"><path d="M3,37 L4,37 L4,39.007 C4.00337436,39.1220543 4.02637156,39.2356876 4.068,39.343 C4.079,39.371 4.089,39.398 4.102,39.425 C4.11045274,39.4491445 4.12013199,39.472842 4.131,39.496 L5,41.015 L5,58 C5,59.1045695 5.8954305,60 7,60 L9,60 C10.1045695,60 11,59.1045695 11,58 L11,51.513 L12.105,53.447 C13.181,55.6 14.319,55.936 16,55.989 L16,57 C16,57.5522847 16.4477153,58 17,58 C17.5522847,58 18,57.5522847 18,57 L18,55.989 C19.713512,56.1224838 21.3040599,55.0916187 21.882,53.473 L23,51.516 L23,58 C23,59.1045695 23.8954305,60 25,60 L27,60 C28.1045695,60 29,59.1045695 29,58 L29,41.015 L29.868,39.496 C29.878868,39.472842 29.8885473,39.4491445 29.897,39.425 C29.91,39.398 29.92,39.371 29.931,39.343 C29.9729705,39.2357478 29.9963062,39.1221126 30,39.007 L30,37 L31,37 C32.6568542,37 34,35.6568542 34,34 L34,10 C33.9939376,4.47966557 29.5203344,0.00606237045 24,0 L10,0 C4.47966557,0.00606237045 0.00606237045,4.47966557 0,10 L0,34 C0,35.6568542 1.34314575,37 3,37 Z M18,5 C18,6.1045695 18.8954305,7 20,7 L24,7 C25.6568542,7 27,8.34314575 27,10 L7,10 C7,8.34314575 8.34314575,7 10,7 L14,7 C15.1045695,7 16,6.1045695 16,5 L18,5 Z M10,38 L6,38 L6,12 L28,12 L28,38 L10,38 Z M13.36,40 L20.64,40 L17,51.647 L13.36,40 Z M9,58 L7,58 L7,44.514 L9,48.014 L9,58 Z M13.868,52.5 L6.723,40 L11.265,40 L15.629,53.967 C14.69,53.887 14.415,53.594 13.868,52.5 Z M20.132,52.5 L20.105,52.549 C19.578,53.603 19.305,53.886 18.37,53.964 L22.735,40 L27.277,40 L20.132,52.5 Z M27,58 L25,58 L25,48.016 L27,44.516 L27,58 Z M32,10 L32,34 C32,34.5522847 31.5522847,35 31,35 L30,35 L30,12 C29.997855,11.2886732 29.6167513,10.6324126 29,10.278 L29,10 C28.9966939,7.23994685 26.7600532,5.00330612 24,5 L20,5 C20,3.8954305 19.1045695,3 18,3 L18,2 L24,2 C28.4162219,2.00495988 31.9950401,5.58377808 32,10 Z M2,10 C2.00495988,5.58377808 5.58377808,2.00495988 10,2 L16,2 L16,3 C14.8954305,3 14,3.8954305 14,5 L10,5 C7.23994685,5.00330612 5.00330612,7.23994685 5,10 L5,10.278 C4.38324874,10.6324126 4.002145,11.2886732 4,12 L4,35 L3,35 C2.44771525,35 2,34.5522847 2,34 L2,10 Z" id="Shape"/><path d="M17,25 C15.4345092,25.0045607 13.962398,25.7454319 13.026,27 L11,27 C10.4477153,27 10,27.4477153 10,28 C10,28.5522847 10.4477153,29 11,29 L12.1,29 C11.965306,29.6598632 11.965306,30.3401368 12.1,31 L11,31 C10.4477153,31 10,31.4477153 10,32 C10,32.5522847 10.4477153,33 11,33 L13.026,33 C14.4402576,34.8715513 16.9669968,35.5056317 19.0973568,34.5235955 C21.2277168,33.5415592 22.3866764,31.2084751 21.8821543,28.9175612 C21.3776323,26.6266473 19.3458079,24.9962613 17,25 Z M17,33 C15.3431458,33 14,31.6568542 14,30 C14,28.3431458 15.3431458,27 17,27 C18.6568542,27 20,28.3431458 20,30 C20,31.6568542 18.6568542,33 17,33 Z" id="Shape"/><path d="M11,15 C11,14.4477153 10.5522847,14 10,14 L9,14 C8.44771525,14 8,14.4477153 8,15 C8,15.5522847 8.44771525,16 9,16 L10,16 C10.5522847,16 11,15.5522847 11,15 Z" id="Shape"/><path d="M14,16 L19,16 C19.5522847,16 20,15.5522847 20,15 C20,14.4477153 19.5522847,14 19,14 L14,14 C13.4477153,14 13,14.4477153 13,15 C13,15.5522847 13.4477153,16 14,16 Z" id="Shape"/></g></g></svg>
