<?xml version="1.0" encoding="UTF-8"?>
<svg xmlns="http://www.w3.org/2000/svg" xmlns:xlink="http://www.w3.org/1999/xlink" width="512" height="512" viewBox="0 0 60 48" version="1.1"><!-- Generator: Sketch 51.3 (57544) - http://www.bohemiancoding.com/sketch --><title>006 - Cooling Tank</title><desc>Created with Sketch.</desc><defs/><g id="Page-1" stroke="none" stroke-width="1" fill="none" fill-rule="evenodd"><g id="006---Cooling-Tank" fill="#000000" fill-rule="nonzero"><path d="M58,11 L52,11 L52,9.9 C54.5149632,9.38663528 56.2326695,7.05230129 55.9746808,4.4984757 C55.716692,1.94465012 53.5668236,0.00102051443 51,0.00102051443 C48.4331764,0.00102051443 46.283308,1.94465012 46.0253192,4.4984757 C45.7673305,7.05230129 47.4850368,9.38663528 50,9.9 L50,11 L49,11 C47.8954305,11 47,11.8954305 47,13 L47,20 C47,21.1045695 47.8954305,22 49,22 L49,27 L44,27 L44,8 C44,6.34314575 42.6568542,5 41,5 C39.3431458,5 38,6.34314575 38,8 L27,8 C25.3431458,8 24,9.34314575 24,11 L24,19 L22,19 L22,11 C22,9.34314575 20.6568542,8 19,8 L8,8 C8,6.34314575 6.65685425,5 5,5 C3.34314575,5 2,6.34314575 2,8 L2,41 C0.8954305,41 1.3527075e-16,41.8954305 0,43 L0,46 C1.3527075e-16,47.1045695 0.8954305,48 2,48 L58,48 C59.1045695,48 60,47.1045695 60,46 L60,43 C60,41.8954305 59.1045695,41 58,41 L44,41 L44,38 L52,38 C55.3123376,37.9966926 57.9966926,35.3123376 58,32 L58,22 C59.1045695,22 60,21.1045695 60,20 L60,13 C60,11.8954305 59.1045695,11 58,11 Z M48,5 C48,3.34314575 49.3431458,2 51,2 C52.6568542,2 54,3.34314575 54,5 C54,6.65685425 52.6568542,8 51,8 C49.3431458,8 48,6.65685425 48,5 Z M36,41 L36,39 C36,38.4477153 35.5522847,38 35,38 C34.4477153,38 34,38.4477153 34,39 L34,41 L32,41 L32,39 C32,38.4477153 31.5522847,38 31,38 C30.4477153,38 30,38.4477153 30,39 L30,41 L16,41 L16,39 C16,38.4477153 15.5522847,38 15,38 C14.4477153,38 14,38.4477153 14,39 L14,41 L12,41 L12,39 C12,38.4477153 11.5522847,38 11,38 C10.4477153,38 10,38.4477153 10,39 L10,41 L8,41 L8,35 L38,35 L38,41 L36,41 Z M10,10 L10,26 C10,26.5522847 10.4477153,27 11,27 C11.5522847,27 12,26.5522847 12,26 L12,10 L16,10 L16,26 C16,26.5522847 16.4477153,27 17,27 C17.5522847,27 18,26.5522847 18,26 L18,10 L19,10 C19.5522847,10 20,10.4477153 20,11 L20,19 C20,20.1045695 20.8954305,21 22,21 L24,21 C25.1045695,21 26,20.1045695 26,19 L26,11 C26,10.4477153 26.4477153,10 27,10 L28,10 L28,26 C28,26.5522847 28.4477153,27 29,27 C29.5522847,27 30,26.5522847 30,26 L30,10 L34,10 L34,26 C34,26.5522847 34.4477153,27 35,27 C35.5522847,27 36,26.5522847 36,26 L36,10 L38,10 L38,33 L8,33 L8,10 L10,10 Z M4,8 C4,7.44771525 4.44771525,7 5,7 C5.55228475,7 6,7.44771525 6,8 L6,41 L4,41 L4,8 Z M58,46 L2,46 L2,43 L58,43 L58,46 Z M40,41 L40,8 C40,7.44771525 40.4477153,7 41,7 C41.5522847,7 42,7.44771525 42,8 L42,41 L40,41 Z M44,29 L49,29 L49,36 L44,36 L44,29 Z M56,32 C56,34.209139 54.209139,36 52,36 L51,36 L51,22 L56,22 L56,32 Z M57,20 L49,20 L49,13 L58,13 L58,20 L57,20 Z" id="Shape"/><path d="M53,16 L51,16 C50.4477153,16 50,16.4477153 50,17 C50,17.5522847 50.4477153,18 51,18 L53,18 C53.5522847,18 54,17.5522847 54,17 C54,16.4477153 53.5522847,16 53,16 Z" id="Shape"/><circle id="Oval" cx="56" cy="17" r="1"/><path d="M52,5 L52,4 C52,3.44771525 51.5522847,3 51,3 C50.4477153,3 50,3.44771525 50,4 L50,5 C50,5.55228475 50.4477153,6 51,6 C51.5522847,6 52,5.55228475 52,5 Z" id="Shape"/><path d="M11,31 L12,31 C12.5522847,31 13,30.5522847 13,30 C13,29.4477153 12.5522847,29 12,29 L11,29 C10.4477153,29 10,29.4477153 10,30 C10,30.5522847 10.4477153,31 11,31 Z" id="Shape"/><path d="M15,31 L23,31 C23.5522847,31 24,30.5522847 24,30 C24,29.4477153 23.5522847,29 23,29 L15,29 C14.4477153,29 14,29.4477153 14,30 C14,30.5522847 14.4477153,31 15,31 Z" id="Shape"/></g></g></svg>
