<?xml version="1.0" encoding="UTF-8"?>
<svg xmlns="http://www.w3.org/2000/svg" xmlns:xlink="http://www.w3.org/1999/xlink" width="512" height="512" viewBox="0 0 60 60" version="1.1"><!-- Generator: Sketch 51.3 (57544) - http://www.bohemiancoding.com/sketch --><title>008 - Beer Pouring</title><desc>Created with Sketch.</desc><defs/><g id="Page-1" stroke="none" stroke-width="1" fill="none" fill-rule="evenodd"><g id="008---Beer-Pouring" fill="#000000" fill-rule="nonzero"><path d="M1,51 L15,51 C15.5522847,51 16,50.5522847 16,50 C15.9970976,47.459818 14.3949087,45.1967262 12,44.35 L12,24.01 L12.1,24.01 C13.3220627,23.9448399 14.54759,24.0095354 15.756,24.203 C17.2869914,24.5313727 18.7036945,25.2593911 19.862,26.313 C20.014,26.455 20.156,26.597 20.302,26.743 C20.484,26.9243333 20.6663333,27.108 20.849,27.294 C21.7356807,28.287485 22.7640871,29.144715 23.901,29.838 C24.4918178,30.1885695 25.1622747,30.3826854 25.849,30.402 C26.0638655,30.4021196 26.2781129,30.3789849 26.488,30.333 C26.9639554,30.2128273 27.4035723,29.9787768 27.769,29.651 L27.975,29.474 C28.4364903,29.1293653 28.8142145,28.6849838 29.08,28.174 C29.4224419,27.4369696 29.3362054,26.5719211 28.855,25.917 C28.5200821,25.4846408 28.1227374,25.104484 27.676,24.789 C27.515,24.664 27.353,24.54 27.209,24.41 C26.671,23.923 26.166,23.424 25.709,22.927 C24.7655586,21.9189725 23.9601832,20.7901018 23.314,19.57 C23.0287182,18.8775048 22.9207898,18.1247557 23,17.38 L23,17.28 L29.854,5.009 C29.8838887,4.95392474 29.9089813,4.89637902 29.929,4.837 C30.5318355,3.02875102 29.6207158,1.06401209 27.851,0.356 L27.827,0.347 C26.8899497,-0.020824602 25.8416966,0.0204919674 24.9365036,0.460928016 C24.0313106,0.901364064 23.3518751,1.70068188 23.063,2.665 L17.105,14.574 C17.099,14.586 17.105,14.601 17.094,14.614 C17.0530123,14.7067643 17.0263742,14.8052238 17.015,14.906 C17.015,14.929 17.007,14.951 17.006,14.975 C17.005,14.999 17,15.005 17,15.021 L17,17.314 C17,17.7044653 16.6834653,18.021 16.293,18.021 L12,18.021 L12,17.021 C12,14.811861 10.209139,13.021 8,13.021 C5.790861,13.021 4,14.811861 4,17.021 L4,44.35 C1.6050913,45.1967262 0.00290242833,47.459818 0,50 C-1.91695616e-15,50.2652165 0.10535684,50.5195704 0.292893219,50.7071068 C0.480429597,50.8946432 0.73478351,51 1,51 Z M24.9,3.476 C24.9301288,3.41527297 24.953921,3.35160353 24.971,3.286 C25.0887785,2.84368975 25.3903519,2.47300111 25.7994452,2.26768976 C26.2085386,2.06237842 26.6859751,2.04210605 27.111,2.212 L27.128,2.219 C27.8761965,2.52703014 28.2766717,3.34514979 28.061,4.125 L21.593,15.7 L19.342,14.575 L24.9,3.476 Z M16.3,20.021 C17.7923004,20.0171411 19.000005,18.8063054 19,17.314 L19,16.639 L21,17.639 C20.9376208,18.6204545 21.1251309,19.6017002 21.545,20.491 C22.2733969,21.8688089 23.1813128,23.1439263 24.245,24.283 C24.745,24.826 25.293,25.37 25.877,25.897 C26.058,26.061 26.257,26.216 26.459,26.373 C26.7478384,26.5732729 27.0084975,26.8113976 27.234,27.081 C27.2934853,27.1511813 27.3096182,27.2483628 27.276,27.334 C27.1212395,27.5726222 26.9235631,27.7804706 26.693,27.947 L26.454,28.147 C26.3362989,28.2559125 26.1949215,28.336015 26.041,28.381 C25.6295579,28.4199973 25.2174331,28.3138707 24.876,28.081 C23.9112028,27.4774185 23.0379763,26.7385604 22.283,25.887 C22.095,25.695 21.907,25.504 21.723,25.322 C21.566,25.164 21.407,25.006 21.213,24.822 C19.789641,23.5278576 18.0478216,22.6353779 16.166,22.236 C14.8146961,22.0082905 13.4424177,21.9301524 12.074,22.003 L12,22.003 L12,20.021 L16.3,20.021 Z M6,17.021 C6,15.9164305 6.8954305,15.021 8,15.021 C9.1045695,15.021 10,15.9164305 10,17.021 L10,44 L6,44 L6,17.021 Z M6,46 L10,46 C11.8232756,46.0021068 13.4151339,47.2351496 13.873,49 L2.127,49 C2.58486609,47.2351496 4.17672444,46.0021068 6,46 Z" id="Shape"/><path d="M25.445,33.314 C25.3537903,33.8365877 25.4739355,34.3740037 25.779,34.808 L40.314,55.488 C40.239526,55.6444449 40.1854182,55.809793 40.153,55.98 C40.0611044,56.5019697 40.1813309,57.0390293 40.487,57.472 L41.637,59.108 C41.9403369,59.5441188 42.4062762,59.8399704 42.93,59.929 C43.0446012,59.9488641 43.16069,59.9589006 43.277,59.959 C43.6877363,59.9589447 44.0883934,59.8317963 44.424,59.595 L59.15,49.245 C60.0534112,48.6097922 60.2709811,47.3625706 59.636,46.459 L58.485,44.823 C58.0743585,44.2423556 57.3851862,43.9248332 56.677,43.99 L56.077,43.136 L57.452,35.254 C57.8223157,33.1638404 57.3412556,31.0123925 56.116,29.279 L55.587,28.526 C53.0467457,24.9110526 48.0569882,24.0398038 44.442,26.58 L42.142,23.308 C41.8370839,22.873431 41.371904,22.577918 40.8489512,22.4865701 C40.3259984,22.3952222 39.7881832,22.5155348 39.354,22.821 L26.266,32.021 C25.8307883,32.3252056 25.5352017,32.7907277 25.445,33.314 Z M43.273,57.959 L42.124,56.323 L56.85,45.972 L58,47.608 L43.273,57.959 Z M45.593,28.216 C48.303972,26.3112621 52.0456915,26.964429 53.951,29.675 L54.48,30.428 C55.3987278,31.728407 55.7588332,33.3423996 55.48,34.91 L54.449,40.82 L52.823,38.5 L53.465,34.824 C53.7683136,33.0869044 53.062731,31.3277317 51.6431296,30.2816762 C50.2235282,29.2356206 48.3343031,29.0827686 46.765,29.887 L45.8,28.505 L45.593,28.216 Z M51.493,34.484 L51.193,36.184 L47.942,31.558 C48.8301705,31.2158876 49.8337342,31.3783393 50.5686163,31.9831831 C51.3034984,32.5880269 51.6559179,33.5416154 51.491,34.479 L51.493,34.484 Z M50.024,38 L39,38 C38.507,38 37.581,37.352 36.323,36 L48.623,36 L50.024,38 Z M40.506,24.458 L43.381,28.548 L45.681,31.821 L47.213,34 L34.635,34 C33.852,33 32.99,31.8 32.065,30.391 L40.506,24.458 Z M30.427,31.542 C34.121,37.151 37.005,40 39,40 L51.43,40 L54.2,43.946 L54.877,44.908 L41.787,54.108 L27.416,33.658 L30.427,31.542 Z" id="Shape"/><path d="M44,49 C45.6568542,49 47,47.6568542 47,46 C47,44.3431458 45.6568542,43 44,43 C42.3431458,43 41,44.3431458 41,46 C41,47.6568542 42.3431458,49 44,49 Z M44,45 C44.5522847,45 45,45.4477153 45,46 C45,46.5522847 44.5522847,47 44,47 C43.4477153,47 43,46.5522847 43,46 C43,45.4477153 43.4477153,45 44,45 Z" id="Shape"/><circle id="Oval" cx="38" cy="44" r="1"/></g></g></svg>
