<?xml version="1.0" encoding="UTF-8"?>
<svg xmlns="http://www.w3.org/2000/svg" xmlns:xlink="http://www.w3.org/1999/xlink" width="512" height="512" viewBox="0 0 60 60" version="1.1"><!-- Generator: Sketch 51.3 (57544) - http://www.bohemiancoding.com/sketch --><title>009 - Barrels </title><desc>Created with Sketch.</desc><defs/><g id="Page-1" stroke="none" stroke-width="1" fill="none" fill-rule="evenodd"><g id="009---Barrels-" fill="#000000" fill-rule="nonzero"><path d="M14,23 C16.89,23 20,22.061 20,20 C20,18.081 17.3,17.136 14.6,17.015 L14.588,17.015 C14.1962812,16.9940002 13.8037188,16.9940002 13.412,17.015 L13.4,17.015 C10.7,17.136 8,18.081 8,20 C8,22.061 11.11,23 14,23 Z M14,19 C16.348,19 17.718,19.673 17.975,20 C17.718,20.327 16.348,21 14,21 C11.652,21 10.282,20.327 10.025,20 C10.282,19.673 11.652,19 14,19 Z" id="Shape"/><path d="M10,53 C6.8,53 5.939,51.626 5.884,51.532 C5.63132972,51.0407427 5.02825729,50.8473298 4.53700001,51.1 C4.04574274,51.3526703 3.85232974,51.9557427 4.105,52.447 C4.236,52.708 5.512,55 10,55 C10.5522847,55 11,54.5522847 11,54 C11,53.4477153 10.5522847,53 10,53 Z" id="Shape"/><path d="M60,33.04 C59.9723361,32.072722 59.6201171,31.1428639 59,30.4 L59,19.5 C59,15.794 53.411,13 46,13 C44.9977235,13.0006701 43.9962317,13.056086 43,13.166 L43,6.5 C43,2.794 37.411,0 30,0 C22.589,0 17,2.794 17,6.5 L17,13.166 C16.0037683,13.056086 15.0022765,13.0006701 14,13 C6.589,13 1,15.794 1,19.5 L1,30.4 C-0.333301996,31.9040555 -0.333301996,34.1669445 1,35.671 L1,40.4 C-0.333301996,41.9040555 -0.333301996,44.1669445 1,45.671 L1,53.5 C1,57.206 6.589,60 14,60 C21.411,60 27,57.206 27,53.5 L27,46.81 C28.9919776,47.0633356 31.0080224,47.0633356 33,46.81 L33,53.5 C33,57.206 38.589,60 46,60 C53.411,60 59,57.206 59,53.5 L59,45.676 C60.3358098,44.1709897 60.3358098,41.9050103 59,40.4 L59,35.676 C59.6192801,34.9342046 59.9714461,34.0058949 60,33.04 Z M57.029,40.883 C57.0349201,40.9557688 57.0493519,41.0275925 57.072,41.097 C57.1337321,41.2012946 57.1953988,41.305628 57.257,41.41 C57.7278403,41.8193272 57.9986956,42.4122468 57.9998457,43.0361362 C58.0009957,43.6600256 57.732328,44.2539397 57.263,44.665 C55.436,46.66 50.909,48 46,48 C41.091,48 36.564,46.66 34.743,44.67 C34.2708892,44.2599409 33.9997616,43.6653295 33.9997616,43.04 C33.9997616,42.4146705 34.2708892,41.8200591 34.743,41.41 C34.8046012,41.305628 34.8662679,41.2012946 34.928,41.097 C34.9507473,41.0276186 34.9651815,40.955783 34.971,40.883 C34.9846862,40.8362375 34.9943875,40.7883999 35,40.74 L35,37.41 C37.6,39.018 41.632,40 46,40 C50.368,40 54.4,39.019 57,37.409 L57,40.74 C57.0056125,40.7883999 57.0153138,40.8362375 57.029,40.883 Z M46,26 C50.554,26 54.67,24.891 56.984,23.054 L57,23.041 L57,24.5 C57,25.927 52.715,28 46,28 C40.186,28 36.2,26.446 35.233,25.1 C35.215,25.073 35.199,25.048 35.18,25.023 C35.0716291,24.8692578 35.0092022,24.687873 35,24.5 L35,23.038 C37.32,24.863 41.445,26 46,26 Z M57.029,30.883 C57.0349201,30.9557688 57.0493519,31.0275925 57.072,31.097 C57.1337321,31.2012946 57.1953988,31.305628 57.257,31.41 C57.7278403,31.8193272 57.9986956,32.4122468 57.9998457,33.0361362 C58.0009957,33.6600256 57.732328,34.2539397 57.263,34.665 C55.436,36.66 50.909,38 46,38 C41.091,38 36.564,36.66 34.743,34.67 C34.2708892,34.2599409 33.9997616,33.6653295 33.9997616,33.04 C33.9997616,32.4146705 34.2708892,31.8200591 34.743,31.41 C34.8046012,31.305628 34.8662679,31.2012946 34.928,31.097 C34.9507473,31.0276186 34.9651815,30.955783 34.971,30.883 C34.9846862,30.8362375 34.9943875,30.7883999 35,30.74 L35,27.561 C37.427,29.167 41.725,30 46,30 C50.275,30 54.573,29.167 57,27.561 L57,30.74 C57.0056125,30.7883999 57.0153138,30.8362375 57.029,30.883 Z M41,11.5 C41,12.927 36.715,15 30,15 C23.285,15 19,12.927 19,11.5 L19,10.038 C21.32,11.863 25.445,13 30,13 C34.555,13 38.67,11.891 40.984,10.054 L41,10.041 L41,11.5 Z M30,17 C31.3948108,16.9994169 32.7880995,16.9078894 34.171,16.726 C33.4463273,17.4709145 33.0283226,18.4611323 33,19.5 L33,24.815 C31.0061882,25.0374978 28.9938118,25.0374978 27,24.815 L27,19.5 C26.9716774,18.4611323 26.5536727,17.4709145 25.829,16.726 C27.2119005,16.9078894 28.6051892,16.9994169 30,17 Z M25,24.5 C24.9910322,24.6883778 24.9289781,24.87038 24.821,25.025 C24.801,25.05 24.784,25.077 24.766,25.104 C23.8,26.448 19.812,28 14,28 C7.285,28 3,25.927 3,24.5 L3,23.038 C5.32,24.863 9.445,26 14,26 C18.555,26 22.67,24.891 24.984,23.054 L25,23.041 L25,24.5 Z M14,30 C18.275,30 22.573,29.167 25,27.561 L25,30.74 C25.0056125,30.7883999 25.0153138,30.8362375 25.029,30.883 C25.0349201,30.9557688 25.0493519,31.0275925 25.072,31.097 C25.1337321,31.2012946 25.1953988,31.305628 25.257,31.41 C25.7278403,31.8193272 25.9986956,32.4122468 25.9998457,33.0361362 C26.0009957,33.6600256 25.732328,34.2539397 25.263,34.665 C23.436,36.66 18.909,38 14,38 C9.091,38 4.564,36.66 2.743,34.67 C2.27088923,34.2599409 1.99976163,33.6653295 1.99976163,33.04 C1.99976163,32.4146705 2.27088923,31.8200591 2.743,31.41 C2.7712165,31.3696505 2.79629033,31.3271921 2.818,31.283 C2.86149376,31.2252998 2.89839026,31.1629112 2.928,31.097 C2.95074727,31.0276186 2.96518151,30.955783 2.971,30.883 C2.98468616,30.8362375 2.99438749,30.7883999 3,30.74 L3,27.561 C5.427,29.167 9.725,30 14,30 Z M2.743,44.67 C2.27088923,44.2599409 1.99976163,43.6653295 1.99976163,43.04 C1.99976163,42.4146705 2.27088923,41.8200591 2.743,41.41 C2.7712165,41.3696505 2.79629033,41.3271921 2.818,41.283 C2.86149376,41.2252998 2.89839026,41.1629112 2.928,41.097 C2.95074727,41.0276186 2.96518151,40.955783 2.971,40.883 C2.98468616,40.8362375 2.99438749,40.7883999 3,40.74 L3,37.41 C5.6,39.018 9.632,40 14,40 C18.368,40 22.4,39.019 25,37.409 L25,40.74 C25.0056125,40.7883999 25.0153138,40.8362375 25.029,40.883 C25.0349201,40.9557688 25.0493519,41.0275925 25.072,41.097 C25.1337321,41.2012946 25.1953988,41.305628 25.257,41.41 C25.7278403,41.8193272 25.9986956,42.4122468 25.9998457,43.0361362 C26.0009957,43.6600256 25.732328,44.2539397 25.263,44.665 C23.436,46.66 18.909,48 14,48 C9.091,48 4.564,46.66 2.743,44.67 Z M27,30.4 L27,26.826 C27.9962498,26.9366517 28.997638,26.9947322 30,27 C31.0023648,26.9948194 32.0037576,26.9367386 33,26.826 L33,30.4 C32.3807199,31.1417954 32.0285539,32.0701051 32,33.036 C32.0124692,33.6767821 32.1780798,34.3052795 32.483,34.869 C30.8315126,35.021491 29.1694874,35.021491 27.518,34.869 C27.8222458,34.3065034 27.9875118,33.6793841 28,33.04 C27.9723361,32.072722 27.6201171,31.1428639 27,30.4 Z M57,19.5 C56.9752227,20.0146061 56.7616025,20.5020163 56.4,20.869 C56.2144157,21.0952677 56.0006857,21.2968998 55.764,21.469 C53.8,23.029 50.056,24 46,24 C40.66,24 36.919,22.418 35.58,20.85 C35.2278532,20.4862213 35.0214702,20.0058471 35,19.5 C35,17.372 39.518,15 46,15 C52.482,15 57,17.372 57,19.5 Z M30,2 C36.482,2 41,4.372 41,6.5 C40.9752227,7.01460613 40.7616025,7.5020163 40.4,7.869 C40.2144157,8.0952677 40.0006857,8.29689979 39.764,8.469 C37.8,10.029 34.056,11 30,11 C24.66,11 20.919,9.418 19.58,7.85 C19.2278532,7.48622131 19.0214702,7.00584714 19,6.5 C19,4.372 23.518,2 30,2 Z M14,15 C20.482,15 25,17.372 25,19.5 C24.9752227,20.0146061 24.7616025,20.5020163 24.4,20.869 C24.2144157,21.0952677 24.0006857,21.2968998 23.764,21.469 C21.8,23.029 18.056,24 14,24 C8.66,24 4.919,22.418 3.58,20.85 C3.2278532,20.4862213 3.02147022,20.0058471 3,19.5 C3,17.372 7.518,15 14,15 Z M14,58 C7.518,58 3,55.628 3,53.5 L3,47.41 C5.6,49.018 9.632,50 14,50 C18.368,50 22.4,49.019 25,47.409 L25,53.5 C25,55.628 20.482,58 14,58 Z M27.525,44.859 C27.825094,44.2988169 27.9878921,43.6753857 28,43.04 C27.9723361,42.072722 27.6201171,41.1428639 27,40.4 L27,36.826 C27.9962498,36.9366517 28.997638,36.9947322 30,37 C31.002385,36.9954645 32.003812,36.9373817 33,36.826 L33,40.4 C32.3807199,41.1417954 32.0285539,42.0701051 32,43.036 C32.0120308,43.6719635 32.175554,44.2958887 32.477,44.856 C30.8306844,45.0245051 29.1715185,45.0255103 27.525,44.859 Z M46,58 C39.518,58 35,55.628 35,53.5 L35,47.41 C37.6,49.018 41.632,50 46,50 C50.368,50 54.4,49.019 57,47.409 L57,53.5 C57,55.628 52.482,58 46,58 Z" id="Shape"/><path d="M46,23 C48.89,23 52,22.061 52,20 C52,18.081 49.3,17.136 46.6,17.015 L46.588,17.015 C46.1962812,16.9940002 45.8037188,16.9940002 45.412,17.015 L45.4,17.015 C42.7,17.136 40,18.081 40,20 C40,22.061 43.11,23 46,23 Z M46,19 C48.348,19 49.718,19.673 49.975,20 C49.718,20.327 48.348,21 46,21 C43.652,21 42.282,20.327 42.025,20 C42.282,19.673 43.652,19 46,19 Z" id="Shape"/><path d="M42,53 C38.8,53 37.939,51.626 37.884,51.532 C37.6313297,51.0407428 37.0282573,50.8473298 36.537,51.1000001 C36.0457428,51.3526703 35.8523298,51.9557427 36.105,52.447 C36.236,52.708 37.512,55 42,55 C42.5522847,55 43,54.5522847 43,54 C43,53.4477153 42.5522847,53 42,53 Z" id="Shape"/><path d="M30,10 C32.89,10 36,9.061 36,7 C36,5.081 33.3,4.136 30.6,4.015 L30.588,4.015 C30.1962812,3.99400024 29.8037188,3.99400024 29.412,4.015 L29.4,4.015 C26.7,4.136 24,5.081 24,7 C24,9.061 27.11,10 30,10 Z M30,6 C32.348,6 33.718,6.673 33.975,7 C33.718,7.327 32.348,8 30,8 C27.652,8 26.282,7.327 26.025,7 C26.282,6.673 27.652,6 30,6 Z" id="Shape"/></g></g></svg>
