<?xml version="1.0" encoding="UTF-8"?>
<svg xmlns="http://www.w3.org/2000/svg" xmlns:xlink="http://www.w3.org/1999/xlink" width="512" height="512" viewBox="0 0 60 60" version="1.1"><!-- Generator: Sketch 51.3 (57544) - http://www.bohemiancoding.com/sketch --><title>010 - Lab Equipment</title><desc>Created with Sketch.</desc><defs/><g id="Page-1" stroke="none" stroke-width="1" fill="none" fill-rule="evenodd"><g id="010---Lab-Equipment" transform="translate(0.000000, -1.000000)" fill="#000000" fill-rule="nonzero"><path d="M56,1 L54,1 C53.782519,0.998352131 53.5656289,1.02286139 53.354,1.073 C52.4747267,1.30697456 51.7879746,1.99372673 51.554,2.873 L50,8.677 L48.447,2.877 C48.2087222,1.98684058 47.5087227,1.29448712 46.616,1.066 C46.2002819,0.972265979 45.7686527,0.974660118 45.354,1.073 C44.4747267,1.30697456 43.7879746,1.99372673 43.554,2.873 L42,8.677 L40.447,2.877 C40.2087222,1.98684058 39.5087227,1.29448712 38.616,1.066 C38.2002819,0.972265979 37.7686527,0.974660118 37.354,1.073 C36.4747267,1.30697456 35.7879746,1.99372673 35.554,2.873 L34,8.677 L32.447,2.877 C32.2087222,1.98684058 31.5087227,1.29448712 30.616,1.066 C30.2002819,0.972265979 29.7686527,0.974660118 29.354,1.073 C28.4747267,1.30697456 27.7879746,1.99372673 27.554,2.873 L26,8.677 L24.447,2.877 C24.2087222,1.98684058 23.5087227,1.29448712 22.616,1.066 C22.2002819,0.972265979 21.7686527,0.974660118 21.354,1.073 C20.4747267,1.30697456 19.7879746,1.99372673 19.554,2.873 L18,8.677 L16.447,2.877 C16.2087222,1.98684058 15.5087227,1.29448712 14.616,1.066 C14.2002819,0.972265979 13.7686527,0.974660118 13.354,1.073 C12.4747267,1.30697456 11.7879746,1.99372673 11.554,2.873 L10,8.677 L8.447,2.877 C8.2087222,1.98684058 7.50872266,1.29448712 6.616,1.066 C6.07926167,1.00997758 5.53951918,0.987933644 5,1 L4,1 C1.790861,1 1.25159629e-15,2.790861 0,5 L0,34 C2.02906125e-16,35.6568542 1.34314575,37 3,37 C4.65685425,37 6,35.6568542 6,34 L6,16.5 L7.553,22.3 C7.79280746,23.1899429 8.49384973,23.881429 9.387,24.109 C9.80183236,24.2019433 10.2323823,24.1992075 10.646,24.101 C11.5252733,23.8670254 12.2120254,23.1802733 12.446,22.301 L14,16.5 L15.553,22.3 C15.7928075,23.1899429 16.4938497,23.881429 17.387,24.109 C17.8018324,24.2019433 18.2323823,24.1992075 18.646,24.101 C19.5252733,23.8670254 20.2120254,23.1802733 20.446,22.301 L22,16.5 L23.553,22.3 C23.7928075,23.1899429 24.4938497,23.881429 25.387,24.109 C25.8018324,24.2019433 26.2323823,24.1992075 26.646,24.101 C27.5252733,23.8670254 28.2120254,23.1802733 28.446,22.301 L30,16.5 L31.553,22.3 C31.7928075,23.1899429 32.4938497,23.881429 33.387,24.109 C33.8018324,24.2019433 34.2323823,24.1992075 34.646,24.101 C35.5252733,23.8670254 36.2120254,23.1802733 36.446,22.301 L38,16.5 L39.553,22.3 C39.7928075,23.1899429 40.4938497,23.881429 41.387,24.109 C41.8018324,24.2019433 42.2323823,24.1992075 42.646,24.101 C43.5252733,23.8670254 44.2120254,23.1802733 44.446,22.301 L46,16.5 L47.553,22.3 C47.7928075,23.1899429 48.4938497,23.881429 49.387,24.109 C49.8018324,24.2019433 50.2323823,24.1992075 50.646,24.101 C51.5252733,23.8670254 52.2120254,23.1802733 52.446,22.301 L54,16.5 L54,34 C54,35.6568542 55.3431458,37 57,37 C58.6568542,37 60,35.6568542 60,34 L60,5 C60,2.790861 58.209139,1 56,1 Z M4,34 C4,34.5522847 3.55228475,35 3,35 C2.44771525,35 2,34.5522847 2,34 L2,31 L4,31 L4,34 Z M50.514,21.793 C50.4682303,21.9680118 50.3374212,22.108218 50.166,22.166 C50.0665618,22.1793598 49.9659531,22.1817073 49.866,22.173 C49.6806072,22.1222309 49.5357691,21.9773928 49.485,21.792 L46.966,12.381 C46.8489548,11.9436799 46.4527123,11.6395421 46,11.6395421 C45.5472877,11.6395421 45.1510452,11.9436799 45.034,12.381 L42.514,21.793 C42.4682303,21.9680118 42.3374212,22.108218 42.166,22.166 C42.0665618,22.1793598 41.9659531,22.1817073 41.866,22.173 C41.6806072,22.1222309 41.5357691,21.9773928 41.485,21.792 L38.966,12.381 C38.8489548,11.9436799 38.4527123,11.6395421 38,11.6395421 C37.5472877,11.6395421 37.1510452,11.9436799 37.034,12.381 L34.514,21.793 C34.4682303,21.9680118 34.3374212,22.108218 34.166,22.166 C34.0665618,22.1793598 33.9659531,22.1817073 33.866,22.173 C33.6806072,22.1222309 33.5357691,21.9773928 33.485,21.792 L30.966,12.381 C30.8489548,11.9436799 30.4527123,11.6395421 30,11.6395421 C29.5472877,11.6395421 29.1510452,11.9436799 29.034,12.381 L26.514,21.793 C26.4682303,21.9680118 26.3374212,22.108218 26.166,22.166 C26.0665618,22.1793598 25.9659531,22.1817073 25.866,22.173 C25.6806072,22.1222309 25.5357691,21.9773928 25.485,21.792 L22.966,12.381 C22.8489548,11.9436799 22.4527123,11.6395421 22,11.6395421 C21.5472877,11.6395421 21.1510452,11.9436799 21.034,12.381 L18.514,21.793 C18.4682303,21.9680118 18.3374212,22.108218 18.166,22.166 C18.0665618,22.1793598 17.9659531,22.1817073 17.866,22.173 C17.6806072,22.1222309 17.5357691,21.9773928 17.485,21.792 L14.966,12.381 C14.8489548,11.9436799 14.4527123,11.6395421 14,11.6395421 C13.5472877,11.6395421 13.1510452,11.9436799 13.034,12.381 L10.514,21.793 C10.4682303,21.9680118 10.3374212,22.108218 10.166,22.166 C10.0665618,22.1793598 9.9659531,22.1817073 9.866,22.173 C9.68060722,22.1222309 9.5357691,21.9773928 9.485,21.792 L5.964,8.735 C5.83097943,8.25274536 5.36205395,7.94298742 4.8662826,8.00988121 C4.37051125,8.076775 4.00045062,8.49973626 4,9 L4,29 L2,29 L2,5 C2,3.8954305 2.8954305,3 4,3 L5,3 C5.214,3 5.941,3.01 6.188,3.024 C6.34831,3.0869669 6.46951184,3.22188271 6.515,3.388 L9.034,12.8 C9.15104517,13.2373201 9.54728773,13.5414579 10,13.5414579 C10.4527123,13.5414579 10.8489548,13.2373201 10.966,12.8 L13.486,3.387 C13.5323139,3.21148298 13.6644671,3.07142327 13.837,3.015 C13.9363766,3.00087517 14.0370728,2.9985256 14.137,3.008 C14.3223928,3.0587691 14.4672309,3.20360722 14.518,3.389 L17.034,12.8 C17.1510452,13.2373201 17.5472877,13.5414579 18,13.5414579 C18.4527123,13.5414579 18.8489548,13.2373201 18.966,12.8 L21.486,3.387 C21.5323139,3.21148298 21.6644671,3.07142327 21.837,3.015 C21.9363766,3.00087517 22.0370728,2.9985256 22.137,3.008 C22.3223928,3.0587691 22.4672309,3.20360722 22.518,3.389 L25.034,12.8 C25.1510452,13.2373201 25.5472877,13.5414579 26,13.5414579 C26.4527123,13.5414579 26.8489548,13.2373201 26.966,12.8 L29.486,3.387 C29.5323139,3.21148298 29.6644671,3.07142327 29.837,3.015 C29.9363766,3.00087517 30.0370728,2.9985256 30.137,3.008 C30.3223928,3.0587691 30.4672309,3.20360722 30.518,3.389 L33.034,12.8 C33.1510452,13.2373201 33.5472877,13.5414579 34,13.5414579 C34.4527123,13.5414579 34.8489548,13.2373201 34.966,12.8 L37.486,3.387 C37.5323139,3.21148298 37.6644671,3.07142327 37.837,3.015 C37.9363766,3.00087517 38.0370728,2.9985256 38.137,3.008 C38.3223928,3.0587691 38.4672309,3.20360722 38.518,3.389 L41.034,12.8 C41.1510452,13.2373201 41.5472877,13.5414579 42,13.5414579 C42.4527123,13.5414579 42.8489548,13.2373201 42.966,12.8 L45.486,3.387 C45.5323139,3.21148298 45.6644671,3.07142327 45.837,3.015 C45.9363766,3.00087517 46.0370728,2.9985256 46.137,3.008 C46.3223928,3.0587691 46.4672309,3.20360722 46.518,3.389 L49.034,12.8 C49.1510452,13.2373201 49.5472877,13.5414579 50,13.5414579 C50.4527123,13.5414579 50.8489548,13.2373201 50.966,12.8 L53.486,3.387 C53.5323139,3.21148298 53.6644671,3.07142327 53.837,3.015 C53.8905773,3.00375904 53.945271,2.99872588 54,3 L56,3 C57.1045695,3 58,3.8954305 58,5 L58,29 L56,29 L56,9 C55.9995494,8.49973626 55.6294888,8.076775 55.1337174,8.00988121 C54.6379461,7.94298742 54.1690206,8.25274536 54.036,8.735 L50.514,21.793 Z M58,34 C58,34.5522847 57.5522847,35 57,35 C56.4477153,35 56,34.5522847 56,34 L56,31 L58,31 L58,34 Z" id="Shape"/><path d="M30,39 C31.384,39 34,37.955 34,34 C33.8656177,31.1184151 32.6964103,28.3819798 30.707,26.293 C30.3165001,25.9026181 29.6834999,25.9026181 29.293,26.293 C27.3035897,28.3819798 26.1343823,31.1184151 26,34 C26,37.955 28.616,39 30,39 Z M30,28.557 C31.2213921,30.116467 31.9211028,32.0207297 32,34 C32,36.782 30.343,36.988 29.992,37 C29.839,37 28,36.9 28,34 C28.0826408,32.0214747 28.7819433,30.118323 30,28.557 Z" id="Shape"/><path d="M16.6,55.8 C17.6855265,54.9467035 19.0625805,54.553516 20.435,54.705 C18.8902745,56.030656 18.0009935,57.9644314 18,60 C18,60.5522847 18.4477153,61 19,61 L41,61 C41.5522847,61 42,60.5522847 42,60 C41.9955914,56.1358343 38.8641657,53.0044086 35,53 L34,53 L34,44 C34,42.3431458 32.6568542,41 31,41 L29,41 C27.3431458,41 26,42.3431458 26,44 L26,53 L25,53 C24.3034155,52.9998368 23.6107339,53.1039918 22.945,53.309 C20.4570197,52.199153 17.5610204,52.5411458 15.4,54.2 L14.562,54.832 C10.9,57.607 9.062,59 1,59 C0.44771525,59 6.76353751e-17,59.4477153 0,60 C-6.76353751e-17,60.5522847 0.44771525,61 1,61 C9.733,61 12.006,59.278 15.771,56.426 L16.6,55.8 Z M29,43 L31,43 C31.5522847,43 32,43.4477153 32,44 L32,45.78 C30.682343,46.0645816 29.3196167,46.0693511 28,45.794 L28,44 C28,43.4477153 28.4477153,43 29,43 Z M28,47.829 C28.6241389,47.941048 29.2568855,47.9982662 29.891,48 C30.5980393,47.998731 31.3036526,47.9365005 32,47.814 L32,53 L28,53 L28,47.829 Z M27,55 L35,55 C37.3752386,55.0026123 39.421918,56.6733709 39.9,59 L20.1,59 C20.578082,56.6733709 22.6247614,55.0026123 25,55 L27,55 Z" id="Shape"/></g></g></svg>
