<?xml version="1.0" encoding="UTF-8"?>
<svg xmlns="http://www.w3.org/2000/svg" xmlns:xlink="http://www.w3.org/1999/xlink" width="512" height="512" viewBox="0 0 58 60" version="1.1"><!-- Generator: Sketch 51.3 (57544) - http://www.bohemiancoding.com/sketch --><title>011 - Milling</title><desc>Created with Sketch.</desc><defs/><g id="Page-1" stroke="none" stroke-width="1" fill="none" fill-rule="evenodd"><g id="011---Milling" transform="translate(-1.000000, 0.000000)" fill="#000000" fill-rule="nonzero"><path d="M39,22 L21,22 C19.8954305,22 19,22.8954305 19,24 L19,29 C19,30.1045695 19.8954305,31 21,31 L39,31 C40.1045695,31 41,30.1045695 41,29 L41,24 C41,22.8954305 40.1045695,22 39,22 Z M26.943,29 L30.515,24 L35.057,24 L31.485,29 L26.943,29 Z M21.949,29 L25.515,24 L28.057,24 L24.485,29 L21.949,29 Z M23.059,24 L21,26.887 L21,24 L23.059,24 Z M33.943,29 L37.515,24 L39,24 L39,29 L33.943,29 Z" id="Shape"/><path d="M59,25 C59.0039562,22.0872162 56.915322,19.5923487 54.0472466,19.0839504 C51.1791711,18.5755522 48.3602536,20.2005015 47.3627809,22.9371735 C46.3653082,25.6738455 47.4774544,28.731604 50,30.188 L50,33 L45,33 L45,22 C45,19.790861 43.209139,18 41,18 L37.789,18 L44.852,6.524 C44.869,6.495 44.878,6.463 44.892,6.433 C44.9060947,6.40532693 44.9187777,6.3769572 44.93,6.348 C44.9729761,6.23961414 44.9966663,6.12454752 45,6.008 L45,6 L45,3 C45,1.34314575 43.6568542,1.01453063e-16 42,0 L18,0 C16.3431458,-1.01453063e-16 15,1.34314575 15,3 L15,6 L15,6.008 C15.0026956,6.12442833 15.0257081,6.23949092 15.068,6.348 C15.0792223,6.3769572 15.0919053,6.40532693 15.106,6.433 C15.12,6.463 15.129,6.495 15.146,6.524 L22.211,18 L19,18 C16.790861,18 15,19.790861 15,22 L15,33 L10,33 L10,30.188 C12.3518081,28.830183 13.4984128,26.0620344 12.795555,23.4389333 C12.0926971,20.8158322 9.71563407,18.9918476 7,18.9918476 C4.28436593,18.9918476 1.90730286,20.8158322 1.20444504,23.4389333 C0.501587225,26.0620344 1.64819191,28.830183 4,30.188 L4,33.188 C2.80702458,33.6097591 2.00693532,34.7346846 2,36 L2,40 C2,41.6568542 3.34314575,43 5,43 L8,43 L8,58 C8,59.1045695 8.8954305,60 10,60 L13,60 C14.1045695,60 15,59.1045695 15,58 L15,43 L19.382,43 L18.105,45.553 C18.099,45.565 18.098,45.578 18.092,45.59 C18.086,45.602 18.078,45.634 18.069,45.656 C18.0335263,45.7523153 18.0129563,45.8534795 18.008,45.956 C18.008,45.97 18,45.981 18,45.995 C18,46.009 18,46.006 18,46.012 C18.002938,46.1278484 18.0262962,46.2422695 18.069,46.35 C18.079,46.376 18.091,46.4 18.103,46.425 C18.1164858,46.4591526 18.1318424,46.4925365 18.149,46.525 L22.924,54.164 L22.337,56.51 C22.1856777,57.1088101 22.3195094,57.7439429 22.6995928,58.2307781 C23.0796762,58.7176134 23.6633678,59.0015303 24.281,59 L35.719,59 C36.3349801,59.0002147 36.9166957,58.7165741 37.295871,58.2311282 C37.6750462,57.7456823 37.8093752,57.112594 37.66,56.515 L37.073,54.169 L41.848,46.53 C41.8651576,46.4975365 41.8805142,46.4641526 41.894,46.43 C41.906,46.405 41.918,46.381 41.928,46.355 C41.9717312,46.2474568 41.9961063,46.1330293 42,46.017 C42,46.011 42,46.006 42,46 C42,45.994 41.993,45.975 41.992,45.961 C41.9870437,45.8584795 41.9664737,45.7573153 41.931,45.661 C41.922,45.639 41.917,45.617 41.908,45.595 C41.899,45.573 41.901,45.57 41.895,45.558 L40.618,43 L45,43 L45,58 C45,59.1045695 45.8954305,60 47,60 L50,60 C51.1045695,60 52,59.1045695 52,58 L52,43 L56,43 C57.6568542,43 59,41.6568542 59,40 L59,36 C59,34.3431458 57.6568542,33 56,33 L56,30.188 C57.8538865,29.1176608 58.9970902,27.1406804 59,25 Z M53,21 C55.209139,21 57,22.790861 57,25 C57,27.209139 55.209139,29 53,29 C50.790861,29 49,27.209139 49,25 C49,22.790861 50.790861,21 53,21 Z M35.441,18 L32.354,18 L35.738,7 L42.21,7 L35.441,18 Z M29.741,18 L26.354,7 L33.646,7 L30.262,18 L29.741,18 Z M17,3 C17,2.44771525 17.4477153,2 18,2 L42,2 C42.5522847,2 43,2.44771525 43,3 L43,5 L17,5 L17,3 Z M17.79,7 L24.262,7 L27.646,18 L24.559,18 L17.79,7 Z M17,22 C17,20.8954305 17.8954305,20 19,20 L41,20 C42.1045695,20 43,20.8954305 43,22 L43,33 L17,33 L17,22 Z M7,21 C9.209139,21 11,22.790861 11,25 C11,27.209139 9.209139,29 7,29 C4.790861,29 3,27.209139 3,25 C3,22.790861 4.790861,21 7,21 Z M7,31 C7.3352624,30.9979917 7.66976662,30.9678863 8,30.91 L8,33 L6,33 L6,30.91 C6.33023338,30.9678863 6.6647376,30.9979917 7,31 Z M13,58 L10,58 L10,43 L13,43 L13,58 Z M24.281,57 L24.781,55 L35.219,55 L35.719,57 L24.281,57 Z M35.446,53 L24.554,53 L20.8,47 L39.2,47 L35.446,53 Z M39.382,45 L20.618,45 L21.618,43 L38.382,43 L39.382,45 Z M50,58 L47,58 L47,43 L50,43 L50,58 Z M57,36 L57,40 C57,40.5522847 56.5522847,41 56,41 L5,41 C4.44771525,41 4,40.5522847 4,40 L4,36 C4,35.4477153 4.44771525,35 5,35 L56,35 C56.5522847,35 57,35.4477153 57,36 Z M54,33 L52,33 L52,30.91 C52.6612656,31.0300121 53.3387344,31.0300121 54,30.91 L54,33 Z" id="Shape"/><path d="M7.293,26.707 C7.68537889,27.0859722 8.30908478,27.0805524 8.69481858,26.6948186 C9.08055237,26.3090848 9.08597221,25.6853789 8.707,25.293 L8,24.586 L8,23 C8,22.4477153 7.55228475,22 7,22 C6.44771525,22 6,22.4477153 6,23 L6,25 C6.00005664,25.2651948 6.10545063,25.5195073 6.293,25.707 L7.293,26.707 Z" id="Shape"/><path d="M53,27 C53.5522847,27 54,26.5522847 54,26 L54,23 C54,22.4477153 53.5522847,22 53,22 C52.4477153,22 52,22.4477153 52,23 L52,26 C52,26.5522847 52.4477153,27 53,27 Z" id="Shape"/><circle id="Oval" cx="20" cy="38" r="1"/><circle id="Oval" cx="15" cy="38" r="1"/><circle id="Oval" cx="25" cy="38" r="1"/><circle id="Oval" cx="30" cy="38" r="1"/><circle id="Oval" cx="35" cy="38" r="1"/><circle id="Oval" cx="40" cy="38" r="1"/><circle id="Oval" cx="45" cy="38" r="1"/></g></g></svg>
