<?xml version="1.0" encoding="UTF-8"?>
<svg xmlns="http://www.w3.org/2000/svg" xmlns:xlink="http://www.w3.org/1999/xlink" width="512" height="512" viewBox="0 0 60 60" version="1.1"><!-- Generator: Sketch 51.3 (57544) - http://www.bohemiancoding.com/sketch --><title>012 - Barrel Filling</title><desc>Created with Sketch.</desc><defs/><g id="Page-1" stroke="none" stroke-width="1" fill="none" fill-rule="evenodd"><g id="012---Barrel-Filling" fill="#000000" fill-rule="nonzero"><path d="M59,0 L13,0 C9.13583434,0.00440863597 6.00440864,3.13583434 6,7 L6,10.47 C5.40787907,10.9559825 5.15057116,11.7407717 5.34,12.483 L5.84,14.478 C6.0575537,15.3724914 6.85943392,16.0015954 7.78,16 L8,16 L8,18 C8,18.5522847 8.44771525,19 9,19 C9.55228475,19 10,18.5522847 10,18 L10,16 L10.22,16 C11.1392253,16.0025194 11.9408098,15.3757134 12.16,14.483 L12.66,12.489 C12.8486264,11.7450066 12.5916597,10.9589222 12,10.47 L12,7 C12,6.44771525 12.4477153,6 13,6 L27,6 L27,10.468 C26.8894132,10.556821 26.788821,10.6574132 26.7,10.768 C26.3188715,11.2524774 26.1840451,11.8863464 26.335,12.484 L26.835,14.484 C27.0576803,15.3768303 27.8608227,16.0025055 28.781,16 L29,16 L29,18 C29,18.5522847 29.4477153,19 30,19 C30.5522847,19 31,18.5522847 31,18 L31,16 L31.219,16 C32.1370226,16.00032 32.9373796,15.375621 33.16,14.485 L33.66,12.485 C33.8109549,11.8873464 33.6761285,11.2534774 33.295,10.769 C33.206179,10.6584132 33.1055868,10.557821 32.995,10.469 L32.995,6 L48,6 L48,10.468 C47.8894132,10.556821 47.788821,10.6574132 47.7,10.768 C47.3188715,11.2524774 47.1840451,11.8863464 47.335,12.484 L47.835,14.484 C48.0576803,15.3768303 48.8608227,16.0025055 49.781,16 L50,16 L50,18 C50,18.5522847 50.4477153,19 51,19 C51.5522847,19 52,18.5522847 52,18 L52,16 L52.219,16 C53.1370226,16.00032 53.9373796,15.375621 54.16,14.485 L54.66,12.485 C54.8109549,11.8873464 54.6761285,11.2534774 54.295,10.769 C54.206179,10.6584132 54.1055868,10.557821 53.995,10.469 L53.995,6 L58.995,6 C59.5472847,6 59.995,5.55228475 59.995,5 L59.995,1 C59.9950069,0.449661994 59.5503311,0.00275168999 59,0 Z M10.22,14 L7.78,14 L7.27,12.015 L7.312,12 L10.69,12 L10.717,12.009 L10.22,14 Z M31.22,14 L28.781,14 L28.281,12 L31.719,12 L31.22,14 Z M31,10 L29,10 L29,6 L31,6 L31,10 Z M52.219,14 L49.781,14 L49.281,12 L52.719,12 L52.219,14 Z M52,10 L50,10 L50,6 L52,6 L52,10 Z M58,4 L13,4 C11.3431458,4 10,5.34314575 10,7 L10,10 L8,10 L8,7 C8.00330612,4.23994685 10.2399468,2.00330612 13,2 L58,2 L58,4 Z" id="Shape"/><path d="M17,60 C17.5522847,60 18,59.5522847 18,59 C18,58.4477153 17.5522847,58 17,58 L17,52 C17.5522847,52 18,51.5522847 18,51 C18,50.4477153 17.5522847,50 17,50 L17,44 C17.5522847,44 18,43.5522847 18,43 C18,42.4477153 17.5522847,42 17,42 L17,36 C17.5522847,36 18,35.5522847 18,35 C18,34.4477153 17.5522847,34 17,34 L1,34 C0.44771525,34 7.3376919e-16,34.4477153 6.66133815e-16,35 C5.9849844e-16,35.5522847 0.44771525,36 1,36 L1,42 C0.44771525,42 5.11724585e-16,42.4477153 4.4408921e-16,43 C3.76453835e-16,43.5522847 0.44771525,44 1,44 L1,50 C0.44771525,50 2.8967998e-16,50.4477153 2.22044605e-16,51 C1.5440923e-16,51.5522847 0.44771525,52 1,52 L1,58 C0.44771525,58 6.76353751e-17,58.4477153 0,59 C-6.76353751e-17,59.5522847 0.44771525,60 1,60 L17,60 Z M3,36 L15,36 L15,42 L3,42 L3,36 Z M3,58 L3,52 L5,52 C5.55228475,52 6,51.5522847 6,51 C6,50.4477153 5.55228475,50 5,50 L3,50 L3,44 L15,44 L15,50 L9,50 C8.44771525,50 8,50.4477153 8,51 C8,51.5522847 8.44771525,52 9,52 L15,52 L15,58 L3,58 Z" id="Shape"/><path d="M11,38 L7,38 C6.44771525,38 6,38.4477153 6,39 C6,39.5522847 6.44771525,40 7,40 L11,40 C11.5522847,40 12,39.5522847 12,39 C12,38.4477153 11.5522847,38 11,38 Z" id="Shape"/><path d="M21,59 C21,59.5522847 21.4477153,60 22,60 L38,60 C38.5522847,60 39,59.5522847 39,59 C39,58.4477153 38.5522847,58 38,58 L38,52 C38.5522847,52 39,51.5522847 39,51 C39,50.4477153 38.5522847,50 38,50 L38,44 C38.5522847,44 39,43.5522847 39,43 C39,42.4477153 38.5522847,42 38,42 L38,36 C38.5522847,36 39,35.5522847 39,35 C39,34.4477153 38.5522847,34 38,34 L22,34 C21.4477153,34 21,34.4477153 21,35 C21,35.5522847 21.4477153,36 22,36 L22,42 C21.4477153,42 21,42.4477153 21,43 C21,43.5522847 21.4477153,44 22,44 L22,50 C21.4477153,50 21,50.4477153 21,51 C21,51.5522847 21.4477153,52 22,52 L22,58 C21.4477153,58 21,58.4477153 21,59 Z M24,36 L36,36 L36,42 L24,42 L24,36 Z M24,52 L26,52 C26.5522847,52 27,51.5522847 27,51 C27,50.4477153 26.5522847,50 26,50 L24,50 L24,44 L36,44 L36,50 L30,50 C29.4477153,50 29,50.4477153 29,51 C29,51.5522847 29.4477153,52 30,52 L36,52 L36,58 L24,58 L24,52 Z" id="Shape"/><path d="M32,38 L28,38 C27.4477153,38 27,38.4477153 27,39 C27,39.5522847 27.4477153,40 28,40 L32,40 C32.5522847,40 33,39.5522847 33,39 C33,38.4477153 32.5522847,38 32,38 Z" id="Shape"/><path d="M60,35 C60,34.4477153 59.5522847,34 59,34 L43,34 C42.4477153,34 42,34.4477153 42,35 C42,35.5522847 42.4477153,36 43,36 L43,42 C42.4477153,42 42,42.4477153 42,43 C42,43.5522847 42.4477153,44 43,44 L43,50 C42.4477153,50 42,50.4477153 42,51 C42,51.5522847 42.4477153,52 43,52 L43,58 C42.4477153,58 42,58.4477153 42,59 C42,59.5522847 42.4477153,60 43,60 L59,60 C59.5522847,60 60,59.5522847 60,59 C60,58.4477153 59.5522847,58 59,58 L59,52 C59.5522847,52 60,51.5522847 60,51 C60,50.4477153 59.5522847,50 59,50 L59,44 C59.5522847,44 60,43.5522847 60,43 C60,42.4477153 59.5522847,42 59,42 L59,36 C59.5522847,36 60,35.5522847 60,35 Z M57,50 L51,50 C50.4477153,50 50,50.4477153 50,51 C50,51.5522847 50.4477153,52 51,52 L57,52 L57,58 L45,58 L45,52 L47,52 C47.5522847,52 48,51.5522847 48,51 C48,50.4477153 47.5522847,50 47,50 L45,50 L45,44 L57,44 L57,50 Z M57,42 L45,42 L45,36 L57,36 L57,42 Z" id="Shape"/><path d="M49,40 L53,40 C53.5522847,40 54,39.5522847 54,39 C54,38.4477153 53.5522847,38 53,38 L49,38 C48.4477153,38 48,38.4477153 48,39 C48,39.5522847 48.4477153,40 49,40 Z" id="Shape"/><path d="M13,28 C13,26.211 10.908,22 9,22 C7.092,22 5,26.211 5,28 C5,30.209139 6.790861,32 9,32 C11.209139,32 13,30.209139 13,28 Z M7,28 C7.26019252,26.5196916 7.95662903,25.1508457 9,24.069 C10.043371,25.1508457 10.7398075,26.5196916 11,28 C11,29.1045695 10.1045695,30 9,30 C7.8954305,30 7,29.1045695 7,28 Z" id="Shape"/><path d="M34,26 C34,24.211 31.908,20 30,20 C28.092,20 26,24.211 26,26 C26,28.209139 27.790861,30 30,30 C32.209139,30 34,28.209139 34,26 Z M28,26 C28.2601925,24.5196916 28.956629,23.1508457 30,22.069 C31.043371,23.1508457 31.7398075,24.5196916 32,26 C32,27.1045695 31.1045695,28 30,28 C28.8954305,28 28,27.1045695 28,26 Z" id="Shape"/><path d="M55,28 C55,26.211 52.908,22 51,22 C49.092,22 47,26.211 47,28 C47,30.209139 48.790861,32 51,32 C53.209139,32 55,30.209139 55,28 Z M49,28 C49.2601925,26.5196916 49.956629,25.1508457 51,24.069 C52.043371,25.1508457 52.7398075,26.5196916 53,28 C53,29.1045695 52.1045695,30 51,30 C49.8954305,30 49,29.1045695 49,28 Z" id="Shape"/></g></g></svg>
