<?xml version="1.0" encoding="UTF-8"?>
<svg xmlns="http://www.w3.org/2000/svg" xmlns:xlink="http://www.w3.org/1999/xlink" width="512" height="512" viewBox="0 0 60 60" version="1.1"><!-- Generator: Sketch 51.3 (57544) - http://www.bohemiancoding.com/sketch --><title>013 - Boiler</title><desc>Created with Sketch.</desc><defs/><g id="Page-1" stroke="none" stroke-width="1" fill="none" fill-rule="evenodd"><g id="013---Boiler" transform="translate(-1.000000, 0.000000)" fill="#000000" fill-rule="nonzero"><path d="M58.461,19.047 L57.95,18.536 C55.2946865,15.8723749 51.7542186,14.275784 48,14.049 L48,5 C48,3.34314575 46.6568542,2 45,2 L44,2 C44,0.8954305 43.1045695,6.76353751e-17 42,0 L36,0 C34.8954305,-6.76353751e-17 34,0.8954305 34,2 L33,2 C32.259601,2.00260366 31.5466671,2.28064791 31,2.78 C30.4533329,2.28064791 29.740399,2.00260366 29,2 L28,2 C28,0.8954305 27.1045695,9.55813795e-16 26,8.8817842e-16 L20,8.8817842e-16 C18.8954305,8.20543045e-16 18,0.8954305 18,2 L17,2 C15.3431458,2 14,3.34314575 14,5 L14,7 C12.8954305,7 12,7.8954305 12,9 L12,11 L10,11 L10,9 C9.99402987,8.94132585 9.98230684,8.8833806 9.965,8.827 C11.3550848,8.35475779 12.1991937,6.94587227 11.9598713,5.49739955 C11.720549,4.04892683 10.4681105,2.98644108 9,2.98644108 C7.53188951,2.98644108 6.27945098,4.04892683 6.04012865,5.49739955 C5.80080632,6.94587227 6.64491522,8.35475779 8.035,8.827 C8.01769316,8.8833806 8.00597013,8.94132585 8,9 L8,11 L6.816,11 C6.3289637,9.62245331 4.92033377,8.79612791 3.48026694,9.04320432 C2.04020011,9.29028073 0.987572875,10.5388911 0.987572875,12 C0.987572875,13.4611089 2.04020011,14.7097193 3.48026694,14.9567957 C4.92033377,15.2038721 6.3289637,14.3775467 6.816,13 L12,13 L12,14.291 C8.98534206,14.879773 6.21626157,16.3583575 4.05,18.536 L3.539,19.047 C2.18288582,19.2521975 1.14111802,20.3551203 1.01352914,21.7207237 C0.885940254,23.0863272 1.7053682,24.3631422 3,24.816 L3,52 C3,53.1045695 3.8954305,54 5,54 L5,58 C5,59.1045695 5.8954305,60 7,60 L9,60 C10.1045695,60 11,59.1045695 11,58 L11,54 L19,54 L19,58 C19,59.1045695 19.8954305,60 21,60 L23,60 C24.1045695,60 25,59.1045695 25,58 L25,54 C26.1045695,54 27,53.1045695 27,52 L27,48 L29,48 C29.740399,47.9973963 30.4533329,47.7193521 31,47.22 C31.5466671,47.7193521 32.259601,47.9973963 33,48 L35,48 L35,52 C35,53.1045695 35.8954305,54 37,54 L37,58 C37,59.1045695 37.8954305,60 39,60 L41,60 C42.1045695,60 43,59.1045695 43,58 L43,54 L51,54 L51,58 C51,59.1045695 51.8954305,60 53,60 L55,60 C56.1045695,60 57,59.1045695 57,58 L57,54 C58.1045695,54 59,53.1045695 59,52 L59,24.816 C60.2946318,24.3631422 61.1140597,23.0863272 60.9864709,21.7207237 C60.858882,20.3551203 59.8171142,19.2521975 58.461,19.047 Z M9,5 C9.55228475,5 10,5.44771525 10,6 C10,6.55228475 9.55228475,7 9,7 C8.44771525,7 8,6.55228475 8,6 C8,5.44771525 8.44771525,5 9,5 Z M4,13 C3.44771525,13 3,12.5522847 3,12 C3,11.4477153 3.44771525,11 4,11 C4.55228475,11 5,11.4477153 5,12 C5,12.5522847 4.55228475,13 4,13 Z M47,16 C50.0888743,15.9908723 53.0857532,17.0508389 55.482,19 L38.518,19 C40.9142468,17.0508389 43.9111257,15.9908723 47,16 Z M36,2 L42,2 L42,4 L36,4 L36,2 Z M20,2 L26,2 L26,4 L20,4 L20,2 Z M14,9 L16,9 L16,14.049 C15.667,14.028 15.336,14 15,14 C14.664,14 14.333,14.028 14,14.049 L14,9 Z M15,16 C18.0888743,15.9908723 21.0857532,17.0508389 23.482,19 L6.518,19 C8.91424679,17.0508389 11.9111257,15.9908723 15,16 Z M4,21 L26,21 C26.5522847,21 27,21.4477153 27,22 C27,22.5522847 26.5522847,23 26,23 L4,23 C3.44771525,23 3,22.5522847 3,22 C3,21.4477153 3.44771525,21 4,21 Z M9,58 L7,58 L7,54 L9,54 L9,58 Z M23,58 L21,58 L21,54 L23,54 L23,58 Z M24,52 L5,52 L5,25 L25,25 L25,52 L24,52 Z M29,46 L27,46 L27,24.816 C28.2946318,24.3631422 29.1140597,23.0863272 28.9864709,21.7207237 C28.858882,20.3551203 27.8171142,19.2521975 26.461,19.047 L25.95,18.536 C23.7837384,16.3583575 21.0146579,14.879773 18,14.291 L18,9 C18,7.8954305 17.1045695,7 16,7 L16,5 C16,4.44771525 16.4477153,4 17,4 L18,4 C18,5.1045695 18.8954305,6 20,6 L26,6 C27.1045695,6 28,5.1045695 28,4 L29,4 C29.5522847,4 30,4.44771525 30,5 L30,45 C30,45.5522847 29.5522847,46 29,46 Z M33,46 C32.4477153,46 32,45.5522847 32,45 L32,5 C32,4.44771525 32.4477153,4 33,4 L34,4 C34,5.1045695 34.8954305,6 36,6 L42,6 C43.1045695,6 44,5.1045695 44,4 L45,4 C45.5522847,4 46,4.44771525 46,5 L46,14.049 C42.2457814,14.275784 38.7053135,15.8723749 36.05,18.536 L35.539,19.047 C34.1828858,19.2521975 33.141118,20.3551203 33.0135291,21.7207237 C32.8859403,23.0863272 33.7053682,24.3631422 35,24.816 L35,46 L33,46 Z M41,58 L39,58 L39,54 L41,54 L41,58 Z M55,58 L53,58 L53,54 L55,54 L55,58 Z M56,52 L37,52 L37,25 L57,25 L57,52 L56,52 Z M58,23 L36,23 C35.4477153,23 35,22.5522847 35,22 C35,21.4477153 35.4477153,21 36,21 L58,21 C58.5522847,21 59,21.4477153 59,22 C59,22.5522847 58.5522847,23 58,23 Z" id="Shape"/><path d="M21,37 L9,37 C7.8954305,37 7,37.8954305 7,39 L7,48 C7,49.1045695 7.8954305,50 9,50 L21,50 C22.1045695,50 23,49.1045695 23,48 L23,39 C23,37.8954305 22.1045695,37 21,37 Z M21,39 L21,43.29 C20.5353486,42.9994899 20.0999761,42.664588 19.7,42.29 C19.4129942,42.0086714 18.9854545,41.926495 18.6146054,42.081379 C18.2437563,42.2362631 18.0016616,42.5981103 18,43 C18,43.6 16.223,44 15,44 C13.7460937,43.8021457 12.5902269,43.2028074 11.706,42.292 C11.4197839,42.0066778 10.9899632,41.9216815 10.616692,42.0765912 C10.2434208,42.2315009 10.0000856,42.5958609 10,43 C10,43.266 9.616,43.523 9,43.711 L9,39 L21,39 Z M9,48 L9,45.774 C9.89039557,45.6389211 10.7175683,45.2328418 11.369,44.611 C12.409928,45.4324589 13.6765812,45.9170034 15,46 C16.625,46 18.44,45.61 19.373,44.606 C19.8802546,44.9770118 20.4260843,45.2921714 21.001,45.546 L21.001,48 L9,48 Z" id="Shape"/><path d="M53,37 L41,37 C39.8954305,37 39,37.8954305 39,39 L39,48 C39,49.1045695 39.8954305,50 41,50 L53,50 C54.1045695,50 55,49.1045695 55,48 L55,39 C55,37.8954305 54.1045695,37 53,37 Z M53,39 L53,43.29 C52.5370849,42.9992228 52.1033967,42.6643285 51.705,42.29 C51.4184341,42.0051339 50.9885922,41.920718 50.6155765,42.07605 C50.2425609,42.231382 49.9996796,42.5959349 50,43 C50,43.6 48.223,44 47,44 C45.7460937,43.8021457 44.5902269,43.2028074 43.706,42.292 C43.4197839,42.0066778 42.9899632,41.9216815 42.616692,42.0765912 C42.2434208,42.2315009 42.0000856,42.5958609 42,43 C42,43.266 41.616,43.523 41,43.711 L41,39 L53,39 Z M41,48 L41,45.774 C41.8903956,45.6389211 42.7175683,45.2328418 43.369,44.611 C44.409928,45.4324589 45.6765812,45.9170034 47,46 C48.625,46 50.44,45.61 51.373,44.606 C51.8802546,44.9770118 52.4260843,45.2921714 53.001,45.546 L53.001,48 L41,48 Z" id="Shape"/><path d="M15,35 C17.209139,35 19,33.209139 19,31 C19,28.790861 17.209139,27 15,27 C12.790861,27 11,28.790861 11,31 C11,33.209139 12.790861,35 15,35 Z M15,29 C16.1045695,29 17,29.8954305 17,31 C17,32.1045695 16.1045695,33 15,33 C13.8954305,33 13,32.1045695 13,31 C13,29.8954305 13.8954305,29 15,29 Z" id="Shape"/><path d="M47,35 C49.209139,35 51,33.209139 51,31 C51,28.790861 49.209139,27 47,27 C44.790861,27 43,28.790861 43,31 C43,33.209139 44.790861,35 47,35 Z M47,29 C48.1045695,29 49,29.8954305 49,31 C49,32.1045695 48.1045695,33 47,33 C45.8954305,33 45,32.1045695 45,31 C45,29.8954305 45.8954305,29 47,29 Z" id="Shape"/></g></g></svg>
