<?xml version="1.0" encoding="UTF-8"?>
<svg xmlns="http://www.w3.org/2000/svg" xmlns:xlink="http://www.w3.org/1999/xlink" width="512" height="512" viewBox="0 0 60 60" version="1.1"><!-- Generator: Sketch 51.3 (57544) - http://www.bohemiancoding.com/sketch --><title>014 - PH Reader</title><desc>Created with Sketch.</desc><defs/><g id="Page-1" stroke="none" stroke-width="1" fill="none" fill-rule="evenodd"><g id="014---PH-Reader" fill="#000000" fill-rule="nonzero"><path d="M55,34 L52,34 L52,29 C52,27.8954305 51.1045695,27 50,27 L44,27 L44,19.98 C44.808248,19.9354223 45.5634946,19.5636359 46.0917538,18.9502892 C46.6200131,18.3369425 46.8757317,17.534926 46.8,16.729 L46.164,9.729 C46.0528324,8.47680806 45.1665853,7.42964344 43.95,7.113 C43.4938839,3.0655829 40.0730337,0.00489014071 36,0 L32,0 C28.3155135,0.0129483884 25.1130995,2.53290102 24.234,6.111 C22.921447,6.4576174 22.0052334,7.64246118 22,9 L22,10 L3,10 C1.34314575,10 6.88295632e-16,11.3431458 4.85389506e-16,13 L4.85389506e-16,31.2 C0.028208253,32.3191651 0.484959835,33.3847995 1.276,34.177 C1.80034392,34.8983038 2.05641092,35.7800373 2,36.67 C2.0038024,37.1921938 1.92758502,37.7118884 1.774,38.211 C1.32964151,39.5883815 1.32964151,41.0706185 1.774,42.448 C1.92828147,42.9507265 2.00450189,43.4741517 2,44 C2.00385414,44.5259517 1.92695887,45.0493791 1.772,45.552 C1.32764151,46.9293815 1.32764151,48.4116185 1.772,49.789 C1.92626251,50.2880062 2.00315472,50.807703 2,51.33 C2.05544884,52.2184571 1.79903363,53.0984034 1.275,53.818 C0.483409719,54.6117781 0.0269747994,55.6792988 0,56.8 L0,57 C6.88295632e-16,58.6568542 1.34314575,60 3,60 L28,60 C29.6568542,60 31,58.6568542 31,57 L31,56.8 C30.9717917,55.6808349 30.5150402,54.6152005 29.724,53.823 C29.1996561,53.1016962 28.9435891,52.2199627 29,51.33 C28.9961976,50.8078062 29.072415,50.2881116 29.226,49.789 C29.6703585,48.4116185 29.6703585,46.9293815 29.226,45.552 C28.9230203,44.5408755 28.9230203,43.4631245 29.226,42.452 C29.6703585,41.0746185 29.6703585,39.5923815 29.226,38.215 C29.0720101,37.7146081 28.9957882,37.1935334 29,36.67 C28.9445512,35.7815429 29.2009664,34.9015966 29.725,34.182 C30.5154148,33.3894656 30.9717538,32.3239586 31,31.205 L31,13 C31,11.3431458 29.6568542,10 28,10 L28,9 C27.9959513,7.83914379 27.3225343,6.78481201 26.271,6.293 C27.0259582,3.75586272 29.3529488,2.01214296 32,2 L36,2 C38.9815069,2.00350675 41.5081309,4.19577468 41.932,7.147 C40.7733815,7.5010173 39.9451612,8.52225169 39.838,9.729 L39.202,16.729 C39.1262688,17.534598 39.3817201,18.3363168 39.9095495,18.9496026 C40.437379,19.5628883 41.1921081,19.9348995 42,19.98 L42,27 L36,27 C34.8954305,27 34,27.8954305 34,29 L34,54.278 C33.3832487,54.6324126 33.002145,55.2886732 33,56 L33,58 C33,59.1045695 33.8954305,60 35,60 L51,60 C52.1045695,60 53,59.1045695 53,58 L53,56 C52.997855,55.2886732 52.6167513,54.6324126 52,54.278 L52,51.457 L57.5,48.291 C59.0456342,47.3950651 59.9979408,45.7445274 60,43.958 L60,39 C59.9966939,36.2399468 57.7600532,34.0033061 55,34 Z M29,13 L29,31.2 C28.9619937,31.8109404 28.698668,32.3860522 28.261,32.814 C27.3877609,33.9043152 26.9397119,35.2744001 27,36.67 C26.9965025,37.3995898 27.1051023,38.1253875 27.322,38.822 C27.6386603,39.8017147 27.6386603,40.8562853 27.322,41.836 C26.8913598,43.2465298 26.8913598,44.7534702 27.322,46.164 C27.6386603,47.1437147 27.6386603,48.1982853 27.322,49.178 C27.1051023,49.8746125 26.9965025,50.6004102 27,51.33 C26.940935,52.723903 27.3889147,54.0919998 28.261,55.181 C28.6997907,55.6102034 28.9632098,56.1873016 29,56.8 L29,57 C29,57.5522847 28.5522847,58 28,58 L3,58 C2.44771525,58 2,57.5522847 2,57 L2,56.8 C2.03800626,56.1890596 2.30133196,55.6139478 2.739,55.186 C3.61223907,54.0956848 4.06028813,52.7255999 4,51.33 C4.00349752,50.6004102 3.89489768,49.8746125 3.678,49.178 C3.36133973,48.1982853 3.36133973,47.1437147 3.678,46.164 C3.89510909,45.4633192 4.00369963,44.7335368 4,44 C4.00337586,43.2664116 3.89444791,42.5366281 3.677,41.836 C3.36033973,40.8562853 3.36033973,39.8017147 3.677,38.822 C3.89423655,38.1254404 4.00317383,37.3996416 4,36.67 C4.05906505,35.276097 3.61108529,33.9080002 2.739,32.819 C2.30133196,32.3910522 2.03800626,31.8159404 2,31.205 L2,13 C2,12.4477153 2.44771525,12 3,12 L28,12 C28.5522847,12 29,12.4477153 29,13 Z M24,10 L24,9 C24,8.44771525 24.4477153,8 25,8 C25.5522847,8 26,8.44771525 26,9 L26,10 L24,10 Z M41.194,16.909 L41.831,9.909 C41.8749278,9.39076161 42.3109272,8.99400217 42.831,8.999 L43.177,8.999 C43.6967194,8.99396101 44.1325795,9.39015784 44.177,9.908 L44.814,16.908 C44.8396431,17.1885963 44.7457194,17.4669901 44.5553321,17.6747026 C44.3649448,17.8824152 44.0957632,18.0001693 43.814,17.999 L42.19,17.999 C41.9082368,18.0001693 41.6390552,17.8824152 41.4486679,17.6747026 C41.2582806,17.4669901 41.1643569,17.1885963 41.19,16.908 L41.194,16.909 Z M36,34 L42,34 L42,35 C42,35.5522847 42.4477153,36 43,36 C43.5522847,36 44,35.5522847 44,35 L44,34 L50,34 L50,54 L36,54 L36,34 Z M52,40 L54,40 L54,43.383 L52,44.538 L52,40 Z M50,29 L50,32 L44,32 L44,29 L50,29 Z M42,29 L42,32 L36,32 L36,29 L42,29 Z M35,58 L35,56 L51,56 L51,58 L35,58 Z M58,43.958 C57.9988357,45.0299879 57.4274422,46.0204032 56.5,46.558 L52,49.149 L52,46.849 L55,45.117 C55.6178836,44.7588414 55.9987492,44.0991821 56,43.385 L56,40 C56,38.8954305 55.1045695,38 54,38 L52,38 L52,36 L55,36 C56.6568542,36 58,37.3431458 58,39 L58,43.958 Z" id="Shape"/><path d="M41,38 C39.3431458,38 38,39.3431458 38,41 C38,42.6568542 39.3431458,44 41,44 C42.6568542,44 44,42.6568542 44,41 C44,39.3431458 42.6568542,38 41,38 Z M41,42 C40.4477153,42 40,41.5522847 40,41 C40,40.4477153 40.4477153,40 41,40 C41.5522847,40 42,40.4477153 42,41 C42,41.5522847 41.5522847,42 41,42 Z" id="Shape"/><circle id="Oval" cx="46" cy="51" r="1"/><circle id="Oval" cx="41" cy="48" r="1"/><circle id="Oval" cx="47" cy="38" r="1"/><path d="M24,14 L7,14 C5.34314575,14 4,15.3431458 4,17 L4,28 C4,29.6568542 5.34314575,31 7,31 L24,31 C25.6568542,31 27,29.6568542 27,28 L27,17 C27,15.3431458 25.6568542,14 24,14 Z M25,28 C25,28.5522847 24.5522847,29 24,29 L7,29 C6.44771525,29 6,28.5522847 6,28 L6,17 C6,16.4477153 6.44771525,16 7,16 L24,16 C24.5522847,16 25,16.4477153 25,17 L25,28 Z" id="Shape"/><path d="M11.5,41 L8,41 C7.44771525,41 7,41.4477153 7,42 L7,52 C7,52.5522847 7.44771525,53 8,53 C8.55228475,53 9,52.5522847 9,52 L9,48 L11.5,48 C13.4329966,48 15,46.4329966 15,44.5 C15,42.5670034 13.4329966,41 11.5,41 Z M11.5,46 L9,46 L9,43 L11.5,43 C12.3284271,43 13,43.6715729 13,44.5 C13,45.3284271 12.3284271,46 11.5,46 Z" id="Shape"/><path d="M23,41 C22.4477153,41 22,41.4477153 22,42 L22,46 L18,46 L18,42 C18,41.4477153 17.5522847,41 17,41 C16.4477153,41 16,41.4477153 16,42 L16,52 C16,52.5522847 16.4477153,53 17,53 C17.5522847,53 18,52.5522847 18,52 L18,48 L22,48 L22,52 C22,52.5522847 22.4477153,53 23,53 C23.5522847,53 24,52.5522847 24,52 L24,42 C24,41.4477153 23.5522847,41 23,41 Z" id="Shape"/><path d="M13,18 L10,18 C8.8954305,18 8,18.8954305 8,20 L8,25 C8,26.1045695 8.8954305,27 10,27 L13,27 C14.1045695,27 15,26.1045695 15,25 L15,20 C15,18.8954305 14.1045695,18 13,18 Z M12.052,20 L10,22.883 L10,20 L12.052,20 Z M10.952,25 L13,22.116 L13,25 L10.952,25 Z" id="Shape"/><path d="M22,18 L19,18 C17.8954305,18 17,18.8954305 17,20 L17,25 C17,26.1045695 17.8954305,27 19,27 L22,27 C23.1045695,27 24,26.1045695 24,25 L24,20 C24,18.8954305 23.1045695,18 22,18 Z M21.052,20 L19,22.883 L19,20 L21.052,20 Z M19.952,25 L22,22.116 L22,25 L19.952,25 Z" id="Shape"/><path d="M10,35 C10.5522847,35 11,34.5522847 11,34 C11,33.4477153 10.5522847,33 10,33 L7,33 C6.44771525,33 6,33.4477153 6,34 C6,34.5522847 6.44771525,35 7,35 L10,35 Z" id="Shape"/><path d="M17,35 C17.5522847,35 18,34.5522847 18,34 C18,33.4477153 17.5522847,33 17,33 L14,33 C13.4477153,33 13,33.4477153 13,34 C13,34.5522847 13.4477153,35 14,35 L17,35 Z" id="Shape"/><path d="M24,33 L21,33 C20.4477153,33 20,33.4477153 20,34 C20,34.5522847 20.4477153,35 21,35 L24,35 C24.5522847,35 25,34.5522847 25,34 C25,33.4477153 24.5522847,33 24,33 Z" id="Shape"/></g></g></svg>
