<?xml version="1.0" encoding="UTF-8"?>
<svg xmlns="http://www.w3.org/2000/svg" xmlns:xlink="http://www.w3.org/1999/xlink" width="512" height="512" viewBox="0 0 58 60" version="1.1"><!-- Generator: Sketch 51.3 (57544) - http://www.bohemiancoding.com/sketch --><title>015 - Still</title><desc>Created with Sketch.</desc><defs/><g id="Page-1" stroke="none" stroke-width="1" fill="none" fill-rule="evenodd"><g id="015---Still" fill="#000000" fill-rule="nonzero"><path d="M26,45.574 L26,49.382 C24.5817717,50.9901197 24.6837796,53.4304851 26.2312657,54.9146372 C27.7787518,56.3987893 30.2212482,56.3987893 31.7687343,54.9146372 C33.3162204,53.4304851 33.4182283,50.9901197 32,49.382 L32,45.574 C36.5732098,44.282279 39.7972868,40.1963683 39.9900285,35.4481432 C40.1827701,30.6999181 37.3004682,26.3661351 32.847,24.708 L32.242,19.857 C32.0348085,18.2242948 30.645799,17.0004122 29,17.0004122 C27.354201,17.0004122 25.9651915,18.2242948 25.758,19.857 L25.153,24.709 C20.700333,26.3675889 17.8187725,30.7009631 18.0114993,35.4485959 C18.2042261,40.1962287 21.4275469,44.2817796 26,45.574 Z M29,54 C27.8954305,54 27,53.1045695 27,52 C27,50.8954305 27.8954305,50 29,50 C30.1045695,50 31,50.8954305 31,52 C31,53.1045695 30.1045695,54 29,54 Z M30,48.142 C29.346777,47.9526597 28.653223,47.9526597 28,48.142 L28,45.949 C28.33,45.979 28.662,46 29,46 C29.338,46 29.67,45.979 30,45.949 L30,48.142 Z M27.742,20.1 C27.8256127,19.4691099 28.3635934,18.9977243 29,18.9977243 C29.6364066,18.9977243 30.1743873,19.4691099 30.258,20.1 L30.763,24.151 C29.5967586,23.9442533 28.4032414,23.9442533 27.237,24.151 L27.742,20.1 Z M29,26 C33.9705627,26 38,30.0294373 38,35 C38,39.9705627 33.9705627,44 29,44 C24.0294373,44 20,39.9705627 20,35 C20.006061,30.0319499 24.0319499,26.006061 29,26 Z" id="Shape"/><path d="M24,35 C24,32.2385763 26.2385763,30 29,30 C31.7614237,30 34,32.2385763 34,35 C34,35.5522847 34.4477153,36 35,36 C35.5522847,36 36,35.5522847 36,35 C36,31.1340068 32.8659932,28 29,28 C25.1340068,28 22,31.1340068 22,35 C22,35.5522847 22.4477153,36 23,36 C23.5522847,36 24,35.5522847 24,35 Z" id="Shape"/><path d="M29,32 C28.4477153,32 28,32.4477153 28,33 L28,37 C28,37.5522847 28.4477153,38 29,38 C29.5522847,38 30,37.5522847 30,37 L30,33 C30,32.4477153 29.5522847,32 29,32 Z" id="Shape"/><path d="M1,13 L1.362,13 C1.54771938,13.3857556 1.76794994,13.7539222 2.02,14.1 C2.29534362,14.4653578 2.62598332,14.7855385 3,15.049 C3.50708388,15.3878746 4.06371589,15.6459494 4.65,15.814 L5,15.934 C5.52464864,16.1266791 6.02003567,16.3911996 6.472,16.72 C7.44314691,17.4587512 8.29565962,18.3416144 9,19.338 L9,51 C9,56.047 17.785,60 29,60 C40.215,60 49,56.047 49,51 L49,19.338 C49.7043354,18.3415739 50.5572387,17.4589927 51.529,16.721 C51.9805071,16.3917879 52.4755758,16.1269211 53,15.934 L53.348,15.814 C53.934819,15.6461797 54.4920951,15.3884564 55,15.05 C55.3741069,14.7838913 55.7046992,14.4613952 55.98,14.094 C56.2321982,13.750137 56.4524473,13.3839478 56.638,13 L57,13 C57.5522847,13 58,12.5522847 58,12 C58,11.4477153 57.5522847,11 57,11 L49,11 L49,10 L49.586,10 C50.3947918,9.9998273 51.1238681,9.512545 51.433356,8.76530912 C51.7428438,8.01807323 51.5718158,7.15798851 51,6.586 L48.707,4.293 C48.5195073,4.10545063 48.2651948,4.00005664 48,4 L40.35,4 L36.446,0.876 C35.7364192,0.309798588 34.8557929,0.00098007431 33.948,0 L24.048,0 C23.139521,0.000527462038 22.2581171,0.309371392 21.548,0.876 L17.65,4 L10,4 C9.73480519,4.00005664 9.48049273,4.10545063 9.293,4.293 L7,6.586 C6.42818417,7.15798851 6.25715619,8.01807323 6.56664404,8.76530912 C6.8761319,9.512545 7.6052082,9.9998273 8.414,10 L9,10 L9,11 L1,11 C0.44771525,11 0,11.4477153 0,12 C-1.11022302e-16,12.5522847 0.44771525,13 1,13 Z M54.273,13 C54.1478384,13.15654 54.0037376,13.2969459 53.844,13.418 C53.4958126,13.6400937 53.1162467,13.8086398 52.718,13.918 L52.331,14.051 C51.6312972,14.3062746 50.9703444,14.6572796 50.367,15.094 C49.8805463,15.4498221 49.4234141,15.8440861 49,16.273 L49,13 L54.273,13 Z M22.8,2.438 C23.1557503,2.15453944 23.5971284,2.00012761 24.052,2 L33.952,2 C34.4058425,2.00080557 34.8460547,2.15517942 35.201,2.438 L37.15,4 L20.85,4 L22.8,2.438 Z M10.414,6 L47.586,6 L49.586,8 L8.414,8 L10.414,6 Z M47,10 L47,51 C47,55.125 37.514,58 29,58 C20.486,58 11,55.125 11,51 L11,10 L47,10 Z M9,16.273 C8.57683766,15.8435129 8.1196854,15.4488972 7.633,15.093 C7.02987705,14.6565027 6.36928621,14.3055112 5.67,14.05 L5.282,13.917 C4.88375328,13.8076398 4.50418742,13.6390937 4.156,13.417 C3.99609833,13.2965174 3.85196939,13.1564201 3.727,13 L9,13 L9,16.273 Z" id="Shape"/><path d="M14,14 L15,14 C15.5522847,14 16,13.5522847 16,13 C16,12.4477153 15.5522847,12 15,12 L14,12 C13.4477153,12 13,12.4477153 13,13 C13,13.5522847 13.4477153,14 14,14 Z" id="Shape"/><path d="M19,14 L40,14 C40.5522847,14 41,13.5522847 41,13 C41,12.4477153 40.5522847,12 40,12 L19,12 C18.4477153,12 18,12.4477153 18,13 C18,13.5522847 18.4477153,14 19,14 Z" id="Shape"/><path d="M29.92,40.62 C29.8981446,40.5562619 29.8678773,40.4957271 29.83,40.44 L29.71,40.29 C29.6143929,40.1996032 29.5023813,40.128323 29.38,40.08 C29.1976321,40.0000893 28.9948642,39.9791133 28.8,40.02 C28.7373375,40.0308873 28.6766624,40.0511123 28.62,40.08 C28.5562619,40.1018554 28.4957271,40.1321227 28.44,40.17 L28.29,40.29 L28.17,40.44 C28.1321227,40.4957271 28.1018554,40.5562619 28.08,40.62 C28.0511123,40.6766624 28.0308873,40.7373375 28.02,40.8 C27.9933333,40.932 27.9933333,41.068 28.02,41.2 C28.0308873,41.2626625 28.0511123,41.3233376 28.08,41.38 C28.0998955,41.4414651 28.1303512,41.4989925 28.17,41.55 C28.21,41.61 28.25,41.66 28.29,41.71 L28.44,41.83 C28.4957271,41.8678773 28.5562619,41.8981446 28.62,41.92 C28.6766624,41.9488877 28.7373375,41.9691127 28.8,41.98 C28.8660796,41.9916089 28.9329301,41.9982939 29,42 C29.1306773,41.99842 29.2597777,41.971241 29.38,41.92 C29.5036026,41.8741036 29.616074,41.802531 29.71,41.71 C29.75,41.66 29.79,41.61 29.83,41.55 C29.8696488,41.4989925 29.9001045,41.4414651 29.92,41.38 C29.9488877,41.3233376 29.9691127,41.2626625 29.98,41.2 C30.0066667,41.068 30.0066667,40.932 29.98,40.8 C29.9691127,40.7373375 29.9488877,40.6766624 29.92,40.62 Z" id="Shape"/></g></g></svg>
