<?xml version="1.0" encoding="UTF-8"?>
<svg xmlns="http://www.w3.org/2000/svg" xmlns:xlink="http://www.w3.org/1999/xlink" width="512" height="512" viewBox="0 0 60 60" version="1.1"><!-- Generator: Sketch 51.3 (57544) - http://www.bohemiancoding.com/sketch --><title>016 - Macerator</title><desc>Created with Sketch.</desc><defs/><g id="Page-1" stroke="none" stroke-width="1" fill="none" fill-rule="evenodd"><g id="016---Macerator" fill="#000000" fill-rule="nonzero"><path d="M58,0 L2,0 C0.8954305,-6.76353751e-17 1.3527075e-16,0.8954305 0,2 L0,4 C1.3527075e-16,5.1045695 0.8954305,6 2,6 L2.274,6 L16,48.16 L16,58 C16,59.1045695 16.8954305,60 18,60 L42,60 C43.1045695,60 44,59.1045695 44,58 L46,58 C46.7113268,57.997855 47.3675874,57.6167513 47.722,57 L50,57 C51.1045695,57 52,56.1045695 52,55 L52,40 C52,39.4477153 52.4477153,39 53,39 L54,39 L54,39.219 C53.9997945,40.1373138 54.6249819,40.9377681 55.516,41.16 L57.516,41.66 C57.6759758,41.6996911 57.840174,41.7198381 58.005,41.72 C59.1076164,41.7172435 60.0000034,40.8226198 60,39.72 L60,36.281 C60.0001378,35.6652447 59.7166305,35.0837508 59.2314359,34.7046192 C58.7462412,34.3254876 58.1134528,34.1909872 57.516,34.34 L55.516,34.84 C54.6249819,35.0622319 53.9997945,35.8626862 54,36.781 L54,37 L53,37 C51.3431458,37 50,38.3431458 50,40 L50,51 L47.722,51 C47.3675874,50.3832487 46.7113268,50.002145 46,50 L44,50 L44,48.16 L57.726,6 L58,6 C59.1045695,6 60,5.1045695 60,4 L60,2 C60,0.8954305 59.1045695,6.76353751e-17 58,0 Z M56,36.781 L58,36.281 L58,39.72 L56,39.22 L56,36.781 Z M18,58 L18,49 L42,49 L42,51 L42,58 L18,58 Z M50,54 L50,55 L48,55 L48,53 L50,53 L50,54 Z M46,52 L46,56 L44,56 L44,52 L46,52 Z M42.274,47 L17.726,47 L4.377,6 L55.623,6 L42.274,47 Z M57,4 L2,4 L2,2 L58,2 L58,4 L57,4 Z" id="Shape"/><path d="M21,43 L20,43 C19.4477153,43 19,43.4477153 19,44 C19,44.5522847 19.4477153,45 20,45 L21,45 C21.5522847,45 22,44.5522847 22,44 C22,43.4477153 21.5522847,43 21,43 Z" id="Shape"/><path d="M40,43 L25,43 C24.4477153,43 24,43.4477153 24,44 C24,44.5522847 24.4477153,45 25,45 L40,45 C40.5522847,45 41,44.5522847 41,44 C41,43.4477153 40.5522847,43 40,43 Z" id="Shape"/><path d="M40,51 L39,51 C38.4477153,51 38,51.4477153 38,52 C38,52.5522847 38.4477153,53 39,53 L40,53 C40.5522847,53 41,52.5522847 41,52 C41,51.4477153 40.5522847,51 40,51 Z" id="Shape"/><path d="M35,51 L20,51 C19.4477153,51 19,51.4477153 19,52 C19,52.5522847 19.4477153,53 20,53 L35,53 C35.5522847,53 36,52.5522847 36,52 C36,51.4477153 35.5522847,51 35,51 Z" id="Shape"/><path d="M10,10 L11,10 C11.5522847,10 12,9.55228475 12,9 C12,8.44771525 11.5522847,8 11,8 L10,8 C9.44771525,8 9,8.44771525 9,9 C9,9.55228475 9.44771525,10 10,10 Z" id="Shape"/><path d="M15,10 L50,10 C50.5522847,10 51,9.55228475 51,9 C51,8.44771525 50.5522847,8 50,8 L15,8 C14.4477153,8 14,8.44771525 14,9 C14,9.55228475 14.4477153,10 15,10 Z" id="Shape"/></g></g></svg>
