<?xml version="1.0" encoding="UTF-8"?>
<svg xmlns="http://www.w3.org/2000/svg" xmlns:xlink="http://www.w3.org/1999/xlink" width="512" height="512" viewBox="0 0 60 60" version="1.1"><!-- Generator: Sketch 51.3 (57544) - http://www.bohemiancoding.com/sketch --><title>017 - Bottle and Hops</title><desc>Created with Sketch.</desc><defs/><g id="Page-1" stroke="none" stroke-width="1" fill="none" fill-rule="evenodd"><g id="017---Bottle-and-Hops" fill="#000000" fill-rule="nonzero"><path d="M5,24 C5.55228475,24 6,23.5522847 6,23 L6,22 C6,21.4477153 5.55228475,21 5,21 C4.44771525,21 4,21.4477153 4,22 L4,23 C4,23.5522847 4.44771525,24 5,24 Z" id="Shape"/><path d="M27,44 L26,44 C25.4477153,44 25,44.4477153 25,45 C25,45.5522847 25.4477153,46 26,46 L27,46 C27.5522847,46 28,45.5522847 28,45 C28,44.4477153 27.5522847,44 27,44 Z" id="Shape"/><path d="M31,44 L30,44 C29.4477153,44 29,44.4477153 29,45 C29,45.5522847 29.4477153,46 30,46 L31,46 C31.5522847,46 32,45.5522847 32,45 C32,44.4477153 31.5522847,44 31,44 Z" id="Shape"/><path d="M31,40 L30,40 C29.4477153,40 29,40.4477153 29,41 C29,41.5522847 29.4477153,42 30,42 L31,42 C31.5522847,42 32,41.5522847 32,41 C32,40.4477153 31.5522847,40 31,40 Z" id="Shape"/><path d="M10,44 L9,44 C8.44771525,44 8,44.4477153 8,45 C8,45.5522847 8.44771525,46 9,46 L10,46 C10.5522847,46 11,45.5522847 11,45 C11,44.4477153 10.5522847,44 10,44 Z" id="Shape"/><path d="M6,44 L5,44 C4.44771525,44 4,44.4477153 4,45 C4,45.5522847 4.44771525,46 5,46 L6,46 C6.55228475,46 7,45.5522847 7,45 C7,44.4477153 6.55228475,44 6,44 Z" id="Shape"/><path d="M6,40 L5,40 C4.44771525,40 4,40.4477153 4,41 C4,41.5522847 4.44771525,42 5,42 L6,42 C6.55228475,42 7,41.5522847 7,41 C7,40.4477153 6.55228475,40 6,40 Z" id="Shape"/><path d="M56,54.057 C56,54.039 56.005,54.017 56.005,54 C56.005,52.495 54.339,51.318 51.996,51.056 C51.996,51.037 52.005,51.019 52.005,51 C52.005,49.29 49.856,48 47.005,48 C44.154,48 42.005,49.29 42.005,51 C42.005,51.019 42.013,51.037 42.014,51.056 C39.666,51.318 38,52.5 38,54 C38,54.017 38.005,54.039 38.005,54.057 C37.3142283,54.129233 36.6382968,54.3052112 36,54.579 L36,23 C35.9955914,19.1358343 32.8641657,16.0044086 29,16 C27.9378294,16.0042744 26.9179284,15.5842198 26.1668543,14.8331457 C25.4157802,14.0820716 24.9957256,13.0621706 25,12 L25,7 L25.5,7 C27.4329966,7 29,5.43299662 29,3.5 C29,1.56700338 27.4329966,1.18361906e-16 25.5,0 L10.5,0 C8.56700338,-1.18361906e-16 7,1.56700338 7,3.5 C7,5.43299662 8.56700338,7 10.5,7 L11,7 L11,12 C11,14.209139 9.209139,16 7,16 C3.13583434,16.0044086 0.00440863597,19.1358343 0,23 L0,55 C0.00330611633,57.7600532 2.23994685,59.9966939 5,60 L31,60 C32.3642008,59.9982041 33.6678382,59.4364036 34.606,58.446 C35.7953316,59.5450705 37.3841341,60.1069729 39,60 C40.4264462,60.0603256 41.8327985,59.6472096 43,58.825 C44.1672015,59.6472096 45.5735538,60.0603256 47,60 C48.4264462,60.0603256 49.8327985,59.6472096 51,58.825 C52.1672015,59.6472096 53.5735538,60.0603256 55,60 C57.851,60 60,58.71 60,57 C60,55.5 58.335,54.318 56,54.057 Z M54,54 C53.9915171,54.021222 53.981142,54.0416376 53.969,54.061 C53.0071236,54.1516248 52.0801051,54.4674826 51.263,54.983 C51.087,54.989 50.913,54.989 50.737,54.983 C49.9195993,54.4673346 48.9922212,54.151471 48.03,54.061 C48.0183447,54.0415234 48.0083109,54.0211213 48,54 C48.0084829,53.978778 48.018858,53.9583624 48.031,53.939 C48.9981326,53.8484714 49.9298177,53.5289974 50.749,53.007 C50.833,53.007 50.915,52.998 51,52.998 C53.035,53 54,53.8 54,54 Z M47,50 C48.936,50 50,50.751 50,51 C50,51.249 48.936,52 47,52 C45.064,52 44,51.249 44,51 C44,50.751 45.064,50 47,50 Z M43,53 C43.085,53 43.167,53.006 43.251,53.009 C44.0714216,53.5316347 45.0044756,53.8514508 45.973,53.942 C45.9900536,53.9564403 45.9998879,53.9776539 45.9998879,54 C45.9998879,54.0223461 45.9900536,54.0435597 45.973,54.058 C45.0097711,54.1488297 44.0814253,54.4650154 43.263,54.981 C43.087,54.987 42.913,54.987 42.737,54.981 C41.9198949,54.4654826 40.9928764,54.1496248 40.031,54.059 C40.0189978,54.0402564 40.0086264,54.0205173 40,54 C40,53.8 40.965,53 43,53 Z M2,48 L2,30 L8.583,30 C8.19768231,31.2984391 8.00133431,32.6455953 8,34 C8,40.617 12.486,46 18,46 C23.514,46 28,40.617 28,34 C27.9986657,32.6455953 27.8023177,31.2984391 27.417,30 L34,30 L34,48 L2,48 Z M25.085,29.371 L25.096,29.401 C25.697505,30.8594343 26.0047289,32.4224017 26,34 C26,39.514 22.411,44 18,44 C13.589,44 10,39.514 10,34 C9.99387069,32.4223339 10.2997357,30.8590239 10.9,29.4 L10.911,29.37 C12.254,26.183 14.925,24 18,24 C21.075,24 23.746,26.183 25.085,29.371 Z M9,3.5 C9,2.67157288 9.67157288,2 10.5,2 L25.5,2 C26.3284271,2.00000001 27,2.67157288 27,3.5 C27,4.32842712 26.3284271,4.99999999 25.5,5 L10.5,5 C10.1021753,5 9.7206444,4.84196474 9.43933983,4.56066017 C9.15803526,4.2793556 9,3.89782473 9,3.5 Z M3.47,19.464 C4.40197788,18.5212463 5.67435837,17.9935508 7,18 C10.3123376,17.9966926 12.9966926,15.3123376 13,12 L13,7 L23,7 L23,12 C22.9960037,13.5925207 23.6268613,15.1209672 24.7529471,16.2470529 C25.8790328,17.3731387 27.4074793,18.0039963 29,18 C31.7600532,18.0033061 33.9966939,20.2399468 34,23 L34,28 L26.647,28 C24.914,24.419 21.691,22 18,22 C14.309,22 11.086,24.419 9.353,28 L1.99995098,28 L2,23 C1.99408312,21.6715186 2.52403101,20.3967596 3.47,19.464 Z M31,58 L5,58 C3.34314575,58 2,56.6568542 2,55 L2,50 L4,50 L4,54 C4,54.5522847 4.44771525,55 5,55 C5.55228475,55 6,54.5522847 6,54 L6,50 L34,50 L34,55 C34,56.6568542 32.6568542,58 31,58 Z M39,58 C37.064,58 36,57.249 36,57 C36,56.751 37.064,56 39,56 C40.936,56 42,56.751 42,57 C42,57.249 40.936,58 39,58 Z M47,58 C45.064,58 44,57.249 44,57 C44,56.751 45.064,56 47,56 C48.936,56 50,56.751 50,57 C50,57.249 48.936,58 47,58 Z M55,58 C53.064,58 52,57.249 52,57 C52,56.751 53.064,56 55,56 C56.936,56 58,56.751 58,57 C58,57.249 56.936,58 55,58 Z" id="Shape"/></g></g></svg>
