<?xml version="1.0" encoding="UTF-8"?>
<svg xmlns="http://www.w3.org/2000/svg" xmlns:xlink="http://www.w3.org/1999/xlink" width="512" height="512" viewBox="0 0 42 60" version="1.1"><!-- Generator: Sketch 51.3 (57544) - http://www.bohemiancoding.com/sketch --><title>018 - Draught Keg</title><desc>Created with Sketch.</desc><defs/><g id="Page-1" stroke="none" stroke-width="1" fill="none" fill-rule="evenodd"><g id="018---Draught-Keg" fill="#000000" fill-rule="nonzero"><path d="M35,33 C35,32.4477153 34.5522847,32 34,32 C33.4477153,32 33,32.4477153 33,33 C32.9928352,39.624447 27.624447,44.9928352 21,45 C19.4159405,45.0030621 17.847235,44.689593 16.386,44.078 C15.8765173,43.8648181 15.2906819,44.1050173 15.0775,44.6145 C14.8643181,45.1239827 15.1045173,45.7098181 15.614,45.923 C19.9350061,47.7239626 24.8702178,47.2460599 28.7653867,44.6494815 C32.6605556,42.0529032 35.0001672,37.6812989 35,33 Z" id="Shape"/><path d="M8,51 C7.51571536,50.9993729 7.04782177,51.1753663 6.684,51.495 L0.968,56.495 C0.34092342,57.0438208 0.119856439,57.9239439 0.413163252,58.7039442 C0.706470064,59.4839445 1.4526758,60.0003399 2.286,60 L39.714,60 C40.5447155,59.9975635 41.2874389,59.4818624 41.58,58.704365 C41.8725612,57.9268676 41.6540429,57.049465 41.031,56.5 L35.318,51.5 C34.9543916,51.1780989 34.4856247,51.0002662 34,51 L32,51 L32,48.463 C37.8357501,44.3286184 40.8488645,37.2624808 39.7922843,30.1890991 C38.7357041,23.1157174 33.7891937,17.2385417 27,14.99 C26.9944901,13.3370523 25.6529569,11.9999908 24,12 L24,9.236 L25.724,5.789 C26.3440693,4.54898765 26.2778199,3.07631744 25.5489144,1.89698995 C24.8200089,0.71766245 23.5324042,-0.000126182532 22.146,0 L19.854,0 C18.4675958,-0.000126182532 17.1799911,0.71766245 16.4510856,1.89698995 C15.7221801,3.07631744 15.6559307,4.54898765 16.276,5.789 L18,9.236 L18,12 C16.3470431,11.9999908 15.0055099,13.3370523 15,14.99 C8.21080634,17.2385417 3.2642959,23.1157174 2.20771572,30.1890991 C1.15113553,37.2624808 4.1642499,44.3286184 10,48.463 L10,51 L8,51 Z M34,53 L39.714,58 L2.285,58 L8,53 L10,53 L10,55 C10,55.5522847 10.4477153,56 11,56 L31,56 C31.5522847,56 32,55.5522847 32,55 L32,53 L34,53 Z M20,10 L22,10 L22,18 C22,18.5522847 21.5522847,19 21,19 C20.4477153,19 20,18.5522847 20,18 L20,10 Z M18.153,2.949 C18.5118564,2.35367852 19.1589231,1.99267545 19.854,2 L22.146,2 C22.8407216,1.99303115 23.4873253,2.35398811 23.846,2.949 C24.2129035,3.53786764 24.2462563,4.2754201 23.934,4.895 L22.382,8 L19.618,8 L18.065,4.895 C17.7527437,4.2754201 17.7860965,3.53786764 18.153,2.949 Z M18,14 L18,18 C18,19.6568542 19.3431458,21 21,21 C22.6568542,21 24,19.6568542 24,18 L24,14 C24.5522847,14 25,14.4477153 25,15 L25,23 C25,25.209139 23.209139,27 21,27 C18.790861,27 17,25.209139 17,23 L17,15 C17,14.4477153 17.4477153,14 18,14 Z M22.521,28.8 L22.121,32 L19.883,32 L19.483,28.8 C20.478625,29.0704677 21.528375,29.0704677 22.524,28.8 L22.521,28.8 Z M4,33 C4.02249431,25.9341727 8.39594602,19.612547 15,17.1 L15,20.364 C8.25079638,23.5615973 5.20328517,31.4966597 8.077,38.39 C8.21490452,38.7197561 8.51825635,38.9508922 8.87278581,38.9963414 C9.22731526,39.0417907 9.57916087,38.8946483 9.79578581,38.6103414 C10.0124107,38.3260346 10.0609045,37.9477561 9.923,37.618 C7.60253798,32.0527033 9.77644351,25.6298979 15,22.618 L15,23 C15.001633,24.8545192 15.862024,26.6037346 17.33,27.737 L17.896,32.237 C18.0159417,33.2420388 18.86783,33.9990343 19.88,34 L22.12,34 C23.127943,33.9975115 23.9765297,33.2453551 24.1,32.245 L24.667,27.737 C26.1361036,26.6043475 26.9976493,24.8550368 27,23 L27,22.621 C28.6837699,23.6001716 30.1082472,24.9687534 31.154,26.612 C31.4486439,27.0792329 32.0662671,27.2191439 32.5335,26.9245 C33.0007329,26.6298561 33.1406439,26.0122329 32.846,25.545 C31.4297112,23.2966869 29.4017872,21.4987516 27,20.362 L27,17.1 C35.0474262,20.1356247 39.5597611,28.7034955 37.5103481,37.056698 C35.4609351,45.4099006 27.495524,50.9164239 18.956928,49.882758 C10.418332,48.8490921 3.99697787,41.6009347 4,33 Z M21,52 C24.1424018,52.0030418 27.2358782,51.2217672 30,49.727 L30,54 L12,54 L12,49.727 C14.7641218,51.2217672 17.8575982,52.0030418 21,52 Z" id="Shape"/></g></g></svg>
