<?xml version="1.0" encoding="UTF-8"?>
<svg xmlns="http://www.w3.org/2000/svg" xmlns:xlink="http://www.w3.org/1999/xlink" width="512" height="512" viewBox="0 0 34 60" version="1.1"><!-- Generator: Sketch 51.3 (57544) - http://www.bohemiancoding.com/sketch --><title>019 - Demijohn</title><desc>Created with Sketch.</desc><defs/><g id="Page-1" stroke="none" stroke-width="1" fill="none" fill-rule="evenodd"><g id="019---Demijohn" fill="#000000" fill-rule="nonzero"><path d="M9.191,15.843 C6.98275183,16.6570312 5.01615104,18.0161426 3.474,19.794 L3.462,19.806 C1.23719221,22.3529929 0.00769611694,25.6181538 0,29 L0,50 C0,55.607 7.468,60 17,60 C26.532,60 34,55.607 34,50 L34,29 C33.9918944,25.6197895 32.7631815,22.3562429 30.54,19.81 L30.528,19.798 C28.985849,18.0201426 27.0192482,16.6610312 24.811,15.847 C24.0443673,15.5528571 23.5053475,14.8562559 23.4130309,14.0403371 C23.3207143,13.2244183 23.6904673,12.4249946 24.372,11.967 C26.1213159,11.8042735 27.558348,10.5164847 27.9111541,8.79540543 C28.2639603,7.07432613 27.4495096,5.32500313 25.905307,4.48713415 C24.3611044,3.64926518 22.4505697,3.92003823 21.2,5.154 L20.9,4.554 C20.8185858,4.39322506 20.695238,4.25743878 20.543,4.161 L21.176,2.895 C21.486674,2.27415545 21.4531668,1.5366119 21.0874779,0.946495063 C20.7217889,0.356378229 20.0762354,-0.00188688097 19.382,1.77635684e-15 L14.618,1.77635684e-15 C13.9232116,-0.00102272336 13.2776746,0.358613389 12.9128891,0.949936946 C12.5481037,1.5412605 12.5163441,2.27953382 12.829,2.9 L13.462,4.165 C13.309762,4.26143878 13.1864142,4.39722506 13.105,4.558 L12.805,5.158 C11.554586,3.91686581 9.63840466,3.6421902 8.08968537,4.48208174 C6.54096608,5.32197328 5.72595897,7.07780955 6.08412624,8.80282127 C6.44229352,10.527833 7.88893371,11.8140794 9.644,11.968 C10.3242167,12.4283682 10.6913351,13.229319 10.5960619,14.0451356 C10.5007887,14.8609522 9.95899186,15.5557574 9.191,15.847 L9.191,15.843 Z M32,50 C32,54.336 25.131,58 17,58 C8.869,58 2,54.336 2,50 L2,29 C2.00564457,26.3512287 2.88707058,23.7786742 4.507,21.683 C7.175,23.124 11.823,24 17,24 C22.177,24 26.825,23.124 29.493,21.683 C31.1129294,23.7786742 31.9943554,26.3512287 32,29 L32,50 Z M17,2 L19.382,2 L18.382,4 L15.618,4 L14.618,2 L17,2 Z M12.586,14.2 C12.7606218,12.6053508 12.0021148,11.0525323 10.637,10.21 C10.528,10.143 10.464,10.11 10.464,10.11 C10.464,10.11 10.439,10.11 10.427,10.1 C10.3517442,10.0684436 10.2727754,10.0466012 10.192,10.035 C10.1494049,10.0229817 10.105941,10.014289 10.062,10.009 C10.04,10.009 10.022,9.996 10,9.996 C8.8954305,9.996 8,9.1005695 8,7.996 C8,6.8914305 8.8954305,5.996 10,5.996 C11.1045695,5.996 12,6.8914305 12,7.996 C12,8.54828475 12.4477153,8.996 13,8.996 C13.5522847,8.996 14,8.54828475 14,7.996 C13.9955333,7.78297145 13.9741325,7.57063546 13.936,7.361 L14.618,6 L19.382,6 L20.064,7.365 C20.0258675,7.57463546 20.0044667,7.78697145 20,8 C20,8.55228475 20.4477153,9 21,9 C21.5522847,9 22,8.55228475 22,8 C22,6.8954305 22.8954305,6 24,6 C25.1045695,6 26,6.8954305 26,8 C26,9.1045695 25.1045695,10 24,10 C23.982,10 23.967,10.009 23.949,10.01 C23.8970282,10.0168597 23.8455781,10.0272165 23.795,10.041 C23.7188418,10.0534752 23.6443587,10.0746123 23.573,10.104 C23.561,10.109 23.548,10.104 23.536,10.114 C23.524,10.124 23.472,10.147 23.363,10.214 C22.0082579,11.0652453 21.2529623,12.6107058 21.4136991,14.2025942 C21.5744359,15.7944825 22.6234338,17.1577592 24.121,17.721 C25.5941517,18.2620778 26.9462416,19.0881472 28.1,20.152 C25.679,21.291 21.527,22 17,22 C12.473,22 8.321,21.291 5.9,20.152 C7.05346293,19.0882588 8.40520335,18.2621952 9.878,17.721 C11.3852207,17.1692332 12.4395676,15.7983486 12.586,14.2 Z" id="Shape"/><path d="M15,13 L19,13 C19.5522847,13 20,12.5522847 20,12 C20,11.4477153 19.5522847,11 19,11 L15,11 C14.4477153,11 14,11.4477153 14,12 C14,12.5522847 14.4477153,13 15,13 Z" id="Shape"/><path d="M4.81,51.019 C4.74376529,51.0282708 4.67954668,51.0485504 4.62,51.079 C4.55602704,51.101043 4.49518553,51.1312956 4.439,51.169 C4.38712017,51.2061714 4.33737476,51.2462348 4.29,51.289 C3.90183164,51.6803645 3.90355823,52.3120375 4.29386027,52.7012742 C4.6841623,53.0905108 5.3158377,53.0905108 5.70613973,52.7012742 C6.09644177,52.3120375 6.09816836,51.6803645 5.71,51.289 C5.47359625,51.0548837 5.13623595,50.9536756 4.81,51.019 Z" id="Shape"/><path d="M8.81,53.02 C8.74376529,53.0292708 8.67954668,53.0495504 8.62,53.08 C8.55602704,53.102043 8.49518553,53.1322956 8.439,53.17 C8.38712017,53.2071714 8.33737476,53.2472348 8.29,53.29 C7.90183164,53.6813645 7.90355823,54.3130375 8.29386027,54.7022742 C8.6841623,55.0915108 9.3158377,55.0915108 9.70613973,54.7022742 C10.0964418,54.3130375 10.0981684,53.6813645 9.71,53.29 C9.47359625,53.0558837 9.13623595,52.9546756 8.81,53.02 Z" id="Shape"/><path d="M29.38,51.079 C29.3204533,51.0485504 29.2562347,51.0282708 29.19,51.019 C28.863764,50.9536756 28.5264038,51.0548837 28.29,51.289 C27.9018316,51.6803645 27.9035582,52.3120375 28.2938603,52.7012742 C28.6841623,53.0905108 29.3158377,53.0905108 29.7061397,52.7012742 C30.0964418,52.3120375 30.0981684,51.6803645 29.71,51.289 C29.6626252,51.2462348 29.6128798,51.2061714 29.561,51.169 C29.5048145,51.1312956 29.443973,51.101043 29.38,51.079 Z" id="Shape"/><path d="M25.561,53.17 C25.5048145,53.1322956 25.443973,53.102043 25.38,53.08 C25.3204533,53.0495504 25.2562347,53.0292708 25.19,53.02 C24.863764,52.9546756 24.5264038,53.0558837 24.29,53.29 C23.9018316,53.6813645 23.9035582,54.3130375 24.2938603,54.7022742 C24.6841623,55.0915108 25.3158377,55.0915108 25.7061397,54.7022742 C26.0964418,54.3130375 26.0981684,53.6813645 25.71,53.29 C25.6626252,53.2472348 25.6128798,53.2071714 25.561,53.17 Z" id="Shape"/><path d="M13.81,54.02 C13.7437653,54.0292708 13.6795467,54.0495504 13.62,54.08 C13.556027,54.102043 13.4951855,54.1322956 13.439,54.17 C13.3871202,54.2071714 13.3373748,54.2472348 13.29,54.29 C12.9018316,54.6813645 12.9035582,55.3130375 13.2938603,55.7022742 C13.6841623,56.0915108 14.3158377,56.0915108 14.7061397,55.7022742 C15.0964418,55.3130375 15.0981684,54.6813645 14.71,54.29 C14.4735962,54.0558837 14.136236,53.9546756 13.81,54.02 Z" id="Shape"/><path d="M19.81,54.02 C19.7437653,54.0292708 19.6795467,54.0495504 19.62,54.08 C19.556027,54.102043 19.4951855,54.1322956 19.439,54.17 C19.3871202,54.2071714 19.3373748,54.2472348 19.29,54.29 C18.9018316,54.6813645 18.9035582,55.3130375 19.2938603,55.7022742 C19.6841623,56.0915108 20.3158377,56.0915108 20.7061397,55.7022742 C21.0964418,55.3130375 21.0981684,54.6813645 20.71,54.29 C20.4735962,54.0558837 20.136236,53.9546756 19.81,54.02 Z" id="Shape"/><path d="M5.293,25.293 C4.989,25.6 4,26.976 4,32 C4,32.5522847 4.44771525,33 5,33 C5.55228475,33 6,32.5522847 6,32 C6,27.923 6.69,26.755 6.757,26.653 C7.10486117,26.2453555 7.06954474,25.6359563 6.67692219,25.2712249 C6.28429963,24.9064936 5.67395345,24.916097 5.293,25.293 Z" id="Shape"/><path d="M5,35 C4.44771525,35 4,35.4477153 4,36 L4,37 C4,37.5522847 4.44771525,38 5,38 C5.55228475,38 6,37.5522847 6,37 L6,36 C6,35.4477153 5.55228475,35 5,35 Z" id="Shape"/></g></g></svg>
