<?xml version="1.0" encoding="UTF-8"?>
<svg xmlns="http://www.w3.org/2000/svg" xmlns:xlink="http://www.w3.org/1999/xlink" width="512" height="512" viewBox="0 0 50 60" version="1.1"><!-- Generator: Sketch 51.3 (57544) - http://www.bohemiancoding.com/sketch --><title>020 - Blender</title><desc>Created with Sketch.</desc><defs/><g id="Page-1" stroke="none" stroke-width="1" fill="none" fill-rule="evenodd"><g id="020---Blender" fill="#000000" fill-rule="nonzero"><path d="M46,2 C46,0.8954305 45.1045695,6.76353751e-17 44,0 L6,0 C4.8954305,-6.76353751e-17 4,0.8954305 4,2 C4.00681482,3.81841162 5.23931486,5.40340667 7,5.858 L7,8 L6,8 C5.44771525,8 5,8.44771525 5,9 C5,9.55228475 5.44771525,10 6,10 L7,10 L7,12.142 C5.59734415,12.5071495 4.50269891,13.6037085 4.14,15.007 C3.04481798,15.0223438 2.00409935,15.4872226 1.26183844,16.2926466 C0.519577532,17.0980706 0.141049695,18.1732098 0.215,19.266 L1.69,41.4 C1.90869058,44.5480886 4.52233381,46.9923775 7.678,47 L8.124,47 L8.872,57.209 C8.98697825,58.778546 10.2912568,59.9947978 11.865,60 L38.135,60 C39.7076688,59.9953619 41.0114996,58.7804287 41.127,57.212 L41.876,47 L42.528,47 C45.6840527,46.9933534 48.2982572,44.5485395 48.516,41.4 L49.991,19.267 C50.0649073,18.162244 49.6775863,17.0762728 48.9212491,16.2676306 C48.1649119,15.4589884 47.1072255,15.0000218 46,15 L45.858,15 C45.4921096,13.6006855 44.3993145,12.5078904 43,12.142 L43,10 L44,10 C44.5522847,10 45,9.55228475 45,9 C45,8.44771525 44.5522847,8 44,8 L43,8 L43,5.858 C44.7606851,5.40340667 45.9931852,3.81841162 46,2 Z M6,2 L44,2 C44,3.1045695 43.1045695,4 42,4 L8,4 C6.8954305,4 6,3.1045695 6,2 Z M7.678,45 C5.5741107,44.9950203 3.83180086,43.3649063 3.687,41.266 L2.211,19.133 C2.13506499,18.0600608 2.92918306,17.1225665 4,17.021 C4.01151241,18.1173598 4.90357981,19.0000604 6,19 L6.071,19 L7.977,45 L7.678,45 Z M39.132,57.069 C39.0956782,57.5941705 38.6584236,58.0012545 38.132,58 L11.865,58 C11.3374957,58.0011501 10.8998141,57.5923555 10.865,57.066 L8.076,19 L41.924,19 L39.132,57.069 Z M47.46,17.633 C47.8403088,18.036148 48.0343452,18.5801754 47.995,19.133 L46.52,41.266 C46.3751715,43.3652895 44.6322746,44.9955442 42.528,45 L42.022,45 L43.929,19 L44,19 C45.1045695,19 46,18.1045695 46,17 C46.5537734,16.9975447 47.083268,17.2271133 47.46,17.633 Z M44,16 L44,17 L6,17 L6,16 C6,14.8954305 6.8954305,14 8,14 L42,14 C43.1045695,14 44,14.8954305 44,16 Z M14,10 L41,10 L41,12 L9,12 L9,10 L10,10 C10.5522847,10 11,9.55228475 11,9 C11,8.44771525 10.5522847,8 10,8 L9,8 L9,6 L41,6 L41,8 L14,8 C13.4477153,8 13,8.44771525 13,9 C13,9.55228475 13.4477153,10 14,10 Z" id="Shape"/><path d="M20,26 C20.5522847,26 21,25.5522847 21,25 C21,24.4477153 20.5522847,24 20,24 L18,24 L18,22 C18,21.4477153 17.5522847,21 17,21 C16.4477153,21 16,21.4477153 16,22 L16,55 C16,55.5522847 16.4477153,56 17,56 L20,56 C20.5522847,56 21,55.5522847 21,55 C21,54.4477153 20.5522847,54 20,54 L18,54 L18,51 L20,51 C20.5522847,51 21,50.5522847 21,50 C21,49.4477153 20.5522847,49 20,49 L18,49 L18,46 L20,46 C20.5522847,46 21,45.5522847 21,45 C21,44.4477153 20.5522847,44 20,44 L18,44 L18,41 L20,41 C20.5522847,41 21,40.5522847 21,40 C21,39.4477153 20.5522847,39 20,39 L18,39 L18,36 L20,36 C20.5522847,36 21,35.5522847 21,35 C21,34.4477153 20.5522847,34 20,34 L18,34 L18,31 L20,31 C20.5522847,31 21,30.5522847 21,30 C21,29.4477153 20.5522847,29 20,29 L18,29 L18,26 L20,26 Z" id="Shape"/><path d="M23.29,24.29 C23.1053643,24.4803964 23.0014591,24.734785 23,25 C23.00158,25.1306773 23.028759,25.2597777 23.08,25.38 C23.128323,25.5023813 23.1996032,25.6143929 23.29,25.71 C23.4816338,25.8927337 23.735233,25.9963165 24,26 C24.0634297,25.9983406 24.1266278,25.991653 24.189,25.98 C24.2555406,25.9706735 24.3200792,25.9503996 24.38,25.92 C24.4413713,25.8998831 24.4988621,25.8694467 24.55,25.83 C24.6072094,25.7954472 24.6608107,25.7552462 24.71,25.71 C25.1021221,25.3178778 25.1021221,24.6821222 24.71,24.29 C24.3178778,23.8978779 23.6821222,23.8978779 23.29,24.29 Z" id="Shape"/><path d="M24.55,29.17 C24.4988621,29.1305533 24.4413713,29.1001169 24.38,29.08 C24.3200792,29.0496004 24.2555406,29.0293265 24.189,29.02 C23.7217118,28.9174511 23.2498322,29.1727511 23.08,29.62 C23.028759,29.7402223 23.00158,29.8693227 23,30 C22.9972989,30.2660353 23.1017882,30.5219616 23.2899133,30.7100867 C23.4780384,30.8982118 23.7339647,31.0027011 24,31 C24.4062651,31.0023626 24.77358,30.7586962 24.929371,30.3834815 C25.0851619,30.0082668 24.9984599,29.5760905 24.71,29.29 C24.6608107,29.2447538 24.6072094,29.2045528 24.55,29.17 Z" id="Shape"/><path d="M23.29,34.29 C23.107012,34.481469 23.0033865,34.7351726 23,35 C23.00158,35.1306773 23.028759,35.2597777 23.08,35.38 C23.1258964,35.5036026 23.197469,35.616074 23.29,35.71 C23.4816338,35.8927337 23.735233,35.9963165 24,36 C24.0634297,35.9983406 24.1266278,35.991653 24.189,35.98 C24.2555406,35.9706735 24.3200792,35.9503996 24.38,35.92 C24.4413713,35.8998831 24.4988621,35.8694467 24.55,35.83 C24.6072094,35.7954472 24.6608107,35.7552462 24.71,35.71 C25.1021221,35.3178778 25.1021221,34.6821222 24.71,34.29 C24.3178778,33.8978779 23.6821222,33.8978779 23.29,34.29 Z" id="Shape"/><path d="M24.71,39.29 C24.66,39.25 24.61,39.21 24.55,39.17 C24.4988621,39.1305533 24.4413713,39.1001169 24.38,39.08 C24.3200792,39.0496004 24.2555406,39.0293265 24.189,39.02 C23.8629859,38.9590955 23.5276515,39.0596958 23.289,39.29 C23.2007473,39.3872607 23.1297291,39.4988607 23.079,39.62 C22.9723951,39.8621183 22.9723951,40.1378817 23.079,40.38 C23.1297291,40.5011393 23.2007473,40.6127393 23.289,40.71 C23.4808858,40.8929671 23.7348862,40.9965679 24,41 C24.0634297,40.9983406 24.1266278,40.991653 24.189,40.98 C24.2555406,40.9706735 24.3200792,40.9503996 24.38,40.92 C24.4413713,40.8998831 24.4988621,40.8694467 24.55,40.83 C24.609,40.79 24.66,40.75 24.71,40.71 C24.7982527,40.6127393 24.8692709,40.5011393 24.92,40.38 C25.0267285,40.1379078 25.0267285,39.8620922 24.92,39.62 C24.8692709,39.4988607 24.7982527,39.3872607 24.71,39.29 Z" id="Shape"/><path d="M23.29,44.29 C23.2017473,44.3872607 23.1307291,44.4988607 23.08,44.62 C23.028759,44.7402223 23.00158,44.8693227 23,45 C22.9972989,45.2660353 23.1017882,45.5219616 23.2899133,45.7100867 C23.4780384,45.8982118 23.7339647,46.0027011 24,46 C24.2647269,45.9961196 24.518257,45.892565 24.71,45.71 L24.83,45.56 C24.8674572,45.5040276 24.8976964,45.4435492 24.92,45.38 C24.9490735,45.3235025 24.9689883,45.2627455 24.979,45.2 C24.9914296,45.1340157 24.9984529,45.067127 25,45 C25.0023626,44.5937349 24.7586962,44.22642 24.3834815,44.070629 C24.0082668,43.9148381 23.5760905,44.0015401 23.29,44.29 Z" id="Shape"/><path d="M23.29,49.29 C23.1996032,49.3856071 23.128323,49.4976187 23.08,49.62 C23.028759,49.7402223 23.00158,49.8693227 23,50 C22.9972989,50.2660353 23.1017882,50.5219616 23.2899133,50.7100867 C23.4780384,50.8982118 23.7339647,51.0027011 24,51 C24.0634297,50.9983406 24.1266278,50.991653 24.189,50.98 C24.2555406,50.9706735 24.3200792,50.9503996 24.38,50.92 C24.4413713,50.8998831 24.4988621,50.8694467 24.55,50.83 C24.609,50.79 24.66,50.75 24.71,50.71 C25.1021222,50.3178778 25.1021222,49.6821222 24.71,49.29 C24.3178778,48.8978778 23.6821222,48.8978778 23.29,49.29 Z" id="Shape"/><path d="M23.29,54.29 C23.107012,54.481469 23.0033865,54.7351726 23,55 C22.9972989,55.2660353 23.1017882,55.5219616 23.2899133,55.7100867 C23.4780384,55.8982118 23.7339647,56.0027011 24,56 C24.4513667,55.9973751 24.8450221,55.6927033 24.9607551,55.2564182 C25.076488,54.820133 24.8856053,54.3604013 24.4948867,54.1343972 C24.1041682,53.9083931 23.6104834,53.9721491 23.29,54.29 Z" id="Shape"/></g></g></svg>
