<?xml version="1.0" encoding="UTF-8"?>
<svg xmlns="http://www.w3.org/2000/svg" xmlns:xlink="http://www.w3.org/1999/xlink" width="512" height="512" viewBox="0 0 36 60" version="1.1"><!-- Generator: Sketch 51.3 (57544) - http://www.bohemiancoding.com/sketch --><title>022 - Timer</title><desc>Created with Sketch.</desc><defs/><g id="Page-1" stroke="none" stroke-width="1" fill="none" fill-rule="evenodd"><g id="022---Timer" fill="#000000" fill-rule="nonzero"><path d="M21.938,24.448 L21.08,2.964 C21.0133992,1.31148199 19.6543596,0.00611184472 18.0005,0.00611184472 C16.3466404,0.00611184472 14.9876008,1.31148199 14.921,2.964 L14.062,24.452 C8.53548744,25.6829421 3.91259155,29.4470485 1.58715959,34.6094051 C-0.738272364,39.7717618 -0.494120896,45.7282753 2.246,50.683 L1.858,51.071 C1.07723612,51.8519997 1.07723612,53.1180003 1.858,53.899 L6.1,58.142 C6.8809997,58.9227639 8.1470003,58.9227639 8.928,58.142 L9.316,57.754 C15.4795125,61.1558188 23.0609518,60.649884 28.7177948,56.4592535 C34.3746379,52.2686229 37.0672983,45.1634296 35.6086297,38.2762282 C34.149961,31.3890268 28.80803,25.9855127 21.938,24.448 Z M16.919,3.036 C16.9439082,2.45705175 17.4205162,2.00050806 18,2.00050806 C18.5794838,2.00050806 19.0560918,2.45705175 19.081,3.036 L19.923,24.102 C18.6448935,23.9606987 17.3551065,23.9606987 16.077,24.102 L16.919,3.036 Z M3.272,52.485 L10.757,45 L15,45 L15,49.243 L7.515,56.728 L3.272,52.485 Z M6,42 C6,35.372583 11.372583,30 18,30 C24.627417,30 30,35.372583 30,42 C30,48.627417 24.627417,54 18,54 C16.5733334,54.0048836 15.1576589,53.7504146 13.822,53.249 L16.707,50.364 C16.8945494,50.1765073 16.9999434,49.9221948 17,49.657 L17,44 C17,43.4477153 16.5522847,43 16,43 L10.343,43 C10.0778052,43.0000566 9.82349273,43.1054506 9.636,43.293 L6.751,46.178 C6.24958544,44.8423411 5.99511643,43.4266666 6,42 Z M18,58 C15.4955754,58.0016014 13.0261907,57.4115805 10.793,56.278 L12.311,54.76 C18.5147988,57.550484 25.8264559,55.5109238 29.6901051,49.9121619 C33.5537543,44.3134 32.8663859,36.7537929 28.0562965,31.9437035 C23.2462071,27.1336141 15.6866,26.4462457 10.0878381,30.3098949 C4.48907616,34.1735441 2.44951605,41.4852012 5.24,47.689 L3.722,49.207 C0.497475559,42.8156985 1.91076566,35.0602721 7.18254393,30.2172724 C12.4543222,25.3742727 20.3015328,24.6223986 26.3970117,28.3762539 C32.4924906,32.1301092 35.352708,39.4760731 33.4004627,46.3633825 C31.4482175,53.2506919 25.1586509,58.0030998 18,58 Z" id="Shape"/><path d="M17.29,33.71 C17.3872607,33.7982527 17.4988607,33.8692709 17.62,33.92 C17.7386555,33.9760524 17.8688167,34.0034547 18,34 C18.2660353,34.0027011 18.5219616,33.8982118 18.7100867,33.7100867 C18.8982118,33.5219616 19.0027011,33.2660353 19,33 C19.0034547,32.8688167 18.9760524,32.7386555 18.92,32.62 C18.8290762,32.3687697 18.6312303,32.1709238 18.38,32.08 C18.1365386,31.979982 17.8634614,31.979982 17.62,32.08 C17.3687697,32.1709238 17.1709238,32.3687697 17.08,32.62 C16.9733951,32.8621183 16.9733951,33.1378817 17.08,33.38 C17.1307291,33.5011393 17.2017473,33.6127393 17.29,33.71 Z" id="Shape"/><path d="M12.893,34.995 C12.9975701,35.0745674 13.1149093,35.1357732 13.24,35.176 C13.3684593,35.2035417 13.5006351,35.2092885 13.631,35.193 C13.7617701,35.1820787 13.8881552,35.1406354 14,35.072 C14.2317326,34.9413172 14.4011162,34.7228664 14.4699695,34.4658893 C14.5388228,34.2089123 14.5013507,33.9350375 14.366,33.706 C14.3036276,33.5903429 14.2149005,33.4909958 14.107,33.416 C14.0021353,33.337141 13.8848625,33.2763078 13.76,33.236 C13.631603,33.2079754 13.4993448,33.202225 13.369,33.219 C13.1078511,33.2539068 12.8710297,33.3904655 12.71,33.599 C12.5377081,33.8034403 12.4645102,34.0735403 12.51,34.337 C12.5390241,34.5998399 12.676849,34.8384947 12.89,34.995 L12.893,34.995 Z" id="Shape"/><path d="M21.89,50.579 C22.094045,50.7520453 22.3645011,50.8253396 22.628,50.779 C22.7590844,50.7680856 22.8857959,50.7266475 22.998,50.658 C23.2293159,50.5269248 23.3983347,50.3084814 23.467144,50.0516682 C23.5359534,49.794855 23.4987937,49.5211689 23.364,49.292 C23.3001533,49.1752843 23.2097109,49.0752495 23.1,49 C22.9954299,48.9204326 22.8780907,48.8592268 22.753,48.819 C22.6246056,48.7909556 22.492344,48.7852051 22.362,48.802 C22.101212,48.8371574 21.8647921,48.9736917 21.704,49.182 C21.5323273,49.3867641 21.4592082,49.6565735 21.504,49.92 C21.5340856,50.1824907 21.6716821,50.4207499 21.884,50.578 L21.89,50.579 Z" id="Shape"/><path d="M10.075,38.487 C10.2053448,38.503775 10.337603,38.4980246 10.466,38.47 C10.5906877,38.429545 10.707661,38.3683537 10.812,38.289 C10.9201465,38.2144067 11.0092153,38.1154033 11.072,38 C11.2073507,37.7709625 11.2448228,37.4970877 11.1759695,37.2401107 C11.1071162,36.9831336 10.9377326,36.7646828 10.706,36.634 C10.5937959,36.5653525 10.4670844,36.5239144 10.336,36.513 C10.0728253,36.466971 9.80280367,36.5402468 9.599,36.713 C9.39069172,36.8737921 9.25415744,37.110212 9.219,37.371 C9.17351021,37.6344597 9.24670806,37.9045597 9.419,38.109 C9.57615056,38.3219255 9.81499401,38.4596501 10.078,38.489 L10.075,38.487 Z" id="Shape"/><path d="M25,47.1 C25.0789573,47.2045921 25.1774404,47.2928873 25.29,47.36 C25.4039117,47.4240577 25.5292751,47.465166 25.659,47.481 C25.7894028,47.4974268 25.921658,47.4913384 26.05,47.463 C26.1746435,47.4229046 26.2916214,47.362049 26.396,47.283 C26.5041715,47.208435 26.5932462,47.1094251 26.656,46.994 C26.7913507,46.7649625 26.8288228,46.4910877 26.7599695,46.2341107 C26.6911162,45.9771336 26.5217326,45.7586828 26.29,45.628 C26.1783473,45.5589506 26.0518604,45.5174739 25.921,45.507 C25.790656,45.4902051 25.6583944,45.4959556 25.53,45.524 C25.4047859,45.5634613 25.2873752,45.624366 25.183,45.704 C24.9744655,45.8650297 24.8379068,46.1018511 24.803,46.363 C24.786221,46.4930113 24.7919718,46.6249418 24.82,46.753 C24.8598845,46.8780387 24.9207531,46.9953798 25,47.1 Z" id="Shape"/><path d="M26.285,41.29 C26.1967473,41.3872607 26.1257291,41.4988607 26.075,41.62 C25.974982,41.8634614 25.974982,42.1365386 26.075,42.38 C26.1659238,42.6312303 26.3637697,42.8290762 26.615,42.92 C26.8571183,43.0266049 27.1328817,43.0266049 27.375,42.92 C27.6262303,42.8290762 27.8240762,42.6312303 27.915,42.38 C27.9710524,42.2613445 27.9984547,42.1311833 27.995,42 C27.9977011,41.7339647 27.8932118,41.4780384 27.7050867,41.2899133 C27.5169616,41.1017882 27.2610353,40.9972989 26.995,41 C26.8638167,40.9965453 26.7336555,41.0239476 26.615,41.08 C26.4938607,41.1307291 26.3822607,41.2017473 26.285,41.29 Z" id="Shape"/><path d="M25.53,38.472 C25.658342,38.5003384 25.7905972,38.5064268 25.921,38.49 C26.1834907,38.4599144 26.4217499,38.3223179 26.579,38.11 C26.7520453,37.905955 26.8253396,37.6354989 26.779,37.372 C26.7680856,37.2409156 26.7266475,37.1142041 26.658,37.002 C26.5269248,36.7706841 26.3084814,36.6016653 26.0516682,36.532856 C25.794855,36.4640466 25.5211689,36.5012063 25.292,36.636 C25.1752843,36.6998467 25.0752495,36.7902891 25,36.9 C24.9204326,37.0045701 24.8592268,37.1219093 24.819,37.247 C24.7909358,37.3753918 24.7851852,37.5076569 24.802,37.638 C24.8378813,37.8985404 24.9742679,38.1347047 25.182,38.296 C25.2872062,38.3739342 25.4048774,38.433446 25.53,38.472 Z" id="Shape"/><path d="M21.708,34.817 C21.8696765,35.024793 22.1061689,35.161162 22.367,35.197 C22.4970113,35.213779 22.6289418,35.2080282 22.757,35.18 C22.8806363,35.1397016 22.9965944,35.078849 23.1,35 C23.2045921,34.9210427 23.2928873,34.8225596 23.36,34.71 C23.4240577,34.5960883 23.465166,34.4707249 23.481,34.341 C23.4974268,34.2105972 23.4913384,34.078342 23.463,33.95 C23.4229046,33.8253565 23.362049,33.7083786 23.283,33.604 C23.208435,33.4958285 23.1094251,33.4067538 22.994,33.344 C22.7649625,33.2086493 22.4910877,33.1711772 22.2341107,33.2400305 C21.9771336,33.3088838 21.7586828,33.4782674 21.628,33.71 C21.5589506,33.8216527 21.5174739,33.9481396 21.507,34.079 C21.4615102,34.3424597 21.5347081,34.6125597 21.707,34.817 L21.708,34.817 Z" id="Shape"/><path d="M18,42 C18.5522847,42 19,41.5522847 19,41 L19,37 C19,36.4477153 18.5522847,36 18,36 C17.4477153,36 17,36.4477153 17,37 L17,41 C17,41.5522847 17.4477153,42 18,42 Z" id="Shape"/></g></g></svg>
