<?xml version="1.0" encoding="UTF-8"?>
<svg xmlns="http://www.w3.org/2000/svg" xmlns:xlink="http://www.w3.org/1999/xlink" width="512" height="512" viewBox="0 0 60 60" version="1.1"><!-- Generator: Sketch 51.3 (57544) - http://www.bohemiancoding.com/sketch --><title>023 - Valve</title><desc>Created with Sketch.</desc><defs/><g id="Page-1" stroke="none" stroke-width="1" fill="none" fill-rule="evenodd"><g id="023---Valve" fill="#000000" fill-rule="nonzero"><path d="M38.1,18.844 C36.0145046,15.8042412 32.0071544,14.7673057 28.709,16.414 C27.0053264,17.2918321 25.7229008,18.8138488 25.1467797,20.6417376 C24.5706586,22.4696264 24.7485815,24.4519215 25.641,26.148 C24.9085286,26.8863628 24.4199253,27.8314612 24.241,28.856 C24.1966108,29.107422 24.170874,29.3617822 24.164,29.617 C23.7383786,29.4749564 23.2959115,29.3895562 22.848,29.363 L23.03,23.746 C23.0513184,23.0828852 22.8557617,22.4309125 22.473,21.889 L19.473,17.633 L19.789,17.413 C20.4593297,16.9483328 20.7856533,16.127006 20.617,15.329 L19.46,9.829 C19.3955907,9.53425333 19.2657199,9.25776516 19.08,9.02 C19.7261658,8.33013909 19.7972441,7.28068947 19.25,6.51 L16.173,2.141 C14.5725657,-0.116674875 11.4523626,-0.664071103 9.179,0.914 L2.146,5.814 C1.05533504,6.57056833 0.311605602,7.73102706 0.0797586618,9.03800552 C-0.152088279,10.344984 0.147111354,11.6904495 0.911,12.776 L3.989,17.145 C4.36617103,17.6792124 4.98006067,17.9960466 5.634,17.994 C5.8987849,17.9874491 6.15957777,17.9279462 6.401,17.819 C6.56401346,18.0838564 6.78615021,18.3073622 7.05,18.472 L11.857,21.435 C12.5498561,21.8618451 13.429804,21.8375003 14.098,21.373 L14.423,21.146 L16.836,24.571 L16.583,32.344 L16.143,32.65 C15.0232566,33.4273019 14.2597696,34.6190957 14.0217489,35.9612469 C13.7837283,37.3033981 14.0908329,38.6850535 14.875,39.8 L25.61,55.04 C27.0427266,57.0579575 29.7016888,57.7823676 31.96,56.77 C35.0931047,60.3836178 40.4457087,61.0557652 44.375,58.329 C48.2935208,55.6069936 49.4981005,50.3507643 47.156,46.194 C47.7259037,45.6158784 48.1487439,44.9094301 48.389,44.134 L54.399,52.665 C55.3799755,54.0481804 57.2917422,54.3836093 58.685,53.417 C59.3547434,52.95238 59.8112743,52.2395985 59.9532202,51.4369284 C60.0951661,50.6342583 59.9107783,49.8081354 59.441,49.142 L38.1,18.844 Z M5.624,15.993 L2.545,11.624 C2.08633426,10.9731593 1.90680009,10.166004 2.04633926,9.38210555 C2.18587844,8.59820713 2.6329169,7.90258596 3.288,7.45 L10.321,2.556 C11.6910534,1.60423579 13.5719774,1.9329626 14.538,3.293 L17.616,7.657 L5.624,15.993 Z M12.907,19.732 L8.1,16.717 L17.5,10.237 L18.657,15.737 C18.6590604,15.748943 18.6534769,15.7609078 18.643,15.767 L12.907,19.732 Z M57.542,51.776 C57.0521074,52.1159947 56.379879,51.998756 56.034,51.513 L47.691,39.67 L47.686,39.663 L36.951,24.426 L34.565,21.041 C33.5850807,19.6575739 31.673502,19.3220214 30.281,20.289 C29.6122001,20.7543304 29.1563535,21.4669453 29.01429,22.2692193 C28.8722265,23.0714933 29.0556541,23.8973083 29.524,24.564 C29.842116,25.0154928 30.4660072,25.123616 30.9175,24.8055 C31.3689928,24.487384 31.477116,23.8634928 31.159,23.412 C30.9971049,23.180588 30.9339534,22.8942634 30.9834835,22.6162197 C31.0330136,22.338176 31.1911532,22.0912717 31.423,21.93 C31.9128926,21.5900053 32.585121,21.707244 32.931,22.193 L35.315,25.577 L46.051,40.815 C46.5300568,41.4946733 46.7175785,42.3376295 46.5718379,43.1562936 C46.4260973,43.9749577 45.9591855,44.70141 45.275,45.174 C45.0555989,45.3261483 44.9061519,45.5597162 44.8599451,45.8226818 C44.8137383,46.0856473 44.8746091,46.3561711 45.029,46.574 C46.137245,48.1525652 46.5704074,50.1078322 46.2325532,52.0067607 C45.8946989,53.9056893 44.8137111,55.5915611 43.229,56.691 C39.914569,58.9937626 35.3638107,58.1969337 33.029,54.905 C32.7119274,54.4554601 32.0912995,54.3464369 31.64,54.661 C30.2095996,55.6519638 28.2482353,55.3082793 27.24,53.89 L16.51,38.651 C16.0309432,37.9713267 15.8434215,37.1283705 15.9891621,36.3097064 C16.1349027,35.4910423 16.6018145,34.76459 17.286,34.292 L18.137,33.699 C18.396042,33.5186079 18.5547016,33.2264965 18.565,32.911 L18.846,24.301 C18.8531795,24.0836089 18.7892839,23.8698044 18.664,23.692 L16.065,20 L17.83,18.772 L20.835,23.038 C20.9677735,23.2259087 21.0355427,23.45204 21.028,23.682 L20.811,30.382 C20.8012985,30.6821792 20.9270273,30.9708237 21.153437,31.1681568 C21.3798466,31.3654899 21.6829595,31.4506132 21.979,31.4 C23.1822307,31.1834421 24.4013503,31.6877303 25.1,32.691 L35.83,47.927 C36.3094751,48.6066223 36.4973437,49.4497285 36.3517826,50.2686271 C36.2062215,51.0875256 35.739313,51.8142437 35.055,52.287 C34.8355989,52.4391483 34.6861519,52.6727162 34.6399451,52.9356818 C34.5937383,53.1986473 34.6546091,53.4691711 34.809,53.687 C36.4525041,56.0047246 39.6560521,56.5663827 41.99,54.946 C43.1113273,54.1692015 43.8759173,52.9766807 44.1138362,51.633481 C44.3517551,50.2902813 44.0432905,48.9076919 43.257,47.793 C42.9402966,47.3437456 42.320371,47.2343207 41.869,47.548 C40.4386073,48.53803 38.4781705,48.1949535 37.469,46.778 L26.73,31.539 C26.2508921,30.8591677 26.0633447,30.0160558 26.2090808,29.1972291 C26.354817,28.3784023 26.8217491,27.6517758 27.506,27.179 C27.7254011,27.0268517 27.8748481,26.7932838 27.9210549,26.5303182 C27.9672617,26.2673527 27.9063909,25.9968289 27.752,25.779 C26.8876462,24.5511566 26.59803,23.0089002 26.9580602,21.551133 C27.3180903,20.0933658 28.2924053,18.8632671 29.629,18.179 C32.0413287,16.9957575 34.9567816,17.7729555 36.46,20 L57.806,50.3 C57.9692148,50.529415 58.0333566,50.8148101 57.984,51.092 C57.933623,51.3697592 57.7745343,51.6159507 57.542,51.776 Z M38.323,50.609 C38.3679361,50.3549633 38.3936756,50.0979029 38.4,49.84 C39.5826736,50.2377015 40.8689209,50.1968852 42.024,49.725 C42.4751803,51.0457895 41.9945756,52.5055702 40.847,53.3 C39.6947501,54.0995132 38.1549193,54.0503653 37.056,53.179 C37.7152516,52.4610136 38.1549407,51.5691422 38.323,50.609 Z" id="Shape"/></g></g></svg>
