<?xml version="1.0" encoding="UTF-8"?>
<svg xmlns="http://www.w3.org/2000/svg" xmlns:xlink="http://www.w3.org/1999/xlink" width="512" height="512" viewBox="0 0 60 46" version="1.1"><!-- Generator: Sketch 51.3 (57544) - http://www.bohemiancoding.com/sketch --><title>025 - Grape Vat</title><desc>Created with Sketch.</desc><defs/><g id="Page-1" stroke="none" stroke-width="1" fill="none" fill-rule="evenodd"><g id="025---Grape-Vat" fill="#000000" fill-rule="nonzero"><path d="M50.609,1.384 C45.1,0.814 37.779,0.5 30,0.5 C22.221,0.5 14.9,0.814 9.391,1.384 C0.718,2.281 0,3.37 0,4.5 L0,8.5 C0,9.14 0.232,9.766 2,10.352 L2,40.98 C2.00015601,42.421538 3.02265518,43.6604479 4.438,43.934 C5.151,44.066 5.967,44.198 6.865,44.321 C9.519,44.681 13.006,44.978 16.948,45.179 C18.603,45.265 20.281,45.333 21.969,45.379 C21.98,45.379 21.989,45.385 22,45.385 C22.011,45.385 22.017,45.38 22.026,45.38 C23.659,45.428 25.302,45.46 26.944,45.474 C26.963,45.474 26.98,45.485 27,45.485 C27.02,45.485 27.031,45.476 27.048,45.475 C28.023,45.485 29.006,45.495 30,45.495 C30.932,45.495 31.871,45.465 32.809,45.456 C32.9400641,45.5113419 33.0879359,45.5113419 33.219,45.456 C34.819,45.438 36.419,45.434 38,45.39 L38.03,45.39 C41.603,45.283 44.984,45.1 48.08,44.847 C51.051,44.609 53.639,44.293 55.568,43.932 C56.9821545,43.6593247 58.0030053,42.4201999 58,40.98 L58,10.352 C59.768,9.766 60,9.14 60,8.5 L60,4.5 C60,3.37 59.282,2.281 50.609,1.384 Z M58,8.2 C57.6303735,8.39214017 57.2374472,8.53566417 56.831,8.627 C56.7455497,8.63730642 56.6618294,8.65882487 56.582,8.691 C52.1034084,9.55006062 47.5632486,10.049321 43.005,10.184 L43,10.184 L42.992,10.184 C41.4393333,10.2653333 39.781,10.332 38.017,10.384 C38.011,10.384 38.006,10.384 38,10.384 C37.994,10.384 37.985,10.384 37.977,10.384 C36.401,10.431 34.755,10.466 33.021,10.484 C33.014,10.484 33.007,10.484 33,10.484 C32.993,10.484 32.984,10.484 32.976,10.484 C32.008,10.4946667 31.016,10.5 30,10.5 C28.984,10.5 27.992,10.495 27.024,10.485 C27.016,10.485 27.009,10.485 27,10.485 C26.991,10.485 26.986,10.485 26.979,10.485 C25.245,10.467 23.599,10.432 22.023,10.385 C22.015,10.385 22.008,10.385 22,10.385 C21.992,10.385 21.989,10.385 21.983,10.385 C20.221,10.333 18.5626667,10.2663333 17.008,10.185 L17,10.185 C12.4399754,10.0491994 7.89813754,9.54860072 3.418,8.688 C3.33746185,8.65587494 3.25308751,8.63436116 3.167,8.624 C2.76136575,8.53350617 2.36912018,8.39099364 2,8.2 L2,6.35 C4.41597473,7.01431799 6.89165964,7.43837659 9.391,7.616 C14.902,8.186 22.221,8.5 30,8.5 C37.779,8.5 45.1,8.186 50.609,7.616 C53.1083404,7.43837659 55.5840253,7.01431799 58,6.35 L58,8.2 Z M43,39.5 C42.4477153,39.5 42,39.9477153 42,40.5 L42,43.23 C41.018,43.2773333 40.018,43.3186667 39,43.354 L39,28.346 C40.0273333,28.312 41.0273333,28.2723333 42,28.227 L42,36.5 C42,37.0522847 42.4477153,37.5 43,37.5 C43.5522847,37.5 44,37.0522847 44,36.5 L44,28.124 C45.0453333,28.0646667 46.0453333,27.998 47,27.924 L47,42.922 C46.0246667,42.996 45.0246667,43.0626667 44,43.122 L44,40.5 C44,39.9477153 43.5522847,39.5 43,39.5 Z M47,25.922 C45.726,26.022 44.384,26.109 42.95,26.182 C41.367,26.261 39.704,26.331 37.969,26.382 C36.369,26.432 34.695,26.472 32.99,26.482 C31.016,26.502 28.99,26.502 27.006,26.482 C25.306,26.472 23.633,26.432 22.029,26.382 C20.296,26.333 18.629,26.263 17.051,26.182 C15.616,26.109 14.274,26.019 13,25.922 L13,18.932 C14.241,19.026 15.57,19.108 16.97,19.179 C18.557,19.259 20.234,19.33 21.97,19.379 C23.588,19.43 25.276,19.47 26.991,19.479 C28.978,19.499 31.028,19.499 33.007,19.479 C34.726,19.469 36.414,19.429 38.03,19.379 C39.777,19.33 41.454,19.259 43.052,19.179 C44.479,19.105 45.802,19.026 47.001,18.941 L47,25.922 Z M22,39.5 C21.4477153,39.5 21,39.9477153 21,40.5 L21,43.343 C19.994,43.309 18.994,43.268 18,43.22 L18,28.227 C18.974,28.2723333 19.974,28.312 21,28.346 L21,36.5 C21,37.0522847 21.4477153,37.5 22,37.5 C22.5522847,37.5 23,37.0522847 23,36.5 L23,28.407 C23.9826667,28.4343333 24.9826667,28.454 26,28.466 L26,43.461 C25,43.4483333 24,43.429 23,43.403 L23,40.5 C23,39.9477153 22.5522847,39.5 22,39.5 Z M16,12.129 L16,14.5 C16,15.0522847 16.4477153,15.5 17,15.5 C17.5522847,15.5 18,15.0522847 18,14.5 L18,12.231 C18.979,12.277 19.977,12.318 21,12.352 L21,17.344 C19.647,17.299 18.324,17.244 17.07,17.182 C15.63,17.109 14.27,17.023 13,16.926 L13,11.931 C13.968,12 14.962,12.071 16,12.129 Z M26,12.469 L26,14.5 C26,15.0522847 26.4477153,15.5 27,15.5 C27.5522847,15.5 28,15.0522847 28,14.5 L28,12.49 C28.664,12.495 29.328,12.5 30,12.5 C30.672,12.5 31.336,12.5 32,12.49 L32,17.49 C30.341,17.502 28.66,17.502 27.006,17.49 C25.642,17.482 24.306,17.452 23,17.416 L23,12.416 C23.986,12.4366667 24.986,12.4543333 26,12.469 Z M42,17.225 C40.7,17.285 39.365,17.34 37.969,17.38 C36.687,17.42 35.353,17.449 34,17.466 L34,12.466 C35.014,12.4506667 36.014,12.4306667 37,12.406 L37,14.5 C37,15.0522847 37.4477153,15.5 38,15.5 C38.5522847,15.5 39,15.0522847 39,14.5 L39,12.352 C40.023,12.318 41.021,12.277 42,12.231 L42,17.225 Z M30,2.5 C44.534,2.5 54.3,3.562 57.279,4.5 C54.302,5.438 44.534,6.5 30,6.5 C15.466,6.5 5.7,5.438 2.721,4.5 C5.7,3.562 15.466,2.5 30,2.5 Z M4,40.98 L3.99995523,10.856 C4.578,10.972 5.24466667,11.086 6,11.198 L6,14.498 C6,15.0502847 6.44771525,15.498 7,15.498 C7.55228475,15.498 8,15.0502847 8,14.498 L8,11.463 C8.441,11.515 8.9,11.563 9.39,11.617 C9.906,11.671 10.453,11.717 11,11.768 L11,36.5 C11,37.0522847 11.4477153,37.5 12,37.5 C12.5522847,37.5 13,37.0522847 13,36.5 L13,27.927 C13.956,28.0003333 14.956,28.067 16,28.127 L16,43.127 C14.961,43.068 13.957,43.003 13,42.927 L13,40.5 C13,39.9477153 12.5522847,39.5 12,39.5 C11.4477153,39.5 11,39.9477153 11,40.5 L11,42.764 C9.924,42.664 8.917,42.564 8,42.45 L8,18.5 C8,17.9477153 7.55228475,17.5 7,17.5 C6.44771525,17.5 6,17.9477153 6,18.5 L6,42.171 C5.577,42.104 5.175,42.036 4.809,41.971 C4.33567313,41.8789211 3.99546666,41.4621787 4,40.98 Z M28,43.48 L28,28.487 C28.664,28.493 29.327,28.5 30,28.5 C30.673,28.5 31.336,28.493 32,28.487 L32,36.5 C32,37.0522847 32.4477153,37.5 33,37.5 C33.5522847,37.5 34,37.0522847 34,36.5 L34,28.466 C35.018,28.454 36.018,28.4343333 37,28.407 L37,43.407 C36,43.4296667 35,43.447 34,43.459 L34,40.5 C34,39.9477153 33.5522847,39.5 33,39.5 C32.4477153,39.5 32,39.9477153 32,40.5 L32,43.486 C30.656,43.5 29.323,43.491 28,43.481 L28,43.48 Z M56,40.98 C56.0034404,41.4578957 55.6682549,41.8714308 55.2,41.967 C54.829,42.037 54.425,42.104 54,42.167 L54,40.5 C54,39.9477153 53.5522847,39.5 53,39.5 C52.4477153,39.5 52,39.9477153 52,40.5 L52,42.447 C51.071,42.561 50.067,42.666 49,42.762 L49,17.862 C49.0002404,17.5829432 48.8838664,17.3164795 48.679,17.127 C48.4731358,16.9397822 48.1995506,16.8450935 47.922,16.865 C46.754,16.956 45.434,17.043 44,17.123 L44,12.123 C45.038,12.065 46.032,11.997 47,11.923 L47,14.5 C47,15.0522847 47.4477153,15.5 48,15.5 C48.5522847,15.5 49,15.0522847 49,14.5 L49,11.768 C49.547,11.719 50.094,11.668 50.61,11.617 C51.101,11.566 51.559,11.517 52,11.463 L52,36.5 C52,37.0522847 52.4477153,37.5 53,37.5 C53.5522847,37.5 54,37.0522847 54,36.5 L54,11.2 C54.756,11.088 55.4226667,10.974 56.0000262,10.858 L56,40.98 Z" id="Shape"/></g></g></svg>
