<?xml version="1.0" encoding="UTF-8"?>
<svg xmlns="http://www.w3.org/2000/svg" xmlns:xlink="http://www.w3.org/1999/xlink" width="512" height="512" viewBox="0 0 60 50" version="1.1"><!-- Generator: Sketch 51.3 (57544) - http://www.bohemiancoding.com/sketch --><title>028 - Draught Keg</title><desc>Created with Sketch.</desc><defs/><g id="Page-1" stroke="none" stroke-width="1" fill="none" fill-rule="evenodd"><g id="028---Draught-Keg" fill="#000000" fill-rule="nonzero"><path d="M46,6 C46,5.44771525 45.5522847,5 45,5 C41.7,5 38,11.843 38,21 C38,21.5522847 38.4477153,22 39,22 C39.5522847,22 40,21.5522847 40,21 C40,12.289 43.473,7 45,7 C45.5522847,7 46,6.55228475 46,6 Z" id="Shape"/><path d="M55,19 L55,16 L56,16 C57.6568542,16 59,14.6568542 59,13 C59,11.3431458 57.6568542,10 56,10 L54.209,10 C52.215,4.411 48.857,1.075 45.117,1.007 C44.939,0.983 41.636,0.555 36.77,0.27 L36.736,0.27 L36.706,0.27 C36.676,0.27 36.647,0.26 36.617,0.259 L35.588,0.2 C35.054,0.173 34.506,0.146 33.941,0.121 C33.196,0.09 32.441,0.07 31.659,0.05 L30.669,0.021 L30.611,0.021 C30.389,0.021 30.156,0.021 29.93,0.021 C29.874,0.021 29.819,0.01 29.761,0.021 L29.72,0.021 L29.673,0.021 C29.118,0.007 28.566,0 28,0 C25.36,0 22.864,0.08 20.628,0.193 C20.612,0.193 20.596,0.193 20.58,0.193 C18.749,0.286 17.103,0.402 15.704,0.518 L15.69,0.518 C13.04,0.737 11.284,0.952 10.934,0.996 C4.8,1.063 0,9.825 0,21 C0,30.117 3.194,37.624 7.7,40.115 C3.84005645,40.7532065 1.00672486,44.0876572 1,48 L1,49 C1,49.5522847 1.44771525,50 2,50 L6,50 C6.55228475,50 7,49.5522847 7,49 L7,48 C7,46.8954305 7.8954305,46 9,46 L29,46 C30.1045695,46 31,46.8954305 31,48 L31,49 C31,49.5522847 31.4477153,50 32,50 L36,50 C36.5522847,50 37,49.5522847 37,49 L37,48 C37,46.8954305 37.8954305,46 39,46 L47,46 C48.1045695,46 49,46.8954305 49,48 L49,49 C49,49.5522847 49.4477153,50 50,50 L54,50 C54.5522847,50 55,49.5522847 55,49 L55,48 C54.9930533,44.0774671 52.1451616,40.7376398 48.273,40.111 C50.491,38.88 52.444,36.411 53.84,32.984 C53.894,32.984 53.94,33 54,33 L58,33 C59.1045695,33 60,32.1045695 60,31 L60,24 C59.9966939,21.2399468 57.7600532,19.0033061 55,19 Z M53,19 L51,19 L51,16 L53,16 L53,19 Z M57,13 C57,13.5522847 56.5522847,14 56,14 L48,14 C47.4477153,14 47,13.5522847 47,13 C47,12.4477153 47.4477153,12 48,12 L56,12 C56.5522847,12 57,12.4477153 57,13 Z M34.055,18.948 C34.0183333,19.6253333 34,20.3093333 34,21 C34,21.6906667 34.0183333,22.373 34.055,23.047 C34.455,30.534 37.041,36.687 40.67,39.439 C40.148,39.485 39.577,39.53 38.979,39.575 C34.925,37.517 32,29.773 32,21 C32,12.227 34.923,4.484 38.978,2.42 C39.578,2.465 40.148,2.51 40.671,2.555 C37.041,5.308 34.457,11.461 34.055,18.948 Z M9,21 C9,12.245 11.945,4.516 16.02,2.5 L16.796,2.44 C13.279,5.97 11,12.972 11,21 C11,29.028 13.279,36.03 16.8,39.56 C16.536,39.54 16.272,39.52 16.023,39.499 C11.945,37.483 9,29.755 9,21 Z M25.264,2.03 C21.544,5.4 19,12.621 19,21 C19,29.379 21.545,36.6 25.263,39.97 C23.695,39.938 22.203,39.883 20.812,39.813 C20.6735537,39.774045 20.5376311,39.7266224 20.405,39.671 C20.375349,39.6582024 20.3449618,39.6471828 20.314,39.638 C16.141,37.88 13,29.891 13,21 C13,12.109 16.139,4.126 20.311,2.364 C20.343,2.354 20.374,2.342 20.405,2.329 C20.5335626,2.27430542 20.6651043,2.22689698 20.799,2.187 C22.194,2.117 23.691,2.062 25.264,2.03 Z M21,21 C21,11.353 24.559,3.167 28.984,2.137 C25.36,5.621 23,12.779 23,21 C23,29.221 25.353,36.359 28.968,39.849 C24.516,38.731 21,30.579 21,21 Z M35.486,2.2 L35.925,2.221 C32.343,5.736 30,12.887 30,21 C30,29.113 32.343,36.26 35.923,39.78 C35.258,39.817 34.573,39.851 33.859,39.88 C33.495,39.895 33.112,39.903 32.741,39.914 C32.6383545,39.8854082 32.538059,39.8489675 32.441,39.805 C32.4023623,39.7868439 32.3626165,39.771146 32.322,39.758 C28.142,37.993 25,29.951 25,21 C25,12.049 28.139,4.015 32.312,2.243 C32.3545485,2.22901221 32.3962804,2.21265328 32.437,2.194 C32.5341854,2.15007068 32.6344527,2.11330601 32.737,2.084 C33.111,2.096 33.495,2.104 33.861,2.119 C34.415,2.143 34.958,2.171 35.486,2.2 Z M2,21 C2,11.243 6.121,3 11,3 C11.043822,3.000025 11.0875932,2.99701782 11.131,2.991 C11.149,2.991 11.613,2.929 12.425,2.84 C9.129,6.5 7,13.318 7,21 C7,28.682 9.129,35.5 12.425,39.16 C11.613,39.071 11.149,39.011 11.131,39.009 C11.0875932,39.0029822 11.043822,38.999975 11,39 C6.121,39 2,30.757 2,21 Z M53,48 L51,48 C51,45.790861 49.209139,44 47,44 L39,44 C36.790861,44 35,45.790861 35,48 L33,48 C33,45.790861 31.209139,44 29,44 L9,44 C6.790861,44 5,45.790861 5,48 L3,48 C3.00330738,44.6876624 5.68766243,42.0033074 9,42 L47,42 C50.3123376,42.0033074 52.9966926,44.6876624 53,48 Z M45,39 C44.7161075,38.9979151 44.4330973,38.9681069 44.155,38.911 L44.065,38.896 C43.7981971,38.8357272 43.5369414,38.7531021 43.284,38.649 C43.239,38.631 43.194,38.613 43.149,38.593 C42.8996178,38.4832512 42.6583442,38.355931 42.427,38.212 C42.365,38.173 42.303,38.129 42.24,38.087 C42.0436457,37.9546107 41.8540729,37.8124312 41.672,37.661 C41.563,37.572 41.456,37.475 41.348,37.376 C41.206,37.246 41.066,37.1086667 40.928,36.964 C40.838,36.872 40.749,36.778 40.661,36.68 C40.1766877,36.1277687 39.7416911,35.5341656 39.361,34.906 C39.323,34.844 39.285,34.78 39.248,34.717 C39.11,34.484 38.979,34.237 38.848,33.989 C38.754,33.811 38.661,33.631 38.57,33.446 C38.422,33.146 38.278,32.828 38.141,32.503 C38.103,32.413 38.065,32.321 38.028,32.23 C37.87,31.841 37.717,31.442 37.575,31.03 L37.533,30.904 C37.3816667,30.456 37.2403333,29.9953333 37.109,29.522 C37.101,29.494 37.094,29.465 37.086,29.437 C36.9526667,28.9556667 36.832,28.4633333 36.724,27.96 C36.712,27.904 36.703,27.846 36.691,27.79 C36.591,27.312 36.498,26.827 36.418,26.331 C36.396,26.197 36.381,26.059 36.362,25.923 C36.298,25.496 36.237,25.066 36.19,24.623 C36.161,24.346 36.144,24.064 36.121,23.784 C36.096,23.471 36.064,23.16 36.047,22.842 C36.018,22.234 36,21.619 36,21 C36,20.381 36.018,19.765 36.05,19.154 C36.067,18.842 36.098,18.538 36.123,18.23 C36.146,17.944 36.163,17.656 36.193,17.374 C36.239,16.944 36.299,16.524 36.361,16.105 C36.382,15.96 36.399,15.811 36.422,15.667 C36.5,15.183 36.59,14.71 36.688,14.243 C36.702,14.174 36.714,14.103 36.729,14.034 C36.8356667,13.544 36.9533333,13.0646667 37.082,12.596 C37.093,12.554 37.103,12.511 37.115,12.469 C37.243,12.007 37.382,11.559 37.529,11.122 L37.583,10.958 C37.723,10.558 37.872,10.163 38.026,9.782 C38.067,9.682 38.108,9.582 38.15,9.482 C38.285,9.162 38.427,8.853 38.573,8.552 C38.664,8.367 38.757,8.187 38.851,8.009 C38.985,7.756 39.118,7.509 39.259,7.266 L39.359,7.1 C39.7400878,6.47021889 40.1750492,5.87465645 40.659,5.32 C40.749,5.22 40.841,5.12 40.933,5.029 C41.07,4.885 41.21,4.749 41.351,4.619 C41.456,4.519 41.561,4.428 41.667,4.34 C41.851895,4.18632363 42.0444765,4.04213787 42.244,3.908 C42.304,3.867 42.365,3.825 42.425,3.787 C42.6575652,3.64219818 42.9001835,3.51420536 43.151,3.404 L43.282,3.349 C43.5356751,3.24503006 43.7975838,3.16241006 44.065,3.102 L44.155,3.087 C44.4331634,3.0305649 44.716173,3.00142664 45,3 C47.722,3 50.362,5.651 52.074,10 L48,10 C46.3431458,10 45,11.3431458 45,13 C45,14.6568542 46.3431458,16 48,16 L49,16 L49,19 L47,19 C45.8954305,19 45,19.8954305 45,21 L45,25 C45,26.1045695 45.8954305,27 47,27 L49.407,27 C48.312,32.257 46.022,35 45,35 C44.4477153,35 44,35.4477153 44,36 C44,36.5522847 44.4477153,37 45,37 C47.615,37 50.3,32.806 51.425,27.1 C51.7742322,27.2639627 51.9979939,27.6141985 52,28 L52,31 C51.9996979,31.2691481 52.0541343,31.5355464 52.16,31.783 C50.434,36.308 47.78,39 45,39 Z M58,31 L54,31 L54,28 C54,26.3431458 52.6568542,25 51,25 L47,25 L47,21 L55,21 C56.6568542,21 58,22.3431458 58,24 L58,31 Z" id="Shape"/></g></g></svg>
