<?xml version="1.0" encoding="UTF-8"?>
<svg xmlns="http://www.w3.org/2000/svg" xmlns:xlink="http://www.w3.org/1999/xlink" width="512" height="512" viewBox="0 0 52 60" version="1.1"><!-- Generator: Sketch 51.3 (57544) - http://www.bohemiancoding.com/sketch --><title>030 - Malt</title><desc>Created with Sketch.</desc><defs/><g id="Page-1" stroke="none" stroke-width="1" fill="none" fill-rule="evenodd"><g id="030---Malt" transform="translate(-1.000000, 0.000000)" fill="#000000" fill-rule="nonzero"><path d="M52.357,0.683 C50.741,-0.934 47.357,0.773 44.551,3.045 C40.488,1.131 34.005,0 27,0 C19.995,0 13.512,1.131 9.449,3.045 C6.645,0.773 3.263,-0.938 1.646,0.68 C1.20665795,1.13573032 0.973195824,1.75154993 1,2.384 C1,4.352 2.828,7.473 5.686,10.384 C5.614,10.594 5.544,10.807 5.476,11.025 C4.86934408,13.0031512 4.39397657,15.0192039 4.053,17.06 C3.999,17.37 3.941,17.673 3.892,17.989 C3.28346961,21.9634574 2.98523549,25.9792535 3,30 C3,30.408 3,30.816 3.01,31.215 C3.041,33.266 3.137,35.215 3.294,37.007 C3.59031276,41.2867246 4.39291281,45.5162355 5.685,49.607 C2.828,52.527 1,55.648 1,57.616 C0.973385743,58.2466659 1.20567726,58.8608114 1.643,59.316 C3.259,60.932 6.643,59.226 9.449,56.954 C13.512,58.868 20,60 27,60 C34,60 40.488,58.868 44.551,56.955 C47.351,59.227 50.737,60.937 52.351,59.32 C52.7893164,58.8652433 53.0226977,58.251082 52.997,57.62 C53.002,55.652 51.169,52.531 48.311,49.62 C49.6037867,45.5276569 50.4067263,41.2964473 50.703,37.015 C50.86,35.222 50.956,33.274 50.987,31.233 C51,30.816 51,30.408 51,30 C51.0142827,25.9829215 50.7160497,21.9708185 50.108,18 C49.7660367,15.7513117 49.2674912,13.5292423 48.616,11.35 C48.585,11.25 48.557,11.139 48.525,11.038 C48.457,10.818 48.386,10.604 48.314,10.393 C51.172,7.478 53.005,4.357 53,2.393 C53.0293868,1.75891718 52.7968935,1.14062243 52.357,0.683 Z M48.292,19.488 C48.7655263,22.9719494 49.0020698,26.4840184 49,30 C49,30.392 49,30.784 48.99,31.185 C48.976,32.132 48.945,33.051 48.903,33.947 C48.889,34.247 48.867,34.528 48.85,34.82 C48.822,35.296 48.791,35.764 48.755,36.22 C44.151,37.941 35.918,39 27,39 C18.082,39 9.842,37.94 5.239,36.218 C5.234,36.151 5.228,36.083 5.223,36.018 C5.171,35.328 5.12766667,34.618 5.093,33.888 C5.088,33.779 5.085,33.668 5.08,33.559 C5.048,32.797 5.023,32.019 5.011,31.221 L5.011,31.179 C5,30.784 5,30.392 5,30 C4.99793019,26.4840184 5.23447365,22.9719494 5.708,19.488 C10.7,21.069 18.513,22 27,22 C35.487,22 43.3,21.069 48.292,19.488 Z M46.453,50.588 L46.703,50.828 C49.527,53.653 51.003,56.379 51.003,57.613 C51.0145109,57.713559 50.9945988,57.8152151 50.946,57.904 C50.746,58.114 48.73,57.904 45.346,55.011 C45.0357362,54.7461052 44.595667,54.6962412 44.234,54.885 C40.494,56.835 34.054,58 27,58 C19.946,58 13.506,56.835 9.773,54.884 C9.41133299,54.6952412 8.97126381,54.7451052 8.661,55.01 C5.274,57.904 3.261,58.11 3.054,57.9 C3.00810292,57.8113878 2.98932147,57.7112201 3,57.612 C3,56.378 4.473,53.652 7.3,50.827 L7.55,50.587 C7.82414828,50.3122848 7.91458605,49.9037556 7.782,49.539 C6.57172823,45.9293586 5.78511684,42.1912766 5.438,38.4 C10.381,40.017 18.4,41 27,41 C35.6,41 43.619,40.017 48.562,38.4 C48.2156104,42.1914463 47.4300132,45.9298285 46.221,49.54 C46.0888411,49.9044657 46.1792506,50.3124777 46.453,50.587 L46.453,50.588 Z M46.7,9.173 L46.45,9.413 C46.1763453,9.68669891 46.0852006,10.0937343 46.216,10.458 C46.351,10.834 46.486,11.221 46.616,11.63 L46.63,11.676 C46.773,12.133 46.909,12.606 47.04,13.091 C47.077,13.227 47.111,13.37 47.146,13.508 C47.246,13.879 47.337,14.253 47.426,14.639 C47.467,14.818 47.505,15.002 47.545,15.184 C47.622,15.538 47.698,15.895 47.769,16.26 C47.81,16.472 47.85,16.689 47.889,16.905 C47.924,17.096 47.956,17.292 47.989,17.486 C43.261,19.044 35.346,20 27,20 C18.654,20 10.738,19.044 6.01,17.486 C6.043,17.292 6.076,17.096 6.11,16.905 C6.149,16.689 6.189,16.473 6.23,16.261 C6.302,15.894 6.378,15.536 6.455,15.181 C6.494,15 6.532,14.817 6.573,14.64 C6.664,14.247 6.76,13.866 6.858,13.488 C6.891,13.358 6.923,13.223 6.958,13.094 C7.09133333,12.5906667 7.23333333,12.1016667 7.384,11.627 C7.51,11.222 7.645,10.834 7.784,10.458 C7.91479945,10.0937343 7.82365467,9.68669891 7.55,9.413 L7.3,9.173 C4.473,6.348 3,3.622 3,2.388 C2.98911798,2.2884306 3.00901113,2.18791787 3.057,2.1 C3.264,1.892 5.274,2.1 8.657,4.993 C8.96746391,5.25833367 9.4080778,5.30821449 9.77,5.119 C13.506,3.165 19.945,2 27,2 C34.055,2 40.494,3.165 44.226,5.116 C44.5879222,5.30521449 45.0285361,5.25533367 45.339,4.99 C48.726,2.097 50.739,1.89 50.946,2.1 C50.9918971,2.18861218 51.0106785,2.28877989 51,2.388 C51,3.622 49.527,6.348 46.7,9.173 Z" id="Shape"/><path d="M42.373,51.339 C39.912,52.625 34.582,54 27,54 C19.418,54 14.088,52.625 11.627,51.339 C11.140042,51.0999524 10.5512948,51.2927443 10.3000521,51.7735239 C10.0488095,52.2543034 10.2267042,52.8477219 10.701,53.111 C13.372,54.508 19.057,56 27,56 C34.943,56 40.628,54.508 43.3,53.111 C43.6261013,52.950917 43.8397391,52.6265768 43.8580609,52.2637643 C43.8763828,51.9009517 43.6965066,51.5567393 43.3881913,51.3646186 C43.0798761,51.1724978 42.6916218,51.1626905 42.374,51.339 L42.373,51.339 Z" id="Shape"/><path d="M43.3,6.888 C40.629,5.492 34.944,4 27,4 C19.056,4 13.371,5.492 10.7,6.888 C10.2103996,7.14370785 10.0207922,7.74789957 10.2765,8.23749999 C10.5322079,8.72710041 11.1363996,8.91670782 11.626,8.661 C14.088,7.375 19.418,6 27,6 C34.582,6 39.912,7.375 42.373,8.661 C42.8626004,8.91698396 43.467016,8.7276004 43.723,8.23799998 C43.9789839,7.74839957 43.7896004,7.14398399 43.3,6.888 Z" id="Shape"/><path d="M17.656,23.985 C17.2631158,23.8149552 16.8055706,23.9138622 16.518,24.231 C15.57,25.278 14.528,26.354 13.218,27.631 C12.984,27.2216667 12.7506667,26.8116667 12.518,26.401 C11.884,25.283 11.25,24.164 10.596,23.056 C10.3769487,22.6852949 9.94519634,22.4964317 9.52428321,22.5871947 C9.10337009,22.6779576 8.78781623,23.0279649 8.741,23.456 C8.457,25.93 8.117,28.446 7.787,30.879 L7.455,33.348 C7.38209841,33.8955903 7.76690967,34.3985984 8.3145,34.4715 C8.86209033,34.5444016 9.36509841,34.1595903 9.438,33.612 L9.77,31.148 C9.97,29.675 10.17,28.172 10.37,26.664 C10.508,26.9066667 10.6456667,27.1496667 10.783,27.393 C11.229,28.179 11.675,28.965 12.128,29.748 C12.2816199,30.0136761 12.5487244,30.1941022 12.852544,30.2374214 C13.1563635,30.2807406 13.46325,30.1821552 13.685,29.97 C14.572,29.12 15.347,28.359 16.046,27.649 C15.881,29.907 15.735,32.234 15.607,34.694 C15.5931138,34.958975 15.6851061,35.2186059 15.8627223,35.4157279 C16.0403384,35.6128499 16.2890152,35.7313007 16.554,35.745 L16.6,35.745 C17.1325988,35.7457205 17.5723053,35.3288787 17.6,34.797 C17.781,31.321 18,28.112 18.255,24.988 C18.291685,24.5596682 18.0505045,24.1558218 17.656,23.985 Z" id="Shape"/><path d="M23.926,24.069 C22.396,24.333 20.326,25.025 20.048,27.969 C19.948,29.014 19.904,30.252 19.862,31.45 C19.822,32.617 19.78,33.825 19.686,34.85 C19.6357421,35.4000756 20.0409244,35.886742 20.591,35.937 C21.1410756,35.9872579 21.6277421,35.5820756 21.678,35.032 C21.778,33.948 21.819,32.711 21.861,31.517 C21.868,31.334 21.874,31.156 21.881,30.977 L22.92,30.977 C23.574,30.977 24.236,30.977 24.903,30.977 C25.612,30.977 26.325,30.965 27.037,30.955 C27.037,31.178 27.031,31.402 27.027,31.623 C27.01,32.76 26.991,33.935 27.027,34.971 C27.0463868,35.509177 27.488474,35.9353491 28.027,35.935 L28.064,35.935 C28.329099,35.9253632 28.5795063,35.8107883 28.7601131,35.6164907 C28.9407198,35.4221931 29.036725,35.1640958 29.027,34.899 C28.992,33.914 29.01,32.765 29.027,31.655 C29.047,30.401 29.066,29.104 29.011,28.01 C28.859,25.066 26.789,24.348 25.244,24.063 C24.8069527,23.9974795 24.3624326,23.9995031 23.926,24.069 Z M27.013,28.125 C27.026,28.392 27.035,28.675 27.04,28.969 C25.665,28.989 24.278,28.989 22.929,28.984 L21.974,28.984 C21.992,28.701 22.013,28.426 22.038,28.165 C22.167,26.828 22.708,26.312 24.266,26.043 C24.4705412,26.0174931 24.6774588,26.0174931 24.882,26.043 C26.429,26.327 26.947,26.833 27.013,28.125 Z" id="Shape"/><path d="M31.048,29.115 C31.039,30.401 31.03,31.73 31.078,32.949 C31.042775,34.5666299 32.3225046,35.9080655 33.94,35.949 C34.2494017,35.9882874 34.5611317,36.0063297 34.873,36.003 C35.141,36.003 35.412,35.994 35.68,35.986 C36.1006805,35.9628036 36.5223195,35.9628036 36.943,35.986 C37.2075408,36.0149586 37.4725427,35.9356439 37.6776756,35.7661125 C37.8828086,35.5965812 38.0106155,35.3512605 38.032,35.086 C38.0830231,34.5373036 37.6805341,34.0507392 37.132,33.998 C36.6280021,33.9642016 36.1224358,33.9605284 35.618,33.987 C35.1538659,34.0163732 34.6881604,34.0100211 34.225,33.968 C33.269,33.833 33.107,33.589 33.079,32.874 C33.033,31.7 33.042,30.453 33.051,29.131 C33.06,27.731 33.069,26.279 33.008,24.923 C32.9712139,24.3770838 32.5109993,23.9569837 31.964,23.97 C31.6990475,23.9819313 31.449687,24.0986277 31.2707765,24.2944165 C31.0918661,24.4902053 30.9980618,24.7490478 31.01,25.014 C31.066,26.315 31.057,27.739 31.048,29.115 Z" id="Shape"/><path d="M36.982,25.826 L37.031,25.826 C38.031,25.778 39.031,25.696 40.023,25.61 C40.089,27.503 40.089,29.41 40.071,31.274 C40.06,32.494 40.048,33.714 40.059,34.937 C40.0639391,35.4857668 40.510211,35.9280222 41.059,35.928 L41.067,35.928 C41.3323939,35.9258876 41.5860626,35.8183611 41.7721292,35.6291058 C41.9581959,35.4398504 42.061397,35.1843915 42.059,34.919 C42.048,33.709 42.059,32.501 42.071,31.293 C42.09,29.378 42.091,27.406 42.019,25.437 C43.025,25.349 44.044,25.264 45.052,25.211 C45.3169798,25.1975525 45.5657538,25.0793522 45.7435547,24.8824208 C45.9213556,24.6854894 46.013607,24.4259716 46,24.161 C45.966171,23.6115713 45.498996,23.1901803 44.949,23.213 C43.617,23.282 42.276,23.402 40.98,23.519 C39.653,23.639 38.28,23.762 36.937,23.827 C36.5797344,23.8352171 36.2539912,24.033409 36.0824746,24.3469186 C35.910958,24.6604282 35.9197256,25.0416261 36.1054746,25.3469186 C36.2912236,25.6522111 36.6257344,25.8352171 36.983,25.827 L36.982,25.826 Z" id="Shape"/></g></g></svg>
