<?xml version="1.0" encoding="UTF-8"?>
<svg xmlns="http://www.w3.org/2000/svg" xmlns:xlink="http://www.w3.org/1999/xlink" width="512" height="512" viewBox="0 0 48 60" version="1.1"><!-- Generator: Sketch 51.3 (57544) - http://www.bohemiancoding.com/sketch --><title>001 - Malt</title><desc>Created with Sketch.</desc><defs/><g id="Page-1" stroke="none" stroke-width="1" fill="none" fill-rule="evenodd"><g id="001---Malt" fill-rule="nonzero"><path d="M46,21.42 C46,22.21 44.75,23.28 42.59,24.29 C38.1753281,26.1802795 33.440892,27.2120132 28.64,27.33 C27.14,27.39 25.59,27.42 24,27.42 C21.11,27.42 18.35,27.32 15.82,27.14 C7.72,26.54 2,23.1 2,21.42 L2,21.41 C2.03,19.31 10.91,17.6 22.19,17.44 L32.3,17.71 C40.33,18.31 46,19.74 46,21.42 Z" id="Shape" fill="#7FACFA"/><path d="M43,23.42 C42.9703587,23.7493173 42.8251158,24.0575155 42.59,24.29 C38.1753281,26.1802795 33.440892,27.2120132 28.64,27.33 C27.14,27.39 25.59,27.42 24,27.42 C21.11,27.42 18.35,27.32 15.82,27.14 C7.72,26.54 2,23.1 2,21.42 L2,21.41 C5.53,20.31 11.85,19.54 19.19,19.44 L29.3,19.71 C37.33,20.31 43,21.74 43,23.42 Z" id="Shape" fill="#A4C2F7"/><path d="M42,7.59 C41.9414839,7.65183068 41.877932,7.70869291 41.81,7.76 L41.3,8.24 L32.06,16.96 L29.89,15.17 L28.5,14.02 L35.22,3.46 L35.32,3.3 L35.71,2.68 L35.72,2.67 C35.7483903,2.60531852 35.7853918,2.54477056 35.83,2.49 L42,7.59 Z" id="Shape" fill="#7FACFA"/><path d="M39,6.59 C38.9414839,6.65183068 38.877932,6.70869291 38.81,6.76 L38.3,7.24 L29.89,15.17 L28.5,14.02 L35.22,3.46 L39,6.59 Z" id="Shape" fill="#A4C2F7"/><path d="M42,7.59 C41.4,8.31 39.6,8.03 37.97,6.83 C37.86,6.75 37.75,6.67 37.64,6.58 C35.94,5.18 35.2,3.26 35.83,2.49 C36.7546435,1.37770762 38.2070855,0.850241864 39.63,1.11 C40.3085208,1.2230066 40.9440992,1.51661618 41.47,1.96 C43.1703042,3.36871371 43.4075338,5.88871896 42,7.59 Z" id="Shape" fill="#CAD9FC"/><path d="M40,6.59 C39.4211134,7.04248995 38.6384447,7.13502222 37.97,6.83 C37.86,6.75 37.75,6.67 37.64,6.58 C35.94,5.18 35.2,3.26 35.83,2.49 C36.7546435,1.37770762 38.2070855,0.850241864 39.63,1.11 C41.1890673,2.54854682 41.3515423,4.95493392 40,6.59 Z" id="Shape" fill="#E8EDFC"/><path d="M32.46,18.92 C32.4593837,20.0817002 32.0525739,21.2066178 31.31,22.1 L28.64,25.33 L24.78,27.28 L21.87,27.24 L20.25,27.21 L15.82,25.14 L22.19,17.44 L23.6,15.73 C24.2116865,14.9845463 25.0288308,14.4351471 25.95,14.15 C27.565975,13.6294934 29.3359448,13.9729204 30.64,15.06 C31.2609392,15.5683009 31.7483864,16.2205189 32.06,16.96 C32.1653714,17.2011598 32.2457902,17.4524685 32.3,17.71 C32.4084313,18.1041156 32.4622668,18.5112467 32.46,18.92 Z" id="Shape" fill="#CAD9FC"/><path d="M29.46,18.92 C29.4593837,20.0817002 29.0525739,21.2066178 28.31,22.1 L25.64,25.33 L21.87,27.24 L20.25,27.21 L15.82,25.14 L22.19,17.44 L23.6,15.73 C24.2116865,14.9845463 25.0288308,14.4351471 25.95,14.15 C27.3500435,14.5827087 28.4879752,15.610872 29.06,16.96 C29.1653714,17.2011598 29.2457902,17.4524685 29.3,17.71 C29.4084313,18.1041156 29.4622668,18.5112467 29.46,18.92 Z" id="Shape" fill="#E8EDFC"/><path d="M27.04,44.09 C26.61,44.37 25.57,43.78 25.19,43.53 C25.18,43.53 25.18,43.52 25.17,43.52 C25.1222847,43.4888502 25.0786179,43.4519013 25.04,43.41 L25.04,43.59 C24.9286035,44.5326911 24.4684169,45.3995543 23.75,46.02 C23.71,46.05 23.67,46.09 23.63,46.12 C23.4345798,46.30726 23.2238459,46.4778541 23,46.63 C22.93,46.67 22.87,46.72 22.8,46.76 C23.88,46.08 25.58,45.55 26.78,46.19 C26.7643104,46.134486 26.7542595,46.0775311 26.75,46.02 C26.69,45.59 26.6,44.37 27.04,44.09 Z M29.41,42.6 C29.302783,42.1374827 29.2457864,41.6647465 29.24,41.19 C28.9570141,42.3374054 28.2400833,43.3303545 27.24,43.96 C27.1756651,44.0068192 27.1089057,44.0502128 27.04,44.09 C28.0698593,43.3975522 29.3270783,43.1289157 30.55,43.34 C30.147435,43.1299711 29.765722,42.8821924 29.41,42.6 Z M46.4,54.89 C46.29,54.55 46.15,54.22 46.05,53.9 C45.39,51.78 45.54,53.13 45.62,50.95 C45.87,44.13 45.73,35.77 45.31,28.95 L2.69,28.95 C2.27,35.77 2.13,44.13 2.38,50.95 C2.46,53.13 2.61,51.78 1.95,53.9 C1.85,54.22 1.71,54.55 1.6,54.89 C1.33035387,55.4890316 1.3195018,56.1727122 1.57,56.78 C1.70744797,57.057427 1.90984988,57.2975648 2.16,57.48 C2.6588721,57.8671914 3.31094618,57.9968652 3.92,57.83 L5.79,57.3 C6.52,57.09 7.26,56.85 8,56.68 C8.97204785,56.4166794 9.99620101,56.4132311 10.97,56.67 C12.91,57.24 14.55,58.31 16.57,58.65 C18.1654179,58.8849231 19.7777647,58.9852766 21.39,58.95 L25,58.95 C27.1479526,59.0302496 29.2988504,58.9298966 31.43,58.65 C33.44,58.31 35.07,57.25 37,56.68 C37.01,56.68 37.02,56.67 37.03,56.67 C38.81,56.15 40.51,56.81 42.21,57.3 L42.84,57.48 L44.08,57.83 C45.0136583,58.0873006 45.998756,57.6471505 46.43,56.78 C46.6804982,56.1727122 46.6696461,55.4890316 46.4,54.89 Z M27.04,44.09 C26.61,44.37 25.57,43.78 25.19,43.53 C25.18,43.53 25.18,43.52 25.17,43.52 C25.1222847,43.4888502 25.0786179,43.4519013 25.04,43.41 L25.04,43.59 C24.9286035,44.5326911 24.4684169,45.3995543 23.75,46.02 C23.71,46.05 23.67,46.09 23.63,46.12 C23.4345798,46.30726 23.2238459,46.4778541 23,46.63 C22.93,46.67 22.87,46.72 22.8,46.76 C23.88,46.08 25.58,45.55 26.78,46.19 C26.7643104,46.134486 26.7542595,46.0775311 26.75,46.02 C26.69,45.59 26.6,44.37 27.04,44.09 Z M27.04,44.09 C26.61,44.37 25.57,43.78 25.19,43.53 C25.18,43.53 25.18,43.52 25.17,43.52 C25.1222847,43.4888502 25.0786179,43.4519013 25.04,43.41 L25.04,43.59 C24.9286035,44.5326911 24.4684169,45.3995543 23.75,46.02 C23.71,46.05 23.67,46.09 23.63,46.12 C23.4345798,46.30726 23.2238459,46.4778541 23,46.63 C22.93,46.67 22.87,46.72 22.8,46.76 C23.88,46.08 25.58,45.55 26.78,46.19 C26.7643104,46.134486 26.7542595,46.0775311 26.75,46.02 C26.69,45.59 26.6,44.37 27.04,44.09 Z" id="Shape" fill="#CAD9FC"/><path d="M24.04,44.09 C23.6,44.37 22.54,43.76 22.17,43.52 C22.1222847,43.4888502 22.0786179,43.4519013 22.04,43.41 C21.909241,44.7461523 21.1522532,45.9410055 20,46.63 C19.93,46.67 19.87,46.72 19.8,46.76 C20.9114025,45.9716662 22.3226717,45.7358405 23.63,46.12 C23.6818328,46.1391857 23.7320016,46.1625978 23.78,46.19 C23.7643104,46.134486 23.7542595,46.0775311 23.75,46.02 C23.69,45.59 23.6,44.37 24.04,44.09 Z M26.41,42.6 C26.302783,42.1374827 26.2457864,41.6647465 26.24,41.19 C25.9570141,42.3374054 25.2400833,43.3303545 24.24,43.96 C24.1756651,44.0068192 24.1089057,44.0502128 24.04,44.09 C23.6,44.37 23.69,45.59 23.75,46.02 C24.4684169,45.3995543 24.9286035,44.5326911 25.04,43.59 L25.19,43.53 C25.9408651,43.2359634 26.7617659,43.1698739 27.55,43.34 C27.147435,43.1299711 26.765722,42.8821924 26.41,42.6 Z M43.4,54.89 C43.29,54.55 43.15,54.22 43.05,53.9 C42.39,51.78 42.54,53.13 42.62,50.95 C42.87,44.13 42.73,35.77 42.31,28.95 L2.69,28.95 C2.27,35.77 2.13,44.13 2.38,50.95 C2.46,53.13 2.61,51.78 1.95,53.9 C1.85,54.22 1.71,54.55 1.6,54.89 C1.33035387,55.4890316 1.3195018,56.1727122 1.57,56.78 C1.70744797,57.057427 1.90984988,57.2975648 2.16,57.48 L2.79,57.3 C4.49,56.81 6.19,56.15 7.97,56.67 C7.98,56.67 7.99,56.68 8,56.68 C9.93,57.25 11.56,58.31 13.57,58.65 C15.7011496,58.9298966 17.8520474,59.0302496 20,58.95 L23.61,58.95 C25.2222353,58.9852766 26.8345821,58.8849231 28.43,58.65 C30.45,58.31 32.09,57.24 34.03,56.67 C35.003799,56.4132311 36.0279522,56.4166794 37,56.68 C37.74,56.85 38.48,57.09 39.21,57.3 L41.08,57.83 C41.6890538,57.9968652 42.3411279,57.8671914 42.84,57.48 C43.0901501,57.2975648 43.292552,57.057427 43.43,56.78 C43.6804982,56.1727122 43.6696461,55.4890316 43.4,54.89 Z M24.04,44.09 C23.6,44.37 22.54,43.76 22.17,43.52 C22.1222847,43.4888502 22.0786179,43.4519013 22.04,43.41 C21.909241,44.7461523 21.1522532,45.9410055 20,46.63 C19.93,46.67 19.87,46.72 19.8,46.76 C20.9114025,45.9716662 22.3226717,45.7358405 23.63,46.12 C23.6818328,46.1391857 23.7320016,46.1625978 23.78,46.19 C23.7643104,46.134486 23.7542595,46.0775311 23.75,46.02 C23.69,45.59 23.6,44.37 24.04,44.09 Z M24.04,44.09 C23.6,44.37 22.54,43.76 22.17,43.52 C22.1222847,43.4888502 22.0786179,43.4519013 22.04,43.41 C21.909241,44.7461523 21.1522532,45.9410055 20,46.63 C19.93,46.67 19.87,46.72 19.8,46.76 C20.9114025,45.9716662 22.3226717,45.7358405 23.63,46.12 C23.6818328,46.1391857 23.7320016,46.1625978 23.78,46.19 C23.7643104,46.134486 23.7542595,46.0775311 23.75,46.02 C23.69,45.59 23.6,44.37 24.04,44.09 Z" id="Shape" fill="#E8EDFC"/><path d="M46,21.42 L46,27.95 C45.9437921,28.3747432 45.6871413,28.7467009 45.31,28.95 C44.7479354,29.316489 44.1391489,29.6057467 43.5,29.81 C43.7856771,29.6114101 43.9687553,29.2965156 44,28.95 L44,23.09 C45.29,22.58 46,22.02 46,21.42 Z" id="Shape" fill="#CAD9FC"/><path d="M44,23.09 L44,28.95 C43.9687553,29.2965156 43.7856771,29.6114101 43.5,29.81 C39.82,31.08 32.47,31.95 24,31.95 C13.75,31.95 5.13,30.68 2.69,28.95 C2.31285868,28.7467009 2.05620787,28.3747432 2,27.95 L2,21.42 C2,23.1 7.72,24.54 15.82,25.14 C18.35,25.32 21.11,25.42 24,25.42 C25.59,25.42 27.14,25.39 28.64,25.33 C35.1,25.08 40.5,24.31 43.49,23.27 C43.67,23.21 43.84,23.15 44,23.09 Z" id="Shape" fill="#E8EDFC"/><path d="M44,22.42 L44,23.09 C43.84,23.15 43.67,23.21 43.49,23.27 C43.7805157,23.0790623 43.9682388,22.7661905 44,22.42 Z" id="Shape" fill="#CAD9FC"/><path d="M22.57,48.91 C22.57,48.9 22.56,48.89 22.56,48.87" id="Shape" fill="#B19046"/><path d="M20.79,46.07 C20.7749512,46.062519 20.7613954,46.0523522 20.75,46.04" id="Shape" fill="#B19046"/><path d="M20.21,40.36 C20.1836117,40.3874939 20.1601524,40.4176559 20.14,40.45" id="Shape" fill="#B19046"/><path d="M29.41,35.8 C28.8752112,36.3413232 28.525207,37.0378316 28.41,37.79 C28.31,38.82 29.07,39.5 29.24,40.46 C29.2516027,40.5227161 29.2582897,40.5862426 29.26,40.65 L29.26,40.67 C29.25,40.84 29.24,41.01 29.24,41.16 L29.24,41.19 C28.9570141,42.3374054 28.2400833,43.3303545 27.24,43.96 C27.1756651,44.0068192 27.1089057,44.0502128 27.04,44.09 C26.6,44.37 25.54,43.76 25.17,43.52 C25.1222847,43.4888502 25.0786179,43.4519013 25.04,43.41 C25.03,43.31 25.02,43.22 25.01,43.12 C24.84,42.16 24.08,41.48 24.18,40.45 C24.2908997,39.6964644 24.6415436,38.998683 25.18,38.46 C25.3258247,38.3015107 25.3537778,38.0674527 25.2493782,37.8790796 C25.1449786,37.6907064 24.9316875,37.5903501 24.72,37.63 C24.6257044,37.6452112 24.5322489,37.6652374 24.44,37.69 C25.5068161,36.2033285 27.1373206,35.2199644 28.95,34.97 C29.1616875,34.9303501 29.3749786,35.0307064 29.4793782,35.2190796 C29.5837778,35.4074527 29.5558247,35.6415107 29.41,35.8 Z" id="Shape" fill="#E8EDFC"/><path d="M19.95,43.11 C19.84,44.14 20.6,44.82 20.77,45.78 C20.7862709,45.8757638 20.7929706,45.9729092 20.79,46.07 C20.6766937,47.4067359 19.9242038,48.6062495 18.77,49.29 L18.68,49.35 C18.6453752,49.3677643 18.6119684,49.3878084 18.58,49.41 C18.58,49.4126522 18.5789464,49.4151957 18.5770711,49.4170711 C18.5751957,49.4189464 18.5726522,49.42 18.57,49.42 C18.13,49.69 17.07,49.08 16.71,48.83 C14.9710533,47.5462453 14.5561159,45.1184204 15.77,43.33 C16.7560313,41.7495025 18.3727871,40.668024 20.21,40.36 C20.3017694,40.330805 20.3952882,40.3074253 20.49,40.29 C20.697665,40.2557007 20.9045741,40.3551236 21.0075509,40.538691 C21.1105277,40.7222583 21.0875197,40.9506591 20.95,41.11 C20.409398,41.6511586 20.0585657,42.3528232 19.95,43.11 Z" id="Shape" fill="#E8EDFC"/><path d="M36.09,46.33 C35.0732529,47.8520325 33.4813586,48.8952467 31.68,49.22 C31.75,49.14 31.8,49.06 31.86,48.99 C31.9929357,48.8164034 31.9976565,48.5765648 31.8716548,48.3978716 C31.7456532,48.2191784 31.5181578,48.1430819 31.31,48.21 C30.5894624,48.4580401 29.8089695,48.47204 29.08,48.25 C28.11,47.89 27.83,46.92 27.03,46.34 C26.95,46.29 26.87,46.24 26.78,46.19 C26.7643104,46.134486 26.7542595,46.0775311 26.75,46.02 C26.69,45.59 26.6,44.37 27.04,44.09 C28.0698593,43.3975522 29.3270783,43.1289157 30.55,43.34 C30.56,43.34 30.56,43.34 30.57,43.35 C30.5909064,43.3535539 30.6111425,43.3602993 30.63,43.37 C30.64,43.37 30.65,43.38 30.66,43.38 C30.79,43.45 30.92,43.51 31.06,43.57 C31.07,43.57 31.08,43.58 31.09,43.58 C31.1487922,43.6095804 31.2055808,43.6429854 31.26,43.68 C32.06,44.25 32.35,45.23 33.32,45.59 C34.0489982,45.8118345 34.8294263,45.7978358 35.55,45.55 C35.7566066,45.4897397 35.9785935,45.5684468 36.1010961,45.745395 C36.2235987,45.9223433 36.2191291,46.1578278 36.09,46.33 Z" id="Shape" fill="#E8EDFC"/><path d="M27.63,51.65 C27.5659553,51.7381596 27.4957818,51.8216996 27.42,51.9 C26.3441052,53.4042036 24.6784053,54.3788926 22.84,54.58 C20.7034535,54.893972 18.6983101,53.4705405 18.29,51.35 C18.22,50.92 18.13,49.69 18.57,49.42 C18.5755228,49.42 18.58,49.4155228 18.58,49.41 C19.66,48.74 21.36,48.21 22.56,48.87 C22.646125,48.9052712 22.7269045,48.9523926 22.8,49.01 C23.59,49.58 23.88,50.56 24.85,50.91 C25.5782766,51.1369407 26.3603307,51.1229128 27.08,50.87 C27.2881578,50.8030819 27.5156532,50.8791784 27.6416548,51.0578716 C27.7676565,51.2365648 27.7629357,51.4764034 27.63,51.65 Z" id="Shape" fill="#E8EDFC"/><path d="M37.09,38.75 C36.44,40.21 34.65,42.85 33.54,43.55 C32.7746953,43.9495302 31.8648581,43.9606711 31.09,43.58 C31.08,43.58 31.07,43.57 31.06,43.57 C30.95,43.52 30.84,43.47 30.74,43.42 C30.71,43.41 30.69,43.39 30.66,43.38 C30.65,43.38 30.64,43.37 30.63,43.37 C30.6111425,43.3602993 30.5909064,43.3535539 30.57,43.35 C30.56,43.34 30.56,43.34 30.55,43.34 C30.147435,43.1299711 29.765722,42.8821924 29.41,42.6 C29.302783,42.1374827 29.2457864,41.6647465 29.24,41.19 L29.24,41.16 C29.271807,40.9986649 29.2785529,40.8333906 29.26,40.67 L29.26,40.65 C29.2522765,39.7904814 29.657751,38.9795324 30.35,38.47 C31.4196936,37.9603858 32.5704433,37.6422373 33.75,37.53 C34.563354,37.3998499 35.386364,37.3396296 36.21,37.35 C36.5422698,37.3585726 36.8482159,37.532818 37.0250992,37.8142233 C37.2019826,38.0956287 37.226343,38.4468708 37.09,38.75 Z" id="Shape" fill="#CAD9FC"/><path d="M34.09,38.75 C33.2686572,40.4986325 32.1331562,42.0815548 30.74,43.42 C30.71,43.41 30.69,43.39 30.66,43.38 C30.65,43.38 30.64,43.37 30.63,43.37 C30.6111425,43.3602993 30.5909064,43.3535539 30.57,43.35 C30.56,43.34 30.56,43.34 30.55,43.34 C30.147435,43.1299711 29.765722,42.8821924 29.41,42.6 C29.302783,42.1374827 29.2457864,41.6647465 29.24,41.19 L29.24,41.16 C29.271807,40.9986649 29.2785529,40.8333906 29.26,40.67 L29.26,40.65 C29.2522765,39.7904814 29.657751,38.9795324 30.35,38.47 C31.4196936,37.9603858 32.5704433,37.6422373 33.75,37.53 C34.1433501,37.8010071 34.286486,38.3146123 34.09,38.75 Z" id="Shape" fill="#E8EDFC"/><path d="M31.86,48.99 C31.8,49.06 31.75,49.14 31.68,49.22 C30.6581606,50.6286481 29.1321666,51.5886631 27.42,51.9 C27.4957818,51.8216996 27.5659553,51.7381596 27.63,51.65 C27.7629357,51.4764034 27.7676565,51.2365648 27.6416548,51.0578716 C27.5156532,50.8791784 27.2881578,50.8030819 27.08,50.87 C26.3603307,51.1229128 25.5782766,51.1369407 24.85,50.91 C23.88,50.56 23.59,49.58 22.8,49.01 C22.7269045,48.9523926 22.646125,48.9052712 22.56,48.87 C22.5428915,48.8075206 22.5295343,48.744074 22.52,48.68 C22.46,48.25 22.36,47.03 22.8,46.76 C23.88,46.08 25.58,45.55 26.78,46.19 C26.87,46.24 26.95,46.29 27.03,46.34 C27.83,46.92 28.11,47.89 29.08,48.25 C29.8089695,48.47204 30.5894624,48.4580401 31.31,48.21 C31.5181578,48.1430819 31.7456532,48.2191784 31.8716548,48.3978716 C31.9976565,48.5765648 31.9929357,48.8164034 31.86,48.99 Z" id="Shape" fill="#E8EDFC"/><path d="M25.18,38.46 C24.6415436,38.998683 24.2908997,39.6964644 24.18,40.45 C24.08,41.48 24.84,42.16 25.01,43.12 C25.02,43.22 25.03,43.31 25.04,43.41 C24.909241,44.7461523 24.1522532,45.9410055 23,46.63 C22.93,46.67 22.87,46.72 22.8,46.76 C22.36,47.03 21.31,46.42 20.94,46.18 C20.91,46.16 20.84,46.11 20.79,46.07 C20.7929706,45.9729092 20.7862709,45.8757638 20.77,45.78 C20.6,44.82 19.84,44.14 19.95,43.11 C20.0585657,42.3528232 20.409398,41.6511586 20.95,41.11 C21.0875197,40.9506591 21.1105277,40.7222583 21.0075509,40.538691 C20.9045741,40.3551236 20.697665,40.2557007 20.49,40.29 C20.3952882,40.3074253 20.3017694,40.330805 20.21,40.36 C21.2347153,38.9704254 22.7447573,38.0172783 24.44,37.69 C24.5322489,37.6652374 24.6257044,37.6452112 24.72,37.63 C24.9316875,37.5903501 25.1449786,37.6907064 25.2493782,37.8790796 C25.3537778,38.0674527 25.3258247,38.3015107 25.18,38.46 Z" id="Shape" fill="#E8EDFC"/><path d="M2.16,57.48 C2.6588721,57.8671914 3.31094618,57.9968652 3.92,57.83 L5.159,57.479 C4.90926915,57.2963871 4.70723081,57.0562736 4.57,56.779 C4.3195018,56.1717122 4.33035387,55.4880316 4.6,54.889 C4.71,54.549 4.85,54.219 4.95,53.899 C5.61,51.779 5.46,53.129 5.38,50.949 C5.13,44.129 5.27,35.769 5.69,28.949 C5.31285868,28.7457009 5.05620787,28.3737432 5,27.949 L5,21.41 C5.03,19.31 13.91,17.6 25.19,17.44 L26.6,15.73 C27.2116865,14.9845463 28.0288308,14.4351471 28.95,14.15 C29.7745151,13.8872056 30.6530344,13.8424184 31.5,14.02 L38.22,3.46 L38.32,3.3 L38.71,2.68 L38.72,2.67 C38.7483903,2.60531852 38.7853918,2.54477056 38.83,2.49 C39.2568546,1.98032568 39.8040124,1.5850798 40.422,1.34 C40.1672456,1.23448643 39.901644,1.15735467 39.63,1.11 C38.2070855,0.850241864 36.7546435,1.37770762 35.83,2.49 C35.7853918,2.54477056 35.7483903,2.60531852 35.72,2.67 L35.71,2.68 L35.32,3.3 L35.22,3.46 L28.5,14.02 C27.6530344,13.8424184 26.7745151,13.8872056 25.95,14.15 C25.0288308,14.4351471 24.2116865,14.9845463 23.6,15.73 L22.19,17.44 C10.91,17.6 2.03,19.31 2,21.41 L2,27.95 C2.05620787,28.3747432 2.31285868,28.7467009 2.69,28.95 C2.27,35.77 2.13,44.13 2.38,50.95 C2.46,53.13 2.61,51.78 1.95,53.9 C1.85,54.22 1.71,54.55 1.6,54.89 C1.33035387,55.4890316 1.3195018,56.1727122 1.57,56.78 C1.70744797,57.057427 1.90984988,57.2975648 2.16,57.48 Z" id="Shape" fill="#FFFFFF"/><path d="M24,26.424 C21.163,26.424 18.387,26.329 15.749,26.142 C9.019,25.644 1,24.42 1,21.424 C1,16.97 18.64,16.495 22.176,16.444 C22.7208749,16.4544511 23.1642995,16.8856312 23.19,17.43 C23.1937391,17.6952241 23.0919518,17.951068 22.9070354,18.1412356 C22.722119,18.3314032 22.4692248,18.4403128 22.204,18.444 C10.104,18.616 3.81,20.449 3.039,21.422 C3.591,22.089 7.221,23.505 15.894,24.147 C18.481,24.331 21.21,24.424 24,24.424 C25.577,24.424 27.125,24.395 28.6,24.335 C39.61,23.902 44.32,22.214 44.961,21.424 C44.417,20.762 40.822,19.354 32.225,18.711 C31.6825885,18.6597441 31.2810252,18.1837142 31.3218947,17.6404214 C31.3627643,17.0971286 31.8310248,16.6865317 32.375,16.717 C39.046,17.217 47,18.437 47,21.424 C47,25.205 34.188,26.117 28.679,26.333 C27.178,26.394 25.6,26.424 24,26.424 Z" id="Shape" fill="#428DFF"/><path d="M24,32.955 C13.594,32.955 4.8,31.675 2.111,29.771 C1.45724178,29.3926529 1.03919422,28.7093276 1,27.955 C0.98260303,27.4027153 1.41621525,26.940897 1.9685,26.9235 C2.52078475,26.906103 2.98260303,27.3397153 3,27.892 C3.07626023,27.9892028 3.16818599,28.0730175 3.272,28.14 C5.242,29.538 13,30.955 24,30.955 C35,30.955 42.758,29.538 44.731,28.139 C44.8433761,28.0717317 44.9399077,27.9809988 45.014,27.873 C45.0141173,27.6127436 45.1198962,27.3636874 45.3071023,27.1828911 C45.4943084,27.0020949 45.7468974,26.9050537 46.007,26.914 C46.5656465,26.934045 47.0063295,27.3960298 47,27.955 C46.9610806,28.7086281 46.5433283,29.3913333 45.89,29.769 C43.2,31.675 34.406,32.955 24,32.955 Z" id="Shape" fill="#428DFF"/><path d="M3.688,29.016 C3.42933333,33.3193333 3.28766667,37.6316667 3.263,41.953 C3.24033333,44.9436667 3.279,47.932 3.379,50.918 L1.379,50.991 C1.272,47.971 1.238,44.954 1.261,41.939 C1.29166667,37.5883333 1.43466667,33.2396667 1.69,28.893 L3.688,29.016 Z" id="Shape" fill="#FFFFFF"/><path d="M2.444,33.948 C2.99418483,33.9694379 3.458191,33.5420873 3.482,32.992 L3.688,29.016 L1.688,28.893 L1.48,32.906 C1.46864195,33.1722793 1.56405037,33.4320756 1.74504477,33.6277148 C1.92603916,33.823354 2.17764275,33.9386474 2.444,33.948 Z" id="Shape" fill="#428DFF"/><path d="M1.381,50.991 L3.381,50.918 C3.27566667,47.9353333 3.237,44.947 3.265,41.953 L3.274,40.953 C3.27792993,40.5957344 3.09096241,40.2635108 2.78352629,40.0814746 C2.47609017,39.8994384 2.09489231,39.8952452 1.78352627,40.0704746 C1.47216023,40.245704 1.27792991,40.5737344 1.274,40.931 L1.265,41.931 C1.24,44.954 1.274,47.971 1.381,50.991 Z" id="Shape" fill="#428DFF"/><path d="M3.346,36.973 C3.34911377,36.7091939 3.25270943,36.4539009 3.076,36.258 L2.93,36.133 C2.87524188,36.0921077 2.81540901,36.0584937 2.752,36.033 C2.69628956,36.0024688 2.63627533,35.9805535 2.574,35.968 C2.50796574,35.9550174 2.44115878,35.9463325 2.374,35.942 C2.10924563,35.9375547 1.85265785,36.0336858 1.656,36.211 C1.26674417,36.600068 1.25004825,37.2257257 1.618,37.635 C1.71178985,37.7272992 1.82201923,37.8012377 1.943,37.853 C2.06211818,37.906518 2.19049255,37.9364041 2.321,37.941 C2.58640452,37.949884 2.84427091,37.8518785 3.03677803,37.6689591 C3.22928515,37.4860397 3.34032528,37.233512 3.345,36.968 L3.346,36.973 Z" id="Shape" fill="#428DFF"/><path d="M26.6,59.958 L25.8,59.958 L23,59.958 L22.2,59.958 C20.2611501,60.0191407 18.3206376,59.9130817 16.4,59.641 C15.1811578,59.3952853 13.9967735,59.0020576 12.873,58.47 C12.161163,58.1486408 11.4308788,57.8698172 10.686,57.635 C9.3453547,57.3937808 7.96352155,57.5466231 6.708,58.075 L4.191,58.797 C2.79320013,59.1897481 1.31395124,58.53081 0.671,57.229 C0.302518259,56.3841133 0.29529317,55.425344 0.651,54.575 C0.704,54.41 0.769,54.234 0.833,54.061 C0.891,53.907 0.947,53.761 0.994,53.607 C1.194,52.972 1.32,52.633 1.401,52.42 C1.428,52.349 1.448,52.3 1.46,52.257 C1.44402977,52.1935706 1.43596854,52.128409 1.436,52.063 C1.421,51.843 1.398,51.516 1.378,50.992 C1.35784161,50.4397153 1.78921525,49.9756584 2.3415,49.9555 C2.89378475,49.9353416 3.35784161,50.3667153 3.378,50.919 C3.396,51.409 3.418,51.719 3.433,51.919 C3.49685108,52.3291886 3.44058626,52.7490909 3.271,53.128 C3.199,53.32 3.082,53.628 2.904,54.2 C2.847,54.383 2.779,54.568 2.709,54.755 C2.655,54.902 2.6,55.055 2.551,55.201 C2.3671514,55.555446 2.33748951,55.969989 2.469,56.347 C2.68890253,56.777673 3.17988896,56.9960744 3.647,56.871 L6.134,56.158 C7.7568601,55.5045192 9.53767142,55.3495903 11.249,55.713 C12.0701946,55.9700371 12.8752962,56.2759156 13.66,56.629 C14.639701,57.0969736 15.6721079,57.4454739 16.735,57.667 C18.544207,57.9177358 20.3714355,58.0144163 22.197,57.956 L24.997,57.956 L25.797,57.956 C27.6222389,58.0150757 29.4491913,57.9183921 31.258,57.667 C32.3212572,57.4456352 33.3540141,57.0971301 34.334,56.629 C35.1180024,56.2761552 35.9224442,55.9706076 36.743,55.714 C38.4547738,55.34833 40.2367932,55.5029551 41.86,56.158 L44.348,56.872 C44.817899,56.9957625 45.3103271,56.7739405 45.529,56.34 C45.6562646,55.9692712 45.6270172,55.5626961 45.448,55.214 C45.394,55.05 45.339,54.902 45.285,54.755 C45.215,54.568 45.147,54.383 45.085,54.202 C44.907,53.626 44.785,53.32 44.718,53.128 C44.5484137,52.7490909 44.4921489,52.3291886 44.556,51.919 C44.571,51.713 44.593,51.407 44.611,50.919 C44.85,44.39 44.732,35.998 44.302,29.019 C44.2800282,28.6617344 44.4503243,28.3198856 44.7487394,28.1222246 C45.0471546,27.9245636 45.4283524,27.90112 45.7487394,28.0607246 C46.0691264,28.2203292 46.2800282,28.5387344 46.302,28.896 C46.736,35.937 46.855,44.405 46.614,50.996 C46.594,51.52 46.571,51.847 46.556,52.067 C46.547,52.187 46.539,52.261 46.541,52.32 C46.541,52.306 46.564,52.353 46.591,52.42 C46.672,52.633 46.801,52.972 46.999,53.608 C47.045,53.756 47.099,53.908 47.159,54.061 C47.223,54.234 47.288,54.41 47.346,54.588 C47.6970733,55.4321311 47.6891296,56.3828532 47.324,57.221 C46.6847548,58.5249312 45.2072771,59.1884514 43.808,58.8 L41.29,58.077 C40.0336876,57.5489619 38.6513166,57.3961369 37.31,57.637 C36.5658939,57.8721628 35.8362955,58.1509796 35.125,58.472 C34.0016458,59.0029035 32.8179839,59.3954427 31.6,59.641 C29.9451282,59.8862801 28.2725984,59.9923185 26.6,59.958 Z" id="Shape" fill="#428DFF"/><path d="M2,28.955 C1.44771525,28.955 1,28.5072847 1,27.955 L1,21.424 C1,20.8717153 1.44771525,20.424 2,20.424 C2.55228475,20.424 3,20.8717153 3,21.424 L3,27.955 C3,28.5072847 2.55228475,28.955 2,28.955 Z" id="Shape" fill="#428DFF"/><path d="M46,28.955 C45.4477153,28.955 45,28.5072847 45,27.955 L45,21.424 C45,20.8717153 45.4477153,20.424 46,20.424 C46.5522847,20.424 47,20.8717153 47,21.424 L47,27.955 C47,28.5072847 46.5522847,28.955 46,28.955 Z" id="Shape" fill="#428DFF"/><path d="M28.5,15.024 C28.1354227,15.0235561 27.7999773,14.8247372 27.6245682,14.5051306 C27.449159,14.1855239 27.4615862,13.7957827 27.657,13.488 L34.857,2.161 C34.9116715,2.05730095 34.9763098,1.95917134 35.05,1.868 C35.2703991,1.57909317 35.6301733,1.4324808 35.9897278,1.48504953 C36.3492823,1.53761825 36.6520237,1.78109383 36.7804862,2.12100602 C36.9089487,2.46091821 36.8429124,2.84376533 36.608,3.121 C36.584468,3.18471834 36.5506903,3.24416705 36.508,3.297 L36.168,3.837 L29.344,14.561 C29.160348,14.8495021 28.8419963,15.0241429 28.5,15.024 Z" id="Shape" fill="#428DFF"/><path d="M32.06,17.964 C31.6504532,17.963739 31.282462,17.7137815 31.1312725,17.333163 C30.980083,16.9525446 31.0762593,16.5182102 31.374,16.237 L41.125,7.037 C41.1565484,7.00632096 41.1899441,6.97760065 41.225,6.951 C41.6194662,6.55204896 42.259271,6.53789007 42.671,6.919 C42.8625784,7.09526136 42.9745425,7.34164065 42.9813264,7.60187962 C42.9881103,7.86211858 42.8891348,8.11399666 42.707,8.3 C42.6282626,8.38057883 42.5447805,8.4563806 42.457,8.527 L32.747,17.69 C32.5614331,17.8657761 32.3156018,17.9638224 32.06,17.964 Z" id="Shape" fill="#428DFF"/><path d="M40.917,8.983 C40.6126504,8.98168384 40.3092946,8.94816386 40.012,8.883 C38.9045897,8.61630482 37.8752898,8.09326293 37.007,7.356 C34.882,5.6 34.007,3.134 35.063,1.856 C36.8220269,-0.272781568 39.9737184,-0.572526928 42.1025,1.1865 C44.2312816,2.94552693 44.5310269,6.09721843 42.772,8.226 C42.3001916,8.74620206 41.6180601,9.02457056 40.917,8.983 Z M38.917,2.043 C38.0212885,2.0417362 37.1718665,2.44077383 36.601,3.131 C36.7508776,4.22310881 37.3608825,5.19889833 38.277,5.812 C39.627,6.929 40.953,7.104 41.239,6.938 C41.9700909,6.04073904 42.1198293,4.80294983 41.6237843,3.75723928 C41.1277394,2.71152873 40.0743975,2.04443457 38.917,2.043 Z" id="Shape" fill="#428DFF"/><path d="M28.64,26.334 C28.2527057,26.3340528 27.9002051,26.1104676 27.7351829,25.7600898 C27.5701608,25.409712 27.6222935,24.9955512 27.869,24.697 L30.539,21.467 C31.1319599,20.7519859 31.4575853,19.8528922 31.46,18.924 C31.4626383,18.6071458 31.4212426,18.2914615 31.337,17.986 C31.2925933,17.7673082 31.2255662,17.5538269 31.137,17.349 C30.8874381,16.7587084 30.497059,16.2385463 30,15.834 C29.1833328,15.1554598 28.1297956,14.8305998 27.072818,14.9313985 C26.0158403,15.0321971 25.0426953,15.5503315 24.369,16.371 L16.59,25.782 C16.2379185,26.2075354 15.6075354,26.2670815 15.182,25.915 C14.7564646,25.5629185 14.6969185,24.9325354 15.049,24.507 L22.829,15.098 C24.1640499,13.4799132 26.2472315,12.6765739 28.3230201,12.9793356 C30.3988088,13.2820974 32.1657452,14.6469913 32.983,16.579 C33.1149131,16.8836549 33.2154324,17.2009611 33.283,17.526 C33.4063212,17.9822825 33.4662172,18.4533747 33.461,18.926 C33.4588937,20.3202324 32.9713039,21.6702091 32.082,22.744 L29.412,25.974 C29.2211966,26.2030799 28.9381315,26.3350791 28.64,26.334 Z" id="Shape" fill="#428DFF"/><path d="M14.387,55.41 C14.0826019,55.4102902 13.794645,55.2719184 13.6046789,55.0340715 C13.4147128,54.7962246 13.3434235,54.4848024 13.411,54.188 C13.8662999,52.1610531 15.1141392,50.4007535 16.876,49.3 L28.876,41.758 C29.3426903,41.4777769 29.9477951,41.6223197 30.2374531,42.0832135 C30.5271111,42.5441072 30.3949065,43.152027 29.94,43.451 L17.94,50.993 C16.6285739,51.8128166 15.6995668,53.1231487 15.36,54.632 C15.2565516,55.0863606 14.8529874,55.4090461 14.387,55.41 Z" id="Shape" fill="#428DFF"/><path d="M26.748,45.165 C25.9773098,45.0945127 25.2409848,44.8128546 24.62,44.351 C24.5087907,44.2791615 24.4055426,44.1956914 24.312,44.102 C23.9500162,43.7127172 23.9558572,43.1082644 24.3252961,42.7260495 C24.6947351,42.3438345 25.2986402,42.3174549 25.7,42.666 C25.9960312,42.8684481 26.3179074,43.030227 26.657,43.147 C27.557,42.524 28.397,41.473 28.257,40.629 C28.1856486,40.3398774 28.0763676,40.0614628 27.932,39.801 C27.5574375,39.1635608 27.3777107,38.4304005 27.415,37.692 C27.4674793,37.2094671 27.609939,36.741046 27.835,36.311 C26.7951712,36.665232 25.8955262,37.3420677 25.267,38.243 C24.9588251,38.7013963 24.3373963,38.8231749 23.879,38.515 C23.4206037,38.2068251 23.2988251,37.5853963 23.607,37.127 C24.8238714,35.4199474 26.6853703,34.284191 28.76,33.983 C29.3901451,33.8577985 30.0295355,34.150886 30.346,34.71 C30.6710616,35.2741054 30.5951134,35.9834942 30.158,36.466 C29.7627667,36.8487184 29.4991232,37.3469451 29.405,37.889 C29.4161405,38.2563978 29.5278618,38.6136983 29.728,38.922 C29.9601285,39.3513384 30.1285591,39.8121646 30.228,40.29 C30.542,42.153 29.119,43.967 27.569,44.941 C27.3224913,45.0928864 27.0374895,45.1706458 26.748,45.165 Z" id="Shape" fill="#428DFF"/><path d="M22.515,47.826 C21.7442151,47.7559204 21.0077833,47.4742214 20.387,47.012 C20.2788324,46.9412583 20.1782944,46.8594875 20.087,46.768 C19.7117692,46.3818401 19.7096588,45.7679075 20.0822258,45.3791769 C20.4547929,44.9904464 21.0682619,44.9664974 21.47,45.325 C21.7663796,45.5279771 22.0885673,45.6904162 22.428,45.808 C23.293691,45.306648 23.8867771,44.4412715 24.042,43.453 C24.042,43.397 24.033,43.333 24.023,43.263 C23.9494795,42.9840899 23.8416569,42.7153729 23.702,42.463 C23.3275184,41.8258938 23.1477903,41.093076 23.185,40.355 C23.2372242,39.8719671 23.3800522,39.4031113 23.606,38.973 C22.5630295,39.3211716 21.660513,39.9970944 21.033,40.9 C20.7210637,41.3476364 20.1078916,41.4626127 19.6549746,41.1583944 C19.2020576,40.854176 19.0765889,40.2430645 19.373,39.785 C20.5225656,38.1662281 22.2596037,37.0611992 24.213,36.706 L24.388,36.67 C24.4,36.67 24.507,36.644 24.519,36.642 C25.1539747,36.5166839 25.7977221,36.8127763 26.1157958,37.3764484 C26.4338695,37.9401204 26.3545314,38.6442418 25.919,39.123 C25.5304721,39.5105744 25.2683176,40.0066461 25.167,40.546 C25.1780607,40.9137229 25.289781,41.2713662 25.49,41.58 C25.722142,42.0086255 25.8905787,42.4687945 25.99,42.946 C26.013,43.107 26.024,43.221 26.032,43.353 C26.103,45.194 24.621,46.788 23.332,47.598 C23.087022,47.7504478 22.8035166,47.8295655 22.515,47.826 Z" id="Shape" fill="#428DFF"/><path d="M18.281,50.487 C17.5081663,50.415992 16.7703247,50.1313811 16.15,49.665 C13.9754559,48.0834685 13.4273084,45.0723997 14.905,42.826 C16.0928133,40.9150694 18.0640611,39.6264018 20.291,39.305 C20.9210994,39.1786367 21.5613165,39.4699374 21.88,40.028 C22.2024333,40.594113 22.1245735,41.3033234 21.687,41.786 C21.293551,42.1690936 21.0322693,42.6674903 20.941,43.209 C20.9483422,43.5793891 21.0591886,43.9403327 21.261,44.251 C21.4932628,44.677803 21.6617195,45.1363423 21.761,45.612 C22.086,47.468 20.661,49.285 19.108,50.262 C18.8597818,50.4151421 18.572591,50.4932774 18.281,50.487 Z M19.366,41.637 C18.2213973,42.0216375 17.2513597,42.8016385 16.63,43.837 C15.6919142,45.1725409 15.9722959,47.0100106 17.266,48.005 C17.5520222,48.2009857 17.8635982,48.3567737 18.192,48.468 C19.099,47.845 19.934,46.795 19.787,45.957 C19.7173512,45.6676386 19.6086896,45.3890883 19.464,45.129 C19.0883397,44.4888496 18.9098909,43.7520959 18.951,43.011 C19.0018131,42.5306833 19.1425983,42.0642263 19.366,41.636 L19.366,41.637 Z" id="Shape" fill="#428DFF"/><path d="M31.684,50.216 C31.1589738,50.2164913 30.7229697,49.8108711 30.6856005,49.2871762 C30.6482313,48.7634814 31.0222236,48.3000625 31.542,48.226 C32.6277552,48.0515603 33.6292314,47.5343528 34.4,46.75 C33.9176477,46.7660896 33.4364988,46.6925101 32.981,46.533 C32.2958229,46.2463473 31.7096696,45.7651871 31.295,45.149 C31.1219131,44.9034324 30.9163802,44.6824257 30.684,44.492 C29.99,44.003 28.684,44.301 27.729,44.847 C27.6866248,45.1920097 27.6909976,45.5411598 27.742,45.885 C27.742,45.895 27.734,45.87 27.722,45.838 C27.9071006,46.3520513 27.6453581,46.9195077 27.1341779,47.1123956 C26.6229977,47.3052835 26.0516307,47.0521912 25.851,46.544 C25.8130626,46.440881 25.7865704,46.3339058 25.772,46.225 C25.618,45.136 25.632,43.798 26.507,43.248 C28.056,42.274 30.307,41.778 31.845,42.864 C32.234143,43.1618246 32.5780531,43.5144924 32.866,43.911 C33.183,44.311 33.377,44.547 33.666,44.654 C34.1920159,44.7928656 34.7475757,44.7709218 35.261,44.591 C35.8825418,44.4030526 36.5544424,44.6363657 36.9257424,45.1690708 C37.2970424,45.7017758 37.2834238,46.4129017 36.892,46.931 C35.721949,48.6673625 33.8933777,49.8504069 31.83,50.206 C31.7815848,50.212328 31.7328258,50.2156676 31.684,50.216 Z" id="Shape" fill="#428DFF"/><path d="M27.451,52.877 C26.9261673,52.8769647 26.4906617,52.4711973 26.4535681,51.9476771 C26.4164745,51.4241568 26.7904156,50.9610368 27.31,50.887 C28.3951598,50.7151518 29.3958119,50.1974643 30.163,49.411 C29.6809321,49.4278085 29.1999788,49.354207 28.745,49.194 C28.0603215,48.9074515 27.4745485,48.4266657 27.06,47.811 C26.8865863,47.5653832 26.6807165,47.3443759 26.448,47.154 C26.416,47.132 26.363,47.101 26.302,47.067 C25.3470503,46.7851676 24.3160332,46.9466655 23.493,47.507 C23.4501149,47.8523158 23.4544884,48.2018653 23.506,48.546 C23.506,48.561 23.498,48.531 23.485,48.499 C23.6175219,48.8346737 23.5588997,49.2157104 23.3316082,49.4960271 C23.1043167,49.7763438 22.7436213,49.912448 22.3878065,49.8521597 C22.0319917,49.7918713 21.7362638,49.5445444 21.614,49.205 C21.5760689,49.1015356 21.5495778,48.9942298 21.535,48.885 C21.382,47.797 21.396,46.459 22.271,45.909 C23.562,45.098 25.641,44.454 27.251,45.309 C27.3680536,45.3722596 27.481863,45.4413463 27.592,45.516 C27.988605,45.8155683 28.3384344,46.1724752 28.63,46.575 C28.948,46.975 29.142,47.21 29.43,47.317 C29.9566806,47.4648421 30.5165745,47.4427962 31.03,47.254 C31.651359,47.0659579 32.3231657,47.2989713 32.6946412,47.8313741 C33.0661168,48.3637769 33.0529436,49.0747241 32.662,49.593 L32.462,49.852 C31.2964808,51.4525389 29.5518096,52.534436 27.6,52.867 C27.5506459,52.8739839 27.5008447,52.8773262 27.451,52.877 Z" id="Shape" fill="#428DFF"/><path d="M22.422,55.6 C19.9249911,55.7111332 17.7330285,53.9526844 17.3,51.491 C17.179,50.65 17.114,49.152 18.043,48.569 C19.596,47.591 21.851,47.097 23.384,48.194 C23.7686943,48.4890125 24.1088583,48.8379332 24.394,49.23 C24.711,49.63 24.905,49.865 25.194,49.971 C25.7217109,50.1227094 26.2839044,50.1034562 26.8,49.916 C27.4241822,49.7287931 28.0978308,49.9660047 28.467,50.503 C28.834039,51.0316124 28.8191034,51.7364112 28.43,52.249 C27.175389,54.1171249 25.1592989,55.3352708 22.922,55.577 C22.752,55.59 22.586,55.6 22.422,55.6 Z M19.261,50.171 C19.2183803,50.5157448 19.2237649,50.8647341 19.277,51.208 C19.6123342,52.8055973 21.1478304,53.8545515 22.758,53.586 C23.960322,53.4756541 25.0839167,52.9402713 25.927,52.076 C25.4440175,52.0890494 24.9627331,52.0134674 24.507,51.853 C23.8211119,51.5690006 23.2345185,51.0885229 22.821,50.472 C22.6490834,50.2297317 22.445623,50.0114742 22.216,49.823 C21.525,49.325 20.216,49.622 19.261,50.168 L19.261,50.171 Z" id="Shape" fill="#428DFF"/><path d="M32.406,44.865 C31.070643,44.7537856 29.8018735,44.2342674 28.772,43.377 C28.6047599,43.2398088 28.4865134,43.0520881 28.435,42.842 C28.341,42.456 27.579,39.028 29.818,37.621 C31.173,36.769 34.523,36.305 36.241,36.349 C36.9056879,36.3703023 37.516311,36.7206024 37.8702165,37.2836429 C38.224122,37.8466835 38.2750131,38.5488094 38.006,39.157 C37.306,40.724 35.43,43.542 34.075,44.394 C33.5753072,44.7077171 32.995977,44.8712069 32.406,44.865 Z M30.314,42.034 C30.977,42.491 32.261,43.17 33.014,42.701 C34.3440173,41.4691484 35.4202246,39.9890236 36.182,38.344 C34.3688296,38.3167925 32.5680034,38.6463777 30.882,39.314 C30.132,39.786 30.189,41.239 30.314,42.034 Z" id="Shape" fill="#428DFF"/><path d="M9.386,53.955 C8.20156146,54.0171302 7.05568847,53.5244048 6.286,52.622 C4.836,50.853 5.341,48.07 5.403,47.758 C5.51069554,47.2162087 6.03720867,46.8643045 6.57899999,46.972 C7.12079132,47.0796956 7.47269551,47.6062087 7.365,48.148 C7.12141427,49.2390571 7.28875806,50.3816235 7.835,51.357 C8.23000414,51.7868972 8.80247352,52.0086413 9.384,51.957 C9.93628475,51.957 10.384,52.4047153 10.384,52.957 C10.384,53.5092847 9.93628475,53.957 9.384,53.957 L9.386,53.955 Z" id="Shape" fill="#428DFF"/><path d="M38.386,53.955 C37.8337153,53.955 37.386,53.5072847 37.386,52.955 C37.386,52.4027153 37.8337153,51.955 38.386,51.955 C38.9672321,52.0066334 39.5393951,51.7848648 39.934,51.355 C40.4804918,50.379722 40.6481876,49.2371829 40.405,48.146 C40.31214,47.6112185 40.6628411,47.1000017 41.195199,46.9941273 C41.7275568,46.888253 42.2471743,47.2263825 42.366,47.756 C42.429,48.068 42.933,50.851 41.483,52.62 C40.7147352,53.5227945 39.5698538,54.0163097 38.386,53.955 Z" id="Shape" fill="#428DFF"/><path d="M21.745,26.4 C21.3529289,26.3996011 20.9972609,26.1701196 20.8353127,25.8130584 C20.6733645,25.4559972 20.7350169,25.0372366 20.993,24.742 L26.633,18.292 C26.9966795,17.8761296 27.6286296,17.8338205 28.0445,18.1975 C28.4603704,18.5611795 28.5026795,19.1931296 28.139,19.609 L22.5,26.062 C22.3089122,26.2783547 22.0336545,26.4015827 21.745,26.4 Z" id="Shape" fill="#428DFF"/></g></g></svg>
