<?xml version="1.0" encoding="UTF-8"?>
<svg xmlns="http://www.w3.org/2000/svg" xmlns:xlink="http://www.w3.org/1999/xlink" width="512" height="512" viewBox="0 0 60 60" version="1.1"><!-- Generator: Sketch 51.3 (57544) - http://www.bohemiancoding.com/sketch --><title>002 - Malt Grinder</title><desc>Created with Sketch.</desc><defs/><g id="Page-1" stroke="none" stroke-width="1" fill="none" fill-rule="evenodd"><g id="002---Malt-Grinder" fill-rule="nonzero"><path d="M59,37 L52.3,44.66 C52.2028648,44.7745833 52.0793122,44.8638157 51.94,44.92 L34.06,44.92 C33.9206878,44.8638157 33.7971352,44.7745833 33.7,44.66 L33.63,44.58 L33.05,43.92 L27,37 L43.31,34 L55.68,36.37 L59,37 Z" id="Shape" fill="#CAD9FC"/><path d="M55.68,36.37 L49.3,43.66 C49.2028648,43.7745833 49.0793122,43.8638157 48.94,43.92 L33.05,43.92 L27,37 L43.31,34 L55.68,36.37 Z" id="Shape" fill="#E8EDFC"/><path d="M59,22 L59,37 L27,37 L27,27.25 L40.81,21 L58,21 C58.5522847,21 59,21.4477153 59,22 Z" id="Shape" fill="#CAD9FC"/><path d="M56,22 L56,37 L27,37 L27,27.25 L40.81,21 L55,21 C55.5522847,21 56,21.4477153 56,22 Z" id="Shape" fill="#E8EDFC"/><path d="M44.14,17.37 C43.29,18.32 42.11,19.61 40.81,21 C38.17,23.82 35.04,27.06 33.27,28.71 C32.39,29.52 32.86,28.95 32.29,30.02 C32.21,30.18 32.14,30.36 32.05,30.53 C31.9215247,30.8648959 31.661251,31.1323994 31.33,31.27 C30.8299259,31.4393037 30.280094,31.2294442 30.02,30.77 L29.51,29.85 C29.41,29.67 29.31,29.48 29.21,29.3 C28.9035957,28.6031443 28.3949573,28.014378 27.75,27.61 C27.5861387,27.5146871 27.4157092,27.4311433 27.24,27.36 C27.1619475,27.3192251 27.0818408,27.2825095 27,27.25 C26.2428744,26.9906576 25.5181072,26.645051 24.84,26.22 C23.908045,25.5047396 23.0382764,24.7119121 22.24,23.85 L21.47,23.08 C21.05,22.67 20.65,22.26 20.24,21.85 C19.8337101,21.4221211 19.4562166,20.9677927 19.11,20.49 C18.5905742,19.5443733 18.1264607,18.5694012 17.72,17.57 C17.2935148,16.9165307 16.6852066,16.4020758 15.97,16.09 C15.81,16 15.64,15.91 15.48,15.82 L14.56,15.31 C14.1406814,15.073213 13.9255054,14.590082 14.03,14.12 L14.06,14 C14.1946392,13.6667491 14.4631861,13.4054603 14.8,13.28 C14.97,13.19 15.15,13.12 15.31,13.03 C16.38,12.47 15.81,12.93 16.61,12.06 C19.09,9.41 25.08,3.73 27.96,1.19 C27.9941348,1.15398362 28.030903,1.12055794 28.07,1.09 L28.08,1.08 L44.14,17.37 Z" id="Shape" fill="#CAD9FC"/><path d="M42.14,15.37 C41.29,16.32 40.11,17.61 38.81,19 C36.17,21.82 33.04,25.06 31.27,26.71 C30.39,27.52 30.86,26.95 30.29,28.02 C30.21,28.18 30.14,28.36 30.05,28.53 C29.9215247,28.8648959 29.661251,29.1323994 29.33,29.27 L29.21,29.3 C28.739918,29.4044946 28.256787,29.1893186 28.02,28.77 L27.51,27.85 C27.42,27.69 27.33,27.52 27.24,27.36 C26.9300815,26.6404353 26.4109348,26.0306993 25.75,25.61 C25.5,25.47 25.25,25.36 25,25.25 C24.2428744,24.9906576 23.5181072,24.645051 22.84,24.22 C22.3592462,23.8699171 21.9016254,23.4891231 21.47,23.08 C21.05,22.67 20.65,22.26 20.24,21.85 L19.47,21.08 C18.6116485,20.2848174 17.8221623,19.4183898 17.11,18.49 C16.6539755,17.7283767 16.2722198,16.9246805 15.97,16.09 C15.8968129,15.9119689 15.8133388,15.7383427 15.72,15.57 C15.3120208,14.9305519 14.7240242,14.4260578 14.03,14.12 L14.06,14 C14.1946392,13.6667491 14.4631861,13.4054603 14.8,13.28 C14.97,13.19 15.15,13.12 15.31,13.03 C16.38,12.47 15.81,12.93 16.61,12.06 C19.09,9.41 25.08,3.73 27.96,1.19 C27.9941348,1.15398362 28.030903,1.12055794 28.07,1.09 L42.14,15.37 Z" id="Shape" fill="#E8EDFC"/><path d="M40.45,10.66 C38.6020367,10.9138471 36.785559,11.3595879 35.03,11.99 C34.69,11.67 34.34,11.34 34,11 C29.53,6.53 27.25,1.9 27.96,1.19 C28.67,0.48 33.53,3.53 38,8 C38.91,8.91 39.73,9.8 40.45,10.66 Z" id="Shape" fill="#A4C2F7"/><path d="M55.13,21 L48,21 C47.3471631,19.6967696 46.3245147,18.6149884 45.06,17.89 L44.14,17.37 C43.5,18.01 39.42,15.96 35.35,12.27 C35.2384445,12.1824061 35.131627,12.0889407 35.03,11.99 C36.785559,11.3595879 38.6020367,10.9138471 40.45,10.66 C44.51,10.1 49.72,10.44 52,15 C53.37,17.74 54.39,19.66 55.13,21 Z" id="Shape" fill="#CAD9FC"/><path d="M52.59,21 L48,21 C47.3471631,19.6967696 46.3245147,18.6149884 45.06,17.89 L44.14,17.37 C43.5,18.01 39.42,15.96 35.35,12.27 C36.3714238,12.0102323 37.4063065,11.8065941 38.45,11.66 C42.51,11.1 47.72,11.44 50,16 C51.06,18.12 51.91,19.75 52.59,21 Z" id="Shape" fill="#E8EDFC"/><path d="M10,50.85 C10,51.49 8.67,52.19 8.18,52.41 C5.67,53.52 3.07,52.1 1.87,49.8 C0.889128746,47.808881 0.791136042,45.4969791 1.6,43.43 C1.67980617,43.6279172 1.76992976,43.8215161 1.87,44.01 C3.07,46.31 5.67,47.73 8.18,46.61 C8.21200491,46.5972299 8.24224923,46.5804275 8.27,46.56 L8.28,46.56 C9.43898222,47.6792157 10.064803,49.2401292 10,50.85 Z" id="Shape" fill="#E8EDFC"/><path d="M18.13,49.8 C17.1027081,52.1013537 14.5160177,53.2700909 12.11,52.52 C12.01,52.49 11.91,52.45 11.81,52.41 C11.33,52.19 10,51.49 10,50.85 C9.96752533,49.4338081 10.4308937,48.0507773 11.31,46.94 C11.436991,46.8063503 11.5740608,46.6826531 11.72,46.57 C11.75,46.58 11.78,46.6 11.81,46.61 C11.9097832,46.6586274 12.0134826,46.6987691 12.12,46.73 C13.3774742,47.1874237 14.7743858,47.0514086 15.92,46.36 C16.8629703,45.8000415 17.6289433,44.9855453 18.13,44.01 C18.2300702,43.8215161 18.3201938,43.6279172 18.4,43.43 C19.20402,45.4977845 19.1061129,47.8076685 18.13,49.8 Z" id="Shape" fill="#CAD9FC"/><path d="M10,45.06 C10,45.65 8.83,46.3 8.28,46.56 L8.27,46.56 C8.24224923,46.5804275 8.21200491,46.5972299 8.18,46.61 C5.67,47.73 3.07,46.31 1.87,44.01 C1.76992976,43.8215161 1.67980617,43.6279172 1.6,43.43 C0.886722723,41.5699832 0.883163018,39.5124737 1.59,37.65 C1.67,37.86 1.77,38.06 1.87,38.26 C3.07,40.56 5.67,41.98 8.18,40.86 C8.22,40.84 8.27,40.82 8.32,40.8 C9.45212025,41.9219037 10.0615875,43.4673384 10,45.06 Z" id="Shape" fill="#E8EDFC"/><path d="M18.4,43.43 C18.3201938,43.6279172 18.2300702,43.8215161 18.13,44.01 C17.1039024,46.3071708 14.5230215,47.4752234 12.12,46.73 C12.0134826,46.6987691 11.9097832,46.6586274 11.81,46.61 C11.78,46.6 11.75,46.58 11.72,46.57 C11.18,46.31 10,45.65 10,45.06 C9.97443293,43.6699217 10.4144294,42.3112125 11.25,41.2 C11.3859184,41.0589115 11.529467,40.9253779 11.68,40.8 C11.73,40.82 11.77,40.84 11.81,40.86 C11.9097832,40.9086274 12.0134826,40.9487691 12.12,40.98 C13.3807563,41.4379869 14.7809235,41.3020127 15.93,40.61 C16.8678894,40.0468532 17.6298477,39.2329432 18.13,38.26 C18.23,38.06 18.33,37.86 18.41,37.66 C19.1118759,39.5199329 19.1083186,41.5725111 18.4,43.43 Z" id="Shape" fill="#CAD9FC"/><path d="M10,39.31 C10,39.9 8.88,40.53 8.32,40.8 C8.27,40.82 8.22,40.84 8.18,40.86 C5.67,41.98 3.07,40.56 1.87,38.26 C1.77,38.06 1.67,37.86 1.59,37.65 C0.837161926,35.6179728 0.905311326,33.3726294 1.78,31.39 C1.87451479,31.1457783 2.11521141,30.9898956 2.37672835,31.00354 C2.63824529,31.0171843 2.86141319,31.1972687 2.93,31.45 C3.14598946,32.359711 3.64278899,33.1783807 4.35,33.79 C4.86844081,34.1490496 5.47966965,34.3504773 6.11,34.37 C6.638935,34.3904342 7.16163853,34.4916026 7.66,34.67 C8.52256648,35.0721305 9.18356779,35.8089844 9.49,36.71 C9.82244354,37.5367492 9.99548594,38.4189261 10,39.31 Z" id="Shape" fill="#E8EDFC"/><path d="M18.41,37.66 C18.33,37.86 18.23,38.06 18.13,38.26 C17.1039024,40.5571708 14.5230215,41.7252234 12.12,40.98 C12.0134826,40.9487691 11.9097832,40.9086274 11.81,40.86 C11.77,40.84 11.73,40.82 11.68,40.8 C11.13,40.54 10,39.9 10,39.31 C10.0008749,38.4195246 10.1705363,37.5372852 10.5,36.71 L10.51,36.71 C10.8164322,35.8089844 11.4774335,35.0721305 12.34,34.67 C12.8386114,34.4925164 13.361174,34.3913752 13.89,34.37 C14.5197858,34.347413 15.1301753,34.146262 15.65,33.79 C15.71,33.74 15.77,33.69 15.82,33.64 C16.4317551,33.0416724 16.8616589,32.2824068 17.06,31.45 C17.1311567,31.1968442 17.3558519,31.0172752 17.6184668,31.0036917 C17.8810818,30.9901081 18.1231044,31.1455366 18.22,31.39 C19.0897862,33.377237 19.1578622,35.6237434 18.41,37.66 Z" id="Shape" fill="#CAD9FC"/><path d="M14,33.53 C13.9991796,33.8135369 13.9622149,34.0958124 13.89,34.37 C13.361174,34.3913752 12.8386114,34.4925164 12.34,34.67 C11.4774335,35.0721305 10.8164322,35.8089844 10.51,36.71 L10.5,36.71 C10.2,36.9 10,37 10,37 C10,37 9.8,36.9 9.49,36.71 C9.27499831,36.1429351 8.93687568,35.6306281 8.5,35.21 C8.2536562,34.982362 7.96936571,34.7996039 7.66,34.67 C7.16163853,34.4916026 6.638935,34.3904342 6.11,34.37 C6.03778509,34.0958124 6.00082044,33.8135369 6,33.53 C6,31.98 7.44,29.92 8.5,27.42 C9.00277944,26.2931063 9.34608045,25.1016499 9.52,23.88 C9.58222222,23.6666667 9.77777778,23.52 10,23.52 C10.2222222,23.52 10.4177778,23.6666667 10.48,23.88 C11,28 14,31.29 14,33.53 Z" id="Shape" fill="#CAD9FC"/><path d="M15.92,46.36 C15.9612095,47.5559434 15.6888615,48.7418636 15.13,49.8 C14.4994818,51.0528703 13.4217725,52.0235223 12.11,52.52 C12.01,52.49 11.91,52.45 11.81,52.41 C11.33,52.19 10,51.49 10,50.85 C9.96752533,49.4338081 10.4308937,48.0507773 11.31,46.94 C11.5868074,46.8995356 11.8584003,46.8291226 12.12,46.73 C13.3774742,47.1874237 14.7743858,47.0514086 15.92,46.36 Z" id="Shape" fill="#E8EDFC"/><path d="M15.93,40.61 C15.951178,41.5766137 15.7706738,42.5370322 15.4,43.43 C15.3201938,43.6279172 15.2300702,43.8215161 15.13,44.01 C14.5006372,45.2600493 13.4272042,46.2300619 12.12,46.73 C12.0134826,46.6987691 11.9097832,46.6586274 11.81,46.61 C11.78,46.6 11.75,46.58 11.72,46.57 C11.18,46.31 10,45.65 10,45.06 C9.97443293,43.6699217 10.4144294,42.3112125 11.25,41.2 C11.5469252,41.1574427 11.8385367,41.0837018 12.12,40.98 C13.3807563,41.4379869 14.7809235,41.3020127 15.93,40.61 Z" id="Shape" fill="#E8EDFC"/><path d="M15.41,37.66 C15.33,37.86 15.23,38.06 15.13,38.26 C14.5006372,39.5100493 13.4272042,40.4800619 12.12,40.98 C12.0134826,40.9487691 11.9097832,40.9086274 11.81,40.86 C11.77,40.84 11.73,40.82 11.68,40.8 C11.13,40.54 10,39.9 10,39.31 C10.0008749,38.4195246 10.1705363,37.5372852 10.5,36.71 L10.51,36.71 C10.8164322,35.8089844 11.4774335,35.0721305 12.34,34.67 C12.8386114,34.4925164 13.361174,34.3913752 13.89,34.37 C14.5197858,34.347413 15.1301753,34.146262 15.65,33.79 C15.71,33.74 15.77,33.69 15.82,33.64 C16.064317,34.9918846 15.9222052,36.3852732 15.41,37.66 Z" id="Shape" fill="#E8EDFC"/><path d="M11,33.53 C10.9991796,33.8135369 10.9622149,34.0958124 10.89,34.37 C10.37,34.42 11.02,35.915 10.51,36.125 C10.2,36.255 8.75,34.98 8.5,35.21 C8.2536562,34.982362 7.96936571,34.7996039 7.66,34.67 C7.16163853,34.4916026 6.638935,34.3904342 6.11,34.37 C6.03778509,34.0958124 6.00082044,33.8135369 6,33.53 C6,31.98 7.44,29.92 8.5,27.42 C9.56,29.92 11,31.98 11,33.53 Z" id="Shape" fill="#E8EDFC"/><circle id="Oval" fill="#E8EDFC" cx="24.999" cy="51" r="2"/><path d="M52,51 L52,58 C52,58.5522847 51.5522847,59 51,59 L35,59 C34.4477153,59 34,58.5522847 34,58 L34,51 L52,51 Z" id="Shape" fill="#CAD9FC"/><path d="M49,51 L49,58 C49,58.5522847 48.5522847,59 48,59 L35,59 C34.4477153,59 34,58.5522847 34,58 L34,51 L49,51 Z" id="Shape" fill="#E8EDFC"/><path d="M43,48 C43,50.7614237 40.7614237,53 38,53 C37.6673619,53.0024124 37.3354364,52.9688845 37.01,52.9 L36.99,52.9 C34.659676,52.4268075 32.9849874,50.3778816 32.9849874,48 C32.9849874,45.6221184 34.659676,43.5731925 36.99,43.1 L37.01,43.1 C37.3354364,43.0311155 37.6673619,42.9975876 38,43 C40.7614237,43 43,45.2385763 43,48 Z" id="Shape" fill="#CAD9FC"/><path d="M53,48 C53,50.7614237 50.7614237,53 48,53 C47.6673619,53.0024124 47.3354364,52.9688845 47.01,52.9 L46.99,52.9 C44.659676,52.4268075 42.9849874,50.3778816 42.9849874,48 C42.9849874,45.6221184 44.659676,43.5731925 46.99,43.1 L47.01,43.1 C47.3354364,43.0311155 47.6673619,42.9975876 48,43 C50.7614237,43 53,45.2385763 53,48 Z" id="Shape" fill="#CAD9FC"/><path d="M41,48 C40.9976,50.3719065 39.3322299,52.4170978 37.01,52.9 L36.99,52.9 C34.659676,52.4268075 32.9849874,50.3778816 32.9849874,48 C32.9849874,45.6221184 34.659676,43.5731925 36.99,43.1 L37.01,43.1 C39.3322299,43.5829022 40.9976,45.6280935 41,48 Z" id="Shape" fill="#E8EDFC"/><path d="M51,48 C50.9976,50.3719065 49.3322299,52.4170978 47.01,52.9 L46.99,52.9 C44.659676,52.4268075 42.9849874,50.3778816 42.9849874,48 C42.9849874,45.6221184 44.659676,43.5731925 46.99,43.1 L47.01,43.1 C49.3322299,43.5829022 50.9976,45.6280935 51,48 Z" id="Shape" fill="#E8EDFC"/><path d="M14.56,15.31 L15.48,15.82 C15.64,15.91 15.81,16 15.97,16.09 C16.2722198,16.9246805 16.6539755,17.7283767 17.11,18.49 C17.8221623,19.4183898 18.6116485,20.2848174 19.47,21.08 L20.24,21.85 C20.65,22.26 21.05,22.67 21.47,23.08 L22.24,23.85 C23.0382764,24.7119121 23.908045,25.5047396 24.84,26.22 C25.5181072,26.645051 26.2428744,26.9906576 27,27.25 L27,37 L33.05,43.92 L33.63,44.58 L33.7,44.66 C33.7971352,44.7745833 33.9206878,44.8638157 34.06,44.92 L34.084,44.92 C32.6635253,46.6892997 32.6362679,49.2002816 34.018,51 L34,51 L34,58 C34,58.5522847 34.4477153,59 35,59 L38,59 C37.4477153,59 37,58.5522847 37,58 L37,51 L37.018,51 C35.6362679,49.2002816 35.6635253,46.6892997 37.084,44.92 L37.06,44.92 C36.9206878,44.8638157 36.7971352,44.7745833 36.7,44.66 L36.63,44.58 L36.05,43.92 L30,37 L30,27.25 C29.2428744,26.9906576 28.5181072,26.645051 27.84,26.22 C26.908045,25.5047396 26.0382764,24.7119121 25.24,23.85 L24.47,23.08 C24.05,22.67 23.65,22.26 23.24,21.85 L22.47,21.08 C21.6116485,20.2848174 20.8221623,19.4183898 20.11,18.49 C19.6539755,17.7283767 19.2722198,16.9246805 18.97,16.09 C18.81,16 18.64,15.91 18.48,15.82 L17.56,15.31 C17.1406814,15.073213 16.9255054,14.590082 17.03,14.12 L17.06,14 C17.1946392,13.6667491 17.4631861,13.4054603 17.8,13.28 C17.97,13.19 18.15,13.12 18.31,13.03 C19.38,12.47 18.81,12.93 19.61,12.06 C21.9,9.614 27.172,4.593 30.236,1.836 C29.6170708,1.38725877 28.8771819,1.13563381 28.113,1.114 L28.08,1.08 L28.07,1.09 C28.030903,1.12055794 27.9941348,1.15398362 27.96,1.19 C25.08,3.73 19.09,9.41 16.61,12.06 C15.81,12.93 16.38,12.47 15.31,13.03 C15.15,13.12 14.97,13.19 14.8,13.28 C14.4631861,13.4054603 14.1946392,13.6667491 14.06,14 L14.03,14.12 C13.9255054,14.590082 14.1406814,15.073213 14.56,15.31 Z" id="Shape" fill="#FFFFFF"/><path d="M7.35,33.79 C7.86844081,34.1490496 8.47966965,34.3504773 9.11,34.37 C9.03778509,34.0958124 9.00082044,33.8135369 9,33.53 C9,31.981 10.439,29.922 11.5,27.423 C10.9978324,26.2948372 10.654562,25.1024777 10.48,23.88 C10.4177778,23.6666667 10.2222222,23.52 10,23.52 C9.77777778,23.52 9.58222222,23.6666667 9.52,23.88 C9.34608045,25.1016499 9.00277944,26.2931063 8.5,27.42 C7.7,29.3 6.692,30.93 6.239,32.283 C6.48062288,32.8685728 6.86208434,33.3860007 7.35,33.79 Z" id="Shape" fill="#FFFFFF"/><path d="M7.884,52.522 C6.57674215,52.0195007 5.5026536,51.0494711 4.87,49.8 C3.88912875,47.808881 3.79113604,45.4969791 4.6,43.43 C3.88672272,41.5699832 3.88316302,39.5124737 4.59,37.65 C4.07730832,36.3716105 3.93352764,34.9750323 4.175,33.619 C3.56860594,33.024115 3.13784252,32.2736525 2.93,31.45 C2.86141319,31.1972687 2.63824529,31.0171843 2.37672835,31.00354 C2.11521141,30.9898956 1.87451479,31.1457783 1.78,31.39 C0.905311326,33.3726294 0.837161926,35.6179728 1.59,37.65 C0.883163018,39.5124737 0.886722723,41.5699832 1.6,43.43 C0.791136042,45.4969791 0.889128746,47.808881 1.87,49.8 C2.8993246,52.0961728 5.47955967,53.2640145 7.884,52.522 Z" id="Shape" fill="#FFFFFF"/><path d="M59,38 L27,38 C26.4477153,38 26,37.5522847 26,37 L26,27.25 C26,26.6977153 26.4477153,26.25 27,26.25 C27.5522847,26.25 28,26.6977153 28,27.25 L28,36 L58,36 L58,22 L40.809,22 C40.2567153,22 39.809,21.5522847 39.809,21 C39.809,20.4477153 40.2567153,20 40.809,20 L58,20 C59.1045695,20 60,20.8954305 60,22 L60,37 C60,37.5522847 59.5522847,38 59,38 Z" id="Shape" fill="#428DFF"/><path d="M51.939,45.92 C51.4631998,45.9227509 51.0513509,45.5898696 50.9542594,45.1240728 C50.8571678,44.6582761 51.1017244,44.1885724 51.539,44.001 L56.8,38 L29.2,38 L34.448,44 C34.7842886,44.1350658 35.0211861,44.4415024 35.0672052,44.8009673 C35.1132243,45.1604322 34.9611625,45.5166638 34.6697442,45.7320894 C34.3783259,45.947515 33.9931625,45.9884172 33.663,45.839 C33.3789674,45.7216757 33.1274959,45.5374462 32.93,45.302 L26.244,37.658 C25.9855376,37.3622181 25.924174,36.9425152 26.0871368,36.5851179 C26.2500997,36.2277205 26.6072044,35.9988271 27,36 L59,36 C59.3920711,36.0003989 59.7477391,36.2298804 59.9096873,36.5869416 C60.0716355,36.9440028 60.0099831,37.3627634 59.752,37.658 L53.052,45.318 C52.8568462,45.5460165 52.6104519,45.7245581 52.333,45.839 C52.2085086,45.8924077 52.074464,45.9199651 51.939,45.92 Z" id="Shape" fill="#428DFF"/><path d="M44,46 L42,46 C41.4477153,46 41,45.5522847 41,45 C41,44.4477153 41.4477153,44 42,44 L44,44 C44.5522847,44 45,44.4477153 45,45 C45,45.5522847 44.5522847,46 44,46 Z" id="Shape" fill="#428DFF"/><path d="M48,54 C44.6862915,54 42,51.3137085 42,48 C42,44.6862915 44.6862915,42 48,42 C51.3137085,42 54,44.6862915 54,48 C53.9966926,51.3123376 51.3123376,53.9966926 48,54 Z M48,44 C45.790861,44 44,45.790861 44,48 C44,50.209139 45.790861,52 48,52 C50.209139,52 52,50.209139 52,48 C52,45.790861 50.209139,44 48,44 Z" id="Shape" fill="#428DFF"/><path d="M38,54 C35.13748,54.0001342 32.6735126,51.9781339 32.1150234,49.1706243 C31.5565341,46.3631146 33.0590785,43.5520684 35.7037228,42.4566794 C38.3483672,41.3612904 41.3985014,42.2866563 42.988709,44.666837 C44.5789166,47.0470178 44.2662787,50.2190641 42.242,52.243 C41.1193265,53.3715861 39.5918808,54.004241 38,54 Z M38,44 C36.381795,43.9995364 34.922723,44.9741105 34.3034,46.4691111 C33.6840771,47.9641117 34.0265244,49.6849881 35.171,50.829 C36.7546906,52.3382067 39.2443094,52.3382067 40.828,50.829 C41.9723468,49.6851167 42.3148576,47.9644829 41.6957911,46.4695732 C41.0767247,44.9746634 39.618023,43.999941 38,44 Z" id="Shape" fill="#428DFF"/><path d="M25,54 C23.3431458,54 22,52.6568542 22,51 C22,49.3431458 23.3431458,48 25,48 C26.6568542,48 28,49.3431458 28,51 C28,52.6568542 26.6568542,54 25,54 Z M25,50 C24.4477153,50 24,50.4477153 24,51 C24,51.5522847 24.4477153,52 25,52 C25.5522847,52 26,51.5522847 26,51 C26,50.4477153 25.5522847,50 25,50 Z" id="Shape" fill="#428DFF"/><path d="M23.865,50.343 C23.5329589,50.3449581 23.2216007,50.1819728 23.034,49.908 C22.8836896,49.6917079 22.8262667,49.4242256 22.8745573,49.1652981 C22.9228478,48.9063705 23.0728286,48.6775694 23.291,48.53 C23.3385687,48.4974931 23.3879852,48.4677764 23.439,48.441 L23.929,48.202 C23.9659327,48.1838604 24.0040143,48.1681601 24.043,48.155 L24.049,48.155 L35.61,42.492 C35.931539,42.335339 36.312231,42.3621173 36.6086729,42.5622478 C36.9051148,42.7623783 37.0722701,43.1054564 37.0471729,43.4622479 C37.0220758,43.8190393 36.808539,44.135339 36.487,44.292 L24.849,49.992 C24.8025788,50.0147689 24.7544285,50.0338284 24.705,50.049 L24.34,50.231 C24.1929931,50.3060316 24.0300414,50.3444539 23.865,50.343 Z" id="Shape" fill="#428DFF"/><path d="M38,54 L25,54 C24.4477153,54 24,53.5522847 24,53 C24,52.4477153 24.4477153,52 25,52 L38,52 C38.5522847,52 39,52.4477153 39,53 C39,53.5522847 38.5522847,54 38,54 Z" id="Shape" fill="#428DFF"/><path d="M15.878,11.377 C18.924,8.2 22.069,5.241 25.265,2.277 L27.3,0.44 L28.623,1.94 L26.623,3.749 C23.465,6.677 20.296,9.663 17.344,12.743 L15.878,11.377 Z" id="Shape" fill="#FFFFFF"/><path d="M20.132,8.513 C19.9461625,8.32348941 19.6926074,8.21563425 19.4271947,8.21319583 C19.161782,8.21075741 18.906288,8.31393579 18.717,8.5 C17.761,9.441 16.817,10.386 15.878,11.377 L17.339,12.743 C18.239,11.794 19.175,10.856 20.119,9.926 C20.5090723,9.53783255 20.5148643,8.90827868 20.132,8.513 Z" id="Shape" fill="#428DFF"/><path d="M28.62,1.94 L27.3,0.44 L25.265,2.277 L24.527,2.958 C24.1218991,3.33355363 24.0979464,3.96639914 24.4735,4.3715 C24.8490536,4.77660086 25.4818991,4.80055363 25.887,4.425 L26.618,3.749 L28.62,1.94 Z" id="Shape" fill="#428DFF"/><path d="M21.6,5.708 C21.4111135,5.89360249 21.2990139,6.14350609 21.286,6.408 L21.303,6.599 C21.3135981,6.66576348 21.333456,6.73072258 21.362,6.792 C21.3803427,6.85289099 21.4080038,6.91057442 21.444,6.963 C21.4813077,7.01843987 21.5224058,7.07123255 21.567,7.121 C21.7527467,7.30939808 22.0027139,7.42081206 22.267,7.433 C22.6027534,7.44661969 22.9222855,7.28813658 23.1146188,7.01259392 C23.306952,6.73705125 23.3455473,6.38246969 23.217,6.072 C23.1726703,5.94962555 23.1047151,5.83715971 23.017,5.741 C22.8351788,5.54569929 22.5822185,5.43206446 22.3154551,5.42585191 C22.0486917,5.41963935 21.7907158,5.52137517 21.6,5.708 Z" id="Shape" fill="#428DFF"/><path d="M30.977,32.327 C30.2201415,32.3278414 29.5213833,31.9213467 29.148,31.263 L28.455,30 C28.213016,29.3934673 27.8033898,28.868341 27.274,28.486 C27.0535504,28.3667495 26.827267,28.2586141 26.596,28.162 L26.152,27.982 C25.4810607,27.7456145 24.842673,27.4254127 24.252,27.029 C23.3905007,26.3826245 22.5874171,25.661857 21.852,24.875 L20.438,23.461 C19.6541621,22.7249997 18.9361006,21.9219487 18.292,21.061 C17.9022442,20.4709315 17.5843278,19.8364417 17.345,19.171 C17.2007754,18.7851228 17.0338162,18.408129 16.845,18.042 C16.454873,17.5161278 15.9271608,17.1081457 15.32,16.863 L14.078,16.178 C13.1951523,15.6832951 12.7907072,14.6292993 13.116,13.671 C13.3333587,13.0874548 13.7820575,12.6195778 14.356,12.378 C14.428,12.34 14.523,12.295 14.617,12.252 C14.687,12.22 14.756,12.188 14.817,12.152 C15.159,11.972 15.346,11.888 15.466,11.834 L15.48,11.817 C15.561,11.724 15.68,11.587 15.872,11.376 C16.1138688,11.1128739 16.4777409,10.9987708 16.8265492,11.0766723 C17.1753575,11.1545738 17.4561097,11.4126447 17.5630492,11.7536723 C17.6699887,12.0946999 17.5868688,12.4668739 17.345,12.73 C17.173,12.917 17.068,13.038 16.997,13.121 C16.8176535,13.3594843 16.5751901,13.5430638 16.297,13.651 C16.197,13.695 16.044,13.764 15.767,13.909 C15.684,13.956 15.567,14.009 15.449,14.066 C15.386,14.096 15.323,14.124 15.261,14.157 C15.164355,14.1956105 15.0748009,14.2500188 14.996,14.318 C14.9835761,14.3633198 15.0043832,14.4111761 15.046,14.433 L16.26,15.102 C17.2151009,15.5133231 18.0254525,16.2007464 18.587,17.076 C18.817412,17.5134677 19.0207933,17.964647 19.196,18.427 C19.380535,18.9468195 19.6241293,19.4437387 19.922,19.908 C20.4993612,20.6720539 21.1417575,21.3847123 21.842,22.038 L23.267,23.464 C23.9262549,24.1703722 24.6456257,24.8181405 25.417,25.4 C25.877026,25.7001815 26.3720329,25.9429834 26.891,26.123 L27.385,26.323 C27.6753528,26.444961 27.9593792,26.5814672 28.236,26.732 C29.1178007,27.2845632 29.8088843,28.0943177 30.216,29.052 L30.893,30.28 C30.918304,30.3166317 30.9647778,30.3321229 31.007,30.318 C31.0689208,30.2466693 31.1185936,30.1655708 31.154,30.078 C31.205,29.978 31.24,29.902 31.274,29.825 C31.308,29.748 31.353,29.65 31.394,29.568 C31.556,29.268 31.626,29.108 31.67,29.011 C31.781332,28.7352728 31.9655776,28.4950277 32.203,28.316 C32.287,28.244 32.403,28.138 32.591,27.969 C34.43,26.255 37.666,22.889 40.079,20.311 C41.372,18.928 42.547,17.644 43.394,16.698 C43.6312864,16.4279673 43.9952511,16.3060727 44.3473071,16.3787304 C44.699363,16.451388 44.9853317,16.7074163 45.0963246,17.0493273 C45.2073175,17.3912382 45.1262537,17.7664145 44.884,18.032 C44.03,18.986 42.845,20.282 41.539,21.678 C39.103,24.278 35.831,27.684 33.95,29.436 C33.743,29.628 33.608,29.745 33.515,29.826 L33.484,29.852 C33.413,30.011 33.328,30.192 33.171,30.485 L33.099,30.643 C33.047,30.759 32.999,30.877 32.933,30.992 C32.6914301,31.5534043 32.2318742,31.9923831 31.66,32.208 C31.4404565,32.2850716 31.2096723,32.3252814 30.977,32.327 Z" id="Shape" fill="#428DFF"/><path d="M27.978,2.138 C27.7122976,2.14259428 27.4564836,2.03730167 27.271,1.847 C27.0860972,1.66953244 26.9799224,1.4254374 26.9761649,1.16917647 C26.9724074,0.912915531 27.0713799,0.665812473 27.251,0.483 C27.3231034,0.410879211 27.4003028,0.344039968 27.482,0.283 C27.9215761,-0.0335569672 28.5332845,0.0574476733 28.8616742,0.488255889 C29.1900639,0.919064105 29.1157219,1.53302037 28.694,1.873 C28.4955087,2.04547872 28.240954,2.13969241 27.978,2.138 Z" id="Shape" fill="#428DFF"/><path d="M43.763,18.467 C41.185,18.467 36.172,14.412 34.35,12.724 C33.996,12.391 33.639,12.054 33.292,11.707 C29.673,8.088 25.561,2.174 27.251,0.483 C27.812,-0.079 28.83,-0.358 32.121,1.818 C34.4850577,3.42951497 36.6900398,5.26281441 38.706,7.293 C39.636,8.224 40.48,9.141 41.215,10.018 C41.4613642,10.2897515 41.5391775,10.6745728 41.417751,11.0206939 C41.2963244,11.3668149 40.9951486,11.6186789 40.6330045,11.6769528 C40.2708603,11.7352268 39.9058768,11.590557 39.682,11.3 C38.982,10.467 38.182,9.594 37.292,8.705 C34.8715006,6.15688431 32.071803,3.99808137 28.992,2.305 C30.3542738,5.31464205 32.2958768,8.02656611 34.706,10.286 C35.038,10.618 35.381,10.942 35.714,11.255 C39.322,14.595 42.75,16.397 43.673,16.478 C44.1108645,16.2460304 44.6525738,16.3697031 44.9463847,16.7687148 C45.2401956,17.1677265 45.1974911,17.7217304 44.846,18.071 C44.5539387,18.3448911 44.1628495,18.4878932 43.763,18.467 Z" id="Shape" fill="#428DFF"/><path d="M55.129,22 C54.764615,22.0001383 54.4289979,21.802063 54.253,21.483 C53.333,19.818 52.274,17.783 51.104,15.447 C49.075,11.39 44.263,11.141 40.585,11.647 C38.8124532,11.8906145 37.0698513,12.3168818 35.385,12.919 C34.8724743,13.1068587 34.3039944,12.8489977 34.1077278,12.3396325 C33.9114611,11.8302673 34.1599332,11.2576214 34.666,11.053 C36.4936818,10.393311 38.3857982,9.92807492 40.311,9.665 C46.511,8.809 50.865,10.498 52.89,14.549 C54.048,16.864 55.09,18.871 56.001,20.513 C56.1735673,20.8224872 56.1694657,21.2001879 55.990218,21.5058545 C55.8109703,21.8115211 55.4833466,21.9995034 55.129,22 Z" id="Shape" fill="#428DFF"/><path d="M48,22 C47.6191744,22.0020788 47.2702259,21.7876694 47.1,21.447 C46.5374557,20.3192932 45.652276,19.3843373 44.557,18.761 L43.64,18.239 C43.3295362,18.0621535 43.1370023,17.7331102 43.1349239,17.3758174 C43.1328455,17.0185246 43.3215385,16.6872637 43.6299239,16.5068174 C43.9383093,16.3263711 44.3195362,16.3241535 44.63,16.501 L45.547,17.024 C46.9865876,17.8425362 48.1499766,19.0710221 48.889,20.553 C49.0434684,20.8621081 49.0274047,21.2290608 48.8465159,21.5234883 C48.6656271,21.8179158 48.3455498,21.9980904 48,22 Z" id="Shape" fill="#428DFF"/><path d="M55,34 L54,34 C53.4477153,34 53,33.5522847 53,33 C53,32.4477153 53.4477153,32 54,32 L55,32 C55.5522847,32 56,32.4477153 56,33 C56,33.5522847 55.5522847,34 55,34 Z" id="Shape" fill="#428DFF"/><path d="M50,34 L42,34 C41.4477153,34 41,33.5522847 41,33 C41,32.4477153 41.4477153,32 42,32 L50,32 C50.5522847,32 51,32.4477153 51,33 C51,33.5522847 50.5522847,34 50,34 Z" id="Shape" fill="#428DFF"/><path d="M51,60 L35,60 C33.8954305,60 33,59.1045695 33,58 L33,51 C33,50.4477153 33.4477153,50 34,50 C34.5522847,50 35,50.4477153 35,51 L35,58 L51,58 L51,51 C51,50.4477153 51.4477153,50 52,50 C52.5522847,50 53,50.4477153 53,51 L53,58 C53,59.1045695 52.1045695,60 51,60 Z" id="Shape" fill="#428DFF"/><path d="M31.079,26 C30.2068409,25.9992228 29.3449213,25.8120417 28.551,25.451 C28.0608238,25.2028777 27.8626133,24.6057794 28.1071018,24.1137806 C28.3515903,23.6217818 28.9472057,23.4191587 29.441,23.66 C30.4315424,24.097335 31.5604576,24.097335 32.551,23.66 C33.0450187,23.4128526 33.6458525,23.6129813 33.893,24.107 C34.1401474,24.6010187 33.9400187,25.2018526 33.446,25.449 C32.711032,25.8154827 31.900261,26.0042173 31.079,26 Z" id="Shape" fill="#428DFF"/><path d="M6.419,53.782 C4.09258096,53.7134912 1.99735226,52.3567574 0.983,50.262 C-0.127707629,48.0319789 -0.248218039,45.4373752 0.651,43.114 C0.825798123,42.5893295 1.39282949,42.3057019 1.9175,42.4805 C2.44217051,42.6552981 2.72579812,43.2223295 2.551,43.747 C1.82149022,45.5534513 1.89641642,47.585188 2.757,49.333 C3.68,51.105 5.7,52.413 7.778,51.496 C8.22553759,51.3055605 8.63845498,51.0423341 9,50.717 C9.03497744,49.4631022 8.55424816,48.2497126 7.67,47.36 C7.2281722,47.0286292 7.13862915,46.4018278 7.47,45.96 C7.80137085,45.5181722 8.4281722,45.4286292 8.87,45.76 C10.2948988,47.0572803 11.074392,48.9174511 11,50.843 C11,52.058 9.49,52.917 8.59,53.322 C7.90653997,53.6256999 7.16689775,53.7824182 6.419,53.782 Z" id="Shape" fill="#428DFF"/><path d="M13.574,53.783 C12.8276425,53.7830152 12.0895234,53.6270122 11.407,53.325 C10.3,52.818 9,51.983 9,50.85 C8.91994548,48.9292351 9.69346268,47.0714028 11.113,45.775 C11.5517902,45.439487 12.179487,45.5232098 12.515,45.962 C12.850513,46.4007902 12.7667902,47.028487 12.328,47.364 C11.4501533,48.2561146 10.9710643,49.4657423 11,50.717 C11.3627336,51.0440261 11.7769704,51.3089215 12.226,51.501 C14.296,52.413 16.32,51.101 17.242,49.337 C18.0991274,47.585548 18.1743393,45.5530095 17.449,43.743 C17.3373545,43.4035977 17.4152588,43.0304149 17.6533671,42.7640259 C17.8914753,42.4976369 18.2536133,42.3785125 18.6033671,42.4515259 C18.9531208,42.5245392 19.2373545,42.7785977 19.349,43.118 C20.2423015,45.4426003 20.120799,48.0351369 19.014,50.266 C17.9969229,52.3597523 15.9007177,53.7149644 13.574,53.783 Z" id="Shape" fill="#428DFF"/><path d="M6.408,47.989 C4.08555331,47.9192568 1.99461461,46.5637119 0.983,44.472 C0.867898458,44.2541545 0.764094269,44.0305249 0.672,43.802 C-0.132322576,41.7233175 -0.143357462,39.4212979 0.641,37.335 C0.814693554,36.8103295 1.38082949,36.5258064 1.9055,36.6995 C2.43017051,36.8731936 2.71469355,37.4393295 2.541,37.964 C1.9045045,39.5975957 1.89915702,41.4096762 2.526,43.047 C2.59363401,43.2178361 2.67075404,43.3847626 2.757,43.547 C3.678,45.314 5.686,46.617 7.757,45.709 C7.79892595,45.685212 7.8423504,45.6641678 7.887,45.646 C8.29449775,45.4647591 8.67027418,45.2193058 9,44.919 C9.02866969,43.6793556 8.56061133,42.479686 7.7,41.587 C7.26535194,41.2462403 7.18924037,40.6176481 7.53000005,40.183 C7.87075973,39.748352 8.4993519,39.6722404 8.934,40.013 C10.3151484,41.3179019 11.0678531,43.1541225 11,45.053 C11,45.934 10.232,46.741 8.718,47.459 C8.66744845,47.4878601 8.6149943,47.5132519 8.561,47.535 C7.88264949,47.8342089 7.14940767,47.9888265 6.408,47.989 Z" id="Shape" fill="#428DFF"/><path d="M13.586,47.988 C12.8340616,47.9881495 12.0905463,47.829701 11.404,47.523 C11.37,47.509 11.336,47.494 11.314,47.483 C9.77,46.741 9,45.93 9,45.06 C8.9353263,43.1602446 9.68610799,41.3235043 11.063,40.013 C11.4976481,39.6714119 12.1269119,39.7468519 12.4685,40.1815 C12.8100881,40.6161481 12.7346481,41.2454119 12.3,41.587 C11.4413502,42.4805358 10.9736009,43.6790534 11,44.918 C11.3385301,45.227095 11.7248592,45.4793571 12.144,45.665 L12.187,45.685 L12.214,45.696 C14.296,46.622 16.319,45.315 17.241,43.547 C17.3260301,43.3882159 17.4024734,43.224981 17.47,43.058 C18.0952628,41.4191388 18.0906309,39.606644 17.457,37.971 C17.3321663,37.6278606 17.4042835,37.2439603 17.645133,36.9695159 C17.8859824,36.6950716 18.2572693,36.5737194 18.6137124,36.6529434 C18.9701555,36.7321674 19.255081,36.9993711 19.357,37.35 C20.1351467,39.4371733 20.1216281,41.7371182 19.319,43.815 C19.2275206,44.0403753 19.1247231,44.2609894 19.011,44.476 C17.9976417,46.5654579 15.9071926,47.9187588 13.586,47.988 Z" id="Shape" fill="#428DFF"/><path d="M6.412,42.242 C4.08770478,42.1725908 1.99452739,40.8173432 0.98,38.725 C-0.198664449,36.3073738 -0.249535379,33.4926376 0.841,31.034 C1.08475001,30.3876266 1.71581674,29.970679 2.406,30 C3.10546714,30.0300455 3.70649109,30.5060242 3.896,31.18 C4.05016057,31.8828062 4.42425584,32.5182077 4.964,32.994 C5.38434296,33.2541201 5.86969795,33.3900195 6.364,33.386 C6.93560906,33.4218704 7.49890117,33.5411321 8.036,33.74 C10.075,34.57 10.991,37.134 10.994,39.306 C10.994,40.521 9.487,41.375 8.587,41.776 C7.90286039,42.0826272 7.16171122,42.2414205 6.412,42.242 Z M2.366,32.8 C1.83657843,34.4530993 1.97512521,36.2477468 2.752,37.8 C3.677,39.569 5.698,40.875 7.776,39.952 C8.22281731,39.7636601 8.63486993,39.5016906 8.995,39.177 C8.959,37.706 8.373,36.037 7.285,35.594 C6.92056225,35.4707565 6.54111569,35.3974237 6.157,35.376 C5.29031808,35.3521037 4.44979229,35.0738991 3.74,34.576 C3.14608367,34.1028701 2.67480478,33.4937061 2.366,32.8 Z" id="Shape" fill="#428DFF"/><path d="M13.586,42.242 C12.8354689,42.2420218 12.093353,42.0839218 11.408,41.778 C10.508,41.378 8.998,40.522 9,39.307 C9,37.135 9.919,34.571 11.958,33.741 C12.4950988,33.5421321 13.0583909,33.4228704 13.63,33.387 C14.1243239,33.3911833 14.6097235,33.2552715 15.03,32.995 C15.5701031,32.5191799 15.9448386,31.8838806 16.1,31.181 C16.2885508,30.5054027 16.8911603,30.0284042 17.592,30 C18.2815653,29.97097 18.9120296,30.3873828 19.156,31.033 C20.2465354,33.4916376 20.1956644,36.3063738 19.017,38.724 C18.003443,40.8168856 15.9103636,42.1727047 13.586,42.242 Z M11,39.176 C11.3601301,39.5006906 11.7721827,39.7626601 12.219,39.951 C14.297,40.876 16.319,39.569 17.243,37.799 C18.0198748,36.2467468 18.1584216,34.4520993 17.629,32.799 C17.3201964,33.4929873 16.848931,34.1024769 16.255,34.576 C15.5450474,35.07358 14.7046202,35.351752 13.838,35.376 C13.4538843,35.3974237 13.0744377,35.4707565 12.71,35.594 C11.625,36.036 11.038,37.706 11,39.176 Z" id="Shape" fill="#428DFF"/><path d="M13.891,35.37 C13.8063076,35.3701354 13.7219493,35.3593806 13.64,35.338 C13.1054739,35.1998152 12.7840696,34.6545918 12.922,34.12 C12.9733643,33.9275259 12.9995824,33.7292095 13,33.53 C12.7880673,32.366765 12.3600123,31.2535505 11.738,30.248 C11.0527312,28.9705023 10.471517,27.639863 10,26.269 C9.52848299,27.639863 8.94726881,28.9705023 8.262,30.248 C7.63998773,31.2535505 7.21193268,32.366765 7,33.53 C7.00041764,33.7292095 7.02663574,33.9275259 7.078,34.12 C7.20245871,34.6493486 6.8811111,35.1811281 6.35460387,35.3171062 C5.82809663,35.4530843 5.28943277,35.1434152 5.142,34.62 C5.04897756,34.2640916 5.00126689,33.8978618 5,33.53 C5.178146,32.0427929 5.68285408,30.6133558 6.478,29.344 C7.47623775,27.6120888 8.16964786,25.7216161 8.528,23.755 C8.53469968,23.7004583 8.54607487,23.6465934 8.562,23.594 C8.75094133,22.9574037 9.33595656,22.5207974 10,22.5207974 C10.6640434,22.5207974 11.2490587,22.9574037 11.438,23.594 C11.4539251,23.6465934 11.4653003,23.7004583 11.472,23.755 C11.8303521,25.7216161 12.5237623,27.6120888 13.522,29.344 C14.3171459,30.6133558 14.821854,32.0427929 15,33.53 C14.9988173,33.8981966 14.9511059,34.2647677 14.858,34.621 C14.7437334,35.0616728 14.3462462,35.3695506 13.891,35.37 Z" id="Shape" fill="#428DFF"/><path d="M10,38 C9.84529654,38.0014466 9.69233998,37.9672281 9.553,37.9 C9.553,37.9 9.323,37.785 8.967,37.567 C8.50710564,37.277192 8.36294687,36.673088 8.64242237,36.2068424 C8.92189786,35.7405968 9.52263527,35.5829962 9.995,35.852 C10.1481904,35.7623217 10.3224908,35.7150362 10.5,35.715 C10.9695861,35.7063289 11.3819287,36.0256185 11.4910813,36.4824248 C11.600234,36.9392311 11.3767796,37.4104426 10.954,37.615 C10.647,37.804 10.447,37.904 10.447,37.904 C10.307106,37.9691802 10.1543205,38.0019932 10,38 Z" id="Shape" fill="#428DFF"/><path d="M14,60 C13.8456069,60.001545 13.692953,59.9673177 13.554,59.9 C10.7542361,58.5123311 8.98775943,55.6527645 9,52.528 L9,37 C9,36.4477153 9.44771525,36 10,36 C10.5522847,36 11,36.4477153 11,37 L11,52.528 C10.99172,54.8921547 12.3286717,57.0552471 14.447,58.105 C14.862452,58.3120599 15.0807945,58.7777907 14.9742238,59.2295837 C14.8676531,59.6813766 14.4641918,60.0004339 14,60 Z" id="Shape" fill="#428DFF"/><circle id="Oval" fill="#428DFF" cx="37.999" cy="48" r="1"/><circle id="Oval" fill="#428DFF" cx="47.999" cy="48" r="1"/></g></g></svg>
