<?xml version="1.0" encoding="UTF-8"?>
<svg xmlns="http://www.w3.org/2000/svg" xmlns:xlink="http://www.w3.org/1999/xlink" width="512" height="512" viewBox="0 0 60 60" version="1.1"><!-- Generator: Sketch 51.3 (57544) - http://www.bohemiancoding.com/sketch --><title>003 - Mashing Tank</title><desc>Created with Sketch.</desc><defs/><g id="Page-1" stroke="none" stroke-width="1" fill="none" fill-rule="evenodd"><g id="003---Mashing-Tank" transform="translate(0.000000, -1.000000)" fill-rule="nonzero"><path d="M29.105,49 C29.1630229,49.83849 29.6407943,50.590886 30.375,51 L19.208,51 L19.208,47 L30.375,47 C29.6407943,47.409114 29.1630229,48.16151 29.105,49 Z" id="Shape" fill="#A4C2F7"/><path d="M40,47 L40,51 L30.375,51 C31.0572137,50.5637197 31.4699863,49.8097876 31.4699863,49 C31.4699863,48.1902124 31.0572137,47.4362803 30.375,47 L40,47 Z" id="Shape" fill="#7FACFA"/><path d="M59,54.18 L59,57 C58.9967052,58.1032019 58.1032019,58.9967052 57,59 C55.8988312,58.9918328 55.0081672,58.1011688 55,57 L55,55.68 L59,54.18 Z" id="Shape" fill="#CAD9FC"/><path d="M51,56.02 L51,58 C50.9967052,59.1032019 50.1032019,59.9967052 49,60 C47.8988312,59.9918328 47.0081672,59.1011688 47,58 L47,56.02 C47.665,56.05 48.333,54.065 49,54.065 C49.667,54.065 50.335,56.05 51,56.02 Z" id="Shape" fill="#CAD9FC"/><path d="M43,55.68 L43,57 C42.9918328,58.1011688 42.1011688,58.9918328 41,59 C39.8967981,58.9967052 39.0032948,58.1032019 39,57 L39,54.18 L43,55.68 Z" id="Shape" fill="#CAD9FC"/><path d="M5,55.68 L5,57 C5.00282307,57.5305905 4.7898589,58.0395388 4.41,58.41 C4.0395388,58.7898589 3.53059053,59.0028231 3,59 C1.89679813,58.9967052 1.0032948,58.1032019 1,57 L1,54.18 L5,55.68 Z" id="Shape" fill="#CAD9FC"/><path d="M13,56.02 L13,58 C12.9967052,59.1032019 12.1032019,59.9967052 11,60 C9.89883122,59.9918328 9.00816722,59.1011688 9,58 L9,56.02 C9.665,56.05 10.333,55.42 11,55.42 C11.667,55.42 12.335,56.05 13,56.02 Z" id="Shape" fill="#CAD9FC"/><path d="M21,54.18 L21,57 C20.9967052,58.1032019 20.1032019,58.9967052 19,59 C17.8988312,58.9918328 17.0081672,58.1011688 17,57 L17,55.68 L21,54.18 Z" id="Shape" fill="#CAD9FC"/><path d="M14,3 L14,15 L8,15 L8,3 C8,2.44771525 8.44771525,2 9,2 L13,2 C13.5522847,2 14,2.44771525 14,3 Z" id="Shape" fill="#CAD9FC"/><path d="M12,3 L12,15 L8,15 L8,3 C8,2.44771525 8.44771525,2 9,2 L11,2 C11.5522847,2 12,2.44771525 12,3 Z" id="Shape" fill="#E8EDFC"/><path d="M52,3 L52,15 L46,15 L46,3 C46,2.44771525 46.4477153,2 47,2 L51,2 C51.5522847,2 52,2.44771525 52,3 Z" id="Shape" fill="#CAD9FC"/><path d="M15,14 L15,21.52 C14.3447533,21.3348446 13.6760567,21.2011052 13,21.12 C12.3366262,21.0368306 11.6685591,20.9967466 11,21 C10.65,21 10.32,21.01 10,21.03 C8.98441129,21.0767259 7.97767662,21.2411592 7,21.52 L7,14 C7,13.4477153 7.44771525,13 8,13 L14,13 C14.2652165,13 14.5195704,13.1053568 14.7071068,13.2928932 C14.8946432,13.4804296 15,13.7347835 15,14 Z" id="Shape" fill="#CAD9FC"/><path d="M13,14 L13,21.52 C12.0223234,21.2411592 11.0155887,21.0767259 10,21.03 C9.68,21.01 9.35,21 9,21 C8.33144086,20.9967466 7.66337377,21.0368306 7,21.12 L7,14 C7,13.4477153 7.44771525,13 8,13 L12,13 C12.5522847,13 13,13.4477153 13,14 Z" id="Shape" fill="#E8EDFC"/><path d="M53,14 L53,21.52 C52.3447533,21.3348446 51.6760567,21.2011052 51,21.12 C50.3366262,21.0368306 49.6685591,20.9967466 49,21 C48.65,21 48.32,21.01 48,21.03 C46.9844113,21.0767259 45.9776766,21.2411592 45,21.52 L45,14 C45,13.4477153 45.4477153,13 46,13 L52,13 C52.5522847,13 53,13.4477153 53,14 Z" id="Shape" fill="#CAD9FC"/><path d="M50,3 L50,15 L46,15 L46,3 C46,2.44771525 46.4477153,2 47,2 L49,2 C49.5522847,2 50,2.44771525 50,3 Z" id="Shape" fill="#E8EDFC"/><path d="M51,14 L51,21.52 C50.0223234,21.2411592 49.0155887,21.0767259 48,21.03 C47.68,21.01 47.35,21 47,21 C46.3314409,20.9967466 45.6633738,21.0368306 45,21.12 L45,14 C45,13.4477153 45.4477153,13 46,13 L50,13 C50.5522847,13 51,13.4477153 51,14 Z" id="Shape" fill="#E8EDFC"/><path d="M45,19 L45,19.52 C41.2,20.6 40,23 40,23 L39,23 C38.6871313,23.0014371 38.3762089,22.9507433 38.08,22.85 C37.6794405,22.723774 37.3109874,22.5122547 37,22.23 C36.3588639,21.6669944 35.9939452,20.8532257 36,20 C35.9999318,20.8624008 35.7191157,21.701339 35.2,22.39 C35.1388945,22.477634 35.0720832,22.5611481 35,22.64 C34.2429921,23.5048509 33.1493597,24.0006309 32,24 L32,46.77 C31.452655,46.2729499 30.7393528,45.9983286 30,46 C29.2603426,45.9966739 28.5464613,46.2715182 28,46.77 L28,43 L21,43 L21,39 L28,39 L28,24 C25.7929143,23.9950507 24.0049493,22.2070857 24,20 C24.0060548,20.8532257 23.6411361,21.6669944 23,22.23 C22.9378376,22.288732 22.8709449,22.3422461 22.8,22.39 C22.2833646,22.7856657 21.6507407,23.000055 21,23 L20,23 C20,23 19.97,22.95 19.92,22.85 C18.7443555,21.1737025 16.9931575,19.9884404 15,19.52 L15,19 L19.5,19 C19.7761424,19 20,18.7761424 20,18.5 L20,6.2 C19.9948513,4.67385487 20.8025533,3.26037636 22.12,2.49 C22.23,2.43 22.34,2.37 22.45,2.32 C22.6312861,2.24179513 22.8185533,2.17825804 23.01,2.13 C23.2034948,2.07799311 23.4007642,2.04121408 23.6,2.02 C23.74,2.01 23.86,2 24,2 C26.209139,2 28,3.790861 28,6 L28,17.84 C27.9880872,18.5993595 28.3702599,19.3107306 29.01,19.72 C29.1746317,19.8286512 29.3575863,19.9065763 29.55,19.95 C30.143568,20.0824061 30.7651751,19.9392285 31.2410115,19.5605016 C31.7168479,19.1817746 31.9958481,18.6081424 32,18 L32,6.23 C31.986679,4.35046266 33.2115132,2.68615306 35.01,2.14 C35.4145121,2.01686171 35.8382693,1.9694009 36.26,2 C36.3105343,2.00173825 36.3607756,2.00843709 36.41,2.02 C36.5413195,2.03020209 36.6716866,2.05025857 36.8,2.08 C36.9158881,2.09934968 37.0297157,2.12948052 37.14,2.17 C37.1708698,2.17185865 37.2012484,2.17860945 37.23,2.19 C37.4501391,2.26693301 37.6640925,2.3605376 37.87,2.47 C38.2240559,2.6526378 38.5478551,2.88874141 38.83,3.17 C39.5776392,3.92233113 39.9981058,4.93935734 40,6 L40,18.5 C40,18.7761424 40.2238576,19 40.5,19 L45,19 Z" id="Shape" fill="#7FACFA"/><path d="M43,19 L43,19.52 C39.77,20.44 39.923,23.127 39.583,23.667 C39.034925,23.4966012 38.5047542,23.2732128 38,23 L37,23 C36.3492593,23.000055 35.7166354,22.7856657 35.2,22.39 C35.1290551,22.3422461 35.0621624,22.288732 35,22.23 C34.38,21.69 34.167,23.89 34.167,23 C34.167,24.01 33.745,22.582 33.125,23.292 C32.4,24.122 31.2,24 30,24 L30,46.77 C29.4535387,46.2715182 28.7396574,45.9966739 28,46 L28,43 L19,43 L19,39 L28,39 L28,24 C25.7929143,23.9950507 24.0049493,22.2070857 24,20 C24.0060548,20.8532257 23.6411361,21.6669944 23,22.23 C22.9378376,22.288732 22.8709449,22.3422461 22.8,22.39 C22.3,21.72 22.208,22.9 22.208,22 C22.208,22.89 21.62,21.69 21,22.23 C20.6890126,22.5122547 20.3205595,22.723774 19.92,22.85 C19.6237911,22.9507433 19.3128687,23.0014371 19,23 L18,23 C18,23 16.8,20.6 13,19.52 L13,19 L19.5,19 C19.7761424,19 20,18.7761424 20,18.5 L20,6.2 C19.9948513,4.67385487 20.8025533,3.26037636 22.12,2.49 C22.23,2.43 22.34,2.37 22.45,2.32 C22.6312861,2.24179513 22.8185533,2.17825804 23.01,2.13 C24.7722604,2.58768748 26.0019373,4.17927602 26,6 L26,17.84 C25.9713188,18.8156683 26.6103928,19.6856336 27.55,19.95 C28.0480884,20.0652931 28.5714807,19.9828408 29.01,19.72 C29.1746317,19.8286512 29.3575863,19.9065763 29.55,19.95 C30.143568,20.0824061 30.7651751,19.9392285 31.2410115,19.5605016 C31.7168479,19.1817746 31.9958481,18.6081424 32,18 L32,6.23 C31.986679,4.35046266 33.2115132,2.68615306 35.01,2.14 C35.0551303,2.13925907 35.0997581,2.14955777 35.14,2.17 C35.1708698,2.17185865 35.2012484,2.17860945 35.23,2.19 C35.4501391,2.26693301 35.6640925,2.3605376 35.87,2.47 C36.2240559,2.6526378 36.5478551,2.88874141 36.83,3.17 C37.5776392,3.92233113 37.9981058,4.93935734 38,6 L38,18.5 C38,18.7761424 38.2238576,19 38.5,19 L43,19 Z" id="Shape" fill="#A4C2F7"/><path d="M21,27 L21,54.18 C21.000097,54.6552686 20.6656663,55.0649463 20.2,55.16 C19.14,55.37 18.07,55.54 17,55.68 C15.67,55.85 14.34,55.97 13,56.02 C11.84,56.07 10.66,56.08 9.5,56.04 C9.33,56.03 9.16,56.03 9,56.02 C7.66,55.97 6.33,55.85 5,55.68 C3.93,55.54 2.86,55.37 1.8,55.16 C1.33433375,55.0649463 0.999902998,54.6552686 1,54.18 L1,27 L8.77,24.77 L10.14,24.38 L21,27 Z" id="Shape" fill="#CAD9FC"/><path d="M18,27 L18,54.18 C18.000097,54.6552686 17.6656663,55.0649463 17.2,55.16 C16.14,55.37 15.07,55.54 14,55.68 C12.67,55.85 11.34,55.97 10,56.02 C9.84,56.03 9.67,56.03 9.5,56.04 C9.33,56.03 9.16,56.03 9,56.02 C7.66,55.97 6.33,55.85 5,55.68 C3.93,55.54 2.86,55.37 1.8,55.16 C1.33433375,55.0649463 0.999902998,54.6552686 1,54.18 L1,27 L8.77,24.77 L18,27 Z" id="Shape" fill="#E8EDFC"/><path d="M20,23 L11,25 L9.5,24.67 L2,23 C2,23 3.2,20.6 7,19.52 C7.81666973,19.2888547 8.65398881,19.1381372 9.5,19.07 C9.99842211,19.0203183 10.4991172,18.9969525 11,19 C12.3512203,18.9832125 13.6979842,19.1582918 15,19.52 C18.8,20.6 20,23 20,23 Z" id="Shape" fill="#CAD9FC"/><path d="M59,27 L59,54.18 C59.000097,54.6552686 58.6656663,55.0649463 58.2,55.16 C57.14,55.37 56.07,55.54 55,55.68 C53.67,55.85 52.34,55.97 51,56.02 C49.84,56.07 48.66,56.08 47.5,56.04 C47.33,56.03 47.16,56.03 47,56.02 C45.66,55.97 44.33,55.85 43,55.68 C41.93,55.54 40.86,55.37 39.8,55.16 C39.3343337,55.0649463 38.999903,54.6552686 39,54.18 L39,27 L47.5,24.45 L49,24 L59,27 Z" id="Shape" fill="#CAD9FC"/><path d="M56,27 L56,54.18 C56.000097,54.6552686 55.6656663,55.0649463 55.2,55.16 C54.14,55.37 53.07,55.54 52,55.68 C50.67,55.85 49.34,55.97 48,56.02 C47.84,56.03 47.67,56.03 47.5,56.04 C47.33,56.03 47.16,56.03 47,56.02 C45.66,55.97 44.33,55.85 43,55.68 C41.93,55.54 40.86,55.37 39.8,55.16 C39.3343337,55.0649463 38.999903,54.6552686 39,54.18 L39,27 L47.5,24.45 L56,27 Z" id="Shape" fill="#E8EDFC"/><path d="M58,23 L49,25 L47.5,24.67 L40,23 C40,23 41.2,20.6 45,19.52 C45.8166697,19.2888547 46.6539888,19.1381372 47.5,19.07 C49.3455319,18.8955099 51.2073757,19.0478425 53,19.52 C56.8,20.6 58,23 58,23 Z" id="Shape" fill="#CAD9FC"/><path d="M17,23 L9.5,24.67 L2,23 C2,23 3.2,20.6 7,19.52 C7.81666973,19.2888547 8.65398881,19.1381372 9.5,19.07 C10.3460112,19.1381372 11.1833303,19.2888547 12,19.52 C15.8,20.6 17,23 17,23 Z" id="Shape" fill="#E8EDFC"/><path d="M55,23 L47.5,24.67 L40,23 C40,23 41.2,20.6 45,19.52 C45.8166697,19.2888547 46.6539888,19.1381372 47.5,19.07 C48.3460112,19.1381372 49.1833303,19.2888547 50,19.52 C53.8,20.6 55,23 55,23 Z" id="Shape" fill="#E8EDFC"/><path d="M33,49 C32.9939672,50.6543489 31.6543489,51.9939672 30,52 C29.1473858,52.0031587 28.3347614,51.6387531 27.77,51 C26.7431465,49.8643719 26.7431465,48.1356281 27.77,47 C27.8415926,46.9184219 27.9184219,46.8415926 28,46.77 C28.5464613,46.2715182 29.2603426,45.9966739 30,46 C30.7393528,45.9983286 31.452655,46.2729499 32,46.77 C32.0815781,46.8415926 32.1584074,46.9184219 32.23,47 C32.7270501,47.547345 33.0016714,48.2606472 33,49 Z" id="Shape" fill="#CAD9FC"/><path d="M31,49 C30.9929648,50.2694687 30.1942961,51.399585 29,51.83 C28.0571724,51.4953327 27.3432204,50.7126918 27.0963241,49.7431721 C26.8494278,48.7736525 27.1020823,47.7448571 27.77,47 C27.8415926,46.9184219 27.9184219,46.8415926 28,46.77 C28.290877,46.5065134 28.6306285,46.3026625 29,46.17 C29.3693715,46.3026625 29.709123,46.5065134 30,46.77 C30.0815781,46.8415926 30.1584074,46.9184219 30.23,47 C30.7270501,47.547345 31.0016714,48.2606472 31,49 Z" id="Shape" fill="#E8EDFC"/><path d="M14,47 C14,48.6568542 12.6568542,50 11,50 C10.6584234,50.0021256 10.3193958,49.9411006 10,49.82 C8.80191937,49.4003329 7.99979755,48.2694557 7.99979755,47 C7.99979755,45.7305443 8.80191937,44.5996671 10,44.18 C10.3193958,44.0588994 10.6584234,43.9978744 11,44 C12.6568542,44 14,45.3431458 14,47 Z" id="Shape" fill="#CAD9FC"/><path d="M52,47 C52,48.6568542 50.6568542,50 49,50 C48.6584234,50.0021256 48.3193958,49.9411006 48,49.82 C46.8019194,49.4003329 45.9997976,48.2694557 45.9997976,47 C45.9997976,45.7305443 46.8019194,44.5996671 48,44.18 C48.3193958,44.0588994 48.6584234,43.9978744 49,44 C50.6568542,44 52,45.3431458 52,47 Z" id="Shape" fill="#CAD9FC"/><ellipse id="Oval" fill="#E8EDFC" cx="10" cy="47" rx="2" ry="2.82"/><ellipse id="Oval" fill="#E8EDFC" cx="48" cy="47" rx="2" ry="2.82"/><polygon id="Shape" fill="#CAD9FC" points="21 27 1 27 2 23 20 23"/><polygon id="Shape" fill="#CAD9FC" points="59 27 39 27 40 23 58 23"/><polygon id="Shape" fill="#E8EDFC" points="18 27 1 27 2 23 17 23"/><polygon id="Shape" fill="#E8EDFC" points="56 27 39 27 40 23 55 23"/><path d="M3,59 C3.53059053,59.0028231 4.0395388,58.7898589 4.41,58.41 C4.443,58.378 4.468,58.339 4.499,58.31 C4.17840184,57.9488441 4.00092556,57.4829244 4,57 L4,27 L5,23 C5,23 6.2,20.6 10,19.52 L10,14 C10,13.4477153 10.4477153,13 11,13 L11,3 C11,2.44771525 11.4477153,2 12,2 L9,2 C8.44771525,2 8,2.44771525 8,3 L8,13 C7.44771525,13 7,13.4477153 7,14 L7,19.52 C3.2,20.6 2,23 2,23 L1,27 L1,57 C1.0032948,58.1032019 1.89679813,58.9967052 3,59 Z" id="Shape" fill="#FFFFFF"/><polygon id="Shape" fill="#FFFFFF" points="2 27 2 40 2 54.18 0 54.18 0 40 0 27"/><path d="M1,32 C1.55228475,32 2,31.5522847 2,31 L2,27 L0,27 L0,31 C6.76353751e-17,31.5522847 0.44771525,32 1,32 Z" id="Shape" fill="#428DFF"/><path d="M0,54.18 L2,54.18 L2,39 C2,38.4477153 1.55228475,38 1,38 C0.44771525,38 6.76353751e-17,38.4477153 0,39 L0,54.18 Z" id="Shape" fill="#428DFF"/><path d="M2,35 C1.99611961,34.7352731 1.89256504,34.481743 1.71,34.29 L1.56,34.17 C1.50427287,34.1321227 1.44373808,34.1018554 1.38,34.08 C1.32333758,34.0511123 1.26266255,34.0308873 1.2,34.02 C1.13385548,34.0088692 1.06703885,34.0021875 1,34 C0.735273141,34.0038804 0.481742984,34.107435 0.29,34.29 C0.199603156,34.3856071 0.12832305,34.4976187 0.08,34.62 C-0.0708765757,34.9929737 0.0113519394,35.4197788 0.29,35.71 C0.385607086,35.8003968 0.497618681,35.871677 0.62,35.92 C0.740222313,35.971241 0.869322743,35.99842 1,36 C1.26472686,35.9961196 1.51825702,35.892565 1.71,35.71 C1.89256504,35.518257 1.99611961,35.2647269 2,35 Z" id="Shape" fill="#428DFF"/><path d="M11,57.076 C7.84581619,57.0750769 4.69947166,56.7618828 1.607,56.141 C0.67251629,55.9537228 3.6450663e-06,55.1330648 0,54.18 C-6.76353751e-17,53.6277153 0.44771525,53.18 1,53.18 C1.55228475,53.18 2,53.6277153 2,54.18 C7.94049787,55.3750109 14.0595021,55.3750109 20,54.18 L20,28 L1,28 C0.44771525,28 6.76353751e-17,27.5522847 0,27 C-6.76353751e-17,26.4477153 0.44771525,26 1,26 L21,26 C21.5522847,26 22,26.4477153 22,27 L22,54.18 C21.9999009,55.133373 21.3268813,55.9541389 20.392,56.141 C17.2998725,56.7619274 14.1538552,57.0751222 11,57.076 Z" id="Shape" fill="#428DFF"/><path d="M21,28 L1,28 C0.691985272,27.9999919 0.401160207,27.8580399 0.211665489,27.6152132 C0.02217077,27.3723864 -0.0448475791,27.0557824 0.03,26.757 L1.03,22.757 C1.14145909,22.3120689 1.54132061,22.0000121 2,22 L20,22 C20.4586794,22.0000121 20.8585409,22.3120689 20.97,22.757 L21.97,26.757 C22.0448476,27.0557824 21.9778292,27.3723864 21.7883345,27.6152132 C21.5988398,27.8580399 21.3080147,27.9999919 21,28 Z M2.281,26 L19.719,26 L19.219,24 L2.781,24 L2.281,26 Z" id="Shape" fill="#428DFF"/><path d="M20,24 C19.6191744,24.0020788 19.2702259,23.7876694 19.1,23.447 C19.036,23.314 17.225,20 11,20 C4.775,20 2.964,23.314 2.89,23.456 C2.63338281,23.9408586 2.03640262,24.1318568 1.546,23.886 C1.05933675,23.6369168 0.862908878,23.043179 1.105,22.553 C1.2,22.367 3.469,18 11,18 C18.531,18 20.8,22.367 20.9,22.553 C21.0553431,22.8638588 21.0381628,23.2330764 20.8546237,23.5281664 C20.6710847,23.8232565 20.3475069,24.0019021 20,24 Z" id="Shape" fill="#428DFF"/><path d="M11,61 C9.34314575,61 8,59.6568542 8,58 L8,56.02 C8,55.4677153 8.44771525,55.02 9,55.02 C9.55228475,55.02 10,55.4677153 10,56.02 L10,58 C10,58.5522847 10.4477153,59 11,59 C11.5522847,59 12,58.5522847 12,58 L12,56.02 C12,55.4677153 12.4477153,55.02 13,55.02 C13.5522847,55.02 14,55.4677153 14,56.02 L14,58 C14,59.6568542 12.6568542,61 11,61 Z" id="Shape" fill="#428DFF"/><path d="M3,60 C1.34314575,60 2.02906125e-16,58.6568542 0,57 L0,50 C-6.76353751e-17,49.4477153 0.44771525,49 1,49 C1.55228475,49 2,49.4477153 2,50 L2,57 C2,57.5522847 2.44771525,58 3,58 C3.55228475,58 4,57.5522847 4,57 L4,55.68 C4,55.1277153 4.44771525,54.68 5,54.68 C5.55228475,54.68 6,55.1277153 6,55.68 L6,57 C6,58.6568542 4.65685425,60 3,60 Z" id="Shape" fill="#428DFF"/><path d="M19,60 C17.3431458,60 16,58.6568542 16,57 L16,55.68 C16,55.1277153 16.4477153,54.68 17,54.68 C17.5522847,54.68 18,55.1277153 18,55.68 L18,57 C18,57.5522847 18.4477153,58 19,58 C19.5522847,58 20,57.5522847 20,57 L20,50 C20,49.4477153 20.4477153,49 21,49 C21.5522847,49 22,49.4477153 22,50 L22,57 C22,58.6568542 20.6568542,60 19,60 Z" id="Shape" fill="#428DFF"/><path d="M49,57.076 C45.8458162,57.0750769 42.6994717,56.7618828 39.607,56.141 C38.6725163,55.9537228 38.0000036,55.1330648 38,54.18 L38,27 C38,26.4477153 38.4477153,26 39,26 L59,26 C59.5522847,26 60,26.4477153 60,27 L60,54.18 C59.9999964,55.1330648 59.3274837,55.9537228 58.393,56.141 C55.3005283,56.7618828 52.1541838,57.0750769 49,57.076 Z M58,54.176 L58.2,55.157 L58,54.18 L58,54.176 Z M40,28 L40,54.18 C45.9404979,55.3750109 52.0595021,55.3750109 58,54.18 L58,28 L40,28 Z" id="Shape" fill="#428DFF"/><path d="M59,28 L39,28 C38.6919853,27.9999919 38.4011602,27.8580399 38.2116655,27.6152132 C38.0221708,27.3723864 37.9551524,27.0557824 38.03,26.757 L39.03,22.757 C39.1414591,22.3120689 39.5413206,22.0000121 40,22 L58,22 C58.4586794,22.0000121 58.8585409,22.3120689 58.97,22.757 L59.97,26.757 C60.0448476,27.0557824 59.9778292,27.3723864 59.7883345,27.6152132 C59.5988398,27.8580399 59.3080147,27.9999919 59,28 Z M40.281,26 L57.719,26 L57.219,24 L40.781,24 L40.281,26 Z" id="Shape" fill="#428DFF"/><path d="M58,24 C57.6191744,24.0020788 57.2702259,23.7876694 57.1,23.447 C57.036,23.314 55.225,20 49,20 C42.775,20 40.964,23.314 40.89,23.456 C40.6333828,23.9408586 40.0364026,24.1318568 39.546,23.886 C39.0593367,23.6369168 38.8629089,23.043179 39.105,22.553 C39.2,22.367 41.469,18 49,18 C56.531,18 58.8,22.367 58.9,22.553 C59.0553431,22.8638588 59.0381628,23.2330764 58.8546237,23.5281664 C58.6710847,23.8232565 58.3475069,24.0019021 58,24 Z" id="Shape" fill="#428DFF"/><path d="M49,61 C47.3431458,61 46,59.6568542 46,58 L46,56.02 C46,55.4677153 46.4477153,55.02 47,55.02 C47.5522847,55.02 48,55.4677153 48,56.02 L48,58 C48,58.5522847 48.4477153,59 49,59 C49.5522847,59 50,58.5522847 50,58 L50,56.02 C50,55.4677153 50.4477153,55.02 51,55.02 C51.5522847,55.02 52,55.4677153 52,56.02 L52,58 C52,59.6568542 50.6568542,61 49,61 Z" id="Shape" fill="#428DFF"/><path d="M41,60 C39.3431458,60 38,58.6568542 38,57 L38,50 C38,49.4477153 38.4477153,49 39,49 C39.5522847,49 40,49.4477153 40,50 L40,57 C40,57.5522847 40.4477153,58 41,58 C41.5522847,58 42,57.5522847 42,57 L42,55.68 C42,55.1277153 42.4477153,54.68 43,54.68 C43.5522847,54.68 44,55.1277153 44,55.68 L44,57 C44,58.6568542 42.6568542,60 41,60 Z" id="Shape" fill="#428DFF"/><path d="M57,60 C55.3431458,60 54,58.6568542 54,57 L54,55.68 C54,55.1277153 54.4477153,54.68 55,54.68 C55.5522847,54.68 56,55.1277153 56,55.68 L56,57 C56,57.5522847 56.4477153,58 57,58 C57.5522847,58 58,57.5522847 58,57 L58,50 C58,49.4477153 58.4477153,49 59,49 C59.5522847,49 60,49.4477153 60,50 L60,57 C60,58.6568542 58.6568542,60 57,60 Z" id="Shape" fill="#428DFF"/><path d="M30,53 C27.790861,53 26,51.209139 26,49 C26,46.790861 27.790861,45 30,45 C32.209139,45 34,46.790861 34,49 C34,51.209139 32.209139,53 30,53 Z M30,47 C28.8954305,47 28,47.8954305 28,49 C28,50.1045695 28.8954305,51 30,51 C31.1045695,51 32,50.1045695 32,49 C32,47.8954305 31.1045695,47 30,47 Z" id="Shape" fill="#428DFF"/><path d="M27.77,48 L21,48 C20.4477153,48 20,47.5522847 20,47 C20,46.4477153 20.4477153,46 21,46 L27.77,46 C28.3222847,46 28.77,46.4477153 28.77,47 C28.77,47.5522847 28.3222847,48 27.77,48 Z" id="Shape" fill="#428DFF"/><path d="M27.77,52 L21,52 C20.4477153,52 20,51.5522847 20,51 C20,50.4477153 20.4477153,50 21,50 L27.77,50 C28.3222847,50 28.77,50.4477153 28.77,51 C28.77,51.5522847 28.3222847,52 27.77,52 Z" id="Shape" fill="#428DFF"/><path d="M39,52 L32.23,52 C31.6777153,52 31.23,51.5522847 31.23,51 C31.23,50.4477153 31.6777153,50 32.23,50 L39,50 C39.5522847,50 40,50.4477153 40,51 C40,51.5522847 39.5522847,52 39,52 Z" id="Shape" fill="#428DFF"/><path d="M39,48 L32.23,48 C31.6777153,48 31.23,47.5522847 31.23,47 C31.23,46.4477153 31.6777153,46 32.23,46 L39,46 C39.5522847,46 40,46.4477153 40,47 C40,47.5522847 39.5522847,48 39,48 Z" id="Shape" fill="#428DFF"/><path d="M32,47.77 C31.4477153,47.77 31,47.3222847 31,46.77 L31,24 C31,23.4477153 31.4477153,23 32,23 C32.5522847,23 33,23.4477153 33,24 L33,46.77 C33,47.3222847 32.5522847,47.77 32,47.77 Z" id="Shape" fill="#428DFF"/><path d="M28,40 C27.4477153,40 27,39.5522847 27,39 L27,24 C27,23.4477153 27.4477153,23 28,23 C28.5522847,23 29,23.4477153 29,24 L29,39 C29,39.5522847 28.5522847,40 28,40 Z" id="Shape" fill="#428DFF"/><path d="M28,47.77 C27.4477153,47.77 27,47.3222847 27,46.77 L27,43 C27,42.4477153 27.4477153,42 28,42 C28.5522847,42 29,42.4477153 29,43 L29,46.77 C29,47.3222847 28.5522847,47.77 28,47.77 Z" id="Shape" fill="#428DFF"/><path d="M28,25 C25.2399468,24.9966939 23.0033061,22.7600532 23,20 C23,19.4477153 23.4477153,19 24,19 C24.5522847,19 25,19.4477153 25,20 C25,21.6568542 26.3431458,23 28,23 C28.5522847,23 29,23.4477153 29,24 C29,24.5522847 28.5522847,25 28,25 Z" id="Shape" fill="#428DFF"/><path d="M24,20 C23.4477153,20 23,19.5522847 23,19 L23,6 C23,5.44771525 23.4477153,5 24,5 C24.5522847,5 25,5.44771525 25,6 L25,19 C25,19.5522847 24.5522847,20 24,20 Z" id="Shape" fill="#428DFF"/><path d="M24,21 C23.4477153,21 23,20.5522847 23,20 L23,6 C23,5.44771525 23.4477153,5 24,5 C24.5522847,5 25,5.44771525 25,6 L25,20 C25,20.5522847 24.5522847,21 24,21 Z" id="Shape" fill="#428DFF"/><path d="M36,19 C35.4477153,19 35,18.5522847 35,18 L35,6 C35,5.44771525 35.4477153,5 36,5 C36.5522847,5 37,5.44771525 37,6 L37,18 C37,18.5522847 36.5522847,19 36,19 Z" id="Shape" fill="#428DFF"/><path d="M36,21 C35.4477153,21 35,20.5522847 35,20 L35,6 C35,5.44771525 35.4477153,5 36,5 C36.5522847,5 37,5.44771525 37,6 L37,20 C37,20.5522847 36.5522847,21 36,21 Z" id="Shape" fill="#428DFF"/><path d="M28,44 L21,44 C20.4477153,44 20,43.5522847 20,43 C20,42.4477153 20.4477153,42 21,42 L28,42 C28.5522847,42 29,42.4477153 29,43 C29,43.5522847 28.5522847,44 28,44 Z" id="Shape" fill="#428DFF"/><path d="M28,40 L21,40 C20.4477153,40 20,39.5522847 20,39 C20,38.4477153 20.4477153,38 21,38 L28,38 C28.5522847,38 29,38.4477153 29,39 C29,39.5522847 28.5522847,40 28,40 Z" id="Shape" fill="#428DFF"/><path d="M20,7 C19.4477153,7 19,6.55228475 19,6 C19.0033061,3.23994685 21.2399468,1.00330612 24,1 C24.5522847,1 25,1.44771525 25,2 C25,2.55228475 24.5522847,3 24,3 C22.3431458,3 21,4.34314575 21,6 C21,6.26521649 20.8946432,6.5195704 20.7071068,6.70710678 C20.5195704,6.89464316 20.2652165,7 20,7 Z" id="Shape" fill="#428DFF"/><path d="M40,7 C39.4477153,7 39,6.55228475 39,6 C39,4.34314575 37.6568542,3 36,3 C35.4477153,3 35,2.55228475 35,2 C35,1.44771525 35.4477153,1 36,1 C38.7600532,1.00330612 40.9966939,3.23994685 41,6 C41,6.55228475 40.5522847,7 40,7 Z" id="Shape" fill="#428DFF"/><path d="M14,14 C13.4477153,14 13,13.5522847 13,13 L13,3 L9,3 L9,13 C9,13.5522847 8.55228475,14 8,14 C7.44771525,14 7,13.5522847 7,13 L7,3 C7,1.8954305 7.8954305,1 9,1 L13,1 C14.1045695,1 15,1.8954305 15,3 L15,13 C15,13.5522847 14.5522847,14 14,14 Z" id="Shape" fill="#428DFF"/><path d="M52,14 C51.4477153,14 51,13.5522847 51,13 L51,3 L47,3 L47,13 C47,13.5522847 46.5522847,14 46,14 C45.4477153,14 45,13.5522847 45,13 L45,3 C45,1.8954305 45.8954305,1 47,1 L51,1 C52.1045695,1 53,1.8954305 53,3 L53,13 C53,13.5522847 52.5522847,14 52,14 Z" id="Shape" fill="#428DFF"/><path d="M32,25 C31.4477153,25 31,24.5522847 31,24 C31,23.4477153 31.4477153,23 32,23 C33.6568542,23 35,21.6568542 35,20 C35,19.4477153 35.4477153,19 36,19 C36.5522847,19 37,19.4477153 37,20 C36.9966939,22.7600532 34.7600532,24.9966939 32,25 Z" id="Shape" fill="#428DFF"/><path d="M21,24 L13,24 C12.4477153,24 12,23.5522847 12,23 C12,22.4477153 12.4477153,22 13,22 L21,22 C22.1045695,22 23,21.1045695 23,20 C23,19.4477153 23.4477153,19 24,19 C24.5522847,19 25,19.4477153 25,20 C25,22.209139 23.209139,24 21,24 Z" id="Shape" fill="#428DFF"/><path d="M47,24 L39,24 C36.790861,24 35,22.209139 35,20 C35,19.4477153 35.4477153,19 36,19 C36.5522847,19 37,19.4477153 37,20 C37,21.1045695 37.8954305,22 39,22 L47,22 C47.5522847,22 48,22.4477153 48,23 C48,23.5522847 47.5522847,24 47,24 Z" id="Shape" fill="#428DFF"/><path d="M30.015,21 C29.7827552,20.9997994 29.5512801,20.9732972 29.325,20.921 C27.9342023,20.5532942 26.9743168,19.2833553 27,17.845 L27,6 C26.9986725,5.14960229 26.6375665,4.33947503 26.006,3.77 C25.3803443,3.20070486 24.5411982,2.92596275 23.7,3.015 C22.1236373,3.24034691 20.964234,4.60801343 21,6.2 L21,18.5 C21,19.3284271 20.3284271,20 19.5,20 L15,20 C14.4477153,20 14,19.5522847 14,19 C14,18.4477153 14.4477153,18 15,18 L19,18 L19,6.2 C18.9724156,3.58643667 20.9023069,1.36452793 23.494,1.026 C24.9008122,0.882895916 26.3024355,1.34217742 27.3517425,2.29009843 C28.4010496,3.23801945 28.9999065,4.58592806 29,6 L29,17.845 C28.9754678,18.3516721 29.292166,18.8123985 29.774,18.971 C30.1054,19.0548624 30.4563766,18.9557811 30.695,18.711 C30.8905691,18.5263435 31.0009759,18.2689691 31,18 L31,6.23 C31.0025677,4.75496172 31.6132263,3.34625045 32.688,2.336 C33.6617638,1.4048727 34.9790275,0.920861616 36.324,1 C37.5328418,1.08687642 38.6707283,1.60332366 39.532,2.456 C40.4717485,3.39604888 40.9997702,4.67078254 41,6 L41,18 L45,18 C45.5522847,18 46,18.4477153 46,19 C46,19.5522847 45.5522847,20 45,20 L40.5,20 C39.6715729,20 39,19.3284271 39,18.5 L39,6 C38.9989165,5.20195252 38.6817895,4.43682067 38.118,3.872 C37.5994799,3.36130586 36.9159152,3.05214175 36.19,3 C35.3982304,2.95741199 34.6246492,3.24741431 34.056,3.8 C33.3855225,4.43081738 33.0037075,5.30942576 33,6.23 L33,18 C33.0040613,18.8004639 32.6819985,19.5680711 32.108,20.126 C31.5570637,20.6881362 30.8020936,21.0033984 30.015,21 Z" id="Shape" fill="#428DFF"/><path d="M15,20.52 C14.4477153,20.52 14,20.0722847 14,19.52 L14,14 L8,14 L8,19.52 C8,20.0722847 7.55228475,20.52 7,20.52 C6.44771525,20.52 6,20.0722847 6,19.52 L6,14 C6,12.8954305 6.8954305,12 8,12 L14,12 C15.1045695,12 16,12.8954305 16,14 L16,19.52 C16,20.0722847 15.5522847,20.52 15,20.52 Z" id="Shape" fill="#428DFF"/><path d="M53,20.52 C52.4477153,20.52 52,20.0722847 52,19.52 L52,14 L46,14 L46,19.52 C46,20.0722847 45.5522847,20.52 45,20.52 C44.4477153,20.52 44,20.0722847 44,19.52 L44,14 C44,12.8954305 44.8954305,12 46,12 L52,12 C53.1045695,12 54,12.8954305 54,14 L54,19.52 C54,20.0722847 53.5522847,20.52 53,20.52 Z" id="Shape" fill="#428DFF"/><path d="M11,51 C8.790861,51 7,49.209139 7,47 C7,44.790861 8.790861,43 11,43 C13.209139,43 15,44.790861 15,47 C15,49.209139 13.209139,51 11,51 Z M11,45 C9.8954305,45 9,45.8954305 9,47 C9,48.1045695 9.8954305,49 11,49 C12.1045695,49 13,48.1045695 13,47 C13,45.8954305 12.1045695,45 11,45 Z" id="Shape" fill="#428DFF"/><path d="M49,51 C46.790861,51 45,49.209139 45,47 C45,44.790861 46.790861,43 49,43 C51.209139,43 53,44.790861 53,47 C53,49.209139 51.209139,51 49,51 Z M49,45 C47.8954305,45 47,45.8954305 47,47 C47,48.1045695 47.8954305,49 49,49 C50.1045695,49 51,48.1045695 51,47 C51,45.8954305 50.1045695,45 49,45 Z" id="Shape" fill="#428DFF"/><path d="M5,33 C4.44771525,33 4,32.5522847 4,32 L4,31 C4,30.4477153 4.44771525,30 5,30 C5.55228475,30 6,30.4477153 6,31 L6,32 C6,32.5522847 5.55228475,33 5,33 Z" id="Shape" fill="#428DFF"/><path d="M5,44 C4.44771525,44 4,43.5522847 4,43 L4,36 C4,35.4477153 4.44771525,35 5,35 C5.55228475,35 6,35.4477153 6,36 L6,43 C6,43.5522847 5.55228475,44 5,44 Z" id="Shape" fill="#428DFF"/><path d="M43,33 C42.4477153,33 42,32.5522847 42,32 L42,31 C42,30.4477153 42.4477153,30 43,30 C43.5522847,30 44,30.4477153 44,31 L44,32 C44,32.5522847 43.5522847,33 43,33 Z" id="Shape" fill="#428DFF"/><path d="M43,41 C42.4477153,41 42,40.5522847 42,40 L42,36 C42,35.4477153 42.4477153,35 43,35 C43.5522847,35 44,35.4477153 44,36 L44,40 C44,40.5522847 43.5522847,41 43,41 Z" id="Shape" fill="#428DFF"/><path d="M15,46 L13.23,46 C12.6777153,46 12.23,45.5522847 12.23,45 C12.23,44.4477153 12.6777153,44 13.23,44 L15,44 C15.5522847,44 16,44.4477153 16,45 C16,45.5522847 15.5522847,46 15,46 Z" id="Shape" fill="#428DFF"/><path d="M15,50 L13.23,50 C12.6777153,50 12.23,49.5522847 12.23,49 C12.23,48.4477153 12.6777153,48 13.23,48 L15,48 C15.5522847,48 16,48.4477153 16,49 C16,49.5522847 15.5522847,50 15,50 Z" id="Shape" fill="#428DFF"/><path d="M53,46 L51.23,46 C50.6777153,46 50.23,45.5522847 50.23,45 C50.23,44.4477153 50.6777153,44 51.23,44 L53,44 C53.5522847,44 54,44.4477153 54,45 C54,45.5522847 53.5522847,46 53,46 Z" id="Shape" fill="#428DFF"/><path d="M53,50 L51.23,50 C50.6777153,50 50.23,49.5522847 50.23,49 C50.23,48.4477153 50.6777153,48 51.23,48 L53,48 C53.5522847,48 54,48.4477153 54,49 C54,49.5522847 53.5522847,50 53,50 Z" id="Shape" fill="#428DFF"/></g></g></svg>
