<?xml version="1.0" encoding="UTF-8"?>
<svg xmlns="http://www.w3.org/2000/svg" xmlns:xlink="http://www.w3.org/1999/xlink" width="512" height="512" viewBox="0 0 60 60" version="1.1"><!-- Generator: Sketch 51.3 (57544) - http://www.bohemiancoding.com/sketch --><title>004 - Brewing Tank</title><desc>Created with Sketch.</desc><defs/><g id="Page-1" stroke="none" stroke-width="1" fill="none" fill-rule="evenodd"><g id="004---Brewing-Tank" fill-rule="nonzero"><path d="M55,46 L30,49 L28.5,48.82 L5,46 C5,39 10.07,33.19 15.57,31 C22,28.44 26.47,27.89 27,20.99 L27.08,20 L28.67,18.7 L29.53,18 L31,18 L32.92,20 L33,20.99 C33.53,27.89 38,28.44 44.43,31 C49.93,33.19 55,39 55,46 Z" id="Shape" fill="#CAD9FC"/><path d="M52,46 L28.5,48.82 L5,46 C5,39 10.07,33.19 15.57,31 C22,28.44 26.47,27.89 27,20.99 L27.08,20 L28.67,18.7 L29.92,20 L30,20.99 C30.53,27.89 35,28.44 41.43,31 C46.93,33.19 52,39 52,46 Z" id="Shape" fill="#E8EDFC"/><path d="M34,3 L34,19 C34,19.5522847 33.5522847,20 33,20 L27,20 C26.4477153,20 26,19.5522847 26,19 L26,3 L34,3 Z" id="Shape" fill="#7FACFA"/><path d="M31,3 L31,19 C31,19.5522847 30.5522847,20 30,20 L27,20 C26.4477153,20 26,19.5522847 26,19 L26,3 L31,3 Z" id="Shape" fill="#A4C2F7"/><path d="M38,1 L37.41,1.3 C35.8567466,2.0716816 34.6426217,3.38906055 34,5 L26,5 C25.3573783,3.38906055 24.1432534,2.0716816 22.59,1.3 L22,1 L38,1 Z" id="Shape" fill="#CAD9FC"/><path d="M35,1 L34.41,1.3 C32.8567466,2.0716816 31.6426217,3.38906055 31,5 L26,5 C25.3573783,3.38906055 24.1432534,2.0716816 22.59,1.3 L22,1 L35,1 Z" id="Shape" fill="#E8EDFC"/><path d="M38,36 C38,39.48 34.64,42 30,42 C29.4982423,42.0028954 28.996933,41.9694747 28.5,41.9 C24.65,41.43 22,39.09 22,36 C22,32.91 24.65,30.57 28.5,30.1 C28.996933,30.0305253 29.4982423,29.9971046 30,30 C34.64,30 38,32.52 38,36 Z" id="Shape" fill="#CAD9FC"/><ellipse id="Oval" fill="#E8EDFC" cx="28.5" cy="36" rx="6.5" ry="5.9"/><path d="M34.44,35.5 C34.44,36.88 32.45,38 30,38 C29.496152,38.002136 28.9934479,37.9518655 28.5,37.85 C26.79,37.51 25.56,36.58 25.56,35.5 C25.56,34.42 26.79,33.49 28.5,33.15 C28.9934479,33.0481345 29.496152,32.997864 30,33 C32.45,33 34.44,34.12 34.44,35.5 Z" id="Shape" fill="#7FACFA"/><path d="M31.44,35.5 C31.44,36.58 30.21,37.51 28.5,37.85 C26.79,37.51 25.56,36.58 25.56,35.5 C25.56,34.42 26.79,33.49 28.5,33.15 C30.21,33.49 31.44,34.42 31.44,35.5 Z" id="Shape" fill="#A4C2F7"/><path d="M9,23 C9,25.209139 7.209139,27 5,27 C4.66226279,27.0030533 4.32573075,26.9593041 4,26.87 C2.23955966,26.4098818 1.01148406,24.8195766 1.01148406,23 C1.01148406,21.1804234 2.23955966,19.5901182 4,19.13 C4.32573075,19.0406959 4.66226279,18.9969467 5,19 C7.209139,19 9,20.790861 9,23 Z" id="Shape" fill="#CAD9FC"/><ellipse id="Oval" fill="#E8EDFC" cx="4" cy="23" rx="3" ry="3.87"/><path d="M15,17 L15,26 C14.9967052,27.1032019 14.1032019,27.9967052 13,28 L11,28 C10.8307578,28.0020017 10.6621858,27.9784016 10.5,27.93 C9.61929853,27.702609 9.0029536,26.9095785 9,26 L9,17 L15,17 Z" id="Shape" fill="#CAD9FC"/><path d="M12,17 L12,26 C11.9970464,26.9095785 11.3807015,27.702609 10.5,27.93 C9.61929853,27.702609 9.0029536,26.9095785 9,26 L9,17 L12,17 Z" id="Shape" fill="#E8EDFC"/><path d="M57,48 L57,56 L3,56 L3,48 C3.0032948,46.8967981 3.89679813,46.0032948 5,46 L55,46 C56.1032019,46.0032948 56.9967052,46.8967981 57,48 Z" id="Shape" fill="#CAD9FC"/><path d="M54,48 L54,56 L3,56 L3,48 C3.0032948,46.8967981 3.89679813,46.0032948 5,46 L52,46 C53.1032019,46.0032948 53.9967052,46.8967981 54,48 Z" id="Shape" fill="#E8EDFC"/><rect id="Rectangle-path" fill="#CAD9FC" x="1" y="54" width="58" height="5" rx="2"/><rect id="Rectangle-path" fill="#E8EDFC" x="1" y="54" width="55" height="5" rx="2"/><path d="M15,15 L15,19 L9,19 L9,15 C9.0029536,14.0904215 9.61929853,13.297391 10.5,13.07 C10.6621858,13.0215984 10.8307578,12.9979983 11,13 L13,13 C14.1032019,13.0032948 14.9967052,13.8967981 15,15 Z" id="Shape" fill="#CAD9FC"/><path d="M12,15 L12,19 L9,19 L9,15 C9.0029536,14.0904215 9.61929853,13.297391 10.5,13.07 C11.3807015,13.297391 11.9970464,14.0904215 12,15 Z" id="Shape" fill="#E8EDFC"/><path d="M3,59 L6,59 C4.89679813,58.9967052 4.0032948,58.1032019 4,57 L4,56 C4.0032948,54.8967981 4.89679813,54.0032948 6,54 L6,48 C6.0032948,46.8967981 6.89679813,46.0032948 8,46 C8,39 13.07,33.19 18.57,31 C25,28.44 29.47,27.89 30,20.99 L30.08,20 L30,20 C29.4477153,20 29,19.5522847 29,19 L29,5 C28.3573783,3.38906055 27.1432534,2.0716816 25.59,1.3 L25,1 L22,1 L22.59,1.3 C24.1432534,2.0716816 25.3573783,3.38906055 26,5 L26,19 C26,19.5522847 26.4477153,20 27,20 L27.08,20 L27,20.99 C26.47,27.89 22,28.44 15.57,31 C10.07,33.19 5,39 5,46 C3.89679813,46.0032948 3.0032948,46.8967981 3,48 L3,54 C1.89679813,54.0032948 1.0032948,54.8967981 1,56 L1,57 C1.0032948,58.1032019 1.89679813,58.9967052 3,59 Z" id="Shape" fill="#FFFFFF"/><path d="M4,26.87 C4.32573075,26.9593041 4.66226279,27.0030533 5,27 C5.51803582,26.9989727 6.03091432,26.8970763 6.51,26.7 C4.99618697,26.0956015 4.00324609,24.6300084 4.00324609,23 C4.00324609,21.3699916 4.99618697,19.9043985 6.51,19.3 C6.03091432,19.1029237 5.51803582,19.0010273 5,19 C4.66226279,18.9969467 4.32573075,19.0406959 4,19.13 C2.23955966,19.5901182 1.01148406,21.1804234 1.01148406,23 C1.01148406,24.8195766 2.23955966,26.4098818 4,26.87 Z" id="Shape" fill="#FFFFFF"/><path d="M57,55 L3,55 C2.44771525,55 2,54.5522847 2,54 L2,48 C2,46.3431458 3.34314575,45 5,45 L55,45 C56.6568542,45 58,46.3431458 58,48 L58,54 C58,54.5522847 57.5522847,55 57,55 Z M4,53 L56,53 L56,48 C56,47.4477153 55.5522847,47 55,47 L5,47 C4.44771525,47 4,47.4477153 4,48 L4,53 Z" id="Shape" fill="#428DFF"/><path d="M55,47 L30,47 C29.4477153,47 29,46.5522847 29,46 C29,45.4477153 29.4477153,45 30,45 L53.964,45 C53.5,38.553 48.615,33.743 44.064,31.929 C43.164,31.57 42.301,31.251 41.483,30.949 C36.466,29.1 32.507,27.63 32,21.067 L31.92,20.081 C31.8910615,19.7248062 32.0543483,19.3802311 32.3483519,19.1770727 C32.6423556,18.9739143 33.0224098,18.9430373 33.3453519,19.0960727 C33.6682941,19.2491081 33.8850615,19.5628062 33.914,19.919 L33.994,20.91 C34.4,26.199 37.16,27.22 42.17,29.073 C43.003,29.381 43.88,29.706 44.797,30.073 C50.194,32.219 56,38.12 56,46 C56,46.5522847 55.5522847,47 55,47 Z" id="Shape" fill="#428DFF"/><path d="M4,46 C4.02106194,43.6806134 4.53652632,41.392388 5.512,39.288 C7.48851818,35.1219587 10.9407023,31.8376089 15.2,30.071 L15.94,31.929 C12.1553669,33.506027 9.08737608,36.4265662 7.326,40.129 C6.47292579,41.9699137 6.02093635,43.971143 6,46 L4,46 Z" id="Shape" fill="#FFFFFF"/><path d="M5.851,41.1 C5.59280842,41.0152225 5.31108565,41.0406506 5.07224712,41.1702896 C4.83340859,41.2999286 4.65858841,41.5223071 4.589,41.785 C4.21549589,43.1594972 4.01758768,44.5757674 4,46 L6,46 C6.0172069,44.7566317 6.19022263,43.5203251 6.515,42.32 C6.64596718,41.8023656 6.35680069,41.2710657 5.851,41.1 Z" id="Shape" fill="#428DFF"/><path d="M15.94,31.929 L15.2,30.071 C13.0949545,30.9334192 11.1703463,32.1830238 9.526,33.755 C9.26475309,33.9907599 9.01575988,34.2397531 8.78,34.501 C8.58786825,34.693622 8.48505686,34.9578232 8.49645406,35.2296466 C8.50785127,35.50147 8.63241817,35.7561375 8.84,35.932 C9.2506403,36.2745328 9.85421083,36.2494382 10.235,35.874 C10.4451628,35.6395044 10.6678195,35.4165139 10.902,35.206 C12.3624149,33.8092175 14.0711032,32.69779 15.94,31.929 Z" id="Shape" fill="#428DFF"/><path d="M6.252,37.88 C6.10712739,38.1173614 6.06763325,38.4043279 6.143,38.672 L6.22,38.853 C6.25225419,38.9129837 6.29226459,38.9684603 6.339,39.018 C6.37635211,39.0700009 6.42155812,39.1158816 6.473,39.154 C6.52675187,39.1935894 6.58322488,39.2293445 6.642,39.261 C6.87799481,39.3748455 7.1471473,39.3997013 7.4,39.331 C7.51906186,39.2912074 7.63011709,39.230601 7.728,39.152 C8.0400096,38.9229504 8.17907233,38.5256283 8.078,38.152 C8.04259989,38.027372 7.98684891,37.9094502 7.913,37.803 C7.8402175,37.6952211 7.74797405,37.6019603 7.641,37.528 C7.41626102,37.3823954 7.14301199,37.3317005 6.881,37.387 C6.61744013,37.4676236 6.39325698,37.6433348 6.252,37.88 Z" id="Shape" fill="#428DFF"/><path d="M15.57,32 C15.0903815,31.9999618 14.6783309,31.6594072 14.5879826,31.1883753 C14.4976343,30.7173433 14.7544344,30.2484971 15.2,30.071 C16.117,29.706 16.994,29.381 17.827,29.071 C22.837,27.22 25.6,26.2 26,20.914 L26.08,19.914 C26.1247351,19.3633721 26.6073721,18.953265 27.158,18.998 C27.7086279,19.0427351 28.118735,19.5253721 28.074,20.076 L27.994,21.066 C27.494,27.625 23.531,29.09 18.518,30.944 C17.7,31.244 16.838,31.565 15.937,31.924 C15.8206361,31.9725167 15.6960618,31.9983141 15.57,32 Z" id="Shape" fill="#428DFF"/><path d="M30,47 L5,47 C4.44771525,47 4,46.5522847 4,46 C4,45.4477153 4.44771525,45 5,45 L30,45 C30.5522847,45 31,45.4477153 31,46 C31,46.5522847 30.5522847,47 30,47 Z" id="Shape" fill="#428DFF"/><path d="M13,29 L11,29 C9.34314575,29 8,27.6568542 8,26 L8,15 C8,13.3431458 9.34314575,12 11,12 L13,12 C14.6568542,12 16,13.3431458 16,15 L16,26 C16,27.6568542 14.6568542,29 13,29 Z M11,14 C10.4477153,14 10,14.4477153 10,15 L10,26 C10,26.5522847 10.4477153,27 11,27 L13,27 C13.5522847,27 14,26.5522847 14,26 L14,15 C14,14.4477153 13.5522847,14 13,14 L11,14 Z" id="Shape" fill="#428DFF"/><path d="M12,41 C11.4477153,41 11,40.5522847 11,40 L11,28 C11,27.4477153 11.4477153,27 12,27 C12.5522847,27 13,27.4477153 13,28 L13,40 C13,40.5522847 12.5522847,41 12,41 Z" id="Shape" fill="#428DFF"/><path d="M5,28 C2.23857625,28 3.38176876e-16,25.7614237 0,23 C-3.38176876e-16,20.2385763 2.23857625,18 5,18 C7.76142375,18 10,20.2385763 10,23 C9.99669388,25.7600532 7.76005315,27.9966939 5,28 Z M5,20 C3.34314575,20 2,21.3431458 2,23 C2,24.6568542 3.34314575,26 5,26 C6.65685425,26 8,24.6568542 8,23 C8,21.3431458 6.65685425,20 5,20 Z" id="Shape" fill="#428DFF"/><path d="M5,24 C4.44771525,24 4,23.5522847 4,23 L4,22 C4,21.4477153 4.44771525,21 5,21 C5.55228475,21 6,21.4477153 6,22 L6,23 C6,23.5522847 5.55228475,24 5,24 Z" id="Shape" fill="#428DFF"/><path d="M57,60 L3,60 C1.34314575,60 2.02906125e-16,58.6568542 0,57 L0,56 C-2.02906125e-16,54.3431458 1.34314575,53 3,53 L57,53 C58.6568542,53 60,54.3431458 60,56 L60,57 C60,57.7956495 59.6839295,58.5587112 59.1213203,59.1213203 C58.5587112,59.6839295 57.7956495,60 57,60 Z M3,55 C2.44771525,55 2,55.4477153 2,56 L2,57 C2,57.5522847 2.44771525,58 3,58 L57,58 C57.5522847,58 58,57.5522847 58,57 L58,56 C58,55.4477153 57.5522847,55 57,55 L3,55 Z" id="Shape" fill="#428DFF"/><path d="M15,20 L9,20 C8.44771525,20 8,19.5522847 8,19 C8,18.4477153 8.44771525,18 9,18 L15,18 C15.5522847,18 16,18.4477153 16,19 C16,19.5522847 15.5522847,20 15,20 Z" id="Shape" fill="#428DFF"/><path d="M33,21 L27,21 C25.8954305,21 25,20.1045695 25,19 L25,5 C25,4.44771525 25.4477153,4 26,4 C26.5522847,4 27,4.44771525 27,5 L27,19 L33,19 L33,5 C33,4.44771525 33.4477153,4 34,4 C34.5522847,4 35,4.44771525 35,5 L35,19 C35,20.1045695 34.1045695,21 33,21 Z" id="Shape" fill="#428DFF"/><path d="M34,6 L26,6 C25.591055,6.00031372 25.2231275,5.75159629 25.071,5.372 C24.5191914,3.98820832 23.4777646,2.8556656 22.145,2.19 L21.553,1.9 C21.1315298,1.69594807 20.9080973,1.22674872 21.0153355,0.770926045 C21.1225738,0.315103372 21.5317622,-0.00526359458 22,-1.11022302e-16 L38,-1.11022302e-16 C38.4682378,-0.00526359458 38.8774262,0.315103372 38.9846645,0.770926045 C39.0919027,1.22674872 38.8684702,1.69594807 38.447,1.9 L37.855,2.195 C36.5222354,2.8606656 35.4808086,3.99320832 34.929,5.377 C34.7752926,5.75463282 34.4077146,6.00113556 34,6 Z M26.646,4 L33.354,4 C33.7235954,3.26493519 34.2031053,2.59051904 34.776,2 L25.224,2 C25.7968947,2.59051904 26.2764046,3.26493519 26.646,4 Z" id="Shape" fill="#428DFF"/><path d="M30,43 C24.785,43 21,40.056 21,36 C21,31.944 24.785,29 30,29 C35.215,29 39,31.944 39,36 C39,40.056 35.215,43 30,43 Z M30,31 C25.944,31 23,33.1 23,36 C23,38.9 25.944,41 30,41 C34.056,41 37,38.9 37,36 C37,33.1 34.056,31 30,31 Z" id="Shape" fill="#428DFF"/><path d="M30,39 C26.9,39 24.556,37.495 24.556,35.5 C24.556,33.505 26.9,32 30,32 C33.1,32 35.444,33.505 35.444,35.5 C35.444,37.495 33.1,39 30,39 Z M30,34 C27.929,34 26.556,34.9 26.556,35.5 C26.556,36.1 27.929,37 30,37 C32.071,37 33.444,36.1 33.444,35.5 C33.444,34.9 32.071,34 30,34 Z" id="Shape" fill="#428DFF"/><path d="M22,36 L20,36 C19.4477153,36 19,35.5522847 19,35 C19,34.4477153 19.4477153,34 20,34 L22,34 C22.5522847,34 23,34.4477153 23,35 C23,35.5522847 22.5522847,36 22,36 Z" id="Shape" fill="#428DFF"/><path d="M23,40 L20,40 C19.4477153,40 19,39.5522847 19,39 C19,38.4477153 19.4477153,38 20,38 L23,38 C23.5522847,38 24,38.4477153 24,39 C24,39.5522847 23.5522847,40 23,40 Z" id="Shape" fill="#428DFF"/><path d="M10,55 C9.44771525,55 9,54.5522847 9,54 L9,50 C9,49.4477153 9.44771525,49 10,49 C10.5522847,49 11,49.4477153 11,50 L11,54 C11,54.5522847 10.5522847,55 10,55 Z" id="Shape" fill="#428DFF"/><path d="M14,55 C13.4477153,55 13,54.5522847 13,54 L13,50 C13,49.4477153 13.4477153,49 14,49 C14.5522847,49 15,49.4477153 15,50 L15,54 C15,54.5522847 14.5522847,55 14,55 Z" id="Shape" fill="#428DFF"/><path d="M46,55 C45.4477153,55 45,54.5522847 45,54 L45,50 C45,49.4477153 45.4477153,49 46,49 C46.5522847,49 47,49.4477153 47,50 L47,54 C47,54.5522847 46.5522847,55 46,55 Z" id="Shape" fill="#428DFF"/><path d="M50,55 C49.4477153,55 49,54.5522847 49,54 L49,50 C49,49.4477153 49.4477153,49 50,49 C50.5522847,49 51,49.4477153 51,50 L51,54 C51,54.5522847 50.5522847,55 50,55 Z" id="Shape" fill="#428DFF"/></g></g></svg>
