<?xml version="1.0" encoding="UTF-8"?>
<svg xmlns="http://www.w3.org/2000/svg" xmlns:xlink="http://www.w3.org/1999/xlink" width="512" height="512" viewBox="0 0 34 60" version="1.1"><!-- Generator: Sketch 51.3 (57544) - http://www.bohemiancoding.com/sketch --><title>005 - Fermenting Tank</title><desc>Created with Sketch.</desc><defs/><g id="Page-1" stroke="none" stroke-width="1" fill="none" fill-rule="evenodd"><g id="005---Fermenting-Tank" transform="translate(-1.000000, 0.000000)" fill-rule="nonzero"><path d="M29,10 L29,13 L7,13 L7,10 C7,7.790861 8.790861,6 11,6 L15,6 C15.5522847,6 16,5.55228475 16,5 C16,4.44771525 16.4477153,4 17,4 L19,4 C19.5522847,4 20,4.44771525 20,5 C20,5.55228475 20.4477153,6 21,6 L25,6 C27.209139,6 29,7.790861 29,10 Z" id="Shape" fill="#CAD9FC"/><path d="M27,10 L27,13 L7,13 L7,10 C7,7.790861 8.790861,6 11,6 L15,6 C15.5522847,6 16,5.55228475 16,5 C16,4.44771525 16.4477153,4 17,4 C17.5522847,4 18,4.44771525 18,5 C18,5.55228475 18.4477153,6 19,6 L23,6 C25.209139,6 27,7.790861 27,10 Z" id="Shape" fill="#E8EDFC"/><path d="M30,12 L30,39 L18,44 L16.5,43.38 L6,39 L6,12 C6,11.4477153 6.44771525,11 7,11 L29,11 C29.5522847,11 30,11.4477153 30,12 Z" id="Shape" fill="#CAD9FC"/><path d="M27,12 L27,39 L16.5,43.38 L6,39 L6,12 C6,11.4477153 6.44771525,11 7,11 L26,11 C26.5522847,11 27,11.4477153 27,12 Z" id="Shape" fill="#E8EDFC"/><circle id="Oval" fill="#A4C2F7" cx="18" cy="30" r="4"/><path d="M29,40.75 L29,58 C29,58.5522847 28.5522847,59 28,59 L26,59 C25.4477153,59 25,58.5522847 25,58 L25,47.75 L11,47.75 L11,58 C11,58.5522847 10.5522847,59 10,59 L8,59 C7.44771525,59 7,58.5522847 7,58 L7,40.75 L29,40.75 Z" id="Shape" fill="#CAD9FC"/><path d="M30,39 L22,53 C21,55 20.21,55 18,55 C17.41,55 16.92,55 16.5,54.96 C15.35,54.86 14.73,54.47 14,53 L6,39 L30,39 Z" id="Shape" fill="#7FACFA"/><path d="M27,39 L19,53 C18.27,54.47 17.65,54.86 16.5,54.96 C15.35,54.86 14.73,54.47 14,53 L6,39 L27,39 Z" id="Shape" fill="#A4C2F7"/><polygon id="Shape" fill="#CAD9FC" points="23 39 18 55 17 51.8 13 39"/><polygon id="Shape" fill="#E8EDFC" points="21 39 17 51.8 13 39"/><path d="M7,58 C7,58.5522847 7.44771525,59 8,59 L10,59 C10.1774721,58.9953752 10.3503298,58.9424807 10.5,58.847 C10.194211,58.6740361 10.0036923,58.3512973 10,58 L10,40.75 L9,39 L9,12 C9,11.4477153 9.44771525,11 10,11 L10,10 C10,7.790861 11.790861,6 14,6 L11,6 C8.790861,6 7,7.790861 7,10 L7,11 C6.44771525,11 6,11.4477153 6,12 L6,39 L7,40.75 L7,58 Z" id="Shape" fill="#FFFFFF"/><path d="M19,5 C19.0048605,4.64928946 19.1951096,4.32738788 19.5,4.154 C19.3506058,4.05779358 19.1776341,4.0045183 19,4 L17,4 C16.4477153,4 16,4.44771525 16,5 C16,5.55228475 15.5522847,6 15,6 L18,6 C18.5522847,6 19,5.55228475 19,5 Z" id="Shape" fill="#FFFFFF"/><path d="M30,40 L6,40 C5.44771525,40 5,39.5522847 5,39 L5,12 C5,10.8954305 5.8954305,10 7,10 L29,10 C30.1045695,10 31,10.8954305 31,12 L31,39 C31,39.5522847 30.5522847,40 30,40 Z M7,38 L29,38 L29,12 L7,12 L7,38 Z" id="Shape" fill="#428DFF"/><path d="M11,40 L7,40 C6.44771525,40 6,39.5522847 6,39 C6,38.4477153 6.44771525,38 7,38 L11,38 C11.5522847,38 12,38.4477153 12,39 C12,39.5522847 11.5522847,40 11,40 Z" id="Shape" fill="#428DFF"/><path d="M10,60 L8,60 C6.8954305,60 6,59.1045695 6,58 L6,40.75 C6,40.1977153 6.44771525,39.75 7,39.75 C7.55228475,39.75 8,40.1977153 8,40.75 L8,58 L10,58 L10,47.75 C10,47.1977153 10.4477153,46.75 11,46.75 C11.5522847,46.75 12,47.1977153 12,47.75 L12,58 C12,59.1045695 11.1045695,60 10,60 Z" id="Shape" fill="#428DFF"/><path d="M29,40 L25,40 C24.4477153,40 24,39.5522847 24,39 C24,38.4477153 24.4477153,38 25,38 L29,38 C29.5522847,38 30,38.4477153 30,39 C30,39.5522847 29.5522847,40 29,40 Z" id="Shape" fill="#428DFF"/><path d="M28,60 L26,60 C24.8954305,60 24,59.1045695 24,58 L24,47.75 C24,47.1977153 24.4477153,46.75 25,46.75 C25.5522847,46.75 26,47.1977153 26,47.75 L26,58 L28,58 L28,40.75 C28,40.1977153 28.4477153,39.75 29,39.75 C29.5522847,39.75 30,40.1977153 30,40.75 L30,58 C30,59.1045695 29.1045695,60 28,60 Z" id="Shape" fill="#428DFF"/><path d="M18,58 C17.4477153,58 17,57.5522847 17,57 L17,55 C17,54.4477153 17.4477153,54 18,54 C18.5522847,54 19,54.4477153 19,55 L19,57 C19,57.5522847 18.5522847,58 18,58 Z" id="Shape" fill="#428DFF"/><path d="M11,2 C9.05464659,2.00836974 7.17806366,2.72056902 5.717,4.005 C4.25096738,5.28602834 3.30885831,7.0627193 3.071,8.995 C2.971,9.872 3.009,10.966 3,12.008 L3,34 L1,34 L1,12.008 C0.971653963,10.9199109 1.00036001,9.83108393 1.086,8.746 C1.38549481,6.33022968 2.56287454,4.10893982 4.394,2.505 C6.22092759,0.89913001 8.56763548,0.00925667569 11,0 L11,2 Z" id="Shape" fill="#FFFFFF"/><path d="M6.257,2.362 C6.53162076,2.80234697 7.08344949,2.98094188 7.564,2.785 C8.63704417,2.27204213 9.81065806,2.00391439 11,2 L11,0 C9.51174831,0.00392870988 8.04298359,0.338670436 6.7,0.98 C6.44363577,1.08911854 6.24740149,1.30433623 6.16235233,1.56965889 C6.07730318,1.83498155 6.11184832,2.12417556 6.257,2.362 Z" id="Shape" fill="#428DFF"/><path d="M1,34 L3,34 L3,12.008 C3.009,10.966 2.967,9.872 3.071,8.995 C3.10494434,8.70070617 3.1587335,8.40904198 3.232,8.122 C3.32409923,7.61171199 3.03529407,7.10925858 2.548,6.932 C2.28483993,6.83902275 1.99423085,6.86530388 1.75202064,7.00398411 C1.50981043,7.14266434 1.34003314,7.3799827 1.287,7.654 C1.19774747,8.01349921 1.13095173,8.37820394 1.087,8.746 C1.00102644,9.83106643 0.971986604,10.9198934 1,12.008 L1,34 Z" id="Shape" fill="#428DFF"/><path d="M4.79,4.961 C4.94200228,4.77214856 5.01701365,4.53282658 5,4.291 L4.967,4.1 C4.95098342,4.03406544 4.92714789,3.97028022 4.896,3.91 C4.87602711,3.85045883 4.84738589,3.79418725 4.811,3.743 C4.7727829,3.68805504 4.73067491,3.63592134 4.685,3.587 C4.4981231,3.39638398 4.2386162,3.2948378 3.972,3.308 C3.37539402,3.37054188 2.94119703,3.90301391 3,4.5 C3.02102704,4.633187 3.07234465,4.75977043 3.15,4.87 C3.22262089,4.98014006 3.31685994,5.07437911 3.427,5.147 C3.64951258,5.28168883 3.91083553,5.33768661 4.169,5.306 C4.41363448,5.27813299 4.63709848,5.15398632 4.79,4.961 Z" id="Shape" fill="#428DFF"/><path d="M18,5 C17.4477153,5 17,4.55228475 17,4 L17,2 L11,2 C10.4477153,2 10,1.55228475 10,1 C10,0.44771525 10.4477153,1.01453063e-16 11,0 L18,0 C18.5522847,3.38176876e-17 19,0.44771525 19,1 L19,4 C19,4.55228475 18.5522847,5 18,5 Z" id="Shape" fill="#428DFF"/><path d="M6,37 L4,37 C2.34314575,37 1,35.6568542 1,34 C1,33.4477153 1.44771525,33 2,33 C2.55228475,33 3,33.4477153 3,34 C3,34.5522847 3.44771525,35 4,35 L6,35 C6.55228475,35 7,35.4477153 7,36 C7,36.5522847 6.55228475,37 6,37 Z" id="Shape" fill="#428DFF"/><path d="M32,37 L30,37 C29.4477153,37 29,36.5522847 29,36 C29,35.4477153 29.4477153,35 30,35 L32,35 C32.5522847,35 33,34.5522847 33,34 L33,10 C32.9950401,5.58377808 29.4162219,2.00495988 25,2 L19,2 L19,4 C19,4.55228475 18.5522847,5 18,5 C17.4477153,5 17,4.55228475 17,4 L17,1 C17,0.44771525 17.4477153,1.01453063e-16 18,0 L25,0 C30.5203344,0.00606237045 34.9939376,4.47966557 35,10 L35,34 C35,35.6568542 33.6568542,37 32,37 Z" id="Shape" fill="#428DFF"/><path d="M29,12 C28.4477153,12 28,11.5522847 28,11 L28,10 C28,8.34314575 26.6568542,7 25,7 L21,7 C19.8954305,7 19,6.1045695 19,5 L17,5 C17,6.1045695 16.1045695,7 15,7 L11,7 C9.34314575,7 8,8.34314575 8,10 L8,11 C8,11.5522847 7.55228475,12 7,12 C6.44771525,12 6,11.5522847 6,11 L6,10 C6.00330612,7.23994685 8.23994685,5.00330612 11,5 L15,5 C15,3.8954305 15.8954305,3 17,3 L19,3 C20.1045695,3 21,3.8954305 21,5 L25,5 C27.7600532,5.00330612 29.9966939,7.23994685 30,10 L30,11 C30,11.5522847 29.5522847,12 29,12 Z" id="Shape" fill="#428DFF"/><path d="M18,35 C15.2385763,35 13,32.7614237 13,30 C13,27.2385763 15.2385763,25 18,25 C20.7614237,25 23,27.2385763 23,30 C22.9966939,32.7600532 20.7600532,34.9966939 18,35 Z M18,27 C16.3431458,27 15,28.3431458 15,30 C15,31.6568542 16.3431458,33 18,33 C19.6568542,33 21,31.6568542 21,30 C21,28.3431458 19.6568542,27 18,27 Z" id="Shape" fill="#428DFF"/><path d="M14.54,29 L12,29 C11.4477153,29 11,28.5522847 11,28 C11,27.4477153 11.4477153,27 12,27 L14.54,27 C15.0922847,27 15.54,27.4477153 15.54,28 C15.54,28.5522847 15.0922847,29 14.54,29 Z" id="Shape" fill="#428DFF"/><path d="M14.54,33 L12,33 C11.4477153,33 11,32.5522847 11,32 C11,31.4477153 11.4477153,31 12,31 L14.54,31 C15.0922847,31 15.54,31.4477153 15.54,32 C15.54,32.5522847 15.0922847,33 14.54,33 Z" id="Shape" fill="#428DFF"/><path d="M11,16 L10,16 C9.44771525,16 9,15.5522847 9,15 C9,14.4477153 9.44771525,14 10,14 L11,14 C11.5522847,14 12,14.4477153 12,15 C12,15.5522847 11.5522847,16 11,16 Z" id="Shape" fill="#428DFF"/><path d="M20,16 L15,16 C14.4477153,16 14,15.5522847 14,15 C14,14.4477153 14.4477153,14 15,14 L20,14 C20.5522847,14 21,14.4477153 21,15 C21,15.5522847 20.5522847,16 20,16 Z" id="Shape" fill="#428DFF"/><path d="M18,56 C15.744,56 14.382,56 13.105,53.447 L5.132,39.5 C4.95318983,39.1902933 4.95337768,38.8086743 5.13249266,38.4991438 C5.31160765,38.1896133 5.64238175,37.9992934 6,38 L30,38 C30.3576182,37.9992934 30.6883924,38.1896133 30.8675073,38.4991438 C31.0466223,38.8086743 31.0468102,39.1902933 30.868,39.5 L22.882,53.473 C21.609,56 20.249,56 18,56 Z M7.723,40 L14.868,52.5 C15.618,54 15.843,54 18,54 C20.157,54 20.382,54 21.1,52.553 L21.127,52.504 L28.277,40 L7.723,40 Z" id="Shape" fill="#428DFF"/><path d="M18,56 C17.5628909,56.0004636 17.1761326,55.7169758 17.045,55.3 L12.045,39.3 C11.8793146,38.7725681 12.1725681,38.2106854 12.7,38.045 C13.2274319,37.8793146 13.7893146,38.1725681 13.955,38.7 L18,51.647 L22.045,38.7 C22.2106854,38.1725681 22.7725681,37.8793146 23.3,38.045 C23.8274319,38.2106854 24.1206854,38.7725681 23.955,39.3 L18.955,55.3 C18.8238674,55.7169758 18.4371091,56.0004636 18,56 Z" id="Shape" fill="#428DFF"/></g></g></svg>
