<?xml version="1.0" encoding="UTF-8"?>
<svg xmlns="http://www.w3.org/2000/svg" xmlns:xlink="http://www.w3.org/1999/xlink" width="512" height="512" viewBox="0 0 60 48" version="1.1"><!-- Generator: Sketch 51.3 (57544) - http://www.bohemiancoding.com/sketch --><title>006 - Cooling Tank</title><desc>Created with Sketch.</desc><defs/><g id="Page-1" stroke="none" stroke-width="1" fill="none" fill-rule="evenodd"><g id="006---Cooling-Tank" fill-rule="nonzero"><rect id="Rectangle-path" fill="#CAD9FC" x="5.62" y="31.65" width="35.05" height="12.29"/><rect id="Rectangle-path" fill="#E8EDFC" x="5.62" y="31.65" width="30.43" height="11.88"/><path d="M55,5 C55,7.209139 53.209139,9 51,9 C50.4847146,9.00395422 49.9741272,8.90183672 49.5,8.7 C47.9895658,8.09256054 47,6.62800308 47,5 C47,3.37199692 47.9895658,1.90743946 49.5,1.3 C49.9741272,1.09816328 50.4847146,0.996045779 51,1 C53.209139,1 55,2.790861 55,5 Z" id="Shape" fill="#CAD9FC"/><ellipse id="Oval" fill="#E8EDFC" cx="49.5" cy="5" rx="2.5" ry="3.7"/><rect id="Rectangle-path" fill="#7FACFA" x="42" y="28" width="9.41" height="9"/><rect id="Rectangle-path" fill="#A4C2F7" x="42" y="28" width="9.41" height="7"/><rect id="Rectangle-path" fill="#CAD9FC" x="36" y="9" width="4" height="25"/><path d="M36,9 L36,34 L6,34 L6,9 L19,9 C20.1032019,9.0032948 20.9967052,9.89679813 21,11 L21,19 C21,19.5522847 21.4477153,20 22,20 L24,20 C24.5522847,20 25,19.5522847 25,19 L25,11 C25.0032948,9.89679813 25.8967981,9.0032948 27,9 L36,9 Z" id="Shape" fill="#E8EDFC"/><path d="M41,6 C42.1045695,6 43,6.8954305 43,8 L43,42 L39,42 L39,8 C39,6.8954305 39.8954305,6 41,6 Z" id="Shape" fill="#CAD9FC"/><path d="M5,6 C6.1045695,6 7,6.8954305 7,8 L7,42 L3,42 L3,8 C3,6.8954305 3.8954305,6 5,6 Z" id="Shape" fill="#CAD9FC"/><path d="M57,19 L57,32 C57,34.7614237 54.7614237,37 52,37 L50,37 L50,19 L57,19 Z" id="Shape" fill="#7FACFA"/><path d="M55,19 L55,31 C55,33.7614237 52.7614237,36 50,36 L50,19 L55,19 Z" id="Shape" fill="#A4C2F7"/><rect id="Rectangle-path" fill="#CAD9FC" x="48" y="12" width="11" height="9" rx="1"/><rect id="Rectangle-path" fill="#E8EDFC" x="48" y="12" width="8" height="9" rx="1"/><rect id="Rectangle-path" fill="#CAD9FC" x="1" y="42" width="58" height="5" rx="1"/><rect id="Rectangle-path" fill="#E8EDFC" x="1" y="42" width="55" height="5" rx="1"/><path d="M2,47 L5,47 C4.44771525,47 4,46.5522847 4,46 L4,43 C4,42.4477153 4.44771525,42 5,42 L6,42 L6,8 C6.00157011,7.51701354 6.17935999,7.05120405 6.5,6.69 C5.95514249,6.05869422 5.07471604,5.83359268 4.29371246,6.12591116 C3.51270888,6.41822964 2.99644858,7.16609109 3,8 L3,42 L2,42 C1.44771525,42 1,42.4477153 1,43 L1,46 C1,46.5522847 1.44771525,47 2,47 Z" id="Shape" fill="#FFFFFF"/><path d="M29,27 C28.4477153,27 28,26.5522847 28,26 L28,10 C28,9.44771525 28.4477153,9 29,9 C29.5522847,9 30,9.44771525 30,10 L30,26 C30,26.5522847 29.5522847,27 29,27 Z" id="Shape" fill="#428DFF"/><path d="M35,27 C34.4477153,27 34,26.5522847 34,26 L34,10 C34,9.44771525 34.4477153,9 35,9 C35.5522847,9 36,9.44771525 36,10 L36,26 C36,26.5522847 35.5522847,27 35,27 Z" id="Shape" fill="#428DFF"/><path d="M11,27 C10.4477153,27 10,26.5522847 10,26 L10,10 C10,9.44771525 10.4477153,9 11,9 C11.5522847,9 12,9.44771525 12,10 L12,26 C12,26.5522847 11.5522847,27 11,27 Z" id="Shape" fill="#428DFF"/><path d="M17,27 C16.4477153,27 16,26.5522847 16,26 L16,10 C16,9.44771525 16.4477153,9 17,9 C17.5522847,9 18,9.44771525 18,10 L18,26 C18,26.5522847 17.5522847,27 17,27 Z" id="Shape" fill="#428DFF"/><path d="M39,43 L7,43 C6.44771525,43 6,42.5522847 6,42 L6,34 C6,33.4477153 6.44771525,33 7,33 L39,33 C39.5522847,33 40,33.4477153 40,34 L40,42 C40,42.5522847 39.5522847,43 39,43 Z M8,41 L38,41 L38,35 L8,35 L8,41 Z" id="Shape" fill="#428DFF"/><path d="M43,43 L39,43 C38.4477153,43 38,42.5522847 38,42 L38,8 C38,6.34314575 39.3431458,5 41,5 C42.6568542,5 44,6.34314575 44,8 L44,42 C44,42.5522847 43.5522847,43 43,43 Z M40,41 L42,41 L42,8 C42,7.44771525 41.5522847,7 41,7 C40.4477153,7 40,7.44771525 40,8 L40,41 Z" id="Shape" fill="#428DFF"/><polygon id="Shape" fill="#FFFFFF" points="4 8 4 21 4 42 2 42 2 21 2 8"/><path d="M3,13 C3.55228475,13 4,12.5522847 4,12 L4,8 L2,8 L2,12 C2,12.5522847 2.44771525,13 3,13 Z" id="Shape" fill="#428DFF"/><path d="M2,42 L4,42 L4,20 C4,19.4477153 3.55228475,19 3,19 C2.44771525,19 2,19.4477153 2,20 L2,42 Z" id="Shape" fill="#428DFF"/><path d="M4,16 C3.99611961,15.7352731 3.89256504,15.481743 3.71,15.29 L3.56,15.17 C3.50427287,15.1321227 3.44373808,15.1018554 3.38,15.08 C3.32333758,15.0511123 3.26266255,15.0308873 3.2,15.02 C3.13385548,15.0088692 3.06703885,15.0021875 3,15 C2.73527314,15.0038804 2.48174298,15.107435 2.29,15.29 C2.19960316,15.3856071 2.12832305,15.4976187 2.08,15.62 C1.92912342,15.9929737 2.01135194,16.4197788 2.29,16.71 C2.38560709,16.8003968 2.49761868,16.871677 2.62,16.92 C2.74022231,16.971241 2.86932274,16.99842 3,17 C3.26472686,16.9961196 3.51825702,16.892565 3.71,16.71 C3.89256504,16.518257 3.99611961,16.2647269 4,16 Z" id="Shape" fill="#428DFF"/><path d="M7,43 L3,43 C2.44771525,43 2,42.5522847 2,42 C2,41.4477153 2.44771525,41 3,41 L6,41 L6,8 C6,7.44771525 5.55228475,7 5,7 C4.44771525,7 4,7.44771525 4,8 C4,8.55228475 3.55228475,9 3,9 C2.44771525,9 2,8.55228475 2,8 C2,6.34314575 3.34314575,5 5,5 C6.65685425,5 8,6.34314575 8,8 L8,42 C8,42.5522847 7.55228475,43 7,43 Z" id="Shape" fill="#428DFF"/><path d="M52,38 L50,38 C49.4477153,38 49,37.5522847 49,37 L49,21 C49,20.4477153 49.4477153,20 50,20 L57,20 C57.5522847,20 58,20.4477153 58,21 L58,32 C57.9966926,35.3123376 55.3123376,37.9966926 52,38 Z M51,36 L52,36 C54.209139,36 56,34.209139 56,32 L56,22 L51,22 L51,36 Z" id="Shape" fill="#428DFF"/><path d="M50,38 L43,38 C42.4477153,38 42,37.5522847 42,37 L42,28 C42,27.4477153 42.4477153,27 43,27 L50,27 C50.5522847,27 51,27.4477153 51,28 L51,37 C51,37.5522847 50.5522847,38 50,38 Z M44,36 L49,36 L49,29 L44,29 L44,36 Z" id="Shape" fill="#428DFF"/><path d="M58,22 L49,22 C47.8954305,22 47,21.1045695 47,20 L47,13 C47,11.8954305 47.8954305,11 49,11 L58,11 C59.1045695,11 60,11.8954305 60,13 L60,20 C60,21.1045695 59.1045695,22 58,22 Z M49,13 L49,20 L58,20 L58,13 L49,13 Z" id="Shape" fill="#428DFF"/><path d="M39,35 L7,35 C6.44771525,35 6,34.5522847 6,34 L6,20 C6,19.4477153 6.44771525,19 7,19 C7.55228475,19 8,19.4477153 8,20 L8,33 L38,33 L38,20 C38,19.4477153 38.4477153,19 39,19 C39.5522847,19 40,19.4477153 40,20 L40,34 C40,34.5522847 39.5522847,35 39,35 Z" id="Shape" fill="#428DFF"/><path d="M39,21 C38.4477153,21 38,20.5522847 38,20 L38,10 L27,10 C26.4477153,10 26,10.4477153 26,11 L26,19 C26,20.1045695 25.1045695,21 24,21 L22,21 C20.8954305,21 20,20.1045695 20,19 L20,11 C20,10.4477153 19.5522847,10 19,10 L8,10 L8,20 C8,20.5522847 7.55228475,21 7,21 C6.44771525,21 6,20.5522847 6,20 L6,9 C6,8.44771525 6.44771525,8 7,8 L19,8 C20.6568542,8 22,9.34314575 22,11 L22,19 L24,19 L24,11 C24,9.34314575 25.3431458,8 27,8 L39,8 C39.5522847,8 40,8.44771525 40,9 L40,20 C40,20.5522847 39.5522847,21 39,21 Z" id="Shape" fill="#428DFF"/><path d="M53,18 L51,18 C50.4477153,18 50,17.5522847 50,17 C50,16.4477153 50.4477153,16 51,16 L53,16 C53.5522847,16 54,16.4477153 54,17 C54,17.5522847 53.5522847,18 53,18 Z" id="Shape" fill="#428DFF"/><path d="M51,10 C48.2385763,10 46,7.76142375 46,5 C46,2.23857625 48.2385763,8.8817842e-16 51,8.8817842e-16 C53.7614237,8.8817842e-16 56,2.23857625 56,5 C55.9966939,7.76005315 53.7600532,9.99669388 51,10 Z M51,2 C49.3431458,2 48,3.34314575 48,5 C48,6.65685425 49.3431458,8 51,8 C52.6568542,8 54,6.65685425 54,5 C54,3.34314575 52.6568542,2 51,2 Z" id="Shape" fill="#428DFF"/><path d="M51,6 C50.4477153,6 50,5.55228475 50,5 L50,4 C50,3.44771525 50.4477153,3 51,3 C51.5522847,3 52,3.44771525 52,4 L52,5 C52,5.55228475 51.5522847,6 51,6 Z" id="Shape" fill="#428DFF"/><path d="M51,13 C50.4477153,13 50,12.5522847 50,12 L50,9 C50,8.44771525 50.4477153,8 51,8 C51.5522847,8 52,8.44771525 52,9 L52,12 C52,12.5522847 51.5522847,13 51,13 Z" id="Shape" fill="#428DFF"/><path d="M11,43 C10.4477153,43 10,42.5522847 10,42 L10,39 C10,38.4477153 10.4477153,38 11,38 C11.5522847,38 12,38.4477153 12,39 L12,42 C12,42.5522847 11.5522847,43 11,43 Z" id="Shape" fill="#428DFF"/><path d="M15,43 C14.4477153,43 14,42.5522847 14,42 L14,39 C14,38.4477153 14.4477153,38 15,38 C15.5522847,38 16,38.4477153 16,39 L16,42 C16,42.5522847 15.5522847,43 15,43 Z" id="Shape" fill="#428DFF"/><path d="M31,43 C30.4477153,43 30,42.5522847 30,42 L30,39 C30,38.4477153 30.4477153,38 31,38 C31.5522847,38 32,38.4477153 32,39 L32,42 C32,42.5522847 31.5522847,43 31,43 Z" id="Shape" fill="#428DFF"/><path d="M35,43 C34.4477153,43 34,42.5522847 34,42 L34,39 C34,38.4477153 34.4477153,38 35,38 C35.5522847,38 36,38.4477153 36,39 L36,42 C36,42.5522847 35.5522847,43 35,43 Z" id="Shape" fill="#428DFF"/><path d="M58,48 L2,48 C0.8954305,48 1.3527075e-16,47.1045695 0,46 L0,43 C-1.3527075e-16,41.8954305 0.8954305,41 2,41 L58,41 C59.1045695,41 60,41.8954305 60,43 L60,46 C60,47.1045695 59.1045695,48 58,48 Z M2,43 L2,46 L58,46 L58,43 L2,43 Z" id="Shape" fill="#428DFF"/><path d="M12,31 L11,31 C10.4477153,31 10,30.5522847 10,30 C10,29.4477153 10.4477153,29 11,29 L12,29 C12.5522847,29 13,29.4477153 13,30 C13,30.5522847 12.5522847,31 12,31 Z" id="Shape" fill="#428DFF"/><path d="M23,31 L15,31 C14.4477153,31 14,30.5522847 14,30 C14,29.4477153 14.4477153,29 15,29 L23,29 C23.5522847,29 24,29.4477153 24,30 C24,30.5522847 23.5522847,31 23,31 Z" id="Shape" fill="#428DFF"/><circle id="Oval" fill="#428DFF" cx="56" cy="17" r="1"/></g></g></svg>
