<?xml version="1.0" encoding="UTF-8"?>
<svg xmlns="http://www.w3.org/2000/svg" xmlns:xlink="http://www.w3.org/1999/xlink" width="512" height="512" viewBox="0 0 54 60" version="1.1"><!-- Generator: Sketch 51.3 (57544) - http://www.bohemiancoding.com/sketch --><title>007 - Bottling Plant</title><desc>Created with Sketch.</desc><defs/><g id="Page-1" stroke="none" stroke-width="1" fill="none" fill-rule="evenodd"><g id="007---Bottling-Plant" fill-rule="nonzero"><path d="M32,36 L32,49 L22,49 L22,36 C22,34.57 23.68,32.26 24.28,31 C24.8148117,29.3892659 25.0586149,27.6961876 25,26 C25.0325858,25.4451505 24.8539517,24.8985301 24.5,24.47 C24.1460483,24.0414699 23.9674142,23.4948495 24,22.94 C24,21.8796133 24.8596133,21.02 25.92,21.02 L28.08,21.02 C28.589868,21.0178622 29.0794707,21.2194607 29.440005,21.579995 C29.8005393,21.9405293 30.0021378,22.430132 30,22.94 C30,24.63 29,24.31 29,26 C28.9413851,27.6961876 29.1851883,29.3892659 29.72,31 C30.32,32.26 32,34.57 32,36 Z" id="Shape" fill="#CAD9FC"/><path d="M18,36 L18,49 L8,49 L8,36 C8,34.57 9.68,32.26 10.28,31 C10.8148117,29.3892659 11.0586149,27.6961876 11,26 C11.0325858,25.4451505 10.8539517,24.8985301 10.5,24.47 C10.1460483,24.0414699 9.96741419,23.4948495 10,22.94 C10,21.8796133 10.8596133,21.02 11.92,21.02 L14.08,21.02 C14.589868,21.0178622 15.0794707,21.2194607 15.440005,21.579995 C15.8005393,21.9405293 16.0021378,22.430132 16,22.94 C16,24.63 15,24.31 15,26 C14.9413851,27.6961876 15.1851883,29.3892659 15.72,31 C16.32,32.26 18,34.57 18,36 Z" id="Shape" fill="#CAD9FC"/><path d="M46,36 L46,49 L36,49 L36,36 C36,34.57 37.68,32.26 38.28,31 C38.8148117,29.3892659 39.0586149,27.6961876 39,26 C39.0325858,25.4451505 38.8539517,24.8985301 38.5,24.47 C38.1460483,24.0414699 37.9674142,23.4948495 38,22.94 C38,21.8796133 38.8596133,21.02 39.92,21.02 L42.08,21.02 C42.589868,21.0178622 43.0794707,21.2194607 43.440005,21.579995 C43.8005393,21.9405293 44.0021378,22.430132 44,22.94 C44,24.63 43,24.31 43,26 C42.9413851,27.6961876 43.1851883,29.3892659 43.72,31 C44.32,32.26 46,34.57 46,36 Z" id="Shape" fill="#CAD9FC"/><path d="M29.625,36 L29.625,49 L21.625,49 L21.625,36 C21.625,34.57 23.305,32.26 23.905,31 C24.4398117,29.3892659 24.6836149,27.6961876 24.625,26 C24.6575858,25.4451505 24.4789517,24.8985301 24.125,24.47 C23.7710483,24.0414699 23.5924142,23.4948495 23.625,22.94 C23.625,21.8796133 24.4846133,21.02 25.545,21.02 L25.705,21.02 C26.214868,21.0178622 26.7044707,21.2194607 27.065005,21.579995 C27.4255393,21.9405293 27.6271378,22.430132 27.625,22.94 C27.625,24.63 26.625,24.31 26.625,26 C26.5663851,27.6961876 26.8101883,29.3892659 27.345,31 C27.945,32.26 29.625,34.57 29.625,36 Z" id="Shape" fill="#E8EDFC"/><path d="M15.625,36 L15.625,49 L7.625,49 L7.625,36 C7.625,34.57 9.305,32.26 9.905,31 C10.4398117,29.3892659 10.6836149,27.6961876 10.625,26 C10.6575858,25.4451505 10.4789517,24.8985301 10.125,24.47 C9.77104831,24.0414699 9.59241419,23.4948495 9.625,22.94 C9.625,21.8796133 10.4846133,21.02 11.545,21.02 L11.705,21.02 C12.214868,21.0178622 12.7044707,21.2194607 13.065005,21.579995 C13.4255393,21.9405293 13.6271378,22.430132 13.625,22.94 C13.625,24.63 12.625,24.31 12.625,26 C12.5663851,27.6961876 12.8101883,29.3892659 13.345,31 C13.945,32.26 15.625,34.57 15.625,36 Z" id="Shape" fill="#E8EDFC"/><path d="M43.625,36 L43.625,49 L35.625,49 L35.625,36 C35.625,34.57 37.305,32.26 37.905,31 C38.4398117,29.3892659 38.6836149,27.6961876 38.625,26 C38.6575858,25.4451505 38.4789517,24.8985301 38.125,24.47 C37.7710483,24.0414699 37.5924142,23.4948495 37.625,22.94 C37.625,21.8796133 38.4846133,21.02 39.545,21.02 L39.705,21.02 C40.214868,21.0178622 40.7044707,21.2194607 41.065005,21.579995 C41.4255393,21.9405293 41.6271378,22.430132 41.625,22.94 C41.625,24.63 40.625,24.31 40.625,26 C40.5663851,27.6961876 40.8101883,29.3892659 41.345,31 C41.945,32.26 43.625,34.57 43.625,36 Z" id="Shape" fill="#E8EDFC"/><path d="M43,2 L43,4 C43,5.65685425 41.6568542,7 40,7 L32,7 L32,3 L39,3 L39,2 C38.9988209,1.64399085 39.1900312,1.3151092 39.5,1.14 C39.6507665,1.04857635 39.8236799,1.0001606 40,1 L42,1 C42.5522847,1 43,1.44771525 43,2 Z" id="Shape" fill="#CAD9FC"/><path d="M40,2 L40,4 C40,5.65685425 38.6568542,7 37,7 L32,7 L32,3 L39,3 L39,2 C38.9988209,1.64399085 39.1900312,1.3151092 39.5,1.14 C39.8099688,1.3151092 40.0011791,1.64399085 40,2 Z" id="Shape" fill="#E8EDFC"/><path d="M11,2 L11,4 C11,5.65685425 12.3431458,7 14,7 L22,7 L22,3 L15,3 L15,2 C15,1.44771525 14.5522847,1 14,1 L12,1 C11.4477153,1 11,1.44771525 11,2 Z" id="Shape" fill="#E8EDFC"/><rect id="Rectangle-path" fill="#CAD9FC" x="22" y="38" width="10" height="7"/><rect id="Rectangle-path" fill="#CAD9FC" x="8" y="38" width="10" height="7"/><rect id="Rectangle-path" fill="#CAD9FC" x="36" y="38" width="10" height="7"/><rect id="Rectangle-path" fill="#E8EDFC" x="22" y="38" width="7.42" height="7"/><rect id="Rectangle-path" fill="#E8EDFC" x="8" y="38" width="7.42" height="7"/><rect id="Rectangle-path" fill="#E8EDFC" x="36" y="38" width="7.42" height="7"/><rect id="Rectangle-path" fill="#CAD9FC" x="1.17" y="49" width="51.91" height="9.75" rx="4.87"/><rect id="Rectangle-path" fill="#E8EDFC" x="1.17" y="49" width="48.91" height="9.75" rx="4.87"/><circle id="Oval" fill="#CAD9FC" cx="6" cy="54" r="2"/><circle id="Oval" fill="#CAD9FC" cx="13" cy="54" r="2"/><circle id="Oval" fill="#CAD9FC" cx="20" cy="54" r="2"/><circle id="Oval" fill="#CAD9FC" cx="27" cy="54" r="2"/><circle id="Oval" fill="#CAD9FC" cx="34" cy="54" r="2"/><circle id="Oval" fill="#CAD9FC" cx="41" cy="54" r="2"/><circle id="Oval" fill="#CAD9FC" cx="48" cy="54" r="2"/><path d="M48,60 L6,60 C2.6862915,60 8.8817842e-16,57.3137085 0,54 C-4.4408921e-16,50.6862915 2.6862915,48 6,48 L48,48 C51.3137085,48 54,50.6862915 54,54 C54,57.3137085 51.3137085,60 48,60 Z M6,50 C3.790861,50 2,51.790861 2,54 C2,56.209139 3.790861,58 6,58 L48,58 C50.209139,58 52,56.209139 52,54 C52,51.790861 50.209139,50 48,50 L6,50 Z" id="Shape" fill="#2C2F38"/><rect id="Rectangle-path" fill="#CAD9FC" x="20" y="1" width="14" height="9" rx="3"/><path d="M31.69,4 L31.69,7 C31.69,8.65685425 30.3468542,10 28.69,10 L23.31,10 C21.6531458,10 20.31,8.65685425 20.31,7 L20.31,4 C20.31,2.34314575 21.6531458,1 23.31,1 L28.69,1 C30.3468542,1 31.69,2.34314575 31.69,4 Z" id="Shape" fill="#E8EDFC"/><path d="M14,7 L17,7 C15.3431458,7 14,5.65685425 14,4 L14,2 C14.0036923,1.64870271 14.194211,1.32596394 14.5,1.153 C14.3503298,1.05751932 14.1774721,1.00462484 14,1 L12,1 C11.4477153,1 11,1.44771525 11,2 L11,4 C11,5.65685425 12.3431458,7 14,7 Z" id="Shape" fill="#FFFFFF"/><path d="M6,60 L9,60 C5.6862915,60 3,57.3137085 3,54 C3,50.6862915 5.6862915,48 9,48 L10.625,48 L10.625,36 C10.625,34.57 12.305,32.26 12.905,31 C13.4398117,29.3892659 13.6836149,27.6961876 13.625,26 C13.6575858,25.4451505 13.4789517,24.8985301 13.125,24.47 C12.7710483,24.0414699 12.5924142,23.4948495 12.625,22.94 C12.6246782,21.9714238 13.3483276,21.1554392 14.31,21.04 C14.2339503,21.0269087 14.157114,21.018891 14.08,21.016 L11.92,21.016 C11.883,21.016 11.848,21.025 11.812,21.027 C11.776,21.029 11.742,21.016 11.705,21.016 L11.545,21.016 C10.4846133,21.016 9.625,21.8756133 9.625,22.936 C9.59241419,23.4908495 9.77104831,24.0374699 10.125,24.466 C10.4789517,24.8945301 10.6575858,25.4411505 10.625,25.996 C10.6836149,27.6921876 10.4398117,29.3852659 9.905,30.996 C9.305,32.256 7.625,34.566 7.625,35.996 L7.625,48 L6,48 C2.6862915,48 8.8817842e-16,50.6862915 0,54 C-4.4408921e-16,57.3137085 2.6862915,60 6,60 Z" id="Shape" fill="#FFFFFF"/><path d="M6,57 C4.34314575,57 3,55.6568542 3,54 C3,52.3431458 4.34314575,51 6,51 C7.65685425,51 9,52.3431458 9,54 C9,55.6568542 7.65685425,57 6,57 Z M6,53 C5.44771525,53 5,53.4477153 5,54 C5,54.5522847 5.44771525,55 6,55 C6.55228475,55 7,54.5522847 7,54 C7,53.4477153 6.55228475,53 6,53 Z" id="Shape" fill="#428DFF"/><path d="M13,57 C11.3431458,57 10,55.6568542 10,54 C10,52.3431458 11.3431458,51 13,51 C14.6568542,51 16,52.3431458 16,54 C16,55.6568542 14.6568542,57 13,57 Z M13,53 C12.4477153,53 12,53.4477153 12,54 C12,54.5522847 12.4477153,55 13,55 C13.5522847,55 14,54.5522847 14,54 C14,53.4477153 13.5522847,53 13,53 Z" id="Shape" fill="#428DFF"/><path d="M20,57 C18.3431458,57 17,55.6568542 17,54 C17,52.3431458 18.3431458,51 20,51 C21.6568542,51 23,52.3431458 23,54 C23,55.6568542 21.6568542,57 20,57 Z M20,53 C19.4477153,53 19,53.4477153 19,54 C19,54.5522847 19.4477153,55 20,55 C20.5522847,55 21,54.5522847 21,54 C21,53.4477153 20.5522847,53 20,53 Z" id="Shape" fill="#428DFF"/><path d="M27,57 C25.3431458,57 24,55.6568542 24,54 C24,52.3431458 25.3431458,51 27,51 C28.6568542,51 30,52.3431458 30,54 C30,55.6568542 28.6568542,57 27,57 Z M27,53 C26.4477153,53 26,53.4477153 26,54 C26,54.5522847 26.4477153,55 27,55 C27.5522847,55 28,54.5522847 28,54 C28,53.4477153 27.5522847,53 27,53 Z" id="Shape" fill="#428DFF"/><path d="M34,57 C32.3431458,57 31,55.6568542 31,54 C31,52.3431458 32.3431458,51 34,51 C35.6568542,51 37,52.3431458 37,54 C37,55.6568542 35.6568542,57 34,57 Z M34,53 C33.4477153,53 33,53.4477153 33,54 C33,54.5522847 33.4477153,55 34,55 C34.5522847,55 35,54.5522847 35,54 C35,53.4477153 34.5522847,53 34,53 Z" id="Shape" fill="#428DFF"/><path d="M41,57 C39.3431458,57 38,55.6568542 38,54 C38,52.3431458 39.3431458,51 41,51 C42.6568542,51 44,52.3431458 44,54 C44,55.6568542 42.6568542,57 41,57 Z M41,53 C40.4477153,53 40,53.4477153 40,54 C40,54.5522847 40.4477153,55 41,55 C41.5522847,55 42,54.5522847 42,54 C42,53.4477153 41.5522847,53 41,53 Z" id="Shape" fill="#428DFF"/><path d="M48,57 C46.3431458,57 45,55.6568542 45,54 C45,52.3431458 46.3431458,51 48,51 C49.6568542,51 51,52.3431458 51,54 C51,55.6568542 49.6568542,57 48,57 Z M48,53 C47.4477153,53 47,53.4477153 47,54 C47,54.5522847 47.4477153,55 48,55 C48.5522847,55 49,54.5522847 49,54 C49,53.4477153 48.5522847,53 48,53 Z" id="Shape" fill="#428DFF"/><polygon id="Shape" fill="#FFFFFF" points="6 58 19 58 48 58 48 60 19 60 6 60"/><path d="M11,59 C11,58.4477153 10.5522847,58 10,58 L6,58 L6,60 L10,60 C10.5522847,60 11,59.5522847 11,59 Z" id="Shape" fill="#428DFF"/><path d="M48,60 L48,58 L18,58 C17.4477153,58 17,58.4477153 17,59 C17,59.5522847 17.4477153,60 18,60 L48,60 Z" id="Shape" fill="#428DFF"/><path d="M14,58 C13.7352731,58.0038804 13.481743,58.107435 13.29,58.29 L13.17,58.44 C13.1321227,58.4957271 13.1018554,58.5562619 13.08,58.62 C13.0511123,58.6766624 13.0308873,58.7373375 13.02,58.8 C13.0088692,58.8661445 13.0021875,58.9329612 13,59 C13.0038804,59.2647269 13.107435,59.518257 13.29,59.71 C13.3856071,59.8003968 13.4976187,59.871677 13.62,59.92 C13.9929737,60.0708766 14.4197788,59.9886481 14.71,59.71 C14.8003968,59.6143929 14.871677,59.5023813 14.92,59.38 C14.971241,59.2597777 14.99842,59.1306773 15,59 C15.0027011,58.7339647 14.8982118,58.4780384 14.7100867,58.2899133 C14.5219616,58.1017882 14.2660353,57.9972989 14,58 Z" id="Shape" fill="#428DFF"/><path d="M48,60 C47.4477153,60 47,59.5522847 47,59 C47,58.4477153 47.4477153,58 48,58 C50.209139,58 52,56.209139 52,54 C52,51.790861 50.209139,50 48,50 L6,50 C3.790861,50 2,51.790861 2,54 C2,56.209139 3.790861,58 6,58 C6.55228475,58 7,58.4477153 7,59 C7,59.5522847 6.55228475,60 6,60 C2.6862915,60 8.8817842e-16,57.3137085 0,54 C-4.4408921e-16,50.6862915 2.6862915,48 6,48 L48,48 C51.3137085,48 54,50.6862915 54,54 C54,57.3137085 51.3137085,60 48,60 Z" id="Shape" fill="#428DFF"/><path d="M32,50 L22,50 C21.4477153,50 21,49.5522847 21,49 L21,36 C21,34.708 21.9,33.158 22.7,31.789 C22.968,31.33 23.215,30.91 23.377,30.57 C23.8459428,29.0938317 24.0567002,27.547826 24,26 C24.0315548,25.6575771 23.9200768,25.3173521 23.692,25.06 C23.2118479,24.4606492 22.9659127,23.7072063 23,22.94 C23.0016536,21.328014 24.308014,20.0216536 25.92,20.02 L28.08,20.02 C29.691986,20.0216536 30.9983464,21.328014 31,22.94 C31.0340873,23.7072063 30.7881521,24.4606492 30.308,25.06 C30.0799232,25.3173521 29.9684452,25.6575771 30,26 C29.9427776,27.5478518 30.1535472,29.0939466 30.623,30.57 C30.784,30.91 31.031,31.33 31.299,31.789 C32.1,33.158 33,34.708 33,36 L33,49 C33,49.5522847 32.5522847,50 32,50 Z M23,48 L31,48 L31,36 C30.724223,34.8546284 30.2398059,33.7698596 29.571,32.8 C29.271,32.286 28.998,31.815 28.817,31.434 C28.2157675,29.6875963 27.9388823,27.8459878 28,26 C27.9659127,25.2327937 28.2118479,24.4793508 28.692,23.88 C28.9200768,23.6226479 29.0315548,23.2824229 29,22.94 C28.9994489,22.4321265 28.5878735,22.0205511 28.08,22.02 L25.92,22.02 C25.4121265,22.0205511 25.0005511,22.4321265 25,22.94 C24.9684452,23.2824229 25.0799232,23.6226479 25.308,23.88 C25.7881521,24.4793508 26.0340873,25.2327937 26,26 C26.0605005,27.8445637 25.7839732,29.6846898 25.184,31.43 C25.002,31.811 24.729,32.282 24.429,32.796 C23.7597484,33.7670694 23.2753142,34.8532326 23,36 L23,48 Z" id="Shape" fill="#428DFF"/><path d="M32,46 L22,46 C21.4477153,46 21,45.5522847 21,45 L21,38 C21,37.4477153 21.4477153,37 22,37 L32,37 C32.5522847,37 33,37.4477153 33,38 L33,45 C33,45.5522847 32.5522847,46 32,46 Z M23,44 L31,44 L31,39 L23,39 L23,44 Z" id="Shape" fill="#428DFF"/><path d="M18,50 L8,50 C7.44771525,50 7,49.5522847 7,49 L7,36 C7,34.708 7.9,33.158 8.7,31.789 C8.968,31.33 9.215,30.91 9.377,30.57 C9.8459428,29.0938317 10.0567002,27.547826 10,26 C10.0315548,25.6575771 9.92007678,25.3173521 9.692,25.06 C9.2118479,24.4606492 8.96591273,23.7072063 9,22.94 C9.0016536,21.328014 10.308014,20.0216536 11.92,20.02 L14.08,20.02 C15.691986,20.0216536 16.9983464,21.328014 17,22.94 C17.0340873,23.7072063 16.7881521,24.4606492 16.308,25.06 C16.0799232,25.3173521 15.9684452,25.6575771 16,26 C15.9427776,27.5478518 16.1535472,29.0939466 16.623,30.57 C16.784,30.91 17.031,31.33 17.299,31.789 C18.1,33.158 19,34.708 19,36 L19,49 C19,49.5522847 18.5522847,50 18,50 Z M9,48 L17,48 L17,36 C16.724223,34.8546284 16.2398059,33.7698596 15.571,32.8 C15.271,32.286 14.998,31.815 14.817,31.434 C14.2157675,29.6875963 13.9388823,27.8459878 14,26 C13.9659127,25.2327937 14.2118479,24.4793508 14.692,23.88 C14.9200768,23.6226479 15.0315548,23.2824229 15,22.94 C14.9994489,22.4321265 14.5878735,22.0205511 14.08,22.02 L11.92,22.02 C11.4121265,22.0205511 11.0005511,22.4321265 11,22.94 C10.9684452,23.2824229 11.0799232,23.6226479 11.308,23.88 C11.7881521,24.4793508 12.0340873,25.2327937 12,26 C12.0605005,27.8445637 11.7839732,29.6846898 11.184,31.43 C11.002,31.811 10.729,32.282 10.429,32.796 C9.75974845,33.7670694 9.27531422,34.8532326 9,36 L9,48 Z" id="Shape" fill="#428DFF"/><path d="M18,46 L8,46 C7.44771525,46 7,45.5522847 7,45 L7,38 C7,37.4477153 7.44771525,37 8,37 L18,37 C18.5522847,37 19,37.4477153 19,38 L19,45 C19,45.5522847 18.5522847,46 18,46 Z M9,44 L17,44 L17,39 L9,39 L9,44 Z" id="Shape" fill="#428DFF"/><path d="M46,50 L36,50 C35.4477153,50 35,49.5522847 35,49 L35,36 C35,34.708 35.9,33.158 36.7,31.789 C36.968,31.33 37.215,30.91 37.377,30.57 C37.8459428,29.0938317 38.0567002,27.547826 38,26 C38.0315548,25.6575771 37.9200768,25.3173521 37.692,25.06 C37.2118479,24.4606492 36.9659127,23.7072063 37,22.94 C37.0016536,21.328014 38.308014,20.0216536 39.92,20.02 L42.08,20.02 C43.691986,20.0216536 44.9983464,21.328014 45,22.94 C45.0340873,23.7072063 44.7881521,24.4606492 44.308,25.06 C44.0799232,25.3173521 43.9684452,25.6575771 44,26 C43.9427776,27.5478518 44.1535472,29.0939466 44.623,30.57 C44.784,30.91 45.031,31.33 45.299,31.789 C46.1,33.158 47,34.708 47,36 L47,49 C47,49.5522847 46.5522847,50 46,50 Z M37,48 L45,48 L45,36 C44.724223,34.8546284 44.2398059,33.7698596 43.571,32.8 C43.271,32.286 42.998,31.815 42.817,31.434 C42.2157675,29.6875963 41.9388823,27.8459878 42,26 C41.9659127,25.2327937 42.2118479,24.4793508 42.692,23.88 C42.9200768,23.6226479 43.0315548,23.2824229 43,22.94 C42.9994489,22.4321265 42.5878735,22.0205511 42.08,22.02 L39.92,22.02 C39.4121265,22.0205511 39.0005511,22.4321265 39,22.94 C38.9684452,23.2824229 39.0799232,23.6226479 39.308,23.88 C39.7881521,24.4793508 40.0340873,25.2327937 40,26 C40.0605005,27.8445637 39.7839732,29.6846898 39.184,31.43 C39.002,31.811 38.729,32.282 38.429,32.796 C37.7597484,33.7670694 37.2753142,34.8532326 37,36 L37,48 Z" id="Shape" fill="#428DFF"/><path d="M46,46 L36,46 C35.4477153,46 35,45.5522847 35,45 L35,38 C35,37.4477153 35.4477153,37 36,37 L46,37 C46.5522847,37 47,37.4477153 47,38 L47,45 C47,45.5522847 46.5522847,46 46,46 Z M37,44 L45,44 L45,39 L37,39 L37,44 Z" id="Shape" fill="#428DFF"/><path d="M31,11 L23,11 C20.790861,11 19,9.209139 19,7 L19,4 C19,1.790861 20.790861,4.05812251e-16 23,0 L31,0 C33.209139,1.3527075e-16 35,1.790861 35,4 L35,7 C35,9.209139 33.209139,11 31,11 Z M23,2 C21.8954305,2 21,2.8954305 21,4 L21,7 C21,8.1045695 21.8954305,9 23,9 L31,9 C32.1045695,9 33,8.1045695 33,7 L33,4 C33,2.8954305 32.1045695,2 31,2 L23,2 Z" id="Shape" fill="#428DFF"/><path d="M24,13 C23.4477153,13 23,12.5522847 23,12 L23,10 C23,9.44771525 23.4477153,9 24,9 C24.5522847,9 25,9.44771525 25,10 L25,12 C25,12.5522847 24.5522847,13 24,13 Z" id="Shape" fill="#428DFF"/><path d="M30,13 C29.4477153,13 29,12.5522847 29,12 L29,10 C29,9.44771525 29.4477153,9 30,9 C30.5522847,9 31,9.44771525 31,10 L31,12 C31,12.5522847 30.5522847,13 30,13 Z" id="Shape" fill="#428DFF"/><path d="M27,16 C26.4477153,16 26,15.5522847 26,15 L26,13 C26,12.4477153 26.4477153,12 27,12 C27.5522847,12 28,12.4477153 28,13 L28,15 C28,15.5522847 27.5522847,16 27,16 Z" id="Shape" fill="#428DFF"/><path d="M27,22 C26.4477153,22 26,21.5522847 26,21 L26,19 C26,18.4477153 26.4477153,18 27,18 C27.5522847,18 28,18.4477153 28,19 L28,21 C28,21.5522847 27.5522847,22 27,22 Z" id="Shape" fill="#428DFF"/><path d="M40,8 L34,8 C33.4477153,8 33,7.55228475 33,7 L33,3 C33,2.44771525 33.4477153,2 34,2 L38,2 L38,1 C38,0.44771525 38.4477153,1.01453063e-16 39,0 L43,0 C43.5522847,3.38176876e-17 44,0.44771525 44,1 L44,4 C44,6.209139 42.209139,8 40,8 Z M35,6 L40,6 C41.1045695,6 42,5.1045695 42,4 L42,2 L40,2 L40,3 C40,3.55228475 39.5522847,4 39,4 L35,4 L35,6 Z" id="Shape" fill="#428DFF"/><path d="M20,8 L14,8 C11.790861,8 10,6.209139 10,4 L10,1 C10,0.44771525 10.4477153,1.01453063e-16 11,0 L15,0 C15.5522847,3.38176876e-17 16,0.44771525 16,1 L16,2 L20,2 C20.5522847,2 21,2.44771525 21,3 L21,7 C21,7.55228475 20.5522847,8 20,8 Z M12,2 L12,4 C12,5.1045695 12.8954305,6 14,6 L19,6 L19,4 L15,4 C14.4477153,4 14,3.55228475 14,3 L14,2 L12,2 Z" id="Shape" fill="#428DFF"/></g></g></svg>
