<?xml version="1.0" encoding="UTF-8"?>
<svg xmlns="http://www.w3.org/2000/svg" xmlns:xlink="http://www.w3.org/1999/xlink" width="512" height="512" viewBox="0 0 60 60" version="1.1"><!-- Generator: Sketch 51.3 (57544) - http://www.bohemiancoding.com/sketch --><title>008 - Beer Pouring</title><desc>Created with Sketch.</desc><defs/><g id="Page-1" stroke="none" stroke-width="1" fill="none" fill-rule="evenodd"><g id="008---Beer-Pouring" fill-rule="nonzero"><path d="M56.47,35.08 L55.02,43.37 L52.542,42.815 L51.95,39 L51.77,38.74 L52.48,34.66 C52.7341769,33.2064309 52.0883709,31.7427682 50.8433529,30.9506829 C49.5983348,30.1585976 47.9989188,30.1938413 46.79,31.04 L46.5,31.25 L42.625,30.708 L44.2,27.97 L45.02,27.4 C48.1820514,25.1780432 52.5465109,25.9390259 54.77,29.1 L55.3,29.85 C56.3693652,31.3686494 56.7903438,33.2504597 56.47,35.08 Z" id="Shape" fill="#7FACFA"/><path d="M49.14,35 L34.15,39.75 C32.74,37.99 31.46,31.31 30.7,30.13 L39.93,23.64 C40.1458529,23.4865936 40.4139963,23.4256603 40.6749482,23.4707167 C40.9359001,23.5157731 41.1680859,23.6630943 41.32,23.88 L44.2,27.97 L46.5,31.25 L49.14,35 Z" id="Shape" fill="#E8EDFC"/><path d="M51.95,39 L38.542,42.167 C37.242,42.167 35.842,37.12 34.15,35 L49.14,35 L51.77,38.74 L51.95,39 Z" id="Shape" fill="#FFFFFF"/><path d="M28.18,27.75 C27.9075327,28.2038319 27.5430429,28.5955732 27.11,28.9 C26.8643769,29.1200905 26.5694119,29.2778625 26.25,29.36 C25.7866646,29.4437267 25.3088194,29.3844321 24.88,29.19 C24.7103042,29.127692 24.5463524,29.0507351 24.39,28.96 C23.1337455,28.1436916 21.996321,27.1576993 21.01,26.03 C20.86,25.88 20.71,25.73 20.55,25.58 C19.2555753,24.4013375 17.6717517,23.5869968 15.96,23.22 C13.98232,22.9881327 11.9887751,22.9212352 10,23.02 L10,19.02 L16.29,19.02 C16.7437644,19.0207982 17.1791735,18.8408943 17.5000339,18.5200339 C17.8208943,18.1991735 18.0007982,17.7637644 18,17.31 L18,15.02 L18.53,14.72 L21.44,13.09 L22,17.02 C21.8897846,18.0434979 22.0376138,19.0783024 22.43,20.03 C23.115669,21.3322512 23.9733559,22.5363763 24.98,23.61 C25.47,24.15 26,24.66 26.54,25.15 C27.0879909,25.5436345 27.5910164,25.9963574 28.04,26.5 C28.3125026,26.8594103 28.3662402,27.3392105 28.18,27.75 Z" id="Shape" fill="#CAD9FC"/><path d="M25.18,28.75 C25.101152,28.9100231 25.0001603,29.0581444 24.88,29.19 C24.7103042,29.127692 24.5463524,29.0507351 24.39,28.96 C23.1337455,28.1436916 21.996321,27.1576993 21.01,26.03 C20.86,25.88 20.71,25.73 20.55,25.58 C19.2555753,24.4013375 17.6717517,23.5869968 15.96,23.22 C13.98232,22.9881327 11.9887751,22.9212352 10,23.02 L10,20.02 L13.29,20.02 C13.7439107,20.0215568 14.1795933,19.8415227 14.5,19.52 C14.6432715,19.3757875 14.7585542,19.206254 14.84,19.02 L16.29,19.02 C16.7437644,19.0207982 17.1791735,18.8408943 17.5000339,18.5200339 C17.8208943,18.1991735 18.0007982,17.7637644 18,17.31 L18,15.02 L18.53,14.72 L19,18.02 C18.8897846,19.0434979 19.0376138,20.0783024 19.43,21.03 C20.115669,22.3322512 20.9733559,23.5363763 21.98,24.61 C22.47,25.15 23,25.66 23.54,26.15 C24.0879909,26.5436345 24.5910164,26.9963574 25.04,27.5 C25.3125026,27.8594103 25.3662402,28.3392105 25.18,28.75 Z" id="Shape" fill="#E8EDFC"/><path d="M11,17.02 L11,47 L5,47 L5,17.02 C5,15.3631458 6.34314575,14.02 8,14.02 C9.65685425,14.02 11,15.3631458 11,17.02 Z" id="Shape" fill="#CAD9FC"/><path d="M8,17.02 L8.00000001,47 L4.99999938,47 L5,17.02 C4.99931238,15.947516 5.57120128,14.9562419 6.5,14.42 C6.72500809,14.5547918 6.93314358,14.715929 7.12,14.9 C7.68342275,15.4616324 8.00007021,16.2244649 8,17.02 Z" id="Shape" fill="#E8EDFC"/><path d="M15,50 L0.999977331,50 C0.996000059,48.6726954 1.52149969,47.3986004 2.46005006,46.4600501 C3.39860043,45.5214997 4.67269536,44.9960001 6,45 L10,45 C11.3260824,45 12.597852,45.5267842 13.5355339,46.4644661 C14.4732158,47.402148 15,48.6739176 15,50 Z" id="Shape" fill="#CAD9FC"/><path d="M12,50 L0.999977331,50 C0.996000059,48.6726954 1.52149969,47.3986004 2.46005006,46.4600501 C3.39860043,45.5214997 4.67269536,44.9960001 6,45 L7,45 C8.32608245,45 9.59785201,45.5267842 10.5355339,46.4644661 C11.4732158,47.402148 12,48.6739176 12,50 Z" id="Shape" fill="#E8EDFC"/><path d="M28.98,4.52 L22,17.02 L18,15.02 L24,3.03 C24.3042803,1.88906802 25.3391953,1.09645457 26.52,1.1 L26.56,1.1 C26.8747449,1.10656494 27.1859892,1.16746057 27.48,1.28 C28.7597181,1.79172538 29.4177791,3.21313703 28.98,4.52 Z" id="Shape" fill="#CAD9FC"/><path d="M26.98,3.52 L20,16.02 L18,15.02 L24,3.03 C24.3042803,1.88906802 25.3391953,1.09645457 26.52,1.1 L26.56,1.1 C27.101008,1.78339031 27.2590959,2.6942776 26.98,3.52 Z" id="Shape" fill="#E8EDFC"/><path d="M56.27,45.15 L41.55,55.5 L41.03,54.76 L26.6,34.23 C26.283933,33.7795515 26.3911852,33.1583826 26.84,32.84 L28.19,31.89 L30.7,30.13 C31.46,31.31 32.74,33.24 34.15,35 C35.84,37.12 37.7,39 39,39 L51.95,39 L55.02,43.37 L56.27,45.15 Z" id="Shape" fill="#CAD9FC"/><path d="M53.27,46.15 L41.03,54.76 L26.6,34.23 C26.283933,33.7795515 26.3911852,33.1583826 26.84,32.84 L28.19,31.89 C28.96,33.05 30.01,34.58 31.15,36 C32.84,38.12 34.7,40 36,40 L48.95,40 L52.02,44.37 L53.27,46.15 Z" id="Shape" fill="#E8EDFC"/><path d="M58.57,48.43 L43.85,58.78 C43.82,58.8 43.78,58.82 43.75,58.84 L43.72,58.86 C43.2764885,59.0797478 42.7388554,58.9389391 42.46,58.53 L41.31,56.9 C40.9917661,56.4466544 41.0989411,55.8214668 41.55,55.5 L53.91,46.81 L56.27,45.15 C56.7270469,44.838958 57.3488544,44.9499951 57.67,45.4 L58.82,47.03 C58.9739942,47.2483199 59.0342241,47.5191832 58.9872588,47.7821891 C58.9402934,48.0451949 58.7900386,48.2784716 58.57,48.43 Z" id="Shape" fill="#7FACFA"/><path d="M56.14,50.13 L43.75,58.84 L43.72,58.86 C43.2764885,59.0797478 42.7388554,58.9389391 42.46,58.53 L41.31,56.9 C40.9917661,56.4466544 41.0989411,55.8214668 41.55,55.5 L53.91,46.81 C54.3614368,46.5470145 54.9390212,46.6729539 55.24,47.1 L56.39,48.73 C56.5439942,48.9483199 56.6042241,49.2191832 56.5572588,49.4821891 C56.5102934,49.7451949 56.3600386,49.9784716 56.14,50.13 Z" id="Shape" fill="#A4C2F7"/><circle id="Oval" fill="#FFFFFF" cx="44" cy="46" r="2"/><path d="M5.46,46.46 C6.15625657,45.7691178 7.03901371,45.2964605 8,45.1 L8,17.02 C7.99997969,15.9539653 8.56567699,14.9679922 9.486,14.43 C9.03549711,14.1646638 8.52282483,14.0232132 8,14.02 C6.34314575,14.02 5,15.3631458 5,17.02 L5,45.1 C2.66695348,45.5674532 0.990913854,47.6206018 0.999963236,50 L4,50 C4.0000388,48.6734875 4.52490459,47.4008677 5.46,46.46 Z" id="Shape" fill="#FFFFFF"/><polygon id="Shape" fill="#FFFFFF" points="6 17.021 6 30.021 6 45.003 4 45.003 4 30.021 4 17.021"/><path d="M5,22.021 C5.55228475,22.021 6,21.5732847 6,21.021 L6,17.021 L4,17.021 L4,21.021 C4,21.5732847 4.44771525,22.021 5,22.021 Z" id="Shape" fill="#428DFF"/><path d="M4,45 L6,45 L6,29.021 C6,28.4687153 5.55228475,28.021 5,28.021 C4.44771525,28.021 4,28.4687153 4,29.021 L4,45 Z" id="Shape" fill="#428DFF"/><path d="M6,25.021 C5.99611961,24.7562731 5.89256504,24.502743 5.71,24.311 L5.56,24.191 C5.50427287,24.1531227 5.44373808,24.1228554 5.38,24.101 C5.32333758,24.0721123 5.26266255,24.0518873 5.2,24.041 C5.13385548,24.0298692 5.06703885,24.0231875 5,24.021 C4.73527314,24.0248804 4.48174298,24.128435 4.29,24.311 C4.19960316,24.4066071 4.12832305,24.5186187 4.08,24.641 C3.92912342,25.0139737 4.01135194,25.4407788 4.29,25.731 C4.38560709,25.8213968 4.49761868,25.892677 4.62,25.941 C4.74022231,25.992241 4.86932274,26.01942 5,26.021 C5.26603534,26.0237011 5.52196165,25.9192118 5.71008674,25.7310867 C5.89821183,25.5429616 6.00270108,25.2870353 6,25.021 Z" id="Shape" fill="#428DFF"/><path d="M11,46 C10.4477153,46 10,45.5522847 10,45 L10,17.021 C10,15.9164305 9.1045695,15.021 8,15.021 C6.8954305,15.021 6,15.9164305 6,17.021 C6,17.5732847 5.55228475,18.021 5,18.021 C4.44771525,18.021 4,17.5732847 4,17.021 C4,14.811861 5.790861,13.021 8,13.021 C10.209139,13.021 12,14.811861 12,17.021 L12,45 C12,45.5522847 11.5522847,46 11,46 Z" id="Shape" fill="#428DFF"/><path d="M15,51 L1,51 C0.44771525,51 6.76353751e-17,50.5522847 0,50 C0.00330737898,46.6876624 2.68766243,44.0033074 6,44 L10,44 C13.3123376,44.0033074 15.9966926,46.6876624 16,50 C16,50.5522847 15.5522847,51 15,51 Z M2.127,49 L13.873,49 C13.4151339,47.2351496 11.8232756,46.0021068 10,46 L6,46 C4.17672444,46.0021068 2.58486609,47.2351496 2.127,49 Z" id="Shape" fill="#428DFF"/><path d="M25.853,30.4 C25.1662747,30.3806854 24.4958178,30.1865695 23.905,29.836 C22.7680871,29.142715 21.7396807,28.285485 20.853,27.292 C20.6703333,27.106 20.488,26.9223333 20.306,26.741 C20.16,26.595 20.018,26.453 19.866,26.311 C18.7078069,25.257029 17.2910939,24.5286604 15.76,24.2 C14.55159,24.0065354 13.3260627,23.9418399 12.104,24.007 C11.733,24.014 11.365,24.02 11.004,24.02 C10.4517153,24.02 10.004,23.5722847 10.004,23.02 C10.004,22.4677153 10.4517153,22.02 11.004,22.02 C11.358,22.02 11.715,22.014 12.073,22.008 C13.4414177,21.9351524 14.8136961,22.0132905 16.165,22.241 C18.0468216,22.6403779 19.788641,23.5328576 21.212,24.827 C21.406,25.008 21.565,25.166 21.722,25.327 C21.906,25.509 22.094,25.7 22.282,25.892 C23.0369763,26.7435604 23.9102028,27.4824185 24.875,28.086 C25.2164331,28.3188707 25.6285579,28.4249973 26.04,28.386 C26.1939215,28.341015 26.3352989,28.2609125 26.453,28.152 L26.692,27.952 C26.9225631,27.7854706 27.1202395,27.5776222 27.275,27.339 C27.3086182,27.2533628 27.2924853,27.1561813 27.233,27.086 C27.0074975,26.8163976 26.7468384,26.5782729 26.458,26.378 C26.258,26.221 26.058,26.066 25.876,25.902 C25.292,25.375 24.742,24.831 24.244,24.288 C23.1803128,23.1489263 22.2723969,21.8738089 21.544,20.496 C21.1233898,19.604475 20.9362001,18.6206968 21,17.637 L19,16.637 L19,17.312 C19,18.8070348 17.7880348,20.019 16.293,20.019 L11,20.019 C10.4477153,20.019 10,19.5712847 10,19.019 C10,18.4667153 10.4477153,18.019 11,18.019 L16.293,18.019 C16.6826856,18.0190016 16.9988976,17.703684 17,17.314 L17,15.021 C16.9980979,14.6734931 17.1767435,14.3499153 17.4718336,14.1663763 C17.7669236,13.9828372 18.1361412,13.9656569 18.447,14.121 L22.447,16.121 C22.7860516,16.2904246 23.0001766,16.636974 23,17.016 L23,17.375 C22.9224928,18.1213299 23.0328397,18.8751946 23.321,19.568 C23.9671832,20.7881018 24.7725586,21.9169725 25.716,22.925 C26.172,23.425 26.677,23.925 27.216,24.408 C27.36,24.538 27.522,24.662 27.683,24.787 C28.1297374,25.102484 28.5270821,25.4826408 28.862,25.915 C29.3432054,26.5699211 29.4294419,27.4349696 29.087,28.172 C28.8212145,28.6829838 28.4434903,29.1273653 27.982,29.472 L27.776,29.649 C27.4105723,29.9767768 26.9709554,30.2108273 26.495,30.331 C26.2841333,30.3772006 26.0688683,30.4003366 25.853,30.4 Z" id="Shape" fill="#428DFF"/><path d="M22,18.021 C21.8452105,18.0209898 21.6925366,17.9850463 21.554,17.916 L17.554,15.916 C17.3165515,15.7975321 17.1359258,15.5895446 17.0518988,15.3378386 C16.9678717,15.0861326 16.9873341,14.8113497 17.106,14.574 L23.063,2.665 C23.3518751,1.70068188 24.0313106,0.901364064 24.9365036,0.460928016 C25.8416966,0.0204919674 26.8899497,-0.020824602 27.827,0.347 L27.851,0.356 C29.6207158,1.06401209 30.5318355,3.02875102 29.929,4.837 C29.9089813,4.89637902 29.8838887,4.95392474 29.854,5.009 L22.873,17.509 C22.6962186,17.8251938 22.3622571,18.0210566 22,18.021 Z M19.343,14.574 L21.593,15.7 L28.056,4.125 C28.2716717,3.34514979 27.8711965,2.52703014 27.123,2.219 L27.106,2.212 C26.6809751,2.04210605 26.2035386,2.06237842 25.7944452,2.26768976 C25.3853519,2.47300111 25.0837785,2.84368975 24.966,3.286 C24.948921,3.35160353 24.9251288,3.41527297 24.895,3.476 L19.343,14.574 Z" id="Shape" fill="#428DFF"/><path d="M41.549,56.5 C41.2229035,56.5018734 40.9167142,56.3433578 40.73,56.076 L25.779,34.808 C25.4739518,34.3737672 25.3539847,33.8361018 25.4455121,33.3133826 C25.5370395,32.7906635 25.8325571,32.3257489 26.267,32.021 L39.355,22.821 C39.7891832,22.5155348 40.3269984,22.3952222 40.8499512,22.4865701 C41.372904,22.577918 41.8380839,22.873431 42.143,23.308 L52.585,38.165 C52.9025637,38.6170451 52.7935451,39.2409363 52.3415,39.5585 C51.8894549,39.8760637 51.2655637,39.7670451 50.948,39.315 L40.506,24.458 L27.416,33.658 L41.792,54.111 L54.882,44.911 L54.203,43.945 C53.977412,43.6533404 53.9306248,43.2612061 54.0812585,42.9246578 C54.2318922,42.5881096 54.5555033,42.3617597 54.9233016,42.3356905 C55.2911,42.3096214 55.6434023,42.4880632 55.84,42.8 L57.093,44.583 C57.4104905,45.0347853 57.3017056,45.6583961 56.85,45.976 L42.124,56.323 C41.955046,56.439624 41.7542915,56.5014215 41.549,56.5 Z" id="Shape" fill="#428DFF"/><path d="M43.277,59.959 C43.16069,59.9589006 43.0446012,59.9488641 42.93,59.929 C42.4062762,59.8399704 41.9403369,59.5441188 41.637,59.108 L40.487,57.472 C39.8529063,56.5683547 40.0708786,55.3218396 40.974,54.687 L55.7,44.335 C56.1341106,44.0298514 56.6716921,43.9097237 57.1944015,44.0010619 C57.7171108,44.0924 58.1820977,44.3877164 58.487,44.822 L59.638,46.458 C60.2729811,47.3615706 60.0554112,48.6087922 59.152,49.244 L44.424,59.6 C44.0878048,59.835022 43.6871957,59.9604088 43.277,59.959 Z M56.85,45.972 L42.124,56.323 L43.273,57.959 L58,47.608 L56.85,45.972 Z" id="Shape" fill="#428DFF"/><path d="M55.021,44.371 C54.6954039,44.37095 54.3902178,44.2123876 54.203,43.946 L50.948,39.315 C50.7954677,39.0980019 50.7353951,38.8292939 50.781,38.568 L51.494,34.484 C51.617182,33.792087 51.4579858,33.0796662 51.052,32.506 C50.2094826,31.311546 48.5597525,31.0231785 47.362,31.861 L47.073,32.061 C46.6214003,32.3778087 45.9985505,32.2690784 45.681,31.818 L43.381,28.545 C43.0635095,28.0932147 43.1722944,27.4696039 43.624,27.152 L44.442,26.577 C46.1779306,25.3567369 48.3275377,24.876114 50.4178591,25.2408794 C52.5081804,25.6056448 54.3679585,26.7859136 55.588,28.522 L56.117,29.275 C57.3422556,31.0083925 57.8233157,33.1598404 57.453,35.25 L56.007,43.539 C55.9237942,44.0184173 55.507584,44.3683547 55.021,44.368 L55.021,44.371 Z M52.821,38.503 L54.449,40.82 L55.48,34.91 C55.7588332,33.3423996 55.3987278,31.728407 54.48,30.428 L53.951,29.675 C52.0456915,26.964429 48.303972,26.3112621 45.593,28.216 L46.769,29.89 C48.3383031,29.0857686 50.2275282,29.2386206 51.6471296,30.2846762 C53.066731,31.3307317 53.7723136,33.0899044 53.469,34.827 L52.821,38.503 Z" id="Shape" fill="#428DFF"/><path d="M51.95,40 L39,40 C36.9,40 33.827,36.861 29.858,30.669 C29.5600424,30.2039762 29.6954763,29.5854576 30.1605,29.2875 C30.6255238,28.9895424 31.2440424,29.1249763 31.542,29.59 C35.246,35.368 38.005,38 39,38 L51.95,38 C52.5022847,38 52.95,38.4477153 52.95,39 C52.95,39.5522847 52.5022847,40 51.95,40 Z" id="Shape" fill="#428DFF"/><path d="M49.14,36 L34.15,36 C33.5977153,36 33.15,35.5522847 33.15,35 C33.15,34.4477153 33.5977153,34 34.15,34 L49.14,34 C49.6922847,34 50.14,34.4477153 50.14,35 C50.14,35.5522847 49.6922847,36 49.14,36 Z" id="Shape" fill="#428DFF"/><path d="M44,49 C42.3431458,49 41,47.6568542 41,46 C41,44.3431458 42.3431458,43 44,43 C45.6568542,43 47,44.3431458 47,46 C47,47.6568542 45.6568542,49 44,49 Z M44,45 C43.4477153,45 43,45.4477153 43,46 C43,46.5522847 43.4477153,47 44,47 C44.5522847,47 45,46.5522847 45,46 C45,45.4477153 44.5522847,45 44,45 Z" id="Shape" fill="#428DFF"/><circle id="Oval" fill="#428DFF" cx="38" cy="44" r="1"/></g></g></svg>
