<?xml version="1.0" encoding="UTF-8"?>
<svg xmlns="http://www.w3.org/2000/svg" xmlns:xlink="http://www.w3.org/1999/xlink" width="512" height="512" viewBox="0 0 60 60" version="1.1"><!-- Generator: Sketch 51.3 (57544) - http://www.bohemiancoding.com/sketch --><title>009 - Barrels </title><desc>Created with Sketch.</desc><defs/><g id="Page-1" stroke="none" stroke-width="1" fill="none" fill-rule="evenodd"><g id="009---Barrels-" fill-rule="nonzero"><path d="M34,1.32 C32.6777791,1.10315575 31.3398785,0.996123698 30,1 C23.37,1 18,3.46 18,6.5 C18.0016227,6.84310504 18.0695344,7.18266356 18.2,7.5 C18.3516183,7.86446839 18.5609675,8.20212841 18.82,8.5 C20.57,10.55 24.91,12 30,12 C34.44,12 38.31,10.9 40.39,9.25 C40.6836374,9.03399207 40.9490397,8.78202786 41.18,8.5 C41.4390325,8.20212841 41.6483817,7.86446839 41.8,7.5 C41.9304656,7.18266356 41.9983773,6.84310504 42,6.5 C42,4.1 38.66,2.07 34,1.32 Z" id="Shape" fill="#7FACFA"/><path d="M43,30.04 C42.9665175,30.9048579 42.6096513,31.7256503 42,32.34 C41.9083982,32.4416022 41.8116022,32.5383982 41.71,32.63 C40.2800928,33.8418114 38.5839725,34.6984379 36.76,35.13 C37.5836582,34.7450327 38.3453555,34.2394814 39.02,33.63 C39.1216022,33.5383982 39.2183982,33.4416022 39.31,33.34 C39.9478275,32.7451565 40.31,31.9121598 40.31,31.04 C40.31,30.1678402 39.9478275,29.3348435 39.31,28.74 L39.31,24.19 C40.1763154,23.8092391 40.9763629,23.2927528 41.68,22.66 C41.7857099,22.6823003 41.892526,22.6989903 42,22.71 L42,27.74 C42.6096513,28.3543497 42.9665175,29.1751421 43,30.04 Z" id="Shape" fill="#CAD9FC"/><path d="M40.31,31.04 C40.2765175,31.9048579 39.9196513,32.7256503 39.31,33.34 C39.2183982,33.4416022 39.1216022,33.5383982 39.02,33.63 C38.3453555,34.2394814 37.5836582,34.7450327 36.76,35.13 C34.5569127,35.7270586 32.2824727,36.019775 30,36 C24.6,36 19.97,34.49 18,32.34 C17.3621725,31.7451565 17,30.9121598 17,30.04 C17,29.1678402 17.3621725,28.3348435 18,27.74 L18,22.34 C19.97,24.49 24.6,26 30,26 C32.2821733,26.0148092 34.555945,25.7221789 36.76,25.13 C37.6368758,24.8950501 38.4904298,24.5804067 39.31,24.19 L39.31,28.74 C39.9196513,29.3543497 40.2765175,30.1751421 40.31,31.04 Z" id="Shape" fill="#7FACFA"/><path d="M39.31,23.71 L39.31,24.19 C38.4904298,24.5804067 37.6368758,24.8950501 36.76,25.13 C37.5717168,24.7525782 38.3231744,24.2572227 38.99,23.66 C39.0957099,23.6823003 39.202526,23.6989903 39.31,23.71 Z" id="Shape" fill="#CAD9FC"/><path d="M42,32.68 L42,40.5 C42,43.16 37.89,45.38 32.42,45.89 C36.49,45.02 39.31,43.12 39.31,40.92 L39.31,34.2 C40.186859,33.8048079 40.9966167,33.2750913 41.71,32.63 C41.805601,32.6523465 41.9024354,32.6690421 42,32.68 Z" id="Shape" fill="#CAD9FC"/><path d="M43,20.04 C42.9665175,20.9048579 42.6096513,21.7256503 42,22.34 C41.9,22.45 41.79,22.56 41.68,22.66 C39.96,24.27 36.71,25.47 32.8,25.86 C35.0688212,25.4835546 37.2014277,24.5257765 38.99,23.08 C39.1,22.98 39.21,22.87 39.31,22.76 C39.9196513,22.1456503 40.2765175,21.3248579 40.31,20.46 C40.2765175,19.5951421 39.9196513,18.7743497 39.31,18.16 L39.31,14.34 C40.2061272,13.9784475 40.9945709,13.3931399 41.6,12.64 C41.73,12.67 41.86,12.69 42,12.71 L42,17.74 C42.6096513,18.3543497 42.9665175,19.1751421 43,20.04 Z" id="Shape" fill="#CAD9FC"/><path d="M39.31,34.2 L39.31,40.92 C39.31,43.12 36.49,45.02 32.42,45.89 C31.64,45.96 30.83,46 30,46 C23.37,46 18,43.54 18,40.5 L18,32.34 C19.97,34.49 24.6,36 30,36 C30.96,36 31.9,35.95 32.8,35.86 L32.82,35.86 C35.0607084,35.6721077 37.2542584,35.1110456 39.31,34.2 Z" id="Shape" fill="#A4C2F7"/><path d="M39.31,33.1 L39.31,34.2 C37.2542584,35.1110456 35.0607084,35.6721077 32.82,35.86 C35.0959195,35.478615 37.2329606,34.5100528 39.02,33.05 C39.115601,33.0723465 39.2124354,33.0890421 39.31,33.1 Z" id="Shape" fill="#CAD9FC"/><path d="M40.31,20.46 C40.2765175,21.3248579 39.9196513,22.1456503 39.31,22.76 C39.21,22.87 39.1,22.98 38.99,23.08 C37.2014277,24.5257765 35.0688212,25.4835546 32.8,25.86 C32.79,25.86 32.79,25.87 32.78,25.86 C31.88,25.95 30.95,26 30,26 C24.6,26 19.97,24.49 18,22.34 C17.3903487,21.7256503 17.0334825,20.9048579 17,20.04 C17.0334825,19.1751421 17.3903487,18.3543497 18,17.74 L18,11.5 C18,13.99 23.37,16 30,16 C31.0958722,16.0026335 32.1909968,15.9425352 33.28,15.82 C35.3568147,15.6560339 37.393271,15.1562071 39.31,14.34 L39.31,18.16 C39.9196513,18.7743497 40.2765175,19.5951421 40.31,20.46 Z" id="Shape" fill="#A4C2F7"/><path d="M39.31,13.13 L39.31,14.34 C37.393271,15.1562071 35.3568147,15.6560339 33.28,15.82 C36.03,15.23 38.09,14.24 38.91,13.06 C39.04,13.09 39.17,13.11 39.31,13.13 Z" id="Shape" fill="#CAD9FC"/><path d="M42,6.5 L42,11.5 C41.9906446,11.9127509 41.8505942,12.3118943 41.6,12.64 C40.9160782,13.4708826 40.0216037,14.1028858 39.01,14.47 C39.2020515,14.1826491 39.3062929,13.8456017 39.31,13.5 L39.31,9.97 C39.686492,9.75570962 40.0473889,9.51511175 40.39,9.25 C40.6836374,9.03399207 40.9490397,8.78202786 41.18,8.5 C41.6873023,7.95513724 41.9788009,7.24416503 42,6.5 Z" id="Shape" fill="#7FACFA"/><path d="M39.31,9.97 L39.31,13.5 C39.3062929,13.8456017 39.2020515,14.1826491 39.01,14.47 C36.1329106,15.5543258 33.0737532,16.0738054 30,16 C23.83,16 18.75,14.26 18.08,12.01 C18.0290622,11.8447049 18.0021207,11.6729526 18,11.5 L18,6.5 C18.0211991,7.24416503 18.3126977,7.95513724 18.82,8.5 C20.57,10.55 24.91,12 30,12 C32.9683444,12.0683188 35.9161654,11.4917196 38.64,10.31 C38.88,10.2 39.1,10.09 39.31,9.97 Z" id="Shape" fill="#A4C2F7"/><path d="M39.31,8.5 L39.31,9.97 C39.1,10.09 38.88,10.2 38.64,10.31 C39.0619635,9.80000818 39.2981989,9.1618199 39.31,8.5 Z" id="Shape" fill="#CAD9FC"/><path d="M34,3.32 C32.6777791,3.10315575 31.3398785,2.9961237 30,3 C24.11,3 19.22,4.94 18.2,7.5 C18.3516183,7.86446839 18.5609675,8.20212841 18.82,8.5 C20.57,10.55 24.91,12 30,12 C34.44,12 38.31,10.9 40.39,9.25 C40.6836374,9.03399207 40.9490397,8.78202786 41.18,8.5 C41.4390325,8.20212841 41.6483817,7.86446839 41.8,7.5 C41.02,5.55 38,3.96 34,3.32 Z" id="Shape" fill="#A4C2F7"/><path d="M35,7 C35,8.1 32.76,9 30,9 C29.66,9 29.33,8.99 29.01,8.96 L28.99,8.96 C26.72,8.77 25,7.96 25,7 C25,6.04 26.71,5.23 28.99,5.04 L29.01,5.04 L29.47,5.01 C29.64,5 29.82,5 30,5 C30.18,5 30.36,5 30.53,5.01 C33.04,5.12 35,5.97 35,7 Z" id="Shape" fill="#CAD9FC"/><path d="M33,7 C33,7.96 31.28,8.77 29.01,8.96 L28.99,8.96 C26.72,8.77 25,7.96 25,7 C25,6.04 26.71,5.23 28.99,5.04 L29.01,5.04 C31.29,5.23 33,6.04 33,7 Z" id="Shape" fill="#E8EDFC"/><path d="M18,14.32 C16.6777791,14.1031557 15.3398785,13.9961237 14,14 C7.37,14 2,16.46 2,19.5 C2.00162265,19.843105 2.06953436,20.1826636 2.2,20.5 C2.3516183,20.8644684 2.56096751,21.2021284 2.82,21.5 C4.57,23.55 8.91,25 14,25 C18.44,25 22.31,23.9 24.39,22.25 C24.6836374,22.0339921 24.9490397,21.7820279 25.18,21.5 C25.4390325,21.2021284 25.6483817,20.8644684 25.8,20.5 C25.9304656,20.1826636 25.9983773,19.843105 26,19.5 C26,17.1 22.66,15.07 18,14.32 Z" id="Shape" fill="#CAD9FC"/><path d="M27,43.04 C26.9665175,43.9048579 26.6096513,44.7256503 26,45.34 C25.9083982,45.4416022 25.8116022,45.5383982 25.71,45.63 C24.2800928,46.8418114 22.5839725,47.6984379 20.76,48.13 C21.5836582,47.7450327 22.3453555,47.2394814 23.02,46.63 C23.1216022,46.5383982 23.2183982,46.4416022 23.31,46.34 C23.9478275,45.7451565 24.31,44.9121598 24.31,44.04 C24.31,43.1678402 23.9478275,42.3348435 23.31,41.74 L23.31,37.19 C24.1763154,36.8092391 24.9763629,36.2927528 25.68,35.66 C25.7857099,35.6823003 25.892526,35.6989903 26,35.71 L26,40.74 C26.6096513,41.3543497 26.9665175,42.1751421 27,43.04 Z" id="Shape" fill="#CAD9FC"/><path d="M24.31,44.04 C24.2765175,44.9048579 23.9196513,45.7256503 23.31,46.34 C23.2183982,46.4416022 23.1216022,46.5383982 23.02,46.63 C22.3453555,47.2394814 21.5836582,47.7450327 20.76,48.13 C18.5569127,48.7270586 16.2824727,49.019775 14,49 C8.6,49 3.97,47.49 2,45.34 C1.36217246,44.7451565 1,43.9121598 1,43.04 C1,42.1678402 1.36217246,41.3348435 2,40.74 L2,35.34 C3.97,37.49 8.6,39 14,39 C16.2821733,39.0148092 18.555945,38.7221789 20.76,38.13 C21.6368758,37.8950501 22.4904298,37.5804067 23.31,37.19 L23.31,41.74 C23.9196513,42.3543497 24.2765175,43.1751421 24.31,44.04 Z" id="Shape" fill="#E8EDFC"/><path d="M23.31,36.71 L23.31,37.19 C22.4904298,37.5804067 21.6368758,37.8950501 20.76,38.13 C21.5717168,37.7525782 22.3231744,37.2572227 22.99,36.66 C23.0957099,36.6823003 23.202526,36.6989903 23.31,36.71 Z" id="Shape" fill="#CAD9FC"/><path d="M26,45.68 L26,53.5 C26,56.16 21.89,58.38 16.42,58.89 C20.49,58.02 23.31,56.12 23.31,53.92 L23.31,47.2 C24.186859,46.8048079 24.9966167,46.2750913 25.71,45.63 C25.805601,45.6523465 25.9024354,45.6690421 26,45.68 Z" id="Shape" fill="#CAD9FC"/><path d="M27,33.04 C26.9665175,33.9048579 26.6096513,34.7256503 26,35.34 C25.9,35.45 25.79,35.56 25.68,35.66 C23.96,37.27 20.71,38.47 16.8,38.86 C19.0688212,38.4835546 21.2014277,37.5257765 22.99,36.08 C23.1,35.98 23.21,35.87 23.31,35.76 C23.9478275,35.1651565 24.31,34.3321598 24.31,33.46 C24.31,32.5878402 23.9478275,31.7548435 23.31,31.16 L23.31,27.34 C24.2061272,26.9784475 24.9945709,26.3931399 25.6,25.64 C25.73,25.67 25.86,25.69 26,25.71 L26,30.74 C26.6096513,31.3543497 26.9665175,32.1751421 27,33.04 Z" id="Shape" fill="#CAD9FC"/><path d="M23.31,47.2 L23.31,53.92 C23.31,56.12 20.49,58.02 16.42,58.89 C15.64,58.96 14.83,59 14,59 C7.37,59 2,56.54 2,53.5 L2,45.34 C3.97,47.49 8.6,49 14,49 C14.96,49 15.9,48.95 16.8,48.86 L16.82,48.86 C19.0607084,48.6721077 21.2542584,48.1110456 23.31,47.2 Z" id="Shape" fill="#E8EDFC"/><path d="M23.31,46.1 L23.31,47.2 C21.2542584,48.1110456 19.0607084,48.6721077 16.82,48.86 C19.0959195,48.478615 21.2329606,47.5100528 23.02,46.05 C23.115601,46.0723465 23.2124354,46.0890421 23.31,46.1 Z" id="Shape" fill="#CAD9FC"/><path d="M24.31,33.46 C24.2765175,34.3248579 23.9196513,35.1456503 23.31,35.76 C23.21,35.87 23.1,35.98 22.99,36.08 C21.2014277,37.5257765 19.0688212,38.4835546 16.8,38.86 C16.79,38.86 16.79,38.87 16.78,38.86 C15.88,38.95 14.95,39 14,39 C8.6,39 3.97,37.49 2,35.34 C1.36217246,34.7451565 1,33.9121598 1,33.04 C1,32.1678402 1.36217246,31.3348435 2,30.74 L2,24.5 C2,26.99 7.37,29 14,29 C15.0958722,29.0026335 16.1909968,28.9425352 17.28,28.82 C19.3568147,28.6560339 21.393271,28.1562071 23.31,27.34 L23.31,31.16 C23.9196513,31.7743497 24.2765175,32.5951421 24.31,33.46 Z" id="Shape" fill="#E8EDFC"/><path d="M23.31,26.13 L23.31,27.34 C21.393271,28.1562071 19.3568147,28.6560339 17.28,28.82 C20.03,28.23 22.09,27.24 22.91,26.06 C23.04,26.09 23.17,26.11 23.31,26.13 Z" id="Shape" fill="#CAD9FC"/><path d="M26,19.5 L26,24.5 C25.9906446,24.9127509 25.8505942,25.3118943 25.6,25.64 C24.9160782,26.4708826 24.0216037,27.1028858 23.01,27.47 C23.2020515,27.1826491 23.3062929,26.8456017 23.31,26.5 L23.31,22.97 C23.686492,22.7557096 24.0473889,22.5151117 24.39,22.25 C24.6836374,22.0339921 24.9490397,21.7820279 25.18,21.5 C25.6873023,20.9551372 25.9788009,20.244165 26,19.5 Z" id="Shape" fill="#CAD9FC"/><path d="M23.31,22.97 L23.31,26.5 C23.3062929,26.8456017 23.2020515,27.1826491 23.01,27.47 C20.1329106,28.5543258 17.0737532,29.0738054 14,29 C7.83,29 2.75,27.26 2.08,25.01 C2.02906222,24.8447049 2.00212069,24.6729526 2,24.5 L2,19.5 C2.02119914,20.244165 2.31269775,20.9551372 2.82,21.5 C4.57,23.55 8.91,25 14,25 C16.9683444,25.0683188 19.9161654,24.4917196 22.64,23.31 C22.88,23.2 23.1,23.09 23.31,22.97 Z" id="Shape" fill="#E8EDFC"/><path d="M23.31,21.5 L23.31,22.97 C23.1,23.09 22.88,23.2 22.64,23.31 C23.0619635,22.8000082 23.2981989,22.1618199 23.31,21.5 Z" id="Shape" fill="#CAD9FC"/><path d="M18,16.32 C16.6777791,16.1031557 15.3398785,15.9961237 14,16 C8.11,16 3.22,17.94 2.2,20.5 C2.3516183,20.8644684 2.56096751,21.2021284 2.82,21.5 C4.57,23.55 8.91,25 14,25 C18.44,25 22.31,23.9 24.39,22.25 C24.6836374,22.0339921 24.9490397,21.7820279 25.18,21.5 C25.4390325,21.2021284 25.6483817,20.8644684 25.8,20.5 C25.02,18.55 22,16.96 18,16.32 Z" id="Shape" fill="#E8EDFC"/><path d="M19,20 C19,21.1 16.76,22 14,22 C13.66,22 13.33,21.99 13.01,21.96 L12.99,21.96 C10.72,21.77 9,20.96 9,20 C9,19.04 10.71,18.23 12.99,18.04 L13.01,18.04 L13.47,18.01 C13.64,18 13.82,18 14,18 C14.18,18 14.36,18 14.53,18.01 C17.04,18.12 19,18.97 19,20 Z" id="Shape" fill="#7FACFA"/><path d="M17,20 C17,20.96 15.28,21.77 13.01,21.96 L12.99,21.96 C10.72,21.77 9,20.96 9,20 C9,19.04 10.71,18.23 12.99,18.04 L13.01,18.04 C15.29,18.23 17,19.04 17,20 Z" id="Shape" fill="#A4C2F7"/><path d="M50,14.32 C48.6777791,14.1031557 47.3398785,13.9961237 46,14 C39.37,14 34,16.46 34,19.5 C34.0016227,19.843105 34.0695344,20.1826636 34.2,20.5 C34.3516183,20.8644684 34.5609675,21.2021284 34.82,21.5 C36.57,23.55 40.91,25 46,25 C50.44,25 54.31,23.9 56.39,22.25 C56.6836374,22.0339921 56.9490397,21.7820279 57.18,21.5 C57.4390325,21.2021284 57.6483817,20.8644684 57.8,20.5 C57.9304656,20.1826636 57.9983773,19.843105 58,19.5 C58,17.1 54.66,15.07 50,14.32 Z" id="Shape" fill="#CAD9FC"/><path d="M59,43.04 C58.9665175,43.9048579 58.6096513,44.7256503 58,45.34 C57.9083982,45.4416022 57.8116022,45.5383982 57.71,45.63 C56.2800928,46.8418114 54.5839725,47.6984379 52.76,48.13 C53.5836582,47.7450327 54.3453555,47.2394814 55.02,46.63 C55.1216022,46.5383982 55.2183982,46.4416022 55.31,46.34 C55.9478275,45.7451565 56.31,44.9121598 56.31,44.04 C56.31,43.1678402 55.9478275,42.3348435 55.31,41.74 L55.31,37.19 C56.1763154,36.8092391 56.9763629,36.2927528 57.68,35.66 C57.7857099,35.6823003 57.892526,35.6989903 58,35.71 L58,40.74 C58.6096513,41.3543497 58.9665175,42.1751421 59,43.04 Z" id="Shape" fill="#CAD9FC"/><path d="M56.31,44.04 C56.2765175,44.9048579 55.9196513,45.7256503 55.31,46.34 C55.2183982,46.4416022 55.1216022,46.5383982 55.02,46.63 C54.3453555,47.2394814 53.5836582,47.7450327 52.76,48.13 C50.5569127,48.7270586 48.2824727,49.019775 46,49 C40.6,49 35.97,47.49 34,45.34 C33.3621725,44.7451565 33,43.9121598 33,43.04 C33,42.1678402 33.3621725,41.3348435 34,40.74 L34,35.34 C35.97,37.49 40.6,39 46,39 C48.2821733,39.0148092 50.555945,38.7221789 52.76,38.13 C53.6368758,37.8950501 54.4904298,37.5804067 55.31,37.19 L55.31,41.74 C55.9196513,42.3543497 56.2765175,43.1751421 56.31,44.04 Z" id="Shape" fill="#E8EDFC"/><path d="M55.31,36.71 L55.31,37.19 C54.4904298,37.5804067 53.6368758,37.8950501 52.76,38.13 C53.5717168,37.7525782 54.3231744,37.2572227 54.99,36.66 C55.0957099,36.6823003 55.202526,36.6989903 55.31,36.71 Z" id="Shape" fill="#CAD9FC"/><path d="M58,45.68 L58,53.5 C58,56.16 53.89,58.38 48.42,58.89 C52.49,58.02 55.31,56.12 55.31,53.92 L55.31,47.2 C56.186859,46.8048079 56.9966167,46.2750913 57.71,45.63 C57.805601,45.6523465 57.9024354,45.6690421 58,45.68 Z" id="Shape" fill="#CAD9FC"/><path d="M59,33.04 C58.9665175,33.9048579 58.6096513,34.7256503 58,35.34 C57.9,35.45 57.79,35.56 57.68,35.66 C55.96,37.27 52.71,38.47 48.8,38.86 C51.0688212,38.4835546 53.2014277,37.5257765 54.99,36.08 C55.1,35.98 55.21,35.87 55.31,35.76 C55.9478275,35.1651565 56.31,34.3321598 56.31,33.46 C56.31,32.5878402 55.9478275,31.7548435 55.31,31.16 L55.31,27.34 C56.2061272,26.9784475 56.9945709,26.3931399 57.6,25.64 C57.73,25.67 57.86,25.69 58,25.71 L58,30.74 C58.6096513,31.3543497 58.9665175,32.1751421 59,33.04 Z" id="Shape" fill="#CAD9FC"/><path d="M55.31,47.2 L55.31,53.92 C55.31,56.12 52.49,58.02 48.42,58.89 C47.64,58.96 46.83,59 46,59 C39.37,59 34,56.54 34,53.5 L34,45.34 C35.97,47.49 40.6,49 46,49 C46.96,49 47.9,48.95 48.8,48.86 L48.82,48.86 C51.0607084,48.6721077 53.2542584,48.1110456 55.31,47.2 Z" id="Shape" fill="#E8EDFC"/><path d="M55.31,46.1 L55.31,47.2 C53.2542584,48.1110456 51.0607084,48.6721077 48.82,48.86 C51.0959195,48.478615 53.2329606,47.5100528 55.02,46.05 C55.115601,46.0723465 55.2124354,46.0890421 55.31,46.1 Z" id="Shape" fill="#CAD9FC"/><path d="M56.31,33.46 C56.2765175,34.3248579 55.9196513,35.1456503 55.31,35.76 C55.21,35.87 55.1,35.98 54.99,36.08 C53.2014277,37.5257765 51.0688212,38.4835546 48.8,38.86 C48.79,38.86 48.79,38.87 48.78,38.86 C47.88,38.95 46.95,39 46,39 C40.6,39 35.97,37.49 34,35.34 C33.3621725,34.7451565 33,33.9121598 33,33.04 C33,32.1678402 33.3621725,31.3348435 34,30.74 L34,24.5 C34,26.99 39.37,29 46,29 C47.0958722,29.0026335 48.1909968,28.9425352 49.28,28.82 C51.3568147,28.6560339 53.393271,28.1562071 55.31,27.34 L55.31,31.16 C55.9196513,31.7743497 56.2765175,32.5951421 56.31,33.46 Z" id="Shape" fill="#E8EDFC"/><path d="M55.31,26.13 L55.31,27.34 C53.393271,28.1562071 51.3568147,28.6560339 49.28,28.82 C52.03,28.23 54.09,27.24 54.91,26.06 C55.04,26.09 55.17,26.11 55.31,26.13 Z" id="Shape" fill="#CAD9FC"/><path d="M58,19.5 L58,24.5 C57.9906446,24.9127509 57.8505942,25.3118943 57.6,25.64 C56.9160782,26.4708826 56.0216037,27.1028858 55.01,27.47 C55.2020515,27.1826491 55.3062929,26.8456017 55.31,26.5 L55.31,22.97 C55.686492,22.7557096 56.0473889,22.5151117 56.39,22.25 C56.6836374,22.0339921 56.9490397,21.7820279 57.18,21.5 C57.6873023,20.9551372 57.9788009,20.244165 58,19.5 Z" id="Shape" fill="#CAD9FC"/><path d="M55.31,22.97 L55.31,26.5 C55.3062929,26.8456017 55.2020515,27.1826491 55.01,27.47 C52.1329106,28.5543258 49.0737532,29.0738054 46,29 C39.83,29 34.75,27.26 34.08,25.01 C34.0290622,24.8447049 34.0021207,24.6729526 34,24.5 L34,19.5 C34.0211991,20.244165 34.3126977,20.9551372 34.82,21.5 C36.57,23.55 40.91,25 46,25 C48.9683444,25.0683188 51.9161654,24.4917196 54.64,23.31 C54.88,23.2 55.1,23.09 55.31,22.97 Z" id="Shape" fill="#E8EDFC"/><path d="M55.31,21.5 L55.31,22.97 C55.1,23.09 54.88,23.2 54.64,23.31 C55.0619635,22.8000082 55.2981989,22.1618199 55.31,21.5 Z" id="Shape" fill="#CAD9FC"/><path d="M50,16.32 C48.6777791,16.1031557 47.3398785,15.9961237 46,16 C40.11,16 35.22,17.94 34.2,20.5 C34.3516183,20.8644684 34.5609675,21.2021284 34.82,21.5 C36.57,23.55 40.91,25 46,25 C50.44,25 54.31,23.9 56.39,22.25 C56.6836374,22.0339921 56.9490397,21.7820279 57.18,21.5 C57.4390325,21.2021284 57.6483817,20.8644684 57.8,20.5 C57.02,18.55 54,16.96 50,16.32 Z" id="Shape" fill="#E8EDFC"/><path d="M51,20 C51,21.1 48.76,22 46,22 C45.66,22 45.33,21.99 45.01,21.96 L44.99,21.96 C42.72,21.77 41,20.96 41,20 C41,19.04 42.71,18.23 44.99,18.04 L45.01,18.04 L45.47,18.01 C45.64,18 45.82,18 46,18 C46.18,18 46.36,18 46.53,18.01 C49.04,18.12 51,18.97 51,20 Z" id="Shape" fill="#7FACFA"/><path d="M49,20 C49,20.96 47.28,21.77 45.01,21.96 L44.99,21.96 C42.72,21.77 41,20.96 41,20 C41,19.04 42.71,18.23 44.99,18.04 L45.01,18.04 C47.29,18.23 49,19.04 49,20 Z" id="Shape" fill="#A4C2F7"/><path d="M21,14.32 L21,6.5 C21,3.711 25.525,1.416 31.392,1.055 C30.931,1.03 30.474,1 30,1 C23.37,1 18,3.46 18,6.5 C18.0006586,6.67128908 18.0180749,6.84210281 18.052,7.01 C18.0811498,7.13882815 18.119242,7.26546826 18.166,7.389 C18.179,7.425 18.186,7.463 18.2,7.499 C18.185,7.463 18.179,7.424 18.166,7.388 C18.1193781,7.26442214 18.0812887,7.13779154 18.052,7.009 C18.0177984,6.84148241 18.000379,6.67097294 18,6.5 L18,11.5 C18.0025691,11.6695628 18.0291672,11.8379049 18.079,12 C18.0288741,11.8379728 18.0022694,11.6695885 18,11.5 L18,14.039 C19.0049291,14.0692455 20.0069342,14.1630999 21,14.32 Z M18.917,13.227 C18.986,13.29 19.068,13.35 19.144,13.411 C19.068,13.35 18.986,13.29 18.917,13.227 Z M19.978,13.974 C20.069,14.026 20.168,14.074 20.265,14.127 C20.168,14.076 20.069,14.026 19.978,13.974 Z M19.402,13.611 C19.482,13.668 19.573,13.722 19.659,13.777 C19.572,13.722 19.482,13.668 19.4,13.611 L19.402,13.611 Z M18.82,8.5 C18.5607607,8.20266086 18.3519949,7.86485215 18.202,7.5 C18.3529604,7.86435869 18.5616339,8.20201801 18.82,8.5 Z M18.735,13.041 C18.4671411,12.7776975 18.2585027,12.4603079 18.123,12.11 C18.2585027,12.4603079 18.4671411,12.7776975 18.735,13.041 Z" id="Shape" fill="#FFFFFF"/><path d="M5,19.5 C5.0003125,19.6713072 5.01773227,19.8421549 5.052,20.01 C5.01807485,19.8421028 5.00065855,19.6712891 5,19.5 Z" id="Shape" fill="#FFFFFF"/><path d="M5.2,20.5 C5.186,20.464 5.179,20.426 5.166,20.39 C5.179,20.426 5.185,20.465 5.2,20.501 L5.2,20.5 Z" id="Shape" fill="#FFFFFF"/><path d="M5.052,20.01 C5.08128869,20.1387915 5.11937811,20.2654221 5.166,20.389 C5.11924203,20.2654683 5.08114976,20.1388281 5.052,20.01 Z" id="Shape" fill="#FFFFFF"/><path d="M21,11.5 C21.0022694,11.6695885 21.0288741,11.8379728 21.079,12 C21.0291672,11.8379049 21.0025691,11.6695628 21,11.5 Z" id="Shape" fill="#FFFFFF"/><path d="M21,6.5 C21.0003125,6.67130717 21.0177323,6.84215493 21.052,7.01 C21.0180749,6.84210281 21.0006586,6.67128908 21,6.5 Z" id="Shape" fill="#FFFFFF"/><path d="M1,43.04 C1.03348246,43.9048579 1.39034868,44.7256503 2,45.34 L2,53.5 C2,56.54 7.37,59 14,59 C14.51,59 15.009,58.981 15.5,58.953 C9.581,58.614 5,56.307 5,53.5 L5,45.34 C4.36217246,44.7451565 4,43.9121598 4,43.04 C4,42.1678402 4.36217246,41.3348435 5,40.74 L5,35.34 C4.36217246,34.7451565 4,33.9121598 4,33.04 C4,32.1678402 4.36217246,31.3348435 5,30.74 L5,19.5 C5,16.711 9.525,14.416 15.392,14.055 C14.931,14.03 14.474,14 14,14 C7.37,14 2,16.46 2,19.5 C2.00065855,19.6712891 2.01807485,19.8421028 2.052,20.01 C2.08114976,20.1388281 2.11924203,20.2654683 2.166,20.389 C2.179,20.425 2.186,20.463 2.2,20.499 C2.185,20.463 2.179,20.424 2.166,20.388 C2.11937811,20.2644221 2.08128869,20.1377915 2.052,20.009 C2.01779844,19.8414824 2.000379,19.6709729 2,19.5 L2,24.5 C2.00256911,24.6695628 2.02916716,24.8379049 2.079,25 C2.02887408,24.8379728 2.00226935,24.6695885 2,24.5 L2,30.74 C1.36217246,31.3348435 1,32.1678402 1,33.04 C1,33.9121598 1.36217246,34.7451565 2,35.34 L2,40.74 C1.39034868,41.3543497 1.03348246,42.1751421 1,43.04 Z M2.917,26.227 C2.986,26.29 3.068,26.35 3.144,26.411 C3.068,26.35 2.986,26.29 2.917,26.227 Z M3.978,26.974 C4.069,27.026 4.168,27.074 4.265,27.127 C4.168,27.076 4.069,27.026 3.978,26.974 Z M3.4,26.611 C3.48,26.668 3.571,26.722 3.657,26.777 C3.572,26.722 3.482,26.668 3.4,26.611 Z M4.637,27.311 C4.737,27.359 4.847,27.405 4.954,27.451 C4.849,27.408 4.741,27.362 4.639,27.314 L4.637,27.311 Z M2.82,21.5 C2.56076071,21.2026609 2.35199493,20.8648522 2.202,20.5 C2.35296044,20.8643587 2.5616339,21.202018 2.82,21.5 Z M2.735,26.041 C2.46714111,25.7776975 2.25850266,25.4603079 2.123,25.11 C2.25850266,25.4603079 2.46714111,25.7776975 2.735,26.041 Z" id="Shape" fill="#FFFFFF"/><path d="M5,24.5 C5.00226935,24.6695885 5.02887408,24.8379728 5.079,25 C5.02916716,24.8379049 5.00256911,24.6695628 5,24.5 Z" id="Shape" fill="#FFFFFF"/><path d="M21.052,7.01 C21.0812887,7.13879154 21.1193781,7.26542214 21.166,7.389 C21.119242,7.26546826 21.0811498,7.13882815 21.052,7.01 Z" id="Shape" fill="#FFFFFF"/><path d="M21.2,7.5 C21.186,7.464 21.179,7.426 21.166,7.39 C21.179,7.426 21.185,7.465 21.2,7.501 L21.2,7.5 Z" id="Shape" fill="#FFFFFF"/><path d="M14,60 C11.7358839,60.0098711 9.48125152,59.70701 7.3,59.1 C6.17783395,58.7847103 5.09696905,58.3375948 4.08,57.768 C2.93932053,57.1629609 2.00072016,56.2372228 1.38,55.105 C1.27033362,54.8551222 1.17843868,54.5978163 1.105,54.335 C1.05377874,54.0589474 1.01871908,53.7801397 1,53.5 L3,53.5 C3.026,53.624 3.026,53.748 3.049,53.873 C3.103,53.996 3.121,54.124 3.186,54.249 C3.63944249,55.0116348 4.29770889,55.6317911 5.086,56.039 C5.96203034,56.5272817 6.89241205,56.9109131 7.858,57.182 C9.85821736,57.7346284 11.9248686,58.0098678 14,58 L14,60 Z" id="Shape" fill="#FFFFFF"/><path d="M9.034,58.5 C8.9791271,58.7650851 9.03646516,59.0410588 9.19239009,59.2623471 C9.34831501,59.4836355 9.58890735,59.630484 9.857,59.668 C11.2275112,59.8841706 12.6125537,59.9951612 14,60 L14,58 C12.7195555,57.9974787 11.4411726,57.8971871 10.176,57.7 C9.64538461,57.6298086 9.14929992,57.9773285 9.034,58.5 Z" id="Shape" fill="#428DFF"/><path d="M3,53.5 L1,53.5 C1.01706566,53.7800413 1.05045573,54.0588484 1.1,54.335 C1.17343868,54.5978163 1.26533362,54.8551222 1.375,55.105 L1.691,55.668 C1.811,55.838 1.942,55.993 2.07,56.155 C2.2417441,56.3863837 2.50985571,56.5265433 2.79787325,56.5355073 C3.08589079,56.5444713 3.36219946,56.4212558 3.548,56.201 C3.86484635,55.8157635 3.88611025,55.2665825 3.6,54.858 L3.362,54.558 L3.19,54.249 C3.125,54.124 3.107,53.996 3.053,53.873 C3.026,53.748 3.026,53.624 3,53.5 Z" id="Shape" fill="#428DFF"/><path d="M5.79,58.588 C6.04778176,58.6906525 6.33596782,58.6856092 6.59,58.574 L6.756,58.474 C6.81089773,58.434649 6.85974762,58.3874836 6.901,58.334 C6.94662005,58.2895232 6.98507591,58.2382488 7.015,58.182 C7.04780708,58.123525 7.07621881,58.0626904 7.1,58 C7.17613585,57.7478851 7.16090934,57.4769947 7.057,57.235 C7.00180051,57.1213109 6.92504615,57.0194246 6.831,56.935 C6.55765779,56.6688903 6.1516469,56.5920987 5.8,56.74 C5.68213541,56.7897963 5.57410735,56.8602347 5.481,56.948 C5.38382547,57.0349183 5.30348604,57.1389867 5.244,57.255 C5.12786684,57.4978257 5.11452825,57.7772151 5.207,58.03 C5.32476483,58.2823262 5.5327578,58.4814001 5.79,58.588 Z" id="Shape" fill="#428DFF"/><path d="M14,60 C13.4477153,60 13,59.5522847 13,59 C13,58.4477153 13.4477153,58 14,58 C20.482,58 25,55.628 25,53.5 C25,52.9477153 25.4477153,52.5 26,52.5 C26.5522847,52.5 27,52.9477153 27,53.5 C27,57.206 21.411,60 14,60 Z" id="Shape" fill="#428DFF"/><path d="M14,26 C8.744,26 4.057,24.488 2.06,22.149 C1.39489465,21.4251594 1.01782826,20.4828492 1,19.5 C1,15.794 6.589,13 14,13 C21.411,13 27,15.794 27,19.5 C26.9820487,20.483309 26.6046161,21.4260013 25.939,22.15 C25.6594449,22.4886524 25.3386203,22.7910002 24.984,23.05 C22.67,24.891 18.554,26 14,26 Z M14,15 C7.518,15 3,17.372 3,19.5 C3.02147022,20.0058471 3.2278532,20.4862213 3.58,20.85 C4.919,22.418 8.66,24 14,24 C18.056,24 21.8,23.029 23.768,21.467 C24.0046857,21.2948998 24.2184157,21.0932677 24.404,20.867 C24.7636882,20.4999117 24.9758178,20.013366 25,19.5 C25,17.372 20.482,15 14,15 Z" id="Shape" fill="#428DFF"/><path d="M14,30 C7.54,30 1,28.111 1,24.5 C1,23.9477153 1.44771525,23.5 2,23.5 C2.55228475,23.5 3,23.9477153 3,24.5 C3,25.927 7.285,28 14,28 C20.715,28 25,25.927 25,24.5 C25,23.9477153 25.4477153,23.5 26,23.5 C26.5522847,23.5 27,23.9477153 27,24.5 C27,28.111 20.46,30 14,30 Z" id="Shape" fill="#428DFF"/><path d="M14.531,19.01 L14.473,19.01 C14.321,19 14.162,19 14,19 C13.838,19 13.679,19 13.527,19.008 C12.9747153,19.0397564 12.5012564,18.6177847 12.4695,18.0655 C12.4377437,17.5132153 12.8597153,17.0397564 13.412,17.008 C13.8037188,16.9870002 14.1962812,16.9870002 14.588,17.008 C15.1402847,17.0237401 15.5752401,17.4842153 15.5595,18.0365 C15.5437598,18.5887847 15.0832847,19.0237401 14.531,19.008 L14.531,19.01 Z" id="Shape" fill="#428DFF"/><path d="M14,40 C8.479,40 3.479,38.436 1.263,36.015 C0.456886172,35.2367792 0.00109809954,34.1647387 -3.292347e-05,33.0442719 C-0.00116394648,31.9238051 0.452458918,30.8508466 1.257,30.071 C1.49618931,29.8055517 1.85882435,29.6878732 2.20830402,29.7622931 C2.55778368,29.8367129 2.84101369,30.0919249 2.95130403,30.4317931 C3.06159438,30.7716613 2.98218933,31.1445517 2.743,31.41 C2.27088923,31.8200591 1.99976163,32.4146705 1.99976163,33.04 C1.99976163,33.6653295 2.27088923,34.2599409 2.743,34.67 C4.564,36.66 9.091,38 14,38 C18.909,38 23.436,36.66 25.263,34.665 C25.732328,34.2539397 26.0009957,33.6600256 25.9998457,33.0361362 C25.9986956,32.4122468 25.7278403,31.8193272 25.257,31.41 C24.8872454,30.9996524 24.9201524,30.3672546 25.3305,29.9975 C25.7408476,29.6277454 26.3732454,29.6606524 26.743,30.071 C27.5464393,30.8498317 27.999934,31.9210302 27.999934,33.04 C27.999934,34.1589698 27.5464393,35.2301683 26.743,36.009 C24.521,38.436 19.521,40 14,40 Z" id="Shape" fill="#428DFF"/><path d="M14,50 C8.479,50 3.479,48.436 1.263,46.015 C0.456886172,45.2367792 0.00109809954,44.1647387 -3.292347e-05,43.0442719 C-0.00116394648,41.9238051 0.452458918,40.8508466 1.257,40.071 C1.49618931,39.8055517 1.85882435,39.6878732 2.20830402,39.7622931 C2.55778369,39.8367129 2.8410137,40.0919249 2.95130404,40.4317931 C3.06159438,40.7716613 2.98218933,41.1445517 2.743,41.41 C2.27088923,41.8200591 1.99976163,42.4146705 1.99976163,43.04 C1.99976163,43.6653295 2.27088923,44.2599409 2.743,44.67 C4.564,46.66 9.091,48 14,48 C18.909,48 23.436,46.66 25.263,44.665 C25.732328,44.2539397 26.0009957,43.6600256 25.9998457,43.0361362 C25.9986956,42.4122468 25.7278403,41.8193272 25.257,41.41 C24.8872454,40.9996524 24.9201524,40.3672546 25.3305,39.9975 C25.7408476,39.6277454 26.3732454,39.6606524 26.743,40.071 C27.5464393,40.8498317 27.999934,41.9210302 27.999934,43.04 C27.999934,44.1589698 27.5464393,45.2301683 26.743,46.009 C24.521,48.436 19.521,50 14,50 Z" id="Shape" fill="#428DFF"/><path d="M26,41.74 C25.4477153,41.74 25,41.2922847 25,40.74 L25,35.34 C25,34.7877153 25.4477153,34.34 26,34.34 C26.5522847,34.34 27,34.7877153 27,35.34 L27,40.74 C27,41.2922847 26.5522847,41.74 26,41.74 Z" id="Shape" fill="#428DFF"/><path d="M26,31.74 C25.4477153,31.74 25,31.2922847 25,30.74 L25,19.5 C25,18.9477153 25.4477153,18.5 26,18.5 C26.5522847,18.5 27,18.9477153 27,19.5 L27,30.74 C27,31.2922847 26.5522847,31.74 26,31.74 Z" id="Shape" fill="#428DFF"/><path d="M26,54.5 C25.4477153,54.5 25,54.0522847 25,53.5 L25,45.34 C25,44.7877153 25.4477153,44.34 26,44.34 C26.5522847,44.34 27,44.7877153 27,45.34 L27,53.5 C27,54.0522847 26.5522847,54.5 26,54.5 Z" id="Shape" fill="#428DFF"/><path d="M2,41.74 C1.44771525,41.74 1,41.2922847 1,40.74 L1,35.34 C1,34.7877153 1.44771525,34.34 2,34.34 C2.55228475,34.34 3,34.7877153 3,35.34 L3,40.74 C3,41.2922847 2.55228475,41.74 2,41.74 Z" id="Shape" fill="#428DFF"/><path d="M2,54.5 C1.44771525,54.5 1,54.0522847 1,53.5 L1,45.34 C1,44.7877153 1.44771525,44.34 2,44.34 C2.55228475,44.34 3,44.7877153 3,45.34 L3,53.5 C3,54.0522847 2.55228475,54.5 2,54.5 Z" id="Shape" fill="#428DFF"/><path d="M2,31.74 C1.44771525,31.74 1,31.2922847 1,30.74 L1,19.5 C1,18.9477153 1.44771525,18.5 2,18.5 C2.55228475,18.5 3,18.9477153 3,19.5 L3,30.74 C3,31.2922847 2.55228475,31.74 2,31.74 Z" id="Shape" fill="#428DFF"/><path d="M14,23 C11.11,23 8,22.061 8,20 C8,17.939 11.11,17 14,17 C16.89,17 20,17.939 20,20 C20,22.061 16.89,23 14,23 Z M10.025,20 C10.282,20.327 11.652,21 14,21 C16.348,21 17.718,20.327 17.975,20 C17.718,19.673 16.348,19 14,19 C11.652,19 10.282,19.673 10.025,20 Z" id="Shape" fill="#428DFF"/><path d="M10,55 C5.512,55 4.236,52.708 4.105,52.447 C3.85232974,51.9557427 4.04574274,51.3526703 4.53700001,51.1 C5.02825729,50.8473298 5.63132972,51.0407427 5.884,51.532 C5.939,51.626 6.8,53 10,53 C10.5522847,53 11,53.4477153 11,54 C11,54.5522847 10.5522847,55 10,55 Z" id="Shape" fill="#428DFF"/><path d="M46,60 C38.589,60 33,57.206 33,53.5 C33,52.9477153 33.4477153,52.5 34,52.5 C34.5522847,52.5 35,52.9477153 35,53.5 C35,55.628 39.518,58 46,58 C52.482,58 57,55.628 57,53.5 C57,52.9477153 57.4477153,52.5 58,52.5 C58.5522847,52.5 59,52.9477153 59,53.5 C59,57.206 53.411,60 46,60 Z" id="Shape" fill="#428DFF"/><path d="M46,26 C40.744,26 36.057,24.488 34.06,22.149 C33.3948947,21.4251594 33.0178283,20.4828492 33,19.5 C33,15.794 38.589,13 46,13 C53.411,13 59,15.794 59,19.5 C58.9820487,20.483309 58.6046161,21.4260013 57.939,22.15 C57.6594449,22.4886524 57.3386203,22.7910002 56.984,23.05 C54.67,24.891 50.554,26 46,26 Z M46,15 C39.518,15 35,17.372 35,19.5 C35.0214702,20.0058471 35.2278532,20.4862213 35.58,20.85 C36.919,22.418 40.66,24 46,24 C50.056,24 53.8,23.029 55.768,21.467 C56.0046857,21.2948998 56.2184157,21.0932677 56.404,20.867 C56.7636882,20.4999117 56.9758178,20.013366 57,19.5 C57,17.372 52.482,15 46,15 Z" id="Shape" fill="#428DFF"/><path d="M46,30 C39.54,30 33,28.111 33,24.5 C33,23.9477153 33.4477153,23.5 34,23.5 C34.5522847,23.5 35,23.9477153 35,24.5 C35,25.927 39.285,28 46,28 C52.715,28 57,25.927 57,24.5 C57,23.9477153 57.4477153,23.5 58,23.5 C58.5522847,23.5 59,23.9477153 59,24.5 C59,28.111 52.46,30 46,30 Z" id="Shape" fill="#428DFF"/><path d="M46.531,19.01 L46.473,19.01 C46.321,19 46.161,19 46,19 C45.839,19 45.679,19 45.527,19.008 C44.9747153,19.0397564 44.5012564,18.6177847 44.4695,18.0655 C44.4377437,17.5132153 44.8597153,17.0397564 45.412,17.008 C45.8037188,16.9870002 46.1962812,16.9870002 46.588,17.008 C47.1402847,17.0237401 47.5752401,17.4842153 47.5595,18.0365 C47.5437598,18.5887847 47.0832847,19.0237401 46.531,19.008 L46.531,19.01 Z" id="Shape" fill="#428DFF"/><path d="M46,40 C40.479,40 35.479,38.436 33.263,36.015 C32.4568862,35.2367792 32.0010981,34.1647387 31.9999671,33.0442719 C31.9988361,31.9238051 32.4524589,30.8508466 33.257,30.071 C33.6267546,29.6606524 34.2591524,29.6277454 34.6695,29.9975 C35.0798476,30.3672546 35.1127546,30.9996524 34.743,31.41 C34.2708892,31.8200591 33.9997616,32.4146705 33.9997616,33.04 C33.9997616,33.6653295 34.2708892,34.2599409 34.743,34.67 C36.564,36.66 41.091,38 46,38 C50.909,38 55.436,36.66 57.263,34.665 C57.732328,34.2539397 58.0009957,33.6600256 57.9998457,33.0361362 C57.9986956,32.4122468 57.7278403,31.8193272 57.257,31.41 C57.0178107,31.1445517 56.9384056,30.7716613 57.048696,30.4317931 C57.1589863,30.0919249 57.4422163,29.8367129 57.791696,29.7622931 C58.1411756,29.6878732 58.5038107,29.8055516 58.743,30.071 C59.5464393,30.8498317 59.999934,31.9210302 59.999934,33.04 C59.999934,34.1589698 59.5464393,35.2301683 58.743,36.009 C56.521,38.436 51.521,40 46,40 Z" id="Shape" fill="#428DFF"/><path d="M46,50 C40.479,50 35.479,48.436 33.263,46.015 C32.4568862,45.2367792 32.0010981,44.1647387 31.9999671,43.0442719 C31.9988361,41.9238051 32.4524589,40.8508466 33.257,40.071 C33.6267546,39.6606524 34.2591524,39.6277454 34.6695,39.9975 C35.0798476,40.3672546 35.1127546,40.9996524 34.743,41.41 C34.2708892,41.8200591 33.9997616,42.4146705 33.9997616,43.04 C33.9997616,43.6653295 34.2708892,44.2599409 34.743,44.67 C36.564,46.66 41.091,48 46,48 C50.909,48 55.436,46.66 57.263,44.665 C57.732328,44.2539397 58.0009957,43.6600256 57.9998457,43.0361362 C57.9986956,42.4122468 57.7278403,41.8193272 57.257,41.41 C57.0178107,41.1445517 56.9384056,40.7716613 57.048696,40.4317931 C57.1589863,40.0919249 57.4422163,39.8367129 57.791696,39.7622931 C58.1411756,39.6878732 58.5038107,39.8055516 58.743,40.071 C59.5464393,40.8498317 59.999934,41.9210302 59.999934,43.04 C59.999934,44.1589698 59.5464393,45.2301683 58.743,46.009 C56.521,48.436 51.521,50 46,50 Z" id="Shape" fill="#428DFF"/><path d="M58,31.74 C57.4477153,31.74 57,31.2922847 57,30.74 L57,19.5 C57,18.9477153 57.4477153,18.5 58,18.5 C58.5522847,18.5 59,18.9477153 59,19.5 L59,30.74 C59,31.2922847 58.5522847,31.74 58,31.74 Z" id="Shape" fill="#428DFF"/><path d="M58,54.5 C57.4477153,54.5 57,54.0522847 57,53.5 L57,45.34 C57,44.7877153 57.4477153,44.34 58,44.34 C58.5522847,44.34 59,44.7877153 59,45.34 L59,53.5 C59,54.0522847 58.5522847,54.5 58,54.5 Z" id="Shape" fill="#428DFF"/><path d="M58,41.74 C57.4477153,41.74 57,41.2922847 57,40.74 L57,35.34 C57,34.7877153 57.4477153,34.34 58,34.34 C58.5522847,34.34 59,34.7877153 59,35.34 L59,40.74 C59,41.2922847 58.5522847,41.74 58,41.74 Z" id="Shape" fill="#428DFF"/><path d="M34,54.5 C33.4477153,54.5 33,54.0522847 33,53.5 L33,45.34 C33,44.7877153 33.4477153,44.34 34,44.34 C34.5522847,44.34 35,44.7877153 35,45.34 L35,53.5 C35,54.0522847 34.5522847,54.5 34,54.5 Z" id="Shape" fill="#428DFF"/><path d="M34,31.74 C33.4477153,31.74 33,31.2922847 33,30.74 L33,19.5 C33,18.9477153 33.4477153,18.5 34,18.5 C34.5522847,18.5 35,18.9477153 35,19.5 L35,30.74 C35,31.2922847 34.5522847,31.74 34,31.74 Z" id="Shape" fill="#428DFF"/><path d="M34,41.74 C33.4477153,41.74 33,41.2922847 33,40.74 L33,35.34 C33,34.7877153 33.4477153,34.34 34,34.34 C34.5522847,34.34 35,34.7877153 35,35.34 L35,40.74 C35,41.2922847 34.5522847,41.74 34,41.74 Z" id="Shape" fill="#428DFF"/><path d="M46,23 C43.11,23 40,22.061 40,20 C40,17.939 43.11,17 46,17 C48.89,17 52,17.939 52,20 C52,22.061 48.89,23 46,23 Z M42.025,20 C42.282,20.327 43.652,21 46,21 C48.348,21 49.718,20.327 49.975,20 C49.718,19.673 48.348,19 46,19 C43.652,19 42.282,19.673 42.025,20 Z" id="Shape" fill="#428DFF"/><path d="M42,55 C37.512,55 36.236,52.708 36.1,52.447 C35.936551,52.1292123 35.9550556,51.7483653 36.1485434,51.4479204 C36.3420311,51.1474755 36.6811066,50.9730775 37.0380434,50.9904204 C37.3949801,51.0077633 37.715551,51.2142123 37.879,51.532 C37.939,51.626 38.8,53 42,53 C42.5522847,53 43,53.4477153 43,54 C43,54.5522847 42.5522847,55 42,55 Z" id="Shape" fill="#428DFF"/><path d="M30,47 C28.6045249,47.0041146 27.2111027,46.8927345 25.834,46.667 C25.7189574,46.6530218 25.6047812,46.632657 25.492,46.606 C24.9529701,46.4856019 24.613602,45.9510299 24.734,45.412 C24.8543981,44.8729701 25.3889701,44.533602 25.928,44.654 C25.985719,44.6677889 26.0441363,44.6784709 26.103,44.686 C28.6629447,45.1026425 31.2731985,45.1053436 33.834,44.694 C33.9140345,44.6852401 33.993499,44.6718847 34.072,44.654 C34.6110299,44.533602 35.1456019,44.8729701 35.266,45.412 C35.386398,45.9510299 35.0470299,46.4856019 34.508,46.606 C34.3744412,46.6367792 34.239216,46.6598176 34.103,46.675 C32.7466744,46.8966128 31.374301,47.0053189 30,47 Z" id="Shape" fill="#428DFF"/><path d="M30,13 C24.744,13 20.057,11.488 18.06,9.149 C17.3948947,8.42515941 17.0178283,7.48284916 17,6.5 C17,2.794 22.589,0 30,0 C37.411,0 43,2.794 43,6.5 C42.9820487,7.48330903 42.6046161,8.42600129 41.939,9.15 C41.6594449,9.48865235 41.3386203,9.79100018 40.984,10.05 C38.67,11.891 34.554,13 30,13 Z M30,2 C23.518,2 19,4.372 19,6.5 C19.0214702,7.00584714 19.2278532,7.48622131 19.58,7.85 C20.919,9.418 24.66,11 30,11 C34.056,11 37.8,10.029 39.768,8.467 C40.0046857,8.29489979 40.2184157,8.0932677 40.404,7.867 C40.7636882,7.49991166 40.9758178,7.01336599 41,6.5 C41,4.372 36.482,2 30,2 Z" id="Shape" fill="#428DFF"/><path d="M30,17 C23.54,17 17,15.111 17,11.5 C17,10.9477153 17.4477153,10.5 18,10.5 C18.5522847,10.5 19,10.9477153 19,11.5 C19,12.927 23.285,15 30,15 C36.715,15 41,12.927 41,11.5 C41,10.9477153 41.4477153,10.5 42,10.5 C42.5522847,10.5 43,10.9477153 43,11.5 C43,15.111 36.46,17 30,17 Z" id="Shape" fill="#428DFF"/><path d="M30.531,6.01 L30.473,6.01 C30.321,6 30.161,6 30,6 C29.839,6 29.679,6 29.527,6.008 C28.9787969,6.03104814 28.5115185,5.61426244 28.472,5.067 C28.4401458,4.51588185 28.8609021,4.04320247 29.412,4.011 C29.8037188,3.99000024 30.1962812,3.99000024 30.588,4.011 C30.9452656,4.02118207 31.2699605,4.22118961 31.4397754,4.53568172 C31.6095903,4.85017384 31.5987261,5.23137168 31.4112754,5.53568172 C31.2238247,5.83999177 30.8882656,6.02118207 30.531,6.011 L30.531,6.01 Z" id="Shape" fill="#428DFF"/><path d="M30,27 C28.6114813,27.0028217 27.2246693,26.9025461 25.851,26.7 C25.69,26.677 25.535,26.652 25.378,26.616 C24.8483808,26.4857905 24.5207699,25.9552222 24.6415928,25.4233831 C24.7624157,24.8915441 25.2871074,24.5546014 25.821,24.666 C25.921,24.69 26.03,24.705 26.142,24.721 C28.6982761,25.0919951 31.2947239,25.0919951 33.851,24.721 C33.97,24.704 34.074,24.689 34.179,24.665 C34.7128926,24.5536014 35.2375843,24.8905441 35.3584072,25.4223831 C35.4792301,25.9542222 35.1516192,26.4847905 34.622,26.615 C34.465,26.651 34.31,26.676 34.142,26.7 C32.7706532,26.902303 31.3861861,27.0025783 30,27 Z" id="Shape" fill="#428DFF"/><path d="M39.48,25.11 L39.47,25.11 C38.9186982,25.1072435 38.4736248,24.6588195 38.4750031,24.1075125 C38.4763814,23.5562055 38.9236913,23.1100125 39.475,23.1100125 C40.0263087,23.1100125 40.4736186,23.5562055 40.4749969,24.1075125 C40.4763752,24.6588195 40.0313018,25.1072435 39.48,25.11 Z" id="Shape" fill="#428DFF"/><path d="M30,37 C28.6114813,37.0028217 27.2246693,36.9025461 25.851,36.7 C25.765,36.694 25.618,36.668 25.484,36.642 C24.9422087,36.5340283 24.5905284,36.0072913 24.6985,35.4655 C24.8064717,34.9237087 25.3332087,34.5720284 25.875,34.68 C25.9452136,34.696031 26.0163484,34.7077199 26.088,34.715 C28.6615582,35.0948248 31.276761,35.0971829 33.851,34.722 C33.9431166,34.7137008 34.034627,34.6996736 34.125,34.68 C34.6667913,34.5720283 35.1935283,34.9237087 35.3015,35.4655 C35.4094717,36.0072913 35.0577913,36.5340283 34.516,36.642 C34.3745391,36.6709732 34.2316846,36.6926684 34.088,36.707 C32.7344885,36.9059423 31.3680483,37.0038794 30,37 Z" id="Shape" fill="#428DFF"/><path d="M42,15.32 C41.4477153,15.32 41,14.8722847 41,14.32 L41,6.5 C41,5.94771525 41.4477153,5.5 42,5.5 C42.5522847,5.5 43,5.94771525 43,6.5 L43,14.32 C43,14.8722847 42.5522847,15.32 42,15.32 Z" id="Shape" fill="#428DFF"/><path d="M18,15.32 C17.4477153,15.32 17,14.8722847 17,14.32 L17,6.5 C17,5.94771525 17.4477153,5.5 18,5.5 C18.5522847,5.5 19,5.94771525 19,6.5 L19,14.32 C19,14.8722847 18.5522847,15.32 18,15.32 Z" id="Shape" fill="#428DFF"/><path d="M30,10 C27.11,10 24,9.061 24,7 C24,4.939 27.11,4 30,4 C32.89,4 36,4.939 36,7 C36,9.061 32.89,10 30,10 Z M26.025,7 C26.282,7.327 27.652,8 30,8 C32.348,8 33.718,7.327 33.975,7 C33.718,6.673 32.348,6 30,6 C27.652,6 26.282,6.673 26.025,7 Z" id="Shape" fill="#428DFF"/></g></g></svg>
