<?xml version="1.0" encoding="UTF-8"?>
<svg xmlns="http://www.w3.org/2000/svg" xmlns:xlink="http://www.w3.org/1999/xlink" width="512" height="512" viewBox="0 0 60 60" version="1.1"><!-- Generator: Sketch 51.3 (57544) - http://www.bohemiancoding.com/sketch --><title>010 - Lab Equipment</title><desc>Created with Sketch.</desc><defs/><g id="Page-1" stroke="none" stroke-width="1" fill="none" fill-rule="evenodd"><g id="010---Lab-Equipment" transform="translate(0.000000, -1.000000)" fill-rule="nonzero"><path d="M1,28 L5,28 L5,34 C5,35.1045695 4.1045695,36 3,36 C1.8954305,36 1,35.1045695 1,34 L1,28 Z" id="Shape" fill="#CAD9FC"/><path d="M55,28 L59,28 L59,34 C59,35.1045695 58.1045695,36 57,36 C55.8954305,36 55,35.1045695 55,34 L55,28 Z" id="Shape" fill="#CAD9FC"/><path d="M54,2 C53.8689012,1.99844312 53.7380534,2.01186341 53.61,2.04 C53.0778835,2.18226099 52.662261,2.59788353 52.52,3.13 L51.93,5.34 L50,12.54 L48.07,5.34 L47.48,3.13 C47.337739,2.59788353 46.9221165,2.18226099 46.39,2.04 C46.1327358,1.98665958 45.8672642,1.98665958 45.61,2.04 C45.0778835,2.18226099 44.662261,2.59788353 44.52,3.13 L43.93,5.34 L42,12.54 L40.07,5.34 L39.48,3.13 C39.337739,2.59788353 38.9221165,2.18226099 38.39,2.04 C38.1327358,1.98665958 37.8672642,1.98665958 37.61,2.04 C37.0778835,2.18226099 36.662261,2.59788353 36.52,3.13 L35.93,5.34 L34,12.54 L32.07,5.34 L31.48,3.13 C31.337739,2.59788353 30.9221165,2.18226099 30.39,2.04 C30.1327358,1.98665958 29.8672642,1.98665958 29.61,2.04 C29.0778835,2.18226099 28.662261,2.59788353 28.52,3.13 L27.93,5.34 L26,12.54 L24.07,5.34 L23.48,3.13 C23.337739,2.59788353 22.9221165,2.18226099 22.39,2.04 C22.1327358,1.98665958 21.8672642,1.98665958 21.61,2.04 C21.0778835,2.18226099 20.662261,2.59788353 20.52,3.13 L19.93,5.34 L18,12.54 L16.07,5.34 L15.48,3.13 C15.337739,2.59788353 14.9221165,2.18226099 14.39,2.04 C14.1327358,1.98665958 13.8672642,1.98665958 13.61,2.04 C13.0778835,2.18226099 12.662261,2.59788353 12.52,3.13 L11.93,5.34 L10,12.54 L8.07,5.34 L7.48,3.13 C7.33773901,2.59788353 6.92211647,2.18226099 6.39,2.04 C6.26,2.01 5.13,2 5,2 L4,2 C2.34314575,2 1,3.34314575 1,5 L1,30 L5,30 L5,9 L6,12.64 L7.93,19.84 L8.52,22.05 C8.66226099,22.5821165 9.07788353,22.997739 9.61,23.14 C9.86726423,23.1933404 10.1327358,23.1933404 10.39,23.14 C10.9221165,22.997739 11.337739,22.5821165 11.48,22.05 L12.07,19.84 L14,12.64 L15.93,19.84 L16.52,22.05 C16.662261,22.5821165 17.0778835,22.997739 17.61,23.14 C17.8672642,23.1933404 18.1327358,23.1933404 18.39,23.14 C18.9221165,22.997739 19.337739,22.5821165 19.48,22.05 L20.07,19.84 L22,12.64 L23.93,19.84 L24.52,22.05 C24.662261,22.5821165 25.0778835,22.997739 25.61,23.14 C25.8672642,23.1933404 26.1327358,23.1933404 26.39,23.14 C26.9221165,22.997739 27.337739,22.5821165 27.48,22.05 L28.07,19.84 L30,12.64 L31.93,19.84 L32.52,22.05 C32.662261,22.5821165 33.0778835,22.997739 33.61,23.14 C33.8672642,23.1933404 34.1327358,23.1933404 34.39,23.14 C34.9221165,22.997739 35.337739,22.5821165 35.48,22.05 L36.07,19.84 L38,12.64 L39.93,19.84 L40.52,22.05 C40.662261,22.5821165 41.0778835,22.997739 41.61,23.14 C41.8672642,23.1933404 42.1327358,23.1933404 42.39,23.14 C42.9221165,22.997739 43.337739,22.5821165 43.48,22.05 L44.07,19.84 L46,12.64 L47.93,19.84 L48.52,22.05 C48.662261,22.5821165 49.0778835,22.997739 49.61,23.14 C49.8672642,23.1933404 50.1327358,23.1933404 50.39,23.14 C50.9221165,22.997739 51.337739,22.5821165 51.48,22.05 L52.07,19.84 L54,12.64 L55,9 L55,30 L59,30 L59,5 C59,3.34314575 57.6568542,2 56,2 L54,2 Z" id="Shape" fill="#E8EDFC"/><path d="M41,60 L19,60 C19.0049563,56.6883467 21.6883467,54.0049563 25,54 L35,54 C38.3137085,54 41,56.6862915 41,60 Z" id="Shape" fill="#7FACFA"/><path d="M38,60 L18,60 C18.0049563,56.6883467 20.6883467,54.0049563 24,54 L32,54 C35.3137085,54 38,56.6862915 38,60 Z" id="Shape" fill="#A4C2F7"/><path d="M33,44.56 L33,54 L27,54 L27,44.56 C27.4716414,44.7162122 27.9572083,44.8267206 28.45,44.89 C28.9621433,44.974605 29.4810413,45.01143 30,45 C31.0154909,44.9921868 32.0250341,44.8441204 33,44.56 Z" id="Shape" fill="#CAD9FC"/><path d="M30,44.56 L30,54 L27,54 L27,45 C27.4851205,44.9928545 27.9693533,44.9561196 28.45,44.89 C28.9747465,44.8221318 29.4931163,44.7117692 30,44.56 Z" id="Shape" fill="#E8EDFC"/><path d="M33,44 L33,46.56 C31.5237768,46.9907542 29.97293,47.1032332 28.45,46.89 C27.9572083,46.8267206 27.4716414,46.7162122 27,46.56 L27,44 C27.0029536,43.0904215 27.6192985,42.297391 28.5,42.07 C28.6621858,42.0215984 28.8307578,41.9979983 29,42 L31,42 C32.1032019,42.0032948 32.9967052,42.8967981 33,44 Z" id="Shape" fill="#E8EDFC"/><path d="M30,44 L30,46.56 C29.4931163,46.7117692 28.9747465,46.8221318 28.45,46.89 C27.9572083,46.8267206 27.4716414,46.7162122 27,46.56 L27,44 C27.0029536,43.0904215 27.6192985,42.297391 28.5,42.07 C29.3807015,42.297391 29.9970464,43.0904215 30,44 Z" id="Shape" fill="#E8EDFC"/><path d="M33,34 C33,38 30,38 30,38 C29.4640808,37.9715378 28.9458127,37.7987818 28.5,37.5 C27.75,37 27,36 27,34 C27.0413739,32.2287855 27.559561,30.501495 28.5,29 C28.9244877,28.2799054 29.4275657,27.6091347 30,27 C31.7984062,28.9037825 32.861679,31.3847524 33,34 Z" id="Shape" fill="#CAD9FC"/><path d="M30,34 C30,36 29.25,37 28.5,37.5 C27.75,37 27,36 27,34 C27.0413739,32.2287855 27.559561,30.501495 28.5,29 C29.440439,30.501495 29.9586261,32.2287855 30,34 Z" id="Shape" fill="#E8EDFC"/><rect id="Rectangle-path" fill="#CAD9FC" x="55.333" y="2.566" width="3.75" height="27.101"/><path d="M30,54 L30,44 C30.0034074,43.0907942 30.6196574,42.2982967 31.5,42.071 C31.3371132,42.0257714 31.1690388,42.0019048 31,42 L29,42 C28.8307578,41.9979983 28.6621858,42.0215984 28.5,42.07 C27.6192985,42.297391 27.0029536,43.0904215 27,44 L27,54 L30,54 Z" id="Shape" fill="#FFFFFF"/><path d="M19,60 L21,60 C21.0049563,56.6883467 23.6883467,54.0049563 27,54 L24,54 C20.6883467,54.0049563 18.0049563,56.6883467 18,60 L19,60 Z" id="Shape" fill="#FFFFFF"/><path d="M4,34 L4,5 C4.00131174,3.56318716 5.02117427,2.32903608 6.432,2.057 C6.417,2.057 6.405,2.044 6.39,2.04 C6.26,2.01 5.13,2 5,2 L4,2 C2.34314575,2 1,3.34314575 1,5 L1,34 C0.99644858,34.8339089 1.51270888,35.5817704 2.29371246,35.8740888 C3.07471604,36.1664073 3.95514249,35.9413058 4.5,35.31 C4.17951984,34.948699 4.00175391,34.4829522 4,34 Z" id="Shape" fill="#FFFFFF"/><polygon id="Shape" fill="#FFFFFF" points="0 30 0 17 0 5 2 5 2 17 2 30"/><path d="M1,25 C0.44771525,25 6.76353751e-17,25.4477153 0,26 L0,30 L2,30 L2,26 C2,25.4477153 1.55228475,25 1,25 Z" id="Shape" fill="#428DFF"/><path d="M2,5 L0,5 L0,18 C6.76353751e-17,18.5522847 0.44771525,19 1,19 C1.55228475,19 2,18.5522847 2,18 L2,5 Z" id="Shape" fill="#428DFF"/><path d="M5.77315973e-18,22 C0.0038803852,22.2647269 0.107434956,22.518257 0.29,22.71 L0.44,22.83 C0.495727127,22.8678773 0.556261922,22.8981446 0.62,22.92 C0.676662423,22.9488877 0.737337452,22.9691127 0.8,22.98 C0.86614452,22.9911308 0.932961153,22.9978125 1,23 C1.26472686,22.9961196 1.51825702,22.892565 1.71,22.71 C1.80039684,22.6143929 1.87167695,22.5023813 1.92,22.38 C2.07087658,22.0070263 1.98864806,21.5802212 1.71,21.29 C1.61439291,21.1996032 1.50238132,21.128323 1.38,21.08 C1.25977769,21.028759 1.13067726,21.00158 1,21 C0.735273141,21.0038804 0.481742984,21.107435 0.29,21.29 C0.107434956,21.481743 0.0038803852,21.7352731 5.77315973e-18,22 Z" id="Shape" fill="#428DFF"/><path d="M59,31 L55,31 C54.4477153,31 54,30.5522847 54,30 L54,16.5 L52.446,22.305 C52.2120254,23.1842733 51.5252733,23.8710254 50.646,24.105 C50.2323823,24.2032075 49.8018324,24.2059433 49.387,24.113 C48.4938497,23.885429 47.7928075,23.1939429 47.553,22.304 L46,16.5 L44.446,22.305 C44.2120254,23.1842733 43.5252733,23.8710254 42.646,24.105 C42.2323823,24.2032075 41.8018324,24.2059433 41.387,24.113 C40.4938497,23.885429 39.7928075,23.1939429 39.553,22.304 L38,16.5 L36.446,22.305 C36.2120254,23.1842733 35.5252733,23.8710254 34.646,24.105 C34.2323823,24.2032075 33.8018324,24.2059433 33.387,24.113 C32.4938497,23.885429 31.7928075,23.1939429 31.553,22.304 L30,16.5 L28.446,22.305 C28.2120254,23.1842733 27.5252733,23.8710254 26.646,24.105 C26.2323823,24.2032075 25.8018324,24.2059433 25.387,24.113 C24.4938497,23.885429 23.7928075,23.1939429 23.553,22.304 L22,16.5 L20.446,22.305 C20.2120254,23.1842733 19.5252733,23.8710254 18.646,24.105 C18.2323823,24.2032075 17.8018324,24.2059433 17.387,24.113 C16.4938497,23.885429 15.7928075,23.1939429 15.553,22.304 L14,16.5 L12.446,22.305 C12.2120254,23.1842733 11.5252733,23.8710254 10.646,24.105 C10.2323823,24.2032075 9.80183236,24.2059433 9.387,24.113 C8.49384973,23.885429 7.79280746,23.1939429 7.553,22.304 L6,16.5 L6,30 C6,30.5522847 5.55228475,31 5,31 L1,31 C0.44771525,31 6.76353751e-17,30.5522847 0,30 C-6.76353751e-17,29.4477153 0.44771525,29 1,29 L4,29 L4,9 C4.00045062,8.49973626 4.37051125,8.076775 4.8662826,8.00988121 C5.36205395,7.94298742 5.83097943,8.25274536 5.964,8.735 L9.485,21.792 C9.5357691,21.9773928 9.68060722,22.1222309 9.866,22.173 C9.9659531,22.1817073 10.0665618,22.1793598 10.166,22.166 C10.3374212,22.108218 10.4682303,21.9680118 10.514,21.793 L13.034,12.381 C13.1510452,11.9436799 13.5472877,11.6395421 14,11.6395421 C14.4527123,11.6395421 14.8489548,11.9436799 14.966,12.381 L17.485,21.792 C17.5357691,21.9773928 17.6806072,22.1222309 17.866,22.173 C17.9659531,22.1817073 18.0665618,22.1793598 18.166,22.166 C18.3374212,22.108218 18.4682303,21.9680118 18.514,21.793 L21.034,12.381 C21.1510452,11.9436799 21.5472877,11.6395421 22,11.6395421 C22.4527123,11.6395421 22.8489548,11.9436799 22.966,12.381 L25.485,21.792 C25.5357691,21.9773928 25.6806072,22.1222309 25.866,22.173 C25.9659531,22.1817073 26.0665618,22.1793598 26.166,22.166 C26.3374212,22.108218 26.4682303,21.9680118 26.514,21.793 L29.034,12.381 C29.1510452,11.9436799 29.5472877,11.6395421 30,11.6395421 C30.4527123,11.6395421 30.8489548,11.9436799 30.966,12.381 L33.485,21.792 C33.5357691,21.9773928 33.6806072,22.1222309 33.866,22.173 C33.9659531,22.1817073 34.0665618,22.1793598 34.166,22.166 C34.3374212,22.108218 34.4682303,21.9680118 34.514,21.793 L37.034,12.381 C37.1510452,11.9436799 37.5472877,11.6395421 38,11.6395421 C38.4527123,11.6395421 38.8489548,11.9436799 38.966,12.381 L41.485,21.792 C41.5357691,21.9773928 41.6806072,22.1222309 41.866,22.173 C41.9659531,22.1817073 42.0665618,22.1793598 42.166,22.166 C42.3374212,22.108218 42.4682303,21.9680118 42.514,21.793 L45.034,12.381 C45.1510452,11.9436799 45.5472877,11.6395421 46,11.6395421 C46.4527123,11.6395421 46.8489548,11.9436799 46.966,12.381 L49.485,21.792 C49.5357691,21.9773928 49.6806072,22.1222309 49.866,22.173 C49.9659531,22.1817073 50.0665618,22.1793598 50.166,22.166 C50.3374212,22.108218 50.4682303,21.9680118 50.514,21.793 L54.036,8.735 C54.1690206,8.25274536 54.6379461,7.94298742 55.1337174,8.00988121 C55.6294888,8.076775 55.9995494,8.49973626 56,9 L56,29 L58,29 L58,5 C58,3.8954305 57.1045695,3 56,3 L54,3 C53.9453095,2.99839708 53.8906162,3.00309467 53.837,3.014 C53.6644671,3.07042327 53.5323139,3.21048298 53.486,3.386 L50.966,12.8 C50.8489548,13.2373201 50.4527123,13.5414579 50,13.5414579 C49.5472877,13.5414579 49.1510452,13.2373201 49.034,12.8 L46.515,3.388 C46.4642309,3.20260722 46.3193928,3.0577691 46.134,3.007 C46.0340728,2.9975256 45.9333766,2.99987517 45.834,3.014 C45.6614671,3.07042327 45.5293139,3.21048298 45.483,3.386 L42.966,12.8 C42.8489548,13.2373201 42.4527123,13.5414579 42,13.5414579 C41.5472877,13.5414579 41.1510452,13.2373201 41.034,12.8 L38.515,3.388 C38.4642309,3.20260722 38.3193928,3.0577691 38.134,3.007 C38.0340728,2.9975256 37.9333766,2.99987517 37.834,3.014 C37.6614671,3.07042327 37.5293139,3.21048298 37.483,3.386 L34.966,12.8 C34.8489548,13.2373201 34.4527123,13.5414579 34,13.5414579 C33.5472877,13.5414579 33.1510452,13.2373201 33.034,12.8 L30.515,3.388 C30.4642309,3.20260722 30.3193928,3.0577691 30.134,3.007 C30.0340728,2.9975256 29.9333766,2.99987517 29.834,3.014 C29.6614671,3.07042327 29.5293139,3.21048298 29.483,3.386 L26.966,12.8 C26.8489548,13.2373201 26.4527123,13.5414579 26,13.5414579 C25.5472877,13.5414579 25.1510452,13.2373201 25.034,12.8 L22.515,3.388 C22.4642309,3.20260722 22.3193928,3.0577691 22.134,3.007 C22.0340728,2.9975256 21.9333766,2.99987517 21.834,3.014 C21.6614671,3.07042327 21.5293139,3.21048298 21.483,3.386 L18.966,12.8 C18.8489548,13.2373201 18.4527123,13.5414579 18,13.5414579 C17.5472877,13.5414579 17.1510452,13.2373201 17.034,12.8 L14.515,3.388 C14.4642309,3.20260722 14.3193928,3.0577691 14.134,3.007 C14.0340728,2.9975256 13.9333766,2.99987517 13.834,3.014 C13.6614671,3.07042327 13.5293139,3.21048298 13.483,3.386 L10.966,12.8 C10.8489548,13.2373201 10.4527123,13.5414579 10,13.5414579 C9.54728773,13.5414579 9.15104517,13.2373201 9.034,12.8 L6.515,3.388 C6.46951184,3.22188271 6.34831,3.0869669 6.188,3.024 C5.941,3.01 5.214,3 5,3 L4,3 C2.8954305,3 2,3.8954305 2,5 C2,5.35726559 1.80940108,5.68739261 1.5,5.8660254 C1.19059892,6.0446582 0.809401077,6.0446582 0.5,5.8660254 C0.190598923,5.68739261 4.37524161e-17,5.35726559 0,5 C-2.705415e-16,2.790861 1.790861,1 4,1 L5,1 C5.53951918,0.987933644 6.07926167,1.00997758 6.616,1.066 C7.50795576,1.2939583 8.20778529,1.98499697 8.447,2.874 L10,8.677 L11.554,2.877 C11.7879746,1.99772673 12.4747267,1.31097456 13.354,1.077 C13.7683481,0.977341932 14.1999777,0.973579709 14.616,1.066 C15.5079558,1.2939583 16.2077853,1.98499697 16.447,2.874 L18,8.677 L19.554,2.877 C19.7879746,1.99772673 20.4747267,1.31097456 21.354,1.077 C21.7683481,0.977341932 22.1999777,0.973579709 22.616,1.066 C23.5079558,1.2939583 24.2077853,1.98499697 24.447,2.874 L26,8.677 L27.554,2.877 C27.7879746,1.99772673 28.4747267,1.31097456 29.354,1.077 C29.7683481,0.977341932 30.1999777,0.973579709 30.616,1.066 C31.5079558,1.2939583 32.2077853,1.98499697 32.447,2.874 L34,8.677 L35.554,2.877 C35.7879746,1.99772673 36.4747267,1.31097456 37.354,1.077 C37.7683481,0.977341932 38.1999777,0.973579709 38.616,1.066 C39.5079558,1.2939583 40.2077853,1.98499697 40.447,2.874 L42,8.677 L43.554,2.877 C43.7879746,1.99772673 44.4747267,1.31097456 45.354,1.077 C45.7683481,0.977341932 46.1999777,0.973579709 46.616,1.066 C47.5079558,1.2939583 48.2077853,1.98499697 48.447,2.874 L50,8.677 L51.554,2.877 C51.7879746,1.99772673 52.4747267,1.31097456 53.354,1.077 C53.5654653,1.0255145 53.7823576,0.999662005 54,1 L56,1 C58.209139,1 60,2.790861 60,5 L60,30 C60,30.5522847 59.5522847,31 59,31 Z" id="Shape" fill="#428DFF"/><path d="M3,37 C1.34314575,37 2.02906125e-16,35.6568542 0,34 L0,30 C-6.76353751e-17,29.4477153 0.44771525,29 1,29 L5,29 C5.55228475,29 6,29.4477153 6,30 L6,34 C6,35.6568542 4.65685425,37 3,37 Z M2,31 L2,34 C2,34.5522847 2.44771525,35 3,35 C3.55228475,35 4,34.5522847 4,34 L4,31 L2,31 Z" id="Shape" fill="#428DFF"/><path d="M57,37 C55.3431458,37 54,35.6568542 54,34 L54,30 C54,29.4477153 54.4477153,29 55,29 L59,29 C59.5522847,29 60,29.4477153 60,30 L60,34 C60,35.6568542 58.6568542,37 57,37 Z M56,31 L56,34 C56,34.5522847 56.4477153,35 57,35 C57.5522847,35 58,34.5522847 58,34 L58,31 L56,31 Z" id="Shape" fill="#428DFF"/><path d="M41,61 L19,61 C18.4477153,61 18,60.5522847 18,60 C18.0044086,56.1358343 21.1358343,53.0044086 25,53 L35,53 C38.8641657,53.0044086 41.9955914,56.1358343 42,60 C42,60.5522847 41.5522847,61 41,61 Z M20.1,59 L39.9,59 C39.421918,56.6733709 37.3752386,55.0026123 35,55 L25,55 C22.6247614,55.0026123 20.578082,56.6733709 20.1,59 Z" id="Shape" fill="#428DFF"/><path d="M33,55 L27,55 C26.4477153,55 26,54.5522847 26,54 L26,44 C26,42.3431458 27.3431458,41 29,41 L31,41 C32.6568542,41 34,42.3431458 34,44 L34,54 C34,54.5522847 33.5522847,55 33,55 Z M28,53 L32,53 L32,44 C32,43.4477153 31.5522847,43 31,43 L29,43 C28.4477153,43 28,43.4477153 28,44 L28,53 Z" id="Shape" fill="#428DFF"/><path d="M30,39 C28.616,39 26,37.955 26,34 C26.1343823,31.1184151 27.3035897,28.3819798 29.293,26.293 C29.6834999,25.9026181 30.3165001,25.9026181 30.707,26.293 C32.6964103,28.3819798 33.8656177,31.1184151 34,34 C34,37.955 31.384,39 30,39 Z M30,28.557 C28.7819433,30.118323 28.0826408,32.0214747 28,34 C28,36.9 29.839,37 29.992,37 C30.343,36.988 32,36.782 32,34 C31.9211028,32.0207297 31.2213921,30.116467 30,28.557 Z" id="Shape" fill="#428DFF"/><path d="M29.891,48 C28.8021054,48.0063706 27.7192747,47.8375476 26.684,47.5 C26.1593295,47.325478 25.875478,46.7586705 26.05,46.234 C26.224522,45.7093295 26.7913295,45.425478 27.316,45.6 C29.0684185,46.1140153 30.9315815,46.1140153 32.684,45.6 C33.2086705,45.425478 33.775478,45.7093295 33.95,46.234 C34.1245219,46.7586705 33.8406705,47.325478 33.316,47.5 C32.2052346,47.8346435 31.051076,48.0031338 29.891,48 Z" id="Shape" fill="#428DFF"/><path d="M1,61 C0.44771525,61 6.76353751e-17,60.5522847 0,60 C-6.76353751e-17,59.4477153 0.44771525,59 1,59 C9.062,59 10.9,57.607 14.562,54.832 L15.4,54.2 C17.6840144,52.461772 20.7597657,52.1795111 23.322,53.473 C23.8229222,53.705788 24.0402879,54.3005777 23.8074999,54.8015 C23.5747119,55.3024222 22.9799223,55.519788 22.479,55.287 C20.5862708,54.3004163 18.2932466,54.5005049 16.6,55.8 L15.771,56.426 C12.006,59.278 9.733,61 1,61 Z" id="Shape" fill="#428DFF"/></g></g></svg>
