<?xml version="1.0" encoding="UTF-8"?>
<svg xmlns="http://www.w3.org/2000/svg" xmlns:xlink="http://www.w3.org/1999/xlink" width="512" height="512" viewBox="0 0 58 60" version="1.1"><!-- Generator: Sketch 51.3 (57544) - http://www.bohemiancoding.com/sketch --><title>011 - Milling</title><desc>Created with Sketch.</desc><defs/><g id="Page-1" stroke="none" stroke-width="1" fill="none" fill-rule="evenodd"><g id="011---Milling" fill-rule="nonzero"><path d="M34.72,58 L23.28,58 C22.972659,57.9997625 22.682498,57.8582111 22.4931338,57.6161373 C22.3037696,57.3740635 22.2362381,57.0583583 22.31,56.76 L23,54 L27.98,52.42 L29.29,52 L35,54 L35.69,56.76 C35.7637619,57.0583583 35.6962304,57.3740635 35.5068662,57.6161373 C35.317502,57.8582111 35.027341,57.9997625 34.72,58 Z" id="Shape" fill="#CAD9FC"/><path d="M32.22,58 L23.28,58 C22.972659,57.9997625 22.682498,57.8582111 22.4931338,57.6161373 C22.3037696,57.3740635 22.2362381,57.0583583 22.31,56.76 L23,54 L27.98,52.42 L32.5,54 L33.19,56.76 C33.2637619,57.0583583 33.1962304,57.3740635 33.0068662,57.6161373 C32.817502,57.8582111 32.527341,57.9997625 32.22,58 Z" id="Shape" fill="#E8EDFC"/><polygon id="Shape" fill="#CAD9FC" points="40 46 35 54 23 54 18 46 27.5 44.27 29 44"/><polygon id="Shape" fill="#E8EDFC" points="37 46 32 54 23 54 18 46 27.5 44.27"/><polygon id="Shape" fill="#CAD9FC" points="40 46 18 46 20 42 27.68 40.33 29.21 40 38 42"/><polygon id="Shape" fill="#E8EDFC" points="37 46 18 46 20 42 27.68 40.33 35 42"/><path d="M13,40 L13,58 C13,58.5522847 12.5522847,59 12,59 L9,59 C8.44771525,59 8,58.5522847 8,58 L8,40 L13,40 Z" id="Shape" fill="#CAD9FC"/><path d="M10.5,40 L10.5,58 C10.5,58.5522847 10.0522847,59 9.5,59 L9,59 C8.44771525,59 8,58.5522847 8,58 L8,40 L10.5,40 Z" id="Shape" fill="#E8EDFC"/><path d="M50,40 L50,58 C50,58.5522847 49.5522847,59 49,59 L46,59 C45.4477153,59 45,58.5522847 45,58 L45,40 L50,40 Z" id="Shape" fill="#CAD9FC"/><path d="M47.5,40 L47.5,58 C47.5,58.5522847 47.0522847,59 46.5,59 L46,59 C45.4477153,59 45,58.5522847 45,58 L45,40 L47.5,40 Z" id="Shape" fill="#E8EDFC"/><rect id="Rectangle-path" fill="#CAD9FC" x="4" y="28.25" width="4" height="7.75"/><rect id="Rectangle-path" fill="#CAD9FC" x="50" y="28.25" width="4" height="7.75"/><path d="M43,3 L43,6 L29,11.08 L27.5,10.54 L15,6 L15,3 C15.0032948,1.89679813 15.8967981,1.0032948 17,1 L41,1 C42.1032019,1.0032948 42.9967052,1.89679813 43,3 Z" id="Shape" fill="#CAD9FC"/><path d="M40,3 L40,6 L27.5,10.54 L15,6 L15,3 C15.0032948,1.89679813 15.8967981,1.0032948 17,1 L38,1 C39.1032019,1.0032948 39.9967052,1.89679813 40,3 Z" id="Shape" fill="#E8EDFC"/><polygon id="Shape" fill="#CAD9FC" points="43 6 35 19 29 21 23 19 15 6"/><polygon id="Shape" fill="#E8EDFC" points="40 6 32 19 27.5 20.5 23 19 15 6"/><path d="M43,22 L43,36 L15,36 L15,22 C15,20.3431458 16.3431458,19 18,19 L40,19 C41.6568542,19 43,20.3431458 43,22 Z" id="Shape" fill="#CAD9FC"/><path d="M40,22 L40,36 L15,36 L15,22 C15,20.3431458 16.3431458,19 18,19 L37,19 C38.6568542,19 40,20.3431458 40,22 Z" id="Shape" fill="#E8EDFC"/><path d="M39,24 L39,29 C39,29.5522847 38.5522847,30 38,30 L20,30 C19.4477153,30 19,29.5522847 19,29 L19,24 C19,23.4477153 19.4477153,23 20,23 L38,23 C38.5522847,23 39,23.4477153 39,24 Z" id="Shape" fill="#7FACFA"/><path d="M36,24 L36,29 C36,29.5522847 35.5522847,30 35,30 L20,30 C19.4477153,30 19,29.5522847 19,29 L19,24 C19,23.4477153 19.4477153,23 20,23 L35,23 C35.5522847,23 36,23.4477153 36,24 Z" id="Shape" fill="#A4C2F7"/><path d="M29,23 L24,30 L20,30 C19.7122895,30.0018877 19.4381951,29.8776316 19.25,29.66 L24,23 L29,23 Z" id="Shape" fill="#FFFFFF"/><polygon id="Shape" fill="#CAD9FC" points="34 6 30 19 28 19 24 6"/><rect id="Rectangle-path" fill="#CAD9FC" x="2" y="34" width="55" height="8" rx="2"/><rect id="Rectangle-path" fill="#E8EDFC" x="2" y="34" width="52" height="8" rx="2"/><path d="M11,25 C11,26.3260824 10.4732158,27.597852 9.53553391,28.5355339 C8.59785201,29.4732158 7.32608245,30 6,30 C5.49207662,29.9984453 4.98697799,29.9243642 4.5,29.78 C2.41605636,29.1199968 0.999867894,27.185961 0.999867894,25 C0.999867894,22.814039 2.41605636,20.8800032 4.5,20.22 C4.98697799,20.0756358 5.49207662,20.0015547 6,20 C7.32608245,20 8.59785201,20.5267842 9.53553391,21.4644661 C10.4732158,22.402148 11,23.6739176 11,25 Z" id="Shape" fill="#E8EDFC"/><ellipse id="Oval" fill="#FFFFFF" cx="4.5" cy="25" rx="3.5" ry="4.78"/><path d="M57,25 C57,27.7614237 54.7614237,30 52,30 C51.4920766,29.9984453 50.986978,29.9243642 50.5,29.78 C48.4160564,29.1199968 46.9998679,27.185961 46.9998679,25 C46.9998679,22.814039 48.4160564,20.8800032 50.5,20.22 C50.986978,20.0756358 51.4920766,20.0015547 52,20 C54.7614237,20 57,22.2385763 57,25 Z" id="Shape" fill="#E8EDFC"/><ellipse id="Oval" fill="#FFFFFF" cx="50.5" cy="25" rx="3.5" ry="4.78"/><path d="M6,31 C2.6862915,31 -5.55111512e-16,28.3137085 -8.8817842e-16,25 C-1.22124533e-15,21.6862915 2.6862915,19 6,19 C9.3137085,19 12,21.6862915 12,25 C11.9966926,28.3123376 9.31233757,30.9966926 6,31 Z M6,21 C3.790861,21 2,22.790861 2,25 C2,27.209139 3.790861,29 6,29 C8.209139,29 10,27.209139 10,25 C10,22.790861 8.209139,21 6,21 Z" id="Shape" fill="#3D324C"/><path d="M52,31 C48.6862915,31 46,28.3137085 46,25 C46,21.6862915 48.6862915,19 52,19 C55.3137085,19 58,21.6862915 58,25 C57.9966926,28.3123376 55.3123376,30.9966926 52,31 Z M52,21 C49.790861,21 48,22.790861 48,25 C48,27.209139 49.790861,29 52,29 C54.209139,29 56,27.209139 56,25 C56,22.790861 54.209139,21 52,21 Z" id="Shape" fill="#3D324C"/><path d="M18,34 L18,22 C18,20.3431458 19.3431458,19 21,19 L18,19 C16.3431458,19 15,20.3431458 15,22 L15,34 L18,34 Z" id="Shape" fill="#FFFFFF"/><path d="M26,19 L18,6 L18,3 C18.0032948,1.89679813 18.8967981,1.0032948 20,1 L17,1 C15.8967981,1.0032948 15.0032948,1.89679813 15,3 L15,6 L23,19 L26,19 Z" id="Shape" fill="#FFFFFF"/><path d="M5,40 L5,36 C5.0032948,34.8967981 5.89679813,34.0032948 7,34 L7,30.65 C4.51495166,29.7719504 2.89561477,27.3729732 3.0105973,24.7398732 C3.12557983,22.1067733 4.94787153,19.8580855 7.5,19.2 C4.39826154,18.4077954 1.22155563,20.1932289 0.285734605,23.2547005 C-0.650086422,26.3161722 0.985440992,29.572594 4,30.65 L4,34 C2.89679813,34.0032948 2.0032948,34.8967981 2,36 L2,40 C2.0032948,41.1032019 2.89679813,41.9967052 4,42 L7,42 C5.89679813,41.9967052 5.0032948,41.1032019 5,40 Z" id="Shape" fill="#FFFFFF"/><path d="M9,59 L12,59 C11.4477153,59 11,58.5522847 11,58 L11,42 L8,42 L8,58 C8,58.5522847 8.44771525,59 9,59 Z" id="Shape" fill="#FFFFFF"/><path d="M55,43 L4,43 C2.34314575,43 1,41.6568542 1,40 L1,36 C1,34.3431458 2.34314575,33 4,33 L55,33 C56.6568542,33 58,34.3431458 58,36 L58,40 C58,41.6568542 56.6568542,43 55,43 Z M4,35 C3.44771525,35 3,35.4477153 3,36 L3,40 C3,40.5522847 3.44771525,41 4,41 L55,41 C55.5522847,41 56,40.5522847 56,40 L56,36 C56,35.4477153 55.5522847,35 55,35 L4,35 Z" id="Shape" fill="#428DFF"/><path d="M43,7 L15,7 C14.4477153,7 14,6.55228475 14,6 L14,3 C14,1.34314575 15.3431458,3.04359188e-16 17,0 L41,0 C42.6568542,1.01453063e-16 44,1.34314575 44,3 L44,6 C44,6.55228475 43.5522847,7 43,7 Z M16,5 L42,5 L42,3 C42,2.44771525 41.5522847,2 41,2 L17,2 C16.4477153,2 16,2.44771525 16,3 L16,5 Z" id="Shape" fill="#428DFF"/><path d="M35,20 L23,20 C22.6525983,20.0000979 22.3300385,19.8198884 22.148,19.524 L14.148,6.524 C13.9581485,6.21541222 13.9500615,5.82827132 14.1268609,5.51202457 C14.3036602,5.19577782 14.637688,4.99989791 15,5 L43,5 C43.362312,4.99989791 43.6963398,5.19577782 43.8731391,5.51202457 C44.0499385,5.82827132 44.0418515,6.21541222 43.852,6.524 L35.852,19.524 C35.6699615,19.8198884 35.3474017,20.0000979 35,20 Z M23.559,18 L34.441,18 L41.21,7 L16.79,7 L23.559,18 Z" id="Shape" fill="#428DFF"/><path d="M43,35 L15,35 C14.4477153,35 14,34.5522847 14,34 L14,22 C14,19.790861 15.790861,18 18,18 L40,18 C42.209139,18 44,19.790861 44,22 L44,34 C44,34.5522847 43.5522847,35 43,35 Z M16,33 L42,33 L42,22 C42,20.8954305 41.1045695,20 40,20 L18,20 C16.8954305,20 16,20.8954305 16,22 L16,33 Z" id="Shape" fill="#428DFF"/><path d="M38,31 L20,31 C18.8954305,31 18,30.1045695 18,29 L18,24 C18,22.8954305 18.8954305,22 20,22 L38,22 C39.1045695,22 40,22.8954305 40,24 L40,29 C40,30.1045695 39.1045695,31 38,31 Z M20,24 L20,29 L38,29 L38,24 L20,24 Z" id="Shape" fill="#428DFF"/><path d="M19.249,30.66 C18.8749766,30.6593957 18.5325563,30.4501182 18.3614259,30.11754 C18.1902955,29.7849619 18.2190657,29.3846857 18.436,29.08 L23.186,22.419 C23.3935713,22.1281858 23.7405226,21.9702004 24.0961608,22.0045553 C24.4517989,22.0389102 24.7620939,22.2603862 24.9101608,22.5855553 C25.0582276,22.9107244 25.0215713,23.2901858 24.814,23.581 L20.064,30.241 C19.8760807,30.5042503 19.5724413,30.6603545 19.249,30.66 Z" id="Shape" fill="#428DFF"/><path d="M24,31 C23.6256276,30.9996618 23.2828001,30.7902426 23.1115959,30.4573103 C22.9403916,30.124378 22.9694894,29.723703 23.187,29.419 L28.187,22.419 C28.5078774,21.9694402 29.1324402,21.8651226 29.582,22.186 C30.0315598,22.5068774 30.1358774,23.1314402 29.815,23.581 L24.815,30.581 C24.6270807,30.8442503 24.3234413,31.0003545 24,31 Z" id="Shape" fill="#428DFF"/><path d="M31,31 C30.6256276,30.9996618 30.2828001,30.7902426 30.1115959,30.4573103 C29.9403916,30.124378 29.9694894,29.723703 30.187,29.419 L35.187,22.419 C35.3945713,22.1281858 35.7415226,21.9702004 36.0971608,22.0045553 C36.4527989,22.0389102 36.7630939,22.2603862 36.9111608,22.5855553 C37.0592276,22.9107244 37.0225713,23.2901858 36.815,23.581 L31.815,30.581 C31.6270807,30.8442503 31.3234413,31.0003545 31,31 Z" id="Shape" fill="#428DFF"/><polygon id="Shape" fill="#FFFFFF" points="9 42 9 55 9 58 7 58 7 55 7 42"/><path d="M8,47 C8.55228475,47 9,46.5522847 9,46 L9,42 L7,42 L7,46 C7,46.5522847 7.44771525,47 8,47 Z" id="Shape" fill="#428DFF"/><path d="M7,58 L9,58 L9,54 C9,53.4477153 8.55228475,53 8,53 C7.44771525,53 7,53.4477153 7,54 L7,58 Z" id="Shape" fill="#428DFF"/><path d="M9,50 C8.99611961,49.7352731 8.89256504,49.481743 8.71,49.29 L8.56,49.17 C8.50427287,49.1321227 8.44373808,49.1018554 8.38,49.08 C8.32333758,49.0511123 8.26266255,49.0308873 8.2,49.02 C8.13385548,49.0088692 8.06703885,49.0021875 8,49 C7.73527314,49.0038804 7.48174298,49.107435 7.29,49.29 C7.19960316,49.3856071 7.12832305,49.4976187 7.08,49.62 C6.92912342,49.9929737 7.01135194,50.4197788 7.29,50.71 C7.38560709,50.8003968 7.49761868,50.871677 7.62,50.92 C7.74022231,50.971241 7.86932274,50.99842 8,51 C8.26603534,51.0027011 8.52196165,50.8982118 8.71008674,50.7100867 C8.89821183,50.5219616 9.00270108,50.2660353 9,50 Z" id="Shape" fill="#428DFF"/><path d="M12,60 L9,60 C7.8954305,60 7,59.1045695 7,58 C7,57.4477153 7.44771525,57 8,57 C8.55228475,57 9,57.4477153 9,58 L12,58 L12,43 L8,43 C7.44771525,43 7,42.5522847 7,42 C7,41.4477153 7.44771525,41 8,41 L13,41 C13.5522847,41 14,41.4477153 14,42 L14,58 C14,59.1045695 13.1045695,60 12,60 Z" id="Shape" fill="#428DFF"/><path d="M49,60 L46,60 C44.8954305,60 44,59.1045695 44,58 L44,42 C44,41.4477153 44.4477153,41 45,41 L50,41 C50.5522847,41 51,41.4477153 51,42 L51,58 C51,59.1045695 50.1045695,60 49,60 Z M46,43 L46,58 L49,58 L49,43 L46,43 Z" id="Shape" fill="#428DFF"/><path d="M34.719,59 L23.281,59 C22.6650199,59.0002147 22.0833043,58.7165741 21.704129,58.2311282 C21.3249538,57.7456823 21.1906248,57.112594 21.34,56.515 L21.927,54.169 L17.152,46.53 C16.9672623,46.23474 16.9494576,45.8646297 17.105,45.553 L19.105,41.553 C19.3518713,41.0587051 19.9527051,40.8581287 20.447,41.105 C20.9412949,41.3518713 21.1418713,41.9527051 20.895,42.447 L19.145,45.947 L23.845,53.471 C23.9889852,53.7013954 24.0330288,53.9804588 23.967,54.244 L23.281,57 L34.719,57 L34.03,54.243 C33.9639712,53.9794588 34.0080148,53.7003954 34.152,53.47 L38.852,45.946 L37.102,42.446 C36.9423023,42.1262473 36.9653215,41.7455859 37.1623866,41.4474072 C37.3594517,41.1492286 37.7006238,40.9788331 38.0573866,41.0004072 C38.4141495,41.0219813 38.7323023,41.2322473 38.892,41.552 L40.892,45.552 C41.0475424,45.8636297 41.0297377,46.23374 40.845,46.529 L36.07,54.168 L36.657,56.514 C36.8066102,57.1112243 36.6728153,57.7440723 36.2942846,58.2296386 C35.9157538,58.7152048 35.3346783,58.9993682 34.719,59 Z" id="Shape" fill="#428DFF"/><path d="M40,47 L18,47 C17.4477153,47 17,46.5522847 17,46 C17,45.4477153 17.4477153,45 18,45 L40,45 C40.5522847,45 41,45.4477153 41,46 C41,46.5522847 40.5522847,47 40,47 Z" id="Shape" fill="#428DFF"/><path d="M35,55 L23,55 C22.4477153,55 22,54.5522847 22,54 C22,53.4477153 22.4477153,53 23,53 L35,53 C35.5522847,53 36,53.4477153 36,54 C36,54.5522847 35.5522847,55 35,55 Z" id="Shape" fill="#428DFF"/><path d="M6,31 C2.6862915,31 -5.55111512e-16,28.3137085 -8.8817842e-16,25 C-1.22124533e-15,21.6862915 2.6862915,19 6,19 C9.3137085,19 12,21.6862915 12,25 C11.9966926,28.3123376 9.31233757,30.9966926 6,31 Z M6,21 C3.790861,21 2,22.790861 2,25 C2,27.209139 3.790861,29 6,29 C8.209139,29 10,27.209139 10,25 C10,22.790861 8.209139,21 6,21 Z" id="Shape" fill="#428DFF"/><path d="M52,31 C48.6862915,31 46,28.3137085 46,25 C46,21.6862915 48.6862915,19 52,19 C55.3137085,19 58,21.6862915 58,25 C57.9966926,28.3123376 55.3123376,30.9966926 52,31 Z M52,21 C49.790861,21 48,22.790861 48,25 C48,27.209139 49.790861,29 52,29 C54.209139,29 56,27.209139 56,25 C56,22.790861 54.209139,21 52,21 Z" id="Shape" fill="#428DFF"/><path d="M8,35 L4,35 C3.44771525,35 3,34.5522847 3,34 L3,29.59 C3,29.0377153 3.44771525,28.59 4,28.59 C4.55228475,28.59 5,29.0377153 5,29.59 L5,33 L7,33 L7,29.59 C7,29.0377153 7.44771525,28.59 8,28.59 C8.55228475,28.59 9,29.0377153 9,29.59 L9,34 C9,34.5522847 8.55228475,35 8,35 Z" id="Shape" fill="#428DFF"/><path d="M54,35 L50,35 C49.4477153,35 49,34.5522847 49,34 L49,29.59 C49,29.0377153 49.4477153,28.59 50,28.59 C50.5522847,28.59 51,29.0377153 51,29.59 L51,33 L53,33 L53,29.59 C53,29.0377153 53.4477153,28.59 54,28.59 C54.5522847,28.59 55,29.0377153 55,29.59 L55,34 C55,34.5522847 54.5522847,35 54,35 Z" id="Shape" fill="#428DFF"/><path d="M7,27 C6.73480519,26.9999434 6.48049273,26.8945494 6.293,26.707 L5.293,25.707 C5.10545063,25.5195073 5.00005664,25.2651948 5,25 L5,23 C5,22.4477153 5.44771525,22 6,22 C6.55228475,22 7,22.4477153 7,23 L7,24.586 L7.707,25.293 C7.99290792,25.5789943 8.07842191,26.0090366 7.92367798,26.3826546 C7.76893405,26.7562725 7.4043959,26.9999137 7,27 Z" id="Shape" fill="#428DFF"/><path d="M52,27 C51.4477153,27 51,26.5522847 51,26 L51,23 C51,22.4477153 51.4477153,22 52,22 C52.5522847,22 53,22.4477153 53,23 L53,26 C53,26.5522847 52.5522847,27 52,27 Z" id="Shape" fill="#428DFF"/><circle id="Oval" fill="#428DFF" cx="19" cy="38" r="1"/><circle id="Oval" fill="#428DFF" cx="14" cy="38" r="1"/><circle id="Oval" fill="#428DFF" cx="24" cy="38" r="1"/><circle id="Oval" fill="#428DFF" cx="29" cy="38" r="1"/><circle id="Oval" fill="#428DFF" cx="34" cy="38" r="1"/><circle id="Oval" fill="#428DFF" cx="39" cy="38" r="1"/><circle id="Oval" fill="#428DFF" cx="44" cy="38" r="1"/><path d="M28,20 C27.5608901,20.0000854 27.1730983,19.7137037 27.044,19.294 L23.044,6.294 C22.9389639,5.9524541 23.0241191,5.58081658 23.2673885,5.31907971 C23.5106579,5.05734285 23.8750831,4.94527068 24.2233885,5.02507971 C24.571694,5.10488875 24.8509639,5.3644541 24.956,5.706 L28.956,18.706 C29.0493051,19.0093385 28.9930829,19.3389585 28.8044999,19.5942163 C28.6159169,19.8494741 28.3173643,20.0000618 28,20 Z" id="Shape" fill="#428DFF"/><path d="M30,20 C29.6826357,20.0000618 29.3840831,19.8494741 29.1955001,19.5942163 C29.0069171,19.3389585 28.9506949,19.0093385 29.044,18.706 L33.044,5.706 C33.2063717,5.17801578 33.7660158,4.88162828 34.294,5.044 C34.8219842,5.20637172 35.1183717,5.76601578 34.956,6.294 L30.956,19.294 C30.8269017,19.7137037 30.4391099,20.0000854 30,20 Z" id="Shape" fill="#428DFF"/></g></g></svg>
