<?xml version="1.0" encoding="UTF-8"?>
<svg xmlns="http://www.w3.org/2000/svg" xmlns:xlink="http://www.w3.org/1999/xlink" width="512" height="512" viewBox="0 0 60 60" version="1.1"><!-- Generator: Sketch 51.3 (57544) - http://www.bohemiancoding.com/sketch --><title>012 - Barrel Filling</title><desc>Created with Sketch.</desc><defs/><g id="Page-1" stroke="none" stroke-width="1" fill="none" fill-rule="evenodd"><g id="012---Barrel-Filling" fill-rule="nonzero"><rect id="Rectangle-path" fill="#CAD9FC" x="49" y="3.813" width="4" height="7.938"/><rect id="Rectangle-path" fill="#CAD9FC" x="28" y="4.25" width="4" height="7.313"/><path d="M59,1 L59,5 L13,5 C11.8954305,5 11,5.8954305 11,7 L11,11.05 C10.9113828,11.0132737 10.8158514,10.9962145 10.72,11 L7.28,11 C7.18414856,10.9962145 7.08861719,11.0132737 7,11.05 L7,7 C7,3.6862915 9.6862915,1 13,1 L59,1 Z" id="Shape" fill="#E8EDFC"/><polygon id="Shape" fill="#CAD9FC" points="13 35 13 59 16 59 16 35"/><path d="M11,38 L8,38 C8.55228475,38 9,38.4477153 9,39 C9,39.5522847 8.55228475,40 8,40 L11,40 C11.5522847,40 12,39.5522847 12,39 C12,38.4477153 11.5522847,38 11,38 Z" id="Shape" fill="#CAD9FC"/><path d="M2,35 L2,59 L13,59 L13,35 L2,35 Z M11,40 L7,40 C6.44771525,40 6,39.5522847 6,39 C6,38.4477153 6.44771525,38 7,38 L11,38 C11.5522847,38 12,38.4477153 12,39 C12,39.5522847 11.5522847,40 11,40 Z" id="Shape" fill="#E8EDFC"/><path d="M23,35 L23,59 L37,59 L37,35 L23,35 Z M32,40 L28,40 C27.4477153,40 27,39.5522847 27,39 C27,38.4477153 27.4477153,38 28,38 L32,38 C32.5522847,38 33,38.4477153 33,39 C33,39.5522847 32.5522847,40 32,40 Z" id="Shape" fill="#CAD9FC"/><polygon id="Shape" fill="#E8EDFC" points="23 35 23 59 34 59 34 35"/><path d="M44,35 L44,59 L58,59 L58,35 L44,35 Z M53,40 L49,40 C48.4477153,40 48,39.5522847 48,39 C48,38.4477153 48.4477153,38 49,38 L53,38 C53.5522847,38 54,38.4477153 54,39 C54,39.5522847 53.5522847,40 53,40 Z" id="Shape" fill="#CAD9FC"/><polygon id="Shape" fill="#E8EDFC" points="44 35 44 59 55 59 55 35"/><path d="M11.69,12.24 L11.19,14.24 C11.0797072,14.6861224 10.6795536,14.9996448 10.22,15 L7.78,15 C7.32044635,14.9996448 6.92029277,14.6861224 6.81,14.24 L6.31,12.24 C6.1773574,11.7215903 6.48418963,11.1924159 7,11.05 C7.08861719,11.0132737 7.18414856,10.9962145 7.28,11 L10.72,11 C10.8158514,10.9962145 10.9113828,11.0132737 11,11.05 C11.5158104,11.1924159 11.8226426,11.7215903 11.69,12.24 Z" id="Shape" fill="#CAD9FC"/><path d="M32.69,12.24 L32.19,14.24 C32.0797072,14.6861224 31.6795536,14.9996448 31.22,15 L28.78,15 C28.3204464,14.9996448 27.9202928,14.6861224 27.81,14.24 L27.31,12.24 C27.2362381,11.9416417 27.3037696,11.6259365 27.4931338,11.3838627 C27.682498,11.1417889 27.972659,11.0002375 28.28,11 L31.72,11 C32.027341,11.0002375 32.317502,11.1417889 32.5068662,11.3838627 C32.6962304,11.6259365 32.7637619,11.9416417 32.69,12.24 Z" id="Shape" fill="#CAD9FC"/><path d="M53.69,12.24 L53.19,14.24 C53.0797072,14.6861224 52.6795536,14.9996448 52.22,15 L49.78,15 C49.3204464,14.9996448 48.9202928,14.6861224 48.81,14.24 L48.31,12.24 C48.2362381,11.9416417 48.3037696,11.6259365 48.4931338,11.3838627 C48.682498,11.1417889 48.972659,11.0002375 49.28,11 L52.72,11 C53.027341,11.0002375 53.317502,11.1417889 53.5068662,11.3838627 C53.6962304,11.6259365 53.7637619,11.9416417 53.69,12.24 Z" id="Shape" fill="#CAD9FC"/><path d="M9.69,12.24 L9.19,14.24 C9.07970723,14.6861224 8.67955365,14.9996448 8.22,15 L7.78,15 C7.32044635,14.9996448 6.92029277,14.6861224 6.81,14.24 L6.31,12.24 C6.1773574,11.7215903 6.48418963,11.1924159 7,11.05 C7.08861719,11.0132737 7.18414856,10.9962145 7.28,11 L8.72,11 C8.81585144,10.9962145 8.91138281,11.0132737 9,11.05 C9.51581037,11.1924159 9.8226426,11.7215903 9.69,12.24 Z" id="Shape" fill="#E8EDFC"/><path d="M30.69,12.24 L30.19,14.24 C30.0797072,14.6861224 29.6795536,14.9996448 29.22,15 L28.78,15 C28.3204464,14.9996448 27.9202928,14.6861224 27.81,14.24 L27.31,12.24 C27.2362381,11.9416417 27.3037696,11.6259365 27.4931338,11.3838627 C27.682498,11.1417889 27.972659,11.0002375 28.28,11 L29.72,11 C30.027341,11.0002375 30.317502,11.1417889 30.5068662,11.3838627 C30.6962304,11.6259365 30.7637619,11.9416417 30.69,12.24 Z" id="Shape" fill="#E8EDFC"/><path d="M51.69,12.24 L51.19,14.24 C51.0797072,14.6861224 50.6795536,14.9996448 50.22,15 L49.78,15 C49.3204464,14.9996448 48.9202928,14.6861224 48.81,14.24 L48.31,12.24 C48.2362381,11.9416417 48.3037696,11.6259365 48.4931338,11.3838627 C48.682498,11.1417889 48.972659,11.0002375 49.28,11 L50.72,11 C51.027341,11.0002375 51.317502,11.1417889 51.5068662,11.3838627 C51.6962304,11.6259365 51.7637619,11.9416417 51.69,12.24 Z" id="Shape" fill="#E8EDFC"/><path d="M12,28 C12,29.6568542 10.6568542,31 9,31 C8.65842344,31.0021256 8.31939584,30.9411006 8,30.82 C6.79816403,30.40537 5.99388327,29.2713341 6,28 C6.22929725,26.3922619 6.92460111,24.886929 8,23.67 C8.23790884,23.3295634 8.59466032,23.0905399 9,23 C10,23 12,26.34 12,28 Z" id="Shape" fill="#7FACFA"/><path d="M33,26 C33,27.6568542 31.6568542,29 30,29 C29.6584234,29.0021256 29.3193958,28.9411006 29,28.82 C27.798164,28.40537 26.9938833,27.2713341 27,26 C27.2292972,24.3922619 27.9246011,22.886929 29,21.67 C29.2379088,21.3295634 29.5946603,21.0905399 30,21 C31,21 33,24.34 33,26 Z" id="Shape" fill="#7FACFA"/><path d="M54,28 C54,29.6568542 52.6568542,31 51,31 C50.6584234,31.0021256 50.3193958,30.9411006 50,30.82 C48.798164,30.40537 47.9938833,29.2713341 48,28 C48.2292972,26.3922619 48.9246011,24.886929 50,23.67 C50.2379088,23.3295634 50.5946603,23.0905399 51,23 C52,23 54,26.34 54,28 Z" id="Shape" fill="#7FACFA"/><path d="M10,28 C10.0061167,29.2713341 9.20183597,30.40537 8,30.82 C6.79816403,30.40537 5.99388327,29.2713341 6,28 C6.22929725,26.3922619 6.92460111,24.886929 8,23.67 C9.07539889,24.886929 9.77070275,26.3922619 10,28 Z" id="Shape" fill="#A4C2F7"/><path d="M31,26 C31.0061167,27.2713341 30.201836,28.40537 29,28.82 C27.798164,28.40537 26.9938833,27.2713341 27,26 C27.2292972,24.3922619 27.9246011,22.886929 29,21.67 C30.0753989,22.886929 30.7707028,24.3922619 31,26 Z" id="Shape" fill="#A4C2F7"/><path d="M52,28 C52.0061167,29.2713341 51.201836,30.40537 50,30.82 C48.798164,30.40537 47.9938833,29.2713341 48,28 C48.2292972,26.3922619 48.9246011,24.886929 50,23.67 C51.0753989,24.886929 51.7707028,26.3922619 52,28 Z" id="Shape" fill="#A4C2F7"/><path d="M8,30.82 C8.31939584,30.9411006 8.65842344,31.0021256 9,31 C9.52780914,30.9980186 10.0455624,30.8554639 10.5,30.587 C9.57036824,30.0579558 8.99731158,29.0696241 9,28 C9.17291709,26.6601787 9.68967423,25.3879226 10.5,24.307 C9.97,23.549 9.4,23 9,23 C8.59466032,23.0905399 8.23790884,23.3295634 8,23.67 C6.92460111,24.886929 6.22929725,26.3922619 6,28 C5.99388327,29.2713341 6.79816403,30.40537 8,30.82 Z" id="Shape" fill="#FFFFFF"/><path d="M7,11.05 C6.48418963,11.1924159 6.1773574,11.7215903 6.31,12.24 L6.81,14.24 C6.92029277,14.6861224 7.32044635,14.9996448 7.78,15 L10.22,15 C10.3150937,14.99773 10.409377,14.9819038 10.5,14.953 C10.1586845,14.8564282 9.89533226,14.5842976 9.81,14.24 L9.31,12.24 C9.1773574,11.7215903 9.48418963,11.1924159 10,11.05 L10,7 C10,3.6862915 12.6862915,1 16,1 L13,1 C9.6862915,1 7,3.6862915 7,7 L7,11.05 Z" id="Shape" fill="#FFFFFF"/><rect id="Rectangle-path" fill="#FFFFFF" x="2" y="35" width="3" height="24"/><path d="M11,12.05 C10.8943429,12.0498677 10.7893743,12.0329917 10.689,12 L7.312,12 C7.00736211,12.1000409 6.67322748,12.047932 6.41351811,11.8598802 C6.15380875,11.6718285 6.00002633,11.3706438 6,11.05 L6,7 C6.00440864,3.13583434 9.13583434,0.00440863597 13,0 L59,0 C59.5522847,3.38176876e-17 60,0.44771525 60,1 L60,5 C60,5.55228475 59.5522847,6 59,6 L13,6 C12.4477153,6 12,6.44771525 12,7 L12,11.05 C12,11.6022847 11.5522847,12.05 11,12.05 Z M8,10 L10,10 L10,7 C10,5.34314575 11.3431458,4 13,4 L58,4 L58,2 L13,2 C10.2399468,2.00330612 8.00330612,4.23994685 8,7 L8,10 Z" id="Shape" fill="#428DFF"/><polygon id="Shape" fill="#FFFFFF" points="2 58 15 58 16 58 16 60 15 60 2 60"/><path d="M7,59 C7,58.4477153 6.55228475,58 6,58 L2,58 L2,60 L6,60 C6.55228475,60 7,59.5522847 7,59 Z" id="Shape" fill="#428DFF"/><path d="M16,60 L16,58 L14,58 C13.4477153,58 13,58.4477153 13,59 C13,59.5522847 13.4477153,60 14,60 L16,60 Z" id="Shape" fill="#428DFF"/><path d="M10,58 C9.73527314,58.0038804 9.48174298,58.107435 9.29,58.29 L9.17,58.44 C9.13212275,58.4957271 9.10185535,58.5562619 9.08,58.62 C9.05111232,58.6766624 9.03088731,58.7373375 9.02,58.8 C9.0088692,58.8661445 9.00218753,58.9329612 9,59 C9.00388039,59.2647269 9.10743496,59.518257 9.29,59.71 C9.38560709,59.8003968 9.49761868,59.871677 9.62,59.92 C9.99297365,60.0708766 10.4197788,59.9886481 10.71,59.71 C10.8003968,59.6143929 10.871677,59.5023813 10.92,59.38 C10.971241,59.2597777 10.99842,59.1306773 11,59 C11.0027011,58.7339647 10.8982118,58.4780384 10.7100867,58.2899133 C10.5219616,58.1017882 10.2660353,57.9972989 10,58 Z" id="Shape" fill="#428DFF"/><polygon id="Shape" fill="#FFFFFF" points="1 58 14 58 17 58 17 60 14 60 1 60"/><path d="M6,59 C6,58.4477153 5.55228475,58 5,58 L1,58 L1,60 L5,60 C5.55228475,60 6,59.5522847 6,59 Z" id="Shape" fill="#428DFF"/><path d="M17,60 L17,58 L13,58 C12.4477153,58 12,58.4477153 12,59 C12,59.5522847 12.4477153,60 13,60 L17,60 Z" id="Shape" fill="#428DFF"/><path d="M9,58 C8.73527314,58.0038804 8.48174298,58.107435 8.29,58.29 L8.17,58.44 C8.13212275,58.4957271 8.10185535,58.5562619 8.08,58.62 C8.05111232,58.6766624 8.03088731,58.7373375 8.02,58.8 C8.0088692,58.8661445 8.00218753,58.9329612 8,59 C8.00388039,59.2647269 8.10743496,59.518257 8.29,59.71 C8.38560709,59.8003968 8.49761868,59.871677 8.62,59.92 C8.99297365,60.0708766 9.4197788,59.9886481 9.71,59.71 C9.80039684,59.6143929 9.87167695,59.5023813 9.92,59.38 C9.97124097,59.2597777 9.99842001,59.1306773 10,59 C10.0027011,58.7339647 9.89821183,58.4780384 9.71008674,58.2899133 C9.52196165,58.1017882 9.26603534,57.9972989 9,58 Z" id="Shape" fill="#428DFF"/><path d="M16,60 C15.4477153,60 15,59.5522847 15,59 L15,36 L3,36 L3,59 C3,59.5522847 2.55228475,60 2,60 C1.44771525,60 1,59.5522847 1,59 L1,35 C1,34.4477153 1.44771525,34 2,34 L16,34 C16.5522847,34 17,34.4477153 17,35 L17,59 C17,59.5522847 16.5522847,60 16,60 Z" id="Shape" fill="#428DFF"/><path d="M17,44 L1,44 C0.44771525,44 6.76353751e-17,43.5522847 0,43 C-6.76353751e-17,42.4477153 0.44771525,42 1,42 L17,42 C17.5522847,42 18,42.4477153 18,43 C18,43.5522847 17.5522847,44 17,44 Z" id="Shape" fill="#428DFF"/><path d="M17,36 L1,36 C0.44771525,36 6.76353751e-17,35.5522847 0,35 C-6.76353751e-17,34.4477153 0.44771525,34 1,34 L17,34 C17.5522847,34 18,34.4477153 18,35 C18,35.5522847 17.5522847,36 17,36 Z" id="Shape" fill="#428DFF"/><path d="M5,52 L1,52 C0.44771525,52 6.76353751e-17,51.5522847 0,51 C-6.76353751e-17,50.4477153 0.44771525,50 1,50 L5,50 C5.55228475,50 6,50.4477153 6,51 C6,51.5522847 5.55228475,52 5,52 Z" id="Shape" fill="#428DFF"/><path d="M17,52 L9,52 C8.44771525,52 8,51.5522847 8,51 C8,50.4477153 8.44771525,50 9,50 L17,50 C17.5522847,50 18,50.4477153 18,51 C18,51.5522847 17.5522847,52 17,52 Z" id="Shape" fill="#428DFF"/><path d="M11,40 L7,40 C6.44771525,40 6,39.5522847 6,39 C6,38.4477153 6.44771525,38 7,38 L11,38 C11.5522847,38 12,38.4477153 12,39 C12,39.5522847 11.5522847,40 11,40 Z" id="Shape" fill="#428DFF"/><path d="M37,60 L23,60 C22.4477153,60 22,59.5522847 22,59 L22,35 C22,34.4477153 22.4477153,34 23,34 L37,34 C37.5522847,34 38,34.4477153 38,35 L38,59 C38,59.5522847 37.5522847,60 37,60 Z M24,58 L36,58 L36,36 L24,36 L24,58 Z" id="Shape" fill="#428DFF"/><path d="M38,44 L22,44 C21.4477153,44 21,43.5522847 21,43 C21,42.4477153 21.4477153,42 22,42 L38,42 C38.5522847,42 39,42.4477153 39,43 C39,43.5522847 38.5522847,44 38,44 Z" id="Shape" fill="#428DFF"/><path d="M38,36 L22,36 C21.4477153,36 21,35.5522847 21,35 C21,34.4477153 21.4477153,34 22,34 L38,34 C38.5522847,34 39,34.4477153 39,35 C39,35.5522847 38.5522847,36 38,36 Z" id="Shape" fill="#428DFF"/><path d="M26,52 L22,52 C21.4477153,52 21,51.5522847 21,51 C21,50.4477153 21.4477153,50 22,50 L26,50 C26.5522847,50 27,50.4477153 27,51 C27,51.5522847 26.5522847,52 26,52 Z" id="Shape" fill="#428DFF"/><path d="M38,52 L30,52 C29.4477153,52 29,51.5522847 29,51 C29,50.4477153 29.4477153,50 30,50 L38,50 C38.5522847,50 39,50.4477153 39,51 C39,51.5522847 38.5522847,52 38,52 Z" id="Shape" fill="#428DFF"/><path d="M38,60 L22,60 C21.4477153,60 21,59.5522847 21,59 C21,58.4477153 21.4477153,58 22,58 L38,58 C38.5522847,58 39,58.4477153 39,59 C39,59.5522847 38.5522847,60 38,60 Z" id="Shape" fill="#428DFF"/><path d="M32,40 L28,40 C27.4477153,40 27,39.5522847 27,39 C27,38.4477153 27.4477153,38 28,38 L32,38 C32.5522847,38 33,38.4477153 33,39 C33,39.5522847 32.5522847,40 32,40 Z" id="Shape" fill="#428DFF"/><path d="M58,60 L44,60 C43.4477153,60 43,59.5522847 43,59 L43,35 C43,34.4477153 43.4477153,34 44,34 L58,34 C58.5522847,34 59,34.4477153 59,35 L59,59 C59,59.5522847 58.5522847,60 58,60 Z M45,58 L57,58 L57,36 L45,36 L45,58 Z" id="Shape" fill="#428DFF"/><path d="M59,44 L43,44 C42.4477153,44 42,43.5522847 42,43 C42,42.4477153 42.4477153,42 43,42 L59,42 C59.5522847,42 60,42.4477153 60,43 C60,43.5522847 59.5522847,44 59,44 Z" id="Shape" fill="#428DFF"/><path d="M59,36 L43,36 C42.4477153,36 42,35.5522847 42,35 C42,34.4477153 42.4477153,34 43,34 L59,34 C59.5522847,34 60,34.4477153 60,35 C60,35.5522847 59.5522847,36 59,36 Z" id="Shape" fill="#428DFF"/><path d="M47,52 L43,52 C42.4477153,52 42,51.5522847 42,51 C42,50.4477153 42.4477153,50 43,50 L47,50 C47.5522847,50 48,50.4477153 48,51 C48,51.5522847 47.5522847,52 47,52 Z" id="Shape" fill="#428DFF"/><path d="M59,52 L51,52 C50.4477153,52 50,51.5522847 50,51 C50,50.4477153 50.4477153,50 51,50 L59,50 C59.5522847,50 60,50.4477153 60,51 C60,51.5522847 59.5522847,52 59,52 Z" id="Shape" fill="#428DFF"/><path d="M59,60 L43,60 C42.4477153,60 42,59.5522847 42,59 C42,58.4477153 42.4477153,58 43,58 L59,58 C59.5522847,58 60,58.4477153 60,59 C60,59.5522847 59.5522847,60 59,60 Z" id="Shape" fill="#428DFF"/><path d="M53,40 L49,40 C48.4477153,40 48,39.5522847 48,39 C48,38.4477153 48.4477153,38 49,38 L53,38 C53.5522847,38 54,38.4477153 54,39 C54,39.5522847 53.5522847,40 53,40 Z" id="Shape" fill="#428DFF"/><path d="M10.22,16 L7.78,16 C6.8590609,16.0020579 6.05664115,15.372855 5.839,14.478 L5.339,12.483 C5.08276996,11.4643679 5.66443858,10.422449 6.666,10.106 C6.86224186,10.0325986 7.07050687,9.99664406 7.28,10 L10.72,10 C10.9291578,9.99676924 11.1370721,10.0327218 11.333,10.106 C12.335687,10.42462 12.9168147,11.4689845 12.659,12.489 L12.159,14.483 C11.9398979,15.3753499 11.1388525,16.0020574 10.22,16 Z M7.312,12 L7.27,12.013 L7.78,14 L10.22,14 L10.72,12.009 L10.689,12 L7.312,12 Z" id="Shape" fill="#428DFF"/><path d="M9,19 C8.44771525,19 8,18.5522847 8,18 L8,15 C8,14.4477153 8.44771525,14 9,14 C9.55228475,14 10,14.4477153 10,15 L10,18 C10,18.5522847 9.55228475,19 9,19 Z" id="Shape" fill="#428DFF"/><path d="M28,12.05 C27.4477153,12.05 27,11.6022847 27,11.05 L27,5 C27,4.44771525 27.4477153,4 28,4 C28.5522847,4 29,4.44771525 29,5 L29,11.05 C29,11.6022847 28.5522847,12.05 28,12.05 Z" id="Shape" fill="#428DFF"/><path d="M32,12.05 C31.4477153,12.05 31,11.6022847 31,11.05 L31,5 C31,4.44771525 31.4477153,4 32,4 C32.5522847,4 33,4.44771525 33,5 L33,11.05 C33,11.6022847 32.5522847,12.05 32,12.05 Z" id="Shape" fill="#428DFF"/><path d="M31.219,16 L28.781,16 C27.8629774,16.00032 27.0626204,15.375621 26.84,14.485 L26.34,12.485 C26.1906248,11.887406 26.3249538,11.2543177 26.704129,10.7688718 C27.0833043,10.2834259 27.6650199,9.99978526 28.281,10 L31.719,10 C32.3349801,9.99978526 32.9166957,10.2834259 33.295871,10.7688718 C33.6750462,11.2543177 33.8093752,11.887406 33.66,12.485 L33.16,14.485 C32.9373796,15.375621 32.1370226,16.00032 31.219,16 Z M31.219,14 L31.719,12 L28.281,12 L28.781,14 L31.219,14 Z" id="Shape" fill="#428DFF"/><path d="M30,19 C29.4477153,19 29,18.5522847 29,18 L29,15 C29,14.4477153 29.4477153,14 30,14 C30.5522847,14 31,14.4477153 31,15 L31,18 C31,18.5522847 30.5522847,19 30,19 Z" id="Shape" fill="#428DFF"/><path d="M49,12.05 C48.4477153,12.05 48,11.6022847 48,11.05 L48,5 C48,4.44771525 48.4477153,4 49,4 C49.5522847,4 50,4.44771525 50,5 L50,11.05 C50,11.6022847 49.5522847,12.05 49,12.05 Z" id="Shape" fill="#428DFF"/><path d="M53,12.05 C52.4477153,12.05 52,11.6022847 52,11.05 L52,5 C52,4.44771525 52.4477153,4 53,4 C53.5522847,4 54,4.44771525 54,5 L54,11.05 C54,11.6022847 53.5522847,12.05 53,12.05 Z" id="Shape" fill="#428DFF"/><path d="M52.219,16 L49.781,16 C48.8629774,16.00032 48.0626204,15.375621 47.84,14.485 L47.34,12.485 C47.1906248,11.887406 47.3249538,11.2543177 47.704129,10.7688718 C48.0833043,10.2834259 48.6650199,9.99978526 49.281,10 L52.719,10 C53.3349801,9.99978526 53.9166957,10.2834259 54.295871,10.7688718 C54.6750462,11.2543177 54.8093752,11.887406 54.66,12.485 L54.16,14.485 C53.9373796,15.375621 53.1370226,16.00032 52.219,16 Z M52.219,14 L52.719,12 L49.281,12 L49.781,14 L52.219,14 Z" id="Shape" fill="#428DFF"/><path d="M51,19 C50.4477153,19 50,18.5522847 50,18 L50,15 C50,14.4477153 50.4477153,14 51,14 C51.5522847,14 52,14.4477153 52,15 L52,18 C52,18.5522847 51.5522847,19 51,19 Z" id="Shape" fill="#428DFF"/><path d="M9,32 C6.790861,32 5,30.209139 5,28 C5,26.211 7.092,22 9,22 C10.908,22 13,26.211 13,28 C13,30.209139 11.209139,32 9,32 Z M9,24.069 C7.95662903,25.1508457 7.26019252,26.5196916 7,28 C7,29.1045695 7.8954305,30 9,30 C10.1045695,30 11,29.1045695 11,28 C10.7398075,26.5196916 10.043371,25.1508457 9,24.069 Z" id="Shape" fill="#428DFF"/><path d="M30,30 C27.790861,30 26,28.209139 26,26 C26,24.211 28.092,20 30,20 C31.908,20 34,24.211 34,26 C34,28.209139 32.209139,30 30,30 Z M30,22.069 C28.956629,23.1508457 28.2601925,24.5196916 28,26 C28,27.1045695 28.8954305,28 30,28 C31.1045695,28 32,27.1045695 32,26 C31.7398075,24.5196916 31.043371,23.1508457 30,22.069 Z" id="Shape" fill="#428DFF"/><path d="M51,32 C48.790861,32 47,30.209139 47,28 C47,26.211 49.092,22 51,22 C52.908,22 55,26.211 55,28 C55,30.209139 53.209139,32 51,32 Z M51,24.069 C49.956629,25.1508457 49.2601925,26.5196916 49,28 C49,29.1045695 49.8954305,30 51,30 C52.1045695,30 53,29.1045695 53,28 C52.7398075,26.5196916 52.043371,25.1508457 51,24.069 Z" id="Shape" fill="#428DFF"/></g></g></svg>
