<?xml version="1.0" encoding="UTF-8"?>
<svg xmlns="http://www.w3.org/2000/svg" xmlns:xlink="http://www.w3.org/1999/xlink" width="512" height="512" viewBox="0 0 60 60" version="1.1"><!-- Generator: Sketch 51.3 (57544) - http://www.bohemiancoding.com/sketch --><title>013 - Boiler</title><desc>Created with Sketch.</desc><defs/><g id="Page-1" stroke="none" stroke-width="1" fill="none" fill-rule="evenodd"><g id="013---Boiler" fill-rule="nonzero"><path d="M9,51 L9,58 C9,58.5522847 8.55228475,59 8,59 L6,59 C5.44771525,59 5,58.5522847 5,58 L5,51 L9,51 Z" id="Shape" fill="#CAD9FC"/><path d="M23,51 L23,58 C23,58.5522847 22.5522847,59 22,59 L20,59 C19.4477153,59 19,58.5522847 19,58 L19,51 L23,51 Z" id="Shape" fill="#CAD9FC"/><path d="M41,51 L41,58 C41,58.5522847 40.5522847,59 40,59 L38,59 C37.4477153,59 37,58.5522847 37,58 L37,51 L41,51 Z" id="Shape" fill="#CAD9FC"/><path d="M55,51 L55,58 C55,58.5522847 54.5522847,59 54,59 L52,59 C51.4477153,59 51,58.5522847 51,58 L51,51 L55,51 Z" id="Shape" fill="#CAD9FC"/><path d="M7,51 L7,58 C7,58.5522847 6.55228475,59 6,59 C5.44771525,59 5,58.5522847 5,58 L5,51 L7,51 Z" id="Shape" fill="#CAD9FC"/><path d="M21,51 L21,58 C21,58.5522847 20.5522847,59 20,59 C19.4477153,59 19,58.5522847 19,58 L19,51 L21,51 Z" id="Shape" fill="#CAD9FC"/><path d="M39,51 L39,58 C39,58.5522847 38.5522847,59 38,59 C37.4477153,59 37,58.5522847 37,58 L37,51 L39,51 Z" id="Shape" fill="#CAD9FC"/><path d="M53,51 L53,58 C53,58.5522847 52.5522847,59 52,59 C51.4477153,59 51,58.5522847 51,58 L51,51 L53,51 Z" id="Shape" fill="#CAD9FC"/><path d="M16,15.14 L16,9 C16,8.44771525 15.5522847,8 15,8 L13,8 C12.4477153,8 12,8.44771525 12,9 L12,15.14 L16,15.14 Z" id="Shape" fill="#E8EDFC"/><path d="M25,22 L25,52 C25,52.5522847 24.5522847,53 24,53 L4,53 C3.44771525,53 3,52.5522847 3,52 L3,22 L25,22 Z" id="Shape" fill="#CAD9FC"/><path d="M25,20 L14,22 L12.5,21.73 L3,20 L3.76,19.24 C6.11040311,16.8925541 9.19596861,15.4239096 12.5,15.08 C13,15.03 13.5,15 14,15 C17.8407534,14.9984302 21.5245866,16.5237674 24.24,19.24 L25,20 Z" id="Shape" fill="#CAD9FC"/><path d="M57,22 L57,52 C57,52.5522847 56.5522847,53 56,53 L36,53 C35.4477153,53 35,52.5522847 35,52 L35,22 L57,22 Z" id="Shape" fill="#CAD9FC"/><path d="M23,22 L23,52 C23,52.5522847 22.5522847,53 22,53 L4,53 C3.44771525,53 3,52.5522847 3,52 L3,22 L23,22 Z" id="Shape" fill="#E8EDFC"/><path d="M55,22 L55,52 C55,52.5522847 54.5522847,53 54,53 L36,53 C35.4477153,53 35,52.5522847 35,52 L35,22 L55,22 Z" id="Shape" fill="#E8EDFC"/><path d="M57,20 L46.02,22 L44.52,21.73 L35,20 L35.76,19.24 C38.1104031,16.8925541 41.1959686,15.4239096 44.5,15.08 C45,15.03 45.5,15 46,15 C49.8407534,14.9984302 53.5245866,16.5237674 56.24,19.24 L57,20 Z" id="Shape" fill="#CAD9FC"/><path d="M22,20 L12.5,21.73 L3,20 L3.76,19.24 C6.11040311,16.8925541 9.19596861,15.4239096 12.5,15.08 C13.8892995,15.2206134 15.2504571,15.564272 16.54,16.1 C18.2978751,16.8274754 19.8950166,17.8945019 21.24,19.24 L22,20 Z" id="Shape" fill="#E8EDFC"/><path d="M54,20 L44.52,21.73 L35,20 L35.76,19.24 C38.1104031,16.8925541 41.1959686,15.4239096 44.5,15.08 C45.8892995,15.2206134 47.2504571,15.564272 48.54,16.1 C50.2978751,16.8274754 51.8950166,17.8945019 53.24,19.24 L54,20 Z" id="Shape" fill="#E8EDFC"/><path d="M59,22 C58.9918328,23.1011688 58.1011688,23.9918328 57,24 L35,24 C33.8967981,23.9967052 33.0032948,23.1032019 33,22 C33.0081672,20.8988312 33.8988312,20.0081672 35,20 L57,20 C58.1032019,20.0032948 58.9967052,20.8967981 59,22 Z" id="Shape" fill="#CAD9FC"/><circle id="Oval" fill="#BDC3C7" cx="3" cy="12" r="2"/><circle id="Oval" fill="#BDC3C7" cx="8" cy="6" r="2"/><rect id="Rectangle-path" fill="#CAD9FC" x="18" y="1" width="8" height="4" rx="1"/><rect id="Rectangle-path" fill="#CAD9FC" x="34" y="1" width="8" height="4" rx="1"/><rect id="Rectangle-path" fill="#E8EDFC" x="18" y="1" width="5.67" height="4" rx="1"/><rect id="Rectangle-path" fill="#E8EDFC" x="34" y="1" width="5.67" height="4" rx="1"/><path d="M21,39 L21,44.85 C20.2816691,44.6225622 19.6058881,44.2779139 19,43.83 C18.6470563,43.5778507 18.3128478,43.3004577 18,43 C17.9959203,43.4420064 17.7849431,43.856558 17.43,44.12 C16.3838941,44.709729 15.2008089,45.0132611 14,45 C13.7334323,45.0012646 13.4678448,44.967646 13.21,44.9 C12.99777,44.8564936 12.790166,44.792873 12.59,44.71 C11.6297371,44.3024781 10.7519967,43.7229661 10,43 C9.99800131,43.4397557 9.78623225,43.852148 9.43,44.11 C8.97229159,44.4440536 8.44642227,44.6728409 7.89,44.78 C7.59628339,44.8461554 7.29917481,44.8962299 7,44.93 L7,39 C7,38.4477153 7.44771525,38 8,38 L20,38 C20.1095007,37.9995889 20.218086,38.0199486 20.32,38.06 C20.5150017,38.1189773 20.6842248,38.2423692 20.8,38.41 C20.9306729,38.5788192 21.0010796,38.7865189 21,39 Z" id="Shape" fill="#CAD9FC"/><path d="M7.89,44.78 C7.38436967,45.860546 7.09234782,47.0286334 7.03,48.22 C7.00956017,48.1484725 6.99945784,48.0743887 7,48 L7,44.93 C7.29917481,44.8962299 7.59628339,44.8461554 7.89,44.78 Z" id="Shape" fill="#FAC176"/><path d="M21,44.85 L21,48 C21,48.5522847 20.5522847,49 20,49 L8,49 C7.75216417,48.999353 7.5133983,48.9066976 7.33,48.74 C7.174243,48.6054391 7.06852509,48.4221947 7.03,48.22 C7.09234782,47.0286334 7.38436967,45.860546 7.89,44.78 C8.44642227,44.6728409 8.97229159,44.4440536 9.43,44.11 C9.78623225,43.852148 9.99800131,43.4397557 10,43 C10.7519967,43.7229661 11.6297371,44.3024781 12.59,44.71 C12.790166,44.792873 12.99777,44.8564936 13.21,44.9 C13.4678448,44.967646 13.7334323,45.0012646 14,45 C15.2008089,45.0132611 16.3838941,44.709729 17.43,44.12 C17.7849431,43.856558 17.9959203,43.4420064 18,43 C18.8540829,43.8268294 19.8777257,44.4580758 21,44.85 Z" id="Shape" fill="#CAD9FC"/><path d="M53,39 L53,44.85 C52.2816691,44.6225622 51.6058881,44.2779139 51,43.83 C50.6470563,43.5778507 50.3128478,43.3004577 50,43 C49.9959203,43.4420064 49.7849431,43.856558 49.43,44.12 C48.3838941,44.709729 47.2008089,45.0132611 46,45 C45.7334323,45.0012646 45.4678448,44.967646 45.21,44.9 C44.99777,44.8564936 44.790166,44.792873 44.59,44.71 C43.6297371,44.3024781 42.7519967,43.7229661 42,43 C41.9980013,43.4397557 41.7862323,43.852148 41.43,44.11 C40.9722916,44.4440536 40.4464223,44.6728409 39.89,44.78 C39.5962834,44.8461554 39.2991748,44.8962299 39,44.93 L39,39 C39,38.4477153 39.4477153,38 40,38 L52,38 C52.1095007,37.9995889 52.218086,38.0199486 52.32,38.06 C52.5150017,38.1189773 52.6842248,38.2423692 52.8,38.41 C52.9306729,38.5788192 53.0010796,38.7865189 53,39 Z" id="Shape" fill="#CAD9FC"/><path d="M19,39 L19,44.85 C18.4446776,44.6824003 17.9160414,44.4366013 17.43,44.12 C17.0224665,43.7919756 16.4565021,43.744482 16,44 C16,45.27 14.38,44.73 13.21,44.9 C12.8092929,44.9598046 12.4050885,44.99321 12,45 C11.5158741,44.993515 11.0373888,44.8951032 10.59,44.71 C10.1827937,44.5524923 9.79385629,44.3513178 9.43,44.11 C9.01941748,43.7875779 8.45506375,43.7441661 8,44 C8,44.65 7.57,44.09 7,44.39 L7,39 C7,38.4477153 7.44771525,38 8,38 L18,38 C18.1095007,37.9995889 18.218086,38.0199486 18.32,38.06 C18.5150017,38.1189773 18.6842248,38.2423692 18.8,38.41 C18.9306729,38.5788192 19.0010796,38.7865189 19,39 Z" id="Shape" fill="#CAD9FC"/><path d="M51,39 L51,44.85 C50.4446776,44.6824003 49.9160414,44.4366013 49.43,44.12 C48.58,43.58 48,45 48,45 C48,46.27 46.38,44.73 45.21,44.9 C44.8092929,44.9598046 44.4050885,44.99321 44,45 C43.5158741,44.993515 43.0373888,44.8951032 42.59,44.71 C42.1827937,44.5524923 41.7938563,44.3513178 41.43,44.11 C40.58,43.58 40,45 40,45 C40,45.65 39.57,44.09 39,44.39 L39,39 C39,38.4477153 39.4477153,38 40,38 L50,38 C50.1095007,37.9995889 50.218086,38.0199486 50.32,38.06 C50.5150017,38.1189773 50.6842248,38.2423692 50.8,38.41 C50.9306729,38.5788192 51.0010796,38.7865189 51,39 Z" id="Shape" fill="#CAD9FC"/><path d="M39.89,44.78 C39.3843697,45.860546 39.0923478,47.0286334 39.03,48.22 C39.0095602,48.1484725 38.9994578,48.0743887 39,48 L39,44.93 C39.2991748,44.8962299 39.5962834,44.8461554 39.89,44.78 Z" id="Shape" fill="#FAC176"/><path d="M53,44.85 L53,48 C53,48.5522847 52.5522847,49 52,49 L40,49 C39.7521642,48.999353 39.5133983,48.9066976 39.33,48.74 C39.174243,48.6054391 39.0685251,48.4221947 39.03,48.22 C39.0923478,47.0286334 39.3843697,45.860546 39.89,44.78 C40.4464223,44.6728409 40.9722916,44.4440536 41.43,44.11 C41.7862323,43.852148 41.9980013,43.4397557 42,43 C42.7519967,43.7229661 43.6297371,44.3024781 44.59,44.71 C44.790166,44.792873 44.99777,44.8564936 45.21,44.9 C45.4678448,44.967646 45.7334323,45.0012646 46,45 C47.2008089,45.0132611 48.3838941,44.709729 49.43,44.12 C49.7849431,43.856558 49.9959203,43.4420064 50,43 C50.8540829,43.8268294 51.8777257,44.4580758 53,44.85 Z" id="Shape" fill="#CAD9FC"/><path d="M19,44.85 L19,48 C19,48.5522847 18.5522847,49 18,49 L8,49 C7.75216417,48.999353 7.5133983,48.9066976 7.33,48.74 C7.174243,48.6054391 7.06852509,48.4221947 7.03,48.22 C7.09234782,47.0286334 7.38436967,45.860546 7.89,44.78 C8.44642227,44.6728409 8.97229159,44.4440536 9.43,44.11 C9.79385629,44.3513178 10.1827937,44.5524923 10.59,44.71 C11.0373888,44.8951032 11.5158741,44.993515 12,45 C12.4050885,44.99321 12.8092929,44.9598046 13.21,44.9 C13.4678448,44.967646 13.7334323,45.0012646 14,45 C15.2008089,45.0132611 16.3838941,44.709729 17.43,44.12 C17.9160414,44.4366013 18.4446776,44.6824003 19,44.85 Z" id="Shape" fill="#E8EDFC"/><path d="M51,44.85 L51,48 C51,48.5522847 50.5522847,49 50,49 L40,49 C39.7521642,48.999353 39.5133983,48.9066976 39.33,48.74 C39.174243,48.6054391 39.0685251,48.4221947 39.03,48.22 C39.0923478,47.0286334 39.3843697,45.860546 39.89,44.78 C40.4464223,44.6728409 40.9722916,44.4440536 41.43,44.11 C41.7938563,44.3513178 42.1827937,44.5524923 42.59,44.71 C43.0373888,44.8951032 43.5158741,44.993515 44,45 C44.4050885,44.99321 44.8092929,44.9598046 45.21,44.9 C45.4678448,44.967646 45.7334323,45.0012646 46,45 C47.2008089,45.0132611 48.3838941,44.709729 49.43,44.12 C49.9160414,44.4366013 50.4446776,44.6824003 51,44.85 Z" id="Shape" fill="#E8EDFC"/><path d="M17,31 C17,32.6568542 15.6568542,34 14,34 C13.6584234,34.0021256 13.3193958,33.9411006 13,33.82 C11.8019194,33.4003329 10.9997976,32.2694557 10.9997976,31 C10.9997976,29.7305443 11.8019194,28.5996671 13,28.18 C13.3193958,28.0588994 13.6584234,27.9978744 14,28 C15.6568542,28 17,29.3431458 17,31 Z" id="Shape" fill="#7FACFA"/><path d="M49,31 C49,32.6568542 47.6568542,34 46,34 C45.6584234,34.0021256 45.3193958,33.9411006 45,33.82 C43.8019194,33.4003329 42.9997976,32.2694557 42.9997976,31 C42.9997976,29.7305443 43.8019194,28.5996671 45,28.18 C45.3193958,28.0588994 45.6584234,27.9978744 46,28 C47.6568542,28 49,29.3431458 49,31 Z" id="Shape" fill="#7FACFA"/><ellipse id="Oval" fill="#A4C2F7" cx="13" cy="31" rx="2" ry="2.82"/><ellipse id="Oval" fill="#A4C2F7" cx="45" cy="31" rx="2" ry="2.82"/><path d="M27,22 C26.9918328,23.1011688 26.1011688,23.9918328 25,24 L3,24 C1.89679813,23.9967052 1.0032948,23.1032019 1,22 C0.997176934,21.4694095 1.2101411,20.9604612 1.59,20.59 C1.9604612,20.2101411 2.46940947,19.9971769 3,20 L25,20 C26.1032019,20.0032948 26.9967052,20.8967981 27,22 Z" id="Shape" fill="#CAD9FC"/><path d="M56.69,22 C56.6877672,22.5295768 56.4755878,23.0366497 56.1,23.41 C55.7295388,23.7898589 55.2205905,24.0028231 54.69,24 L35,24 C33.8967981,23.9967052 33.0032948,23.1032019 33,22 C33.0081672,20.8988312 33.8988312,20.0081672 35,20 L54.69,20 C55.7932019,20.0032948 56.6867052,20.8967981 56.69,22 Z" id="Shape" fill="#E8EDFC"/><path d="M24.69,22 C24.6877672,22.5295768 24.4755878,23.0366497 24.1,23.41 C23.7295388,23.7898589 23.2205905,24.0028231 22.69,24 L3,24 C1.89679813,23.9967052 1.0032948,23.1032019 1,22 C0.997176934,21.4694095 1.2101411,20.9604612 1.59,20.59 C1.9604612,20.2101411 2.46940947,19.9971769 3,20 L22.69,20 C23.7932019,20.0032948 24.6867052,20.8967981 24.69,22 Z" id="Shape" fill="#E8EDFC"/><path d="M3,14 C3.5764723,13.9987228 4.12391403,13.7468996 4.5,13.31 C3.83328786,12.5639105 3.83328786,11.4360895 4.5,10.69 C3.89457628,9.99159334 2.8894362,9.79902208 2.0687479,10.2242049 C1.24805961,10.6493878 0.82562622,11.5815575 1.04695793,12.4789548 C1.26828963,13.3763522 2.0757258,14.0051901 3,14 Z" id="Shape" fill="#FFFFFF"/><path d="M3,24 L3,52 C3,52.5522847 3.44771525,53 4,53 L5,53 L5,58 C5,58.5522847 5.44771525,59 6,59 L8,59 C8.17763412,58.9954817 8.35060582,58.9422064 8.5,58.846 C8.19510961,58.6726121 8.00486045,58.3507105 8,58 L8,53 L7,53 C6.44771525,53 6,52.5522847 6,52 L6,24 C4.89679813,23.9967052 4.0032948,23.1032019 4,22 C4.00816722,20.8988312 4.89883122,20.0081672 6,20 L6.76,19.24 C9.01212694,16.9959884 11.9399803,15.555254 15.092,15.14 L15,15.14 L15,9 C15.0036923,8.64870271 15.194211,8.32596394 15.5,8.153 C15.3503298,8.05751932 15.1774721,8.00462484 15,8 L13,8 C12.4477153,8 12,8.44771525 12,9 L12,15.14 L12.092,15.14 C8.93998031,15.555254 6.01212694,16.9959884 3.76,19.24 L3,20 C2.46940947,19.9971769 1.9604612,20.2101411 1.59,20.59 C1.2101411,20.9604612 0.997176934,21.4694095 1,22 C1.0032948,23.1032019 1.89679813,23.9967052 3,24 Z" id="Shape" fill="#FFFFFF"/><path d="M22,5 C21.4477153,5 21,4.55228475 21,4 L21,2 C21,1.44771525 21.4477153,1 22,1 L19,1 C18.4477153,1 18,1.44771525 18,2 L18,4 C18,4.55228475 18.4477153,5 19,5 L22,5 Z" id="Shape" fill="#FFFFFF"/><polygon id="Shape" fill="#FFFFFF" points="4 24 4 37 4 52 2 52 2 37 2 24"/><path d="M3,29 C3.55228475,29 4,28.5522847 4,28 L4,24 L2,24 L2,28 C2,28.5522847 2.44771525,29 3,29 Z" id="Shape" fill="#428DFF"/><path d="M2,52 L4,52 L4,36 C4,35.4477153 3.55228475,35 3,35 C2.44771525,35 2,35.4477153 2,36 L2,52 Z" id="Shape" fill="#428DFF"/><path d="M4,32 C3.99611961,31.7352731 3.89256504,31.481743 3.71,31.29 L3.56,31.17 C3.50427287,31.1321227 3.44373808,31.1018554 3.38,31.08 C3.32333758,31.0511123 3.26266255,31.0308873 3.2,31.02 C3.13385548,31.0088692 3.06703885,31.0021875 3,31 C2.73527314,31.0038804 2.48174298,31.107435 2.29,31.29 C2.19960316,31.3856071 2.12832305,31.4976187 2.08,31.62 C1.92912342,31.9929737 2.01135194,32.4197788 2.29,32.71 C2.38560709,32.8003968 2.49761868,32.871677 2.62,32.92 C2.74022231,32.971241 2.86932274,32.99842 3,33 C3.26472686,32.9961196 3.51825702,32.892565 3.71,32.71 C3.89256504,32.518257 3.99611961,32.2647269 4,32 Z" id="Shape" fill="#428DFF"/><path d="M24,54 L4,54 C2.8954305,54 2,53.1045695 2,52 C2,51.4477153 2.44771525,51 3,51 C3.55228475,51 4,51.4477153 4,52 L24,52 L24,25 L3,25 C2.44771525,25 2,24.5522847 2,24 C2,23.4477153 2.44771525,23 3,23 L25,23 C25.5522847,23 26,23.4477153 26,24 L26,52 C26,53.1045695 25.1045695,54 24,54 Z" id="Shape" fill="#428DFF"/><path d="M25,21 L3,21 C2.5956041,20.9999137 2.23106595,20.7562725 2.07632202,20.3826546 C1.92157809,20.0090366 2.00709208,19.5789943 2.293,19.293 L3.05,18.536 C5.95403752,15.631723 9.89290139,14.000097 14,14.000097 C18.1070986,14.000097 22.0459625,15.631723 24.95,18.536 L25.707,19.293 C25.9929079,19.5789943 26.0784219,20.0090366 25.923678,20.3826546 C25.7689341,20.7562725 25.4043959,20.9999137 25,21 Z M5.518,19 L22.482,19 C17.534676,15.0001065 10.465324,15.0001065 5.518,19 Z" id="Shape" fill="#428DFF"/><path d="M25,25 L3,25 C1.34314579,25 8.94069674e-08,23.6568542 8.94069672e-08,22 C8.9406967e-08,20.3431458 1.34314579,19 3,19 L25,19 C26.6568542,19 28,20.3431458 28,22 C28,23.6568542 26.6568542,25 25,25 Z M3,21 C2.44771525,21 2,21.4477153 2,22 C2,22.5522847 2.44771525,23 3,23 L25,23 C25.5522847,23 26,22.5522847 26,22 C26,21.4477153 25.5522847,21 25,21 L3,21 Z" id="Shape" fill="#428DFF"/><path d="M56,54 L36,54 C34.8954305,54 34,53.1045695 34,52 L34,24 C34,23.4477153 34.4477153,23 35,23 L57,23 C57.5522847,23 58,23.4477153 58,24 L58,52 C58,53.1045695 57.1045695,54 56,54 Z M36,25 L36,52 L56,52 L56,25 L36,25 Z" id="Shape" fill="#428DFF"/><path d="M57,21 L35,21 C34.5956041,20.9999137 34.2310659,20.7562725 34.076322,20.3826546 C33.9215781,20.0090366 34.0070921,19.5789943 34.293,19.293 L35.05,18.536 C37.9540375,15.631723 41.8929014,14.000097 46,14.000097 C50.1070986,14.000097 54.0459625,15.631723 56.95,18.536 L57.707,19.293 C57.9929079,19.5789943 58.0784219,20.0090366 57.923678,20.3826546 C57.7689341,20.7562725 57.4043959,20.9999137 57,21 Z M37.518,19 L54.482,19 C49.534676,15.0001065 42.465324,15.0001065 37.518,19 Z" id="Shape" fill="#428DFF"/><path d="M57,25 L35,25 C33.3431458,25 32.0000001,23.6568542 32.0000001,22 C32.0000001,20.3431458 33.3431458,19 35,19 L57,19 C58.6568542,19 60,20.3431458 60,22 C60,23.6568542 58.6568542,25 57,25 Z M35,21 C34.4477153,21 34,21.4477153 34,22 C34,22.5522847 34.4477153,23 35,23 L57,23 C57.5522847,23 58,22.5522847 58,22 C58,21.4477153 57.5522847,21 57,21 L35,21 Z" id="Shape" fill="#428DFF"/><path d="M3,15 C1.34314575,15 2.02906125e-16,13.6568542 0,12 C-2.02906125e-16,10.3431458 1.34314575,9 3,9 C4.65685425,9 6,10.3431458 6,12 C6,12.7956495 5.68392948,13.5587112 5.12132034,14.1213203 C4.55871121,14.6839295 3.79564947,15 3,15 Z M3,11 C2.44771525,11 2,11.4477153 2,12 C2,12.5522847 2.44771525,13 3,13 C3.55228475,13 4,12.5522847 4,12 C4,11.4477153 3.55228475,11 3,11 Z" id="Shape" fill="#428DFF"/><path d="M8,9 C6.34314575,9 5,7.65685425 5,6 C5,4.34314575 6.34314575,3 8,3 C9.65685425,3 11,4.34314575 11,6 C11,6.79564947 10.6839295,7.55871121 10.1213203,8.12132034 C9.55871121,8.68392948 8.79564947,9 8,9 Z M8,5 C7.44771525,5 7,5.44771525 7,6 C7,6.55228475 7.44771525,7 8,7 C8.55228475,7 9,6.55228475 9,6 C9,5.44771525 8.55228475,5 8,5 Z" id="Shape" fill="#428DFF"/><path d="M12,13 L5,13 C4.44771525,13 4,12.5522847 4,12 C4,11.4477153 4.44771525,11 5,11 L12,11 C12.5522847,11 13,11.4477153 13,12 C13,12.5522847 12.5522847,13 12,13 Z" id="Shape" fill="#428DFF"/><path d="M16,16.14 C15.4477153,16.14 15,15.6922847 15,15.14 L15,9 L13,9 L13,15.14 C13,15.6922847 12.5522847,16.14 12,16.14 C11.4477153,16.14 11,15.6922847 11,15.14 L11,9 C11,7.8954305 11.8954305,7 13,7 L15,7 C16.1045695,7 17,7.8954305 17,9 L17,15.14 C17,15.6922847 16.5522847,16.14 16,16.14 Z" id="Shape" fill="#428DFF"/><path d="M14,9 C13.4477153,9 13,8.55228475 13,8 L13,5 C13,3.34314575 14.3431458,2 16,2 L18,2 C18.5522847,2 19,2.44771525 19,3 C19,3.55228475 18.5522847,4 18,4 L16,4 C15.4477153,4 15,4.44771525 15,5 L15,8 C15,8.55228475 14.5522847,9 14,9 Z" id="Shape" fill="#428DFF"/><path d="M25,6 L19,6 C17.8954305,6 17,5.1045695 17,4 L17,2 C17,0.8954305 17.8954305,2.02906125e-16 19,0 L25,0 C26.1045695,6.76353751e-17 27,0.8954305 27,2 L27,4 C27,5.1045695 26.1045695,6 25,6 Z M19,2 L19,4 L25,4 L25,2 L19,2 Z" id="Shape" fill="#428DFF"/><path d="M41,6 L35,6 C33.8954305,6 33,5.1045695 33,4 L33,2 C33,0.8954305 33.8954305,2.02906125e-16 35,0 L41,0 C42.1045695,6.76353751e-17 43,0.8954305 43,2 L43,4 C43,5.1045695 42.1045695,6 41,6 Z M35,2 L35,4 L41,4 L41,2 L35,2 Z" id="Shape" fill="#428DFF"/><path d="M46,16 C45.4477153,16 45,15.5522847 45,15 L45,5 C45,4.44771525 44.5522847,4 44,4 L42,4 C41.4477153,4 41,3.55228475 41,3 C41,2.44771525 41.4477153,2 42,2 L44,2 C45.6568542,2 47,3.34314575 47,5 L47,15 C47,15.5522847 46.5522847,16 46,16 Z" id="Shape" fill="#428DFF"/><path d="M35,48 L32,48 C30.3431458,48 29,46.6568542 29,45 L29,5 C29,4.44771525 28.5522847,4 28,4 L26,4 C25.4477153,4 25,3.55228475 25,3 C25,2.44771525 25.4477153,2 26,2 L28,2 C29.6568542,2 31,3.34314575 31,5 L31,45 C31,45.5522847 31.4477153,46 32,46 L35,46 C35.5522847,46 36,46.4477153 36,47 C36,47.5522847 35.5522847,48 35,48 Z" id="Shape" fill="#428DFF"/><path d="M8,13 C7.44771525,13 7,12.5522847 7,12 L7,9 C7,8.44771525 7.44771525,8 8,8 C8.55228475,8 9,8.44771525 9,9 L9,12 C9,12.5522847 8.55228475,13 8,13 Z" id="Shape" fill="#428DFF"/><path d="M28,48 L25,48 C24.4477153,48 24,47.5522847 24,47 C24,46.4477153 24.4477153,46 25,46 L28,46 C28.5522847,46 29,45.5522847 29,45 L29,5 C29,3.34314575 30.3431458,2 32,2 L34,2 C34.5522847,2 35,2.44771525 35,3 C35,3.55228475 34.5522847,4 34,4 L32,4 C31.4477153,4 31,4.44771525 31,5 L31,45 C31,46.6568542 29.6568542,48 28,48 Z" id="Shape" fill="#428DFF"/><path d="M20,50 L8,50 C6.8954305,50 6,49.1045695 6,48 L6,39 C6,37.8954305 6.8954305,37 8,37 L20,37 C21.1045695,37 22,37.8954305 22,39 L22,48 C22,49.1045695 21.1045695,50 20,50 Z M8,39 L8,48 L20,48 L20,39 L8,39 Z" id="Shape" fill="#428DFF"/><path d="M14,46 C12.6765812,45.9170034 11.409928,45.4324589 10.369,44.611 C9.47530361,45.420174 8.32300099,45.8852066 7.118,45.923 C6.5712578,45.985091 6.0770776,45.5938006 6.01214644,45.0473884 C5.94721529,44.5009763 6.33593258,44.0047695 6.882,43.937 C8.129,43.789 9,43.4 9,43 C9.0000856,42.5958609 9.24342085,42.2315009 9.61669202,42.0765912 C9.98996318,41.9216815 10.4197839,42.0066778 10.706,42.292 C11.5902269,43.2028074 12.7460937,43.8021457 14,44 C14.5522847,44 15,44.4477153 15,45 C15,45.5522847 14.5522847,46 14,46 Z" id="Shape" fill="#428DFF"/><path d="M14,46 C13.4477153,46 13,45.5522847 13,45 C13,44.4477153 13.4477153,44 14,44 C15.223,44 17,43.6 17,43 C17.0000856,42.5958609 17.2434208,42.2315009 17.616692,42.0765912 C17.9899632,41.9216815 18.4197839,42.0066778 18.706,42.292 C19.4408452,43.0013176 20.3178198,43.5466574 21.279,43.892 C21.8094695,44.0460875 22.1145874,44.6010305 21.9605,45.1315 C21.8064125,45.6619695 21.2514695,45.9670874 20.721,45.813 C19.876884,45.5467533 19.0832619,45.1411543 18.373,44.613 C17.44,45.61 15.625,46 14,46 Z" id="Shape" fill="#428DFF"/><path d="M52,50 L40,50 C38.8954305,50 38,49.1045695 38,48 L38,39 C38,37.8954305 38.8954305,37 40,37 L52,37 C53.1045695,37 54,37.8954305 54,39 L54,48 C54,49.1045695 53.1045695,50 52,50 Z M40,39 L40,48 L52,48 L52,39 L40,39 Z" id="Shape" fill="#428DFF"/><path d="M46,46 C44.6765812,45.9170034 43.409928,45.4324589 42.369,44.611 C41.4753036,45.420174 40.323001,45.8852066 39.118,45.923 C38.5712578,45.985091 38.0770776,45.5938006 38.0121464,45.0473884 C37.9472153,44.5009763 38.3359326,44.0047695 38.882,43.937 C40.129,43.789 41,43.4 41,43 C41.0000856,42.5958609 41.2434208,42.2315009 41.616692,42.0765912 C41.9899632,41.9216815 42.4197839,42.0066778 42.706,42.292 C43.5902269,43.2028074 44.7460937,43.8021457 46,44 C46.5522847,44 47,44.4477153 47,45 C47,45.5522847 46.5522847,46 46,46 Z" id="Shape" fill="#428DFF"/><path d="M46,46 C45.4477153,46 45,45.5522847 45,45 C45,44.4477153 45.4477153,44 46,44 C47.223,44 49,43.6 49,43 C49.0000856,42.5958609 49.2434208,42.2315009 49.616692,42.0765912 C49.9899632,41.9216815 50.4197839,42.0066778 50.706,42.292 C51.4408452,43.0013176 52.3178198,43.5466574 53.279,43.892 C53.8094695,44.0460874 54.1145874,44.6010305 53.9605,45.1315 C53.8064126,45.6619695 53.2514695,45.9670874 52.721,45.813 C51.876884,45.5467533 51.0832619,45.1411543 50.373,44.613 C49.44,45.61 47.625,46 46,46 Z" id="Shape" fill="#428DFF"/><path d="M14,35 C11.790861,35 10,33.209139 10,31 C10,28.790861 11.790861,27 14,27 C16.209139,27 18,28.790861 18,31 C18,33.209139 16.209139,35 14,35 Z M14,29 C12.8954305,29 12,29.8954305 12,31 C12,32.1045695 12.8954305,33 14,33 C15.1045695,33 16,32.1045695 16,31 C16,29.8954305 15.1045695,29 14,29 Z" id="Shape" fill="#428DFF"/><path d="M46,35 C43.790861,35 42,33.209139 42,31 C42,28.790861 43.790861,27 46,27 C48.209139,27 50,28.790861 50,31 C50,33.209139 48.209139,35 46,35 Z M46,29 C44.8954305,29 44,29.8954305 44,31 C44,32.1045695 44.8954305,33 46,33 C47.1045695,33 48,32.1045695 48,31 C48,29.8954305 47.1045695,29 46,29 Z" id="Shape" fill="#428DFF"/><path d="M8,60 L6,60 C4.8954305,60 4,59.1045695 4,58 L4,53 C4,52.4477153 4.44771525,52 5,52 L9,52 C9.55228475,52 10,52.4477153 10,53 L10,58 C10,59.1045695 9.1045695,60 8,60 Z M6,54 L6,58 L8,58 L8,54 L6,54 Z" id="Shape" fill="#428DFF"/><path d="M22,60 L20,60 C18.8954305,60 18,59.1045695 18,58 L18,53 C18,52.4477153 18.4477153,52 19,52 L23,52 C23.5522847,52 24,52.4477153 24,53 L24,58 C24,59.1045695 23.1045695,60 22,60 Z M20,54 L20,58 L22,58 L22,54 L20,54 Z" id="Shape" fill="#428DFF"/><path d="M40,60 L38,60 C36.8954305,60 36,59.1045695 36,58 L36,53 C36,52.4477153 36.4477153,52 37,52 L41,52 C41.5522847,52 42,52.4477153 42,53 L42,58 C42,59.1045695 41.1045695,60 40,60 Z M38,54 L38,58 L40,58 L40,54 L38,54 Z" id="Shape" fill="#428DFF"/><path d="M54,60 L52,60 C50.8954305,60 50,59.1045695 50,58 L50,53 C50,52.4477153 50.4477153,52 51,52 L55,52 C55.5522847,52 56,52.4477153 56,53 L56,58 C56,59.1045695 55.1045695,60 54,60 Z M52,54 L52,58 L54,58 L54,54 L52,54 Z" id="Shape" fill="#428DFF"/></g></g></svg>
