<?xml version="1.0" encoding="UTF-8"?>
<svg xmlns="http://www.w3.org/2000/svg" xmlns:xlink="http://www.w3.org/1999/xlink" width="512" height="512" viewBox="0 0 60 60" version="1.1"><!-- Generator: Sketch 51.3 (57544) - http://www.bohemiancoding.com/sketch --><title>014 - PH Reader</title><desc>Created with Sketch.</desc><defs/><g id="Page-1" stroke="none" stroke-width="1" fill="none" fill-rule="evenodd"><g id="014---PH-Reader" fill-rule="nonzero"><path d="M51,50.88 L49,48.313 L51,46.27 L54.5,44.249 C54.8093932,44.0703717 54.9999909,43.7402565 55,43.383 L55,40 C55,39.4477153 54.5522847,39 54,39 L51,39 L49,37 L51,35 L55,35 C57.209139,35 59,36.790861 59,39 L59,43.958 C59.0006785,45.3877405 58.2381919,46.7091298 57,47.424 L51,50.88 Z" id="Shape" fill="#A4C2F7"/><rect id="Rectangle-path" fill="#CAD9FC" x="35" y="30.81" width="16" height="26.19"/><rect id="Rectangle-path" fill="#E8EDFC" x="35" y="30.81" width="13" height="26.19"/><path d="M28.99,33.5 C28.2959186,34.4065559 27.9451994,35.5295661 28,36.67 C27.9975629,37.2966578 28.0885631,37.9201778 28.27,38.52 C28.6582692,39.6948902 28.6617722,40.9629826 28.28,42.14 C27.9066755,43.351901 27.9066755,44.648099 28.28,45.86 C28.6617722,47.0370174 28.6582692,48.3051098 28.27,49.48 C28.0885631,50.0798222 27.9975629,50.7033422 28,51.33 C27.9451994,52.4704339 28.2959186,53.5934441 28.99,54.5 C29.6098071,55.10833 29.9715081,55.9320055 30,56.8 L30,57 C29.9967052,58.1032019 29.1032019,58.9967052 28,59 L3,59 C1.89679813,58.9967052 1.0032948,58.1032019 1,57 L1,56.8 C1.02849194,55.9320055 1.39019288,55.10833 2.01,54.5 C2.70408136,53.5934441 3.05480065,52.4704339 3,51.33 C3.00243712,50.7033422 2.91143691,50.0798222 2.73,49.48 C2.34173078,48.3051098 2.33822776,47.0370174 2.72,45.86 C2.91054006,45.2585764 3.00503427,44.6308649 3,44 C3.00503427,43.3691351 2.91054006,42.7414236 2.72,42.14 C2.33822776,40.9629826 2.34173078,39.6948902 2.73,38.52 C2.91143691,37.9201778 3.00243712,37.2966578 3,36.67 C3.05480065,35.5295661 2.70408136,34.4065559 2.01,33.5 C1.39019288,32.89167 1.02849194,32.0679945 1,31.2 L1,13 C1.0032948,11.8967981 1.89679813,11.0032948 3,11 L28,11 C29.1032019,11.0032948 29.9967052,11.8967981 30,13 L30,31.2 C29.9715081,32.0679945 29.6098071,32.89167 28.99,33.5 Z" id="Shape" fill="#CAD9FC"/><path d="M25.99,33.5 C25.2959186,34.4065559 24.9451994,35.5295661 25,36.67 C24.9975629,37.2966578 25.0885631,37.9201778 25.27,38.52 C25.6582692,39.6948902 25.6617722,40.9629826 25.28,42.14 C24.9066755,43.351901 24.9066755,44.648099 25.28,45.86 C25.6617722,47.0370174 25.6582692,48.3051098 25.27,49.48 C25.0885631,50.0798222 24.9975629,50.7033422 25,51.33 C24.9451994,52.4704339 25.2959186,53.5934441 25.99,54.5 C26.6098071,55.10833 26.9715081,55.9320055 27,56.8 L27,57 C26.9967052,58.1032019 26.1032019,58.9967052 25,59 L3,59 C1.89679813,58.9967052 1.0032948,58.1032019 1,57 L1,56.8 C1.02849194,55.9320055 1.39019288,55.10833 2.01,54.5 C2.70408136,53.5934441 3.05480065,52.4704339 3,51.33 C3.00243712,50.7033422 2.91143691,50.0798222 2.73,49.48 C2.34173078,48.3051098 2.33822776,47.0370174 2.72,45.86 C2.91054006,45.2585764 3.00503427,44.6308649 3,44 C3.00503427,43.3691351 2.91054006,42.7414236 2.72,42.14 C2.33822776,40.9629826 2.34173078,39.6948902 2.73,38.52 C2.91143691,37.9201778 3.00243712,37.2966578 3,36.67 C3.05480065,35.5295661 2.70408136,34.4065559 2.01,33.5 C1.39019288,32.89167 1.02849194,32.0679945 1,31.2 L1,13 C1.0032948,11.8967981 1.89679813,11.0032948 3,11 L25,11 C26.1032019,11.0032948 26.9967052,11.8967981 27,13 L27,31.2 C26.9715081,32.0679945 26.6098071,32.89167 25.99,33.5 Z" id="Shape" fill="#E8EDFC"/><path d="M51,29 L51,33 L35,33 L35,29 C35,28.4477153 35.4477153,28 36,28 L50,28 C50.5522847,28 51,28.4477153 51,29 Z" id="Shape" fill="#E8EDFC"/><path d="M48,29 L48,33 L35,33 L35,29 C35,28.4477153 35.4477153,28 36,28 L47,28 C47.5522847,28 48,28.4477153 48,29 Z" id="Shape" fill="#FFFFFF"/><rect id="Rectangle-path" fill="#7FACFA" x="34" y="55" width="18" height="4" rx="1"/><rect id="Rectangle-path" fill="#A4C2F7" x="34" y="55" width="15" height="4" rx="1"/><circle id="Oval" fill="#A4C2F7" cx="41" cy="41" r="2"/><rect id="Rectangle-path" fill="#CAD9FC" x="5" y="15" width="21" height="15" rx="2"/><rect id="Rectangle-path" fill="#E8EDFC" x="5" y="15" width="18" height="15" rx="2"/><path d="M25,7 C26.1045695,7 27,7.8954305 27,9 L27,11 L23,11 L23,9 C23,7.8954305 23.8954305,7 25,7 Z" id="Shape" fill="#CAD9FC"/><path d="M43.81,19 L42.19,19 C41.6284037,18.9994966 41.0928948,18.7629001 40.7143673,18.3480415 C40.3358398,17.933183 40.1491753,17.378292 40.2,16.819 L40.837,9.819 C40.9305184,8.78987666 41.7926373,8.00144314 42.826,8 L43.174,8 C44.2081298,8.00040999 45.0714113,8.78911366 45.165,9.819 L45.802,16.819 C45.852856,17.3786385 45.6659278,17.9338535 45.2869582,18.3487795 C44.9079885,18.7637056 44.3719445,19.0000582 43.81,19 Z" id="Shape" fill="#CAD9FC"/><path d="M6,59 C4.89679813,58.9967052 4.0032948,58.1032019 4,57 L4,56.8 C4.02849194,55.9320055 4.39019288,55.10833 5.01,54.5 C5.70408136,53.5934441 6.05480065,52.4704339 6,51.33 C6.00243712,50.7033422 5.91143691,50.0798222 5.73,49.48 C5.34173078,48.3051098 5.33822776,47.0370174 5.72,45.86 C5.91054006,45.2585764 6.00503427,44.6308649 6,44 C6.00503427,43.3691351 5.91054006,42.7414236 5.72,42.14 C5.33822776,40.9629826 5.34173078,39.6948902 5.73,38.52 C5.91143691,37.9201778 6.00243712,37.2966578 6,36.67 C6.05480065,35.5295661 5.70408136,34.4065559 5.01,33.5 C4.39019288,32.89167 4.02849194,32.0679945 4,31.2 L4,13 C4.0032948,11.8967981 4.89679813,11.0032948 6,11 L3,11 C1.89679813,11.0032948 1.0032948,11.8967981 1,13 L1,31.2 C1.02849194,32.0679945 1.39019288,32.89167 2.01,33.5 C2.70408136,34.4065559 3.05480065,35.5295661 3,36.67 C3.00243712,37.2966578 2.91143691,37.9201778 2.73,38.52 C2.34173078,39.6948902 2.33822776,40.9629826 2.72,42.14 C2.91054006,42.7414236 3.00503427,43.3691351 3,44 C3.00503427,44.6308649 2.91054006,45.2585764 2.72,45.86 C2.33822776,47.0370174 2.34173078,48.3051098 2.73,49.48 C2.91143691,50.0798222 3.00243712,50.7033422 3,51.33 C3.05480065,52.4704339 2.70408136,53.5934441 2.01,54.5 C1.39019288,55.10833 1.02849194,55.9320055 1,56.8 L1,57 C1.0032948,58.1032019 1.89679813,58.9967052 3,59 L6,59 Z" id="Shape" fill="#FFFFFF"/><polygon id="Shape" fill="#FFFFFF" points="2 13 2 26 2 31.204 0 31.204 0 26 0 13"/><path d="M1,18 C1.55228475,18 2,17.5522847 2,17 L2,13 L0,13 L0,17 C6.76353751e-17,17.5522847 0.44771525,18 1,18 Z" id="Shape" fill="#428DFF"/><path d="M0,31.2 L2,31.2 L2,25 C2,24.4477153 1.55228475,24 1,24 C0.44771525,24 6.76353751e-17,24.4477153 0,25 L0,31.2 Z" id="Shape" fill="#428DFF"/><path d="M2,21 C1.99611961,20.7352731 1.89256504,20.481743 1.71,20.29 L1.56,20.17 C1.50427287,20.1321227 1.44373808,20.1018554 1.38,20.08 C1.32333758,20.0511123 1.26266255,20.0308873 1.2,20.02 C1.13385548,20.0088692 1.06703885,20.0021875 1,20 C0.735273141,20.0038804 0.481742984,20.107435 0.29,20.29 C0.199603156,20.3856071 0.12832305,20.4976187 0.08,20.62 C-0.0708765757,20.9929737 0.0113519394,21.4197788 0.29,21.71 C0.385607086,21.8003968 0.497618681,21.871677 0.62,21.92 C0.740222313,21.971241 0.869322743,21.99842 1,22 C1.26472686,21.9961196 1.51825702,21.892565 1.71,21.71 C1.89256504,21.518257 1.99611961,21.2647269 2,21 Z" id="Shape" fill="#428DFF"/><path d="M28,60 L3,60 C1.34314575,60 2.02906125e-16,58.6568542 0,57 L0,56.8 C0.0282461816,55.6810414 0.484585235,54.6155344 1.275,53.823 C1.80015862,53.1020538 2.05663198,52.2201392 2,51.33 C2.0038024,50.8078062 1.92758502,50.2881116 1.774,49.789 C1.32964151,48.4116185 1.32964151,46.9293815 1.774,45.552 C1.92828147,45.0492735 2.00450189,44.5258483 2,44 C2.00385414,43.4740483 1.92695887,42.9506209 1.772,42.448 C1.32764151,41.0706185 1.32764151,39.5883815 1.772,38.211 C1.92626251,37.7119938 2.00315472,37.192297 2,36.67 C2.05522999,35.7817194 1.79922085,34.9019532 1.276,34.182 C0.484959835,33.3897995 0.028208253,32.3241651 4.85056439e-16,31.205 C3.76453835e-16,30.6527153 0.44771525,30.205 1,30.205 C1.55228475,30.205 2,30.6527153 2,31.205 C2.03800626,31.8159404 2.30133196,32.3910522 2.739,32.819 C3.61108529,33.9080002 4.05906505,35.276097 4,36.67 C4.00349752,37.3995898 3.89489768,38.1253875 3.678,38.822 C3.36133973,39.8017147 3.36133973,40.8562853 3.678,41.836 C3.89510909,42.5366808 4.00369963,43.2664632 4,44 C4.00337586,44.7335884 3.89444791,45.4633719 3.677,46.164 C3.36033973,47.1437147 3.36033973,48.1982853 3.677,49.178 C3.89423655,49.8745596 4.00317383,50.6003584 4,51.33 C4.05906505,52.723903 3.61108529,54.0919998 2.739,55.181 C2.30020929,55.6102034 2.03679016,56.1873016 2,56.8 L2,57 C2,57.5522847 2.44771525,58 3,58 L28,58 C28.5522847,58 29,57.5522847 29,57 L29,56.8 C28.9619937,56.1890596 28.698668,55.6139478 28.261,55.186 C27.3877609,54.0956848 26.9397119,52.7255999 27,51.33 C26.9965025,50.6004102 27.1051023,49.8746125 27.322,49.178 C27.6386603,48.1982853 27.6386603,47.1437147 27.322,46.164 C26.8913598,44.7534702 26.8913598,43.2465298 27.322,41.836 C27.6386603,40.8562853 27.6386603,39.8017147 27.322,38.822 C27.1051023,38.1253875 26.9965025,37.3995898 27,36.67 C26.940935,35.276097 27.3889147,33.9080002 28.261,32.819 C28.698668,32.3910522 28.9619937,31.8159404 29,31.205 L29,13 C29,12.4477153 28.5522847,12 28,12 L3,12 C2.44771525,12 2,12.4477153 2,13 C2,13.5522847 1.55228475,14 1,14 C0.44771525,14 6.76353751e-17,13.5522847 0,13 C-2.02906125e-16,11.3431458 1.34314575,10 3,10 L28,10 C29.6568542,10 31,11.3431458 31,13 L31,31.2 C30.9717538,32.3189586 30.5154148,33.3844656 29.725,34.177 C29.1998414,34.8979462 28.943368,35.7798608 29,36.67 C28.9961976,37.1921938 29.072415,37.7118884 29.226,38.211 C29.6703585,39.5883815 29.6703585,41.0706185 29.226,42.448 C28.9230203,43.4591245 28.9230203,44.5368755 29.226,45.548 C29.6703585,46.9253815 29.6703585,48.4076185 29.226,49.785 C29.0720101,50.2853919 28.9957882,50.8064666 29,51.33 C28.94477,52.2182806 29.2007792,53.0980468 29.724,53.818 C30.5162166,54.6114435 30.9730642,55.6790923 31,56.8 L31,57 C31,58.6568542 29.6568542,60 28,60 Z" id="Shape" fill="#428DFF"/><path d="M51,56 L35,56 C34.4477153,56 34,55.5522847 34,55 L34,29 C34,27.8954305 34.8954305,27 36,27 L50,27 C51.1045695,27 52,27.8954305 52,29 L52,55 C52,55.5522847 51.5522847,56 51,56 Z M36,54 L50,54 L50,29 L36,29 L36,54 Z" id="Shape" fill="#428DFF"/><path d="M51,60 L35,60 C33.8954305,60 33,59.1045695 33,58 L33,56 C33,54.8954305 33.8954305,54 35,54 L51,54 C52.1045695,54 53,54.8954305 53,56 L53,58 C53,59.1045695 52.1045695,60 51,60 Z M35,56 L35,58 L51,58 L51,56 L35,56 Z" id="Shape" fill="#428DFF"/><path d="M51,51.88 C50.4477153,51.88 50,51.4322847 50,50.88 L50,46.27 C50.0000091,45.9127435 50.1906068,45.5826283 50.5,45.404 L54,43.383 L54,40 L51,40 C50.4477153,40 50,39.5522847 50,39 L50,35 C50,34.4477153 50.4477153,34 51,34 L55,34 C57.7600532,34.0033061 59.9966939,36.2399468 60,39 L60,43.958 C59.9979408,45.7445274 59.0456342,47.3950651 57.5,48.291 L51.5,51.746 C51.3479833,51.8337772 51.175539,51.8799923 51,51.88 Z M52,46.847 L52,49.147 L56.5,46.556 C57.4274422,46.0184032 57.9988357,45.0279879 58,43.956 L58,39 C58,37.3431458 56.6568542,36 55,36 L52,36 L52,38 L54,38 C55.1045695,38 56,38.8954305 56,40 L56,43.383 C55.9987492,44.0971821 55.6178836,44.7568414 55,45.115 L52,46.847 Z" id="Shape" fill="#428DFF"/><path d="M51,34 L35,34 C34.4477153,34 34,33.5522847 34,33 C34,32.4477153 34.4477153,32 35,32 L51,32 C51.5522847,32 52,32.4477153 52,33 C52,33.5522847 51.5522847,34 51,34 Z" id="Shape" fill="#428DFF"/><path d="M41,44 C39.3431458,44 38,42.6568542 38,41 C38,39.3431458 39.3431458,38 41,38 C42.6568542,38 44,39.3431458 44,41 C44,42.6568542 42.6568542,44 41,44 Z M41,40 C40.4477153,40 40,40.4477153 40,41 C40,41.5522847 40.4477153,42 41,42 C41.5522847,42 42,41.5522847 42,41 C42,40.4477153 41.5522847,40 41,40 Z" id="Shape" fill="#428DFF"/><path d="M43,36 C42.4477153,36 42,35.5522847 42,35 L42,19 C42,18.4477153 42.4477153,18 43,18 C43.5522847,18 44,18.4477153 44,19 L44,35 C44,35.5522847 43.5522847,36 43,36 Z" id="Shape" fill="#428DFF"/><path d="M43.81,20 L42.19,20 C41.3468305,20.0006367 40.5423162,19.6464198 39.9734364,19.0240767 C39.4045565,18.4017335 39.1238334,17.5687225 39.2,16.729 L39.836,9.729 C39.970336,8.17930194 41.2715104,6.99210538 42.827,7 L43.173,7 C44.7273706,6.99310624 46.0272359,8.17946708 46.162,9.728 L46.798,16.728 C46.8744331,17.56754 46.594108,18.400498 46.0256367,19.0230007 C45.4571653,19.6455035 44.6530121,20.0001001 43.81,20 Z M42.827,9 C42.3069272,8.99500217 41.8709278,9.39176161 41.827,9.91 L41.19,16.91 C41.1643569,17.1905963 41.2582806,17.4689901 41.4486679,17.6767026 C41.6390552,17.8844152 41.9082368,18.0021693 42.19,18.001 L43.81,18.001 C44.0917632,18.0021693 44.3609448,17.8844152 44.5513321,17.6767026 C44.7417194,17.4689901 44.8356431,17.1905963 44.81,16.91 L44.173,9.91 C44.1285795,9.39215784 43.6927194,8.99596101 43.173,9.001 L42.827,9 Z" id="Shape" fill="#428DFF"/><path d="M43,9 C42.4477153,9 42,8.55228475 42,8 C41.9966926,4.68766243 39.3123376,2.00330738 36,2 L32,2 C29.0231544,2.00827178 26.5009146,4.19449651 26.07,7.14 C26.0256027,7.49865687 25.7911455,7.80545358 25.4567362,7.9424804 C25.122327,8.07950721 24.7400035,8.02544126 24.4567023,7.80106145 C24.1734011,7.57668165 24.0332069,7.21690394 24.09,6.86 C24.6640166,2.93000691 28.0283266,0.012286754 32,-8.8817842e-16 L36,-8.8817842e-16 C40.4162219,0.00495988455 43.9950401,3.58377808 44,8 C44,8.26521649 43.8946432,8.5195704 43.7071068,8.70710678 C43.5195704,8.89464316 43.2652165,9 43,9 Z" id="Shape" fill="#428DFF"/><path d="M24,31 L7,31 C5.34314575,31 4,29.6568542 4,28 L4,17 C4,15.3431458 5.34314575,14 7,14 L24,14 C25.6568542,14 27,15.3431458 27,17 L27,28 C27,29.6568542 25.6568542,31 24,31 Z M7,16 C6.44771525,16 6,16.4477153 6,17 L6,28 C6,28.5522847 6.44771525,29 7,29 L24,29 C24.5522847,29 25,28.5522847 25,28 L25,17 C25,16.4477153 24.5522847,16 24,16 L7,16 Z" id="Shape" fill="#428DFF"/><path d="M8,53 C7.44771525,53 7,52.5522847 7,52 L7,42 C7,41.4477153 7.44771525,41 8,41 C8.55228475,41 9,41.4477153 9,42 L9,52 C9,52.5522847 8.55228475,53 8,53 Z" id="Shape" fill="#428DFF"/><path d="M11.5,48 L8,48 C7.44771525,48 7,47.5522847 7,47 L7,42 C7,41.4477153 7.44771525,41 8,41 L11.5,41 C13.4329966,41 15,42.5670034 15,44.5 C15,46.4329966 13.4329966,48 11.5,48 Z M9,46 L11.5,46 C12.3284271,46 13,45.3284271 13,44.5 C13,43.6715729 12.3284271,43 11.5,43 L9,43 L9,46 Z" id="Shape" fill="#428DFF"/><path d="M17,53 C16.4477153,53 16,52.5522847 16,52 L16,42 C16,41.4477153 16.4477153,41 17,41 C17.5522847,41 18,41.4477153 18,42 L18,52 C18,52.5522847 17.5522847,53 17,53 Z" id="Shape" fill="#428DFF"/><path d="M23,53 C22.4477153,53 22,52.5522847 22,52 L22,42 C22,41.4477153 22.4477153,41 23,41 C23.5522847,41 24,41.4477153 24,42 L24,52 C24,52.5522847 23.5522847,53 23,53 Z" id="Shape" fill="#428DFF"/><path d="M23,48 L17,48 C16.4477153,48 16,47.5522847 16,47 C16,46.4477153 16.4477153,46 17,46 L23,46 C23.5522847,46 24,46.4477153 24,47 C24,47.5522847 23.5522847,48 23,48 Z" id="Shape" fill="#428DFF"/><path d="M13,27 L10,27 C8.8954305,27 8,26.1045695 8,25 L8,20 C8,18.8954305 8.8954305,18 10,18 L13,18 C14.1045695,18 15,18.8954305 15,20 L15,25 C15,26.1045695 14.1045695,27 13,27 Z M10,20 L10,25 L13,25 L13,20 L10,20 Z" id="Shape" fill="#428DFF"/><path d="M22,27 L19,27 C17.8954305,27 17,26.1045695 17,25 L17,20 C17,18.8954305 17.8954305,18 19,18 L22,18 C23.1045695,18 24,18.8954305 24,20 L24,25 C24,26.1045695 23.1045695,27 22,27 Z M19,20 L19,25 L22,25 L22,20 L19,20 Z" id="Shape" fill="#428DFF"/><path d="M9.249,26.66 C8.87497663,26.6593957 8.53255627,26.4501182 8.36142586,26.11754 C8.19029545,25.7849619 8.21906567,25.3846857 8.436,25.08 L12.936,18.76 C13.1381838,18.4563248 13.4896992,18.2868534 13.8532089,18.3177985 C14.2167187,18.3487436 14.5345298,18.5751939 14.6824734,18.9086749 C14.8304169,19.242156 14.7850126,19.6297409 14.564,19.92 L10.064,26.24 C9.87629856,26.5036288 9.57262318,26.6601241 9.249,26.66 Z" id="Shape" fill="#428DFF"/><path d="M18.249,26.66 C17.8749766,26.6593957 17.5325563,26.4501182 17.3614259,26.11754 C17.1902955,25.7849619 17.2190657,25.3846857 17.436,25.08 L21.936,18.76 C22.1381838,18.4563248 22.4896992,18.2868534 22.8532089,18.3177985 C23.2167187,18.3487436 23.5345298,18.5751939 23.6824734,18.9086749 C23.8304169,19.242156 23.7850126,19.6297409 23.564,19.92 L19.064,26.24 C18.8762986,26.5036288 18.5726232,26.6601241 18.249,26.66 Z" id="Shape" fill="#428DFF"/><path d="M27,12 L23,12 C22.4477153,12 22,11.5522847 22,11 L22,9 C22,7.34314579 23.3431458,6.00000009 25,6.00000009 C26.6568542,6.00000009 28,7.34314579 28,9 L28,11 C28,11.5522847 27.5522847,12 27,12 Z M24,10 L26,10 L26,9 C26,8.44771525 25.5522847,8 25,8 C24.4477153,8 24,8.44771525 24,9 L24,10 Z" id="Shape" fill="#428DFF"/><path d="M10,35 L7,35 C6.44771525,35 6,34.5522847 6,34 C6,33.4477153 6.44771525,33 7,33 L10,33 C10.5522847,33 11,33.4477153 11,34 C11,34.5522847 10.5522847,35 10,35 Z" id="Shape" fill="#428DFF"/><path d="M17,35 L14,35 C13.4477153,35 13,34.5522847 13,34 C13,33.4477153 13.4477153,33 14,33 L17,33 C17.5522847,33 18,33.4477153 18,34 C18,34.5522847 17.5522847,35 17,35 Z" id="Shape" fill="#428DFF"/><path d="M24,35 L21,35 C20.4477153,35 20,34.5522847 20,34 C20,33.4477153 20.4477153,33 21,33 L24,33 C24.5522847,33 25,33.4477153 25,34 C25,34.5522847 24.5522847,35 24,35 Z" id="Shape" fill="#428DFF"/><circle id="Oval" fill="#428DFF" cx="46" cy="51" r="1"/><circle id="Oval" fill="#428DFF" cx="41" cy="48" r="1"/><circle id="Oval" fill="#428DFF" cx="47" cy="38" r="1"/></g></g></svg>
