<?xml version="1.0" encoding="UTF-8"?>
<svg xmlns="http://www.w3.org/2000/svg" xmlns:xlink="http://www.w3.org/1999/xlink" width="512" height="512" viewBox="0 0 58 60" version="1.1"><!-- Generator: Sketch 51.3 (57544) - http://www.bohemiancoding.com/sketch --><title>015 - Still</title><desc>Created with Sketch.</desc><defs><linearGradient x1="12.7034029%" y1="18.045512%" x2="87.1520428%" y2="81.954488%" id="linearGradient-1"><stop stop-color="#D3DFF2" offset="0%"/><stop stop-color="#D3DFF2" offset="17.2%"/><stop stop-color="#D3DFF2" offset="20%"/><stop stop-color="#DAE2F2" offset="20%"/><stop stop-color="#EBEAF2" offset="20.1%"/><stop stop-color="#F6EFF2" offset="20.1%"/><stop stop-color="#FDF2F2" offset="20.2%"/><stop stop-color="#FFF3F2" offset="20.5%"/><stop stop-color="#FFF3F2" offset="25.2%"/><stop stop-color="#FFF3F2" offset="26%"/><stop stop-color="#D3DFF2" offset="26%"/><stop stop-color="#D3DFF2" offset="39.7%"/><stop stop-color="#D3DFF2" offset="42%"/><stop stop-color="#DAE2F2" offset="42%"/><stop stop-color="#EBEAF2" offset="42.1%"/><stop stop-color="#F6EFF2" offset="42.1%"/><stop stop-color="#FDF2F2" offset="42.2%"/><stop stop-color="#FFF3F2" offset="42.5%"/><stop stop-color="#FFF3F2" offset="48.9%"/><stop stop-color="#FFF3F2" offset="50%"/><stop stop-color="#F8F0F2" offset="50%"/><stop stop-color="#E7E8F2" offset="50%"/><stop stop-color="#DCE3F2" offset="50%"/><stop stop-color="#D5E0F2" offset="50%"/><stop stop-color="#D3DFF2" offset="50.1%"/><stop stop-color="#D3DFF2" offset="70.6%"/><stop stop-color="#D3DFF2" offset="74%"/><stop stop-color="#FFF3F2" offset="74.1%"/><stop stop-color="#FFF3F2" offset="83.5%"/><stop stop-color="#FFF3F2" offset="85%"/><stop stop-color="#D3DFF2" offset="85.1%"/></linearGradient></defs><g id="Page-1" stroke="none" stroke-width="1" fill="none" fill-rule="evenodd"><g id="015---Still" fill-rule="nonzero"><path d="M48,12 L56,12 C55.7990326,12.5347378 55.5229266,13.0381261 55.18,13.495 C54.9673895,13.7789879 54.7120212,14.028284 54.423,14.234 C53.8772752,14.5700106 53.2858187,14.8253204 52.667,14.992 C52.054247,15.2155979 51.4756737,15.5235645 50.948,15.907 C49.806223,16.7736834 48.8109055,17.8179564 48,19 L10,19 C9.18909448,17.8179564 8.19377702,16.7736834 7.052,15.907 C6.52432631,15.5235645 5.945753,15.2155979 5.333,14.992 C4.71418133,14.8253204 4.12272478,14.5700106 3.577,14.234 C3.28835372,14.0298003 3.03300568,13.7822105 2.82,13.5 C2.47665816,13.0415822 2.20053779,12.536484 2,12 L48,12 Z" id="Shape" fill="#CAD9FC"/><path d="M57,13 L1,13 C0.44771525,13 0,12.5522847 0,12 C-1.11022302e-16,11.4477153 0.44771525,11 1,11 L57,11 C57.5522847,11 58,11.4477153 58,12 C58,12.5522847 57.5522847,13 57,13 Z" id="Shape" fill="#BDC3C7"/><path d="M48,7 L48,51 C48,55.42 39.49,59 29,59 C28.5,59 27.99,58.99 27.5,58.97 C17.71,58.65 10,55.21 10,51 L10,7 L48,7 Z" id="Shape" fill="#CAD9FC"/><path d="M45,7 L45,51 C45,55.21 37.29,58.65 27.5,58.97 C17.71,58.65 10,55.21 10,51 L10,7 L45,7 Z" id="Shape" fill="#E8EDFC"/><path d="M31,44.8 L31,49.77 L27,49.77 L27,44.8 L26.07,25.44 L26.75,19.98 C26.8936332,18.8467441 27.857678,17.9971736 29,17.9971736 C30.142322,17.9971736 31.1063668,18.8467441 31.25,19.98 L31.93,25.44 L31,44.8 Z" id="Shape" fill="#CAD9FC"/><path d="M32,52 C32,53.6568542 30.6568542,55 29,55 C28.6584234,55.0021256 28.3193958,54.9411006 28,54.82 C26.8019194,54.4003329 25.9997976,53.2694557 25.9997976,52 C25.9997976,50.7305443 26.8019194,49.5996671 28,49.18 C28.3193958,49.0588994 28.6584234,48.9978744 29,49 C30.6568542,49 32,50.3431458 32,52 Z" id="Shape" fill="#E8EDFC"/><ellipse id="Oval" fill="#FFFFFF" cx="28" cy="52" rx="2" ry="2.82"/><path d="M49.59,9 L8.41,9 C8.00555592,8.99830423 7.64195448,8.75315276 7.48873209,8.37885236 C7.33550971,8.00455196 7.42283863,7.57480911 7.71,7.29 L10,5 L48,5 L50.29,7.29 C50.5771614,7.57480911 50.6644903,8.00455196 50.5112679,8.37885236 C50.3580455,8.75315276 49.9944441,8.99830423 49.59,9 Z" id="Shape" fill="#CAD9FC"/><path d="M46.59,9 L8.41,9 C8.00555592,8.99830423 7.64195448,8.75315276 7.48873209,8.37885236 C7.33550971,8.00455196 7.42283863,7.57480911 7.71,7.29 L10,5 L45,5 L47.29,7.29 C47.5771614,7.57480911 47.6644903,8.00455196 47.5112679,8.37885236 C47.3580455,8.75315276 46.9944441,8.99830423 46.59,9 Z" id="Shape" fill="#E8EDFC"/><path d="M39,35 C39,40.5228475 34.5228475,45 29,45 C28.5042123,45.0006116 28.009213,44.9604765 27.52,44.88 C27.51,44.89 27.5,44.89 27.48,44.88 C22.6125977,44.1190798 19.0245388,39.9265206 19.0245388,35 C19.0245388,30.0734794 22.6125977,25.8809202 27.48,25.12 C27.5,25.11 27.51,25.11 27.52,25.12 C28.009213,25.0395235 28.5042123,24.9993884 29,25 C34.5228475,25 39,29.4771525 39,35 Z" id="Shape" fill="#A4C2F7"/><path d="M36,35 C35.9981224,39.9344879 32.397152,44.1299581 27.52,44.88 C27.51,44.89 27.5,44.89 27.48,44.88 C22.6125977,44.1190798 19.0245388,39.9265206 19.0245388,35 C19.0245388,30.0734794 22.6125977,25.8809202 27.48,25.12 C27.5,25.11 27.51,25.11 27.52,25.12 C32.397152,25.8700419 35.9981224,30.0655121 36,35 Z" id="Shape" fill="url(#linearGradient-1)"/><path d="M8.41,9 L10,9 L10,11 L13,11 L13,9 L11.41,9 C11.0055559,8.99830423 10.6419545,8.75315276 10.4887321,8.37885236 C10.3355097,8.00455196 10.4228386,7.57480911 10.71,7.29 L13,5 L10,5 L7.71,7.29 C7.42283863,7.57480911 7.33550971,8.00455196 7.48873209,8.37885236 C7.64195448,8.75315276 8.00555592,8.99830423 8.41,9 Z" id="Shape" fill="#FFFFFF"/><path d="M1,13 L2.5,13 C2.6,13.17 2.707,13.343 2.821,13.495 C3.0336105,13.7789879 3.28897876,14.028284 3.578,14.234 C4.12372478,14.5700106 4.71518133,14.8253204 5.334,14.992 C5.946753,15.2155979 6.52532631,15.5235645 7.053,15.907 C8.19442084,16.7737648 9.18939654,17.8180335 10,19 L10,51 C10,55.21 17.71,58.65 27.5,58.97 C27.99,58.99 28.5,59 29,59 C29.5,59 29.987,58.984 30.475,58.969 C20.7,58.644 13,55.206 13,51 L13,19 C12.1890945,17.8179564 11.193777,16.7736834 10.052,15.907 C9.505,15.516 9.929,15.207 9.333,14.992 C8.71418133,14.8253204 8.12272478,14.5700106 7.577,14.234 C7.28835372,14.0298003 7.03300568,13.7822105 6.82,13.5 C6.706,13.343 6.6,13.17 6.5,13 L4,13 C3.44771525,13 3,12.5522847 3,12 C3,11.4477153 3.44771525,11 4,11 L1,11 C0.44771525,11 0,11.4477153 0,12 C-1.11022302e-16,12.5522847 0.44771525,13 1,13 Z" id="Shape" fill="#FFFFFF"/><polygon id="Shape" fill="#FFFFFF" points="9 51 9 38 9 9 11 9 11 38 11 51"/><path d="M10,46 C9.44771525,46 9,46.4477153 9,47 L9,51 L11,51 L11,47 C11,46.4477153 10.5522847,46 10,46 Z" id="Shape" fill="#428DFF"/><path d="M11,9 L9,9 L9,39 C9,39.5522847 9.44771525,40 10,40 C10.5522847,40 11,39.5522847 11,39 L11,9 Z" id="Shape" fill="#428DFF"/><path d="M9,43 C9.00388039,43.2647269 9.10743496,43.518257 9.29,43.71 L9.44,43.83 C9.49572713,43.8678773 9.55626192,43.8981446 9.62,43.92 C9.67666242,43.9488877 9.73733745,43.9691127 9.8,43.98 C9.86614452,43.9911308 9.93296115,43.9978125 10,44 C10.2647269,43.9961196 10.518257,43.892565 10.71,43.71 C10.8003968,43.6143929 10.871677,43.5023813 10.92,43.38 C11.0708766,43.0070263 10.9886481,42.5802212 10.71,42.29 C10.6143929,42.1996032 10.5023813,42.128323 10.38,42.08 C10.2597777,42.028759 10.1306773,42.00158 10,42 C9.73396466,41.9972989 9.47803835,42.1017882 9.28991326,42.2899133 C9.10178817,42.4780384 8.99729892,42.7339647 9,43 Z" id="Shape" fill="#428DFF"/><path d="M48,52 C47.4477153,52 47,51.5522847 47,51 L47,10 L10,10 C9.44771525,10 9,9.55228475 9,9 C9,8.44771525 9.44771525,8 10,8 L48,8 C48.5522847,8 49,8.44771525 49,9 L49,51 C49,51.5522847 48.5522847,52 48,52 Z" id="Shape" fill="#428DFF"/><path d="M29,60 C17.785,60 9,56.047 9,51 C9,50.4477153 9.44771525,50 10,50 C10.5522847,50 11,50.4477153 11,51 C11,55.125 20.486,58 29,58 C37.514,58 47,55.125 47,51 C47,50.4477153 47.4477153,50 48,50 C48.5522847,50 49,50.4477153 49,51 C49,56.047 40.215,60 29,60 Z" id="Shape" fill="#428DFF"/><path d="M29,46 C22.9248678,46 18,41.0751322 18,35 C18,28.9248678 22.9248678,24 29,24 C35.0751322,24 40,28.9248678 40,35 C39.9928365,41.0721626 35.0721626,45.9928365 29,46 Z M29,26 C24.0294373,26 20,30.0294373 20,35 C20,39.9705627 24.0294373,44 29,44 C33.9705627,44 38,39.9705627 38,35 C37.993939,30.0319499 33.9680501,26.006061 29,26 Z" id="Shape" fill="#428DFF"/><path d="M35,36 C34.4477153,36 34,35.5522847 34,35 C34,32.2385763 31.7614237,30 29,30 C26.2385763,30 24,32.2385763 24,35 C24,35.5522847 23.5522847,36 23,36 C22.4477153,36 22,35.5522847 22,35 C22,31.1340068 25.1340068,28 29,28 C32.8659932,28 36,31.1340068 36,35 C36,35.5522847 35.5522847,36 35,36 Z" id="Shape" fill="#7FACFA"/><path d="M31.929,26.44 C31.4248156,26.4392907 31.0000142,26.0633566 30.938,25.563 L30.258,20.104 C30.1743873,19.4731099 29.6364066,19.0017243 29,19.0017243 C28.3635934,19.0017243 27.8256127,19.4731099 27.742,20.104 L27.062,25.564 C27.0265398,25.9257679 26.7975616,26.2398023 26.4639635,26.384183 C26.1303655,26.5285636 25.7446931,26.480549 25.4566792,26.2587801 C25.1686653,26.0370113 25.0236753,25.6764193 25.078,25.317 L25.758,19.857 C25.9651915,18.2242948 27.354201,17.0004122 29,17.0004122 C30.645799,17.0004122 32.0348085,18.2242948 32.242,19.857 L32.922,25.316 C32.990322,25.8638221 32.6017838,26.3633712 32.054,26.432 C32.0125749,26.4376189 31.9708034,26.4402923 31.929,26.44 Z" id="Shape" fill="#428DFF"/><path d="M27,50.77 C26.4477153,50.77 26,50.3222847 26,49.77 L26,44.8 C26,44.2477153 26.4477153,43.8 27,43.8 C27.5522847,43.8 28,44.2477153 28,44.8 L28,49.77 C28,50.3222847 27.5522847,50.77 27,50.77 Z" id="Shape" fill="#428DFF"/><path d="M31,50.77 C30.4477153,50.77 30,50.3222847 30,49.77 L30,44.8 C30,44.2477153 30.4477153,43.8 31,43.8 C31.5522847,43.8 32,44.2477153 32,44.8 L32,49.77 C32,50.3222847 31.5522847,50.77 31,50.77 Z" id="Shape" fill="#428DFF"/><path d="M29,56 C26.790861,56 25,54.209139 25,52 C25,49.790861 26.790861,48 29,48 C31.209139,48 33,49.790861 33,52 C33,54.209139 31.209139,56 29,56 Z M29,50 C27.8954305,50 27,50.8954305 27,52 C27,53.1045695 27.8954305,54 29,54 C30.1045695,54 31,53.1045695 31,52 C31,50.8954305 30.1045695,50 29,50 Z" id="Shape" fill="#428DFF"/><path d="M29,38 C28.4477153,38 28,37.5522847 28,37 L28,33 C28,32.4477153 28.4477153,32 29,32 C29.5522847,32 30,32.4477153 30,33 L30,37 C30,37.5522847 29.5522847,38 29,38 Z" id="Shape" fill="#A4C2F7"/><path d="M10,20 C9.67834161,20.0003108 9.37617009,19.8458759 9.188,19.585 C8.44214258,18.4899062 7.52432698,17.5224515 6.47,16.72 C6.01865532,16.391362 5.52395142,16.1268468 5,15.934 L4.65,15.814 C4.06371589,15.6459494 3.50708388,15.3878746 3,15.049 C2.62598332,14.7855385 2.29534362,14.4653578 2.02,14.1 C1.62042308,13.5655744 1.29824776,12.9774445 1.063,12.353 C0.937957035,12.0182421 1.00100376,11.6422035 1.2283911,11.3665342 C1.45577843,11.0908649 1.81296082,10.9574456 2.16539111,11.0165342 C2.5178214,11.0756227 2.81195705,11.3182421 2.937,11.653 C3.10509242,12.0988248 3.33537118,12.5186459 3.621,12.9 C3.77081446,13.1010154 3.95136087,13.2771747 4.156,13.422 C4.50418742,13.6440937 4.88375328,13.8126398 5.282,13.922 L5.67,14.055 C6.36928621,14.3105112 7.02987705,14.6615027 7.633,15.098 C8.86532886,16.0258285 9.93865665,17.1477904 10.811,18.42 C11.0277288,18.7243929 11.0566695,19.1242235 10.8860356,19.4566546 C10.7154016,19.7890858 10.3736637,19.9986504 10,20 Z" id="Shape" fill="#428DFF"/><path d="M10,13 L1,13 C0.44771525,13 0,12.5522847 0,12 C-1.11022302e-16,11.4477153 0.44771525,11 1,11 L10,11 C10.5522847,11 11,11.4477153 11,12 C11,12.5522847 10.5522847,13 10,13 Z" id="Shape" fill="#428DFF"/><path d="M48,20 C47.6247656,19.9996124 47.2813278,19.7891935 47.1105729,19.4550621 C46.9398181,19.1209307 46.9704875,18.7193276 47.19,18.415 C48.0623572,17.1428016 49.135683,16.0208418 50.368,15.093 C50.9713444,14.6562796 51.6322972,14.3052746 52.332,14.05 L52.719,13.917 C53.1172467,13.8076398 53.4968126,13.6390937 53.845,13.417 C54.050067,13.2716033 54.2312381,13.0951554 54.382,12.894 C54.6663519,12.5134091 54.8956094,12.0946187 55.063,11.65 C55.2562997,11.1319569 55.8329569,10.8687004 56.351,11.062 C56.8690431,11.2552997 57.1322996,11.8319569 56.939,12.35 C56.7035097,12.9737128 56.3813454,13.5611492 55.982,14.095 C55.7066992,14.4623952 55.3761069,14.7848913 55.002,15.051 C54.4950193,15.3891772 53.9387752,15.6468912 53.353,15.815 L53.005,15.935 C52.4791812,16.1275845 51.982746,16.3924621 51.53,16.722 C50.475683,17.5240715 49.5578601,18.4911961 48.812,19.586 C48.6236141,19.8464978 48.3214779,20.0005426 48,20 Z" id="Shape" fill="#428DFF"/><path d="M57,13 L48,13 C47.4477153,13 47,12.5522847 47,12 C47,11.4477153 47.4477153,11 48,11 L57,11 C57.5522847,11 58,11.4477153 58,12 C58,12.5522847 57.5522847,13 57,13 Z" id="Shape" fill="#428DFF"/><path d="M15,14 L14,14 C13.4477153,14 13,13.5522847 13,13 C13,12.4477153 13.4477153,12 14,12 L15,12 C15.5522847,12 16,12.4477153 16,13 C16,13.5522847 15.5522847,14 15,14 Z" id="Shape" fill="#428DFF"/><path d="M40,14 L19,14 C18.4477153,14 18,13.5522847 18,13 C18,12.4477153 18.4477153,12 19,12 L40,12 C40.5522847,12 41,12.4477153 41,13 C41,13.5522847 40.5522847,14 40,14 Z" id="Shape" fill="#428DFF"/><path d="M49.586,10 L8.414,10 C7.6052082,9.9998273 6.8761319,9.512545 6.56664404,8.76530912 C6.25715619,8.01807323 6.42818417,7.15798851 7,6.586 L9.293,4.293 C9.48049273,4.10545063 9.73480519,4.00005664 10,4 L48,4 C48.2651948,4.00005664 48.5195073,4.10545063 48.707,4.293 L51,6.586 C51.5718158,7.15798851 51.7428438,8.01807323 51.433356,8.76530912 C51.1238681,9.512545 50.3947918,9.9998273 49.586,10 Z M10.414,6 L8.414,8 L49.586,8 L47.586,6 L10.414,6 Z" id="Shape" fill="#428DFF"/><path d="M18,6 C17.575187,6.00019929 17.1966134,5.73197665 17.0559454,5.3311292 C16.9152775,4.93028175 17.0432209,4.48430889 17.375,4.219 L21.554,0.876 C22.2635808,0.309798588 23.1442071,0.00098007431 24.052,0 L29,0 C29.5522847,3.38176876e-17 30,0.44771525 30,1 C30,1.55228475 29.5522847,2 29,2 L24.052,2 C23.5981575,2.00080557 23.1579453,2.15517942 22.803,2.438 L18.625,5.781 C18.4475878,5.9228687 18.2271603,6.0001065 18,6 Z" id="Shape" fill="#428DFF"/><path d="M40,6 C39.7728397,6.0001065 39.5524122,5.9228687 39.375,5.781 L35.2,2.438 C34.8442497,2.15453944 34.4028716,2.00012761 33.948,2 L29,2 C28.4477153,2 28,1.55228475 28,1 C28,0.44771525 28.4477153,1.01453063e-16 29,0 L33.948,0 C34.856479,0.000527462038 35.7378829,0.309371392 36.448,0.876 L40.627,4.219 C40.9590683,4.48453762 41.0869178,4.93102061 40.9457268,5.33207508 C40.8045358,5.73312955 40.4251805,6.00105139 40,6 Z" id="Shape" fill="#428DFF"/><path d="M29,42 C28.9329301,41.9982939 28.8660796,41.9916089 28.8,41.98 C28.7373375,41.9691127 28.6766624,41.9488877 28.62,41.92 C28.5562619,41.8981446 28.4957271,41.8678773 28.44,41.83 L28.29,41.71 C28.25,41.66 28.21,41.61 28.17,41.55 C28.1303512,41.4989925 28.0998955,41.4414651 28.08,41.38 C28.0511123,41.3233376 28.0308873,41.2626625 28.02,41.2 C27.9933333,41.068 27.9933333,40.932 28.02,40.8 C28.0308873,40.7373375 28.0511123,40.6766624 28.08,40.62 C28.1018554,40.5562619 28.1321227,40.4957271 28.17,40.44 L28.29,40.29 L28.44,40.17 C28.4957271,40.1321227 28.5562619,40.1018554 28.62,40.08 C28.6766624,40.0511123 28.7373375,40.0308873 28.8,40.02 C28.9948642,39.9791133 29.1976321,40.0000893 29.38,40.08 C29.5023813,40.128323 29.6143929,40.1996032 29.71,40.29 L29.83,40.44 C29.8678773,40.4957271 29.8981446,40.5562619 29.92,40.62 C29.9488877,40.6766624 29.9691127,40.7373375 29.98,40.8 C30.0066667,40.932 30.0066667,41.068 29.98,41.2 C29.9691127,41.2626625 29.9488877,41.3233376 29.92,41.38 C29.9001045,41.4414651 29.8696488,41.4989925 29.83,41.55 C29.79,41.61 29.75,41.66 29.71,41.71 C29.616074,41.802531 29.5036026,41.8741036 29.38,41.92 C29.2597777,41.971241 29.1306773,41.99842 29,42 Z" id="Shape" fill="#7FACFA"/></g></g></svg>
