<?xml version="1.0" encoding="UTF-8"?>
<svg xmlns="http://www.w3.org/2000/svg" xmlns:xlink="http://www.w3.org/1999/xlink" width="512" height="512" viewBox="0 0 60 60" version="1.1"><!-- Generator: Sketch 51.3 (57544) - http://www.bohemiancoding.com/sketch --><title>016 - Macerator</title><desc>Created with Sketch.</desc><defs/><g id="Page-1" stroke="none" stroke-width="1" fill="none" fill-rule="evenodd"><g id="016---Macerator" fill-rule="nonzero"><path d="M56.757,40.689 L54.757,40.189 C54.3120689,40.0775409 54.0000121,39.6776794 54,39.219 L54,36.781 C54.0000121,36.3223206 54.3120689,35.9224591 54.757,35.811 L56.757,35.311 C57.0557824,35.2361524 57.3723864,35.3031708 57.6152132,35.4926655 C57.8580399,35.6821602 57.9999919,35.9729853 58,36.281 L58,39.719 C57.9999919,40.0270147 57.8580399,40.3178398 57.6152132,40.5073345 C57.3723864,40.6968292 57.0557824,40.7638476 56.757,40.689 Z" id="Shape" fill="#A4C2F7"/><path d="M45,52 L51,52 L51,55 C51,55.5522847 50.5522847,56 50,56 L45,56 L45,52 Z" id="Shape" fill="#E8EDFC"/><path d="M41,51 L46,51 C46.5522847,51 47,51.4477153 47,52 L47,56 C47,56.5522847 46.5522847,57 46,57 L41,57 L41,51 Z" id="Shape" fill="#CAD9FC"/><polygon id="Shape" fill="#CAD9FC" points="57 5 43 48 29.83 50 28.35 49.77 17 48 3 5 28.5 3.11 30 3"/><polygon id="Shape" fill="#E8EDFC" points="54 5 40 48 28.35 49.77 17 48 3 5 28.5 3.11"/><path d="M43,48 L43,58 C43,58.5522847 42.5522847,59 42,59 L18,59 C17.4477153,59 17,58.5522847 17,58 L17,48 L43,48 Z" id="Shape" fill="#7FACFA"/><rect id="Rectangle-path" fill="#7FACFA" x="1" y="1" width="58" height="4" rx="1"/><path d="M40,48 L40,58 C40,58.5522847 39.5522847,59 39,59 L18,59 C17.4477153,59 17,58.5522847 17,58 L17,48 L40,48 Z" id="Shape" fill="#A4C2F7"/><rect id="Rectangle-path" fill="#A4C2F7" x="1" y="1" width="55" height="4" rx="1"/><path d="M17,58 C17,58.5522847 17.4477153,59 18,59 L21,59 C20.4477153,59 20,58.5522847 20,58 L20,48 L6,5 L5,5 C4.44771525,5 4,4.55228475 4,4 L4,2 C4,1.44771525 4.44771525,1 5,1 L2,1 C1.44771525,1 1,1.44771525 1,2 L1,4 C1,4.55228475 1.44771525,5 2,5 L3,5 L17,48 L17,58 Z" id="Shape" fill="#FFFFFF"/><path d="M42,60 L18,60 C16.8954305,60 16,59.1045695 16,58 L16,48 C16,47.4477153 16.4477153,47 17,47 L43,47 C43.5522847,47 44,47.4477153 44,48 L44,58 C44,59.1045695 43.1045695,60 42,60 Z M18,49 L18,58 L42,58 L42,49 L18,49 Z" id="Shape" fill="#428DFF"/><polygon id="Shape" fill="#FFFFFF" points="3.951 4.69 7.975 17.052 17.951 47.69 16.049 48.31 6.074 17.671 2.049 5.31"/><path d="M4.548,9.754 C5.07279917,9.58289544 5.35970592,9.01892897 5.189,8.494 L3.951,4.69 L2.051,5.31 L3.289,9.11 C3.45884838,9.63548121 4.02250325,9.9238003 4.548,9.754 Z" id="Shape" fill="#428DFF"/><path d="M16.049,48.31 L17.949,47.69 L7.666,16.1 C7.47896502,15.5974773 6.9288702,15.331906 6.41904358,15.4980021 C5.90921697,15.6640983 5.62112679,16.2027415 5.766,16.719 L16.049,48.31 Z" id="Shape" fill="#428DFF"/><path d="M6.428,12.3 C6.34102304,12.0489506 6.16244208,11.8400109 5.928,11.715 L5.748,11.647 C5.68287083,11.6285798 5.61566732,11.6184992 5.548,11.617 C5.48502167,11.6075166 5.42097833,11.6075166 5.358,11.617 C5.29047992,11.6270281 5.2236752,11.6413911 5.158,11.66 C4.90695058,11.746977 4.69801086,11.9255579 4.573,12.16 C4.51538689,12.2782923 4.48141839,12.4066932 4.473,12.538 C4.4450093,12.9394699 4.65523526,13.3199906 5.01,13.51 C5.128853,13.5670544 5.25747027,13.6009904 5.389,13.61 C5.51911157,13.621939 5.65029952,13.6080045 5.775,13.569 C6.03281519,13.4915959 6.24805034,13.3126439 6.37121654,13.0732903 C6.49438274,12.8339367 6.51488166,12.5547776 6.428,12.3 Z" id="Shape" fill="#428DFF"/><path d="M43,49 C42.8947486,48.9998705 42.7901603,48.9833388 42.69,48.951 C42.4377392,48.8688398 42.2284659,48.689804 42.1082458,48.4533025 C41.9880258,48.2168009 41.9667134,47.9422197 42.049,47.69 L55.623,6 L3,6 C2.44771525,6 2,5.55228475 2,5 C2,4.44771525 2.44771525,4 3,4 L57,4 C57.3203337,3.99991561 57.6213192,4.15329846 57.8095068,4.41252637 C57.9976944,4.67175427 58.0503035,5.00544705 57.951,5.31 L43.951,48.31 C43.8167879,48.7216142 43.4329424,49.0001141 43,49 Z" id="Shape" fill="#428DFF"/><path d="M58,6 L2,6 C0.8954305,6 1.3527075e-16,5.1045695 0,4 L0,2 C-1.3527075e-16,0.8954305 0.8954305,2.02906125e-16 2,0 L58,0 C59.1045695,6.76353751e-17 60,0.8954305 60,2 L60,4 C60,5.1045695 59.1045695,6 58,6 Z M2,2 L2,4 L58,4 L58,2 L2,2 Z" id="Shape" fill="#428DFF"/><path d="M21,45 L20,45 C19.4477153,45 19,44.5522847 19,44 C19,43.4477153 19.4477153,43 20,43 L21,43 C21.5522847,43 22,43.4477153 22,44 C22,44.5522847 21.5522847,45 21,45 Z" id="Shape" fill="#428DFF"/><path d="M40,45 L25,45 C24.4477153,45 24,44.5522847 24,44 C24,43.4477153 24.4477153,43 25,43 L40,43 C40.5522847,43 41,43.4477153 41,44 C41,44.5522847 40.5522847,45 40,45 Z" id="Shape" fill="#428DFF"/><path d="M40,53 L39,53 C38.4477153,53 38,52.5522847 38,52 C38,51.4477153 38.4477153,51 39,51 L40,51 C40.5522847,51 41,51.4477153 41,52 C41,52.5522847 40.5522847,53 40,53 Z" id="Shape" fill="#428DFF"/><path d="M35,53 L20,53 C19.4477153,53 19,52.5522847 19,52 C19,51.4477153 19.4477153,51 20,51 L35,51 C35.5522847,51 36,51.4477153 36,52 C36,52.5522847 35.5522847,53 35,53 Z" id="Shape" fill="#428DFF"/><path d="M11,10 L10,10 C9.44771525,10 9,9.55228475 9,9 C9,8.44771525 9.44771525,8 10,8 L11,8 C11.5522847,8 12,8.44771525 12,9 C12,9.55228475 11.5522847,10 11,10 Z" id="Shape" fill="#428DFF"/><path d="M50,10 L15,10 C14.4477153,10 14,9.55228475 14,9 C14,8.44771525 14.4477153,8 15,8 L50,8 C50.5522847,8 51,8.44771525 51,9 C51,9.55228475 50.5522847,10 50,10 Z" id="Shape" fill="#428DFF"/><path d="M46,58 L43,58 C42.4477153,58 42,57.5522847 42,57 L42,51 C42,50.4477153 42.4477153,50 43,50 L46,50 C47.1045695,50 48,50.8954305 48,52 L48,56 C48,57.1045695 47.1045695,58 46,58 Z M44,56 L46,56 L46,52 L44,52 L44,56 Z" id="Shape" fill="#428DFF"/><path d="M50,57 L47,57 C46.4477153,57 46,56.5522847 46,56 L46,52 C46,51.4477153 46.4477153,51 47,51 L51,51 C51.5522847,51 52,51.4477153 52,52 L52,55 C52,56.1045695 51.1045695,57 50,57 Z M48,55 L50,55 L50,53 L48,53 L48,55 Z" id="Shape" fill="#428DFF"/><path d="M51,55 C50.4477153,55 50,54.5522847 50,54 L50,40 C50,38.3431458 51.3431458,37 53,37 L54,37 C54.5522847,37 55,37.4477153 55,38 C55,38.5522847 54.5522847,39 54,39 L53,39 C52.4477153,39 52,39.4477153 52,40 L52,54 C52,54.5522847 51.5522847,55 51,55 Z" id="Shape" fill="#428DFF"/><path d="M58.005,41.72 C57.840174,41.7198381 57.6759758,41.6996911 57.516,41.66 L55.516,41.16 C54.6249819,40.9377681 53.9997945,40.1373138 54,39.219 L54,36.781 C53.9997945,35.8626862 54.6249819,35.0622319 55.516,34.84 L57.516,34.34 C58.1134528,34.1909872 58.7462412,34.3254876 59.2314359,34.7046192 C59.7166305,35.0837508 60.0001378,35.6652447 60,36.281 L60,39.719 C60.0000034,40.8216198 59.1076164,41.7162435 58.005,41.719 L58.005,41.72 Z M58,36.281 L56,36.781 L56,39.219 L58,39.719 L58,36.281 Z" id="Shape" fill="#428DFF"/></g></g></svg>
