<?xml version="1.0" encoding="UTF-8"?>
<svg xmlns="http://www.w3.org/2000/svg" xmlns:xlink="http://www.w3.org/1999/xlink" width="512" height="512" viewBox="0 0 60 60" version="1.1"><!-- Generator: Sketch 51.3 (57544) - http://www.bohemiancoding.com/sketch --><title>017 - Bottle and Hops</title><desc>Created with Sketch.</desc><defs><linearGradient x1="-6.98064516%" y1="24.8377358%" x2="106.980645%" y2="91.4962264%" id="linearGradient-1"><stop stop-color="#D3DFF2" offset="0%"/><stop stop-color="#D3DFF2" offset="17.2%"/><stop stop-color="#D3DFF2" offset="20%"/><stop stop-color="#DAE2F2" offset="20%"/><stop stop-color="#EBEAF2" offset="20.1%"/><stop stop-color="#F6EFF2" offset="20.1%"/><stop stop-color="#FDF2F2" offset="20.2%"/><stop stop-color="#FFF3F2" offset="20.5%"/><stop stop-color="#FFF3F2" offset="25.2%"/><stop stop-color="#FFF3F2" offset="26%"/><stop stop-color="#D3DFF2" offset="26%"/><stop stop-color="#D3DFF2" offset="39.7%"/><stop stop-color="#D3DFF2" offset="42%"/><stop stop-color="#DAE2F2" offset="42%"/><stop stop-color="#EBEAF2" offset="42.1%"/><stop stop-color="#F6EFF2" offset="42.1%"/><stop stop-color="#FDF2F2" offset="42.2%"/><stop stop-color="#FFF3F2" offset="42.5%"/><stop stop-color="#FFF3F2" offset="48.9%"/><stop stop-color="#FFF3F2" offset="50%"/><stop stop-color="#F8F0F2" offset="50%"/><stop stop-color="#E7E8F2" offset="50%"/><stop stop-color="#DCE3F2" offset="50%"/><stop stop-color="#D5E0F2" offset="50%"/><stop stop-color="#D3DFF2" offset="50.1%"/><stop stop-color="#D3DFF2" offset="70.6%"/><stop stop-color="#D3DFF2" offset="74%"/><stop stop-color="#FFF3F2" offset="74.1%"/><stop stop-color="#FFF3F2" offset="83.5%"/><stop stop-color="#FFF3F2" offset="85%"/><stop stop-color="#D3DFF2" offset="85.1%"/></linearGradient></defs><g id="Page-1" stroke="none" stroke-width="1" fill="none" fill-rule="evenodd"><g id="017---Bottle-and-Hops" fill-rule="nonzero"><path d="M35,23 L35,55 C35,57.209139 33.209139,59 31,59 L5,59 C2.790861,59 1,57.209139 1,55 L1,23 C1.00495634,19.6883467 3.68834666,17.0049563 7,17 C8.32608245,17 9.59785201,16.4732158 10.5355339,15.5355339 C11.4732158,14.597852 12,13.3260824 12,12 L12,6 L24,6 L24,12 C23.9960001,13.3273046 24.5214997,14.6013996 25.4600501,15.5399499 C26.3986004,16.4785003 27.6726954,17.0039999 29,17 C32.3137085,17 35,19.6862915 35,23 Z" id="Shape" fill="#CAD9FC"/><path d="M32,23 L32,55 C32,57.209139 30.209139,59 28,59 L5,59 C2.790861,59 1,57.209139 1,55 L1,23 C1.00495634,19.6883467 3.68834666,17.0049563 7,17 C8.32608245,17 9.59785201,16.4732158 10.5355339,15.5355339 C11.4732158,14.597852 12,13.3260824 12,12 L12,6 L21,6 L21,12 C20.9960001,13.3273046 21.5214997,14.6013996 22.4600501,15.5399499 C23.3986004,16.4785003 24.6726954,17.0039999 26,17 C29.3137085,17 32,19.6862915 32,23 Z" id="Shape" fill="url(#linearGradient-1)"/><path d="M5,55 C4.44771525,55 4,54.5522847 4,54 L4,49 C4,48.4477153 4.44771525,48 5,48 C5.55228475,48 6,48.4477153 6,49 L6,54 C6,54.5522847 5.55228475,55 5,55 Z" id="Shape" fill="#71C285"/><rect id="Rectangle-path" fill="#E8EDFC" x="8" y="1" width="20" height="5" rx="2.5"/><rect id="Rectangle-path" fill="#7FACFA" x="1" y="29" width="34" height="20"/><rect id="Rectangle-path" fill="#A4C2F7" x="1" y="29" width="31" height="20"/><path d="M27,34 C27,40.08 22.97,45 18,45 C17.4956235,45.0022652 16.9925505,44.9486041 16.5,44.84 C12.24,43.97 9,39.45 9,34 C9,28.55 12.24,24.03 16.5,23.16 C16.9925505,23.0513959 17.4956235,22.9977348 18,23 C22.97,23 27,27.92 27,34 Z" id="Shape" fill="#CAD9FC"/><ellipse id="Oval" fill="#E8EDFC" cx="16.5" cy="34" rx="7.5" ry="10.84"/><path d="M5,24 C4.44771525,24 4,23.5522847 4,23 L4,22 C4,21.4477153 4.44771525,21 5,21 C5.55228475,21 6,21.4477153 6,22 L6,23 C6,23.5522847 5.55228475,24 5,24 Z" id="Shape" fill="#71C285"/><path d="M43,57 C43,58.1 41.21,59 39,59 C36.79,59 35,58.1 35,57 C35,55.9 36.79,55 39,55 C39.19,55 39.38,55.01 39.56,55.02 C40.5939485,55.0473762 41.5964154,55.3815319 42.44,55.98 C42.7674717,56.221201 42.9722736,56.594233 43,57 Z" id="Shape" fill="#E8EDFC"/><path d="M47,54 C46.976679,54.4070453 46.7709149,54.7818298 46.44,55.02 C45.4060515,55.0473762 44.4035846,55.3815319 43.56,55.98 C43.38,55.99 43.19,56 43,56 C42.81,56 42.62,55.99 42.44,55.98 C41.5964154,55.3815319 40.5939485,55.0473762 39.56,55.02 C39.2325283,54.778799 39.0277264,54.405767 39,54 C39,52.9 40.79,52 43,52 C43.19,52 43.38,52.01 43.56,52.02 C44.4035846,52.6184681 45.4060515,52.9526238 46.44,52.98 C46.7709149,53.2181702 46.976679,53.5929547 47,54 Z" id="Shape" fill="#CAD9FC"/><path d="M51,57 C51,58.1 49.21,59 47,59 C44.79,59 43,58.1 43,57 C43.0277264,56.594233 43.2325283,56.221201 43.56,55.98 C44.4035846,55.3815319 45.4060515,55.0473762 46.44,55.02 C46.62,55.01 46.81,55 47,55 C47.19,55 47.38,55.01 47.56,55.02 C48.5939485,55.0473762 49.5964154,55.3815319 50.44,55.98 C50.7674717,56.221201 50.9722736,56.594233 51,57 Z" id="Shape" fill="#E8EDFC"/><path d="M55,54 C54.9722736,54.405767 54.7674717,54.778799 54.44,55.02 C53.4060515,55.0473762 52.4035846,55.3815319 51.56,55.98 C51.38,55.99 51.19,56 51,56 C50.81,56 50.62,55.99 50.44,55.98 C49.5964154,55.3815319 48.5939485,55.0473762 47.56,55.02 C47.2112542,54.7980809 47.0000616,54.4133663 47.0000616,54 C47.0000616,53.5866337 47.2112542,53.2019191 47.56,52.98 C48.5939485,52.9526238 49.5964154,52.6184681 50.44,52.02 C50.62,52.01 50.81,52 51,52 C53.21,52 55,52.9 55,54 Z" id="Shape" fill="#CAD9FC"/><path d="M51,51 C50.9722736,51.405767 50.7674717,51.778799 50.44,52.02 C49.5964154,52.6184681 48.5939485,52.9526238 47.56,52.98 C47.38,52.99 47.19,53 47,53 C46.81,53 46.62,52.99 46.44,52.98 C46.29,52.97 46.15,52.95 46.01,52.93 C46.0073668,52.9326875 46.0037626,52.934202 46,52.934202 C45.9962374,52.934202 45.9926332,52.9326875 45.99,52.93 C45.1114265,52.8572466 44.2702482,52.5422374 43.56,52.02 C43.2325283,51.778799 43.0277264,51.405767 43,51 C43,50.07 44.27,49.29 46,49.07 C46.3310135,49.0207678 46.6653557,48.9973638 47,49 C49.21,49 51,49.9 51,51 Z" id="Shape" fill="#CAD9FC"/><path d="M59,57 C59,58.1 57.21,59 55,59 C54.6653557,59.0026362 54.3310135,58.9792322 54,58.93 C52.27,58.71 51,57.93 51,57 C51.0277264,56.594233 51.2325283,56.221201 51.56,55.98 C52.2702482,55.4577626 53.1114265,55.1427534 53.99,55.07 C54,55.06 54,55.06 54.01,55.07 C54.15,55.05 54.29,55.03 54.44,55.02 C54.62,55.01 54.81,55 55,55 C57.21,55 59,55.9 59,57 Z" id="Shape" fill="#CAD9FC"/><path d="M49,51 C48.9722736,51.405767 48.7674717,51.778799 48.44,52.02 C47.7297518,52.5422374 46.8885735,52.8572466 46.01,52.93 C46.0073668,52.9326875 46.0037626,52.934202 46,52.934202 C45.9962374,52.934202 45.9926332,52.9326875 45.99,52.93 C45.1114265,52.8572466 44.2702482,52.5422374 43.56,52.02 C43.2325283,51.778799 43.0277264,51.405767 43,51 C43,50.07 44.27,49.29 46,49.07 C47.73,49.29 49,50.07 49,51 Z" id="Shape" fill="#E8EDFC"/><path d="M57,57 C57,57.93 55.73,58.71 54,58.93 C52.27,58.71 51,57.93 51,57 C51.0277264,56.594233 51.2325283,56.221201 51.56,55.98 C52.2702482,55.4577626 53.1114265,55.1427534 53.99,55.07 C54,55.06 54,55.06 54.01,55.07 C55.73,55.29 57,56.07 57,57 Z" id="Shape" fill="#E8EDFC"/><path d="M5,59 L8,59 C5.790861,59 4,57.209139 4,55 L4,23 C4.00495634,19.6883467 6.68834666,17.0049563 10,17 C12.7614237,17 15,14.7614237 15,12 L15,6 L13.5,6 C12.1192881,6 11,4.88071187 11,3.5 C11,2.11928813 12.1192881,1 13.5,1 L10.5,1 C9.11928813,1 8,2.11928813 8,3.5 C8,4.88071187 9.11928813,6 10.5,6 L12,6 L12,12 C12,13.3260824 11.4732158,14.597852 10.5355339,15.5355339 C9.59785201,16.4732158 8.32608245,17 7,17 C3.68834666,17.0049563 1.00495634,19.6883467 1,23 L1,55 C1,57.209139 2.790861,59 5,59 Z" id="Shape" fill="#FFFFFF"/><polygon id="Shape" fill="#FFFFFF" points="5 58 18 58 31 58 31 60 18 60 5 60"/><path d="M10,59 C10,58.4477153 9.55228475,58 9,58 L5,58 L5,60 L9,60 C9.55228475,60 10,59.5522847 10,59 Z" id="Shape" fill="#428DFF"/><path d="M31,60 L31,58 L17,58 C16.4477153,58 16,58.4477153 16,59 C16,59.5522847 16.4477153,60 17,60 L31,60 Z" id="Shape" fill="#428DFF"/><path d="M13,58 C12.7352731,58.0038804 12.481743,58.107435 12.29,58.29 L12.17,58.44 C12.1321227,58.4957271 12.1018554,58.5562619 12.08,58.62 C12.0511123,58.6766624 12.0308873,58.7373375 12.02,58.8 C12.0088692,58.8661445 12.0021875,58.9329612 12,59 C12.0038804,59.2647269 12.107435,59.518257 12.29,59.71 C12.3856071,59.8003968 12.4976187,59.871677 12.62,59.92 C12.9929737,60.0708766 13.4197788,59.9886481 13.71,59.71 C13.8003968,59.6143929 13.871677,59.5023813 13.92,59.38 C13.971241,59.2597777 13.99842,59.1306773 14,59 C14.0027011,58.7339647 13.8982118,58.4780384 13.7100867,58.2899133 C13.5219616,58.1017882 13.2660353,57.9972989 13,58 Z" id="Shape" fill="#428DFF"/><path d="M5,60 C2.23994685,59.9966939 0.00330611633,57.7600532 0,55 L0,23 C0.00440863597,19.1358343 3.13583434,16.0044086 7,16 C9.209139,16 11,14.209139 11,12 L11,6 C11,5.44771525 11.4477153,5 12,5 C12.5522847,5 13,5.44771525 13,6 L13,12 C12.9966926,15.3123376 10.3123376,17.9966926 7,18 C4.24063066,18.0049535 2.0049535,20.2406307 2,23 L2,55 C2,56.6568542 3.34314575,58 5,58 C5.55228475,58 6,58.4477153 6,59 C6,59.5522847 5.55228475,60 5,60 Z" id="Shape" fill="#428DFF"/><path d="M31,60 C30.4477153,60 30,59.5522847 30,59 C30,58.4477153 30.4477153,58 31,58 C32.6568542,58 34,56.6568542 34,55 L34,23 C33.9966939,20.2399468 31.7600532,18.0033061 29,18 C27.4074793,18.0039963 25.8790328,17.3731387 24.7529471,16.2470529 C23.6268613,15.1209672 22.9960037,13.5925207 23,12 L23,6 C23,5.44771525 23.4477153,5 24,5 C24.5522847,5 25,5.44771525 25,6 L25,12 C24.9957256,13.0621706 25.4157802,14.0820716 26.1668543,14.8331457 C26.9179284,15.5842198 27.9378294,16.0042744 29,16 C32.8641657,16.0044086 35.9955914,19.1358343 36,23 L36,55 C35.9966939,57.7600532 33.7600532,59.9966939 31,60 Z" id="Shape" fill="#428DFF"/><path d="M25.5,7 L10.5,7 C8.56700338,7 7,5.43299662 7,3.5 C7,1.56700338 8.56700338,3.55085719e-16 10.5,0 L25.5,0 C27.4329966,1.18361906e-16 29,1.56700338 29,3.5 C29,5.43299662 27.4329966,7 25.5,7 Z M10.5,2 C9.67157288,2.00000001 9.00000002,2.67157288 9.00000002,3.5 C9.00000002,4.32842712 9.67157288,4.99999999 10.5,5 L25.5,5 C26.3284271,4.99999999 27,4.32842712 27,3.5 C27,2.67157288 26.3284271,2.00000001 25.5,2 L10.5,2 Z" id="Shape" fill="#428DFF"/><path d="M35,50 L1,50 C0.44771525,50 6.76353751e-17,49.5522847 0,49 L0,29 C-6.76353751e-17,28.4477153 0.44771525,28 1,28 L9.99,28 C10.5422847,28 10.99,28.4477153 10.99,29 C10.99,29.5522847 10.5422847,30 9.99,30 L2,30 L2,48 L34,48 L34,30 L26.01,30 C25.4577153,30 25.01,29.5522847 25.01,29 C25.01,28.4477153 25.4577153,28 26.01,28 L35,28 C35.5522847,28 36,28.4477153 36,29 L36,49 C36,49.5522847 35.5522847,50 35,50 Z" id="Shape" fill="#428DFF"/><path d="M18,46 C12.486,46 8,40.617 8,34 C8,27.383 12.486,22 18,22 C23.514,22 28,27.383 28,34 C28,40.617 23.514,46 18,46 Z M18,24 C13.589,24 10,28.486 10,34 C10,39.514 13.589,44 18,44 C22.411,44 26,39.514 26,34 C26,28.486 22.411,24 18,24 Z" id="Shape" fill="#428DFF"/><path d="M5,24 C4.44771525,24 4,23.5522847 4,23 L4,22 C4,21.4477153 4.44771525,21 5,21 C5.55228475,21 6,21.4477153 6,22 L6,23 C6,23.5522847 5.55228475,24 5,24 Z" id="Shape" fill="#428DFF"/><path d="M5,55 C4.44771525,55 4,54.5522847 4,54 L4,49 C4,48.4477153 4.44771525,48 5,48 C5.55228475,48 6,48.4477153 6,49 L6,54 C6,54.5522847 5.55228475,55 5,55 Z" id="Shape" fill="#428DFF"/><path d="M27,46 L26,46 C25.4477153,46 25,45.5522847 25,45 C25,44.4477153 25.4477153,44 26,44 L27,44 C27.5522847,44 28,44.4477153 28,45 C28,45.5522847 27.5522847,46 27,46 Z" id="Shape" fill="#428DFF"/><path d="M31,46 L30,46 C29.4477153,46 29,45.5522847 29,45 C29,44.4477153 29.4477153,44 30,44 L31,44 C31.5522847,44 32,44.4477153 32,45 C32,45.5522847 31.5522847,46 31,46 Z" id="Shape" fill="#428DFF"/><path d="M31,42 L30,42 C29.4477153,42 29,41.5522847 29,41 C29,40.4477153 29.4477153,40 30,40 L31,40 C31.5522847,40 32,40.4477153 32,41 C32,41.5522847 31.5522847,42 31,42 Z" id="Shape" fill="#428DFF"/><path d="M10,46 L9,46 C8.44771525,46 8,45.5522847 8,45 C8,44.4477153 8.44771525,44 9,44 L10,44 C10.5522847,44 11,44.4477153 11,45 C11,45.5522847 10.5522847,46 10,46 Z" id="Shape" fill="#428DFF"/><path d="M6,46 L5,46 C4.44771525,46 4,45.5522847 4,45 C4,44.4477153 4.44771525,44 5,44 L6,44 C6.55228475,44 7,44.4477153 7,45 C7,45.5522847 6.55228475,46 6,46 Z" id="Shape" fill="#428DFF"/><path d="M6,42 L5,42 C4.44771525,42 4,41.5522847 4,41 C4,40.4477153 4.44771525,40 5,40 L6,40 C6.55228475,40 7,40.4477153 7,41 C7,41.5522847 6.55228475,42 6,42 Z" id="Shape" fill="#428DFF"/><path d="M39,60 C36.149,60 34,58.71 34,57 C34,55.29 36.149,54 39,54 C41.851,54 44,55.29 44,57 C44,58.71 41.851,60 39,60 Z M39,56 C37.064,56 36,56.751 36,57 C36,57.249 37.064,58 39,58 C40.936,58 42,57.249 42,57 C42,56.751 40.936,56 39,56 Z" id="Shape" fill="#428DFF"/><path d="M46.441,56.02 C46.0199422,56.0202317 45.6438466,55.756691 45.5003306,55.3608465 C45.3568146,54.965002 45.4766275,54.5216663 45.8,54.252 C45.966,54.113 46,54.018 46,54 C46,53.982 45.966,53.887 45.8,53.748 C45.3758453,53.3942616 45.3187617,52.7636547 45.6725,52.3395 C46.0262384,51.9153453 46.6568453,51.8582616 47.081,52.212 C47.6573457,52.6251823 47.9991825,53.2908498 47.9991825,54 C47.9991825,54.7091502 47.6573457,55.3748177 47.081,55.788 C46.9013643,55.9378017 46.6749007,56.0198948 46.441,56.02 Z" id="Shape" fill="#428DFF"/><path d="M39.56,56.02 C39.3208403,56.0202174 39.0895222,55.9347148 38.908,55.779 C38.3517023,55.3539716 38.0178421,54.6998556 38,54 C38,52.29 40.149,51 43,51 C43.21,51 43.419,51.01 43.616,51.021 C44.1682847,51.0522041 44.590704,51.5252153 44.5594999,52.0775 C44.5282959,52.6297847 44.0552847,53.0522041 43.503,53.021 C43.341,53.011 43.171,53.002 43.003,53.002 C40.968,53.002 40.003,53.802 40.003,54.002 C40.0478655,54.1068253 40.1209011,54.197168 40.214,54.263 C40.5315561,54.5354081 40.6459592,54.9767113 40.5007417,55.3690886 C40.3555242,55.7614659 39.9813874,56.0219621 39.563,56.022 L39.56,56.02 Z" id="Shape" fill="#428DFF"/><path d="M43,57 C42.79,57 42.581,56.99 42.384,56.979 C42.1189885,56.9640454 41.870795,56.8443434 41.6941019,56.6462671 C41.5174088,56.4481907 41.4267141,56.1879926 41.442,55.923 C41.4794698,55.374587 41.9478607,54.956365 42.497,54.981 C42.8320642,54.9999992 43.1679358,54.9999992 43.503,54.981 C44.0515647,54.9579754 44.5189948,55.3753396 44.558,55.923 C44.5732859,56.1879926 44.4825912,56.4481907 44.3058981,56.6462671 C44.129205,56.8443434 43.8810115,56.9640454 43.616,56.979 C43.419,56.99 43.21,57 43,57 Z" id="Shape" fill="#428DFF"/><path d="M47,60 C44.149,60 42,58.71 42,57 C42,55.29 44.149,54 47,54 C49.851,54 52,55.29 52,57 C52,58.71 49.851,60 47,60 Z M47,56 C45.064,56 44,56.751 44,57 C44,57.249 45.064,58 47,58 C48.936,58 50,57.249 50,57 C50,56.751 48.936,56 47,56 Z" id="Shape" fill="#428DFF"/><path d="M54.44,56.02 C54.0216126,56.0199621 53.6474758,55.7594659 53.5022583,55.3670886 C53.3570408,54.9747113 53.4714439,54.5334081 53.789,54.261 C53.8827293,54.195843 53.9559267,54.1053003 54,54 C54,53.8 53.035,53 51,53 C50.829,53 50.659,53.009 50.5,53.019 C49.9477153,53.0502041 49.4747041,52.6277847 49.4435001,52.0755 C49.412296,51.5232153 49.8347153,51.0502041 50.387,51.019 C50.587,51.008 50.793,50.998 51.003,50.998 C53.854,50.998 56.003,52.288 56.003,53.998 C55.9851579,54.6978556 55.6512977,55.3519716 55.095,55.777 C54.9129815,55.9341124 54.6804473,56.0203808 54.44,56.02 Z" id="Shape" fill="#428DFF"/><path d="M47.56,56.02 C47.3208403,56.0202174 47.0895222,55.9347148 46.908,55.779 C46.3389391,55.36499 46.0022793,54.703729 46.0022793,54 C46.0022793,53.296271 46.3389391,52.63501 46.908,52.221 C47.3292323,51.8869247 47.9392217,51.9456922 48.2889275,52.354041 C48.6386334,52.7623898 48.6028857,53.37416 48.208,53.739 C48.1153786,53.8045782 48.0432547,53.8950797 48,54 C48.0457874,54.1037218 48.1186753,54.1931908 48.211,54.259 C48.5285561,54.5314081 48.6429592,54.9727113 48.4977417,55.3650886 C48.3525242,55.7574659 47.9783874,56.0179621 47.56,56.018 L47.56,56.02 Z" id="Shape" fill="#428DFF"/><path d="M51,57 C50.79,57 50.581,56.99 50.384,56.979 C49.8317153,56.9477959 49.4092959,56.4747847 49.4405,55.9225 C49.4717041,55.3702153 49.9447153,54.9477959 50.497,54.979 C50.8320642,54.9979992 51.1679358,54.9979992 51.503,54.979 C52.0552847,54.9477959 52.5282959,55.3702153 52.5595,55.9225 C52.5907041,56.4747847 52.1682847,56.9477959 51.616,56.979 C51.419,56.99 51.21,57 51,57 Z" id="Shape" fill="#428DFF"/><path d="M47,54 C44.149,54 42,52.71 42,51 C42,49.29 44.149,48 47,48 C49.851,48 52,49.29 52,51 C52,52.71 49.851,54 47,54 Z M47,50 C45.064,50 44,50.751 44,51 C44,51.249 45.064,52 47,52 C48.936,52 50,51.249 50,51 C50,50.751 48.936,50 47,50 Z" id="Shape" fill="#428DFF"/><path d="M55,60 C52.149,60 50,58.71 50,57 C50,55.29 52.149,54 55,54 C57.851,54 60,55.29 60,57 C60,58.71 57.851,60 55,60 Z M55,56 C53.064,56 52,56.751 52,57 C52,57.249 53.064,58 55,58 C56.936,58 58,57.249 58,57 C58,56.751 56.936,56 55,56 Z" id="Shape" fill="#428DFF"/></g></g></svg>
