<?xml version="1.0" encoding="UTF-8"?>
<svg xmlns="http://www.w3.org/2000/svg" xmlns:xlink="http://www.w3.org/1999/xlink" width="512" height="512" viewBox="0 0 42 60" version="1.1"><!-- Generator: Sketch 51.3 (57544) - http://www.bohemiancoding.com/sketch --><title>018 - Draught Keg</title><desc>Created with Sketch.</desc><defs/><g id="Page-1" stroke="none" stroke-width="1" fill="none" fill-rule="evenodd"><g id="018---Draught-Keg" fill-rule="nonzero"><path d="M30.873,52.422 L33.912,52.422 C34.1543156,52.4208212 34.3897202,52.5027011 34.579,52.654 L40.368,57.354 C40.6802167,57.613445 40.7885913,58.045137 40.635938,58.4212859 C40.4832846,58.7974347 40.1047197,59.031511 39.7,59 L1.782,59 C1.37676196,59.0321358 0.997442411,58.7979131 0.844656035,58.4212078 C0.69186966,58.0445025 0.800866393,57.6122256 1.114,57.353 L6.904,52.653 C7.09312062,52.501413 7.32863051,52.4194965 7.571,52.421 L30.871,52.421 L30.873,52.422 Z" id="Shape" fill="#E8EDFC"/><path d="M30.87,48.62 L30.87,54.24 C30.87,54.7922847 30.4222847,55.24 29.87,55.24 L11.61,55.24 C11.0577153,55.24 10.61,54.7922847 10.61,54.24 L10.61,48.62 L30.87,48.62 Z" id="Shape" fill="#7FACFA"/><path d="M27.87,48.62 L27.87,54.24 C27.87,54.7922847 27.4222847,55.24 26.87,55.24 L11.61,55.24 C11.0577153,55.24 10.61,54.7922847 10.61,54.24 L10.61,48.62 L27.87,48.62 Z" id="Shape" fill="#A4C2F7"/><path d="M39,33 C39,42.9411255 30.9411255,51 21,51 C20.49,51 19.99,50.98 19.5,50.94 C10.8475721,50.2177413 3.94387132,43.4218627 3.08551319,34.7818749 C2.22715505,26.1418872 7.65880535,18.1205266 16,15.71 L26,15.71 C33.6994102,17.9363419 38.9992802,24.985169 39,33 Z" id="Shape" fill="#CAD9FC"/><path d="M36,33 C35.9989656,42.3596682 28.8269132,50.1576451 19.5,50.94 C10.8475721,50.2177413 3.94387132,43.4218627 3.08551319,34.7818749 C2.22715505,26.1418872 7.65880535,18.1205266 16,15.71 L23,15.71 C30.6994102,17.9363419 35.9992802,24.985169 36,33 Z" id="Shape" fill="#E8EDFC"/><path d="M40,33 C39.9906272,43.4895255 31.4895255,51.9906272 21,52 C20.5,52 19.99,51.98 19.5,51.94 C24.0651216,51.5814705 28.3458443,49.5814316 31.55,46.31 C35.644645,43.0763109 38.0234629,38.138264 38.000031,32.9207633 C37.9765991,27.7032626 35.5535243,22.7867811 31.43,19.59 C29.7330548,18.2571203 27.7940151,17.2655273 25.72,16.67 C25.4653922,16.5957394 25.2507123,16.4233777 25.1231876,16.1908326 C24.9956629,15.9582875 24.9657394,15.6846078 25.04,15.43 C25.05,15.41 25.05,15.38 25.07,15.36 C25.2471852,14.8674633 25.7786554,14.599532 26.28,14.75 C34.3937038,17.1187002 39.9786345,24.547635 40,33 Z" id="Shape" fill="#4FBA6F"/><path d="M31.55,46.31 C28.3458443,49.5814316 24.0651216,51.5814705 19.5,51.94 C12.1122759,51.3632726 5.73602617,46.5391274 3.17208896,39.5866238 C0.608151749,32.6341201 2.32559001,24.825193 7.57,19.59 C9.3772487,17.758481 11.5421773,16.3185992 13.93,15.36 C14.51,15.13 15.11,14.93 15.72,14.75 C15.9746376,14.6729171 16.2495839,14.7015674 16.482859,14.8294924 C16.7161341,14.9574175 16.8881031,15.1738498 16.96,15.43 C17.1146397,15.9601934 16.8101934,16.5153603 16.28,16.67 C8.42504277,18.9474726 3.30504018,26.495314 4.09313678,34.6357156 C4.88123339,42.7761172 11.3540376,49.2016243 19.5,49.93 C19.9984912,49.978731 20.499137,50.0020944 21,50 C24.8336034,50.0033868 28.5542314,48.7020487 31.55,46.31 Z" id="Shape" fill="#71C285"/><path d="M26,15 L26,23 C26,25.7614237 23.7614237,28 21,28 C20.6673619,28.0024124 20.3354364,27.9688845 20.01,27.9 L19.99,27.9 C17.6677701,27.4170978 16.0024,25.3719065 16,23 L16,15 C16.0032948,13.8967981 16.8967981,13.0032948 18,13 L24,13 C25.1032019,13.0032948 25.9967052,13.8967981 26,15 Z" id="Shape" fill="#CAD9FC"/><path d="M24,15 L24,23 C23.9976,25.3719065 22.3322299,27.4170978 20.01,27.9 L19.99,27.9 C17.6677701,27.4170978 16.0024,25.3719065 16,23 L16,15 C16.0032948,13.8967981 16.8967981,13.0032948 18,13 L22,13 C23.1032019,13.0032948 23.9967052,13.8967981 24,15 Z" id="Shape" fill="#E8EDFC"/><path d="M23.73,27.19 L23.11,32.12 C23.0494239,32.621169 22.6248147,32.9985995 22.12,33 L19.88,33 C19.3751853,32.9985995 18.9505761,32.621169 18.89,32.12 L18.27,27.19 L23.73,27.19 Z" id="Shape" fill="#E8EDFC"/><path d="M21.73,27.19 L21.11,32.12 C21.0494239,32.621169 20.6248147,32.9985995 20.12,33 L19.88,33 C19.3751853,32.9985995 18.9505761,32.621169 18.89,32.12 L18.27,27.19 L21.73,27.19 Z" id="Shape" fill="#FFFFFF"/><path d="M23,7 L23,18 C23,19.1045695 22.1045695,20 21,20 C19.8954305,20 19,19.1045695 19,18 L19,7 L23,7 Z" id="Shape" fill="#7FACFA"/><path d="M21,9 L21,18 C20.9992679,18.7137984 20.6181681,19.373101 20,19.73 C19.3818319,19.373101 19.0007321,18.7137984 19,18 L19,9 L21,9 Z" id="Shape" fill="#CAD9FC"/><path d="M24.83,5.34 L23,9 L19,9 L17.17,5.34 C16.7060564,4.41069517 16.7558203,3.30752737 17.3015513,2.42376899 C17.8472823,1.54001062 18.8113234,1.00141951 19.85,1 L22.15,1 C23.1886766,1.00141951 24.1527177,1.54001062 24.6984487,2.42376899 C25.2441797,3.30752737 25.2939436,4.41069517 24.83,5.34 Z" id="Shape" fill="#7FACFA"/><path d="M22.83,5.34 L21,9 L19,9 L17.17,5.34 C16.7060564,4.41069517 16.7558203,3.30752737 17.3015513,2.42376899 C17.8472823,1.54001062 18.8113234,1.00141951 19.85,1 L20.15,1 C21.1886766,1.00141951 22.1527177,1.54001062 22.6984487,2.42376899 C23.2441797,3.30752737 23.2939436,4.41069517 22.83,5.34 Z" id="Shape" fill="#A4C2F7"/><path d="M1.782,59 L4.782,59 C4.37695299,59.0316359 3.99808221,58.7972425 3.84557851,58.4206704 C3.69307482,58.0440983 3.80208121,57.612125 4.115,57.353 L9.904,52.653 C10.0931206,52.501413 10.3286305,52.4194965 10.571,52.4209797 L7.571,52.421 C7.32863051,52.4194965 7.09312062,52.501413 6.904,52.653 L1.115,57.353 C0.802081212,57.612125 0.69307482,58.0440983 0.845578514,58.4206704 C0.998082208,58.7972425 1.37695299,59.0316359 1.782,59 Z" id="Shape" fill="#FFFFFF"/><path d="M20.15,1 L19.85,1 C18.8113234,1.00141951 17.8472823,1.54001062 17.3015513,2.42376899 C16.7558203,3.30752737 16.7060564,4.41069517 17.17,5.34 L19,9 L19,13 L18,13 C17.0061049,13.0042675 16.1661435,13.7377429 16.028,14.722 C15.9244987,14.7149895 15.8205404,14.7244402 15.72,14.75 C15.11,14.93 14.51,15.13 13.93,15.36 C11.5421773,16.3185992 9.3772487,17.758481 7.57,19.59 C3.51187772,23.6216299 1.49602169,29.2730496 2.08652286,34.9628391 C2.67702402,40.6526286 5.81045603,45.7696417 10.61,48.882 L10.61,52.422 L13.61,52.422 L13.61,48.882 C8.81830951,45.7635954 5.69138714,40.6478283 5.10122579,34.9613132 C4.51106445,29.274798 6.52080546,23.6259346 10.57,19.59 C12.3772487,17.758481 14.5421773,16.3185992 16.93,15.36 C17.51,15.13 18.11,14.93 18.72,14.75 C18.8205404,14.7244402 18.9244987,14.7149895 19.028,14.722 C19.1661435,13.7377429 20.0061049,13.0042675 21,13 L22,13 L22,9 L20.17,5.34 C19.7347001,4.46650925 19.7515004,3.43586599 20.2150387,2.57702703 C20.678577,1.71818808 21.5309125,1.13850543 22.5,1.023 C22.3838609,1.00873396 22.2670072,1.00105501 22.15,1 L20.15,1 Z" id="Shape" fill="#FFFFFF"/><path d="M2,33 C2.00747546,24.5414755 7.59998449,17.1042209 15.724,14.749 L16.276,16.671 C9.00939864,18.7803514 4.00766306,25.433442 4,33 L2,33 Z" id="Shape" fill="#FFFFFF"/><path d="M3.7,28.066 C3.43816144,27.9905688 3.15667711,28.0286281 2.92427217,28.1708858 C2.69186724,28.3131435 2.52993077,28.546507 2.478,28.814 C2.16962363,30.1882574 2.00937575,31.5915997 2,33 L4,33 C4.0090554,31.7396664 4.15253385,30.4838947 4.428,29.254 C4.52517828,28.7300367 4.21097133,28.2172924 3.7,28.066 Z" id="Shape" fill="#428DFF"/><path d="M16.276,16.671 L15.724,14.749 C12.2583519,15.7683767 9.14885085,17.7410075 6.75,20.442 L6.077,21.255 C5.90523656,21.4661895 5.82853107,21.7390461 5.86509178,22.0087997 C5.90165248,22.2785533 6.04821914,22.521149 6.27,22.679 C6.70771759,22.9851686 7.30711996,22.9042623 7.648,22.493 L8.248,21.765 C10.3948198,19.349483 13.176186,17.5846251 16.276,16.671 Z" id="Shape" fill="#428DFF"/><path d="M3.856,24.834 C3.73339311,25.0808115 3.71501864,25.3665164 3.805,25.627 L3.898,25.801 C3.93451069,25.8589006 3.97894119,25.9114094 4.03,25.957 C4.07160455,26.0058884 4.12051522,26.0480527 4.175,26.082 C4.23143681,26.1182264 4.29061676,26.1499896 4.352,26.177 C4.59497984,26.2727245 4.86457945,26.2762812 5.11,26.187 C5.22617738,26.1363377 5.33432158,26.0689581 5.431,25.987 C5.72261061,25.7316461 5.82849133,25.3239855 5.698,24.959 C5.650152,24.8368186 5.58258858,24.723312 5.498,24.623 C5.41732831,24.5215909 5.31784221,24.4367052 5.205,24.373 C4.97027067,24.2457061 4.69416618,24.2183119 4.439,24.297 C4.18499667,24.3978256 3.97731539,24.5891203 3.856,24.834 Z" id="Shape" fill="#428DFF"/><path d="M21,52 C10.5113874,51.9884265 2.0115735,43.4886126 2,33 C2,32.4477153 2.44771525,32 3,32 C3.55228475,32 4,32.4477153 4,33 C3.99924825,41.7717651 10.6725986,49.1038991 19.4057043,49.9265336 C28.13881,50.7491682 36.0639598,44.7921726 37.7012392,36.174564 C39.3385186,27.5569553 34.1502901,19.1085188 25.724,16.671 C25.3749436,16.5772961 25.1036099,16.302539 25.0142897,15.9523353 C24.9249695,15.6021315 25.0315637,15.2309831 25.2931012,14.981546 C25.5546388,14.7321089 25.9304168,14.6432028 26.276,14.749 C35.3646907,17.3794147 41.1329638,26.2962683 39.8061126,35.6644509 C38.4792615,45.0326336 30.4616791,51.9969443 21,52 Z" id="Shape" fill="#428DFF"/><path d="M9,39 C8.59666276,39.0002021 8.23268814,38.7580782 8.077,38.386 C6.64810337,34.9585048 6.6394513,31.1037353 8.05294752,27.6698603 C9.46644373,24.2359853 12.1862771,21.5043504 15.614,20.076 C16.1237588,19.8628181 16.7098181,20.1032412 16.923,20.613 C17.1361819,21.1227588 16.8957588,21.7088181 16.386,21.922 C13.4480303,23.1458004 11.1165603,25.4866032 9.90450672,28.4294385 C8.69245315,31.3722738 8.6991054,34.6760695 9.923,37.614 C10.0521973,37.9227676 10.018352,38.275698 9.83282863,38.5542845 C9.6473053,38.832871 9.3347078,39.0001678 9,39 Z" id="Shape" fill="#428DFF"/><path d="M21,47 C19.150852,47.0033304 17.3196759,46.6371631 15.614,45.923 C15.1045173,45.7098181 14.8643181,45.1239827 15.0775,44.6145 C15.2906819,44.1050173 15.8765173,43.8648181 16.386,44.078 C17.847235,44.689593 19.4159405,45.0030621 21,45 C27.624447,44.9928352 32.9928352,39.624447 33,33 C33,32.4477153 33.4477153,32 34,32 C34.5522847,32 35,32.4477153 35,33 C34.9917327,40.7285595 28.7285595,46.9917327 21,47 Z" id="Shape" fill="#428DFF"/><path d="M32,27.079 C31.6561552,27.0793041 31.3362692,26.9029326 31.153,26.612 C29.8271615,24.5210993 27.8942452,22.8850985 25.613,21.923 C25.2832439,21.7850955 25.0521078,21.4817436 25.0066586,21.1272142 C24.9612093,20.7726847 25.1083517,20.4208391 25.3926586,20.2042142 C25.6769654,19.9875893 26.0552439,19.9390955 26.385,20.077 C29.0514789,21.1885847 31.3082138,23.0987747 32.845,25.545 C33.0395281,25.852997 33.0511811,26.2424109 32.8754179,26.5614887 C32.6996547,26.8805665 32.3642846,27.0788235 32,27.079 Z" id="Shape" fill="#428DFF"/><path d="M31,56 L11,56 C10.4477153,56 10,55.5522847 10,55 L10,47.96 C10,47.4077153 10.4477153,46.96 11,46.96 C11.5522847,46.96 12,47.4077153 12,47.96 L12,54 L30,54 L30,47.96 C30,47.4077153 30.4477153,46.96 31,46.96 C31.5522847,46.96 32,47.4077153 32,47.96 L32,55 C32,55.5522847 31.5522847,56 31,56 Z" id="Shape" fill="#428DFF"/><path d="M39.714,60 L2.286,60 C1.45510183,59.9979772 0.711999031,59.4824248 0.419179334,58.7048308 C0.126359637,57.9272367 0.344822063,57.0495863 0.968,56.5 L6.684,51.5 C7.04709227,51.1785548 7.51506449,51.0007538 8,51 L11,51 C11.5522847,51 12,51.4477153 12,52 C12,52.5522847 11.5522847,53 11,53 L8,53 L2.285,58 L39.714,58 L34,53 L31,53 C30.4477153,53 30,52.5522847 30,52 C30,51.4477153 30.4477153,51 31,51 L34,51 C34.4856247,51.0002662 34.9543916,51.1780989 35.318,51.5 L41.031,56.5 C41.6540429,57.049465 41.8725612,57.9268676 41.58,58.704365 C41.2874389,59.4818624 40.5447155,59.9975635 39.714,60 Z" id="Shape" fill="#428DFF"/><path d="M21,29 C17.6876624,28.9966926 15.0033074,26.3123376 15,23 L15,15 C15,13.3431458 16.3431458,12 18,12 L19,12 C19.5522847,12 20,12.4477153 20,13 C20,13.5522847 19.5522847,14 19,14 L18,14 C17.4477153,14 17,14.4477153 17,15 L17,23 C17,25.209139 18.790861,27 21,27 C23.209139,27 25,25.209139 25,23 L25,15 C25,14.4477153 24.5522847,14 24,14 L23,14 C22.4477153,14 22,13.5522847 22,13 C22,12.4477153 22.4477153,12 23,12 L24,12 C25.6568542,12 27,13.3431458 27,15 L27,23 C26.9966926,26.3123376 24.3123376,28.9966926 21,29 Z" id="Shape" fill="#428DFF"/><path d="M22.12,34 L19.88,34 C18.8703707,33.9971989 18.0211521,33.242338 17.9,32.24 L17.281,27.315 C17.2479045,27.0517594 17.3207752,26.7861566 17.4835707,26.5766606 C17.6463662,26.3671646 17.885741,26.230949 18.149,26.198 C18.4126095,26.1618261 18.6796752,26.2333973 18.889868,26.3965461 C19.1000608,26.5596949 19.2356476,26.8006569 19.266,27.065 L19.886,31.995 L22.124,31.995 L22.742,27.06 C22.7726154,26.7957732 22.9082699,26.5549817 23.1183953,26.3918853 C23.3285206,26.2287888 23.5954379,26.1571097 23.859,26.193 C24.122259,26.225949 24.3616338,26.3621646 24.5244293,26.5716606 C24.6872248,26.7811566 24.7600955,27.0467594 24.727,27.31 L24.107,32.24 C23.9855243,33.2449845 23.1322992,34.000735 22.12,34 Z" id="Shape" fill="#428DFF"/><path d="M23,10 L19,10 C18.620974,10.0001766 18.2744246,9.78605165 18.105,9.447 L16.276,5.789 C15.6559307,4.54898765 15.7221801,3.07631744 16.4510856,1.89698995 C17.1799911,0.71766245 18.4675958,-0.000126182532 19.854,0 L22.146,0 C23.5324042,-0.000126182532 24.8200089,0.71766245 25.5489144,1.89698995 C26.2778199,3.07631744 26.3440693,4.54898765 25.724,5.789 L23.9,9.447 C23.7297741,9.78766936 23.3808256,10.0020788 23,10 Z M19.618,8 L22.382,8 L23.935,4.895 C24.2472563,4.2754201 24.2139035,3.53786764 23.847,2.949 C23.4881436,2.35367852 22.8410769,1.99267545 22.146,2 L19.854,2 C19.1592784,1.99303115 18.5126747,2.35398811 18.154,2.949 C17.7870965,3.53786764 17.7537437,4.2754201 18.066,4.895 L19.618,8 Z" id="Shape" fill="#428DFF"/><path d="M21,21 C19.3431458,21 18,19.6568542 18,18 L18,9 C18,8.44771525 18.4477153,8 19,8 L23,8 C23.5522847,8 24,8.44771525 24,9 L24,18 C24,19.6568542 22.6568542,21 21,21 Z M20,10 L20,18 C20,18.5522847 20.4477153,19 21,19 C21.5522847,19 22,18.5522847 22,18 L22,10 L20,10 Z" id="Shape" fill="#428DFF"/></g></g></svg>
