<?xml version="1.0" encoding="UTF-8"?>
<svg xmlns="http://www.w3.org/2000/svg" xmlns:xlink="http://www.w3.org/1999/xlink" width="512" height="512" viewBox="0 0 34 60" version="1.1"><!-- Generator: Sketch 51.3 (57544) - http://www.bohemiancoding.com/sketch --><title>019 - Demijohn</title><desc>Created with Sketch.</desc><defs/><g id="Page-1" stroke="none" stroke-width="1" fill="none" fill-rule="evenodd"><g id="019---Demijohn" fill-rule="nonzero"><path d="M33,29 L33,50 C33,54.78 26.38,58.69 18,58.98 C17.67,58.99 17.34,59 17,59 C16.49,59 15.98,58.99 15.48,58.96 C7.35,58.53 1,54.68 1,50 L1,29 C0.997017419,25.8212485 2.16463313,22.7526974 4.28,20.38 C4.36,20.44 4.62,20.39 4.97,20.29 C6.19,19.92 8.59,18.82 9,19 C8.89,19.15 8.76,19.31 8.63,19.48 L8.62,19.49 C8.22,20 7.72,20.61 7.19,21.27 C9.55,20.9 12.73,18.38 16.24,18.05 C16.4923252,18.0217195 16.7461002,18.008363 17,18.01 C17.32,18.01 17.64,18.01 17.95,18 L18.05,18 C23.24,17.87 27.65,21.83 29.72,20.38 C29.94,20.63 30.15,20.88 30.34,21.14 C32.0687905,23.3951833 33.0039331,26.1584243 33,29 Z" id="Shape" fill="#CAD9FC"/><path d="M30,29 L30,50 C30,54.69 23.63,58.54 15.48,58.96 C7.35,58.53 1,54.68 1,50 L1,29 C0.997017419,25.8212485 2.16463313,22.7526974 4.28,20.38 C4.36,20.44 4.62,20.39 4.97,20.29 C4.73,20.6 4.47,20.93 4.19,21.27 C5.73329305,20.8582297 7.22085423,20.2605189 8.62,19.49 L8.63,19.48 C10.2942565,18.6115565 12.1254632,18.1102765 14,18.01 C14.32,18.01 14.64,18.01 14.95,18 L15.05,18 C15.4473606,17.9864837 15.8451738,18.0031985 16.24,18.05 C20.91,18.45 24.81,21.72 26.72,20.38 C26.94,20.63 27.15,20.88 27.34,21.14 C29.0687905,23.3951833 30.0039331,26.1584243 30,29 Z" id="Shape" fill="#E8EDFC"/><path d="M29.72,20.38 C29.37,19.99 29,19.62 28.61,19.26 C28.6,19.26 28.59,19.25 28.58,19.24 C27.3684984,18.1751694 25.9720964,17.3413954 24.46,16.78 C24.41,16.76 24.37,16.74 24.32,16.72 C23.2293805,16.2448603 22.4908271,15.205685 22.4007088,14.0194779 C22.3105906,12.8332709 22.8836778,11.694448 23.89,11.06 C23.96,11.02 24,11 24,11 C24.2388378,10.9986514 24.4768506,10.9718331 24.71,10.92 C26.061787,10.5881336 27.0091269,9.37189802 27,7.98 C26.9977655,7.80226804 26.9810435,7.62501414 26.95,7.45 C26.871306,7.00919768 26.6934982,6.59203329 26.43,6.23 C25.9664544,5.6016087 25.2790121,5.17553767 24.51,5.04 C23.6818,4.9004448 22.8330244,5.11445233 22.17,5.63 C21.8526367,5.86411299 21.5899133,6.16436827 21.4,6.51 C21.5567489,6.51051995 21.7122791,6.53756867 21.86,6.59 L21.87,6.59 C22.0509612,6.64881076 22.22267,6.73298174 22.38,6.84 C22.7533517,6.31560886 23.3562853,6.00297662 24,6 C24.196887,5.99899568 24.3926759,6.02937672 24.58,6.09 L24.59,6.09 C25.0944165,6.24775018 25.5176254,6.59564219 25.77,7.06 C25.9231971,7.34950119 26.0022216,7.67247082 26,8 C25.9967052,9.10320187 25.1032019,9.9967052 24,10 C23.9597403,10.0016438 23.9194323,9.99828475 23.88,9.99 C23.4743342,10.7070614 22.7903448,11.2245772 21.99,11.42 C21.7568506,11.4718331 21.5188378,11.4986514 21.28,11.5 C21.28,11.5 21.24,11.52 21.17,11.56 C20.1636778,12.194448 19.5905906,13.3332709 19.6807088,14.5194779 C19.7708271,15.705685 20.5093805,16.7448603 21.6,17.22 C21.65,17.24 21.69,17.26 21.74,17.28 C23.2520964,17.8413954 24.6484984,18.6751694 25.86,19.74 C25.87,19.75 25.88,19.76 25.89,19.76 C26.28,20.12 26.65,20.49 27,20.88 C25.6410466,21.7259031 24.1401781,22.318797 22.57,22.63 C25.0882416,22.4070939 27.5279165,21.6393641 29.72,20.38 Z M9.46,5.05 C8.98310107,5.13147432 8.53531637,5.33469969 8.16,5.64 C7.84777899,5.87563586 7.58595546,6.17146244 7.39,6.51 C7.22678769,6.80298022 7.11197548,7.12040221 7.05,7.45 C6.84998406,8.52660099 7.25244363,9.62665717 8.1,10.32 C8.42386441,10.1759074 8.70346353,9.94808594 8.91,9.66 C8.65033711,9.50200818 8.4338833,9.2821186 8.28,9.02 C8.09575754,8.7117416 7.99895955,8.35912037 8,8 C7.9967805,7.5838165 8.12639573,7.17745523 8.37,6.84 C8.57653647,6.55191406 8.85613559,6.32409256 9.18,6.18 C9.43639367,6.05931729 9.7166324,5.99780147 10,6 C10.2002154,5.99823762 10.3994158,6.02862413 10.59,6.09 C10.7207871,6.13296404 10.847871,6.18647306 10.97,6.25 C11.1896289,5.96343351 11.4887129,5.7478148 11.83,5.63 C11.161128,5.10286742 10.2967076,4.8913215 9.46,5.05 Z" id="Shape" fill="#7FACFA"/><path d="M22.17,5.63 C22.0460635,5.58946002 21.918954,5.55935512 21.79,5.54 C21.2658947,5.45089402 20.727524,5.50266044 20.23,5.69 C20.3333465,5.80072733 20.4208458,5.92524558 20.49,6.06 C20.5086592,6.09229929 20.5253561,6.12569309 20.54,6.16 L20.74,6.58 C20.915226,6.52754762 21.0970928,6.50060439 21.28,6.5 C21.3202597,6.49835624 21.3605677,6.50171525 21.4,6.51 C21.5567489,6.51051995 21.7122791,6.53756867 21.86,6.59 L21.87,6.59 C22.0509612,6.64881076 22.22267,6.73298174 22.38,6.84 C22.5803017,6.55006889 22.8572881,6.32155511 23.18,6.18 C22.8817551,5.93354016 22.5388473,5.74680817 22.17,5.63 Z M11.83,5.63 C12.0527092,5.79935394 12.2482906,6.00167955 12.41,6.23 C12.6308927,6.52684247 12.7937457,6.86272683 12.89,7.22 L13.17,6.67 L13.45,6.11 C13.563951,5.87431402 13.7277247,5.66618487 13.93,5.5 L12.52,5.5 C12.2836172,5.49671309 12.0489804,5.54092002 11.83,5.63 Z M8.16,5.64 C7.84777899,5.87563586 7.58595546,6.17146244 7.39,6.51 C7.55327288,6.51054049 7.71537739,6.53755791 7.87,6.59 C8.04866884,6.6467865 8.21736949,6.73113683 8.37,6.84 C8.57653647,6.55191406 8.85613559,6.32409256 9.18,6.18 C8.88525716,5.92511366 8.53649116,5.74047284 8.16,5.64 Z" id="Shape" fill="#CAD9FC"/><path d="M27,20.88 C25.6410466,21.7259031 24.1401781,22.318797 22.57,22.63 C20.7241323,22.8820777 18.8629917,23.0057082 17,23 C13.1684908,23.1126215 9.35055744,22.4949647 5.75,21.18 C5.23342852,20.9653553 4.74074402,20.6972277 4.28,20.38 C5.70848612,18.7632986 7.51582633,17.5263357 9.54,16.78 C10.4549874,16.4321181 11.1615577,15.6862104 11.4594049,14.7537347 C11.757252,13.8212591 11.6139045,12.8038745 11.07,11.99 C10.8226199,11.6128976 10.4947638,11.295287 10.11,11.06 C10.04,11.02 10,11 10,11 C9.60836796,11.0010961 9.22057145,10.9228564 8.86,10.77 C8.58426704,10.6615362 8.32768449,10.5096123 8.1,10.32 C8.42386441,10.1759074 8.70346353,9.94808594 8.91,9.66 C9.08664688,9.79686042 9.29164037,9.89252405 9.51,9.94 C9.67010177,9.98083833 9.83477488,10.0010024 10,10 C11.1032019,9.9967052 11.9967052,9.10320187 12,8 C12.0022216,7.67247082 11.9231971,7.34950119 11.77,7.06 C11.5868754,6.71861233 11.3090866,6.43735116 10.97,6.25 C11.1896289,5.96343351 11.4887129,5.7478148 11.83,5.63 C12.0527092,5.79935394 12.2482906,6.00167955 12.41,6.23 C12.6308927,6.52684247 12.7937457,6.86272683 12.89,7.22 L13.17,6.67 L13.45,6.11 C13.563951,5.87431402 13.7277247,5.66618487 13.93,5.5 C14.2902206,5.17774241 14.7566691,4.99970864 15.24,5 L18.72,5 C19.2992429,5.00167836 19.8496025,5.25316721 20.23,5.69 C20.3333465,5.80072733 20.4208458,5.92524558 20.49,6.06 C20.5086592,6.09229929 20.5253561,6.12569309 20.54,6.16 L20.74,6.58 L21.08,7.32 C21.1405974,7.05115868 21.2381941,6.79202254 21.37,6.55 C21.38,6.54 21.39,6.52 21.4,6.51 C21.5567489,6.51051995 21.7122791,6.53756867 21.86,6.59 L21.87,6.59 C22.0509612,6.64881076 22.22267,6.73298174 22.38,6.84 C22.2108317,7.07191704 22.094755,7.3382105 22.04,7.62 C22.0113529,7.74458371 21.9979215,7.87218202 22,8 C22.0031573,8.67181372 22.3406001,9.29795774 22.9,9.67 C23.0876486,9.79192671 23.2935795,9.88307646 23.51,9.94 C23.6306364,9.97267505 23.7550179,9.98948335 23.88,9.99 C23.4743342,10.7070614 22.7903448,11.2245772 21.99,11.42 C21.7568506,11.4718331 21.5188378,11.4986514 21.28,11.5 C21.28,11.5 21.24,11.52 21.17,11.56 C20.1636778,12.194448 19.5905906,13.3332709 19.6807088,14.5194779 C19.7708271,15.705685 20.5093805,16.7448603 21.6,17.22 C21.65,17.24 21.69,17.26 21.74,17.28 C23.2520964,17.8413954 24.6484984,18.6751694 25.86,19.74 C25.87,19.75 25.88,19.76 25.89,19.76 C26.28,20.12 26.65,20.49 27,20.88 Z" id="Shape" fill="#A4C2F7"/><path d="M20.28,2.45 L19,5 L15,5 L13.72,2.45 C13.5632203,2.13889064 13.5796532,1.76861073 13.7633761,1.47261275 C13.947099,1.17661477 14.2716281,0.997567004 14.62,1 L19.38,1 C19.7283719,0.997567004 20.052901,1.17661477 20.2366239,1.47261275 C20.4203468,1.76861073 20.4367797,2.13889064 20.28,2.45 Z" id="Shape" fill="#CAD9FC"/><path d="M18.28,2.45 L17,5 L15,5 L13.72,2.45 C13.5632203,2.13889064 13.5796532,1.76861073 13.7633761,1.47261275 C13.947099,1.17661477 14.2716281,0.997567004 14.62,1 L17.38,1 C17.7283719,0.997567004 18.052901,1.17661477 18.2366239,1.47261275 C18.4203468,1.76861073 18.4367797,2.13889064 18.28,2.45 Z" id="Shape" fill="#E8EDFC"/><path d="M1,50 C1,54.68 7.35,58.53 15.48,58.96 C15.98,58.99 16.49,59 17,59 C17.34,59 17.67,58.99 18,58.98 C18.139,58.98 18.273,58.961 18.411,58.954 C10.315,58.506 4,54.667 4,50 L4,29 C4.01606868,23.543142 7.42115405,18.6707599 12.54,16.78 C13.4549874,16.4321181 14.1615577,15.6862104 14.4594049,14.7537347 C14.757252,13.8212591 14.6139045,12.8038745 14.07,11.99 C13.8226199,11.6128976 13.4947638,11.295287 13.11,11.06 C13.04,11.02 13,11 13,11 C12.608368,11.0010961 12.2205715,10.9228564 11.86,10.77 C11.584267,10.6615362 11.3276845,10.5096123 11.1,10.32 C10.9417326,10.1869083 10.7973311,10.0381514 10.669,9.876 C10.4548201,9.95560642 10.2284825,9.99755839 10,10 C9.83477488,10.0010024 9.67010177,9.98083833 9.51,9.94 C9.29164037,9.89252405 9.08664688,9.79686042 8.91,9.66 C8.65033711,9.50200818 8.4338833,9.2821186 8.28,9.02 C8.09575754,8.7117416 7.99895955,8.35912037 8,8 C7.9967805,7.5838165 8.12639573,7.17745523 8.37,6.84 C8.57653647,6.55191406 8.85613559,6.32409256 9.18,6.18 C9.43639367,6.05931729 9.7166324,5.99780147 10,6 C10.2002154,5.99823762 10.3994158,6.02862413 10.59,6.09 C10.617,6.098 10.642,6.113 10.669,6.123 C10.8124658,5.94267683 10.9773446,5.78048441 11.16,5.64 C11.2702656,5.55996241 11.3862422,5.48810373 11.507,5.425 C10.8932738,5.05443504 10.1652327,4.9210616 9.46,5.05 C8.98310107,5.13147432 8.53531637,5.33469969 8.16,5.64 C7.84777899,5.87563586 7.58595546,6.17146244 7.39,6.51 C7.22678769,6.80298022 7.11197548,7.12040221 7.05,7.45 C6.84998406,8.52660099 7.25244363,9.62665717 8.1,10.32 C8.32768449,10.5096123 8.58426704,10.6615362 8.86,10.77 C9.22057145,10.9228564 9.60836796,11.0010961 10,11 C10,11 10.04,11.02 10.11,11.06 C10.4947638,11.295287 10.8226199,11.6128976 11.07,11.99 C11.6139045,12.8038745 11.757252,13.8212591 11.4594049,14.7537347 C11.1615577,15.6862104 10.4549874,16.4321181 9.54,16.78 C4.42115405,18.6707599 1.01606868,23.543142 1,29 L1,50 Z" id="Shape" fill="#FFFFFF"/><path d="M14.83,5.63 C15.0489804,5.54092002 15.2836172,5.49671309 15.52,5.5 L16.93,5.5 C17.2902206,5.17774241 17.7566691,4.99970864 18.24,5 L18,5 L16.72,2.45 C16.5632203,2.13889064 16.5796532,1.76861073 16.7633761,1.47261275 C16.947099,1.17661477 17.2716281,0.997567004 17.62,1 L14.62,1 C14.2716281,0.997567004 13.947099,1.17661477 13.7633761,1.47261275 C13.5796532,1.76861073 13.5632203,2.13889064 13.72,2.45 L15,5 L15.24,5 C14.887847,4.99992046 14.5422586,5.09530286 14.24,5.276 C14.4500795,5.37005024 14.6481535,5.48889463 14.83,5.63 Z" id="Shape" fill="#FFFFFF"/><path d="M17,60 C7.468,60 0,55.607 0,50 C0,49.4477153 0.44771525,49 1,49 C1.55228475,49 2,49.4477153 2,50 C2,54.336 8.869,58 17,58 C25.131,58 32,54.336 32,50 C32,49.4477153 32.4477153,49 33,49 C33.5522847,49 34,49.4477153 34,50 C34,55.607 26.532,60 17,60 Z" id="Shape" fill="#428DFF"/><path d="M10,12 C7.790861,12 6,10.209139 6,8 C6,5.790861 7.790861,4 10,4 C12.209139,4 14,5.790861 14,8 C14,8.55228475 13.5522847,9 13,9 C12.4477153,9 12,8.55228475 12,8 C12,6.8954305 11.1045695,6 10,6 C8.8954305,6 8,6.8954305 8,8 C8,9.1045695 8.8954305,10 10,10 C10.5522847,10 11,10.4477153 11,11 C11,11.5522847 10.5522847,12 10,12 Z" id="Shape" fill="#428DFF"/><path d="M24,12 C23.4477153,12 23,11.5522847 23,11 C23,10.4477153 23.4477153,10 24,10 C25.1045695,10 26,9.1045695 26,8 C26,6.8954305 25.1045695,6 24,6 C22.8954305,6 22,6.8954305 22,8 C22,8.55228475 21.5522847,9 21,9 C20.4477153,9 20,8.55228475 20,8 C20,5.790861 21.790861,4 24,4 C26.209139,4 28,5.790861 28,8 C28,10.209139 26.209139,12 24,12 Z" id="Shape" fill="#428DFF"/><polygon id="Shape" fill="#FFFFFF" points="0 50 0 37 0 29 2 29 2 37 2 50"/><path d="M1,45 C0.44771525,45 0,45.4477153 0,46 L0,50 L2,50 L2,46 C2,45.4477153 1.55228475,45 1,45 Z" id="Shape" fill="#428DFF"/><path d="M2,29 L0,29 L0,38 C0,38.5522847 0.44771525,39 1,39 C1.55228475,39 2,38.5522847 2,38 L2,29 Z" id="Shape" fill="#428DFF"/><path d="M0,42 C0.0038803852,42.2647269 0.107434956,42.518257 0.29,42.71 L0.44,42.83 C0.495727127,42.8678773 0.556261922,42.8981446 0.62,42.92 C0.676662423,42.9488877 0.737337452,42.9691127 0.8,42.98 C0.86614452,42.9911308 0.932961153,42.9978125 1,43 C1.26472686,42.9961196 1.51825702,42.892565 1.71,42.71 C1.80039684,42.6143929 1.87167695,42.5023813 1.92,42.38 C2.07087658,42.0070263 1.98864806,41.5802212 1.71,41.29 C1.61439291,41.1996032 1.50238132,41.128323 1.38,41.08 C1.25977769,41.028759 1.13067726,41.00158 1,41 C0.733964659,40.9972989 0.478038353,41.1017882 0.289913264,41.2899133 C0.101788174,41.4780384 -0.00270107592,41.7339647 0,42 Z" id="Shape" fill="#428DFF"/><path d="M1,30 C0.44771525,30 0,29.5522847 0,29 C0.0135107614,23.124688 3.67911207,17.8773464 9.191,15.843 C9.96939524,15.5432369 10.512839,14.8309219 10.5963183,14.0009892 C10.6797977,13.1710565 10.2891025,12.3647806 9.586,11.916 C9.09405445,11.6587814 8.89702513,11.0561557 9.142,10.558 C9.25718499,10.3226377 9.46182956,10.1432072 9.71023039,10.0597806 C9.95863123,9.97635398 10.2300966,9.99588076 10.464,10.114 C10.464,10.114 10.528,10.147 10.637,10.214 C11.9917421,11.0652453 12.7470377,12.6107058 12.5863009,14.2025942 C12.4255641,15.7944825 11.3765662,17.1577592 9.879,17.721 C5.1540442,19.4651813 2.01178465,23.9634102 2,29 C2,29.5522847 1.55228475,30 1,30 Z" id="Shape" fill="#428DFF"/><path d="M33,51 C32.4477153,51 32,50.5522847 32,50 L32,29 C31.9882154,23.9634102 28.8459558,19.4651813 24.121,17.721 C22.6234338,17.1577592 21.5744359,15.7944825 21.4136991,14.2025942 C21.2529623,12.6107058 22.0082579,11.0652453 23.363,10.214 C23.472,10.147 23.536,10.114 23.536,10.114 C24.0253243,9.85773991 24.6297398,10.0466758 24.886,10.536 C25.1422601,11.0253243 24.9533243,11.6297399 24.464,11.886 C23.7206955,12.3165645 23.3029834,13.1464924 23.4,14 C23.466433,14.8344355 24.0135017,15.5534402 24.8,15.84 C30.3164609,17.8717584 33.9863482,23.1212929 34,29 L34,50 C34,50.5522847 33.5522847,51 33,51 Z" id="Shape" fill="#428DFF"/><path d="M21,8 C20.6191744,8.00207881 20.2702259,7.78766936 20.1,7.447 L19.382,6 L14.618,6 L13.9,7.447 C13.6531287,7.94129485 13.0522949,8.14187128 12.558,7.895 C12.0637051,7.64812872 11.8631287,7.04729485 12.11,6.553 L13.11,4.553 C13.2786168,4.2155552 13.6227763,4.00171228 14,4 L20,4 C20.3808256,3.99792119 20.7297741,4.21233064 20.9,4.553 L21.9,6.553 C22.0553431,6.86385882 22.0381628,7.23307643 21.8546237,7.52816644 C21.6710847,7.82325645 21.3475069,8.00190212 21,8 Z" id="Shape" fill="#428DFF"/><path d="M15,6 C14.6191744,6.00207881 14.2702259,5.78766936 14.1,5.447 L12.829,2.9 C12.5163441,2.27953382 12.5481037,1.5412605 12.9128891,0.949936946 C13.2776746,0.358613389 13.9232116,-0.00102272336 14.618,-2.22044605e-16 L17,-2.22044605e-16 C17.5522847,-1.88226815e-16 18,0.44771525 18,1 C18,1.55228475 17.5522847,2 17,2 L14.618,2 L15.9,4.553 C16.0553431,4.86385882 16.0381628,5.23307643 15.8546237,5.52816644 C15.6710847,5.82325645 15.3475069,6.00190212 15,6 Z" id="Shape" fill="#428DFF"/><path d="M19,6 C18.6535599,5.99981504 18.3318963,5.82033216 18.1498055,5.52560567 C17.9677146,5.23087919 17.9511412,4.86290246 18.106,4.553 L19.382,2 L17,2 C16.4477153,2 16,1.55228475 16,1 C16,0.44771525 16.4477153,1.01453063e-16 17,0 L19.382,0 C20.0750582,2.35338885e-05 20.7187034,0.358850377 21.083126,0.948363537 C21.4475486,1.5378767 21.480797,2.27403595 21.171,2.894 L19.9,5.447 C19.7297741,5.78766936 19.3808256,6.00207881 19,6 Z" id="Shape" fill="#428DFF"/><path d="M19,13 L15,13 C14.4477153,13 14,12.5522847 14,12 C14,11.4477153 14.4477153,11 15,11 L19,11 C19.5522847,11 20,11.4477153 20,12 C20,12.5522847 19.5522847,13 19,13 Z" id="Shape" fill="#428DFF"/><path d="M17,24 C11.264,24 6.169,22.927 3.706,21.2 C3.41339948,20.9949296 3.25242924,20.6493361 3.28372519,20.2934014 C3.31502115,19.9374667 3.53382872,19.6252657 3.85772519,19.4744014 C4.18162167,19.3235372 4.56139948,19.3569296 4.854,19.562 C6.967,21.042 11.733,22 17,22 C22.267,22 27.033,21.042 29.146,19.561 C29.5985974,19.2439886 30.2224885,19.3539027 30.5394999,19.8065 C30.8565114,20.2590974 30.7465973,20.8829885 30.294,21.2 C27.831,22.927 22.736,24 17,24 Z" id="Shape" fill="#428DFF"/><path d="M5,33 C4.44771525,33 4,32.5522847 4,32 C4,26.976 4.989,25.6 5.293,25.293 C5.67395345,24.916097 6.28429963,24.9064936 6.67692219,25.2712249 C7.06954474,25.6359563 7.10486117,26.2453555 6.757,26.653 C6.69,26.755 6,27.923 6,32 C6,32.5522847 5.55228475,33 5,33 Z" id="Shape" fill="#428DFF"/><path d="M5,38 C4.44771525,38 4,37.5522847 4,37 L4,36 C4,35.4477153 4.44771525,35 5,35 C5.55228475,35 6,35.4477153 6,36 L6,37 C6,37.5522847 5.55228475,38 5,38 Z" id="Shape" fill="#428DFF"/><path d="M5,53 C4.59373493,53.0023626 4.22641996,52.7586962 4.07062905,52.3834815 C3.91483814,52.0082668 4.00154005,51.5760905 4.29,51.29 C4.33737476,51.2472348 4.38712017,51.2071714 4.439,51.17 C4.49518553,51.1322956 4.55602704,51.102043 4.62,51.08 C4.67954668,51.0495504 4.74376529,51.0292708 4.81,51.02 C5.13623595,50.9546756 5.47359625,51.0558837 5.71,51.29 C5.99845995,51.5760905 6.08516186,52.0082668 5.92937095,52.3834815 C5.77358004,52.7586962 5.40626507,53.0023626 5,53 Z" id="Shape" fill="#428DFF"/><path d="M9,55 C8.59373493,55.0023626 8.22641996,54.7586962 8.07062905,54.3834815 C7.91483814,54.0082668 8.00154005,53.5760905 8.29,53.29 C8.33737476,53.2472348 8.38712017,53.2071714 8.439,53.17 C8.49518553,53.1322956 8.55602704,53.102043 8.62,53.08 C8.67954668,53.0495504 8.74376529,53.0292708 8.81,53.02 C9.13623595,52.9546756 9.47359625,53.0558837 9.71,53.29 C9.99845995,53.5760905 10.0851619,54.0082668 9.92937095,54.3834815 C9.77358004,54.7586962 9.40626507,55.0023626 9,55 Z" id="Shape" fill="#428DFF"/><path d="M29,53 C29.4062651,53.0023626 29.77358,52.7586962 29.929371,52.3834815 C30.0851619,52.0082668 29.9984599,51.5760905 29.71,51.29 C29.6626252,51.2472348 29.6128798,51.2071714 29.561,51.17 C29.5048145,51.1322956 29.443973,51.102043 29.38,51.08 C29.3204533,51.0495504 29.2562347,51.0292708 29.19,51.02 C28.863764,50.9546756 28.5264038,51.0558837 28.29,51.29 C28.0015401,51.5760905 27.9148381,52.0082668 28.070629,52.3834815 C28.22642,52.7586962 28.5937349,53.0023626 29,53 Z" id="Shape" fill="#428DFF"/><path d="M25,55 C25.4062651,55.0023626 25.77358,54.7586962 25.929371,54.3834815 C26.0851619,54.0082668 25.9984599,53.5760905 25.71,53.29 C25.6626252,53.2472348 25.6128798,53.2071714 25.561,53.17 C25.5048145,53.1322956 25.443973,53.102043 25.38,53.08 C25.3204533,53.0495504 25.2562347,53.0292708 25.19,53.02 C24.863764,52.9546756 24.5264038,53.0558837 24.29,53.29 C24.0015401,53.5760905 23.9148381,54.0082668 24.070629,54.3834815 C24.22642,54.7586962 24.5937349,55.0023626 25,55 Z" id="Shape" fill="#428DFF"/><path d="M14,56 C13.5937349,56.0023626 13.22642,55.7586962 13.070629,55.3834815 C12.9148381,55.0082668 13.0015401,54.5760905 13.29,54.29 C13.3373748,54.2472348 13.3871202,54.2071714 13.439,54.17 C13.4951855,54.1322956 13.556027,54.102043 13.62,54.08 C13.6795467,54.0495504 13.7437653,54.0292708 13.81,54.02 C14.136236,53.9546756 14.4735962,54.0558837 14.71,54.29 C14.9984599,54.5760905 15.0851619,55.0082668 14.929371,55.3834815 C14.77358,55.7586962 14.4062651,56.0023626 14,56 Z" id="Shape" fill="#428DFF"/><path d="M20,56 C19.5937349,56.0023626 19.22642,55.7586962 19.070629,55.3834815 C18.9148381,55.0082668 19.0015401,54.5760905 19.29,54.29 C19.3373748,54.2472348 19.3871202,54.2071714 19.439,54.17 C19.4951855,54.1322956 19.556027,54.102043 19.62,54.08 C19.6795467,54.0495504 19.7437653,54.0292708 19.81,54.02 C20.136236,53.9546756 20.4735962,54.0558837 20.71,54.29 C20.9984599,54.5760905 21.0851619,55.0082668 20.929371,55.3834815 C20.77358,55.7586962 20.4062651,56.0023626 20,56 Z" id="Shape" fill="#428DFF"/></g></g></svg>
