<?xml version="1.0" encoding="UTF-8"?>
<svg xmlns="http://www.w3.org/2000/svg" xmlns:xlink="http://www.w3.org/1999/xlink" width="512" height="512" viewBox="0 0 50 60" version="1.1"><!-- Generator: Sketch 51.3 (57544) - http://www.bohemiancoding.com/sketch --><title>020 - Blender</title><desc>Created with Sketch.</desc><defs><linearGradient x1="-3.00606061%" y1="6.58883526%" x2="103.006061%" y2="88.2675114%" id="linearGradient-1"><stop stop-color="#D3DFF2" offset="0%"/><stop stop-color="#D3DFF2" offset="17.2%"/><stop stop-color="#D3DFF2" offset="20%"/><stop stop-color="#DAE2F2" offset="20%"/><stop stop-color="#EBEAF2" offset="20.1%"/><stop stop-color="#F6EFF2" offset="20.1%"/><stop stop-color="#FDF2F2" offset="20.2%"/><stop stop-color="#FFF3F2" offset="20.5%"/><stop stop-color="#FFF3F2" offset="25.2%"/><stop stop-color="#FFF3F2" offset="26%"/><stop stop-color="#D3DFF2" offset="26%"/><stop stop-color="#D3DFF2" offset="39.7%"/><stop stop-color="#D3DFF2" offset="42%"/><stop stop-color="#DAE2F2" offset="42%"/><stop stop-color="#EBEAF2" offset="42.1%"/><stop stop-color="#F6EFF2" offset="42.1%"/><stop stop-color="#FDF2F2" offset="42.2%"/><stop stop-color="#FFF3F2" offset="42.5%"/><stop stop-color="#FFF3F2" offset="48.9%"/><stop stop-color="#FFF3F2" offset="50%"/><stop stop-color="#F8F0F2" offset="50%"/><stop stop-color="#E7E8F2" offset="50%"/><stop stop-color="#DCE3F2" offset="50%"/><stop stop-color="#D5E0F2" offset="50%"/><stop stop-color="#D3DFF2" offset="50.1%"/><stop stop-color="#D3DFF2" offset="70.6%"/><stop stop-color="#D3DFF2" offset="74%"/><stop stop-color="#FFF3F2" offset="74.1%"/><stop stop-color="#FFF3F2" offset="83.5%"/><stop stop-color="#FFF3F2" offset="85%"/><stop stop-color="#D3DFF2" offset="85.1%"/></linearGradient></defs><g id="Page-1" stroke="none" stroke-width="1" fill="none" fill-rule="evenodd"><g id="020---Blender" fill-rule="nonzero"><rect id="Rectangle-path" fill="#7FACFA" x="8" y="3" width="34" height="12"/><rect id="Rectangle-path" fill="#A4C2F7" x="8" y="3" width="31" height="12"/><path d="M43,18 L40.13,57.14 C40.0592309,58.1909235 39.1832889,59.0055495 38.13,59 L11.87,59 C10.8167111,59.0055495 9.94076907,58.1909235 9.87,57.14 L7,18 L22.57,16.17 L22.58,16.17 L24,16 L25.58,16.17 L43,18 Z" id="Shape" fill="#CAD9FC"/><path d="M40,18 L37.13,57.14 C37.0592309,58.1909235 36.1832889,59.0055495 35.13,59 L11.87,59 C10.8167111,59.0055495 9.94076907,58.1909235 9.87,57.14 L7,18 L22.57,16.17 L22.58,16.17 L40,18 Z" id="Shape" fill="url(#linearGradient-1)"/><path d="M45,16 L45,17 C45,17.5522847 44.5522847,18 44,18 L6,18 C5.44771525,18 5,17.5522847 5,17 L5,16 C5,14.3431458 6.34314575,13 8,13 L42,13 C43.6568542,13 45,14.3431458 45,16 Z" id="Shape" fill="#7FACFA"/><path d="M42,16 L42,17 C42,17.5522847 41.5522847,18 41,18 L6,18 C5.44771525,18 5,17.5522847 5,17 L5,16 C5,14.3431458 6.34314575,13 8,13 L39,13 C40.6568542,13 42,14.3431458 42,16 Z" id="Shape" fill="#A4C2F7"/><path d="M42,5 L8,5 C6.34314575,5 5,3.65685425 5,2 C5,1.44771525 5.44771525,1 6,1 L44,1 C44.5522847,1 45,1.44771525 45,2 C45,3.65685425 43.6568542,5 42,5 Z" id="Shape" fill="#4482C3"/><path d="M44,2 C44,3.65685425 42.6568542,5 41,5 L7,5 C5.34314575,5 4,3.65685425 4,2 C4,1.44771525 4.44771525,1 5,1 L43,1 C43.2652165,1 43.5195704,1.10535684 43.7071068,1.29289322 C43.8946432,1.4804296 44,1.73478351 44,2 Z" id="Shape" fill="#7FACFA"/><path d="M42,2 C42,3.65685425 40.6568542,5 39,5 L7,5 C5.34314575,5 4,3.65685425 4,2 C4,1.44771525 4.44771525,1 5,1 L41,1 C41.2652165,1 41.5195704,1.10535684 41.7071068,1.29289322 C41.8946432,1.4804296 42,1.73478351 42,2 Z" id="Shape" fill="#A4C2F7"/><path d="M5,1 C4.44771525,1 4,1.44771525 4,2 C4,3.65685425 5.34314575,5 7,5 L8,5 L8,13 C6.34314575,13 5,14.3431458 5,16 L5,17 C5,17.5522847 5.44771525,18 6,18 L7,18 L9.87,57.14 C9.94076907,58.1909235 10.8167111,59.0055495 11.87,59 L14.87,59.0000282 C13.8167111,59.0055495 12.9407691,58.1909235 12.87,57.14 L10,18 L9,18 C8.44771525,18 8,17.5522847 8,17 L8,16 C8,14.3431458 9.34314575,13 11,13 L11,5 L10,5 C8.34314575,5 7,3.65685425 7,2 C7,1.44771525 7.44771525,1 8,1 L5,1 Z" id="Shape" fill="#FFFFFF"/><path d="M38.135,60 L11.865,60 C10.2912568,59.9947978 8.98697825,58.778546 8.872,57.209 L6,18.073 C5.97967845,17.7953789 6.07599387,17.521851 6.26577782,17.3182128 C6.45556177,17.1145746 6.7216371,16.9992572 7,17 L43,17 C43.2783629,16.9992572 43.5444382,17.1145746 43.7342222,17.3182128 C43.9240061,17.521851 44.0203216,17.7953789 44,18.073 L41.13,57.212 C41.0144112,58.7815764 39.7088238,59.9969279 38.135,60 Z M8.076,19 L10.867,57.066 C10.9018141,57.5923555 11.3394957,58.0011501 11.867,58 L38.137,58 C38.6634236,58.0012545 39.1006782,57.5941705 39.137,57.069 L41.924,19 L8.076,19 Z" id="Shape" fill="#428DFF"/><path d="M44,19 L6,19 C4.8954305,19 4,18.1045695 4,17 L4,16 C4,13.790861 5.790861,12 8,12 L42,12 C44.209139,12 46,13.790861 46,16 L46,17 C46,18.1045695 45.1045695,19 44,19 Z M8,14 C6.8954305,14 6,14.8954305 6,16 L6,17 L44,17 L44,16 C44,14.8954305 43.1045695,14 42,14 L8,14 Z" id="Shape" fill="#428DFF"/><path d="M42,6 L8,6 C5.790861,6 4,4.209139 4,2 C4,0.8954305 4.8954305,6.46995335e-16 6,4.4408921e-16 L44,4.4408921e-16 C45.1045695,5.11724585e-16 46,0.8954305 46,2 C46,4.209139 44.209139,6 42,6 Z M6,2 C6,3.1045695 6.8954305,4 8,4 L42,4 C43.1045695,4 44,3.1045695 44,2 L6,2 Z" id="Shape" fill="#428DFF"/><path d="M42,14 L8,14 C7.44771525,14 7,13.5522847 7,13 L7,5 C7,4.44771525 7.44771525,4 8,4 L42,4 C42.5522847,4 43,4.44771525 43,5 L43,13 C43,13.5522847 42.5522847,14 42,14 Z M9,12 L41,12 L41,6 L9,6 L9,12 Z" id="Shape" fill="#428DFF"/><path d="M10,10 L6,10 C5.44771525,10 5,9.55228475 5,9 C5,8.44771525 5.44771525,8 6,8 L10,8 C10.5522847,8 11,8.44771525 11,9 C11,9.55228475 10.5522847,10 10,10 Z" id="Shape" fill="#428DFF"/><path d="M44,10 L14,10 C13.4477153,10 13,9.55228475 13,9 C13,8.44771525 13.4477153,8 14,8 L44,8 C44.5522847,8 45,8.44771525 45,9 C45,9.55228475 44.5522847,10 44,10 Z" id="Shape" fill="#428DFF"/><polygon id="Shape" fill="#FFFFFF" points="1.691 41.399 0.826 28.428 0.216 19.266 2.211 19.133 2.822 28.295 3.687 41.266"/><path d="M2.356,36.344 C1.80517167,36.38088 1.38843481,36.8571507 1.425,37.408 L1.691,41.4 L3.691,41.267 L3.425,37.276 C3.40757277,37.0103681 3.28495268,36.7626479 3.08430094,36.5877112 C2.88364921,36.4127744 2.62152836,36.3250609 2.356,36.344 Z" id="Shape" fill="#428DFF"/><path d="M2.211,19.133 L0.216,19.266 L0.893,29.426 C0.929726936,29.9782847 1.40721525,30.3962269 1.9595,30.3595 C2.51178475,30.3227731 2.92972694,29.8452847 2.893,29.293 L2.211,19.133 Z" id="Shape" fill="#428DFF"/><path d="M1.159,33.417 C1.1805531,33.680698 1.30049263,33.9266454 1.495,34.106 L1.653,34.216 C1.71131189,34.2500428 1.77384824,34.2762677 1.839,34.294 C1.89744935,34.3193353 1.9595605,34.3352006 2.023,34.341 C2.0894104,34.3481565 2.15625176,34.3504959 2.223,34.348 C2.48710654,34.3271567 2.73341133,34.2066854 2.912,34.011 C2.99651957,33.9104534 3.06040259,33.7942407 3.1,33.669 C3.22374628,33.2881974 3.1134823,32.8702109 2.818,32.6 C2.71657259,32.5162236 2.60018516,32.4524311 2.475,32.412 C2.35150957,32.3686795 2.22064316,32.3503242 2.09,32.358 C1.82437795,32.3728039 1.57592081,32.4939953 1.40073602,32.6942065 C1.22555124,32.8944177 1.1384133,33.1567635 1.159,33.422 L1.159,33.417 Z" id="Shape" fill="#428DFF"/><path d="M9,47 L7.678,47 C4.52233381,46.9923775 1.90869058,44.5480886 1.69,41.4 C1.65327306,40.8477153 2.07121525,40.3702269 2.6235,40.3335 C3.17578475,40.2967731 3.65327306,40.7147153 3.69,41.267 C3.83521694,43.3643629 5.57562598,44.993487 7.678,45 L9,45 C9.55228475,45 10,45.4477153 10,46 C10,46.5522847 9.55228475,47 9,47 Z" id="Shape" fill="#428DFF"/><path d="M1.212,20.2 C0.684495725,20.2011501 0.246814111,19.7923555 0.212,19.266 C0.138335084,18.1607167 0.52631885,17.0743754 1.28350319,16.2658276 C2.04068752,15.4572799 3.09926515,14.9989326 4.207,15 L5,15 C5.55228475,15 6,15.4477153 6,16 C6,16.5522847 5.55228475,17 5,17 L4.207,17 C3.65269828,16.9987729 3.12274697,17.2276439 2.74360477,17.6319991 C2.36446257,18.0363542 2.17013749,18.579924 2.207,19.133 C2.24533746,19.6838885 1.82988225,20.1615725 1.279,20.2 C1.257,20.2 1.234,20.2 1.212,20.2 Z" id="Shape" fill="#428DFF"/><path d="M42.528,47 L41.206,47 C40.6537153,47 40.206,46.5522847 40.206,46 C40.206,45.4477153 40.6537153,45 41.206,45 L42.528,45 C44.6322746,44.9955442 46.3751715,43.3652895 46.52,41.266 L48,19.133 C48.0368625,18.579924 47.8425374,18.0363542 47.4633952,17.6319991 C47.084253,17.2276439 46.5543017,16.9987729 46,17 L45.206,17 C44.6537153,17 44.206,16.5522847 44.206,16 C44.206,15.4477153 44.6537153,15 45.206,15 L46,15 C47.1070396,15.0000403 48.164558,15.458871 48.9208628,16.267289 C49.6771676,17.0757071 50.0646181,18.1614109 49.991,19.266 L48.516,41.4 C48.2982572,44.5485395 45.6840527,46.9933534 42.528,47 Z" id="Shape" fill="#428DFF"/><path d="M17,56 C16.4477153,56 16,55.5522847 16,55 L16,22 C16,21.4477153 16.4477153,21 17,21 C17.5522847,21 18,21.4477153 18,22 L18,55 C18,55.5522847 17.5522847,56 17,56 Z" id="Shape" fill="#428DFF"/><path d="M20,26 L17,26 C16.4477153,26 16,25.5522847 16,25 C16,24.4477153 16.4477153,24 17,24 L20,24 C20.5522847,24 21,24.4477153 21,25 C21,25.5522847 20.5522847,26 20,26 Z" id="Shape" fill="#428DFF"/><path d="M24,26 C23.735233,25.9963165 23.4816338,25.8927337 23.29,25.71 C23.1996032,25.6143929 23.128323,25.5023813 23.08,25.38 C23.028759,25.2597777 23.00158,25.1306773 23,25 C23.0014591,24.734785 23.1053643,24.4803964 23.29,24.29 C23.6821222,23.8978779 24.3178778,23.8978779 24.71,24.29 C25.1021221,24.6821222 25.1021221,25.3178778 24.71,25.71 C24.6608107,25.7552462 24.6072094,25.7954472 24.55,25.83 C24.4988621,25.8694467 24.4413713,25.8998831 24.38,25.92 C24.3200792,25.9503996 24.2555406,25.9706735 24.189,25.98 C24.1266278,25.991653 24.0634297,25.9983406 24,26 Z" id="Shape" fill="#428DFF"/><path d="M20,31 L17,31 C16.4477153,31 16,30.5522847 16,30 C16,29.4477153 16.4477153,29 17,29 L20,29 C20.5522847,29 21,29.4477153 21,30 C21,30.5522847 20.5522847,31 20,31 Z" id="Shape" fill="#428DFF"/><path d="M24,31 C23.7339647,31.0027011 23.4780384,30.8982118 23.2899133,30.7100867 C23.1017882,30.5219616 22.9972989,30.2660353 23,30 C23.00158,29.8693227 23.028759,29.7402223 23.08,29.62 C23.2498322,29.1727511 23.7217118,28.9174511 24.189,29.02 C24.2555406,29.0293265 24.3200792,29.0496004 24.38,29.08 C24.4413713,29.1001169 24.4988621,29.1305533 24.55,29.17 C24.6072094,29.2045528 24.6608107,29.2447538 24.71,29.29 C24.9984599,29.5760905 25.0851619,30.0082668 24.929371,30.3834815 C24.77358,30.7586962 24.4062651,31.0023626 24,31 Z" id="Shape" fill="#428DFF"/><path d="M20,36 L17,36 C16.4477153,36 16,35.5522847 16,35 C16,34.4477153 16.4477153,34 17,34 L20,34 C20.5522847,34 21,34.4477153 21,35 C21,35.5522847 20.5522847,36 20,36 Z" id="Shape" fill="#428DFF"/><path d="M24,36 C23.735233,35.9963165 23.4816338,35.8927337 23.29,35.71 C23.197469,35.616074 23.1258964,35.5036026 23.08,35.38 C23.028759,35.2597777 23.00158,35.1306773 23,35 C23.0026249,34.5486333 23.3072967,34.1549779 23.7435818,34.0392449 C24.179867,33.923512 24.6395987,34.1143947 24.8656028,34.5051133 C25.0916069,34.8958318 25.0278509,35.3895166 24.71,35.71 C24.6608107,35.7552462 24.6072094,35.7954472 24.55,35.83 C24.4988621,35.8694467 24.4413713,35.8998831 24.38,35.92 C24.3200792,35.9503996 24.2555406,35.9706735 24.189,35.98 C24.1266278,35.991653 24.0634297,35.9983406 24,36 Z" id="Shape" fill="#428DFF"/><path d="M20,41 L17,41 C16.4477153,41 16,40.5522847 16,40 C16,39.4477153 16.4477153,39 17,39 L20,39 C20.5522847,39 21,39.4477153 21,40 C21,40.5522847 20.5522847,41 20,41 Z" id="Shape" fill="#428DFF"/><path d="M24,41 C23.735233,40.9963165 23.4816338,40.8927337 23.29,40.71 C23.2017473,40.6127393 23.1307291,40.5011393 23.08,40.38 C22.9733951,40.1378817 22.9733951,39.8621183 23.08,39.62 C23.1307291,39.4988607 23.2017473,39.3872607 23.29,39.29 C23.5286515,39.0596958 23.8639859,38.9590955 24.19,39.02 C24.2565406,39.0293265 24.3210792,39.0496004 24.381,39.08 C24.4423713,39.1001169 24.4998621,39.1305533 24.551,39.17 C24.61,39.21 24.661,39.25 24.711,39.29 C24.7992527,39.3872607 24.8702709,39.4988607 24.921,39.62 C25.0277285,39.8620922 25.0277285,40.1379078 24.921,40.38 C24.8702709,40.5011393 24.7992527,40.6127393 24.711,40.71 C24.661,40.75 24.611,40.79 24.551,40.83 C24.4998621,40.8694467 24.4423713,40.8998831 24.381,40.92 C24.3210792,40.9503996 24.2565406,40.9706735 24.19,40.98 C24.1272989,40.9917057 24.0637642,40.9983935 24,41 Z" id="Shape" fill="#428DFF"/><path d="M20,46 L17,46 C16.4477153,46 16,45.5522847 16,45 C16,44.4477153 16.4477153,44 17,44 L20,44 C20.5522847,44 21,44.4477153 21,45 C21,45.5522847 20.5522847,46 20,46 Z" id="Shape" fill="#428DFF"/><path d="M24,46 C23.7339647,46.0027011 23.4780384,45.8982118 23.2899133,45.7100867 C23.1017882,45.5219616 22.9972989,45.2660353 23,45 C23.00158,44.8693227 23.028759,44.7402223 23.08,44.62 C23.1307291,44.4988607 23.2017473,44.3872607 23.29,44.29 C23.5760905,44.0015401 24.0082668,43.9148381 24.3834815,44.070629 C24.7586962,44.22642 25.0023626,44.5937349 25,45 C24.9984529,45.067127 24.9914296,45.1340157 24.979,45.2 C24.9689883,45.2627455 24.9490735,45.3235025 24.92,45.38 C24.8976964,45.4435492 24.8674572,45.5040276 24.83,45.56 L24.71,45.71 C24.518257,45.892565 24.2647269,45.9961196 24,46 Z" id="Shape" fill="#428DFF"/><path d="M20,51 L17,51 C16.4477153,51 16,50.5522847 16,50 C16,49.4477153 16.4477153,49 17,49 L20,49 C20.5522847,49 21,49.4477153 21,50 C21,50.5522847 20.5522847,51 20,51 Z" id="Shape" fill="#428DFF"/><path d="M24,51 C23.7339647,51.0027011 23.4780384,50.8982118 23.2899133,50.7100867 C23.1017882,50.5219616 22.9972989,50.2660353 23,50 C23.00158,49.8693227 23.028759,49.7402223 23.08,49.62 C23.128323,49.4976187 23.1996032,49.3856071 23.29,49.29 C23.6821222,48.8978778 24.3178778,48.8978778 24.71,49.29 C25.1021222,49.6821222 25.1021222,50.3178778 24.71,50.71 C24.66,50.75 24.61,50.79 24.55,50.83 C24.4988621,50.8694467 24.4413713,50.8998831 24.38,50.92 C24.3200792,50.9503996 24.2555406,50.9706735 24.189,50.98 C24.1266278,50.991653 24.0634297,50.9983406 24,51 Z" id="Shape" fill="#428DFF"/><path d="M20,56 L17,56 C16.4477153,56 16,55.5522847 16,55 C16,54.4477153 16.4477153,54 17,54 L20,54 C20.5522847,54 21,54.4477153 21,55 C21,55.5522847 20.5522847,56 20,56 Z" id="Shape" fill="#428DFF"/><path d="M24,56 C23.7339647,56.0027011 23.4780384,55.8982118 23.2899133,55.7100867 C23.1017882,55.5219616 22.9972989,55.2660353 23,55 C23.0033865,54.7351726 23.107012,54.481469 23.29,54.29 C23.6104834,53.9721491 24.1041682,53.9083931 24.4948867,54.1343972 C24.8856053,54.3604013 25.076488,54.820133 24.9607551,55.2564182 C24.8450221,55.6927033 24.4513667,55.9973751 24,56 Z" id="Shape" fill="#428DFF"/></g></g></svg>
