<?xml version="1.0" encoding="UTF-8"?>
<svg xmlns="http://www.w3.org/2000/svg" xmlns:xlink="http://www.w3.org/1999/xlink" width="512" height="512" viewBox="0 0 36 60" version="1.1"><!-- Generator: Sketch 51.3 (57544) - http://www.bohemiancoding.com/sketch --><title>022 - Timer</title><desc>Created with Sketch.</desc><defs><linearGradient x1="14.2915141%" y1="16.4484895%" x2="87.6695954%" y2="81.8086754%" id="linearGradient-1"><stop stop-color="#D3DFF2" offset="0%"/><stop stop-color="#D3DFF2" offset="17.2%"/><stop stop-color="#D3DFF2" offset="20%"/><stop stop-color="#DAE2F2" offset="20%"/><stop stop-color="#EBEAF2" offset="20.1%"/><stop stop-color="#F6EFF2" offset="20.1%"/><stop stop-color="#FDF2F2" offset="20.2%"/><stop stop-color="#FFF3F2" offset="20.5%"/><stop stop-color="#FFF3F2" offset="25.2%"/><stop stop-color="#FFF3F2" offset="26%"/><stop stop-color="#D3DFF2" offset="26%"/><stop stop-color="#D3DFF2" offset="39.7%"/><stop stop-color="#D3DFF2" offset="42%"/><stop stop-color="#DAE2F2" offset="42%"/><stop stop-color="#EBEAF2" offset="42.1%"/><stop stop-color="#F6EFF2" offset="42.1%"/><stop stop-color="#FDF2F2" offset="42.2%"/><stop stop-color="#FFF3F2" offset="42.5%"/><stop stop-color="#FFF3F2" offset="48.9%"/><stop stop-color="#FFF3F2" offset="50%"/><stop stop-color="#F8F0F2" offset="50%"/><stop stop-color="#E7E8F2" offset="50%"/><stop stop-color="#DCE3F2" offset="50%"/><stop stop-color="#D5E0F2" offset="50%"/><stop stop-color="#D3DFF2" offset="50.1%"/><stop stop-color="#D3DFF2" offset="70.6%"/><stop stop-color="#D3DFF2" offset="74%"/><stop stop-color="#FFF3F2" offset="74.1%"/><stop stop-color="#FFF3F2" offset="83.5%"/><stop stop-color="#FFF3F2" offset="85%"/><stop stop-color="#D3DFF2" offset="85.1%"/></linearGradient></defs><g id="Page-1" stroke="none" stroke-width="1" fill="none" fill-rule="evenodd"><g id="022---Timer" fill-rule="nonzero"><path d="M20.97,25.26 L15.03,25.26 L15.92,3 C15.9342222,2.48959484 16.141494,2.00357824 16.5,1.64 C16.8901863,1.22870819 17.4330805,0.997073315 18,1 C19.1190572,0.997093812 20.0390362,1.88168901 20.08,3 L20.97,25.26 Z" id="Shape" fill="#CAD9FC"/><path d="M18.97,25.26 L16.03,25.26 L16.92,3 C16.9342222,2.48959484 17.141494,2.00357824 17.5,1.64 C17.858506,2.00357824 18.0657778,2.48959484 18.08,3 L18.97,25.26 Z" id="Shape" fill="#E8EDFC"/><path d="M35,42 C35,51.3888407 27.3888407,59 18,59 C17.48,59 16.97,58.98 16.46,58.93 C13.8685316,58.7016353 11.3658102,57.873101 9.15,56.51 L3.49,50.85 C0.425895426,45.8329001 0.173135571,39.5883058 2.82173058,34.3399754 C5.47032558,29.0916449 10.6438638,25.5854578 16.5,25.07 C16.9984912,25.021269 17.499137,24.9979056 18,25 C27.3888407,25 35,32.6111593 35,42 Z" id="Shape" fill="#CAD9FC"/><path d="M32,42 C32.0053269,50.8236903 25.2518643,58.1812271 16.46,58.93 C13.8685316,58.7016353 11.3658102,57.873101 9.15,56.51 L3.49,50.85 C0.425895426,45.8329001 0.173135571,39.5883058 2.82173058,34.3399754 C5.47032558,29.0916449 10.6438638,25.5854578 16.5,25.07 C25.275586,25.8392434 32.0061588,33.1907658 32,42 Z" id="Shape" fill="#E8EDFC"/><path d="M31,42 C30.9933843,49.1769596 25.1769596,54.9933843 18,55 C17.4886623,55.000511 16.9777513,54.9704574 16.47,54.91 C14.9401891,54.735666 13.4554899,54.2814429 12.09,53.57 L6.43,47.91 C5.48446615,46.083862 4.9938956,44.0563991 5,42 C5.00835693,35.4152437 9.93201162,29.8734493 16.47,29.09 C16.9777513,29.0295426 17.4886623,28.999489 18,29 C20.573649,28.9982337 23.0899119,29.7604212 25.23,31.19 C26.1522808,31.8194858 26.9950638,32.5581801 27.74,33.39 C29.8396017,35.7668263 30.9988884,38.8286234 31,42 Z" id="Shape" fill="#A4C2F7"/><path d="M28,42 C27.9966342,48.6083946 23.0360108,54.1627438 16.47,54.91 C14.9401891,54.735666 13.4554899,54.2814429 12.09,53.57 L6.43,47.91 C5.48446615,46.083862 4.9938956,44.0563991 5,42 C5.00835693,35.4152437 9.93201162,29.8734493 16.47,29.09 C18.5306532,29.3178336 20.5062454,30.0381016 22.23,31.19 C23.1522808,31.8194858 23.9950638,32.5581801 24.74,33.39 C26.8396017,35.7668263 27.9988884,38.8286234 28,42 Z" id="Shape" fill="url(#linearGradient-1)"/><path d="M16,44 L16,49.66 L8.22,57.44 C7.82996255,57.8277236 7.20003745,57.8277236 6.81,57.44 L5.52,56.15 L2.56,53.19 C2.17227641,52.7999625 2.17227641,52.1700375 2.56,51.78 L10.34,44 L16,44 Z" id="Shape" fill="#7FACFA"/><path d="M13,44 L13,48.66 L5.52,56.15 L2.56,53.19 C2.17227641,52.7999625 2.17227641,52.1700375 2.56,51.78 L10.34,44 L13,44 Z" id="Shape" fill="#A4C2F7"/><path d="M8.52,56.15 L5.56,53.19 C5.17227641,52.7999625 5.17227641,52.1700375 5.56,51.78 L6.49,50.85 C4.85512106,48.1880937 3.99298179,45.1238638 4,42 C4,33.6 9.085,26.634 17.088,25.26 L17.03,25.26 L17.92,3 C17.9351183,2.49037879 18.1422938,2.00530239 18.5,1.642 C18.1088051,1.23189915 17.5667594,0.999849049 17,0.999849049 C16.4332406,0.999849049 15.8911949,1.23189915 15.5,1.642 C15.1419583,2.00507736 14.9347238,2.49029203 14.92,3 L14.03,25.26 L14.088,25.26 C6.085,26.634 1,33.6 1,42 C0.992981789,45.1238638 1.85512106,48.1880937 3.49,50.85 L2.56,51.78 C2.17227641,52.1700375 2.17227641,52.7999625 2.56,53.19 L5.52,56.15 L6.81,57.44 C7.20003745,57.8277236 7.82996255,57.8277236 8.22,57.44 L9.02,56.645 L8.52,56.15 Z" id="Shape" fill="#FFFFFF"/><path d="M12.15,56.51 L11.22,57.44 C11.1785388,57.4729737 11.1343839,57.5024103 11.088,57.528 C12.788714,58.2891299 14.604125,58.7622452 16.46,58.928 C16.97,58.978 17.48,58.998 18,58.998 C18.486,58.998 18.963,58.965 19.438,58.925 C16.8544586,58.6950991 14.3595991,57.8683859 12.15,56.51 Z" id="Shape" fill="#FFFFFF"/><path d="M0,42 C0.0165158719,32.0657236 8.06572364,24.0165159 18,24 L18,26 C9.17029143,26.0165093 2.01650931,33.1702914 2,42 L0,42 Z" id="Shape" fill="#FFFFFF"/><path d="M1.732,37.071 C1.47193323,36.9969497 1.19280045,37.0341112 0.961165639,37.1736228 C0.729530833,37.3131345 0.56615576,37.5424916 0.51,37.807 C0.342141413,38.4926437 0.216571474,39.1879538 0.134,39.889 C0.043,40.589 0.045,41.297 -3.55271368e-15,42 L2,42 C2.045,41.374 2.039,40.743 2.12,40.121 C2.19393904,39.4980943 2.30581355,38.8802799 2.455,38.271 C2.56298813,37.7438029 2.24854954,37.2219131 1.732,37.071 Z" id="Shape" fill="#428DFF"/><path d="M18,26 L18,23.9999987 C13.0987133,23.998154 8.40997913,26.0012627 5.023,29.544 L4.311,30.328 C4.13044921,30.5326298 4.04308914,30.803106 4.06983012,31.0746882 C4.09657109,31.3462703 4.23500625,31.5945139 4.452,31.76 C4.87715724,32.0799217 5.47633463,32.0217407 5.832,31.626 L6.466,30.926 C9.47555205,27.7762262 13.6435722,25.9961267 18,26 Z" id="Shape" fill="#428DFF"/><path d="M1.968,33.841 C1.84924064,34.0908578 1.82715546,34.3758279 1.906,34.641 L1.988,34.815 C2.02174515,34.873178 2.06386238,34.9260772 2.113,34.972 C2.15165871,35.021675 2.19829201,35.0645912 2.251,35.099 C2.30646578,35.1365607 2.36462315,35.1699845 2.425,35.199 C2.67037288,35.3003593 2.94346198,35.3127403 3.197,35.234 C3.31654704,35.1901274 3.42703956,35.1247132 3.523,35.041 C3.80142933,34.7807254 3.91170811,34.3870379 3.809,34.02 C3.7269817,33.7719495 3.56161702,33.5599435 3.341,33.42 C3.10751619,33.2876573 2.83156571,33.2517729 2.572,33.32 C2.3052089,33.3989049 2.08520398,33.5886774 1.968,33.841 Z" id="Shape" fill="#428DFF"/><path d="M3.491,51.85 C3.14324242,51.8504456 2.82022484,51.6701919 2.638,51.374 C0.908502753,48.5535019 -0.00468745524,45.3085266 0,42 C0,41.4477153 0.44771525,41 1,41 C1.55228475,41 2,41.4477153 2,42 C1.9954296,44.9385461 2.80615836,47.8207526 4.342,50.326 C4.53175786,50.6344354 4.53993717,51.0213602 4.36338319,51.3375391 C4.18682921,51.653718 3.85313306,51.84974 3.491,51.85 Z" id="Shape" fill="#428DFF"/><path d="M18,60 C14.6914734,60.0046875 11.4464981,59.0914972 8.626,57.362 C8.30084035,57.1850639 8.10002655,56.8429749 8.10402816,56.4728139 C8.10802977,56.1026529 8.31619205,55.7649851 8.64510078,55.5951197 C8.97400951,55.4252544 9.36984918,55.4509847 9.674,55.662 C15.4574201,59.1872743 22.8339785,58.6890415 28.0908195,54.4180778 C33.3476604,50.1471141 35.3457256,43.0288569 33.0793255,36.6461508 C30.8129253,30.2634446 24.773146,25.9993015 18,26 C17.4477153,26 17,25.5522847 17,25 C17,24.4477153 17.4477153,24 18,24 C27.9411253,24.0000002 35.9999996,32.0588747 35.9999996,42 C35.9999996,51.9411253 27.9411253,59.9999998 18,60 Z" id="Shape" fill="#428DFF"/><path d="M18,56 C15.7832179,56.002224 13.5981887,55.4731123 11.628,54.457 C11.1475537,54.1973174 10.9643082,53.6002044 11.216381,53.1157222 C11.4684538,52.63124 12.0626024,52.4385998 12.551,52.683 C14.2336589,53.5573808 16.1037419,54.0093719 18,54 C24.627417,54 30,48.627417 30,42 C30,35.372583 24.627417,30 18,30 C11.372583,30 6,35.372583 6,42 C5.99062811,43.8962581 6.44261918,45.7663411 7.317,47.449 C7.56140025,47.9373976 7.36876003,48.5315462 6.88427781,48.783619 C6.3997956,49.0356918 5.80268257,48.8524463 5.543,48.372 C4.52688774,46.4018113 3.99777599,44.2167821 4,42 C4,34.2680135 10.2680135,28 18,28 C25.7319865,28 32,34.2680135 32,42 C32,49.7319865 25.7319865,56 18,56 Z" id="Shape" fill="#428DFF"/><path d="M7.515,58.728 C6.98428078,58.7295488 6.47504275,58.5185067 6.101,58.142 L1.858,53.9 C1.07723612,53.1190003 1.07723612,51.8529997 1.858,51.072 L9.636,43.294 C9.82332888,43.1060838 10.0776616,43.0003217 10.343,43 L16,43 C16.5522847,43 17,43.4477153 17,44 L17,49.657 C16.9999434,49.9221948 16.8945494,50.1765073 16.707,50.364 L8.929,58.142 C8.55495725,58.5185067 8.04571922,58.7295488 7.515,58.728 Z M3.272,52.485 L7.515,56.728 L15,49.243 L15,45 L10.757,45 L3.272,52.485 Z" id="Shape" fill="#428DFF"/><path d="M20.97,26.26 C20.4329665,26.2604298 19.9914812,25.8366039 19.97,25.3 L19.08,3.04 C19.0550918,2.46105175 18.5784838,2.00450806 17.999,2.00450806 C17.4195162,2.00450806 16.9429082,2.46105175 16.918,3.04 L16.029,25.3 C16.0069086,25.8522847 15.5412847,26.2820914 14.989,26.26 C14.4367153,26.2379086 14.0069086,25.7722847 14.029,25.22 L14.919,2.96 C14.9856008,1.30748199 16.3446404,0.00211184472 17.9985,0.00211184472 C19.6523596,0.00211184472 21.0113992,1.30748199 21.078,2.96 L21.967,25.216 C21.9889795,25.7676913 21.5596825,26.2328004 21.008,26.255 L20.97,26.26 Z" id="Shape" fill="#428DFF"/><path d="M18,34 C17.8688167,34.0034547 17.7386555,33.9760524 17.62,33.92 C17.3687697,33.8290762 17.1709238,33.6312303 17.08,33.38 C16.9733951,33.1378817 16.9733951,32.8621183 17.08,32.62 C17.1709238,32.3687697 17.3687697,32.1709238 17.62,32.08 C17.8634614,31.979982 18.1365386,31.979982 18.38,32.08 C18.6312303,32.1709238 18.8290762,32.3687697 18.92,32.62 C18.9760524,32.7386555 19.0034547,32.8688167 19,33 C19.0027011,33.2660353 18.8982118,33.5219616 18.7100867,33.7100867 C18.5219616,33.8982118 18.2660353,34.0027011 18,34 Z" id="Shape" fill="#428DFF"/><path d="M14,35.072 C13.8881552,35.1406354 13.7617701,35.1820787 13.631,35.193 C13.5006351,35.2092885 13.3684593,35.2035417 13.24,35.176 C13.1149093,35.1357732 12.9975701,35.0745674 12.893,34.995 C12.679849,34.8384947 12.5420241,34.5998399 12.513,34.337 C12.4675102,34.0735403 12.5407081,33.8034403 12.713,33.599 C12.8740297,33.3904655 13.1108511,33.2539068 13.372,33.219 C13.5023448,33.202225 13.634603,33.2079754 13.763,33.236 C13.8876435,33.2760954 14.0046214,33.336951 14.109,33.416 C14.2174419,33.4906758 14.3065621,33.5900792 14.369,33.706 C14.5041084,33.9354048 14.5411253,34.2095586 14.4716955,34.4665806 C14.4022657,34.7236027 14.2322415,34.9418281 14,35.072 Z" id="Shape" fill="#428DFF"/><path d="M23,50.656 C22.8877959,50.7246475 22.7610844,50.7660856 22.63,50.777 C22.3665011,50.8233396 22.096045,50.7500453 21.892,50.577 C21.6796821,50.4197499 21.5420856,50.1814907 21.512,49.919 C21.4955732,49.7885972 21.5016616,49.656342 21.53,49.528 C21.5694613,49.4027859 21.630366,49.2853752 21.71,49.181 C21.8707921,48.9726917 22.107212,48.8361574 22.368,48.801 C22.4983431,48.7841852 22.6306082,48.7899358 22.759,48.818 C22.8820529,48.8591513 22.9973222,48.9206733 23.1,49 C23.2079003,49.0748731 23.2969112,49.1738121 23.36,49.289 C23.4956073,49.5175235 23.5338606,49.7908993 23.4661879,50.0478677 C23.3985152,50.304836 23.2305748,50.5239107 23,50.656 Z" id="Shape" fill="#428DFF"/><path d="M11.072,38 C11.0092153,38.1154033 10.9201465,38.2144067 10.812,38.289 C10.707661,38.3683537 10.5906877,38.429545 10.466,38.47 C10.337603,38.4980246 10.2053448,38.503775 10.075,38.487 C9.81199401,38.4576501 9.57315056,38.3199255 9.416,38.107 C9.33675309,38.0023798 9.27588452,37.8850387 9.236,37.76 C9.20816249,37.6315922 9.20207794,37.4994223 9.218,37.369 C9.25340907,37.1080569 9.39031676,36.8716126 9.599,36.711 C9.80280367,36.5382468 10.0728253,36.464971 10.336,36.511 C10.4670844,36.5219144 10.5937959,36.5633525 10.706,36.632 C10.9382846,36.7626791 11.1080679,36.9814954 11.1769511,37.2389604 C11.2458343,37.4964255 11.2079982,37.7707891 11.072,38 Z" id="Shape" fill="#428DFF"/><path d="M26.656,47 C26.5932462,47.1154251 26.5041715,47.214435 26.396,47.289 C26.2916214,47.368049 26.1746435,47.4289046 26.05,47.469 C25.921658,47.4973384 25.7894028,47.5034268 25.659,47.487 C25.5292751,47.471166 25.4039117,47.4300577 25.29,47.366 C25.1768907,47.2971214 25.078369,47.2067533 25,47.1 C24.9207531,46.9953798 24.8598845,46.8780387 24.82,46.753 C24.791952,46.6249444 24.786201,46.4930105 24.803,46.363 C24.8379068,46.1018511 24.9744655,45.8650297 25.183,45.704 C25.2873752,45.624366 25.4047859,45.5634613 25.53,45.524 C25.6583944,45.4959556 25.790656,45.4902051 25.921,45.507 C26.0518604,45.5174739 26.1783473,45.5589506 26.29,45.628 C26.5233926,45.7586676 26.6939797,45.9782157 26.762923,46.236659 C26.8318663,46.4951023 26.7932984,46.7704454 26.656,47 Z" id="Shape" fill="#428DFF"/><path d="M27.995,42 C27.9984547,42.1311833 27.9710524,42.2613445 27.915,42.38 C27.8240762,42.6312303 27.6262303,42.8290762 27.375,42.92 C27.1328817,43.0266049 26.8571183,43.0266049 26.615,42.92 C26.3637697,42.8290762 26.1659238,42.6312303 26.075,42.38 C25.974982,42.1365386 25.974982,41.8634614 26.075,41.62 C26.1659238,41.3687697 26.3637697,41.1709238 26.615,41.08 C26.7336555,41.0239476 26.8638167,40.9965453 26.995,41 C27.2610353,40.9972989 27.5169616,41.1017882 27.7050867,41.2899133 C27.8932118,41.4780384 27.9977011,41.7339647 27.995,42 Z" id="Shape" fill="#428DFF"/><path d="M26.656,37 C26.7246475,37.1122041 26.7660856,37.2389156 26.777,37.37 C26.8233396,37.6334989 26.7500453,37.903955 26.577,38.108 C26.4197499,38.3203179 26.1814907,38.4579144 25.919,38.488 C25.7885972,38.5044268 25.656342,38.4983384 25.528,38.47 C25.4027859,38.4305387 25.2853752,38.369634 25.181,38.29 C24.9726917,38.1292079 24.8361574,37.892788 24.801,37.632 C24.7841852,37.5016569 24.7899358,37.3693918 24.818,37.241 C24.8591513,37.1179471 24.9206733,37.0026778 25,36.9 C25.0748731,36.7920997 25.1738121,36.7030888 25.289,36.64 C25.5175235,36.5043927 25.7908993,36.4661394 26.0478677,36.5338121 C26.304836,36.6014848 26.5239107,36.7694252 26.656,37 Z" id="Shape" fill="#428DFF"/><path d="M23,33.344 C23.1154251,33.4067538 23.214435,33.4958285 23.289,33.604 C23.368049,33.7083786 23.4289046,33.8253565 23.469,33.95 C23.4973384,34.078342 23.5034268,34.2105972 23.487,34.341 C23.471166,34.4707249 23.4300577,34.5960883 23.366,34.71 C23.2988873,34.8225596 23.2105921,34.9210427 23.106,35 C23.0013798,35.0792469 22.8840387,35.1401155 22.759,35.18 C22.6309444,35.208048 22.4990105,35.213799 22.369,35.197 C22.1078511,35.1620932 21.8710297,35.0255345 21.71,34.817 C21.630366,34.7126248 21.5694613,34.5952141 21.53,34.47 C21.5019556,34.3416056 21.4962051,34.209344 21.513,34.079 C21.5234739,33.9481396 21.5649506,33.8216527 21.634,33.71 C21.7646828,33.4782674 21.9831336,33.3088838 22.2401107,33.2400305 C22.4970877,33.1711772 22.7709625,33.2086493 23,33.344 Z" id="Shape" fill="#428DFF"/><path d="M18,42 C17.4477153,42 17,41.5522847 17,41 L17,37 C17,36.4477153 17.4477153,36 18,36 C18.5522847,36 19,36.4477153 19,37 L19,41 C19,41.5522847 18.5522847,42 18,42 Z" id="Shape" fill="#428DFF"/></g></g></svg>
