<?xml version="1.0" encoding="UTF-8"?>
<svg xmlns="http://www.w3.org/2000/svg" xmlns:xlink="http://www.w3.org/1999/xlink" width="512" height="512" viewBox="0 0 60 60" version="1.1"><!-- Generator: Sketch 51.3 (57544) - http://www.bohemiancoding.com/sketch --><title>023 - Valve</title><desc>Created with Sketch.</desc><defs/><g id="Page-1" stroke="none" stroke-width="1" fill="none" fill-rule="evenodd"><g id="023---Valve" fill-rule="nonzero"><path d="M49.26,43.63 L46.87,40.24 C47.436865,41.0424913 47.6959879,42.0221889 47.6,43 L47.6,43.01 C47.4870902,44.2162749 46.8464532,45.3108491 45.85,46 L42.44,48.37 C42.2339086,48.519421 42.0126955,48.6467861 41.78,48.75 L42.85,48 C43.8464532,47.3108491 44.4870902,46.2162749 44.6,45.01 L44.6,45 C44.6959879,44.0221889 44.436865,43.0424913 43.87,42.24 L46.26,45.63 C46.7088148,45.3116174 46.816067,44.6904485 46.5,44.24 L34.57,27.3 C33.0414739,25.1266996 30.0776408,24.5330535 27.83,25.95 L26.64,26.69 L26.33,26.88 C26.5109562,26.6858409 26.7120924,26.5115229 26.93,26.36 L29.64,24.69 L30.83,23.95 C33.0776408,22.5330535 36.0414739,23.1266996 37.57,25.3 L49.5,42.24 C49.816067,42.6904485 49.7088148,43.3116174 49.26,43.63 Z" id="Shape" fill="#CAD9FC"/><path d="M22.41,30.37 C22.7906442,30.3499247 23.1720615,30.3904292 23.54,30.49 C24.1737478,30.6435844 24.7606209,30.949033 25.25,31.38 C25.5002684,31.5941531 25.7220735,31.839483 25.91,32.11 C24.7701628,30.4935733 24.9468165,28.2938131 26.33,26.88 L26.64,26.69 L30.372,24.235 C32.622,22.815 33.04,25.13 34.572,27.3 L46.5,44.24 C46.816067,44.6904485 46.7088148,45.3116174 46.26,45.63 L42.85,48 L41.78,48.75 L37.812,48.906 C37.122,49.396 37.94,51.1 37.15,51.12 C36.8665165,51.9273783 36.3343542,52.6240908 35.63,53.11 L32.22,55.48 C32.0115629,55.6257663 31.7907125,55.7529226 31.56,55.86 C29.7353632,56.6818101 27.5842289,56.0947559 26.43,54.46 L15.69,39.23 C14.5630569,37.506166 14.7448477,35.2383051 16.132,33.716 L21.575,30.557" id="Shape" fill="#E8EDFC"/><path d="M58.11,52.6 C57.7638996,52.8413881 57.3519637,52.9705544 56.93,52.97 C56.2512844,52.9702363 55.6143014,52.6424322 55.22,52.09 L49.26,43.63 C49.7088148,43.3116174 49.816067,42.6904485 49.5,42.24 L36.95,24.42 L35.14,21.85 L34.57,21.04 C33.5810558,19.6663108 31.6763514,19.3333205 30.28,20.29 C28.8911056,21.2593248 28.5508582,23.1709779 29.52,24.56 C29.5517632,24.610269 29.5924286,24.6543232 29.64,24.69 L26.93,26.36 C25.9034498,24.8948811 25.5607314,23.0573786 25.9901063,21.3207106 C26.4194812,19.5840426 27.5789825,18.1179498 29.17,17.3 C32.0243958,15.8916738 35.4799453,16.7949741 37.28,19.42 L58.62,49.72 C58.935913,50.1690129 59.0597207,50.7254703 58.9639893,51.266071 C58.8682579,51.8066717 58.5608925,52.2867756 58.11,52.6 Z" id="Shape" fill="#E8EDFC"/><path d="M43.8,57.51 C40.0353371,60.1183816 34.8729342,59.2134007 32.22,55.48 L35.63,53.11 C36.9544202,54.9807264 39.5404197,55.4318248 41.42,54.12 C42.3224575,53.4964489 42.9380512,52.5378701 43.1296451,51.4578066 C43.321239,50.3777431 43.0729177,49.2659133 42.44,48.37 L45.85,46 C47.1113419,47.7959478 47.6042307,50.0208281 47.2194094,52.1814587 C46.8345882,54.3420893 45.6038469,56.2599807 43.8,57.51 Z" id="Shape" fill="#E8EDFC"/><path d="M22.03,23.72 L21.81,30.42 L17.57,32.88 L17.85,24.27 L14.67,19.76 L18.07,17.39 L21.65,22.46 C21.9083997,22.8284352 22.0416102,23.2701332 22.03,23.72 Z" id="Shape" fill="#E8EDFC"/><path d="M19.22,16.59 L18.07,17.39 L14.67,19.76 L13.53,20.55 C13.1871614,20.789084 12.7348378,20.8008837 12.38,20.58 L12.32,20.54 L7.58,17.62 C7.28244571,17.4399806 7.09659692,17.1212448 7.08649153,16.7736194 C7.07638614,16.425994 7.24340559,16.0970005 7.53,15.9 L15.41,10.41 L16.87,9.4 C17.1545138,9.20004761 17.5203097,9.15601332 17.8441481,9.28273268 C18.1679864,9.40945203 18.406751,9.69005346 18.48,10.03 L19.64,15.53 C19.7231452,15.935407 19.5582535,16.3515623 19.22,16.59 Z" id="Shape" fill="#CAD9FC"/><path d="M16.55,17.59 L15.4,18.39 L12.32,20.54 L7.58,17.62 C7.28244571,17.4399806 7.09659692,17.1212448 7.08649153,16.7736194 C7.07638614,16.425994 7.24340559,16.0970005 7.53,15.9 L15.41,10.41 C15.618625,10.5570371 15.7620298,10.7793146 15.81,11.03 L16.97,16.53 C17.0531452,16.935407 16.8882535,17.3515623 16.55,17.59 Z" id="Shape" fill="#E8EDFC"/><path d="M18.19,8.48 L16.87,9.4 L7.53,15.9 L6.21,16.81 C5.79116704,17.1053607 5.21683253,17.0362679 4.88,16.65 C4.8538902,16.6258965 4.83042428,16.5990783 4.81,16.57 L1.73,12.2 C1.11724729,11.3318434 0.877105304,10.2547023 1.06305881,9.20847903 C1.24901231,8.16225579 1.84561836,7.23383649 2.72,6.63 L9.32,2.03 L9.75,1.73 C11.575943,0.469704369 14.0757253,0.91084242 15.36,2.72 L18.43,7.09 C18.746067,7.54044848 18.6388148,8.16161743 18.19,8.48 Z" id="Shape" fill="#7FACFA"/><path d="M15.19,9.48 L13.87,10.4 L4.88,16.65 C4.8538902,16.6258965 4.83042428,16.5990783 4.81,16.57 L1.73,12.2 C1.11724729,11.3318434 0.877105304,10.2547023 1.06305881,9.20847903 C1.24901231,8.16225579 1.84561836,7.23383649 2.72,6.63 L9.32,2.03 C10.5376219,2.10167447 11.6564287,2.72364272 12.36,3.72 L15.43,8.09 C15.746067,8.54044848 15.6388148,9.16161743 15.19,9.48 Z" id="Shape" fill="#A4C2F7"/><path d="M4.73,12.2 C4.11724729,11.3318434 3.8771053,10.2547023 4.06305881,9.20847903 C4.24901231,8.16225579 4.84561836,7.23383649 5.72,6.63 L12.32,2.03 L12.75,1.73 C13.0019634,1.55837557 13.2727213,1.41611864 13.557,1.306 C12.2972402,0.799619517 10.8674773,0.95885762 9.75,1.73 L9.32,2.03 L2.72,6.63 C1.84561836,7.23383649 1.24901231,8.16225579 1.06305881,9.20847903 C0.877105304,10.2547023 1.11724729,11.3318434 1.73,12.2 L4.81,16.57 C4.83042428,16.5990783 4.8538902,16.6258965 4.88,16.65 C5.21683253,17.0362679 5.79116704,17.1053607 6.21,16.81 L7.4,15.989 L4.73,12.2 Z" id="Shape" fill="#FFFFFF"/><path d="M20.57,32.88 L20.628,31.106 L16.128,33.716 C14.7408477,35.2383051 14.5590569,37.506166 15.686,39.23 L26.43,54.46 C27.5356484,56.0207523 29.5613398,56.6292017 31.344,55.936 C30.5733262,55.645445 29.9068912,55.1315171 29.43,54.46 L18.69,39.23 C17.5630569,37.506166 17.7448477,35.2383051 19.132,33.716" id="Shape" fill="#FFFFFF"/><path d="M7.412,16.006 C7.17932358,16.2237089 7.06200957,16.5378059 7.09499898,16.8547399 C7.12798839,17.1716739 7.30747493,17.4548772 7.58,17.62 L12.32,20.54 L12.38,20.58 C12.7348378,20.8008837 13.1871614,20.789084 13.53,20.55 L14.38,19.961 L10.641,17.8 L7.412,16.006" id="Shape" fill="#FFFFFF"/><path d="M20.628,31.106 L20.85,24.27 L17.67,19.76 L16.53,20.55 C16.1871614,20.789084 15.7348378,20.8008837 15.38,20.58 L15.32,20.54 L15.143,20.431 L17.85,24.27 L17.57,32.88 L20.628,31.106 Z" id="Shape" fill="#FFFFFF"/><path d="M29.641,25.69 C29.1927393,25.6909381 28.7986205,25.3934626 28.6766423,24.962116 C28.5546641,24.5307694 28.7346318,24.0709511 29.117,23.837 L30.307,23.107 C30.7778227,22.8181551 31.3936551,22.9656773 31.6825,23.4365 C31.9713449,23.9073227 31.8238227,24.5231551 31.353,24.812 L30.163,25.542 C30.006221,25.6390802 29.825402,25.6903469 29.641,25.69 Z" id="Shape" fill="#428DFF"/><path d="M29.411,25.83 C28.9626364,25.8303262 28.5688606,25.5321796 28.4475624,25.1005353 C28.3262643,24.668891 28.5070972,24.2092714 28.89,23.976 L30.907,22.765 C31.2202857,22.5861843 31.6055951,22.5899545 31.9153218,22.7748663 C32.2250485,22.9597781 32.4111815,23.2971682 32.4024159,23.6577873 C32.3936503,24.0184064 32.1913449,24.3463548 31.873,24.516 L31.783,24.565 L29.931,25.684 C29.7743391,25.7794408 29.5944437,25.8299499 29.411,25.83 Z" id="Shape" fill="#428DFF"/><path d="M36.648,48.351 C36.3225872,48.351179 36.0174377,48.1930086 35.83,47.927 L25.1,32.691 C24.8824312,32.3995135 24.8402911,32.0128781 24.989958,31.6813658 C25.1396249,31.3498535 25.4574936,31.1257503 25.8200192,31.0961574 C26.1825448,31.0665645 26.5325502,31.2361493 26.734,31.539 L37.465,46.775 C37.6800508,47.0801965 37.7071772,47.4797742 37.5353475,47.811235 C37.3635179,48.1426959 37.021352,48.3508321 36.648,48.351 Z" id="Shape" fill="#428DFF"/><path d="M46.869,41.239 C46.5435872,41.239179 46.2384377,41.0810086 46.051,40.815 L35.316,25.579 C34.9976078,25.1275072 35.1055072,24.5033922 35.557,24.185 C36.0084928,23.8666078 36.6326078,23.9745072 36.951,24.426 L47.686,39.663 C47.9010508,39.9681965 47.9281772,40.3677742 47.7563475,40.699235 C47.5845179,41.0306959 47.242352,41.2388321 46.869,41.239 Z" id="Shape" fill="#428DFF"/><path d="M36.648,48.351 C36.3225872,48.351179 36.0174377,48.1930086 35.83,47.927 L25.1,32.691 C24.8824312,32.3995135 24.8402911,32.0128781 24.989958,31.6813658 C25.1396249,31.3498535 25.4574936,31.1257503 25.8200192,31.0961574 C26.1825448,31.0665645 26.5325502,31.2361493 26.734,31.539 L37.465,46.775 C37.6800508,47.0801965 37.7071772,47.4797742 37.5353475,47.811235 C37.3635179,48.1426959 37.021352,48.3508321 36.648,48.351 Z" id="Shape" fill="#428DFF"/><path d="M39.047,60 C36.3273329,60.005286 33.740144,58.8261383 31.96,56.77 C29.7016888,57.7823676 27.0427266,57.0579575 25.61,55.04 L14.875,39.8 C14.089878,38.6848372 13.7822154,37.3024783 14.0202661,35.9595947 C14.2583167,34.6167111 15.0223976,33.4243383 16.143,32.647 L16.583,32.341 L16.836,24.568 L13.851,20.33 C13.6334312,20.0385135 13.5912911,19.6518781 13.740958,19.3203658 C13.8906249,18.9888535 14.2084936,18.7647503 14.5710192,18.7351574 C14.9335448,18.7055645 15.2835502,18.8751493 15.485,19.178 L18.664,23.689 C18.7892839,23.8668044 18.8531795,24.0806089 18.846,24.298 L18.565,32.908 C18.5547016,33.2234965 18.396042,33.5156079 18.137,33.696 L17.286,34.289 C16.6018145,34.76159 16.1349027,35.4880423 15.9891621,36.3067064 C15.8434215,37.1253705 16.0309432,37.9683267 16.51,38.648 L27.245,53.887 C28.2532353,55.3052793 30.2145996,55.6489638 31.645,54.658 C32.0962995,54.3434369 32.7169274,54.4524601 33.034,54.902 C35.3688107,58.1939337 39.919569,58.9907626 43.234,56.688 C44.8187111,55.5885611 45.8996989,53.9026893 46.2375532,52.0037607 C46.5754074,50.1048322 46.142245,48.1495652 45.034,46.571 C44.8796091,46.3531711 44.8187383,46.0826473 44.8649451,45.8196818 C44.9111519,45.5567162 45.0605989,45.3231483 45.28,45.171 C45.9641855,44.69841 46.4310973,43.9719577 46.5768379,43.1532936 C46.7225785,42.3346295 46.5350568,41.4916733 46.056,40.812 C45.737884,40.3605072 45.8460072,39.736616 46.2975,39.4185 C46.7489928,39.100384 47.372884,39.2085072 47.691,39.66 L47.696,39.667 L56.039,51.51 C56.384879,51.995756 57.0571074,52.1129947 57.547,51.773 C57.7808711,51.6115494 57.9401182,51.362951 57.989,51.083 C58.0383566,50.8058101 57.9742148,50.520415 57.811,50.291 L36.46,20 C34.95376,17.7765616 32.0389223,17.0037946 29.629,18.189 C28.2924053,18.8732671 27.3180903,20.1033658 26.9580602,21.561133 C26.59803,23.0189002 26.8876462,24.5611566 27.752,25.789 C27.9063909,26.0068289 27.9672617,26.2773527 27.9210549,26.5403182 C27.8748481,26.8032838 27.7254011,27.0368517 27.506,27.189 C26.8217491,27.6617758 26.354817,28.3884023 26.2090808,29.2072291 C26.0633447,30.0260558 26.2508921,30.8691677 26.73,31.549 C26.9819984,31.9970743 26.8532137,32.5632165 26.4321879,32.8581928 C26.011162,33.1531692 25.435076,33.080869 25.1,32.691 C24.4013503,31.6877303 23.1822307,31.1834421 21.979,31.4 C21.6829595,31.4506132 21.3798466,31.3654899 21.153437,31.1681568 C20.9270273,30.9708237 20.8012985,30.6821792 20.811,30.382 L21.028,23.682 C21.0355427,23.45204 20.9677735,23.2259087 20.835,23.038 L17.257,17.959 C16.938884,17.5075072 17.0470073,16.883616 17.4985,16.5655 C17.9499928,16.247384 18.573884,16.3555072 18.892,16.807 L22.47,21.886 C22.8527617,22.4279125 23.0483184,23.0798852 23.027,23.743 L22.845,29.36 C23.2929115,29.3865562 23.7353786,29.4719564 24.161,29.614 C24.167874,29.3587822 24.1936108,29.104422 24.238,28.853 C24.4169253,27.8284612 24.9055286,26.8833628 25.638,26.145 C24.7460961,24.4499478 24.5678076,22.4689677 25.1427203,20.6419018 C25.7176331,18.8148359 26.9981663,17.2928951 28.7,16.414 C31.9981544,14.7673057 36.0055046,15.8042412 38.091,18.844 L59.437,49.144 C59.9067783,49.8101354 60.0911661,50.6362583 59.9492202,51.4389284 C59.8072743,52.2415985 59.3507434,52.95438 58.681,53.419 C57.2877422,54.3856093 55.3759755,54.0501804 54.395,52.667 L48.385,44.136 C48.1447439,44.9114301 47.7219037,45.6178784 47.152,46.196 C49.4941005,50.3527643 48.2895208,55.6089936 44.371,58.331 C42.8089774,59.4191179 40.9506577,60.0016753 39.047,60 Z M39.041,55.868 C37.3589353,55.8722422 35.7800833,55.0574471 34.809,53.684 C34.6546091,53.4661711 34.5937383,53.1956473 34.6399451,52.9326818 C34.6861519,52.6697162 34.8355989,52.4361483 35.055,52.284 C35.739313,51.8112437 36.2062215,51.0845256 36.3517826,50.2656271 C36.4973437,49.4467285 36.3094751,48.6036223 35.83,47.924 C35.511884,47.4725072 35.6200073,46.8486161 36.0715,46.5305001 C36.5229928,46.2123841 37.146884,46.3205073 37.465,46.772 C38.4741705,48.1889535 40.4346073,48.53203 41.865,47.542 C42.316371,47.2283207 42.9362966,47.3377456 43.253,47.787 C44.0392905,48.9016919 44.3477551,50.2842813 44.1098362,51.627481 C43.8719173,52.9706807 43.1073273,54.1632015 41.986,54.94 C41.1224693,55.5434984 40.0945156,55.8674173 39.041,55.868 Z M37.056,53.181 C38.1549193,54.0523653 39.6947501,54.1015132 40.847,53.302 C41.9954731,52.5073149 42.4761895,51.0463779 42.024,49.725 C40.8689209,50.1968852 39.5826736,50.2377015 38.4,49.84 C38.3695532,51.0793019 37.8922361,52.2658468 37.056,53.181 Z M36.134,26 C35.8085872,26.000179 35.5034377,25.8420086 35.316,25.576 L32.931,22.191 C32.585121,21.705244 31.9128926,21.5880053 31.423,21.928 C31.1911532,22.0892717 31.0330136,22.336176 30.9834835,22.6142197 C30.9339534,22.8922634 30.9971049,23.178588 31.159,23.41 C31.477116,23.8614928 31.3689928,24.485384 30.9175,24.8035 C30.4660072,25.121616 29.842116,25.0134928 29.524,24.562 C29.0556541,23.8953083 28.8722265,23.0694933 29.01429,22.2672193 C29.1563535,21.4649453 29.6122001,20.7523304 30.281,20.287 C31.673502,19.3200214 33.5850807,19.6555739 34.565,21.039 L36.951,24.424 C37.1660508,24.7291965 37.1931772,25.1287742 37.0213475,25.460235 C36.8495179,25.7916959 36.507352,25.9998321 36.134,26 Z" id="Shape" fill="#428DFF"/><path d="M46.869,41.239 C46.5435872,41.239179 46.2384377,41.0810086 46.051,40.815 L35.316,25.579 C34.9976078,25.1275072 35.1055072,24.5033922 35.557,24.185 C36.0084928,23.8666078 36.6326078,23.9745072 36.951,24.426 L47.686,39.663 C47.9010508,39.9681965 47.9281772,40.3677742 47.7563475,40.699235 C47.5845179,41.0306959 47.242352,41.2388321 46.869,41.239 Z" id="Shape" fill="#428DFF"/><path d="M12.93,21.739 C12.5514681,21.7401841 12.1800284,21.6363333 11.857,21.439 L7.05,18.472 C6.46454622,18.1136714 6.09995314,17.4836365 6.08098323,16.7974911 C6.06201333,16.1113456 6.39123886,15.4621286 6.956,15.072 L16.296,8.572 C16.8570194,8.18054809 17.5768982,8.09635245 18.2131075,8.3477788 C18.8493167,8.59920516 19.3171526,9.15277902 19.459,9.822 L20.616,15.322 C20.7846533,16.120006 20.4583297,16.9413328 19.788,17.406 L14.098,21.366 C13.7557505,21.6064056 13.3482386,21.7365443 12.93,21.739 Z M17.502,10.239 L8.102,16.719 L12.911,19.734 L18.649,15.773 C18.6594769,15.7669078 18.6650604,15.754943 18.663,15.743 L17.502,10.239 Z" id="Shape" fill="#428DFF"/><path d="M5.634,17.994 C4.98006067,17.9960466 4.36617103,17.6792124 3.989,17.145 L0.911,12.776 C0.14551852,11.6900898 -0.154611973,10.3434512 0.0772850694,9.03525148 C0.309182111,7.72705173 1.05390241,6.56562783 2.146,5.809 L9.179,0.914 C11.4523626,-0.664071103 14.5725657,-0.116674875 16.173,2.141 L19.25,6.51 C19.5570984,6.94454055 19.6777791,7.48379924 19.5851893,8.00778596 C19.4925995,8.53177268 19.1944206,8.99701782 18.757,9.3 L6.779,17.635 C6.44307489,17.8690411 6.04341516,17.9943492 5.634,17.994 Z M12.055,2.012 C11.434885,2.01119137 10.8295229,2.20110889 10.321,2.556 L3.288,7.45 C2.6329169,7.90258596 2.18587844,8.59820713 2.04633926,9.38210555 C1.90680009,10.166004 2.08633426,10.9731593 2.545,11.624 L5.624,15.993 L17.616,7.657 L14.538,3.293 C13.9681111,2.48737586 13.0418117,2.00949044 12.055,2.012 Z" id="Shape" fill="#428DFF"/><polygon id="Shape" fill="#FFFFFF" points="16.51 38.651 23.998 49.278 27.245 53.887 25.61 55.039 22.363 50.43 14.875 39.803"/><path d="M18.573,43.315 C18.7898867,43.1621587 18.9371405,42.9293881 18.9823413,42.667936 C19.0275421,42.4064839 18.9669841,42.137786 18.814,41.921 L16.514,38.651 L14.875,39.8 L17.175,43.07 C17.3272791,43.2886678 17.5605331,43.4375161 17.8229998,43.4835134 C18.0854665,43.5295108 18.3554366,43.4688527 18.573,43.315 Z" id="Shape" fill="#428DFF"/><path d="M25.61,55.039 L27.245,53.887 L23.422,48.461 C23.103884,48.0095072 22.4799928,47.901384 22.0285,48.2195 C21.5770072,48.537616 21.468884,49.1615072 21.787,49.613 L25.61,55.039 Z" id="Shape" fill="#428DFF"/><path d="M21.118,45.191 C20.96222,44.9770425 20.7315833,44.8295921 20.472,44.778 L20.28,44.766 C20.2123101,44.7672328 20.1450726,44.7773184 20.08,44.796 C20.0168767,44.8049136 19.9554954,44.8234629 19.898,44.851 C19.8376825,44.8801279 19.7795331,44.9135471 19.724,44.951 C19.5093746,45.1063273 19.3614718,45.3371129 19.31,45.597 C19.2466409,45.9276538 19.3563722,46.2677809 19.601023,46.499065 C19.8456738,46.7303491 20.1914235,46.8208175 20.518,46.739 C20.6459592,46.712149 20.7673084,46.6601422 20.875,46.586 C21.0942734,46.4350522 21.2435165,46.2021575 21.2890492,45.9398737 C21.334582,45.6775899 21.2725673,45.4080205 21.117,45.192 L21.118,45.191 Z" id="Shape" fill="#428DFF"/></g></g></svg>
