<?xml version="1.0" encoding="UTF-8"?>
<svg xmlns="http://www.w3.org/2000/svg" xmlns:xlink="http://www.w3.org/1999/xlink" width="512" height="512" viewBox="0 0 59 60" version="1.1"><!-- Generator: Sketch 51.3 (57544) - http://www.bohemiancoding.com/sketch --><title>024 - Wine Still</title><desc>Created with Sketch.</desc><defs/><g id="Page-1" stroke="none" stroke-width="1" fill="none" fill-rule="evenodd"><g id="024---Wine-Still" fill-rule="nonzero"><path d="M52.91,28.09 L54.046,31.5 L50.09,30.91 L41.34,22.17 C40.5900238,21.4188295 39.571469,20.9977308 38.51,21 L30,21 L30,16.9999527 L38.51,17 C40.6334859,16.9926819 42.6716225,17.8353038 44.17,19.34 L52.91,28.09 Z" id="Shape" fill="#CAD9FC"/><path d="M57.41,35.41 C57.0379007,35.7874338 56.5300134,35.9999281 56,35.9999281 C55.4699866,35.9999281 54.9620993,35.7874338 54.59,35.41 L50.09,30.91 L52.91,28.09 L57.41,32.59 C57.7889438,32.9612876 58.0024878,33.4694787 58.0024878,34 C58.0024878,34.5305213 57.7889438,35.0387124 57.41,35.41 Z" id="Shape" fill="#E8EDFC"/><polygon id="Shape" fill="#E8EDFC" points="32 17 32 21 25 22 23 19 25 16"/><path d="M16,1 L21,1 C21.5522847,1 22,1.44771525 22,2 L22,7 L16,7 L16,1 Z" id="Shape" fill="#E8EDFC"/><path d="M35,36.29 L35,52.84 C34.9995837,53.7268605 34.6080839,54.5684022 33.93,55.14 C32.19,56.61 27.98,59 19,59 C18.48,59 17.98,58.99 17.5,58.97 C9.54,58.73 5.71,56.53 4.06,55.14 C3.38828968,54.564503 3.00117087,53.7245282 3,52.84 L3,36.29 L35,36.29 Z" id="Shape" fill="#CAD9FC"/><path d="M32,36.29 L32,52.84 C31.9995837,53.7268605 31.6080839,54.5684022 30.93,55.14 C29.29,56.53 25.46,58.73 17.5,58.97 C9.54,58.73 5.71,56.53 4.06,55.14 C3.38828968,54.564503 3.00117087,53.7245282 3,52.84 L3,36.29 L32,36.29 Z" id="Shape" fill="#E8EDFC"/><path d="M37,34 C37,34.82 36.28,35.6 35,36.29 C32.01,37.9 25.97,39 19,39 C18.5,39 17.99,38.99 17.5,38.98 C11.17,38.84 5.77,37.78 3,36.29 C1.72,35.6 1,34.82 1,34 C1,32.06 4.98,30.38 10.79,29.55 C11.84,29.4 12.95,29.28 14.11,29.19 C14.35,29.17 14.59,29.15 14.84,29.14 C15.2,29.11 15.57,29.09 15.94,29.07 C16.04,29.07 16.15,29.06 16.26,29.06 C16.5,29.05 16.75,29.04 17,29.04 L21,29.04 C21.25,29.04 21.5,29.05 21.74,29.06 C21.85,29.06 21.96,29.07 22.06,29.07 C22.43,29.09 22.8,29.11 23.16,29.14 C23.41,29.15 23.65,29.17 23.89,29.19 L24.63,29.25 C25.07,29.29 25.5,29.34 25.92,29.39 C26.19,29.42 26.45,29.45 26.71,29.49 C32.8,30.28 37,32 37,34 Z" id="Shape" fill="#7FACFA"/><path d="M34,34 C34,34.82 33.28,35.6 32,36.29 C29.23,37.78 23.83,38.84 17.5,38.98 C11.17,38.84 5.77,37.78 3,36.29 C1.72,35.6 1,34.82 1,34 C1,32.06 4.98,30.38 10.79,29.55 C11.84,29.4 12.95,29.28 14.11,29.19 C14.35,29.17 14.59,29.15 14.84,29.14 C15.2,29.11 15.57,29.09 15.94,29.07 C16.04,29.07 16.15,29.06 16.26,29.06 C16.5,29.05 16.75,29.04 17,29.04 L18,29.04 C18.25,29.04 18.5,29.05 18.74,29.06 C18.85,29.06 18.96,29.07 19.06,29.07 C19.43,29.09 19.8,29.11 20.16,29.14 C20.41,29.15 20.65,29.17 20.89,29.19 L21.63,29.25 C22.07,29.29 22.5,29.34 22.92,29.39 C23.19,29.42 23.45,29.45 23.71,29.49 C29.8,30.28 34,32 34,34 Z" id="Shape" fill="#CAD9FC"/><path d="M33,32 C33,32.81 31.49,33.55 29.05,34.09 C25.7399813,34.736548 22.3723178,35.0414807 19,35 C11.27,35 5,33.66 5,32 C5,31.62 5.32,31.27 5.91,30.93 C5.91539389,30.9245695 5.92241924,30.9210568 5.93,30.92 C7.47604086,30.2175189 9.12273411,29.7619788 10.81,29.57 C11.82,29.41 12.93,29.29 14.11,29.19 C14.35,29.17 14.59,29.15 14.84,29.14 C15.2,29.11 15.57,29.09 15.94,29.07 C16.04,29.07 16.15,29.06 16.26,29.06 L17,29.03 L21,29.03 L21.74,29.06 C21.85,29.06 21.96,29.07 22.06,29.07 C22.43,29.09 22.8,29.11 23.16,29.14 C23.41,29.15 23.65,29.17 23.89,29.19 L24.63,29.25 C25.07,29.29 25.5,29.34 25.92,29.39 C26.19,29.42 26.45,29.45 26.71,29.49 C30.5,30.03 33,30.95 33,32 Z" id="Shape" fill="#CAD9FC"/><path d="M30,33 C30,33.38 29.66,33.75 29.05,34.09 C25.7399813,34.736548 22.3723178,35.0414807 19,35 C11.27,35 5,33.66 5,32 C5,31.62 5.32,31.27 5.91,30.93 C5.91539389,30.9245695 5.92241924,30.9210568 5.93,30.92 C6.5,30.79 7.13,30.67 7.81,30.57 C8.82,30.41 9.93,30.29 11.11,30.19 C11.35,30.17 11.59,30.15 11.84,30.14 C12.2,30.11 12.57,30.09 12.94,30.07 C13.04,30.07 13.15,30.06 13.26,30.06 L14,30.03 L18,30.03 L18.74,30.06 C18.85,30.06 18.96,30.07 19.06,30.07 C19.43,30.09 19.8,30.11 20.16,30.14 C20.41,30.15 20.65,30.17 20.89,30.19 L21.63,30.25 C22.07,30.29 22.5,30.34 22.92,30.39 C23.19,30.42 23.45,30.45 23.71,30.49 C27.5,31.03 30,31.95 30,33 Z" id="Shape" fill="#E8EDFC"/><path d="M17,22 L21,22 L21,30 C21,30.5522847 20.5522847,31 20,31 L18,31 C17.4477153,31 17,30.5522847 17,30 L17,22 Z" id="Shape" fill="#CAD9FC"/><path d="M25,7 L25,22 C24.9967052,23.1032019 24.1032019,23.9967052 23,24 L15,24 C13.8954305,24 13,23.1045695 13,22 L13,7 C13,5.8954305 13.8954305,5 15,5 L23,5 C24.1032019,5.0032948 24.9967052,5.89679813 25,7 Z" id="Shape" fill="#7FACFA"/><path d="M22,7 L22,22 C21.9967052,23.1032019 21.1032019,23.9967052 20,24 L15,24 C13.8954305,24 13,23.1045695 13,22 L13,7 C13,5.8954305 13.8954305,5 15,5 L20,5 C21.1032019,5.0032948 21.9967052,5.89679813 22,7 Z" id="Shape" fill="#A4C2F7"/><rect id="Rectangle-path" fill="#E8EDFC" x="4.997" y="5" width="4" height="17" rx="1"/><path d="M17,29.03 L16.263,29.06 C16.153,29.06 16.043,29.07 15.943,29.07 C15.573,29.09 15.203,29.11 14.843,29.14 C14.593,29.15 14.353,29.17 14.113,29.19 C12.953,29.28 11.843,29.4 10.793,29.55 C4.98,30.38 1,32.06 1,34 C1,34.82 1.72,35.6 3,36.29 L3,52.84 C3.00117087,53.7245282 3.38828968,54.564503 4.06,55.14 C5.71,56.53 9.54,58.73 17.5,58.97 C17.98,58.99 18.48,59 19,59 C19.562,59 20.106,58.991 20.632,58.973 C20.589,58.973 20.542,58.973 20.5,58.973 C12.54,58.733 8.71,56.533 7.06,55.143 C6.38749486,54.5668208 6.00029598,53.7255764 6,52.84 L6,36.29 C4.72,35.6 4,34.82 4,34 C4,32.06 7.98,30.38 13.79,29.55 C14.84,29.4 15.95,29.28 17.11,29.19 C17.35,29.17 17.59,29.15 17.84,29.14 C18.2,29.11 16.94,29.06 17.312,29.04 L17.422,29.04 C17.671,29.03 16.998,29.189 17.247,29.179" id="Shape" fill="#FFFFFF"/><path d="M8.5,5.153 C8.35039409,5.05738014 8.17749669,5.00447353 8,5 L6,5 C5.44771525,5 5,5.44771525 5,6 L5,21 C5,21.5522847 5.44771525,22 6,22 L8,22 C8.17749669,21.9955265 8.35039409,21.9426199 8.5,21.847 C8.19450842,21.6737333 8.00410105,21.3511832 8,21 L8,6 C8.00410105,5.6488168 8.19450842,5.32626671 8.5,5.153 Z" id="Shape" fill="#FFFFFF"/><path d="M19,40 C12.079,40 5.767,38.916 2.525,37.17 C0.847,36.267 0,35.2 0,34 C0,30.59 6.671,29.128 10.648,28.56 C11.713,28.408 12.848,28.284 14.032,28.193 C14.283,28.172 14.532,28.151 14.8,28.141 C15.125,28.113 15.505,28.092 15.885,28.071 L16.259,28.06 C16.471,28.05 16.735,28.04 17,28.04 C17.5522847,28.04 18,28.4877153 18,29.04 C18,29.5922847 17.5522847,30.04 17,30.04 C16.764,30.04 16.528,30.049 16.3,30.059 L15.938,30.07 C15.631,30.088 15.271,30.107 14.921,30.137 C14.643,30.148 14.421,30.167 14.193,30.186 C13.047,30.275 11.951,30.394 10.929,30.54 C4.769,31.42 2,33.093 2,34 C2,34.3 2.387,34.824 3.474,35.41 C6.394,36.983 12.488,38 19,38 C25.512,38 31.6,36.983 34.525,35.41 C35.61,34.824 36,34.3 36,34 C36,33.046 33.077,31.324 26.581,30.482 C26.311,30.441 26.065,30.412 25.81,30.382 C25.39,30.332 24.969,30.282 24.539,30.244 L23.81,30.185 C23.579,30.165 23.355,30.146 23.121,30.137 C22.726,30.105 22.367,30.086 22.008,30.066 L21.739,30.058 C21.471,30.047 21.239,30.038 21,30.038 C20.4477153,30.038 20,29.5902847 20,29.038 C20,28.4857153 20.4477153,28.038 21,28.038 C21.264,28.038 21.528,28.048 21.782,28.059 L22.06,28.068 C22.495,28.09 22.874,28.111 23.243,28.142 C23.463,28.149 23.716,28.17 23.97,28.191 L24.712,28.251 C25.169,28.293 25.612,28.344 26.039,28.395 C26.314,28.426 26.587,28.457 26.861,28.5 C30.192,28.934 38,30.341 38,34 C38,35.2 37.15,36.267 35.474,37.17 C32.23,38.916 25.917,40 19,40 Z" id="Shape" fill="#428DFF"/><path d="M19,36 C17.464,36 4,35.888 4,32 C4,31.407 4,29.6 10.658,28.582 C11.595,28.433 12.698,28.306 14.025,28.193 C14.283,28.172 14.536,28.151 14.8,28.141 C15.125,28.113 15.505,28.092 15.885,28.071 L16.959,28.031 C17.2247897,28.0168797 17.485034,28.1105961 17.6808001,28.2909268 C17.8765663,28.4712575 17.9912929,28.7229471 17.999,28.989 C18.0215545,29.5406997 17.5926925,30.0062701 17.041,30.029 L15.941,30.07 C15.634,30.088 15.274,30.107 14.924,30.137 C14.646,30.148 14.424,30.167 14.196,30.186 C12.917,30.295 11.861,30.416 10.967,30.558 C7.792,31.044 6.479,31.684 6.089,32.005 C6.967,32.784 11.611,34 19,34 C26.389,34 31.036,32.782 31.912,32 C31.506,31.661 30.081,30.976 26.568,30.476 C26.311,30.437 26.068,30.408 25.81,30.376 C25.39,30.326 24.969,30.276 24.539,30.238 L23.81,30.179 C23.579,30.159 23.355,30.14 23.121,30.131 C22.726,30.099 22.367,30.08 22.008,30.06 L20.959,30.021 C20.6017344,30.0063521 20.2794219,29.802218 20.1134746,29.485493 C19.9475272,29.1687679 19.9631563,28.7875701 20.1544746,28.4854929 C20.3457928,28.1834158 20.6837344,28.0063521 21.041,28.021 L22.06,28.06 C22.495,28.082 22.874,28.103 23.243,28.134 C23.463,28.141 23.716,28.162 23.97,28.183 L24.712,28.243 C25.169,28.285 25.612,28.336 26.039,28.387 C26.314,28.418 26.587,28.449 26.861,28.492 C34,29.518 34,31.386 34,32 C34,35.888 20.533,36 19,36 Z" id="Shape" fill="#428DFF"/><path d="M4.709,54.374 C6.31817471,55.6087658 8.167221,56.4942918 10.138,56.974 C12.1699779,57.5022937 14.2509501,57.8199686 16.348,57.922 C17.228,57.98 18.113,57.99 18.997,58.003 L18.997,60.003 C18.075,59.99 17.153,59.979 16.229,59.918 C13.9941936,59.8071287 11.7767883,59.4659894 9.612,58.9 C7.35884704,58.3472253 5.2478028,57.3249278 3.417,55.9 L4.709,54.374 Z" id="Shape" fill="#FFFFFF"/><path d="M8.443,57.491 C8.61828399,56.9852289 8.37652928,56.4295409 7.887,56.213 C6.73965661,55.7665404 5.6677958,55.1462912 4.709,54.374 L3.417,55.9 C4.53459227,56.8087269 5.78650411,57.5384184 7.128,58.063 C7.3773776,58.1711917 7.66046809,58.1710566 7.90974235,58.0626271 C8.15901661,57.9541975 8.35212393,57.7471956 8.443,57.491 Z" id="Shape" fill="#428DFF"/><path d="M19,60 L19,58 C18.116,57.987 17.231,57.977 16.351,57.919 C16.025,57.907 15.701,57.88 15.378,57.849 C14.8361031,57.8139513 14.3617535,58.209609 14.299,58.749 C14.2703631,59.0152527 14.3512533,59.2817011 14.5230765,59.4870967 C14.6948996,59.6924924 14.9428748,59.8191663 15.21,59.838 C15.551,59.87 15.892,59.898 16.232,59.911 C17.153,59.976 18.075,59.987 19,60 Z" id="Shape" fill="#428DFF"/><path d="M11.54,57.3 C11.2864944,57.2553418 11.0253929,57.3040097 10.805,57.437 L10.657,57.554 C10.6071709,57.5988273 10.563762,57.6503123 10.528,57.707 C10.4869449,57.7550999 10.4532454,57.8090191 10.428,57.867 C10.4014564,57.9284273 10.3790726,57.9915697 10.361,58.056 C10.29884,58.3154093 10.3404644,58.5888384 10.477,58.818 C10.5504379,58.9309347 10.6472918,59.0267656 10.761,59.099 C11.1050259,59.328661 11.5515246,59.3360896 11.903,59.118 C12.0104597,59.039507 12.1017908,58.941046 12.172,58.828 C12.2440447,58.7186036 12.2933554,58.5958369 12.317,58.467 C12.4125004,57.9326511 12.0698364,57.4179936 11.54,57.3 Z" id="Shape" fill="#428DFF"/><path d="M4.062,56.137 C3.82575466,56.1366693 3.59725514,56.0527091 3.417,55.9 C2.51705434,55.1388977 1.99858507,54.0196335 2,52.841 L2,36.29 C2.00000001,35.7377153 2.44771526,35.29 3,35.29 C3.55228474,35.29 3.99999999,35.7377153 4,36.29 L4,52.841 C3.99970431,53.431765 4.25982862,53.9926238 4.711,54.374 C5.03118798,54.6452568 5.14795628,55.0875685 5.00338048,55.4815208 C4.85880468,55.8754731 4.48364331,56.1372525 4.064,56.137 L4.062,56.137 Z" id="Shape" fill="#428DFF"/><path d="M19,60 C18.4477153,60 18,59.5522847 18,59 C18,58.4477153 18.4477153,58 19,58 C27.7,58 31.689,55.728 33.288,54.374 C33.7394328,53.9927285 33.9999102,53.4318972 34,52.841 L34,36.29 C34,35.7377153 34.4477153,35.29 35,35.29 C35.5522847,35.29 36,35.7377153 36,36.29 L36,52.841 C36.0006689,54.0201207 35.4810638,55.1394672 34.58,55.9 C32.77,57.431 28.341,60 19,60 Z" id="Shape" fill="#428DFF"/><path d="M23,25 L15,25 C13.3431458,25 12,23.6568542 12,22 L12,7 C12,5.34314575 13.3431458,4 15,4 L23,4 C24.6568542,4 26,5.34314575 26,7 L26,22 C26,23.6568542 24.6568542,25 23,25 Z M15,6 C14.4477153,6 14,6.44771525 14,7 L14,22 C14,22.5522847 14.4477153,23 15,23 L23,23 C23.5522847,23 24,22.5522847 24,22 L24,7 C24,6.44771525 23.5522847,6 23,6 L15,6 Z" id="Shape" fill="#428DFF"/><path d="M22,6 L16,6 C15.4477153,6 15,5.55228475 15,5 L15,1 C15,0.44771525 15.4477153,1.01453063e-16 16,0 L21,0 C22.1045695,6.76353751e-17 23,0.8954305 23,2 L23,5 C23,5.55228475 22.5522847,6 22,6 Z M17,4 L21,4 L21,2 L17,2 L17,4 Z" id="Shape" fill="#428DFF"/><path d="M20,32 L18,32 C16.8954305,32 16,31.1045695 16,30 L16,24 C16,23.4477153 16.4477153,23 17,23 L21,23 C21.5522847,23 22,23.4477153 22,24 L22,30 C22,31.1045695 21.1045695,32 20,32 Z M18,25 L18,30 L20,30 L20,25 L18,25 Z" id="Shape" fill="#428DFF"/><path d="M12,32 C11.7029175,32.0001857 11.4211328,31.8682708 11.231,31.64 L6.931,26.47 C6.32860878,25.7530856 5.99887179,24.8463974 6,23.91 L6,22 C6,21.4477153 6.44771525,21 7,21 C7.55228475,21 8,21.4477153 8,22 L8,23.91 C7.99855496,24.3756263 8.16225341,24.8266828 8.462,25.183 L12.769,30.36 C13.017376,30.6581965 13.0707925,31.0731706 12.9060311,31.4245472 C12.7412698,31.7759238 12.3880873,32.0002427 12,32 Z" id="Shape" fill="#428DFF"/><path d="M7,6 C6.44771525,6 6,5.55228475 6,5 L6,4 C6,1.790861 7.790861,4.05812251e-16 10,0 L16,0 C16.5522847,3.38176876e-17 17,0.44771525 17,1 C17,1.55228475 16.5522847,2 16,2 L10,2 C8.8954305,2 8,2.8954305 8,4 L8,5 C8,5.55228475 7.55228475,6 7,6 Z" id="Shape" fill="#428DFF"/><path d="M8,23 L6,23 C4.8954305,23 4,22.1045695 4,21 L4,6 C4,4.8954305 4.8954305,4 6,4 L8,4 C9.1045695,4 10,4.8954305 10,6 L10,21 C10,22.1045695 9.1045695,23 8,23 Z M6,6 L6,21 L8,21 L8,6 L6,6 Z" id="Shape" fill="#428DFF"/><path d="M25,23 C24.4477153,23 24,22.5522847 24,22 L24,16 C24.0000028,15.7101846 24.1257384,15.434625 24.3446411,15.2446919 C24.5635438,15.0547589 24.85408,14.969136 25.141,15.01 L32.141,16.01 C32.6338351,16.080191 32.9999952,16.5021916 33,17 L33,21 C32.9999952,21.4978084 32.6338351,21.919809 32.141,21.99 L25.141,22.99 C25.0943077,22.9967758 25.0471813,23.0001181 25,23 Z M26,17.153 L26,20.847 L31,20.133 L31,17.867 L26,17.153 Z" id="Shape" fill="#428DFF"/><path d="M56,37 C55.2048621,37.0005164 54.4425612,36.682921 53.883,36.118 L40.63,22.877 C40.0678328,22.3129052 39.3033834,21.9971152 38.507,22 L32,22 C31.4477153,22 31,21.5522847 31,21 C31,20.4477153 31.4477153,20 32,20 L38.509,20 C39.8360805,19.9956783 41.1097265,20.5224931 42.046,21.463 L55.294,34.7 C55.6836849,35.0857397 56.3113151,35.0857397 56.701,34.7 C56.8901462,34.516223 56.9968706,34.2637238 56.9968706,34 C56.9968706,33.7362762 56.8901462,33.483777 56.701,33.3 L43.46,20.047 C42.1486757,18.7305098 40.3651373,17.9934004 38.507,18 L32,18 C31.4477153,18 31,17.5522847 31,17 C31,16.4477153 31.4477153,16 32,16 L38.509,16 C40.8981587,15.9918076 43.191262,16.9399453 44.877,18.633 L58.117,31.883 C58.9713632,32.7408368 59.2263501,34.0281459 58.7635035,35.1468923 C58.3006569,36.2656387 57.2107057,36.9965214 56,37 Z" id="Shape" fill="#428DFF"/><path d="M10,55 C9.44771525,55 9,54.5522847 9,54 L9,42 C9,41.4477153 9.44771525,41 10,41 C10.5522847,41 11,41.4477153 11,42 L11,54 C11,54.5522847 10.5522847,55 10,55 Z" id="Shape" fill="#428DFF"/><path d="M13,45 L10,45 C9.44771525,45 9,44.5522847 9,44 C9,43.4477153 9.44771525,43 10,43 L13,43 C13.5522847,43 14,43.4477153 14,44 C14,44.5522847 13.5522847,45 13,45 Z" id="Shape" fill="#428DFF"/><path d="M13,48.987 L10,48.987 C9.44771525,48.987 9,48.5392847 9,47.987 C9,47.4347153 9.44771525,46.987 10,46.987 L13,46.987 C13.5522847,46.987 14,47.4347153 14,47.987 C14,48.5392847 13.5522847,48.987 13,48.987 Z" id="Shape" fill="#428DFF"/><path d="M13,52.987 L10,52.987 C9.44771525,52.987 9,52.5392847 9,51.987 C9,51.4347153 9.44771525,50.987 10,50.987 L13,50.987 C13.5522847,50.987 14,51.4347153 14,51.987 C14,52.5392847 13.5522847,52.987 13,52.987 Z" id="Shape" fill="#428DFF"/><path d="M50.09,31.91 C49.6856041,31.9099137 49.3210659,31.6662725 49.166322,31.2926546 C49.0115781,30.9190366 49.0970921,30.4889943 49.383,30.203 L52.203,27.383 C52.5942938,26.9925347 53.2280347,26.9932063 53.6185,27.3845 C54.0089653,27.7757938 54.0082937,28.4095347 53.617,28.8 L50.797,31.62 C50.6090172,31.8064497 50.354765,31.9107399 50.09,31.91 Z" id="Shape" fill="#428DFF"/><path d="M17,45 C16.7352731,44.9961196 16.481743,44.892565 16.29,44.71 C16.2017473,44.6127393 16.1307291,44.5011393 16.08,44.38 C16.028759,44.2597777 16.00158,44.1306773 16,44 C16.0017061,43.9329301 16.0083911,43.8660796 16.02,43.8 C16.0308873,43.7373375 16.0511123,43.6766624 16.08,43.62 C16.1018554,43.5562619 16.1321227,43.4957271 16.17,43.44 L16.29,43.29 C16.5760905,43.0015401 17.0082668,42.9148381 17.3834815,43.070629 C17.7586962,43.22642 18.0023626,43.5937349 18,44 C17.99842,44.1306773 17.971241,44.2597777 17.92,44.38 C17.8692709,44.5011393 17.7982527,44.6127393 17.71,44.71 C17.5193164,44.8941958 17.2651121,44.9980257 17,45 Z" id="Shape" fill="#428DFF"/><path d="M17,48.988 C16.7353531,48.9837284 16.4819598,48.8802297 16.29,48.698 C16.2017295,48.6003787 16.1307158,48.4884475 16.08,48.367 C16.0287378,48.2471352 16.0015551,48.1183571 16,47.988 C16.0017061,47.9209301 16.0083911,47.8540796 16.02,47.788 C16.0308873,47.7253375 16.0511123,47.6646624 16.08,47.608 C16.1023036,47.5444508 16.1325428,47.4839724 16.17,47.428 L16.29,47.279 C16.5760905,46.9905401 17.0082668,46.9038381 17.3834815,47.059629 C17.7586962,47.21542 18.0023626,47.5827349 18,47.989 C17.9984449,48.1193571 17.9712622,48.2481352 17.92,48.368 C17.8692842,48.4894475 17.7982705,48.6013787 17.71,48.699 C17.5189327,48.8824817 17.2648921,48.985887 17,48.988 Z" id="Shape" fill="#428DFF"/><path d="M17,52.988 C16.7353531,52.9837284 16.4819598,52.8802297 16.29,52.698 C16.2017295,52.6003787 16.1307158,52.4884475 16.08,52.367 C16.0287378,52.2471352 16.0015551,52.1183571 16,51.988 C16.0017061,51.9209301 16.0083911,51.8540796 16.02,51.788 C16.0308873,51.7253375 16.0511123,51.6646624 16.08,51.608 C16.1023036,51.5444508 16.1325428,51.4839724 16.17,51.428 L16.29,51.279 C16.5760905,50.9905401 17.0082668,50.9038381 17.3834815,51.059629 C17.7586962,51.21542 18.0023626,51.5827349 18,51.989 C17.9984449,52.1193571 17.9712622,52.2481352 17.92,52.368 C17.8692842,52.4894475 17.7982705,52.6013787 17.71,52.699 C17.5189327,52.8824817 17.2648921,52.985887 17,52.988 Z" id="Shape" fill="#428DFF"/></g></g></svg>
