<?xml version="1.0" encoding="UTF-8"?>
<svg xmlns="http://www.w3.org/2000/svg" xmlns:xlink="http://www.w3.org/1999/xlink" width="512" height="512" viewBox="0 0 60 46" version="1.1"><!-- Generator: Sketch 51.3 (57544) - http://www.bohemiancoding.com/sketch --><title>025 - Grape Vat</title><desc>Created with Sketch.</desc><defs><linearGradient x1="19.0757563%" y1="-59.763544%" x2="80.9239787%" y2="153.865112%" id="linearGradient-1"><stop stop-color="#D3DFF2" offset="0%"/><stop stop-color="#D3DFF2" offset="17.2%"/><stop stop-color="#D3DFF2" offset="20%"/><stop stop-color="#DAE2F2" offset="20%"/><stop stop-color="#EBEAF2" offset="20.1%"/><stop stop-color="#F6EFF2" offset="20.1%"/><stop stop-color="#FDF2F2" offset="20.2%"/><stop stop-color="#FFF3F2" offset="20.5%"/><stop stop-color="#FFF3F2" offset="25.2%"/><stop stop-color="#FFF3F2" offset="26%"/><stop stop-color="#D3DFF2" offset="26%"/><stop stop-color="#D3DFF2" offset="39.7%"/><stop stop-color="#D3DFF2" offset="42%"/><stop stop-color="#DAE2F2" offset="42%"/><stop stop-color="#EBEAF2" offset="42.1%"/><stop stop-color="#F6EFF2" offset="42.1%"/><stop stop-color="#FDF2F2" offset="42.2%"/><stop stop-color="#FFF3F2" offset="42.5%"/><stop stop-color="#FFF3F2" offset="48.9%"/><stop stop-color="#FFF3F2" offset="50%"/><stop stop-color="#F8F0F2" offset="50%"/><stop stop-color="#E7E8F2" offset="50%"/><stop stop-color="#DCE3F2" offset="50%"/><stop stop-color="#D5E0F2" offset="50%"/><stop stop-color="#D3DFF2" offset="50.1%"/><stop stop-color="#D3DFF2" offset="70.6%"/><stop stop-color="#D3DFF2" offset="74%"/><stop stop-color="#FFF3F2" offset="74.1%"/><stop stop-color="#FFF3F2" offset="83.5%"/><stop stop-color="#FFF3F2" offset="85%"/><stop stop-color="#D3DFF2" offset="85.1%"/></linearGradient></defs><g id="Page-1" stroke="none" stroke-width="1" fill="none" fill-rule="evenodd"><g id="025---Grape-Vat" fill-rule="nonzero"><path d="M57.0000105,9.59 L57,40.98 C57.0030878,41.940471 56.322981,42.7675145 55.38,42.95 C54.95,43.03 54.49,43.11 54,43.18 C53.39,43.28 52.72,43.37 52.01,43.45 C51.08,43.57 50.08,43.67 49,43.77 C48.68,43.79 48.34,43.82 48,43.85 C47.68,43.88 47.35,43.9 47.01,43.93 C46.05,44 45.05,44.07 44,44.13 C43.35,44.17 42.69,44.2 42.01,44.23 C41.04,44.28 40.03,44.32 39,44.36 L38,44.39 L37,44.42 C36.02,44.44 35.02,44.46 34,44.47 C33.34,44.48 32.67,44.49 32,44.49 C31.33,44.49 30.67,44.5 30,44.5 C29.66,44.5 29.33,44.5 29,44.49 C28.67,44.5 28.34,44.5 28,44.49 C27.66,44.48 27.33,44.48 27,44.48 C26.67,44.48 26.33,44.47 26,44.47 C24.98,44.46 23.98,44.44 23,44.41 L21,44.35 C19.97,44.32 18.96,44.28 17.99,44.23 C17.66,44.21 17.33,44.2 17,44.18 L16,44.12 C14.95,44.07 13.95,44 12.99,43.93 C12.3,43.88 11.64,43.83 11,43.77 C9.92,43.67 8.92,43.57 7.99,43.45 C7.65,43.42 7.32,43.37 7,43.33 C6.65,43.28 6.32,43.23 6,43.18 C5.5,43.11 5.04,43.03 4.62,42.95 C3.67701899,42.7675145 2.99691216,41.940471 3,40.98 L2.99998953,9.59 C3.81,9.8 4.83,10 6.05,10.19 L6.06,10.19 C6.66,10.28 7.3,10.37 7.99,10.45 L8,10.45 C8.93,10.56 9.93,10.67 11.01,10.76 C11.65,10.82 12.31,10.87 13,10.93 C13.96,11 14.96,11.07 16.01,11.13 C16.66,11.16 17.32,11.2 18,11.23 C18.97,11.27 19.97,11.32 21,11.35 L23,11.41 C23.98,11.44 24.98,11.46 26,11.47 C26.66,11.48 27.32,11.49 28,11.49 C28.34,11.5 28.67,11.5 29,11.49 C29.33,11.5 29.66,11.5 30,11.5 C30.67,11.5 31.34,11.5 32,11.49 C32.68,11.49 33.34,11.48 34,11.47 C35.02,11.46 36.02,11.44 37,11.41 L39,11.35 C40.03,11.32 41.03,11.27 42,11.23 C42.68,11.2 43.34,11.16 43.99,11.13 C45.04,11.07 46.04,11 47,10.93 C47.69,10.87 48.35,10.82 48.99,10.76 C50.07,10.67 51.07,10.56 52,10.45 L52.01,10.45 C52.7,10.37 53.34,10.28 53.94,10.19 L53.95,10.19 C53.97,10.19 53.98,10.18 54,10.18 C55.2,9.99 56.2,9.8 57.0000105,9.59 Z" id="Shape" fill="#CAD9FC"/><path d="M54.0000105,9.59 L54,40.98 C54.0030878,41.940471 53.322981,42.7675145 52.38,42.95 C51.95,43.03 51.49,43.11 51,43.18 C50.39,43.28 49.72,43.37 49.01,43.45 C48.08,43.57 47.08,43.67 46,43.77 C45.68,43.79 45.34,43.82 45,43.85 C44.68,43.88 44.35,43.9 44.01,43.93 C43.05,44 42.05,44.07 41,44.13 C40.35,44.17 39.69,44.2 39.01,44.23 C38.04,44.28 37.03,44.32 36,44.36 L35,44.39 L34,44.42 C33.02,44.44 32.02,44.46 31,44.47 C30.34,44.48 29.67,44.49 29,44.49 C28.67,44.5 28.34,44.5 28,44.49 C27.66,44.48 27.33,44.48 27,44.48 C26.67,44.48 26.33,44.47 26,44.47 C24.98,44.46 23.98,44.44 23,44.41 L21,44.35 C19.97,44.32 18.96,44.28 17.99,44.23 C17.66,44.21 17.33,44.2 17,44.18 L16,44.12 C14.95,44.07 13.95,44 12.99,43.93 C12.3,43.88 11.64,43.83 11,43.77 C9.92,43.67 8.92,43.57 7.99,43.45 C7.65,43.42 7.32,43.37 7,43.33 C6.65,43.28 6.32,43.23 6,43.18 C5.5,43.11 5.04,43.03 4.62,42.95 C3.67701899,42.7675145 2.99691216,41.940471 3,40.98 L3,10.18 C3.02,10.18 3.03,10.19 3.05,10.19 L3.06,10.19 C3.66,10.28 4.3,10.37 4.99,10.45 L5,10.45 C5.93,10.56 6.93,10.67 8.01,10.76 C8.65,10.82 9.31,10.87 10,10.93 C10.96,11 11.96,11.07 13.01,11.13 C13.66,11.16 14.32,11.2 15,11.23 C15.97,11.27 16.97,11.32 18,11.35 L20,11.41 C20.98,11.44 21.98,11.46 23,11.47 C23.66,11.48 24.32,11.49 25,11.49 C25.66,11.5 26.33,11.5 27,11.5 C27.34,11.5 27.67,11.5 28,11.49 C28.34,11.5 28.67,11.5 29,11.49 C29.68,11.49 30.34,11.48 31,11.47 C32.02,11.46 33.02,11.44 34,11.41 L36,11.35 C37.03,11.32 38.03,11.27 39,11.23 C39.68,11.2 40.34,11.16 40.99,11.13 C42.04,11.07 43.04,11 44,10.93 C44.69,10.87 45.35,10.82 45.99,10.76 C47.07,10.67 48.07,10.56 49,10.45 L49.01,10.45 C49.7,10.37 50.34,10.28 50.94,10.19 L50.95,10.19 C52.17,10 53.19,9.8 54.0000105,9.59 Z" id="Shape" fill="#E8EDFC"/><path d="M59,4.5 C59,4.89 58.29,5.26 56.99,5.6 C52.75,6.71 42.26,7.5 30,7.5 C17.74,7.5 7.25,6.71 3.01,5.6 C1.71,5.26 1,4.89 1,4.5 C1,2.84 13.98,1.5 30,1.5 C46.02,1.5 59,2.84 59,4.5 Z" id="Shape" fill="#AF8066"/><path d="M58.25,4.84 C58.2515762,4.86051477 58.2481444,4.88110533 58.24,4.9 C57.248895,5.2285409 56.2365488,5.48914488 55.21,5.68 C49.78,6.78 40.54,7.5 30.08,7.5 C17.29,7.5 6.35,6.42 1.93,4.9 C1.92185559,4.88110533 1.91842383,4.86051477 1.92,4.84 C1.92,4.63 2.08,4.43 2.39,4.24 C4.81,2.67 16.28,1.5 30.08,1.5 C45.65,1.5 58.25,2.99 58.25,4.84 Z" id="Shape" fill="#CAD9FC"/><path d="M55.21,5.68 C49.78,6.78 40.54,7.5 30.08,7.5 C17.29,7.5 6.35,6.42 1.93,4.9 C1.92185559,4.88110533 1.91842383,4.86051477 1.92,4.84 C1.92,4.63 2.08,4.43 2.39,4.24 C7.18,3.2 16.44,2.5 27.08,2.5 C42.19,2.5 54.51,3.9 55.21,5.68 Z" id="Shape" fill="#E8EDFC"/><path d="M59,4.5 L59,8.5 C59,8.89 58.29,9.26 57,9.59 C52.76,10.71 42.27,11.5 30,11.5 C29.5,11.5 29,11.5 28.5,11.49 C16.88,11.43 7.07,10.66 3,9.59 C1.71,9.26 1,8.89 1,8.5 L1,4.5 C1,6.11 13.17,7.41 28.49,7.49 C28.4926332,7.49268754 28.4962374,7.49420204 28.5,7.49420204 C28.5037626,7.49420204 28.5073668,7.49268754 28.51,7.49 C29,7.5 29.5,7.5 30,7.5 C41.4,7.5 51.26,6.82 56,5.83 C57.92,5.43 59,4.98 59,4.5 Z" id="Shape" fill="#CAD9FC"/><path d="M56,4.5 L56,8.5 C56,8.89 55.29,9.26 54,9.59 C49.93,10.66 40.12,11.43 28.5,11.49 C16.88,11.43 7.07,10.66 3,9.59 C1.71,9.26 1,8.89 1,8.5 L1,5.83 C5.74,6.82 15.6,7.5 27,7.5 C27.5,7.5 28,7.5 28.49,7.49 C28.4926332,7.49268754 28.4962374,7.49420204 28.5,7.49420204 C28.5037626,7.49420204 28.5073668,7.49268754 28.51,7.49 C43.83,7.41 56,6.11 56,4.5 Z" id="Shape" fill="#E8EDFC"/><path d="M48,18.94 L48,25.93 C47.9998361,26.4499769 47.5985699,26.8817741 47.08,26.92 C45.8,27.02 44.43,27.11 43,27.18 C41.41,27.26 39.74,27.33 38,27.38 C36.39,27.43 34.71,27.47 33,27.48 C32.01,27.49 31.01,27.5 30,27.5 C29.5,27.5 29,27.5 28.5,27.49 C28,27.48 27.5,27.49 27,27.48 C26.09,27.47 25.19,27.46 24.3,27.44 L22,27.38 C21.78,27.37 21.57,27.37 21.36,27.36 C19.85,27.31 18.39,27.25 17,27.18 L16.51,27.15 C15.52,27.1 14.56,27.04 13.64,26.97 C13.4,26.96 13.16,26.94 12.92,26.92 C12.4014301,26.8817741 12.0001639,26.4499769 12,25.93 L12,18.93 C11.9975111,18.5918957 12.1719774,18.2770979 12.46,18.1 C12.6419591,17.9766036 12.8610518,17.9200636 13.08,17.94 C14.32,18.03 15.64,18.11 17.02,18.18 C18,18.23 19.02,18.28 20.07,18.31 C20.7,18.34 21.35,18.36 22,18.38 L23,18.41 C24.3,18.45 25.64,18.47 27,18.48 C27.32,18.48 27.62,18.49 27.94,18.49 L27.95,18.49 C28.63,18.5 29.31,18.5 30,18.5 C30.31,18.5 30.63,18.5 30.94,18.49 C31.63,18.49 32.32,18.49 33,18.48 C34.71,18.47 36.39,18.43 38,18.38 C39.74,18.33 41.41,18.26 43,18.18 C43.52,18.15 44.04,18.12 44.54,18.1 C45.36,18.05 46.16,18 46.93,17.94 C47.2071218,17.9205529 47.4798443,18.0172604 47.6828077,18.2069458 C47.885771,18.3966312 48.0006815,18.6621975 48,18.94 Z" id="Shape" fill="#A4C2F7"/><path d="M45,18.94 L45,25.93 C44.9998361,26.4499769 44.5985699,26.8817741 44.08,26.92 C42.8,27.02 41.43,27.11 40,27.18 C38.41,27.26 36.74,27.33 35,27.38 C33.39,27.43 31.71,27.47 30,27.48 C29.5,27.49 29,27.49 28.5,27.49 C28,27.49 27.5,27.49 27,27.48 C26.09,27.47 25.19,27.46 24.3,27.44 L22,27.38 C21.78,27.37 21.57,27.37 21.36,27.36 C19.85,27.31 18.39,27.25 17,27.18 L16.51,27.15 C15.52,27.1 14.56,27.04 13.64,26.97 C13.4,26.96 13.16,26.94 12.92,26.92 C12.4014301,26.8817741 12.0001639,26.4499769 12,25.93 L12,18.93 C11.9975111,18.5918957 12.1719774,18.2770979 12.46,18.1 C12.97,18.12 13.49,18.15 14.02,18.18 C15,18.23 16.02,18.28 17.07,18.31 C17.7,18.34 18.35,18.36 19,18.38 L20,18.41 C21.3,18.45 22.64,18.47 24,18.48 C24.32,18.48 24.62,18.49 24.94,18.49 L24.95,18.49 C25.63,18.5 26.31,18.5 27,18.5 C27.31,18.5 27.63,18.5 27.94,18.49 L27.95,18.49 C28.64,18.49 29.32,18.49 30,18.48 C31.71,18.47 33.39,18.43 35,18.38 C36.74,18.33 38.41,18.26 40,18.18 C41.36,18.11 42.69,18.03 43.93,17.94 C44.1457053,17.9213341 44.3612262,17.9778642 44.54,18.1 C44.8305056,18.2795071 45.0052188,18.5985486 45,18.94 Z" id="Shape" fill="url(#linearGradient-1)"/><path d="M4.035,4.648 C4.041,4.66 4.053,4.673 4.06,4.685 C4.053,4.673 4.041,4.66 4.035,4.648 Z" id="Shape" fill="#FFFFFF"/><path d="M30,44.48 C29.66,44.48 29.33,44.47 29,44.47 C27.98,44.46 26.98,44.44 26,44.41 L24,44.35 C22.97,44.32 21.96,44.28 20.99,44.23 C20.66,44.21 20.33,44.2 20,44.18 L19,44.12 C17.95,44.07 16.95,44 15.99,43.93 C15.3,43.88 14.64,43.83 14,43.77 C12.92,43.67 11.92,43.57 10.99,43.45 C10.65,43.42 10.32,43.37 10,43.33 C9.65,43.28 9.32,43.23 9,43.18 C8.5,43.11 8.04,43.03 7.62,42.95 C6.67701899,42.7675145 5.99691216,41.940471 6,40.98 L6,10.18 C5.611,10.119 5.248,10.056 4.9,9.993 C5.246,10.055 5.61266667,10.1153333 6,10.174 L6,9.59 C4.71,9.26 4,8.89 4,8.5 L4,5.83 C3.645,5.756 3.317,5.68 3.021,5.603 C3.316,5.68 3.647,5.755 4,5.828 L4,4.5 C4,2.892 16.178,1.584 31.5,1.5 C31.217,1.5 30.931,1.5 30.646,1.5 L30.08,1.5 L30,1.5 C13.98,1.5 1,2.84 1,4.5 L1,8.5 C1,8.89 1.71,9.26 3,9.59 C3.22,9.648 3.465,9.705 3.719,9.761 C3.465,9.704 3.219,9.648 3,9.59 L3,40.98 C2.99691216,41.940471 3.67701899,42.7675145 4.62,42.95 C5.04,43.03 5.5,43.11 6,43.18 C6.32,43.23 6.65,43.28 7,43.33 C7.32,43.37 7.65,43.42 7.99,43.45 C8.92,43.57 9.92,43.67 11,43.77 C11.64,43.83 12.3,43.88 12.99,43.93 C13.95,44 14.95,44.07 16,44.12 L17,44.18 C17.33,44.2 17.66,44.21 17.99,44.23 C18.96,44.28 19.97,44.32 21,44.35 L23,44.41 C23.98,44.44 24.98,44.46 26,44.47 C26.33,44.47 26.66,44.48 27,44.48 C27.34,44.48 27.67,44.49 28,44.49 C28.33,44.49 28.67,44.5 29,44.49 C29.33,44.5 29.66,44.5 30,44.5 C30.67,44.5 31.34,44.5 32,44.49 C31.67,44.5 31.34,44.5 31,44.49 C30.66,44.48 30.33,44.48 30,44.48 Z M2.964,5.587 C2.829,5.551 2.699,5.515 2.577,5.479 C2.7,5.515 2.829,5.551 2.964,5.587 Z M2.456,5.44 C2.356,5.41 2.264,5.38 2.177,5.349 C2.264,5.38 2.36,5.41 2.456,5.44 Z M2.026,5.292 C1.959,5.267 1.89,5.241 1.826,5.216 C1.89,5.241 1.959,5.267 2.026,5.292 Z M1.19,4.84 C1.173,4.824 1.152,4.81 1.138,4.794 C1.1544106,4.81034583 1.17177429,4.82570603 1.19,4.84 Z M1.671,5.14 C1.626,5.119 1.578,5.098 1.538,5.076 C1.578,5.1 1.626,5.121 1.671,5.142 L1.671,5.14 Z M1.392,4.989 C1.364,4.972 1.332,4.954 1.307,4.936 C1.332,4.956 1.364,4.974 1.392,4.991 L1.392,4.989 Z M1.06,4.683 C1.053,4.671 1.041,4.658 1.035,4.646 C1.041,4.66 1.053,4.673 1.06,4.685 L1.06,4.683 Z M4.635,9.944 C4.44566667,9.90933333 4.26366667,9.87333333 4.089,9.836 C4.265,9.875 4.445,9.911 4.635,9.946 L4.635,9.944 Z" id="Shape" fill="#FFFFFF"/><path d="M30,8.5 C22.221,8.5 14.9,8.186 9.391,7.616 C0.718,6.719 0,5.63 0,4.5 C0,3.37 0.718,2.281 9.391,1.384 C14.9,0.814 22.221,0.5 30,0.5 C37.779,0.5 45.1,0.814 50.609,1.384 C59.282,2.281 60,3.37 60,4.5 C60,5.63 59.282,6.719 50.609,7.616 C45.1,8.186 37.779,8.5 30,8.5 Z M2.721,4.5 C5.698,5.438 15.466,6.5 30,6.5 C44.534,6.5 54.3,5.438 57.279,4.5 C54.302,3.562 44.534,2.5 30,2.5 C15.466,2.5 5.7,3.562 2.721,4.5 Z" id="Shape" fill="#428DFF"/><path d="M30,28.5 C28.987,28.5 27.983,28.49 26.99,28.48 C25.275,28.47 23.59,28.43 21.969,28.38 C20.224,28.331 18.547,28.26 16.95,28.18 C15.15,28.089 13.459,27.98 11.917,27.848 C11.5583286,27.8217119 11.2413966,27.6048528 11.0869754,27.28006 C10.9325542,26.9552672 10.9644297,26.5725694 11.1704553,26.2777987 C11.3764808,25.9830281 11.7249218,25.821589 12.083,25.855 C13.604,25.982 15.276,26.092 17.051,26.183 C18.633,26.262 20.296,26.332 22.029,26.383 C23.629,26.433 25.305,26.473 27.006,26.483 C28.988,26.503 31.016,26.503 32.99,26.483 C34.69,26.473 36.367,26.433 37.969,26.383 C39.704,26.334 41.369,26.264 42.95,26.183 C44.724,26.092 46.396,25.983 47.916,25.855 C48.1815907,25.8266486 48.4472215,25.9081568 48.6512005,26.0805947 C48.8551795,26.2530325 48.9797569,26.5013947 48.996,26.768 C49.0421278,27.3179914 48.6339484,27.8013618 48.084,27.848 C46.541,27.977 44.847,28.089 43.051,28.18 C41.451,28.26 39.776,28.331 38.029,28.38 C36.413,28.431 34.729,28.471 33.006,28.48 C32.017,28.49 31.013,28.5 30,28.5 Z" id="Shape" fill="#428DFF"/><path d="M30,12.5 C22.216,12.5 14.9,12.187 9.39,11.617 C0.718,10.721 -1.21214248e-15,9.631 -1.21214248e-15,8.5 C-0.000515308987,8.01208558 0.351155383,7.59502896 0.832147666,7.51313161 C1.31313995,7.43123426 1.78301554,7.70840825 1.944,8.169 C3.409,9.167 13.709,10.5 30,10.5 C46.291,10.5 56.591,9.167 58.056,8.169 C58.2169845,7.70840825 58.6868601,7.43123426 59.1678523,7.51313161 C59.6488446,7.59502896 60.0005153,8.01208558 60,8.5 C60,9.631 59.282,10.721 50.61,11.617 C45.1,12.187 37.784,12.5 30,12.5 Z" id="Shape" fill="#428DFF"/><path d="M1,9.5 C0.44771525,9.5 6.76353751e-17,9.05228475 0,8.5 L0,4.5 C-6.76353751e-17,3.94771525 0.44771525,3.5 1,3.5 C1.55228475,3.5 2,3.94771525 2,4.5 L2,8.5 C2,9.05228475 1.55228475,9.5 1,9.5 Z" id="Shape" fill="#428DFF"/><path d="M59,9.5 C58.4477153,9.5 58,9.05228475 58,8.5 L58,4.5 C58,3.94771525 58.4477153,3.5 59,3.5 C59.5522847,3.5 60,3.94771525 60,4.5 L60,8.5 C60,9.05228475 59.5522847,9.5 59,9.5 Z" id="Shape" fill="#428DFF"/><rect id="Rectangle-path" fill="#FFFFFF" x="2" y="23.41" width="2" height="2.18"/><path d="M3,24.811 C2.45,24.811 2,24.882 2,24.967 L2,25.59 L4,25.59 L4,24.967 C4,24.882 3.55,24.811 3,24.811 Z" id="Shape" fill="#428DFF"/><path d="M4,23.41 L2,23.41 L2,23.721 C2,23.807 2.45,23.877 3,23.877 C3.55,23.877 4,23.807 4,23.721 L4,23.41 Z" id="Shape" fill="#428DFF"/><path d="M2,24.344 C2,24.385 2.11,24.425 2.29,24.455 L2.44,24.474 L2.62,24.488 L2.8,24.497 L3,24.497 C3.23741727,24.4982543 3.4746409,24.483219 3.71,24.452 C3.78144565,24.4416293 3.85175601,24.424554 3.92,24.401 C4.07,24.344 3.99,24.274 3.71,24.231 C3.61,24.217 3.51,24.206 3.38,24.198 L3,24.189 C2.76258273,24.1877457 2.5253591,24.202781 2.29,24.234 C2.11,24.263 2,24.3 2,24.344 Z" id="Shape" fill="#428DFF"/><polygon id="Shape" fill="#FFFFFF" points="4 16.59 4 29.59 4 40.98 2 40.98 2 29.59 2 16.59"/><path d="M3,21.59 C3.55228475,21.59 4,21.1422847 4,20.59 L4,16.59 L2,16.59 L2,20.59 C2,21.1422847 2.44771525,21.59 3,21.59 Z" id="Shape" fill="#428DFF"/><path d="M2,40.98 L4,40.98 L4,28.59 C4,28.0377153 3.55228475,27.59 3,27.59 C2.44771525,27.59 2,28.0377153 2,28.59 L2,40.98 Z" id="Shape" fill="#428DFF"/><path d="M4,24.59 C3.99611961,24.3252731 3.89256504,24.071743 3.71,23.88 L3.56,23.76 C3.50427287,23.7221227 3.44373808,23.6918554 3.38,23.67 C3.32333758,23.6411123 3.26266255,23.6208873 3.2,23.61 C3.13385548,23.5988692 3.06703885,23.5921875 3,23.59 C2.73527314,23.5938804 2.48174298,23.697435 2.29,23.88 C2.19960316,23.9756071 2.12832305,24.0876187 2.08,24.21 C1.92912342,24.5829737 2.01135194,25.0097788 2.29,25.3 C2.38560709,25.3903968 2.49761868,25.461677 2.62,25.51 C2.74022231,25.561241 2.86932274,25.58842 3,25.59 C3.26472686,25.5861196 3.51825702,25.482565 3.71,25.3 C3.89256504,25.108257 3.99611961,24.8547269 4,24.59 Z" id="Shape" fill="#428DFF"/><path d="M30,45.5 C28.987,45.5 27.983,45.49 26.99,45.48 C23.617,45.452 20.238,45.351 16.948,45.18 C13.006,44.98 9.519,44.68 6.865,44.322 C5.965,44.199 5.151,44.067 4.438,43.935 C3.02228562,43.6613765 1.99967685,42.4219143 2,40.98 C2,40.4277153 2.44771525,39.98 3,39.98 C3.55228475,39.98 4,40.4277153 4,40.98 C3.99691833,41.4610523 4.33679228,41.876127 4.809,41.968 C5.488,42.094 6.273,42.222 7.135,42.339 C9.735,42.692 13.163,42.983 17.051,43.182 C20.313,43.352 23.663,43.452 27.008,43.482 C30.598,43.52 34.325,43.493 37.973,43.393 C41.508,43.287 44.855,43.106 47.918,42.856 C50.818,42.623 53.339,42.316 55.196,41.969 C55.6642549,41.8734308 55.9994404,41.4598957 55.996,40.982 L55.996,9.59 C55.996,9.03771525 56.4437153,8.59 56.996,8.59 C57.5482847,8.59 57.996,9.03771525 57.996,9.59 L57.996,40.98 C57.9990053,42.4201999 56.9781545,43.6593247 55.564,43.932 C53.635,44.293 51.047,44.609 48.076,44.847 C44.976,45.1 41.599,45.283 38.026,45.39 C35.366,45.463 32.666,45.5 30,45.5 Z" id="Shape" fill="#428DFF"/><path d="M3,17.59 C2.44771525,17.59 2,17.1422847 2,16.59 L2,9.59 C2,9.03771525 2.44771525,8.59 3,8.59 C3.55228475,8.59 4,9.03771525 4,9.59 L4,16.59 C4,17.1422847 3.55228475,17.59 3,17.59 Z" id="Shape" fill="#428DFF"/><path d="M7,15.5 C6.44771525,15.5 6,15.0522847 6,14.5 L6,10.5 C6,9.94771525 6.44771525,9.5 7,9.5 C7.55228475,9.5 8,9.94771525 8,10.5 L8,14.5 C8,15.0522847 7.55228475,15.5 7,15.5 Z" id="Shape" fill="#428DFF"/><path d="M7,44.33 C6.44771525,44.33 6,43.8822847 6,43.33 L6,18.5 C6,17.9477153 6.44771525,17.5 7,17.5 C7.55228475,17.5 8,17.9477153 8,18.5 L8,43.33 C8,43.8822847 7.55228475,44.33 7,44.33 Z" id="Shape" fill="#428DFF"/><path d="M17,15.5 C16.4477153,15.5 16,15.0522847 16,14.5 L16,11.18 C16,10.6277153 16.4477153,10.18 17,10.18 C17.5522847,10.18 18,10.6277153 18,11.18 L18,14.5 C18,15.0522847 17.5522847,15.5 17,15.5 Z" id="Shape" fill="#428DFF"/><path d="M17,45.18 C16.4477153,45.18 16,44.7322847 16,44.18 L16,27.18 C16,26.6277153 16.4477153,26.18 17,26.18 C17.5522847,26.18 18,26.6277153 18,27.18 L18,44.18 C18,44.7322847 17.5522847,45.18 17,45.18 Z" id="Shape" fill="#428DFF"/><path d="M12,44.85 C11.4477153,44.85 11,44.4022847 11,43.85 L11,40.5 C11,39.9477153 11.4477153,39.5 12,39.5 C12.5522847,39.5 13,39.9477153 13,40.5 L13,43.85 C13,44.4022847 12.5522847,44.85 12,44.85 Z" id="Shape" fill="#428DFF"/><path d="M12,37.5 C11.4477153,37.5 11,37.0522847 11,36.5 L11,10.85 C11,10.2977153 11.4477153,9.85 12,9.85 C12.5522847,9.85 13,10.2977153 13,10.85 L13,36.5 C13,37.0522847 12.5522847,37.5 12,37.5 Z" id="Shape" fill="#428DFF"/><path d="M22,45.39 C21.4477153,45.39 21,44.9422847 21,44.39 L21,40.5 C21,39.9477153 21.4477153,39.5 22,39.5 C22.5522847,39.5 23,39.9477153 23,40.5 L23,44.39 C23,44.9422847 22.5522847,45.39 22,45.39 Z" id="Shape" fill="#428DFF"/><path d="M22,19.38 C21.4477153,19.38 21,18.9322847 21,18.38 L21,11.38 C21,10.8277153 21.4477153,10.38 22,10.38 C22.5522847,10.38 23,10.8277153 23,11.38 L23,18.38 C23,18.9322847 22.5522847,19.38 22,19.38 Z" id="Shape" fill="#428DFF"/><path d="M22,37.5 C21.4477153,37.5 21,37.0522847 21,36.5 L21,27.38 C21,26.8277153 21.4477153,26.38 22,26.38 C22.5522847,26.38 23,26.8277153 23,27.38 L23,36.5 C23,37.0522847 22.5522847,37.5 22,37.5 Z" id="Shape" fill="#428DFF"/><path d="M27,15.5 C26.4477153,15.5 26,15.0522847 26,14.5 L26,11.48 C26,10.9277153 26.4477153,10.48 27,10.48 C27.5522847,10.48 28,10.9277153 28,11.48 L28,14.5 C28,15.0522847 27.5522847,15.5 27,15.5 Z" id="Shape" fill="#428DFF"/><path d="M27,45.49 C26.7358682,45.4921307 26.4817935,45.3888327 26.2940818,45.2029982 C26.1063701,45.0171636 26.0005239,44.7641399 26,44.5 L26,27.48 C26,26.9277153 26.4477153,26.48 27,26.48 C27.5522847,26.48 28,26.9277153 28,27.48 L28,44.48 C28.0005712,45.0341492 27.5541274,45.4850574 27,45.49 Z" id="Shape" fill="#428DFF"/><path d="M53,44.33 C52.4477153,44.33 52,43.8822847 52,43.33 L52,40.5 C52,39.9477153 52.4477153,39.5 53,39.5 C53.5522847,39.5 54,39.9477153 54,40.5 L54,43.33 C54,43.8822847 53.5522847,44.33 53,44.33 Z" id="Shape" fill="#428DFF"/><path d="M53,37.5 C52.4477153,37.5 52,37.0522847 52,36.5 L52,10.5 C52,9.94771525 52.4477153,9.5 53,9.5 C53.5522847,9.5 54,9.94771525 54,10.5 L54,36.5 C54,37.0522847 53.5522847,37.5 53,37.5 Z" id="Shape" fill="#428DFF"/><path d="M43,45.18 C42.4477153,45.18 42,44.7322847 42,44.18 L42,40.5 C42,39.9477153 42.4477153,39.5 43,39.5 C43.5522847,39.5 44,39.9477153 44,40.5 L44,44.18 C44,44.7322847 43.5522847,45.18 43,45.18 Z" id="Shape" fill="#428DFF"/><path d="M43,37.5 C42.4477153,37.5 42,37.0522847 42,36.5 L42,27.18 C42,26.6277153 42.4477153,26.18 43,26.18 C43.5522847,26.18 44,26.6277153 44,27.18 L44,36.5 C44,37.0522847 43.5522847,37.5 43,37.5 Z" id="Shape" fill="#428DFF"/><path d="M43,19.18 C42.4477153,19.18 42,18.7322847 42,18.18 L42,11.18 C42,10.6277153 42.4477153,10.18 43,10.18 C43.5522847,10.18 44,10.6277153 44,11.18 L44,18.18 C44,18.7322847 43.5522847,19.18 43,19.18 Z" id="Shape" fill="#428DFF"/><path d="M48,15.5 C47.4477153,15.5 47,15.0522847 47,14.5 L47,10.85 C47,10.2977153 47.4477153,9.85 48,9.85 C48.5522847,9.85 49,10.2977153 49,10.85 L49,14.5 C49,15.0522847 48.5522847,15.5 48,15.5 Z" id="Shape" fill="#428DFF"/><path d="M48,44.85 C47.4477153,44.85 47,44.4022847 47,43.85 L47,18.941 C45.8,19.026 44.478,19.105 43.051,19.179 C41.451,19.259 39.776,19.33 38.029,19.379 C36.413,19.43 34.729,19.47 33.006,19.479 C31.027,19.499 28.977,19.499 26.99,19.479 C25.275,19.469 23.59,19.429 21.969,19.379 C20.234,19.33 18.557,19.259 16.969,19.179 C15.154,19.087 13.454,18.979 11.916,18.847 C11.5573286,18.8207119 11.2403966,18.6038528 11.0859754,18.27906 C10.9315542,17.9542672 10.9634297,17.5715694 11.1694553,17.2767987 C11.3754808,16.9820281 11.7239218,16.820589 12.082,16.854 C13.599,16.98 15.282,17.091 17.069,17.182 C18.643,17.261 20.305,17.331 22.028,17.382 C23.628,17.432 25.304,17.472 27.005,17.482 C28.987,17.502 31.015,17.502 32.989,17.482 C34.689,17.472 36.366,17.432 37.968,17.382 C39.703,17.333 41.368,17.263 42.949,17.182 C44.798,17.082 46.472,16.982 47.921,16.867 C48.1985506,16.8470935 48.4721358,16.9417822 48.678,17.129 C48.8828664,17.3184795 48.9992404,17.5849432 48.999,17.864 L48.999,43.85 C48.9990003,44.4018945 48.5518942,44.8494481 48,44.85 Z" id="Shape" fill="#428DFF"/><path d="M38,15.5 C37.4477153,15.5 37,15.0522847 37,14.5 L37,11.38 C37,10.8277153 37.4477153,10.38 38,10.38 C38.5522847,10.38 39,10.8277153 39,11.38 L39,14.5 C39,15.0522847 38.5522847,15.5 38,15.5 Z" id="Shape" fill="#428DFF"/><path d="M38,45.39 C37.4477153,45.39 37,44.9422847 37,44.39 L37,27.38 C37,26.8277153 37.4477153,26.38 38,26.38 C38.5522847,26.38 39,26.8277153 39,27.38 L39,44.39 C39,44.9422847 38.5522847,45.39 38,45.39 Z" id="Shape" fill="#428DFF"/><path d="M33,45.5 C32.4477153,45.5 32,45.0522847 32,44.5 L32,40.5 C32,39.9477153 32.4477153,39.5 33,39.5 C33.5522847,39.5 34,39.9477153 34,40.5 L34,44.5 C34,45.0522847 33.5522847,45.5 33,45.5 Z" id="Shape" fill="#428DFF"/><path d="M33,19.48 C32.4477153,19.48 32,19.0322847 32,18.48 L32,11.48 C32,10.9277153 32.4477153,10.48 33,10.48 C33.5522847,10.48 34,10.9277153 34,11.48 L34,18.48 C34,19.0322847 33.5522847,19.48 33,19.48 Z" id="Shape" fill="#428DFF"/><path d="M33,37.5 C32.4477153,37.5 32,37.0522847 32,36.5 L32,27.48 C32,26.9277153 32.4477153,26.48 33,26.48 C33.5522847,26.48 34,26.9277153 34,27.48 L34,36.5 C34,37.0522847 33.5522847,37.5 33,37.5 Z" id="Shape" fill="#428DFF"/></g></g></svg>
