<?xml version="1.0" encoding="UTF-8"?>
<svg xmlns="http://www.w3.org/2000/svg" xmlns:xlink="http://www.w3.org/1999/xlink" width="512" height="512" viewBox="0 0 54 60" version="1.1"><!-- Generator: Sketch 51.3 (57544) - http://www.bohemiancoding.com/sketch --><title>026 - Draught Keg</title><desc>Created with Sketch.</desc><defs/><g id="Page-1" stroke="none" stroke-width="1" fill="none" fill-rule="evenodd"><g id="026---Draught-Keg" fill-rule="nonzero"><rect id="Rectangle-path" fill="#CAD9FC" x="39.062" y="47" width="9.813" height="4"/><path d="M53,54 L51.371,58.072 C51.146602,58.6324544 50.6037082,58.9999274 50,59 C49.3962918,58.9999274 48.853398,58.6324544 48.629,58.072 L47,54 L50,52 L53,54 Z" id="Shape" fill="#CAD9FC"/><rect id="Rectangle-path" fill="#CAD9FC" x="3" y="7" width="38" height="16"/><rect id="Rectangle-path" fill="#CAD9FC" x="3" y="23" width="38" height="18"/><rect id="Rectangle-path" fill="#CAD9FC" x="3" y="41" width="38" height="16"/><rect id="Rectangle-path" fill="#E8EDFC" x="3" y="7" width="35" height="16"/><rect id="Rectangle-path" fill="#E8EDFC" x="3" y="23" width="35" height="18"/><rect id="Rectangle-path" fill="#E8EDFC" x="3" y="41" width="35" height="16"/><path d="M43,7 C42.9918328,8.10116878 42.1011688,8.99183278 41,9 L3,9 C1.89679813,8.9967052 1.0032948,8.10320187 1,7 C1.00816722,5.89883122 1.89883122,5.00816722 3,5 L41,5 C42.1032019,5.0032948 42.9967052,5.89679813 43,7 Z" id="Shape" fill="#7FACFA"/><path d="M43,57 C42.9918328,58.1011688 42.1011688,58.9918328 41,59 L3,59 C1.89679813,58.9967052 1.0032948,58.1032019 1,57 C1.00816722,55.8988312 1.89883122,55.0081672 3,55 L41,55 C42.1032019,55.0032948 42.9967052,55.8967981 43,57 Z" id="Shape" fill="#7FACFA"/><path d="M43,23 C42.9918328,24.1011688 42.1011688,24.9918328 41,25 L3,25 C1.89679813,24.9967052 1.0032948,24.1032019 1,23 C1.00816722,21.8988312 1.89883122,21.0081672 3,21 L41,21 C42.1032019,21.0032948 42.9967052,21.8967981 43,23 Z" id="Shape" fill="#7FACFA"/><path d="M43,41 C42.9918328,42.1011688 42.1011688,42.9918328 41,43 L3,43 C1.89679813,42.9967052 1.0032948,42.1032019 1,41 C1.00816722,39.8988312 1.89883122,39.0081672 3,39 L41,39 C42.1032019,39.0032948 42.9967052,39.8967981 43,41 Z" id="Shape" fill="#7FACFA"/><path d="M40,7 C39.9918328,8.10116878 39.1011688,8.99183278 38,9 L3,9 C1.89679813,8.9967052 1.0032948,8.10320187 1,7 C1.00816722,5.89883122 1.89883122,5.00816722 3,5 L38,5 C39.1032019,5.0032948 39.9967052,5.89679813 40,7 Z" id="Shape" fill="#A4C2F7"/><path d="M40,57 C39.9918328,58.1011688 39.1011688,58.9918328 38,59 L3,59 C1.89679813,58.9967052 1.0032948,58.1032019 1,57 C1.00816722,55.8988312 1.89883122,55.0081672 3,55 L38,55 C39.1032019,55.0032948 39.9967052,55.8967981 40,57 Z" id="Shape" fill="#A4C2F7"/><path d="M40,23 C39.9918328,24.1011688 39.1011688,24.9918328 38,25 L3,25 C1.89679813,24.9967052 1.0032948,24.1032019 1,23 C1.00816722,21.8988312 1.89883122,21.0081672 3,21 L38,21 C39.1032019,21.0032948 39.9967052,21.8967981 40,23 Z" id="Shape" fill="#A4C2F7"/><path d="M40,41 C39.9918328,42.1011688 39.1011688,42.9918328 38,43 L3,43 C1.89679813,42.9967052 1.0032948,42.1032019 1,41 C1.00816722,39.8988312 1.89883122,39.0081672 3,39 L38,39 C39.1032019,39.0032948 39.9967052,39.8967981 40,41 Z" id="Shape" fill="#A4C2F7"/><path d="M53,44 L53,54 L47,54 L47,45 C47,44.4477153 47.4477153,44 48,44 L53,44 Z" id="Shape" fill="#CAD9FC"/><path d="M51,44 L51,54 L47,54 L47,45 C47,44.4477153 47.4477153,44 48,44 L51,44 Z" id="Shape" fill="#E8EDFC"/><path d="M4,57 C4.00816722,55.8988312 4.89883122,55.0081672 6,55 L6,43 C4.89679813,42.9967052 4.0032948,42.1032019 4,41 C4.00816722,39.8988312 4.89883122,39.0081672 6,39 L6,25 C4.89679813,24.9967052 4.0032948,24.1032019 4,23 C4.00816722,21.8988312 4.89883122,21.0081672 6,21 L6,9 C4.89679813,8.9967052 4.0032948,8.10320187 4,7 C4.00816722,5.89883122 4.89883122,5.00816722 6,5 L3,5 C1.89883122,5.00816722 1.00816722,5.89883122 1,7 C1.0032948,8.10320187 1.89679813,8.9967052 3,9 L3,21 C1.89883122,21.0081672 1.00816722,21.8988312 1,23 C1.0032948,24.1032019 1.89679813,24.9967052 3,25 L3,39 C1.89883122,39.0081672 1.00816722,39.8988312 1,41 C1.0032948,42.1032019 1.89679813,42.9967052 3,43 L3,55 C1.89883122,55.0081672 1.00816722,55.8988312 1,57 C1.0032948,58.1032019 1.89679813,58.9967052 3,59 L6,59 C4.89679813,58.9967052 4.0032948,58.1032019 4,57 Z" id="Shape" fill="#FFFFFF"/><path d="M41,10 L3,10 C1.34314577,9.99999998 4.47034836e-08,8.65685423 4.47034836e-08,7 C4.47034836e-08,5.34314577 1.34314577,4.00000002 3,4 L41,4 C42.6568542,4.00000002 44,5.34314577 44,7 C44,8.65685423 42.6568542,9.99999998 41,10 Z M3,6 C2.44771525,6 2,6.44771525 2,7 C2,7.55228475 2.44771525,8 3,8 L41,8 C41.5522847,8 42,7.55228475 42,7 C42,6.44771525 41.5522847,6 41,6 L3,6 Z" id="Shape" fill="#428DFF"/><polygon id="Shape" fill="#FFFFFF" points="3 58 16 58 41 58 41 60 16 60 3 60"/><path d="M8,59 C8,58.4477153 7.55228475,58 7,58 L3,58 L3,60 L7,60 C7.55228475,60 8,59.5522847 8,59 Z" id="Shape" fill="#428DFF"/><path d="M41,60 L41,58 L15,58 C14.4477153,58 14,58.4477153 14,59 C14,59.5522847 14.4477153,60 15,60 L41,60 Z" id="Shape" fill="#428DFF"/><path d="M11,58 C10.7352731,58.0038804 10.481743,58.107435 10.29,58.29 L10.17,58.44 C10.1321227,58.4957271 10.1018554,58.5562619 10.08,58.62 C10.0511123,58.6766624 10.0308873,58.7373375 10.02,58.8 C10.0088692,58.8661445 10.0021875,58.9329612 10,59 C10.0038804,59.2647269 10.107435,59.518257 10.29,59.71 C10.3856071,59.8003968 10.4976187,59.871677 10.62,59.92 C10.9929737,60.0708766 11.4197788,59.9886481 11.71,59.71 C11.8003968,59.6143929 11.871677,59.5023813 11.92,59.38 C11.971241,59.2597777 11.99842,59.1306773 12,59 C12.0027011,58.7339647 11.8982118,58.4780384 11.7100867,58.2899133 C11.5219616,58.1017882 11.2660353,57.9972989 11,58 Z" id="Shape" fill="#428DFF"/><path d="M3,60 C1.34314575,60 -8.8817842e-16,58.6568542 -8.8817842e-16,57 C-8.8817842e-16,55.3431458 1.34314575,54 3,54 C3.55228475,54 4,54.4477153 4,55 C4,55.5522847 3.55228475,56 3,56 C2.44771525,56 2,56.4477153 2,57 C2,57.5522847 2.44771525,58 3,58 C3.55228475,58 4,58.4477153 4,59 C4,59.5522847 3.55228475,60 3,60 Z" id="Shape" fill="#428DFF"/><path d="M41,60 C40.4477153,60 40,59.5522847 40,59 C40,58.4477153 40.4477153,58 41,58 C41.5522847,58 42,57.5522847 42,57 C42,56.4477153 41.5522847,56 41,56 C40.4477153,56 40,55.5522847 40,55 C40,54.4477153 40.4477153,54 41,54 C42.6568542,54 44,55.3431458 44,57 C44,58.6568542 42.6568542,60 41,60 Z" id="Shape" fill="#428DFF"/><path d="M41,26 L3,26 C1.34314575,26 0,24.6568542 0,23 C0,21.3431458 1.34314575,20 3,20 C3.55228475,20 4,20.4477153 4,21 C4,21.5522847 3.55228475,22 3,22 C2.44771525,22 2,22.4477153 2,23 C2,23.5522847 2.44771525,24 3,24 L41,24 C41.5522847,24 42,23.5522847 42,23 C42,22.4477153 41.5522847,22 41,22 C40.4477153,22 40,21.5522847 40,21 C40,20.4477153 40.4477153,20 41,20 C42.6568542,20 44,21.3431458 44,23 C44,24.6568542 42.6568542,26 41,26 Z" id="Shape" fill="#428DFF"/><path d="M41,44 L3,44 C1.34314575,44 0,42.6568542 0,41 C0,39.3431458 1.34314575,38 3,38 C3.55228475,38 4,38.4477153 4,39 C4,39.5522847 3.55228475,40 3,40 C2.44771525,40 2,40.4477153 2,41 C2,41.5522847 2.44771525,42 3,42 L41,42 C41.5522847,42 42,41.5522847 42,41 C42,40.4477153 41.5522847,40 41,40 C40.4477153,40 40,39.5522847 40,39 C40,38.4477153 40.4477153,38 41,38 C42.6568542,38 44,39.3431458 44,41 C44,42.6568542 42.6568542,44 41,44 Z" id="Shape" fill="#428DFF"/><path d="M41,22 L16,22 C15.4477153,22 15,21.5522847 15,21 C15,20.4477153 15.4477153,20 16,20 L40,20 L40,10 L4,10 L4,20 L10,20 C10.5522847,20 11,20.4477153 11,21 C11,21.5522847 10.5522847,22 10,22 L3,22 C2.44771525,22 2,21.5522847 2,21 L2,9 C2,8.44771525 2.44771525,8 3,8 L41,8 C41.5522847,8 42,8.44771525 42,9 L42,21 C42,21.5522847 41.5522847,22 41,22 Z" id="Shape" fill="#428DFF"/><path d="M41,40 L16,40 C15.4477153,40 15,39.5522847 15,39 C15,38.4477153 15.4477153,38 16,38 L40,38 L40,26 L4,26 L4,38 L10,38 C10.5522847,38 11,38.4477153 11,39 C11,39.5522847 10.5522847,40 10,40 L3,40 C2.44771525,40 2,39.5522847 2,39 L2,25 C2,24.4477153 2.44771525,24 3,24 L41,24 C41.5522847,24 42,24.4477153 42,25 L42,39 C42,39.5522847 41.5522847,40 41,40 Z" id="Shape" fill="#428DFF"/><path d="M41,56 L16,56 C15.4477153,56 15,55.5522847 15,55 C15,54.4477153 15.4477153,54 16,54 L40,54 L40,44 L4,44 L4,54 L10,54 C10.5522847,54 11,54.4477153 11,55 C11,55.5522847 10.5522847,56 10,56 L3,56 C2.44771525,56 2,55.5522847 2,55 L2,43 C2,42.4477153 2.44771525,42 3,42 L41,42 C41.5522847,42 42,42.4477153 42,43 L42,55 C42,55.5522847 41.5522847,56 41,56 Z" id="Shape" fill="#428DFF"/><path d="M29,6 L15,6 C14.4477153,6 14,5.55228475 14,5 L14,3 C14,1.34314575 15.3431458,3.04359188e-16 17,0 L27,0 C28.6568542,1.01453063e-16 30,1.34314575 30,3 L30,5 C30,5.55228475 29.5522847,6 29,6 Z M16,4 L28,4 L28,3 C28,2.44771525 27.5522847,2 27,2 L17,2 C16.4477153,2 16,2.44771525 16,3 L16,4 Z" id="Shape" fill="#428DFF"/><path d="M47,52 L41,52 C40.4477153,52 40,51.5522847 40,51 C40,50.4477153 40.4477153,50 41,50 L47,50 C47.5522847,50 48,50.4477153 48,51 C48,51.5522847 47.5522847,52 47,52 Z" id="Shape" fill="#428DFF"/><path d="M47,48 L41,48 C40.4477153,48 40,47.5522847 40,47 C40,46.4477153 40.4477153,46 41,46 L47,46 C47.5522847,46 48,46.4477153 48,47 C48,47.5522847 47.5522847,48 47,48 Z" id="Shape" fill="#428DFF"/><path d="M53,55 L47,55 C46.4477153,55 46,54.5522847 46,54 L46,45 C46,43.8954305 46.8954305,43 48,43 L53,43 C53.5522847,43 54,43.4477153 54,44 L54,54 C54,54.5522847 53.5522847,55 53,55 Z M48,53 L52,53 L52,45 L48,45 L48,53 Z" id="Shape" fill="#428DFF"/><path d="M50,60 C48.9854087,60.0036624 48.0723834,59.38479 47.7,58.441 L46.071,54.372 C45.8655501,53.8589275 46.1149275,53.27645 46.628,53.071 C47.1410725,52.8655501 47.7235501,53.1149275 47.929,53.628 L49.558,57.7 C49.6416187,57.8675276 49.8127633,57.9733827 50,57.9733827 C50.1872367,57.9733827 50.3583813,57.8675276 50.442,57.7 L52.071,53.627 C52.2764499,53.1139275 52.8589275,52.8645501 53.372,53.07 C53.8850725,53.27545 54.1344499,53.8579275 53.929,54.371 L52.3,58.443 C51.9267471,59.3858198 51.0140085,60.0037042 50,60 Z" id="Shape" fill="#428DFF"/><path d="M53,45 C52.654854,45.0003459 52.3339273,44.8226832 52.151,44.53 L47.151,36.53 C46.8582891,36.060558 47.001558,35.4427109 47.471,35.15 C47.940442,34.8572891 48.5582891,35.000558 48.851,35.47 L53.851,43.47 C54.0439559,43.7787248 54.0538841,44.1679225 53.8769199,44.4860839 C53.6999556,44.8042452 53.3640629,45.0010941 53,45 Z" id="Shape" fill="#428DFF"/><path d="M7,18 C6.44771525,18 6,17.5522847 6,17 L6,15 C6,14.4477153 6.44771525,14 7,14 C7.55228475,14 8,14.4477153 8,15 L8,17 C8,17.5522847 7.55228475,18 7,18 Z" id="Shape" fill="#428DFF"/><path d="M7,35 C6.44771525,35 6,34.5522847 6,34 L6,32 C6,31.4477153 6.44771525,31 7,31 C7.55228475,31 8,31.4477153 8,32 L8,34 C8,34.5522847 7.55228475,35 7,35 Z" id="Shape" fill="#428DFF"/><path d="M7,52 C6.44771525,52 6,51.5522847 6,51 L6,49 C6,48.4477153 6.44771525,48 7,48 C7.55228475,48 8,48.4477153 8,49 L8,51 C8,51.5522847 7.55228475,52 7,52 Z" id="Shape" fill="#428DFF"/><path d="M7,13 C6.73523302,12.9963165 6.48163379,12.8927337 6.29,12.71 C6.19960316,12.6143929 6.12832305,12.5023813 6.08,12.38 C6.02394763,12.2613445 5.99654528,12.1311833 6,12 C6,11.4477153 6.44771525,11 7,11 C7.55228475,11 8,11.4477153 8,12 C7.99842001,12.1306773 7.97124097,12.2597777 7.92,12.38 C7.87167695,12.5023813 7.80039684,12.6143929 7.71,12.71 C7.51825702,12.892565 7.26472686,12.9961196 7,13 Z" id="Shape" fill="#428DFF"/><path d="M7,30 C6.73523302,29.9963165 6.48163379,29.8927337 6.29,29.71 C6.19960316,29.6143929 6.12832305,29.5023813 6.08,29.38 C6.02394763,29.2613445 5.99654528,29.1311833 6,29 C6,28.4477153 6.44771525,28 7,28 C7.55228475,28 8,28.4477153 8,29 C7.99842001,29.1306773 7.97124097,29.2597777 7.92,29.38 C7.87167695,29.5023813 7.80039684,29.6143929 7.71,29.71 C7.51825702,29.892565 7.26472686,29.9961196 7,30 Z" id="Shape" fill="#428DFF"/><path d="M7,47 C6.73523302,46.9963165 6.48163379,46.8927337 6.29,46.71 C6.19960316,46.6143929 6.12832305,46.5023813 6.08,46.38 C6.02394763,46.2613445 5.99654528,46.1311833 6,46 C6,45.4477153 6.44771525,45 7,45 C7.55228475,45 8,45.4477153 8,46 C7.99842001,46.1306773 7.97124097,46.2597777 7.92,46.38 C7.87167695,46.5023813 7.80039684,46.6143929 7.71,46.71 C7.51825702,46.892565 7.26472686,46.9961196 7,47 Z" id="Shape" fill="#428DFF"/></g></g></svg>
