<?xml version="1.0" encoding="UTF-8"?>
<svg xmlns="http://www.w3.org/2000/svg" xmlns:xlink="http://www.w3.org/1999/xlink" width="512" height="512" viewBox="0 0 60 60" version="1.1"><!-- Generator: Sketch 51.3 (57544) - http://www.bohemiancoding.com/sketch --><title>027 - Cider Press</title><desc>Created with Sketch.</desc><defs/><g id="Page-1" stroke="none" stroke-width="1" fill="none" fill-rule="evenodd"><g id="027---Cider-Press" fill-rule="nonzero"><path d="M49,51 C48.7298825,52.3788117 47.7591629,53.5163737 46.44,54 C43.16,55.2 37.02,56 30,56 C22.98,56 16.84,55.2 13.56,54 C12.24269,53.5137138 11.2730357,52.3774002 11,51 C11,50.24 12.01,49.53 13.77,48.92 C14.4952893,48.6747369 15.2329746,48.4677845 15.98,48.3 C16.12,48.54 16.28,46.77 16.49,46.96 C16.9270563,47.3060379 17.4309359,47.5579777 17.97,47.7 C18.6003628,47.8963407 19.2414019,48.0566005 19.89,48.18 C20.27,48.25 20.66,48.32 21.04,48.38 C22.38,48.6 23.74,48.74 25.09,48.84 L25.15,48.84 C26.76,48.95 28.38,49 30,49 L30.01,49 C31.63,49 33.25,48.95 34.86,48.84 L34.91,48.84 C36.27,48.74 37.64,48.6 38.98,48.38 C39.36,48.32 39.74,48.26 40.11,48.18 C40.7618878,48.0566034 41.4062551,47.8963463 42.04,47.7 C42.5798648,47.5601074 43.084167,47.3079563 43.52,46.96 C43.73,46.77 43.89,48.54 44.03,48.3 C44.7737617,48.4676943 45.5081229,48.6746506 46.23,48.92 L46.23,48.93 C47.99,49.53 49,50.24 49,51 Z" id="Shape" fill="#A4C2F7"/><path d="M49,51 L49,55 C49,56 47.25,56.91 44.37,57.61 C45.42,57.12 46,56.58 46,56 L46,53.15 C46.15,53.1 46.3,53.05 46.44,53 C48.07,52.42 49,51.73 49,51 Z" id="Shape" fill="#7FACFA"/><path d="M46,53.15 L46,56 C46,56.58 45.42,57.12 44.37,57.61 C39.6468553,58.607973 34.826856,59.0742081 30,59 C19.51,59 11,57.21 11,55 L11,51 C11,51.73 11.93,52.41 13.56,53 C16.84,54.2 22.98,55 30,55 C34.833489,55.0746377 39.6601615,54.6084059 44.39,53.61 C44.98,53.47 45.51,53.31 46,53.15 Z" id="Shape" fill="#A4C2F7"/><path d="M46,52 L46,53.15 C45.51,53.31 44.98,53.47 44.39,53.61 C45.42,53.12 46,52.57 46,52 Z" id="Shape" fill="#CAD9FC"/><path d="M27,8.5 C26.9985638,9.0140671 27.0970567,9.52351295 27.29,10 L3,10 C1.89679813,9.9967052 1.0032948,9.10320187 1,8 C0.997176934,7.46940947 1.2101411,6.9604612 1.59,6.59 C1.9604612,6.2101411 2.46940947,5.99717693 3,6 L27.84,5.99997229 C27.2988346,6.72152525 27.0043086,7.59809087 27,8.5 Z" id="Shape" fill="#E8EDFC"/><path d="M59,8 C58.9967052,9.10320187 58.1032019,9.9967052 57,10 L32.71,10 C32.9029433,9.52351295 33.0014362,9.0140671 33,8.5 C32.9956914,7.59809087 32.7011654,6.72152525 32.16,6 L57,6 C58.1011688,6.00816722 58.9918328,6.89883122 59,8 Z" id="Shape" fill="#CAD9FC"/><path d="M56,8 C55.9967052,9.10320187 55.1032019,9.9967052 54,10 L32.71,10 C32.9029433,9.52351295 33.0014362,9.0140671 33,8.5 C32.9956914,7.59809087 32.7011654,6.72152525 32.16,6 L54,6 C55.1011688,6.00816722 55.9918328,6.89883122 56,8 Z" id="Shape" fill="#E8EDFC"/><path d="M46.79,37.2 C46.67,38.4 46.49,39.6 46.26,40.79 C45.98,42.19 45.63,43.58 45.21,44.95 C45.07,45.42 44.92,45.89 44.76,46.35 C44.6,46.81 44.48,47.26 44.31,47.71 C44.230967,47.9131401 44.1373911,48.1103179 44.03,48.3 C43.8950235,48.5449646 43.7229924,48.7675931 43.52,48.96 C43.084167,49.3079563 42.5798648,49.5601074 42.04,49.7 C41.4062551,49.8963463 40.7618878,50.0566034 40.11,50.18 C39.74,50.26 39.36,50.32 38.98,50.38 C37.64,50.6 36.27,50.74 34.91,50.84 L34.86,50.84 C33.25,50.95 31.63,51 30.01,51 L30,51 C29.74,51 29.48,51 29.22,50.99 L28.79,50.99 C27.57,50.97 26.36,50.92 25.15,50.84 L25.09,50.84 C23.74,50.74 22.38,50.6 21.04,50.38 C20.66,50.32 20.27,50.25 19.89,50.18 C19.2414019,50.0566005 18.6003628,49.8963407 17.97,49.7 C17.4309359,49.5579777 16.9270563,49.3060379 16.49,48.96 C16.2870076,48.7675931 16.1149765,48.5449646 15.98,48.3 C15.8799,48.1081141 15.7897799,47.911185 15.71,47.71 C15.53,47.26 15.41,46.8 15.26,46.35 C15.09,45.89 14.95,45.42 14.8,44.95 C14.3794633,43.5828532 14.0323014,42.1942057 13.76,40.79 C13.53,39.6 13.35,38.41 13.23,37.21 C14.24,37.5 15.42,36.64 16.74,36.3 L16.75,36.29 C17.1477882,36.1861564 17.5606114,36.1523184 17.97,36.19 C18.0102597,36.1883562 18.0505677,36.1917152 18.09,36.2 C18.52,36.27 18.96,36.33 19.41,36.39 C19.4693483,36.401603 19.5295523,36.4082924 19.59,36.41 C20.29,36.5 21.02,36.58 21.77,36.64 C22.52,36.7 23.29,36.76 24.08,36.81 C24.41,36.83 24.74,36.85 25.08,36.88 C26.17,36.94 27.3,36.98 28.45,36.99 L28.99,36.99 C28.9926332,36.9926875 28.9962374,36.994202 29,36.994202 C29.0037626,36.994202 29.0073668,36.9926875 29.01,36.99 C29.34,37 29.67,37 30,37 C30.52,37 31.04,37 31.55,36.99 C32.7,36.98 33.83,36.94 34.92,36.88 C35.26,36.85 35.59,36.83 35.92,36.81 C36.73,36.76 37.52,36.7 38.29,36.64 C39.06,36.58 39.8,36.49 40.51,36.4 C40.5392484,36.3917524 40.5696546,36.3883739 40.6,36.39 C40.82,36.36 41.04,36.33 41.25,36.29 C41.36,36.28 41.47,36.26 41.58,36.25 C41.69,36.24 41.8,36.22 41.91,36.2 C41.94,36.2 41.96,36.19 41.99,36.19 C43.83,35.98 45.45,37.58 46.79,37.2 Z" id="Shape" fill="#CAD9FC"/><path d="M47,33.14 C45.62,33.55 43.92,35.9 41.99,36.19 C41.96,36.19 41.94,36.2 41.91,36.2 C41.7,36.23 41.48,36.27 41.26,36.3 L40.6,36.39 C40.5696546,36.3883739 40.5392484,36.3917524 40.51,36.4 C39.1,36.58 37.59,36.72 36,36.82 C34.58,36.91 33.09,36.97 31.55,36.99 C31.04,37 30.52,37 30,37 C29.67,37 29.34,37 29.01,36.99 C29.0073668,36.9926875 29.0037626,36.994202 29,36.994202 C28.9962374,36.994202 28.9926332,36.9926875 28.99,36.99 L28.45,36.99 C26.92,36.97 25.42,36.91 24,36.82 C22.45,36.72 20.97,36.58 19.59,36.41 C19.5295523,36.4082924 19.4693483,36.401603 19.41,36.39 C18.93,36.33 18.46,36.27 18.01,36.2 C17.995904,36.2014964 17.9817335,36.1979537 17.97,36.19 C16.07,35.89 14.39,33.56 13.02,33.15 C13.01,32.88 13.02,32.61 13.02,32.34 C13.0482886,30.9221795 13.1517673,29.5068576 13.33,28.1 C13.5079051,26.6906986 13.761606,25.2920051 14.09,23.91 C14.4185566,22.5092358 14.8224774,21.1272258 15.3,19.77 C15.51,19.18 15.73,18.59 15.97,18 L16,18 C16,18.48 16.54,18.17 17.5,17.99 C18.2213466,17.8493377 18.9642991,17.8629699 19.68,18.03 C21.3409478,18.3945501 23.024873,18.6451342 24.72,18.78 C26.06,18.89 27.49,18.97 29,18.99 C29.33,19 29.66,19 30,19 C31.87,19 33.65,18.92 35.28,18.78 C36.975127,18.6451342 38.6590522,18.3945501 40.32,18.03 L40.47,18 C40.9727905,17.8924474 41.490331,17.8721517 42,17.94 C42.01,17.93 42.01,17.93 42.02,17.94 C43.25,18.07 43.97,18.58 44,18.03 L44,18 C44.0012825,17.9564347 43.9979304,17.9128566 43.99,17.87 L44.04,18 C44.28,18.59 44.5,19.18 44.71,19.77 C45.1908019,21.1270626 45.5980601,22.5090698 45.93,23.91 C46.253577,25.2930091 46.5072322,26.6914503 46.69,28.1 C46.8649077,29.5070339 46.9650484,30.922356 46.99,32.34 C47,32.61 47,32.88 47,33.14 Z" id="Shape" fill="#CAD9FC"/><path d="M44.79,37.2 C44.67,38.4 44.49,39.6 44.26,40.79 C43.98,42.19 43.63,43.58 43.21,44.95 C43.07,45.42 42.92,45.89 42.76,46.35 C42.6,46.81 42.48,47.26 42.31,47.71 C42.230967,47.9131401 42.1373911,48.1103179 42.03,48.3 C41.8950235,48.5449646 41.7229924,48.7675931 41.52,48.96 C41.084167,49.3079563 40.5798648,49.5601074 40.04,49.7 C39.4062551,49.8963463 38.7618878,50.0566034 38.11,50.18 C37.74,50.26 37.36,50.32 36.98,50.38 C35.64,50.6 34.27,50.74 32.91,50.84 L32.86,50.84 C31.65,50.92 30.44,50.97 29.22,50.99 L28.79,50.99 C27.57,50.97 26.36,50.92 25.15,50.84 L25.09,50.84 C23.74,50.74 22.38,50.6 21.04,50.38 C20.66,50.32 20.27,50.25 19.89,50.18 C19.2414019,50.0566005 18.6003628,49.8963407 17.97,49.7 C17.4309359,49.5579777 16.9270563,49.3060379 16.49,48.96 C16.2870076,48.7675931 16.1149765,48.5449646 15.98,48.3 C15.8799,48.1081141 15.7897799,47.911185 15.71,47.71 C15.53,47.26 15.41,46.8 15.26,46.35 C15.09,45.89 14.95,45.42 14.8,44.95 C14.3794633,43.5828532 14.0323014,42.1942057 13.76,40.79 C13.53,39.6 13.35,38.41 13.23,37.21 C14.24,37.5 15.42,36.64 16.74,36.3 C16.49,36.27 16.25,36.24 16.01,36.2 C15.995904,36.2014964 15.9817335,36.1979537 15.97,36.19 C16.0102597,36.1883562 16.0505677,36.1917152 16.09,36.2 C16.31,36.23 16.53,36.27 16.75,36.29 C16.97,36.33 17.19,36.36 17.41,36.39 C17.4693483,36.401603 17.5295523,36.4082924 17.59,36.41 C18.29,36.5 19.02,36.58 19.77,36.64 C20.52,36.7 21.29,36.76 22.08,36.81 C22.41,36.83 22.74,36.85 23.08,36.88 C24.17,36.94 25.3,36.98 26.45,36.99 C26.96,37 27.48,37 28,37 C28.33,37 28.67,37 28.99,36.99 C28.9926332,36.9926875 28.9962374,36.994202 29,36.994202 C29.0037626,36.994202 29.0073668,36.9926875 29.01,36.99 L29.55,36.99 C30.7,36.98 31.83,36.94 32.92,36.88 C33.26,36.85 33.59,36.83 33.92,36.81 C34.73,36.76 35.52,36.7 36.29,36.64 C37.06,36.58 37.8,36.49 38.51,36.4 C39.02,36.33 39.51,36.26 39.99,36.19 C40.4126008,36.1477368 40.8393561,36.1816063 41.25,36.29 L41.26,36.3 C42.58,36.63 43.77,37.49 44.79,37.2 Z" id="Shape" fill="#E8EDFC"/><path d="M45,33.14 C43.62,33.55 41.92,35.9 39.99,36.19 C39.51,36.26 39.02,36.33 38.51,36.4 C37.8,36.49 37.06,36.57 36.29,36.64 C35.55,36.71 34.78,36.77 34,36.82 L32.92,36.88 C31.83,36.94 30.7,36.98 29.55,36.99 L29.01,36.99 C29.0073668,36.9926875 29.0037626,36.994202 29,36.994202 C28.9962374,36.994202 28.9926332,36.9926875 28.99,36.99 C28.67,37 28.33,37 28,37 C27.48,37 26.96,37 26.45,36.99 C25.3,36.98 24.17,36.94 23.08,36.88 L22,36.82 C21.24,36.77 20.49,36.71 19.77,36.64 C19.02,36.58 18.29,36.5 17.59,36.41 C17.5295523,36.4082924 17.4693483,36.401603 17.41,36.39 L16.74,36.3 C16.49,36.27 16.25,36.24 16.01,36.2 C15.995904,36.2014964 15.9817335,36.1979537 15.97,36.19 C16.0102597,36.1883562 16.0505677,36.1917152 16.09,36.2 C16.31,36.23 16.53,36.27 16.75,36.29 C17.1477882,36.1861564 17.5606114,36.1523184 17.97,36.19 C16.07,35.89 14.39,33.56 13.02,33.15 C13.01,32.88 13.02,32.61 13.02,32.34 C13.0482886,30.9221795 13.1517673,29.5068576 13.33,28.1 C13.5079051,26.6906986 13.761606,25.2920051 14.09,23.91 C14.4185566,22.5092358 14.8224774,21.1272258 15.3,19.77 C15.51,19.18 15.73,18.59 15.97,18 L16,18 C16,18.48 16.54,18.17 17.5,17.99 C17.56,18 17.62,18.02 17.68,18.03 C19.3409478,18.3945501 21.024873,18.6451342 22.72,18.78 C24.35,18.92 26.13,19 28,19 C28.34,19 28.67,19 29,18.99 C30.51,18.97 31.94,18.89 33.28,18.78 C34.975127,18.6451342 36.6590522,18.3945501 38.32,18.03 C39.0261804,17.8655866 39.7595071,17.8553542 40.47,18 C41.43,18.19 41.98,18.51 42,18.03 L42,17.94 C42.0008507,17.9162579 41.9974644,17.8925542 41.99,17.87 L42.01,17.93 L42.02,17.94 L42.04,18 C42.28,18.59 42.5,19.18 42.71,19.77 C43.1908019,21.1270626 43.5980601,22.5090698 43.93,23.91 C44.253577,25.2930091 44.5072322,26.6914503 44.69,28.1 C44.8649077,29.5070339 44.9650484,30.922356 44.99,32.34 C45,32.61 45,32.88 45,33.14 Z" id="Shape" fill="#E8EDFC"/><path d="M44,18 L44,18.03 C43.96,18.8 42.57,19.5 40.32,20.03 C38.6590522,20.3945501 36.975127,20.6451342 35.28,20.78 C33.65,20.92 31.87,21 30,21 C28.13,21 26.35,20.92 24.72,20.78 C23.024873,20.6451342 21.3409478,20.3945501 19.68,20.03 C17.4,19.49 16,18.78 16,18 C16,16.64 20.22,15.49 26,15.13 L26,17 L34,17 L34,15.13 C39.35,15.46 43.36,16.47 43.93,17.7 L43.94,17.73 L43.99,17.87 C43.9979304,17.9128566 44.0012825,17.9564347 44,18 Z" id="Shape" fill="#CAD9FC"/><path d="M24.72,20.78 C24.7,20.99 24.68,21.21 24.66,21.42 C24.61,21.9 24.56,22.39 24.52,22.88 C24.38,24.31 24.28,25.76 24.2,27.23 C24.12,28.68 24.06,30.15 24.03,31.63 C24.01,32.69 24,33.75 24,34.82 C21.84,34.68 19.82,34.47 18.01,34.2 C18.01,33.34 18.03,32.48 18.08,31.63 C18.15,30.16 18.27,28.69 18.44,27.23 C18.61,25.77 18.84,24.32 19.11,22.88 C19.2,22.39 19.3,21.91 19.4,21.42 C19.51,20.96 19.58,20.49 19.68,20.03 C21.3409478,20.3945501 23.024873,20.6451342 24.72,20.78 Z" id="Shape" fill="#E8EDFC"/><path d="M30,21 L30,35 C27.92,35 25.9,34.94 24,34.82 C24,33.75 24.01,32.69 24.03,31.63 C24.06,30.15 24.12,28.68 24.2,27.23 C24.28,25.76 24.38,24.31 24.52,22.88 C24.56,22.39 24.61,21.9 24.66,21.42 C24.68,21.21 24.7,20.99 24.72,20.78 C26.35,20.92 28.13,21 30,21 Z" id="Shape" fill="#E8EDFC"/><path d="M36,34.82 C34.1,34.94 32.09,35 30,35 L30,21 C31.87,21 33.65,20.92 35.28,20.78 C35.3,20.99 35.32,21.21 35.34,21.42 C35.39,21.9 35.44,22.39 35.48,22.88 C35.62,24.31 35.72,25.76 35.8,27.23 C35.88,28.68 35.94,30.15 35.97,31.63 C35.99,32.69 36,33.75 36,34.82 Z" id="Shape" fill="#E8EDFC"/><path d="M41.91,38.2 C41.87,38.96 41.82,39.71 41.75,40.47 C41.6166667,41.9366667 41.4366667,43.3966667 41.21,44.85 C40.98,46.3 40.7,47.74 40.37,49.15 C40.29,49.49 40.2,49.84 40.11,50.18 C39.74,50.26 39.36,50.32 38.98,50.38 C37.64,50.6 36.27,50.74 34.91,50.84 C34.98,50.28 35.06,49.72 35.12,49.15 C35.3,47.73 35.44,46.29 35.56,44.84 C35.68,43.39 35.78,41.93 35.85,40.46 C35.88,39.91 35.9,39.36 35.92,38.81 C38.08,38.68 40.1,38.48 41.91,38.2 Z" id="Shape" fill="#E8EDFC"/><path d="M35.92,38.81 C35.9,39.36 35.88,39.91 35.85,40.46 C35.78,41.93 35.69,43.39 35.56,44.84 C35.43,46.29 35.3,47.73 35.12,49.15 C35.06,49.72 34.98,50.28 34.91,50.84 L34.86,50.84 C33.25,50.95 31.63,51 30.01,51 L30,51 L30,39 C32.06,39 34.04,38.94 35.92,38.81 Z" id="Shape" fill="#E8EDFC"/><path d="M30,39 L30,51 C28.38,51 26.76,50.95 25.15,50.84 L25.09,50.84 C25.02,50.28 24.94,49.72 24.88,49.15 C24.7,47.73 24.56,46.29 24.44,44.84 C24.32,43.39 24.22,41.93 24.15,40.46 C24.12,39.91 24.1,39.36 24.08,38.81 C25.96,38.94 27.95,39 30,39 Z" id="Shape" fill="#E8EDFC"/><path d="M25.09,50.84 C23.74,50.74 22.38,50.6 21.04,50.38 C20.66,50.32 20.27,50.25 19.89,50.18 C19.8,49.84 19.71,49.49 19.63,49.15 C19.3,47.74 19.02,46.3 18.79,44.85 C18.56,43.4 18.38,41.94 18.25,40.47 C18.18,39.71 18.13,38.96 18.09,38.2 C19.9,38.48 21.92,38.68 24.08,38.81 C24.1,39.36 24.12,39.91 24.15,40.46 C24.22,41.93 24.31,43.39 24.44,44.84 C24.57,46.29 24.7,47.73 24.88,49.15 C24.94,49.72 25.02,50.28 25.09,50.84 Z" id="Shape" fill="#E8EDFC"/><path d="M47,33.14 C47,34.29 46.95,35.43 46.85,36.57 L46.79,37.2 C45.187325,37.6412491 43.5570541,37.975321 41.91,38.2 C40.1,38.48 38.08,38.68 35.92,38.81 C34.04,38.94 32.06,39 30,39 C29.67,39 29.33,39 29,38.99 C27.3,38.98 25.65,38.92 24.08,38.81 C21.92,38.68 19.9,38.48 18.09,38.2 C16.4497926,37.9784103 14.8261897,37.6476764 13.23,37.21 C13.21,37 13.19,36.78 13.17,36.57 C13.08,35.6 13.03,34.63 13.03,33.66 C13.02,33.49 13.02,33.32 13.02,33.15 C14.6565836,33.6168624 16.3240528,33.9677326 18.01,34.2 C19.82,34.47 21.84,34.68 24,34.82 C25.59,34.92 27.27,34.98 29,34.99 C29.33,35 29.66,35 30,35 C32.09,35 34.1,34.94 36,34.82 C38.17,34.68 40.18,34.47 41.99,34.19 C43.07,34.03 44.07,33.85 44.99,33.65 C45.72,33.49 46.39,33.32 47,33.14 Z" id="Shape" fill="#CAD9FC"/><path d="M45,33.14 C45,33.31 45,33.48 44.99,33.65 C44.98,34.63 44.94,35.6 44.85,36.57 L44.79,37.2 C43.187325,37.6412491 41.5570541,37.975321 39.91,38.2 C38.1,38.48 36.08,38.68 33.92,38.81 C32.35,38.92 30.7,38.98 29,38.99 C27.3,38.98 25.65,38.92 24.08,38.81 C21.92,38.68 19.9,38.48 18.09,38.2 C16.4497926,37.9784103 14.8261897,37.6476764 13.23,37.21 C13.21,37 13.19,36.78 13.17,36.57 C13.08,35.6 13.03,34.63 13.03,33.66 C13.94,33.86 14.94,34.04 16.01,34.2 C17.82,34.47 19.84,34.68 22,34.82 C23.9,34.94 25.92,35 28,35 C28.34,35 28.67,35 29,34.99 C30.74,34.98 32.41,34.92 34,34.82 C36.17,34.68 38.18,34.47 39.99,34.19 C41.6818282,33.9537281 43.3556733,33.6029222 45,33.14 Z" id="Shape" fill="#E8EDFC"/><path d="M44,18 L44,18.03 L43.94,17.73 L43.99,17.87 C43.9979304,17.9128566 44.0012825,17.9564347 44,18 Z" id="Shape" fill="#7F5B53"/><path d="M19.69,20 C19.6913232,20.0109925 19.687654,20.0219999 19.68,20.03" id="Shape" fill="#7F5B53"/><path d="M41.99,34.19 C40.18,34.47 38.17,34.68 36,34.82 C36,33.75 35.99,32.69 35.97,31.63 C35.94,30.15 35.88,28.68 35.8,27.23 C35.72,25.76 35.62,24.31 35.48,22.88 C35.44,22.39 35.39,21.9 35.34,21.42 C35.32,21.21 35.3,20.99 35.28,20.78 C36.975127,20.6451342 38.6590522,20.3945501 40.32,20.03 C40.42,20.49 40.49,20.96 40.6,21.42 C40.7,21.91 40.8,22.39 40.89,22.88 C41.16,24.32 41.39,25.77 41.56,27.23 C41.73,28.69 41.85,30.16 41.92,31.63 C41.97,32.48 41.99,33.33 41.99,34.19 Z" id="Shape" fill="#E8EDFC"/><path d="M32.85,12.19 C33.5517249,12.5194689 33.9998501,13.224779 34,14 L34,16 C34,16.5522847 33.5522847,17 33,17 L27,17 C26.4477153,17 26,16.5522847 26,16 L26,14 C26.0001499,13.224779 26.4482751,12.5194689 27.15,12.19 L32.85,12.19 Z" id="Shape" fill="#CAD9FC"/><path d="M46.25,49.09 C46.25,49.72 45.45,50.31 44.06,50.8 C41.26,51.83 36,52.52 30,52.52 C24,52.52 18.74,51.83 15.94,50.8 C14.55,50.3 13.75,49.72 13.75,49.09 C13.751721,49.0328603 13.7584129,48.9759789 13.77,48.92 C14.4952893,48.6747369 15.2329746,48.4677845 15.98,48.3 C16.1149765,48.5449646 16.2870076,48.7675931 16.49,48.96 C16.9270563,49.3060379 17.4309359,49.5579777 17.97,49.7 C18.6003628,49.8963407 19.2414019,50.0566005 19.89,50.18 C20.27,50.25 20.66,50.32 21.04,50.38 C22.38,50.6 23.74,50.74 25.09,50.84 L25.15,50.84 C26.76,50.95 28.38,51 30,51 L30.01,51 C31.63,51 33.25,50.95 34.86,50.84 L34.91,50.84 C36.27,50.74 37.64,50.6 38.98,50.38 C39.36,50.32 39.74,50.26 40.11,50.18 C40.7618878,50.0566034 41.4062551,49.8963463 42.04,49.7 C42.5798648,49.5601074 43.084167,49.3079563 43.52,48.96 C43.7229924,48.7675931 43.8950235,48.5449646 44.03,48.3 C44.7737617,48.4676943 45.5081229,48.6746506 46.23,48.92 L46.23,48.93 C46.2415771,48.9826041 46.2482722,49.0361648 46.25,49.09 Z" id="Shape" fill="#7FACFA"/><path d="M32,3 L32.0000277,6.37 C30.7123071,5.87662835 29.2876929,5.87662835 28,6.37 L28,3 C28.0032948,1.89679813 28.8967981,1.0032948 30,1 C30.5305905,0.997176934 31.0395388,1.2101411 31.41,1.59 C31.7898589,1.9604612 32.0028231,2.46940947 32,3 Z" id="Shape" fill="#E8EDFC"/><path d="M35,8.5 C35.0014362,9.0140671 34.9029433,9.52351295 34.71,10 C34.3455914,10.9134106 33.6923684,11.6825279 32.85,12.19 C31.9974717,12.7280292 31.0080649,13.009229 30,13 C29.6646124,13.0007205 29.3298693,12.9705936 29,12.91 C28.3419272,12.7942021 27.7132203,12.5495162 27.15,12.19 C26.3076316,11.6825279 25.6544086,10.9134106 25.29,10 C25.0970567,9.52351295 24.9985638,9.0140671 25,8.5 C25.0043086,7.59809087 25.2988346,6.72152525 25.84,6 C26.3961602,5.26812521 27.1436356,4.70405815 28,4.37 C29.2876929,3.87662835 30.7123071,3.87662835 32,4.37 C32.8563644,4.70405815 33.6038398,5.26812521 34.16,6 C34.7011654,6.72152525 34.9956914,7.59809087 35,8.5 Z" id="Shape" fill="#CAD9FC"/><path d="M33,8.5 C33.0014362,9.0140671 32.9029433,9.52351295 32.71,10 C32.3455914,10.9134106 31.6923684,11.6825279 30.85,12.19 C30.2867797,12.5495162 29.6580728,12.7942021 29,12.91 C28.3419272,12.7942021 27.7132203,12.5495162 27.15,12.19 C26.3076316,11.6825279 25.6544086,10.9134106 25.29,10 C25.0970567,9.52351295 24.9985638,9.0140671 25,8.5 C25.0043086,7.59809087 25.2988346,6.72152525 25.84,6 C26.3961602,5.26812521 27.1436356,4.70405815 28,4.37 C28.3236976,4.24515943 28.65854,4.15140355 29,4.09 C29.34146,4.15140355 29.6763024,4.24515943 30,4.37 C30.8563644,4.70405815 31.6038398,5.26812521 32.16,6 C32.7011654,6.72152525 32.9956914,7.59809087 33,8.5 Z" id="Shape" fill="#E8EDFC"/><path d="M14,55 L14,51 C14,50.24 15.01,49.53 16.77,48.92 C17.4952893,48.6747369 18.2329746,48.4677845 18.98,48.3 C18.8799,48.1081141 18.7897799,47.911185 18.71,47.71 C18.53,47.26 18.41,46.8 18.26,46.35 C18.09,45.89 17.95,45.42 17.8,44.95 C17.3794633,43.5828532 17.0323014,42.1942057 16.76,40.79 C16.53,39.6 16.35,38.41 16.23,37.21 C16.21,37 16.19,36.78 16.17,36.57 C16.08,35.6 16.03,34.63 16.03,33.66 C16.02,33.49 16.02,33.32 16.02,33.15 C16.01,32.88 16.02,32.61 16.02,32.34 C16.0482886,30.9221795 16.1517673,29.5068576 16.33,28.1 C16.5079051,26.6906986 16.761606,25.2920051 17.09,23.91 C17.4185566,22.5092358 17.8224774,21.1272258 18.3,19.77 C18.51,19.18 18.73,18.59 18.97,18 L19,18 C19,16.64 22.22,15.49 28,15.13 L28,14 C28.0001499,13.224779 28.4482751,12.5194689 29.15,12.19 C28.3076316,11.6825279 27.6544086,10.9134106 27.29,10 L25.29,10 C25.6544086,10.9134106 26.3076316,11.6825279 27.15,12.19 C26.4482751,12.5194689 26.0001499,13.224779 26,14 L26,15.13 C20.22,15.49 16,16.64 16,18 C16.0053331,18.0528956 16.0170862,18.1049452 16.035,18.155 C16.0096134,18.1074185 15.9975226,18.0538734 16,18 L15.97,18 C15.73,18.59 15.51,19.18 15.3,19.77 C14.8224774,21.1272258 14.4185566,22.5092358 14.09,23.91 C13.761606,25.2920051 13.5079051,26.6906986 13.33,28.1 C13.1517673,29.5068576 13.0482886,30.9221795 13.02,32.34 C13.02,32.61 13.01,32.88 13.02,33.15 C13.02,33.32 13.02,33.49 13.03,33.66 C13.03,34.63 13.08,35.6 13.17,36.57 C13.19,36.78 13.21,37 13.23,37.21 C13.35,38.41 13.53,39.6 13.76,40.79 C14.0323014,42.1942057 14.3794633,43.5828532 14.8,44.95 C14.95,45.42 15.09,45.89 15.26,46.35 C15.41,46.8 15.53,47.26 15.71,47.71 C15.7897799,47.911185 15.8799,48.1081141 15.98,48.3 C15.2329746,48.4677845 14.4952893,48.6747369 13.77,48.92 C12.01,49.53 11,50.24 11,51 L11,55 C11,57.21 19.51,59 30,59 C30.482,59 30.954,58.991 31.427,58.983 C21.674,58.815 14,57.1 14,55 Z" id="Shape" fill="#FFFFFF"/><path d="M4,8 C4.00816722,6.89883122 4.89883122,6.00816722 6,5.99997229 L3,6 C2.46940947,5.99717693 1.9604612,6.2101411 1.59,6.59 C1.2101411,6.9604612 0.997176934,7.46940947 1,8 C1.0032948,9.10320187 1.89679813,9.9967052 3,10 L6,10 C4.89679813,9.9967052 4.0032948,9.10320187 4,8 Z" id="Shape" fill="#FFFFFF"/><path d="M19,18 C18.9975226,18.0538734 19.0096134,18.1074185 19.035,18.155 C19.0170862,18.1049452 19.0053331,18.0528956 19,18 Z" id="Shape" fill="#FFFFFF"/><path d="M40.32,21.03 C40.0711291,21.0300978 39.8311645,20.9373923 39.647,20.77 C39.4351106,20.5695026 39.3135231,20.2916915 39.31,20 C39.3220828,19.4465823 39.7781853,19.0064531 40.3316822,19.0140986 C40.885179,19.0217442 41.3289507,19.4743034 41.3257429,20.0278438 C41.3225351,20.5813841 40.8735483,21.0287698 40.32,21.03 Z" id="Shape" fill="#428DFF"/><path d="M30,22 C28.465,22 15,21.888 15,18 C15,15.228 21.853,14.387 25.938,14.132 C26.2034615,14.1122699 26.4656532,14.2004931 26.6651893,14.3766873 C26.8647255,14.5528815 26.984722,14.8021377 26.998,15.068 C27.0321987,15.6191654 26.6131602,16.0937175 26.062,16.128 C20.424,16.479 17.705,17.482 17.087,18.003 C17.962,18.782 22.607,20.003 30,20.003 C37.393,20.003 42.038,18.785 42.913,18.003 C42.295,17.482 39.576,16.479 33.938,16.128 C33.6729649,16.1120457 33.425155,15.9913438 33.2491995,15.7925027 C33.0732439,15.5936617 32.9835893,15.3330072 33,15.068 C33.0110734,14.8013342 33.1304296,14.5507202 33.330492,14.3740614 C33.5305543,14.1974026 33.7940141,14.1099828 34.06,14.132 C38.147,14.387 45,15.228 45,18 C45,21.888 31.535,22 30,22 Z" id="Shape" fill="#428DFF"/><path d="M30,36 C23.092,36 16.8,35.311 12.736,34.109 C12.3933823,34.0077152 12.1308253,33.7313398 12.0472316,33.3839818 C11.963638,33.0366238 12.0717076,32.671055 12.3307316,32.4249818 C12.5897557,32.1789086 12.9603823,32.0897152 13.303,32.191 C17.133,33.324 23.375,34 30,34 C36.625,34 42.865,33.32 46.717,32.181 C47.0615352,32.0736216 47.4371985,32.1602081 47.6999709,32.4075646 C47.9627434,32.6549211 48.0718561,33.0246705 47.9854782,33.3750609 C47.8991003,33.7254513 47.6306333,34.0021201 47.283,34.099 C43.2,35.307 36.9,36 30,36 Z" id="Shape" fill="#428DFF"/><path d="M30,40 C23.251,40 17.039,39.333 12.957,38.172 C12.4257021,38.0209501 12.1174502,37.4677979 12.2685,36.9365 C12.4195499,36.4052021 12.9727021,36.0969501 13.504,36.248 C17.358,37.345 23.525,38 30,38 C36.5,38 42.674,37.342 46.514,36.239 C46.8595832,36.1332028 47.2353612,36.2221089 47.4968988,36.471546 C47.7584363,36.7209831 47.8650305,37.0921315 47.7757103,37.4423353 C47.6863901,37.792539 47.4150564,38.0672961 47.066,38.161 C43,39.33 36.775,40 30,40 Z" id="Shape" fill="#428DFF"/><path d="M16.245,20.1 C14.9062425,24.1136371 14.1597268,28.3009972 14.029,32.53 C14.0348082,36.6320265 14.6168284,40.7129006 15.758,44.653 L13.846,45.24 C12.6437626,41.1000118 12.032059,36.811017 12.029,32.5 C12.1634114,28.0562926 12.9480754,23.6562441 14.358,19.44 L16.245,20.1 Z" id="Shape" fill="#FFFFFF"/><path d="M13.966,24.586 C14.4936532,24.6934961 15.0129624,24.3685431 15.147,23.847 L16.247,20.103 L14.36,19.44 L13.2,23.372 C13.1363252,23.6348648 13.1818437,23.9123119 13.3261719,24.1410514 C13.4705,24.3697908 13.7013279,24.5303129 13.966,24.586 Z" id="Shape" fill="#428DFF"/><path d="M13.846,45.243 L15.758,44.656 C14.6168284,40.7159006 14.0348082,36.6350265 14.029,32.533 C14.014,32.208 14.066,31.884 14.081,31.56 C14.1111158,31.0177474 13.6962242,30.5536237 13.154,30.523 C12.5944911,30.4945367 12.1163595,30.9218222 12.082,31.481 C12.067,31.822 12.014,32.162 12.029,32.503 C12.032059,36.814017 12.6437626,41.1030118 13.846,45.243 Z" id="Shape" fill="#428DFF"/><path d="M14.422,27.678 C14.4647296,27.423678 14.4062233,27.1627328 14.259,26.951 L14.133,26.811 C14.0838119,26.7657369 14.0294326,26.726463 13.971,26.694 C13.9196115,26.65685 13.862995,26.6275307 13.803,26.607 C13.7400013,26.5847903 13.675506,26.5670792 13.61,26.554 C13.3460267,26.5146674 13.0769559,26.5768432 12.857,26.728 C12.7499855,26.8106762 12.6591333,26.9123765 12.589,27.028 C12.3658329,27.3727614 12.376144,27.8189165 12.615,28.153 C12.7022712,28.2558281 12.8081128,28.3413155 12.927,28.405 C13.2752959,28.6062013 13.7110301,28.5749077 14.027,28.326 C14.2264282,28.1593876 14.3652789,27.9316021 14.422,27.678 Z" id="Shape" fill="#428DFF"/><path d="M15.3,20.772 C14.9754876,20.7722339 14.6710393,20.6149848 14.4833993,20.3502215 C14.2957593,20.0854583 14.2482618,19.7461059 14.356,19.44 C14.57,18.8306667 14.7983333,18.226 15.041,17.626 C15.1937607,17.2471892 15.561548,16.9993584 15.97,17 C16.3375729,16.9974854 16.6773134,17.1954529 16.8563569,17.5164819 C17.0354003,17.8375109 17.0252977,18.2305919 16.83,18.542 C16.624,19.0593333 16.4286667,19.5796667 16.244,20.103 C16.1033824,20.5038795 15.7248266,20.7721569 15.3,20.772 Z" id="Shape" fill="#428DFF"/><path d="M30.015,52 C28.308,52 26.652,51.944 25.082,51.833 C23.53,51.724 22.156,51.571 20.882,51.368 C19.7930092,51.2091891 18.7176032,50.9681671 17.665,50.647 C16.9805527,50.4726294 16.3452484,50.1435164 15.808,49.685 C15.3478287,49.2315682 14.9945861,48.6812066 14.774,48.074 C14.666,47.794 14.574,47.51 14.488,47.225 C14.433,47.043 14.376,46.862 14.312,46.682 C14.146,46.206 13.994,45.726 13.846,45.243 C13.6836283,44.7150158 13.9800158,44.1553717 14.508,43.993 C15.0359842,43.8306283 15.5956283,44.1270158 15.758,44.655 C15.898,45.113 16.04,45.567 16.199,46.018 C16.271,46.218 16.335,46.427 16.399,46.633 C16.475,46.873 16.548,47.112 16.639,47.347 C16.7532779,47.6785347 16.9393779,47.9807337 17.184,48.232 C17.5094357,48.4746501 17.8810447,48.6482037 18.276,48.742 C19.2320252,49.0317095 20.2084295,49.2493196 21.197,49.393 C22.413,49.587 23.73,49.732 25.224,49.838 C28.4100772,50.0520004 31.6069228,50.0520004 34.793,49.838 C36.285,49.733 37.603,49.587 38.819,49.394 C39.8074619,49.2497296 40.7838226,49.0321292 41.74,48.743 C42.1378422,48.6494118 42.5122366,48.4751482 42.84,48.231 C43.0836203,47.9797062 43.2689982,47.6779124 43.383,47.347 C43.475,47.112 43.548,46.871 43.623,46.63 C43.687,46.425 43.751,46.22 43.823,46.017 C43.983,45.567 44.123,45.117 44.264,44.655 C44.6714333,43.3219497 45.0085644,41.9684184 45.274,40.6 C45.5385797,39.2410409 45.7318441,37.869164 45.853,36.49 C45.9723193,35.1160908 46.0187177,33.7368219 45.992,32.358 C45.9391741,29.5894329 45.5905265,26.8344459 44.952,24.14 C44.6296982,22.7734899 44.235483,21.4249468 43.771,20.1 C43.5816667,19.5626667 43.3816667,19.0293333 43.171,18.5 C43.0799504,18.3490716 43.0315644,18.1762643 43.031,18 C43.0275264,17.7363326 43.1297032,17.4822383 43.3147461,17.2943774 C43.4997891,17.1065166 43.7523102,17.0005114 44.016,17 L44.046,17 C44.4534772,17.0000101 44.820196,17.2472585 44.973,17.625 C45.2156667,18.225 45.444,18.83 45.658,19.44 C46.1460487,20.8292264 46.5606224,22.2431831 46.9,23.676 C47.2347443,25.0947118 47.4947689,26.5300208 47.679,27.976 C47.8596911,29.4158255 47.9645026,30.8641607 47.993,32.315 C48.0210142,33.7645819 47.9719449,35.2146281 47.846,36.659 C47.7195997,38.1080456 47.5166496,39.549392 47.238,40.977 C46.9569422,42.4163903 46.6004508,43.8400193 46.17,45.242 C46.022,45.725 45.87,46.205 45.704,46.681 C45.641,46.861 45.584,47.042 45.528,47.223 C45.439,47.508 45.351,47.792 45.241,48.072 C45.0224784,48.6800433 44.6697407,49.231025 44.209,49.684 C43.671024,50.1419998 43.035522,50.471038 42.351,50.646 C41.2982989,50.9670343 40.2229283,51.2083826 39.134,51.368 C37.858,51.568 36.484,51.723 34.934,51.832 C33.362,51.944 31.707,52 30.015,52 Z" id="Shape" fill="#428DFF"/><path d="M19.889,51.18 C19.4355613,51.1796931 19.0390802,50.8743288 18.923,50.436 C18.831,50.086 18.738,49.728 18.656,49.379 C18.324,47.962 18.037,46.491 17.803,45.006 C17.57,43.545 17.386,42.049 17.254,40.558 C17.183,39.789 17.132,39.026 17.091,38.258 C17.0720649,37.9007344 17.2451671,37.5605056 17.5451007,37.3654746 C17.8450342,37.1704435 18.226232,37.1502401 18.5451007,37.3124746 C18.8639693,37.4747091 19.0720649,37.7947344 19.091,38.152 C19.13,38.899 19.179,39.636 19.248,40.383 C19.376,41.832 19.555,43.283 19.779,44.698 C20.007,46.135 20.285,47.558 20.606,48.927 C20.684,49.257 20.771,49.598 20.858,49.927 C20.9989318,50.4607593 20.680675,51.0077493 20.147,51.149 C20.0626694,51.170269 19.9759687,51.1806866 19.889,51.18 Z" id="Shape" fill="#428DFF"/><path d="M18.01,35.2 C17.4577153,35.2 17.01,34.7522847 17.01,34.2 C17.01,33.258 17.033,32.4 17.082,31.571 C17.153,30.071 17.276,28.571 17.447,27.114 C17.611,25.704 17.834,24.259 18.128,22.695 C18.21,22.246 18.302,21.8 18.395,21.347 L18.421,21.219 C18.486,20.943 18.532,20.694 18.579,20.445 C18.618,20.236 18.657,20.026 18.702,19.818 C18.7130852,19.7712721 18.7267732,19.7252003 18.743,19.68 C18.8802201,19.2737352 19.2611873,19.0001791 19.69,19 C20.2422847,19 20.69,19.4477153 20.69,20 C20.6897438,20.0992931 20.6749192,20.1980113 20.646,20.293 C20.609,20.466 20.577,20.64 20.546,20.813 C20.493,21.094 20.44,21.374 20.374,21.651 L20.355,21.751 C20.265,22.189 20.176,22.622 20.095,23.062 C19.81,24.583 19.595,25.983 19.435,27.347 C19.27,28.761 19.149,30.218 19.08,31.679 C19.033,32.479 19.011,33.299 19.011,34.201 C19.0107349,34.4662165 18.9051238,34.7204652 18.7173998,34.907814 C18.5296759,35.0951629 18.2752165,35.2002653 18.01,35.2 Z" id="Shape" fill="#428DFF"/><path d="M24,35.82 C23.4477153,35.82 23,35.3722847 23,34.82 C23,33.744 23.01,32.677 23.03,31.61 C23.059,30.21 23.114,28.76 23.202,27.175 C23.293,25.495 23.396,24.099 23.524,22.783 C23.563,22.301 23.615,21.804 23.665,21.317 L23.724,20.688 C23.7568684,20.3321635 23.9770766,20.0208921 24.3016743,19.8714387 C24.626272,19.7219853 25.0059451,19.7570555 25.2976743,19.9634387 C25.5894036,20.1698219 25.7488684,20.5161635 25.716,20.872 L25.656,21.513 C25.605,21.996 25.556,22.479 25.517,22.961 C25.389,24.261 25.289,25.633 25.198,27.284 C25.112,28.847 25.058,30.274 25.03,31.65 C25.01,32.7 25,33.756 25,34.82 C25,35.3722847 24.5522847,35.82 24,35.82 Z" id="Shape" fill="#428DFF"/><path d="M25.089,51.84 C24.585152,51.8393539 24.1604768,51.4639598 24.098,50.964 L24.031,50.453 C23.98,50.053 23.931,49.659 23.886,49.253 C23.723,47.965 23.577,46.541 23.443,44.92 C23.325,43.61 23.229,42.164 23.151,40.505 C23.121,39.956 23.101,39.405 23.081,38.844 C23.0715499,38.5789068 23.1678127,38.3209202 23.348605,38.1268123 C23.5293973,37.9327044 23.7799043,37.818381 24.045,37.809 C24.5921959,37.800637 25.0484817,38.2255918 25.079,38.772 C25.099,39.316 25.119,39.86 25.148,40.403 C25.227,42.04 25.32,43.459 25.437,44.748 C25.567,46.348 25.71,47.743 25.872,49.022 C25.915,49.429 25.965,49.811 26.015,50.192 L26.082,50.713 C26.150946,51.2608419 25.7628204,51.7608837 25.215,51.83 C25.1732281,51.835761 25.1311577,51.8391 25.089,51.84 Z" id="Shape" fill="#428DFF"/><path d="M41.99,35.19 C41.4377153,35.19 40.99,34.7422847 40.99,34.19 C40.99,33.29 40.968,32.476 40.922,31.69 C40.852,30.219 40.731,28.762 40.566,27.348 C40.407,25.984 40.191,24.584 39.907,23.066 C39.825,22.623 39.736,22.19 39.646,21.752 L39.62,21.623 C39.561,21.376 39.508,21.096 39.455,20.815 C39.423,20.642 39.391,20.468 39.355,20.295 C39.3255479,20.1994208 39.310384,20.1000133 39.31,20 C39.3106024,19.5107761 39.6650721,19.0938122 40.1478197,19.0144701 C40.6305672,18.9351279 41.0998458,19.2167043 41.257,19.68 C41.2736817,19.7250499 41.2873781,19.7711497 41.298,19.818 C41.343,20.026 41.382,20.236 41.421,20.445 C41.468,20.694 41.514,20.945 41.572,21.188 L41.605,21.347 C41.698,21.8 41.79,22.247 41.873,22.699 C42.166,24.259 42.389,25.699 42.553,27.114 C42.724,28.573 42.847,30.076 42.919,31.582 C42.967,32.398 42.99,33.255 42.99,34.19 C42.99,34.7422847 42.5422847,35.19 41.99,35.19 Z" id="Shape" fill="#428DFF"/><path d="M40.111,51.18 C40.0246149,51.1798635 39.9385957,51.1687751 39.855,51.147 C39.321325,51.0057493 39.0030682,50.4587593 39.144,49.925 C39.231,49.593 39.318,49.252 39.396,48.925 C39.717,47.557 39.996,46.134 40.223,44.698 C40.447,43.281 40.623,41.831 40.754,40.386 C40.823,39.635 40.872,38.898 40.911,38.151 C40.9299351,37.7937344 41.1380307,37.4737091 41.4568993,37.3114746 C41.775768,37.1492401 42.1569658,37.1694435 42.4568993,37.3644746 C42.7568329,37.5595056 42.9299351,37.8997344 42.911,38.257 C42.87,39.03 42.819,39.793 42.748,40.566 C42.616,42.053 42.432,43.549 42.199,45.011 C41.965,46.495 41.678,47.966 41.346,49.382 C41.264,49.732 41.171,50.09 41.079,50.44 C40.9612106,50.8774606 40.5640396,51.181083 40.111,51.18 Z" id="Shape" fill="#428DFF"/><path d="M34.911,51.84 C34.8688809,51.8397633 34.8268108,51.8370922 34.785,51.832 C34.2371796,51.7628837 33.849054,51.2628419 33.918,50.715 L33.985,50.194 C34.035,49.813 34.085,49.431 34.126,49.044 C34.29,47.744 34.433,46.35 34.562,44.758 C34.68,43.458 34.773,42.042 34.851,40.413 C34.881,39.862 34.901,39.318 34.921,38.774 C34.9484676,38.226167 35.4065995,37.7994929 35.955,37.811 C36.2200957,37.820381 36.4706027,37.9347044 36.651395,38.1288123 C36.8321873,38.3229202 36.9284501,38.5809068 36.919,38.846 C36.899,39.402 36.879,39.958 36.848,40.515 C36.771,42.166 36.675,43.615 36.556,44.93 C36.423,46.543 36.277,47.967 36.112,49.275 C36.071,49.659 36.02,50.056 35.969,50.453 L35.902,50.964 C35.8395232,51.4639598 35.414848,51.8393539 34.911,51.84 Z" id="Shape" fill="#428DFF"/><path d="M36,35.82 C35.4477153,35.82 35,35.3722847 35,34.82 C35,33.756 34.99,32.703 34.97,31.649 C34.942,30.274 34.888,28.849 34.802,27.285 C34.711,25.633 34.611,24.265 34.485,22.977 C34.444,22.477 34.395,21.996 34.345,21.523 L34.284,20.872 C34.2329769,20.3233036 34.6354659,19.8367392 35.184,19.784 C35.4484918,19.7547573 35.7135392,19.8339947 35.9185821,20.0036074 C36.123625,20.1732201 36.2511431,20.4187152 36.272,20.684 L36.332,21.323 C36.381,21.8 36.432,22.297 36.474,22.794 C36.6,24.094 36.703,25.494 36.794,27.172 C36.882,28.756 36.937,30.207 36.966,31.606 C36.986,32.673 36.996,33.74 36.996,34.816 C36.997063,35.0812171 36.8927243,35.3359937 36.7059376,35.5242807 C36.5191509,35.7125677 36.2652171,35.8189413 36,35.82 Z" id="Shape" fill="#428DFF"/><path d="M34,18 L26,18 C25.4477153,18 25,17.5522847 25,17 L25,14 C25.0031019,12.8377251 25.6748784,11.78102 26.726,11.285 C27.0510319,11.1213523 27.4393053,11.1471907 27.7397867,11.3524643 C28.040268,11.5577379 28.2055187,11.910039 28.1712581,12.2723269 C28.1369976,12.6346148 27.9086348,12.949693 27.575,13.095 C27.2241375,13.2597345 27.0000749,13.6123895 27,14 L27,16 L33,16 L33,14 C32.9979939,13.6141985 32.7742322,13.2639627 32.425,13.1 C32.0913652,12.954693 31.8630024,12.6396148 31.8287419,12.2773269 C31.7944813,11.915039 31.959732,11.5627379 32.2602133,11.3574643 C32.5606947,11.1521907 32.9489681,11.1263523 33.274,11.29 C34.3234951,11.7852441 34.9949727,12.839534 35,14 L35,17 C35,17.5522847 34.5522847,18 34,18 Z" id="Shape" fill="#428DFF"/><path d="M30,56 C23.018,56 16.743,55.229 13.216,53.939 C12.423,53.652 10,52.775 10,51 C10,49.417 11.883,48.215 15.757,47.325 C16.2900559,47.2138826 16.8140378,47.5496779 16.9357609,48.0804125 C17.057484,48.611147 16.7322022,49.1417196 16.204,49.274 C12.558,50.112 12.037,50.953 11.998,51.027 C12.536922,51.522097 13.1894643,51.876874 13.898,52.06 C17.172,53.257 23.34,54 30,54 C36.66,54 42.828,53.257 46.1,52.061 C47.729,51.481 47.986,51.012 48.006,50.971 C47.976,50.971 47.471,50.128 43.806,49.271 C43.2704292,49.1438194 42.9383504,48.607712 43.0630319,48.0715539 C43.1877134,47.5353958 43.7222663,47.2008203 44.259,47.323 C48.175,48.239 50,49.407 50,51 C50,52.794 47.573,53.658 46.775,53.942 C43.257,55.229 36.982,56 30,56 Z" id="Shape" fill="#428DFF"/><path d="M30,60 C22.571,60 10,58.947 10,55 C9.99420103,54.4477153 10.4372153,53.995299 10.9895,53.9895 C11.5417847,53.983701 11.994201,54.4267153 12,54.979 C12.408,56.039 18.91,58 30,58 C41.127,58 47.636,56.026 48,54.968 C48.0002371,54.7043154 48.106188,54.4517351 48.2941388,54.2667915 C48.4820896,54.0818479 48.7363458,53.9799844 49,53.984 C49.5557823,53.9905863 50.0022359,54.4441832 50,55 C50,58.947 37.429,60 30,60 Z" id="Shape" fill="#428DFF"/><path d="M11,56 C10.4477153,56 10,55.5522847 10,55 L10,51 C10,50.4477153 10.4477153,50 11,50 C11.5522847,50 12,50.4477153 12,51 L12,55 C12,55.5522847 11.5522847,56 11,56 Z" id="Shape" fill="#428DFF"/><path d="M49,56 C48.4477153,56 48,55.5522847 48,55 L48,51 C48,50.4477153 48.4477153,50 49,50 C49.5522847,50 50,50.4477153 50,51 L50,55 C50,55.5522847 49.5522847,56 49,56 Z" id="Shape" fill="#428DFF"/><path d="M32,5.37 C31.4477153,5.37 31,4.92228475 31,4.37 L31,3 C31.0019672,2.7394037 30.8984514,2.48909032 30.713,2.306 C30.5276905,2.11005477 30.2696918,1.99932881 30,2 C29.4477153,2 29,2.44771525 29,3 L29,4.37 C29,4.92228475 28.5522847,5.37 28,5.37 C27.4477153,5.37 27,4.92228475 27,4.37 L27,3 C27,1.34314575 28.3431458,2.19842319e-16 30,-8.45135593e-17 C30.8004639,-0.00406134 31.5680711,0.318001487 32.126,0.892 C32.6910145,1.44715656 33.0064333,2.20791489 33,3 L33,4.37 C33,4.92228475 32.5522847,5.37 32,5.37 Z" id="Shape" fill="#428DFF"/><path d="M30,14 C26.8277408,14.1288157 24.1469986,11.6714686 24,8.5 C24.1469986,5.3285314 26.8277408,2.87118431 30,3 C33.1722592,2.87118431 35.8530014,5.3285314 36,8.5 C35.8530014,11.6714686 33.1722592,14.1288157 30,14 Z M30,5 C27.9328688,4.87351648 26.1490337,6.43437219 26,8.5 C26.1490337,10.5656278 27.9328688,12.1264835 30,12 C32.0671312,12.1264835 33.8509663,10.5656278 34,8.5 C33.8509663,6.43437219 32.0671312,4.87351648 30,5 Z" id="Shape" fill="#428DFF"/><path d="M25.29,11 L3,11 C1.34314575,11 -2.61611208e-16,9.65685425 -4.64512868e-16,8 C-0.00484563887,7.1991808 0.317752698,6.43115833 0.893,5.874 C1.44804566,5.30943019 2.20830589,4.99406833 3,5 L25.84,5 C26.3922847,5 26.84,5.44771525 26.84,6 C26.84,6.55228475 26.3922847,7 25.84,7 L3,7 C2.73907757,6.99737242 2.48839634,7.10140151 2.306,7.288 C2.11030803,7.47307097 1.99960456,7.7306555 2,8 C2,8.55228475 2.44771525,9 3,9 L25.29,9 C25.8422847,9 26.29,9.44771525 26.29,10 C26.29,10.5522847 25.8422847,11 25.29,11 Z" id="Shape" fill="#428DFF"/><path d="M57,11 L34.71,11 C34.1577153,11 33.71,10.5522847 33.71,10 C33.71,9.44771525 34.1577153,9 34.71,9 L57,9 C57.5522847,9 58,8.55228475 58,8 C58.0019672,7.7394037 57.8984514,7.48909032 57.713,7.306 C57.5276905,7.11005477 57.2696918,6.99932881 57,7 L34.16,7 C33.6077153,7 33.16,6.55228475 33.16,6 C33.16,5.44771525 33.6077153,5 34.16,5 L57,5 C58.6534434,5.00820583 59.9917942,6.34655664 60,8 C60,9.65685425 58.6568542,11 57,11 Z" id="Shape" fill="#428DFF"/><path d="M30,52 C29.4477153,52 29,51.5522847 29,51 L29,39 C29,38.4477153 29.4477153,38 30,38 C30.5522847,38 31,38.4477153 31,39 L31,51 C31,51.5522847 30.5522847,52 30,52 Z" id="Shape" fill="#428DFF"/><path d="M30,36 C29.4477153,36 29,35.5522847 29,35 L29,21 C29,20.4477153 29.4477153,20 30,20 C30.5522847,20 31,20.4477153 31,21 L31,35 C31,35.5522847 30.5522847,36 30,36 Z" id="Shape" fill="#428DFF"/></g></g></svg>
