<?xml version="1.0" encoding="UTF-8"?>
<svg xmlns="http://www.w3.org/2000/svg" xmlns:xlink="http://www.w3.org/1999/xlink" width="512" height="512" viewBox="0 0 60 50" version="1.1"><!-- Generator: Sketch 51.3 (57544) - http://www.bohemiancoding.com/sketch --><title>028 - Draught Keg</title><desc>Created with Sketch.</desc><defs/><g id="Page-1" stroke="none" stroke-width="1" fill="none" fill-rule="evenodd"><g id="028---Draught-Keg" transform="translate(-1.000000, -1.000000)" fill-rule="nonzero"><path d="M16.73,41.48 C13.79,41.24 12,41 12,41 C6.48,41 2,32.49 2,22 C2,21.67 2,21.35 2.01,21.02 C2.29,31.04 6.66,39 12,39 C12,39 12.69,39.09 13.91,39.22 C14.6693691,40.1745361 15.6329746,40.9467873 16.73,41.48 Z" id="Shape" fill="#CAD9FC"/><path d="M30.64,41.98 C30.6588947,41.9881444 30.6794852,41.9915762 30.7,41.99 C30.14,42 29.57,42 29,42 C26.36,42 23.86,41.92 21.64,41.81 C21.4250527,41.7516861 21.2145222,41.6781675 21.01,41.59 L21,41.59 C19.9528753,41.1337174 19.0178266,40.4546127 18.26,39.6 C19.29,39.67 20.42,39.74 21.64,39.81 C23.18,39.89 24.85,39.95 26.62,39.98 C26.62,39.98 26.62,39.99 26.63,39.98 C27.6699727,41.0911398 29.0688513,41.7994328 30.58,41.98 L30.6,41.98 C30.61,41.98 30.63,41.97 30.64,41.98 Z" id="Shape" fill="#CAD9FC"/><path d="M37.31,39.76 C37.9937976,40.5216634 38.8190953,41.1431838 39.74,41.59 C38.3,41.7 36.67,41.8 34.9,41.88 C34.48,41.9 34.06,41.91 33.63,41.92 L33.6,41.92 C33.3969272,41.8695023 33.1993102,41.7991641 33.01,41.71 L33,41.71 C32.0679451,41.311182 31.2273673,40.7258403 30.53,39.99 L30.82,39.99 C30.98,39.99 31.13,39.99 31.28,39.98 L31.6,39.98 C31.61,39.98 31.63,39.97 31.64,39.98 L32.63,39.95 L33.6,39.92 L33.63,39.92 C34.06,39.91 34.48,39.9 34.9,39.88 C35.74,39.84 36.54,39.8 37.31,39.76 Z" id="Shape" fill="#CAD9FC"/><path d="M53.71,26 C53.5356388,28.2817367 53.0511826,30.5290751 52.27,32.68 C50.42,37.13 48.04,40.32 45.01,40.9 C44.9758778,40.8981808 44.9421971,40.8914447 44.91,40.88 C44.804546,40.867322 44.7006696,40.843866 44.6,40.81 C44.5086969,40.7879467 44.4185795,40.7612453 44.33,40.73 C44.231354,40.7027098 44.1345005,40.669312 44.04,40.63 C43.6628987,40.4864529 43.3010984,40.3055528 42.96,40.09 C42.7811636,39.9942981 42.6105781,39.8839193 42.45,39.76 C42.3000067,39.6553538 42.1564163,39.5418171 42.02,39.42 C44.51,39.2 46,39 46,39 C45.7926305,39.0019441 45.5854005,38.9885744 45.38,38.96 C45.2518896,38.9505638 45.1247853,38.9304947 45,38.9 C48.03,38.33 50.42,35.13 52.27,30.68 C52.9560186,28.8334165 53.4095052,26.9086179 53.62,24.95 L53.71,26 Z" id="Shape" fill="#804537"/><path d="M53.62,24.95 C53.59,25.18 53.56,25.44 53.51,25.72 C53.2937523,27.4164555 52.8775252,29.0813638 52.27,30.68 C50.42,35.13 48.03,38.33 45,38.9 C45.1247853,38.9304947 45.2518896,38.9505638 45.38,38.96 C45.5854005,38.9885744 45.7926305,39.0019441 46,39 C46,39 44.51,39.2 42.02,39.42 C41.34,39.47 40.57,39.53 39.74,39.59 C38.98,39.65 38.17,39.7 37.31,39.76 C36.54,39.8 35.74,39.84 34.9,39.88 C34.48,39.9 34.06,39.91 33.63,39.92 L33.6,39.92 L32.63,39.95 L31.64,39.98 C31.63,39.97 31.61,39.98 31.6,39.98 L31.28,39.98 C31.13,39.99 30.98,39.99 30.82,39.99 L30.53,39.99 C30.03,40 29.51,40 29,40 C28.19,40 27.4,39.99 26.63,39.98 L26.62,39.98 C24.85,39.95 23.18,39.89 21.64,39.81 C20.42,39.74 19.29,39.67 18.26,39.6 C17.72,39.56 17.21,39.52 16.73,39.48 C15.61,39.39 14.66,39.3 13.91,39.22 C12.69,39.09 12,39 12,39 C6.84,39 2.58,31.56 2.05,22 C2.03,21.68 2.02,21.35 2.01,21.02 L2.01,20.98 C2.29,10.96 6.66,3 12,3 C12,3 13.79,2.76 16.73,2.52 C18.13,2.4 19.79,2.29 21.64,2.19 L21.65,2.19 C23.87,2.08 26.36,2 29,2 C29.57,2 30.14,2 30.7,2.01 L30.82,2.01 C30.98,2.01 31.13,2.01 31.28,2.02 L31.6,2.02 C31.61,2.02 31.63,2.03 31.64,2.02 L32.63,2.05 L33.6,2.08 L33.62,2.08 C34.05,2.09 34.48,2.1 34.9,2.12 C35.83,2.16 36.72,2.21 37.57,2.25 C37.58,2.26 37.58,2.26 37.59,2.26 C38.36,2.3 39.09,2.35 39.77,2.4 L39.78,2.4 C43.58,2.68 46,3 46,3 C45.7926305,2.99805588 45.5854005,3.01142556 45.38,3.04 C45.2585754,3.050236 45.1381809,3.07030176 45.02,3.1 C48.18,3.71 50.91,7.12 52.5,12 L53.62,24.95 Z" id="Shape" fill="#E8EDFC"/><path d="M55,49 C55,49.5522847 54.5522847,50 54,50 L52,50 C51.4477153,50 51,49.5522847 51,49 C51,47.3431458 49.6568542,46 48,46 L40,46 C38.3431458,46 37,47.3431458 37,49 C37,49.5522847 36.5522847,50 36,50 L34,50 C33.4477153,50 33,49.5522847 33,49 C33,47.3431458 31.6568542,46 30,46 L10,46 C8.34314575,46 7,47.3431458 7,49 C7,49.5522847 6.55228475,50 6,50 L4,50 C3.44771525,50 3,49.5522847 3,49 C3,45.1340068 6.13400675,42 10,42 L48,42 C51.8659932,42 55,45.1340068 55,49 Z" id="Shape" fill="#7FACFA"/><path d="M53,49 C53,49.5522847 52.5522847,50 52,50 C51.4477153,50 51,49.5522847 51,49 C51,47.3431458 49.6568542,46 48,46 L38,46 C36.3431458,46 35,47.3431458 35,49 C35,49.5522847 34.5522847,50 34,50 C33.4477153,50 33,49.5522847 33,49 C33,47.3431458 31.6568542,46 30,46 L8,46 C6.34314575,46 5,47.3431458 5,49 C5,49.5522847 4.55228475,50 4,50 C3.44771525,50 3,49.5522847 3,49 C3,45.1340068 6.13400675,42 10,42 L46,42 C49.8659932,42 53,45.1340068 53,49 Z" id="Shape" fill="#A4C2F7"/><path d="M54,32 C53.9995628,32.252886 54.0962096,32.4962927 54.27,32.68 C52.47,37.7 49.44,41 46,41 C45.7926305,41.0019441 45.5854005,40.9885744 45.38,40.96 C45.2486805,40.9497979 45.1183134,40.9297414 44.99,40.9 C44.96,40.89 44.94,40.89 44.91,40.88 C44.804546,40.867322 44.7006696,40.843866 44.6,40.81 C44.5086969,40.7879467 44.4185795,40.7612453 44.33,40.73 C44.231354,40.7027098 44.1345005,40.669312 44.04,40.63 C43.6628987,40.4864529 43.3010984,40.3055528 42.96,40.09 C42.79,39.99 42.62,39.88 42.45,39.76 C42.2766136,39.6352904 42.1097283,39.5017822 41.95,39.36 C41.9189582,39.3421985 41.8917645,39.3184041 41.87,39.29 C41.7,39.15 41.54,39 41.38,38.84 C40.6264344,38.0879947 39.9742579,37.2408375 39.44,36.32 C39.35,36.18 39.27,36.04 39.19,35.89 C39.07,35.67 38.95,35.45 38.83,35.22 C38.71,34.99 38.6,34.76 38.49,34.52 C38.38,34.3 38.28,34.07 38.18,33.83 C37.7356595,32.7711073 37.3680446,31.6816306 37.08,30.57 C37.02,30.34 36.96,30.11 36.9,29.87 C36.86,29.71 36.82,29.54 36.79,29.37 C36.7233333,29.09 36.6633333,28.81 36.61,28.53 C36.54,28.21 36.49,27.88 36.43,27.54 C36.39,27.28 36.35,27.02 36.32,26.75 C36.27,26.4 36.22,26.03 36.19,25.67 C36.14,25.22 36.1,24.76 36.08,24.29 C36.0683677,24.203787 36.0616901,24.1169778 36.06,24.03 C36.04,23.76 36.03,23.5 36.02,23.23 C36.01,22.82 36,22.41 36,22 C36,21.59 36.01,21.18 36.02,20.77 C36.03,20.5 36.04,20.24 36.06,19.97 C36.0616901,19.8830222 36.0683677,19.796213 36.08,19.71 C36.1,19.24 36.14,18.78 36.19,18.33 C36.22,17.97 36.27,17.6 36.32,17.25 C36.35,16.98 36.39,16.72 36.43,16.46 C36.49,16.12 36.54,15.79 36.61,15.47 C36.66,15.19 36.72,14.91 36.79,14.63 C36.82,14.46 36.86,14.29 36.9,14.13 C36.96,13.89 37.02,13.66 37.08,13.43 C37.3680446,12.3183694 37.7356595,11.2288927 38.18,10.17 C38.28,9.93 38.38,9.7 38.49,9.48 C38.6,9.24 38.71,9 38.83,8.78 C38.95,8.56 39.07,8.33 39.19,8.11 C39.27,7.96 39.35,7.82 39.44,7.68 C39.9207944,6.86524689 40.4873497,6.10425247 41.13,5.41 C41.21,5.32 41.3,5.24 41.38,5.16 C41.54,5 41.7,4.85 41.87,4.71 C41.8917645,4.68159589 41.9189582,4.65780147 41.95,4.64 C42.1097283,4.49821784 42.2766136,4.36470962 42.45,4.24 C42.62,4.12 42.79,4.01 42.96,3.91 C43.3010984,3.69444722 43.6628987,3.51354708 44.04,3.37 C44.1345005,3.33068798 44.231354,3.2972902 44.33,3.27 C44.4185795,3.23875471 44.5086969,3.21205328 44.6,3.19 C44.7006696,3.15613398 44.804546,3.13267802 44.91,3.12 C44.945626,3.10851849 44.9826126,3.10179365 45.02,3.1 C45.1381809,3.07030176 45.2585754,3.050236 45.38,3.04 C45.5854005,3.01142556 45.7926305,2.99805588 46,3 C49.59,3 52.74,6.6 54.5,12 L49,12 C47.8988312,12.0081672 47.0081672,12.8988312 47,14 C47.0032948,15.1032019 47.8967981,15.9967052 49,16 L51,16 L51,21 L48,21 C47.4477153,21 47,21.4477153 47,22 L47,26 C47,26.5522847 47.4477153,27 48,27 L52,27 C53.1032019,27.0032948 53.9967052,27.8967981 54,29 L54,32 Z" id="Shape" fill="#CAD9FC"/><path d="M53.71,26 C53.5356388,28.2817367 53.0511826,30.5290751 52.27,32.68 C50.63,36.63 48.56,39.6 45.99,40.61 C45.6312944,40.4689596 45.2864774,40.2948772 44.96,40.09 C44.79,39.99 44.62,39.88 44.45,39.76 C44.2766136,39.6352904 44.1097283,39.5017822 43.95,39.36 C43.9189582,39.3421985 43.8917645,39.3184041 43.87,39.29 C43.7,39.15 43.54,39 43.38,38.84 C42.6264344,38.0879947 41.9742579,37.2408375 41.44,36.32 C41.35,36.18 41.27,36.04 41.19,35.89 C41.07,35.67 40.95,35.45 40.83,35.22 C40.71,34.99 40.6,34.76 40.49,34.52 C40.38,34.3 40.28,34.07 40.18,33.83 C39.7356595,32.7711073 39.3680446,31.6816306 39.08,30.57 C39.02,30.34 38.96,30.11 38.9,29.87 C38.86,29.71 38.82,29.54 38.79,29.37 C38.7233333,29.09 38.6633333,28.81 38.61,28.53 C38.54,28.21 38.49,27.88 38.43,27.54 C38.39,27.28 38.35,27.02 38.32,26.75 C38.27,26.4 38.22,26.03 38.19,25.67 C38.14,25.22 38.1,24.76 38.08,24.29 C38.0683677,24.203787 38.0616901,24.1169778 38.06,24.03 C38.04,23.76 38.03,23.5 38.02,23.23 C38.01,22.82 38,22.41 38,22 C38,21.59 38.01,21.18 38.02,20.77 C38.03,20.5 38.04,20.24 38.06,19.97 C38.0616901,19.8830222 38.0683677,19.796213 38.08,19.71 C38.1,19.24 38.14,18.78 38.19,18.33 C38.22,17.97 38.27,17.6 38.32,17.25 C38.35,16.98 38.39,16.72 38.43,16.46 C38.49,16.12 38.54,15.79 38.61,15.47 C38.66,15.19 38.72,14.91 38.79,14.63 C38.82,14.46 38.86,14.29 38.9,14.13 C38.96,13.89 39.02,13.66 39.08,13.43 C39.3680446,12.3183694 39.7356595,11.2288927 40.18,10.17 C40.28,9.93 40.38,9.7 40.49,9.48 C40.6,9.24 40.71,9 40.83,8.78 C40.95,8.56 41.07,8.33 41.19,8.11 C41.27,7.96 41.35,7.82 41.44,7.68 C41.9207944,6.86524689 42.4873497,6.10425247 43.13,5.41 C43.21,5.32 43.3,5.24 43.38,5.16 C43.54,5 43.7,4.85 43.87,4.71 C43.8917645,4.68159589 43.9189582,4.65780147 43.95,4.64 C44.1097283,4.49821784 44.2766136,4.36470962 44.45,4.24 C44.62,4.12 44.79,4.01 44.96,3.91 C45.2864774,3.70512281 45.6312944,3.53104044 45.99,3.39 C48.74,4.44 51.08,7.63 52.5,12 L53.71,26 Z" id="Shape" fill="#E8EDFC"/><path d="M46,41 C46,41 43.57,41.32 39.74,41.59 C38.8190953,41.1431838 37.9937976,40.5216634 37.31,39.76 C38.17,39.7 38.98,39.65 39.74,39.59 C40.57,39.53 41.34,39.47 42.02,39.42 C42.1564163,39.5418171 42.3000067,39.6553538 42.45,39.76 C42.6105781,39.8839193 42.7811636,39.9942981 42.96,40.09 C43.3010984,40.3055528 43.6628987,40.4864529 44.04,40.63 C44.1345005,40.669312 44.231354,40.7027098 44.33,40.73 C44.4185795,40.7612453 44.5086969,40.7879467 44.6,40.81 C44.7006696,40.843866 44.804546,40.867322 44.91,40.88 C44.9421971,40.8914447 44.9758778,40.8981808 45.01,40.9 C45.1314019,40.9304894 45.2551844,40.9505622 45.38,40.96 C45.5854005,40.9885744 45.7926305,41.0019441 46,41 Z" id="Shape" fill="#CAD9FC"/><path d="M46,3 C45.7926305,2.99805588 45.5854005,3.01142556 45.38,3.04 C45.2585754,3.050236 45.1381809,3.07030176 45.02,3.1 C44.9826126,3.10179365 44.945626,3.10851849 44.91,3.12 C44.804546,3.13267802 44.7006696,3.15613398 44.6,3.19 C44.5086969,3.21205328 44.4185795,3.23875471 44.33,3.27 C44.231354,3.2972902 44.1345005,3.33068798 44.04,3.37 C43.6628987,3.51354708 43.3010984,3.69444722 42.96,3.91 C42.7811636,4.00570189 42.6105781,4.11608072 42.45,4.24 C42.2766136,4.36470962 42.1097283,4.49821784 41.95,4.64 C41.9189582,4.65780147 41.8917645,4.68159589 41.87,4.71 C41.6946805,4.84640097 41.5308017,4.99690191 41.38,5.16 C41.2893348,5.23566393 41.2056639,5.31933482 41.13,5.41 C40.4873497,6.10425247 39.9207944,6.86524689 39.44,7.68 C39.3471159,7.81756346 39.2635939,7.96122131 39.19,8.11 C39.0561006,8.32558157 38.9358643,8.54935481 38.83,8.78 C38.71,9 38.6,9.24 38.49,9.48 C38.38,9.7 38.28,9.93 38.18,10.17 C37.7356595,11.2288927 37.3680446,12.3183694 37.08,13.43 C37.02,13.66 36.96,13.89 36.9,14.13 C36.86,14.29 36.82,14.46 36.79,14.63 C36.7233333,14.91 36.6633333,15.19 36.61,15.47 C36.54,15.79 36.49,16.12 36.43,16.46 C36.39,16.72 36.35,16.98 36.32,17.25 C36.27,17.6 36.22,17.97 36.19,18.33 C36.14,18.78 36.1,19.24 36.08,19.71 C36.0683677,19.796213 36.0616901,19.8830222 36.06,19.97 C36.04,20.24 36.03,20.5 36.02,20.77 C36.01,21.18 36,21.59 36,22 C36,22.41 36.01,22.82 36.02,23.23 C36.03,23.5 36.04,23.76 36.06,24.03 C36.0616901,24.1169778 36.0683677,24.203787 36.08,24.29 C36.1,24.76 36.14,25.22 36.19,25.67 C36.22,26.03 36.27,26.4 36.32,26.75 C36.35,27.02 36.39,27.28 36.43,27.54 C36.49,27.88 36.54,28.21 36.61,28.53 C36.66,28.81 36.72,29.09 36.79,29.37 C36.82,29.54 36.86,29.71 36.9,29.87 C36.96,30.11 37.02,30.34 37.08,30.57 C37.3680446,31.6816306 37.7356595,32.7711073 38.18,33.83 C38.28,34.07 38.38,34.3 38.49,34.52 C38.6,34.76 38.71,35 38.83,35.22 C38.9358643,35.4506452 39.0561006,35.6744184 39.19,35.89 C39.27,36.04 39.35,36.18 39.44,36.32 C39.9742579,37.2408375 40.6264344,38.0879947 41.38,38.84 C41.5308017,39.0030981 41.6946805,39.153599 41.87,39.29 C41.8917645,39.3184041 41.9189582,39.3421985 41.95,39.36 C41.971142,39.3824232 41.9946071,39.4025361 42.02,39.42 C41.34,39.47 40.57,39.53 39.74,39.59 C38.98,39.65 38.17,39.7 37.31,39.76 C34.15,36.38 32,29.69 32,22 C32,12.44 35.32,4.43 39.77,2.4 L39.78,2.4 C43.58,2.68 46,3 46,3 Z" id="Shape" fill="#E8EDFC"/><path d="M33.6,41.92 L32.63,41.95 L31.64,41.98 C31.63,41.97 31.61,41.98 31.6,41.98 L31.28,41.98 C31.13,41.99 30.98,41.99 30.82,41.99 L30.7,41.99 C30.6794852,41.9915762 30.6588947,41.9881444 30.64,41.98 C30.63,41.97 30.61,41.98 30.6,41.98 L30.58,41.98 C29.0688513,41.7994328 27.6699727,41.0911398 26.63,39.98 C27.4,39.99 28.19,40 29,40 C29.51,40 30.03,40 30.53,39.99 C31.2273673,40.7258403 32.0679451,41.311182 33,41.71 L33.01,41.71 C33.1993102,41.7991641 33.3969272,41.8695023 33.6,41.92 Z" id="Shape" fill="#CAD9FC"/><path d="M33.6,2.08 C33.3969272,2.13049769 33.1993102,2.20083592 33.01,2.29 L33,2.29 C28.44,4.15 25,12.27 25,22 C25,29.87 27.25,36.69 30.53,39.99 C30.03,40 29.51,40 29,40 C28.19,40 27.4,39.99 26.63,39.98 C26.62,39.99 26.62,39.98 26.62,39.98 C23.29,36.73 21,29.9 21,22 C21,11.23 25.26,2.44 30.6,2.02 C30.61,2.02 30.63,2.03 30.64,2.02 C30.6588947,2.01185559 30.6794852,2.00842383 30.7,2.01 L30.82,2.01 C30.98,2.01 31.13,2.01 31.28,2.02 L31.6,2.02 C31.61,2.02 31.63,2.03 31.64,2.02 L32.63,2.05 L33.6,2.08 Z" id="Shape" fill="#E8EDFC"/><path d="M21.64,41.81 C19.79,41.71 18.13,41.6 16.73,41.48 C15.6329746,40.9467873 14.6693691,40.1745361 13.91,39.22 C14.66,39.3 15.61,39.39 16.73,39.48 C17.21,39.52 17.72,39.56 18.26,39.6 C19.0178266,40.4546127 19.9528753,41.1337174 21,41.59 L21.01,41.59 C21.2145222,41.6781675 21.4250527,41.7516861 21.64,41.81 Z" id="Shape" fill="#CAD9FC"/><path d="M21.64,2.19 C21.4250527,2.24831393 21.2145222,2.32183252 21.01,2.41 L21,2.41 C16.44,4.26 13,12.33 13,22 C13,29.61 15.13,36.23 18.26,39.6 C17.72,39.56 17.21,39.52 16.73,39.48 C15.61,39.39 14.66,39.3 13.91,39.22 C10.96,35.73 9,29.32 9,22 C9,12.53 12.29,4.57 16.73,2.52 C18.13,2.4 19.79,2.29 21.64,2.19 Z" id="Shape" fill="#E8EDFC"/><path d="M60,25 L60,32 C60,32.5522847 59.5522847,33 59,33 L55,33 C54.7221627,33.0023372 54.4565528,32.8859055 54.27,32.68 C54.0962096,32.4962927 53.9995628,32.252886 54,32 L54,29 C53.9967052,27.8967981 53.1032019,27.0032948 52,27 L48,27 C47.4477153,27 47,26.5522847 47,26 L47,22 C47,21.4477153 47.4477153,21 48,21 L56,21 C58.209139,21 60,22.790861 60,25 Z" id="Shape" fill="#CAD9FC"/><path d="M58,25 L58,32 C58,32.5522847 57.5522847,33 57,33 L55,33 C54.7221627,33.0023372 54.4565528,32.8859055 54.27,32.68 C54.0962096,32.4962927 53.9995628,32.252886 54,32 L54,29 C53.9967052,27.8967981 53.1032019,27.0032948 52,27 L48,27 C47.4477153,27 47,26.5522847 47,26 L47,22 C47,21.4477153 47.4477153,21 48,21 L54,21 C56.209139,21 58,22.790861 58,25 Z" id="Shape" fill="#E8EDFC"/><rect id="Rectangle-path" fill="#CAD9FC" x="51" y="16" width="4" height="5"/><path d="M59,14 C58.9918328,15.1011688 58.1011688,15.9918328 57,16 L49,16 C47.8967981,15.9967052 47.0032948,15.1032019 47,14 C47.0081672,12.8988312 47.8988312,12.0081672 49,12 L57,12 C58.1032019,12.0032948 58.9967052,12.8967981 59,14 Z" id="Shape" fill="#CAD9FC"/><path d="M57,14 C56.9918328,15.1011688 56.1011688,15.9918328 55,16 L49,16 C47.8967981,15.9967052 47.0032948,15.1032019 47,14 C47.0081672,12.8988312 47.8988312,12.0081672 49,12 L55,12 C56.1032019,12.0032948 56.9967052,12.8967981 57,14 Z" id="Shape" fill="#E8EDFC"/><path d="M10.449,36.915 C10.312,36.781 10.18,36.631 10.049,36.485 C10.18,36.631 10.312,36.781 10.449,36.915 Z" id="Shape" fill="#FFFFFF"/><path d="M13.692,38.819 C13.804,38.847 13.914,38.889 14.027,38.91 C13.914,38.889 13.8,38.847 13.692,38.819 Z" id="Shape" fill="#FFFFFF"/><path d="M9.268,35.547 C9.396,35.717 9.521,35.891 9.653,36.047 C9.521,35.891 9.4,35.717 9.268,35.547 Z" id="Shape" fill="#FFFFFF"/><path d="M7.874,33.306 C7.984,33.517 8.093,33.73 8.207,33.932 C8.093,33.73 7.984,33.517 7.874,33.306 Z" id="Shape" fill="#FFFFFF"/><path d="M12,41 C12,41 13.79,41.24 16.73,41.48 C18.13,41.6 19.79,41.71 21.64,41.81 C23.86,41.92 26.36,42 29,42 C29.556,42 30.112,42 30.659,41.99 C28.516,41.969 26.479,41.901 24.64,41.81 C22.801,41.719 21.13,41.6 19.73,41.48 C16.79,41.24 15,41 15,41 C9.48,41 5,32.49 5,22 C5,21.67 5,21.35 5.01,21.02 L5.01,20.98 C5.29,10.96 9.66,3 15,3 C15,3 16.79,2.76 19.73,2.52 C21.13,2.4 22.79,2.29 24.64,2.19 L24.65,2.19 C26.489,2.099 28.519,2.031 30.66,2.01 C30.113,2 29.557,2 29,2 C26.36,2 23.87,2.08 21.65,2.19 L21.64,2.19 C19.79,2.29 18.13,2.4 16.73,2.52 C13.79,2.76 12,3 12,3 C6.66,3 2.29,10.96 2.01,20.98 L2.01,21.02 C2,21.35 2,21.67 2,22 C2,32.49 6.48,41 12,41 Z M7.046,36.485 C7.18,36.631 7.312,36.785 7.446,36.915 C7.312,36.781 7.18,36.631 7.046,36.485 Z M9.685,38.466 C9.817,38.526 9.948,38.598 10.085,38.648 C9.948,38.6 9.818,38.526 9.685,38.466 Z M7.875,37.291 C8.013,37.409 8.148,37.535 8.289,37.642 C8.148,37.535 8.013,37.409 7.875,37.291 Z M8.755,37.955 C8.892,38.045 9.028,38.144 9.168,38.222 C9.028,38.144 8.892,38.045 8.755,37.955 Z M5.207,33.932 C5.093,33.732 4.984,33.517 4.874,33.306 C4.984,33.517 5.093,33.73 5.207,33.932 Z M6.653,36.049 C6.521,35.891 6.396,35.717 6.268,35.549 C6.4,35.717 6.521,35.891 6.653,36.049 Z M5.904,35.049 C5.78,34.868 5.663,34.674 5.544,34.483 C5.663,34.677 5.78,34.871 5.9,35.052 L5.904,35.049 Z M2.154,23.29 C2.12933333,23.02 2.10733333,22.7483333 2.088,22.475 C2.10666667,22.7483333 2.12866667,23.02 2.154,23.29 Z M4.567,32.7 C4.467,32.48 4.367,32.251 4.267,32.021 C4.364,32.247 4.463,32.477 4.567,32.7 Z M3.987,31.356 C3.894,31.121 3.807,30.878 3.72,30.634 C3.807,30.875 3.894,31.118 3.987,31.353 L3.987,31.356 Z M3.472,29.91 C3.392,29.662 3.317,29.41 3.243,29.152 C3.317,29.407 3.392,29.662 3.472,29.91 Z M3.027,28.375 C2.96,28.116 2.897,27.853 2.836,27.588 C2.9,27.853 2.96,28.117 3.027,28.375 Z M2.656,26.756 C2.602,26.489 2.556,26.22 2.506,25.948 C2.553,26.22 2.6,26.49 2.656,26.756 Z M2.363,25.056 C2.32433333,24.7893333 2.28833333,24.5166667 2.255,24.238 C2.285,24.5146667 2.321,24.7883333 2.363,25.059 L2.363,25.056 Z" id="Shape" fill="#FFFFFF"/><path d="M8.544,34.486 C8.663,34.677 8.78,34.871 8.904,35.052 C8.78,34.871 8.663,34.677 8.544,34.486 Z" id="Shape" fill="#FFFFFF"/><path d="M6.72,30.631 C6.807,30.875 6.894,31.118 6.987,31.353 C6.894,31.118 6.807,30.875 6.72,30.631 Z" id="Shape" fill="#FFFFFF"/><path d="M7.266,32.018 C7.366,32.248 7.466,32.477 7.566,32.697 C7.463,32.477 7.364,32.247 7.266,32.018 Z" id="Shape" fill="#FFFFFF"/><path d="M6.243,29.152 C6.317,29.408 6.392,29.662 6.472,29.91 C6.392,29.662 6.317,29.407 6.243,29.152 Z" id="Shape" fill="#FFFFFF"/><path d="M5.088,22.475 C5.10733333,22.7483333 5.12933333,23.02 5.154,23.29 C5.12866667,23.02 5.10666667,22.7483333 5.088,22.475 Z" id="Shape" fill="#FFFFFF"/><path d="M5.836,27.588 C5.897,27.853 5.96,28.116 6.027,28.375 C5.96,28.117 5.9,27.853 5.836,27.588 Z" id="Shape" fill="#FFFFFF"/><path d="M12.685,38.466 C12.818,38.526 12.948,38.598 13.085,38.648 C12.948,38.6 12.817,38.526 12.685,38.466 Z" id="Shape" fill="#FFFFFF"/><path d="M5.506,25.948 C5.553,26.22 5.606,26.489 5.656,26.756 C5.6,26.49 5.553,26.22 5.506,25.948 Z" id="Shape" fill="#FFFFFF"/><path d="M6,49 C6,45.1340068 9.13400675,42 13,42 L10,42 C6.13400675,42 3,45.1340068 3,49 C3,49.5522847 3.44771525,50 4,50 L6,50 C6.17763412,49.9954817 6.35060582,49.9422064 6.5,49.846 C6.19510961,49.6726121 6.00486045,49.3507105 6,49 Z" id="Shape" fill="#FFFFFF"/><path d="M5.255,24.241 C5.28833333,24.5156667 5.32433333,24.7883333 5.363,25.059 C5.321,24.789 5.285,24.5163333 5.255,24.241 Z" id="Shape" fill="#FFFFFF"/><path d="M10.875,37.291 C11.013,37.409 11.148,37.535 11.289,37.642 C11.148,37.535 11.013,37.409 10.875,37.291 Z" id="Shape" fill="#FFFFFF"/><path d="M11.755,37.955 C11.892,38.045 12.028,38.144 12.168,38.222 C12.028,38.144 11.892,38.045 11.755,37.955 Z" id="Shape" fill="#FFFFFF"/><path d="M46,42 C39.832,42 35,33.215 35,22 C35,10.785 39.832,2 46,2 C49.94,2 53.474,5.623 55.451,11.69 C55.5985676,12.2070805 55.3108069,12.7482834 54.79961,12.915095 C54.288413,13.0819067 53.7368221,12.8145975 53.551,12.31 C51.879,7.184 48.986,4 46,4 C41.121,4 37,12.243 37,22 C37,31.757 41.121,40 46,40 C48.87,40 51.609,37.137 53.328,32.343 C53.4485771,32.0066344 53.7394439,31.760147 54.0910336,31.6963871 C54.4426233,31.6326272 54.801521,31.7612814 55.0325336,32.0338871 C55.2635461,32.3064927 55.3315771,32.6816344 55.211,33.018 C53.194,38.642 49.751,42 46,42 Z" id="Shape" fill="#428DFF"/><path d="M40,23 C39.4477153,23 39,22.5522847 39,22 C39,12.843 42.7,6 46,6 C46.5522847,6 47,6.44771525 47,7 C47,7.55228475 46.5522847,8 46,8 C44.473,8 41,13.289 41,22 C41,22.5522847 40.5522847,23 40,23 Z" id="Shape" fill="#428DFF"/><path d="M46,38 C45.4477153,38 45,37.5522847 45,37 C45,36.4477153 45.4477153,36 46,36 C47.095,36 49.646,32.854 50.623,26.84 C50.7113656,26.2946188 51.2251188,25.9241345 51.7705,26.0125 C52.3158812,26.1008656 52.6863655,26.6146188 52.598,27.16 C51.6,33.34 48.758,38 46,38 Z" id="Shape" fill="#428DFF"/><path d="M31,43 C30.921,43 30.841,43 30.761,42.99 L30.72,42.99 C30.6711933,42.9891908 30.6224613,42.985853 30.574,42.98 L30.498,42.98 C24.611,42.491 20,33.277 20,22 C20,10.7 24.621,1.487 30.521,1.023 C30.585299,1.01439171 30.6501303,1.01038153 30.715,1.011 L30.756,1.011 C30.9918814,0.986418864 31.2299902,0.993481415 31.464,1.032 C31.9604574,1.10102256 32.3335905,1.51989733 32.345,2.021 C32.3517238,2.28302489 32.2526647,2.53672151 32.0701677,2.72486271 C31.8876708,2.91300391 31.6371081,3.0197421 31.375,3.021 L31.315,3.021 C31.2568217,3.01918334 31.1989233,3.01215522 31.142,3 C31.0947509,2.99600635 31.0472491,2.99600635 31,3 C30.9403332,3.00781574 30.8801654,3.01115839 30.82,3.01 L30.8,3.01 C30.7256551,3.02212883 30.6502133,3.02615239 30.575,3.022 C25.877,3.427 22,11.929 22,22 C22,32.034 25.855,40.522 30.606,40.979 C30.6612293,40.9734831 30.7169918,40.9772006 30.771,40.99 L30.82,40.99 C30.8742467,40.9903328 30.9283944,40.994678 30.982,41.003 C31.035428,41.004081 31.0888705,41.0017429 31.142,40.996 C31.4363889,40.9452299 31.7383415,41.0243902 31.9699589,41.2130586 C32.2015763,41.4017271 32.3401754,41.6814269 32.35,41.98 C32.3564401,42.2392119 32.2594697,42.4903326 32.0804885,42.677944 C31.9015072,42.8655554 31.6552278,42.9742353 31.396,42.98 C31.2645749,42.9952657 31.1322944,43.0019466 31,43 Z M30.824,41 C30.8697616,41.0089366 30.9148649,41.0209641 30.959,41.036 C30.91515,41.0200414 30.8699738,41.0079945 30.824,41 Z" id="Shape" fill="#428DFF"/><path d="M39.191,36.89 C38.8312786,36.8903981 38.499062,36.6975597 38.321,36.385 C36.0182708,31.9469154 34.8758232,26.9983734 35,22 C34.8758232,17.0016266 36.0182708,12.0530846 38.321,7.615 C38.594381,7.13478841 39.2052884,6.96711905 39.6855,7.2405 C40.1657116,7.51388095 40.333381,8.12478841 40.06,8.605 C37.9438594,12.7467511 36.8922292,17.3502109 37,22 C36.8913955,26.6514722 37.9430489,31.2567517 40.06,35.4 C40.2363464,35.7095477 40.2346935,36.0895382 40.055661,36.3975401 C39.8766284,36.7055419 39.5472553,36.8950381 39.191,36.895 L39.191,36.89 Z" id="Shape" fill="#428DFF"/><path d="M33.63,42.92 L33.6,42.92 C33.5180769,42.9199914 33.4364654,42.9099159 33.357,42.89 C33.1201098,42.831162 32.8888784,42.7515193 32.666,42.652 L32.622,42.636 C27.546,40.565 24,32.079 24,22 C24,11.921 27.546,3.435 32.622,1.364 L32.668,1.347 C32.8903915,1.24825099 33.1209201,1.16895452 33.357,1.11 C33.6559669,1.04234325 33.9695249,1.11190259 34.2118364,1.29963592 C34.4541479,1.48736925 34.5998293,1.77361046 34.609,2.08 C34.6137045,2.57030656 34.2591403,2.99034177 33.775,3.068 C33.6591968,3.10105116 33.5461799,3.14318172 33.437,3.194 C33.3962804,3.21265328 33.3545485,3.22901221 33.312,3.243 C29.139,5.015 26,13.054 26,22 C26,30.946 29.142,38.993 33.318,40.759 C33.3586165,40.772146 33.3983623,40.7878439 33.437,40.806 C33.559954,40.8633221 33.6877989,40.9095069 33.819,40.944 C34.2793318,41.0438807 34.6093054,41.4489804 34.614,41.92 C34.6177433,42.1835743 34.5157913,42.437673 34.3309065,42.625564 C34.1460217,42.813455 33.8936004,42.9194919 33.63,42.92 Z" id="Shape" fill="#428DFF"/><path d="M39.739,42.59 C39.5943226,42.5900043 39.4513671,42.5586155 39.32,42.498 C34.422,40.231 31,31.8 31,22 C31,12.169 34.436,3.735 39.354,1.49 C39.6647787,1.36264681 40.0181116,1.39465358 40.3009466,1.57577947 C40.5837817,1.75690535 40.7606646,2.06444562 40.775,2.4 C40.7757833,2.82264519 40.5107718,3.20014641 40.113,3.343 C35.987,5.3 33,13.121 33,22 C33,30.906 36.012,38.763 40.16,40.682 C40.5867812,40.8789232 40.8188198,41.3464871 40.7175454,41.8054691 C40.6162711,42.2644511 40.2090213,42.5909562 39.739,42.59 Z" id="Shape" fill="#428DFF"/><path d="M16.729,42.48 C16.5849484,42.4801628 16.4426107,42.4487597 16.312,42.388 C11.418,40.129 8,31.745 8,22 C8,12.255 11.418,3.871 16.312,1.612 C16.6376859,1.45398098 17.0233425,1.48431166 17.3203216,1.69130132 C17.6173007,1.89829099 17.7792283,2.2496177 17.7436906,2.60986537 C17.708153,2.97011305 17.4806994,3.28302813 17.149,3.428 C13.007,5.34 10,13.151 10,22 C10,30.849 13.007,38.66 17.149,40.572 C17.5756092,40.7688457 17.807654,41.2361312 17.7066497,41.6949795 C17.6056453,42.1538278 17.1988334,42.4804844 16.729,42.48 Z" id="Shape" fill="#428DFF"/><path d="M21.641,42.811 C21.551459,42.8108351 21.4623399,42.7987284 21.376,42.775 C21.1427949,42.710999 20.9137041,42.6328543 20.69,42.541 L20.624,42.517 C15.546,40.457 12,32.02 12,22 C12,11.98 15.546,3.543 20.624,1.483 C20.646,1.474 20.67,1.466 20.693,1.458 C20.9156991,1.3664697 21.1437923,1.28865752 21.376,1.225 C21.676769,1.14958646 21.995511,1.21494217 22.2423319,1.40263501 C22.4891529,1.59032786 22.637303,1.88001623 22.645,2.19 C22.6455727,2.66564422 22.3110347,3.07587143 21.845,3.171 C21.6950779,3.21411776 21.5481039,3.26689477 21.405,3.329 C21.374,3.342 21.343,3.354 21.311,3.364 C17.139,5.126 14,13.112 14,22 C14,30.888 17.141,38.88 21.314,40.638 C21.3449618,40.6471828 21.375349,40.6582024 21.405,40.671 C21.56709,40.7413988 21.7342239,40.7995614 21.905,40.845 C22.3904688,40.9749196 22.7041033,41.4449552 22.6377173,41.9431037 C22.5713313,42.4412523 22.1455495,42.8127492 21.643,42.811 L21.641,42.811 Z" id="Shape" fill="#428DFF"/><path d="M37.59,3.26 C37.318037,3.25754291 37.057551,3.15005214 36.863,2.96 C36.5268576,2.61902023 36.4772963,2.08849926 36.7444647,1.69115815 C37.0116332,1.29381705 37.5216423,1.13954598 37.9642485,1.32218953 C38.4068547,1.50483309 38.6596492,1.97387868 38.5688546,2.4440013 C38.47806,2.91412392 38.0687869,3.25530468 37.59,3.26 Z" id="Shape" fill="#428DFF"/><path d="M12,4 C11.0976471,4.03995886 10.2200773,4.30759873 9.449,4.778 C8.63705558,5.30967428 7.91585577,5.96841062 7.313,6.729 C6.07058522,8.36250653 5.12301507,10.2004542 4.513,12.16 C2.87622123,17.3721909 2.56008489,22.9093877 3.593,28.274 C4.04418036,30.9262124 4.96061151,33.4777978 6.3,35.811 C6.94996375,36.9204045 7.78151382,37.9128561 8.76,38.747 C9.66552632,39.5218997 10.8087184,39.9640046 12,40 L12,42 C10.3578204,41.9633654 8.77720386,41.3679446 7.519,40.312 C6.35484855,39.3313282 5.36577488,38.1599944 4.594,36.848 C3.12739056,34.3115672 2.12184537,31.5353145 1.624,28.648 C0.525601333,22.9465601 0.865163219,17.061279 2.612,11.524 C3.29761102,9.33877493 4.36178476,7.29098513 5.756,5.474 C6.50080928,4.53484333 7.39387727,3.72351606 8.4,3.072 C9.48685887,2.40880794 10.7273912,2.03940498 12,2 L12,4 Z" id="Shape" fill="#FFFFFF"/><path d="M7.552,5 C7.9067259,5.37791913 8.48386217,5.4411495 8.912,5.149 C9.78528388,4.43389314 10.8716726,4.02966364 12,4 L12,2 C10.437231,2.03045619 8.92846851,2.57721119 7.709,3.555 C7.48149541,3.71513855 7.33389171,3.96542263 7.30384053,4.24200828 C7.27378936,4.51859393 7.36419637,4.794738 7.552,5 Z" id="Shape" fill="#428DFF"/><path d="M12,42 L12,40 C10.8101036,39.9631006 9.66846647,39.5210513 8.764,38.747 C7.78408596,37.9131831 6.95116804,36.9207127 6.3,35.811 C4.95781801,33.4783376 4.03866882,30.9267252 3.585,28.274 C2.55208489,22.9093877 2.86822123,17.3721909 4.505,12.16 C4.5953426,11.8541897 4.70284636,11.5537134 4.827,11.26 C5.00670784,10.7486091 4.75803916,10.1856022 4.259,9.974 C4.01104154,9.8708478 3.73163559,9.87386089 3.48595931,9.98233642 C3.24028303,10.0908119 3.04982014,10.295264 2.959,10.548 C2.82486964,10.8681639 2.70803465,11.1953019 2.609,11.528 C0.863665936,17.0645931 0.525138993,22.9487756 1.624,28.649 C2.12184537,31.5363145 3.12739056,34.3125672 4.594,36.849 C5.36577488,38.1609944 6.35484855,39.3323282 7.519,40.313 C8.77733935,41.3685838 10.3579423,41.9636467 12,42 Z" id="Shape" fill="#428DFF"/><path d="M6.5,7.856 C6.63925235,7.64849841 6.69133235,7.39456352 6.645,7.149 L6.589,6.967 C6.56485669,6.90394786 6.53294372,6.84415304 6.494,6.789 C6.4642719,6.73279777 6.42691848,6.6809741 6.383,6.635 C6.33619076,6.5866319 6.2864287,6.54121149 6.234,6.499 C6.01984438,6.34168085 5.75080172,6.27848291 5.489,6.324 C5.35515779,6.35433549 5.22847985,6.41037265 5.116,6.489 C4.76143183,6.72591449 4.59058684,7.15760674 4.687,7.573 C4.72163572,7.70077372 4.78185191,7.8201855 4.864,7.924 C4.94237993,8.02868788 5.04142632,8.11616184 5.155,8.181 C5.38735087,8.30540808 5.6563113,8.34332476 5.914,8.288 C6.15751355,8.22449445 6.36730837,8.06983343 6.5,7.856 Z" id="Shape" fill="#428DFF"/><path d="M29,43 C23.2748882,42.9976213 17.5548064,42.6607138 11.869,41.991 C11.3342661,41.9052738 10.964947,41.4094498 11.0359186,40.8725584 C11.1068901,40.3356669 11.5923581,39.952837 12.131,40.009 C17.7299387,40.6671556 23.3625112,40.9980513 29,41 C29.86,41 30.712,40.991 31.543,40.98 C31.581,40.98 31.618,40.98 31.654,40.98 L32.601,40.952 C33.379,40.932 34.124,40.912 34.859,40.882 C37.514,40.772 39.859,40.603 41.694,40.443 C41.3338655,40.16624 40.9927617,39.8655608 40.673,39.543 C39.7382496,38.6050598 38.9443349,37.5366266 38.316,36.371 C36.0168153,31.9368193 34.8761313,26.993282 35,22 C34.8758232,17.0016266 36.0182708,12.0530846 38.321,7.615 C38.9507869,6.44956109 39.7460409,5.38147531 40.682,4.444 C40.998871,4.12614892 41.3366231,3.82982242 41.693,3.557 C40.501,3.457 39.093,3.348 37.532,3.257 C37.4916853,3.25496044 37.4515763,3.24994681 37.412,3.242 L36.486,3.2 C35.958,3.173 35.415,3.145 34.857,3.121 C34.124,3.091 33.379,3.071 32.604,3.051 L31.654,3.023 L31.542,3.023 C30.7,3.009 29.856,3 29,3 C23.3624981,3.00150516 17.7298998,3.33240236 12.131,3.991 C11.5923581,4.04716303 11.1068901,3.66433307 11.0359186,3.12744164 C10.964947,2.59055022 11.3342661,2.0947262 11.869,2.009 C17.5548064,1.33928623 23.2748882,1.00237872 29,1 C29.884,1 30.758,1.01 31.611,1.02 L31.669,1.02 L32.659,1.049 C33.441,1.069 34.196,1.089 34.941,1.12 C35.506,1.145 36.054,1.172 36.588,1.199 L37.617,1.25 C37.6684237,1.2522596 37.7195856,1.25861304 37.77,1.269 C42.748,1.56 46.099,2.003 46.133,2.008 C46.6578858,2.07469264 47.0399791,2.53871246 47.0047307,3.06664291 C46.9694823,3.59457336 46.5290931,4.00367844 46,4 C44.4964823,4.06605782 43.0842519,4.73987183 42.087,5.867 C41.2843975,6.67567482 40.6030071,7.59620865 40.064,8.6 C37.9465788,12.7432224 36.8936001,17.3482859 37,22 C36.8913955,26.6514722 37.9430489,31.2567517 40.06,35.4 C40.59731,36.4023708 41.2770399,37.3215892 42.078,38.129 C43.0776135,39.2585894 44.4930753,39.933839 46,40 C46.5258918,40.0009725 46.9611708,40.4091044 46.9959603,40.9338452 C47.0307497,41.4585859 46.6531606,41.9206097 46.132,41.991 C46.085,41.998 41.412,42.61 34.942,42.879 C34.196,42.91 33.442,42.93 32.655,42.95 L31.671,42.979 C31.6533483,42.9800298 31.6356517,42.9800298 31.618,42.979 L31.6,42.979 C30.758,42.99 29.884,43 29,43 Z" id="Shape" fill="#428DFF"/><path d="M59,34 L55,34 C53.8954305,34 53,33.1045695 53,32 L53,29 C53,28.4477153 52.5522847,28 52,28 L48,28 C46.8954305,28 46,27.1045695 46,26 L46,22 C46,20.8954305 46.8954305,20 48,20 L56,20 C58.7600532,20.0033061 60.9966939,22.2399468 61,25 L61,32 C61,33.1045695 60.1045695,34 59,34 Z M48,22 L48,26 L52,26 C53.6568542,26 55,27.3431458 55,29 L55,32 L59,32 L59,25 C59,23.3431458 57.6568542,22 56,22 L48,22 Z" id="Shape" fill="#428DFF"/><path d="M55,22 L51,22 C50.4477153,22 50,21.5522847 50,21 L50,16 C50,15.4477153 50.4477153,15 51,15 L55,15 C55.5522847,15 56,15.4477153 56,16 L56,21 C56,21.5522847 55.5522847,22 55,22 Z M52,20 L54,20 L54,17 L52,17 L52,20 Z" id="Shape" fill="#428DFF"/><path d="M57,17 L49,17 C47.3431458,17 46,15.6568542 46,14 C46,12.3431458 47.3431458,11 49,11 L57,11 C58.6568542,11 60,12.3431458 60,14 C60,15.6568542 58.6568542,17 57,17 Z M49,13 C48.4477153,13 48,13.4477153 48,14 C48,14.5522847 48.4477153,15 49,15 L57,15 C57.5522847,15 58,14.5522847 58,14 C58,13.4477153 57.5522847,13 57,13 L49,13 Z" id="Shape" fill="#428DFF"/><path d="M55,51 L51,51 C50.4477153,51 50,50.5522847 50,50 L50,49 C50,47.8954305 49.1045695,47 48,47 L40,47 C38.8954305,47 38,47.8954305 38,49 L38,50 C38,50.5522847 37.5522847,51 37,51 L33,51 C32.4477153,51 32,50.5522847 32,50 L32,49 C32,47.8954305 31.1045695,47 30,47 L10,47 C8.8954305,47 8,47.8954305 8,49 L8,50 C8,50.5522847 7.55228475,51 7,51 L3,51 C2.44771525,51 2,50.5522847 2,50 L2,49 C2.00495988,44.5837781 5.58377808,41.0049599 10,41 L48,41 C52.4162219,41.0049599 55.9950401,44.5837781 56,49 L56,50 C56,50.5522847 55.5522847,51 55,51 Z M52,49 L54,49 C53.9966926,45.6876624 51.3123376,43.0033074 48,43 L10,43 C6.68766243,43.0033074 4.00330738,45.6876624 4,49 L6,49 C6,46.790861 7.790861,45 10,45 L30,45 C32.209139,45 34,46.790861 34,49 L36,49 C36,46.790861 37.790861,45 40,45 L48,45 C50.209139,45 52,46.790861 52,49 Z" id="Shape" fill="#428DFF"/><path d="M55,51 L51,51 C50.4477153,51 50,50.5522847 50,50 L50,49 C50,47.8954305 49.1045695,47 48,47 L40,47 C38.8954305,47 38,47.8954305 38,49 L38,50 C38,50.5522847 37.5522847,51 37,51 L33,51 C32.4477153,51 32,50.5522847 32,50 L32,49 C32,47.8954305 31.1045695,47 30,47 L10,47 C8.8954305,47 8,47.8954305 8,49 L8,50 C8,50.5522847 7.55228475,51 7,51 L3,51 C2.44771525,51 2,50.5522847 2,50 L2,49 C2.00495988,44.5837781 5.58377808,41.0049599 10,41 L48,41 C52.4162219,41.0049599 55.9950401,44.5837781 56,49 L56,50 C56,50.5522847 55.5522847,51 55,51 Z M52,49 L54,49 C53.9966926,45.6876624 51.3123376,43.0033074 48,43 L10,43 C6.68766243,43.0033074 4.00330738,45.6876624 4,49 L6,49 C6,46.790861 7.790861,45 10,45 L30,45 C32.209139,45 34,46.790861 34,49 L36,49 C36,46.790861 37.790861,45 40,45 L48,45 C50.209139,45 52,46.790861 52,49 Z" id="Shape" fill="#428DFF"/></g></g></svg>
