<?xml version="1.0" encoding="UTF-8"?>
<svg xmlns="http://www.w3.org/2000/svg" xmlns:xlink="http://www.w3.org/1999/xlink" width="512" height="512" viewBox="0 0 60 60" version="1.1"><!-- Generator: Sketch 51.3 (57544) - http://www.bohemiancoding.com/sketch --><title>029 - Pints on Tray</title><desc>Created with Sketch.</desc><defs><linearGradient x1="-11.7750325%" y1="9.54665175%" x2="112.457737%" y2="80.491159%" id="linearGradient-1"><stop stop-color="#D3DFF2" offset="0%"/><stop stop-color="#D3DFF2" offset="17.2%"/><stop stop-color="#D3DFF2" offset="20%"/><stop stop-color="#DAE2F2" offset="20%"/><stop stop-color="#EBEAF2" offset="20.1%"/><stop stop-color="#F6EFF2" offset="20.1%"/><stop stop-color="#FDF2F2" offset="20.2%"/><stop stop-color="#FFF3F2" offset="20.5%"/><stop stop-color="#FFF3F2" offset="25.2%"/><stop stop-color="#FFF3F2" offset="26%"/><stop stop-color="#D3DFF2" offset="26%"/><stop stop-color="#D3DFF2" offset="39.7%"/><stop stop-color="#D3DFF2" offset="42%"/><stop stop-color="#DAE2F2" offset="42%"/><stop stop-color="#EBEAF2" offset="42.1%"/><stop stop-color="#F6EFF2" offset="42.1%"/><stop stop-color="#FDF2F2" offset="42.2%"/><stop stop-color="#FFF3F2" offset="42.5%"/><stop stop-color="#FFF3F2" offset="48.9%"/><stop stop-color="#FFF3F2" offset="50%"/><stop stop-color="#F8F0F2" offset="50%"/><stop stop-color="#E7E8F2" offset="50%"/><stop stop-color="#DCE3F2" offset="50%"/><stop stop-color="#D5E0F2" offset="50%"/><stop stop-color="#D3DFF2" offset="50.1%"/><stop stop-color="#D3DFF2" offset="70.6%"/><stop stop-color="#D3DFF2" offset="74%"/><stop stop-color="#FFF3F2" offset="74.1%"/><stop stop-color="#FFF3F2" offset="83.5%"/><stop stop-color="#FFF3F2" offset="85%"/><stop stop-color="#D3DFF2" offset="85.1%"/></linearGradient><linearGradient x1="-11.6005205%" y1="10.0739757%" x2="110.904359%" y2="79.9939768%" id="linearGradient-2"><stop stop-color="#D3DFF2" offset="0%"/><stop stop-color="#D3DFF2" offset="17.2%"/><stop stop-color="#D3DFF2" offset="20%"/><stop stop-color="#DAE2F2" offset="20%"/><stop stop-color="#EBEAF2" offset="20.1%"/><stop stop-color="#F6EFF2" offset="20.1%"/><stop stop-color="#FDF2F2" offset="20.2%"/><stop stop-color="#FFF3F2" offset="20.5%"/><stop stop-color="#FFF3F2" offset="25.2%"/><stop stop-color="#FFF3F2" offset="26%"/><stop stop-color="#D3DFF2" offset="26%"/><stop stop-color="#D3DFF2" offset="39.7%"/><stop stop-color="#D3DFF2" offset="42%"/><stop stop-color="#DAE2F2" offset="42%"/><stop stop-color="#EBEAF2" offset="42.1%"/><stop stop-color="#F6EFF2" offset="42.1%"/><stop stop-color="#FDF2F2" offset="42.2%"/><stop stop-color="#FFF3F2" offset="42.5%"/><stop stop-color="#FFF3F2" offset="48.9%"/><stop stop-color="#FFF3F2" offset="50%"/><stop stop-color="#F8F0F2" offset="50%"/><stop stop-color="#E7E8F2" offset="50%"/><stop stop-color="#DCE3F2" offset="50%"/><stop stop-color="#D5E0F2" offset="50%"/><stop stop-color="#D3DFF2" offset="50.1%"/><stop stop-color="#D3DFF2" offset="70.6%"/><stop stop-color="#D3DFF2" offset="74%"/><stop stop-color="#FFF3F2" offset="74.1%"/><stop stop-color="#FFF3F2" offset="83.5%"/><stop stop-color="#FFF3F2" offset="85%"/><stop stop-color="#D3DFF2" offset="85.1%"/></linearGradient></defs><g id="Page-1" stroke="none" stroke-width="1" fill="none" fill-rule="evenodd"><g id="029---Pints-on-Tray" fill-rule="nonzero"><path d="M59,49 C59,54.52 46.02,59 30,59 C21.49,59 13.84,57.74 8.53,55.72 C8.51,55.7 8.48,55.7 8.46,55.69 C3.82,53.92 1,51.57 1,49 C1,46.24 4.24,43.75 9.49,41.93 L50.51,41.93 C55.76,43.75 59,46.24 59,49 Z" id="Shape" fill="#CAD9FC"/><path d="M56,48 C56,53.52 43.02,58 27,58 C20.7691126,58.0687269 14.5571286,57.3018983 8.53,55.72 C8.51,55.7 8.48,55.7 8.46,55.69 C3.82,53.92 1,51.57 1,49 C1,46.24 4.24,43.75 9.49,41.93 L50.04,41.93 C53.78,43.62 56,45.72 56,48 Z" id="Shape" fill="#E8EDFC"/><path d="M37.94,21.11 C37.64,21.04 37.32,24 37,24 C36.42,24 35.87,23.97 35.37,24.01 C34.6244514,23.978766 33.9218162,24.3588801 33.54,25 L21.9999974,25 L22,22.1 C21.99761,19.1113139 23.6646147,16.3715608 26.32,15 L26.93,6 L27,5 L33,5 L33.68,15 C36.0193488,16.211082 37.6125595,18.49618 37.94,21.11 Z" id="Shape" fill="#7FACFA"/><path d="M35.94,22.11 C35.76,22.07 35.57,23.16 35.37,24.01 C35.25,24.55 35.13,25 35,25 C34.48,25 33.99,24.98 33.54,25 L21.9999974,25 L22,22.1 C21.99761,19.1113139 23.6646147,16.3715608 26.32,15 L26.93,6 L31,6 L31.68,16 C34.0193488,17.211082 35.6125595,19.49618 35.94,22.11 Z" id="Shape" fill="#A4C2F7"/><polygon id="Shape" fill="#7FACFA" points="35.82 45 22.18 45 23.68 31 34.32 31"/><polygon id="Shape" fill="#A4C2F7" points="33.82 45 22.18 45 23.68 31 32.32 31"/><path d="M34,28 L34.32,31 L23.68,31 L24,28 L23.23,28 C23.7270501,27.452655 24.0016714,26.7393528 24,26 C24,24.34 24.66,23 23,23 L33.54,23 C32.5813762,24.6481067 32.9251715,26.7444194 34.36,28 L34,28 Z" id="Shape" fill="#E8EDFC"/><path d="M52,26 L49.57,50.65 C49.5500292,50.8364027 49.4921792,51.0167585 49.4,51.18 C49.1011723,51.6960983 48.5462864,52.0098958 47.95,52 L38.05,52 C37.2453979,52.0270619 36.5484739,51.4462919 36.43,50.65 L35.82,45 L34.32,31 L33.62,25.83 C36.49,25.83 39.39,25.25 42.27,25.07 C42.85,25.02 43.42,25 44,25 C46.56,25 49.44,26 52,26 Z" id="Shape" fill="#A4C2F7"/><path d="M26,25.83 L25.3,31 L23.8,45 L23.2,50.65 C23.0744095,51.4464105 22.3758658,52.024959 21.57,52 L11.68,52 C11.080379,52.0126984 10.521199,51.6986384 10.22,51.18 C10.1322197,51.0148683 10.0746485,50.8353816 10.05,50.65 L7.63,26 C9.77,26 12.14,25.3 14.36,25.07 C14.79,25.03 15.21,25 15.63,25 C19.07,25 22.56,25.83 26,25.83 Z" id="Shape" fill="#A4C2F7"/><path d="M49,26 L46.57,50.65 C46.5500292,50.8364027 46.4921792,51.0167585 46.4,51.18 C46.1011723,51.6960983 45.5462864,52.0098958 44.95,52 L38.05,52 C37.2453979,52.0270619 36.5484739,51.4462919 36.43,50.65 L35.82,45 L34.32,31 L33.62,25.83 C36.49,25.83 39.39,25.25 42.27,25.07 C44.49,25.3 46.86,26 49,26 Z" id="Shape" fill="url(#linearGradient-1)"/><path d="M23,25.83 L22.3,31 L20.8,45 L20.2,50.65 C20.0744095,51.4464105 19.3758658,52.024959 18.57,52 L11.68,52 C11.080379,52.0126984 10.521199,51.6986384 10.22,51.18 C10.1322197,51.0148683 10.0746485,50.8353816 10.05,50.65 L7.63,26 C9.77,26 12.14,25.3 14.36,25.07 C17.24,25.25 20.14,25.83 23,25.83 Z" id="Shape" fill="url(#linearGradient-2)"/><path d="M9.5,21.3 C9.62769539,21.2385629 9.7618631,21.1916042 9.9,21.16 C9.83676609,21.2351397 9.77990272,21.3154174 9.73,21.4 C9.65606794,21.3607 9.57916508,21.327264 9.5,21.3 Z" id="Shape" fill="#CAD9FC"/><path d="M26,26 C25.9939672,27.6543489 24.6543489,28.9939672 23,29 C22.4730984,29.0042078 21.9548444,28.8660068 21.5,28.6 C21.7753372,28.4424664 22.0221321,28.2396213 22.23,28 C22.7270501,27.452655 23.0016714,26.7393528 23,26 C23,24.3431458 21.6568542,23 20,23 C19.7399347,22.9974108 19.4807768,23.0310677 19.23,23.1 C19.15,23.12 19.08,23.15 19,23.17 C18.98,23.18 18.95,23.19 18.93,23.2 C18.9214916,23.1324585 18.9081236,23.0656185 18.89,23 C18.5256303,21.2257564 17.2340859,19.7851877 15.51,19.23 C15.991787,19.076754 16.4944287,18.999165 17,19 C19.3741105,18.9999951 21.4193656,20.6730054 21.89,23 C21.9081236,23.0656185 21.9214916,23.1324585 21.93,23.2 C21.95,23.19 21.98,23.18 22,23.17 C22.08,23.15 22.15,23.12 22.23,23.1 C22.4807768,23.0310677 22.7399347,22.9974108 23,23 C24.6568542,23 26,24.3431458 26,26 Z" id="Shape" fill="#E8EDFC"/><path d="M35.49,21.3 C35.6226511,21.2396412 35.7597159,21.1894955 35.9,21.15 C35.8376678,21.2293366 35.780867,21.3128671 35.73,21.4 C35.6518317,21.3624302 35.5717183,21.3290496 35.49,21.3 Z" id="Shape" fill="#CAD9FC"/><path d="M52,26 C51.9939672,27.6543489 50.6543489,28.9939672 49,29 C48.4730984,29.0042078 47.9548444,28.8660068 47.5,28.6 C47.7753372,28.4424664 48.0221321,28.2396213 48.23,28 C48.7270501,27.452655 49.0016714,26.7393528 49,26 C49,24.3431458 47.6568542,23 46,23 C45.6339241,22.9987231 45.2708986,23.0665783 44.93,23.2 C44.6337981,21.3313161 43.2988959,19.7946265 41.49,19.24 C41.9767911,19.0778363 42.486919,18.9967564 43,19 C45.4515907,18.9998157 47.5406326,20.7795269 47.93,23.2 C48.2708986,23.0665783 48.6339241,22.9987231 49,23 C50.6568542,23 52,24.3431458 52,26 Z" id="Shape" fill="#E8EDFC"/><path d="M23,26 C23.0016714,26.7393528 22.7270501,27.452655 22.23,28 C22.0221321,28.2396213 21.7753372,28.4424664 21.5,28.6 C21.2246628,28.4424664 20.9778679,28.2396213 20.77,28 C20.659069,27.8787865 20.5587036,27.7483115 20.47,27.61 C20.3238025,27.7481897 20.1702453,27.8783795 20.01,28 C19.6142031,28.3028607 19.1717525,28.5392847 18.7,28.7 C18.1561894,28.9021709 17.5801624,29.0038227 17,29 C16.6640549,29.0024107 16.3288153,28.9688868 16,28.9 L16,33 C15.9967052,34.1032019 15.1032019,34.9967052 14,35 C13.4232639,34.9999241 12.8753454,34.7478816 12.5,34.31 C12.17457,33.9517206 11.9960496,33.4839972 12,33 L12,28.87 C11.6741418,28.9586687 11.337698,29.0024064 11,29 C9.09320516,28.9905852 7.45815806,27.6365275 7.09355377,25.7648921 C6.72894948,23.8932568 7.73617003,22.0244716 9.5,21.3 C9.57916508,21.327264 9.65606794,21.3607 9.73,21.4 C9.77990272,21.3154174 9.83676609,21.2351397 9.9,21.16 C10.256382,21.050973 10.6273257,20.9970175 11,21 C11.5999112,20.9971198 12.1922404,21.1340746 12.73,21.4 C13.3639366,20.3644419 14.351518,19.5935599 15.51,19.23 C17.2340859,19.7851877 18.5256303,21.2257564 18.89,23 C18.9081236,23.0656185 18.9214916,23.1324585 18.93,23.2 C18.95,23.19 18.98,23.18 19,23.17 C19.08,23.15 19.15,23.12 19.23,23.1 C19.4807768,23.0310677 19.7399347,22.9974108 20,23 C21.6568542,23 23,24.3431458 23,26 Z" id="Shape" fill="#FFFFFF"/><path d="M21.5,28.6 C21.0451556,28.8660068 20.5269016,29.0042078 20,29 C19.5489338,29.0051885 19.1031791,28.902322 18.7,28.7 C19.1717525,28.5392847 19.6142031,28.3028607 20.01,28 C20.1702453,27.8783795 20.3238025,27.7481897 20.47,27.61 C20.5587036,27.7483115 20.659069,27.8787865 20.77,28 C20.9778679,28.2396213 21.2246628,28.4424664 21.5,28.6 Z" id="Shape" fill="#CAD9FC"/><path d="M49,26 C49.0016714,26.7393528 48.7270501,27.452655 48.23,28 C48.0221321,28.2396213 47.7753372,28.4424664 47.5,28.6 C47.2246628,28.4424664 46.9778679,28.2396213 46.77,28 C46.659069,27.8787865 46.5587036,27.7483115 46.47,27.61 C46.3238025,27.7481897 46.1702453,27.8783795 46.01,28 C45.6142031,28.3028607 45.1717525,28.5392847 44.7,28.7 C44.1561894,28.9021709 43.5801624,29.0038227 43,29 C42.6640549,29.0024107 42.3288153,28.9688868 42,28.9 L42,33 C41.9967052,34.1032019 41.1032019,34.9967052 40,35 C39.4232639,34.9999241 38.8753454,34.7478816 38.5,34.31 C38.17457,33.9517206 37.9960496,33.4839972 38,33 L38,28.87 C37.6741418,28.9586687 37.337698,29.0024064 37,29 C35.5700967,29.0022588 34.248079,28.2399314 33.5337616,27.0012308 C32.8194443,25.7625302 32.8218236,24.2364672 33.54,23 C33.9776509,22.2279767 34.6655142,21.6283009 35.49,21.3 C35.5717183,21.3290496 35.6518317,21.3624302 35.73,21.4 C35.780867,21.3128671 35.8376678,21.2293366 35.9,21.15 C36.2579118,21.0491124 36.6281435,20.9986263 37,21 C37.6001301,20.9951444 38.1929108,21.1322035 38.73,21.4 C39.3566339,20.3682477 40.3378888,19.600309 41.49,19.24 C43.2988959,19.7946265 44.6337981,21.3313161 44.93,23.2 C45.2708986,23.0665783 45.6339241,22.9987231 46,23 C47.6568542,23 49,24.3431458 49,26 Z" id="Shape" fill="#FFFFFF"/><path d="M47.5,28.6 C47.0451556,28.8660068 46.5269016,29.0042078 46,29 C45.5489338,29.0051885 45.1031791,28.902322 44.7,28.7 C45.1717525,28.5392847 45.6142031,28.3028607 46.01,28 C46.1702453,27.8783795 46.3238025,27.7481897 46.47,27.61 C46.5587036,27.7483115 46.659069,27.8787865 46.77,28 C46.9778679,28.2396213 47.2246628,28.4424664 47.5,28.6 Z" id="Shape" fill="#CAD9FC"/><path d="M34,3 L34,4 C34,4.55228475 33.5522847,5 33,5 L27,5 C26.4477153,5 26,4.55228475 26,4 L26,3 C26.0032948,1.89679813 26.8967981,1.0032948 28,1 L32,1 C33.1032019,1.0032948 33.9967052,1.89679813 34,3 Z" id="Shape" fill="#CAD9FC"/><path d="M32,3 L32,4 C32,4.55228475 31.5522847,5 31,5 L27,5 C26.4477153,5 26,4.55228475 26,4 L26,3 C26.0032948,1.89679813 26.8967981,1.0032948 28,1 L30,1 C31.1032019,1.0032948 31.9967052,1.89679813 32,3 Z" id="Shape" fill="#E8EDFC"/><circle id="Oval" fill="#CAD9FC" cx="19" cy="42" r="2"/><circle id="Oval" fill="#CAD9FC" cx="45" cy="42" r="2"/><path d="M12.911,21.158 C13.2639464,21.0506782 13.6311065,20.997408 14,21 C14.5999112,20.9971198 15.1922404,21.1340746 15.73,21.4 C16.3594398,20.3729975 17.3373034,19.606679 18.485,19.241 C17.5193568,18.9233864 16.4779655,18.9195359 15.51,19.23 C14.4535479,19.5661125 13.5391073,20.2444663 12.911,21.158 Z" id="Shape" fill="#FFFFFF"/><path d="M26.32,15 C24.4584902,15.9679931 23.0523032,17.6291974 22.405,19.625 C22.0076853,20.7617608 21.8693161,21.9729178 22,23.17 C22.02,23.24 24.92,23.13 24.93,23.2 C24.95,23.19 24.98,23.18 25,23.17 L25,22.1 C24.99761,19.1113139 26.6646147,16.3715608 29.32,15 L29.93,6 L30,5 C29.4477153,5 29,4.55228475 29,4 L29,3 C29.0032948,1.89679813 29.8967981,1.0032948 31,1 L28,1 C26.8967981,1.0032948 26.0032948,1.89679813 26,3 L26,4 C26,4.55228475 26.4477153,5 27,5 L26.93,6 L26.32,15 Z" id="Shape" fill="#FFFFFF"/><path d="M11.53,55.72 C11.51,55.7 11.48,55.7 11.46,55.69 C6.82,53.92 4,51.57 4,49 C4,46.291 7.126,43.844 12.2,42.034 L10.757,27.334 C10.0363963,26.3446105 9.81192109,25.0783543 10.1485135,23.9015507 C10.4851059,22.724747 11.3452087,21.7687047 12.48,21.31 C12.011985,21.1099259 11.5089665,21.0045639 11,21 C10.6273257,20.9970175 10.256382,21.050973 9.9,21.16 C9.7618631,21.1916042 9.62769539,21.2385629 9.5,21.3 C8.3607916,21.755489 7.49566974,22.7114012 7.15575173,23.8902658 C6.81583371,25.0691304 7.03919466,26.3388997 7.761,27.331 L9.2,42.034 C4.126,43.844 1,46.291 1,49 C1,51.57 3.82,53.92 8.46,55.69 C8.48,55.7 8.51,55.7 8.53,55.72 C13.84,57.74 21.49,59 30,59 C30.613,59 31.22,58.991 31.824,58.978 C23.791,58.867 16.592,57.646 11.53,55.72 Z" id="Shape" fill="#FFFFFF"/><path d="M2,49 C2.05477537,49.8489934 2.41287641,50.6500183 3.009,51.257 C3.68189449,51.9755266 4.45686282,52.591121 5.309,53.084 C7.11751677,54.1246185 9.04515579,54.9428829 11.05,55.521 C17.2166174,57.24439 23.5975801,58.0791344 30,58 L30,60 C23.3983284,60.0801255 16.8191049,59.216051 10.462,57.434 C8.29878669,56.8077729 6.21958173,55.9212902 4.27,54.794 C3.24550378,54.1970562 2.31535469,53.4512518 1.51,52.581 C1.08425172,52.1021282 0.727778839,51.5659042 0.451,50.988 C0.167781292,50.3626487 0.0143545239,49.6863462 0,49 L2,49 Z" id="Shape" fill="#FFFFFF"/><path d="M3.549,53.1 C3.86776187,52.6866516 3.83187228,52.1013095 3.465,51.73 C2.6277071,51.0554509 2.09921836,50.0706221 2,49 L0,49 C0.00929530722,49.8411962 0.236336029,50.66564 0.659,51.393 C1.04920112,52.0581243 1.53468319,52.6625344 2.1,53.187 C2.29666329,53.3823248 2.56729608,53.484503 2.84397688,53.4678907 C3.12065768,53.4512784 3.37712045,53.3174526 3.549,53.1 Z" id="Shape" fill="#428DFF"/><path d="M30,60 L30,58 C23.5969112,58.0793249 17.2152615,57.2445787 11.048,55.521 C10.734,55.432 10.43,55.321 10.12,55.221 C9.60227325,55.055961 9.04640643,55.3279435 8.859,55.838 C8.76758123,56.090435 8.78260759,56.3691744 8.90063436,56.6103185 C9.01866113,56.8514627 9.22956597,57.0343303 9.485,57.117 C9.81,57.217 10.134,57.337 10.462,57.431 C16.8189581,59.2140643 23.3981843,60.0791494 30,60 Z" id="Shape" fill="#428DFF"/><path d="M6.55,53.769 C6.3202389,53.6596088 6.05825329,53.6386072 5.814,53.71 L5.639,53.786 C5.57922905,53.8173915 5.52376904,53.8563816 5.474,53.902 C5.42119115,53.9378153 5.37400748,53.9812917 5.334,54.031 C5.29197595,54.0832129 5.25323473,54.1379849 5.218,54.195 C5.08982183,54.4273422 5.0592441,54.7011028 5.133,54.956 C5.17709606,55.0835874 5.24495872,55.2016684 5.333,55.304 C5.60808224,55.6173583 6.04156096,55.7399228 6.44,55.617 C6.56406701,55.5688647 6.6772785,55.4964501 6.773,55.404 C6.87003251,55.3158924 6.94826417,55.2090892 7.003,55.09 C7.10612677,54.8484255 7.11785606,54.5775856 7.036,54.328 C6.95046442,54.0869444 6.77682196,53.8872199 6.55,53.769 Z" id="Shape" fill="#428DFF"/><path d="M1,50 C0.44771525,50 6.76353751e-17,49.5522847 0,49 C0,45.834 3.168,43.063 9.163,40.985 C9.50134705,40.8653455 9.87786818,40.9361748 10.1496083,41.1705958 C10.4213485,41.4050167 10.5466333,41.7670784 10.4778955,42.1193156 C10.4091577,42.4715528 10.156939,42.759946 9.817,42.875 C4.85,44.6 2,46.83 2,49 C2,49.5522847 1.55228475,50 1,50 Z" id="Shape" fill="#428DFF"/><path d="M30,60 C29.4477153,60 29,59.5522847 29,59 C29,58.4477153 29.4477153,58 30,58 C43.243,58 58,54.3 58,49 C58,46.83 55.15,44.6 50.183,42.875 C49.843061,42.759946 49.5908423,42.4715528 49.5221045,42.1193156 C49.4533667,41.7670784 49.5786515,41.4050167 49.8503917,41.1705958 C50.1221318,40.9361748 50.4986529,40.8653455 50.837,40.985 C56.832,43.063 60,45.834 60,49 C60,55.885 44.747,60 30,60 Z" id="Shape" fill="#428DFF"/><path d="M30,56 C14.067,56 5.3,51.739 4.144,49.458 C3.96993162,49.1376427 3.98401072,48.7479382 4.18074262,48.440977 C4.37747452,48.1340158 4.72567702,47.9584515 5.08945675,47.9828018 C5.45323647,48.0071521 5.77493397,48.2275574 5.929,48.558 C6.512,49.708 14.014,54 30,54 C45.986,54 53.488,49.708 54.071,48.555 C54.3289672,48.0802343 54.9174152,47.8962491 55.3998817,48.1395096 C55.8823482,48.38277 56.084324,48.9652881 55.856,49.455 C54.7,51.739 45.933,56 30,56 Z" id="Shape" fill="#428DFF"/><path d="M21.95,53 L12.05,53 C10.7317477,53.03311 9.6023419,52.0631345 9.436,50.755 L7.006,28.106 C6.97593809,27.823995 7.06703134,27.5424885 7.25660402,27.3315555 C7.4461767,27.1206225 7.71639726,27.0001038 8,27 L8.36,27 C8.76112605,26.99999 9.12344021,27.2396716 9.28034614,27.6088364 C9.43725207,27.9780011 9.35838148,28.4051993 9.08,28.694 L11.424,50.543 C11.4930844,50.827753 11.757737,51.0209578 12.05,51 L21.95,51 C22.241665,51.0211502 22.5060951,50.8289526 22.576,50.545 L24.894,28.945 C24.4309066,28.7847854 24.152131,28.3126024 24.2355476,27.8297298 C24.3189641,27.3468572 24.7399953,26.9955663 25.23,27 L26,27 C26.2836027,27.0001038 26.5538233,27.1206225 26.743396,27.3315555 C26.9329687,27.5424885 27.0240619,27.823995 26.994,28.106 L24.564,50.756 C24.3971891,52.0637361 23.2679149,53.0331667 21.95,53 Z" id="Shape" fill="#428DFF"/><path d="M47.95,53 L38.05,53 C36.7317477,53.03311 35.6023419,52.0631345 35.436,50.755 L33.006,28.106 C32.9759381,27.823995 33.0670313,27.5424885 33.256604,27.3315555 C33.4461767,27.1206225 33.7163973,27.0001038 34,27 L34.36,27 C34.7611261,26.99999 35.1234402,27.2396716 35.2803461,27.6088364 C35.4372521,27.9780011 35.3583815,28.4051993 35.08,28.694 L37.424,50.543 C37.4930844,50.827753 37.757737,51.0209578 38.05,51 L47.95,51 C48.241665,51.0211502 48.5060951,50.8289526 48.576,50.545 L50.894,28.945 C50.4309066,28.7847854 50.152131,28.3126024 50.2355476,27.8297298 C50.3189641,27.3468572 50.7399953,26.9955663 51.23,27 L52,27 C52.2836027,27.0001038 52.5538233,27.1206225 52.743396,27.3315555 C52.9329687,27.5424885 53.0240619,27.823995 52.994,28.106 L50.564,50.756 C50.3971891,52.0637361 49.2679149,53.0331667 47.95,53 Z" id="Shape" fill="#428DFF"/><path d="M22,23.1 C21.4477153,23.1 21,22.6522847 21,22.1 C20.9925451,18.7362687 22.8692903,15.6516101 25.86,14.112 C26.3504289,13.857949 26.953949,14.0495712 27.208,14.54 C27.462051,15.0304289 27.2704288,15.633949 26.78,15.888 C24.4541053,17.0852511 22.9944336,19.4840555 23,22.1 C23,22.3652165 22.8946432,22.6195704 22.7071068,22.8071068 C22.5195704,22.9946432 22.2652165,23.1 22,23.1 Z" id="Shape" fill="#428DFF"/><path d="M37.939,22.11 C37.4344787,22.109228 37.0095511,21.7327532 36.948,21.232 C36.6607844,18.9450633 35.2661728,16.9460826 33.219,15.887 C32.8920005,15.7279682 32.6770968,15.4039687 32.6577702,15.0408623 C32.6384437,14.6777559 32.8177404,14.3327749 33.1260111,14.1399304 C33.4342817,13.9470859 33.8229369,13.9367738 34.141,14.113 C36.7726418,15.4756394 38.5648127,18.0464621 38.933,20.987 C38.9657827,21.2503883 38.8925098,21.5160046 38.7293237,21.725333 C38.5661376,21.9346614 38.3264267,22.0705276 38.063,22.103 C38.021,22.107 37.98,22.11 37.939,22.11 Z" id="Shape" fill="#428DFF"/><path d="M33.679,16 C33.1522166,16.0012192 32.71482,15.5935656 32.679,15.068 L32.065,6 L27.935,6 L27.318,15.068 C27.3024105,15.33343 27.1808136,15.581462 26.9805383,15.7563503 C26.7802629,15.9312386 26.5181105,16.0183118 26.253,15.998 C25.9881042,15.9803 25.7411189,15.8579905 25.5664808,15.6580289 C25.3918427,15.4580674 25.3038872,15.1968679 25.322,14.932 L26.002,4.932 C26.0377689,4.40720428 26.4739868,3.99983448 27,4 L33,4 C33.5267834,3.99878076 33.96418,4.40643445 34,4.932 L34.68,14.932 C34.6986552,15.1975248 34.6106804,15.4595304 34.4355596,15.6599903 C34.2604388,15.8604501 34.0126244,15.9828205 33.747,16 C33.725,16 33.7,16 33.679,16 Z" id="Shape" fill="#428DFF"/><path d="M33,6 L27,6 C25.8954305,6 25,5.1045695 25,4 L25,3 C25,1.34314575 26.3431458,3.04359188e-16 28,0 L32,0 C33.6568542,1.01453063e-16 35,1.34314575 35,3 L35,4 C35,5.1045695 34.1045695,6 33,6 Z M28,2 C27.4477153,2 27,2.44771525 27,3 L27,4 L33,4 L33,3 C33,2.44771525 32.5522847,2 32,2 L28,2 Z" id="Shape" fill="#428DFF"/><path d="M33.48,24 L23.75,24 C23.1977153,24 22.75,23.5522847 22.75,23 C22.75,22.4477153 23.1977153,22 23.75,22 L33.48,22 C34.0322847,22 34.48,22.4477153 34.48,23 C34.48,23.5522847 34.0322847,24 33.48,24 Z" id="Shape" fill="#428DFF"/><path d="M22,24.135 C21.7384477,24.143096 21.4847195,24.0451735 21.2964196,23.8634642 C21.1081197,23.6817548 21.0012236,23.4316747 21,23.17 C20.9947701,22.6037736 21.4347138,22.1330338 22,22.1 L22.23,22.1 C22.7822847,22.0930964 23.2355964,22.5352153 23.2425,23.0875 C23.2494036,23.6397847 22.8072847,24.0930964 22.255,24.1 C22.17202,24.1233664 22.0862071,24.1351446 22,24.135 Z" id="Shape" fill="#428DFF"/><path d="M35.82,46 L24.18,46 C23.6277153,46 23.18,45.5522847 23.18,45 C23.18,44.4477153 23.6277153,44 24.18,44 L35.82,44 C36.3722847,44 36.82,44.4477153 36.82,45 C36.82,45.5522847 36.3722847,46 35.82,46 Z" id="Shape" fill="#428DFF"/><path d="M27,21.1 C26.4477153,21.1 26,20.6522847 26,20.1 C25.9765263,19.2973844 26.2850527,18.5206079 26.8528303,17.9528303 C27.4206079,17.3850527 28.1973844,17.0765263 29,17.1 C29.5522847,17.0972386 30.0022386,17.5427153 30.005,18.095 C30.0077614,18.6472847 29.5622847,19.0972386 29.01,19.1 C28.7360883,19.0711563 28.4636993,19.1668224 28.267977,19.3606068 C28.0722548,19.5543912 27.9738832,19.8258149 28,20.1 C28,20.6522847 27.5522847,21.1 27,21.1 Z" id="Shape" fill="#428DFF"/><path d="M34.32,32 L25.68,32 C25.1277153,32 24.68,31.5522847 24.68,31 C24.68,30.4477153 25.1277153,30 25.68,30 L34.32,30 C34.8722847,30 35.32,30.4477153 35.32,31 C35.32,31.5522847 34.8722847,32 34.32,32 Z" id="Shape" fill="#428DFF"/><path d="M14,36 C12.3431458,36 11,34.6568542 11,33 L11,30 C9.04791293,30.0000965 7.27427024,28.86412 6.45793977,27.0909171 C5.64160931,25.3177143 5.93188301,23.2315714 7.20129166,21.748586 C8.47070031,20.2656006 10.4870922,19.6569837 12.365,20.19 C13.7407954,18.5142951 15.9136056,17.7111753 18.0485214,18.0892419 C20.1834372,18.4673086 21.948317,19.9677436 22.665,22.014 C22.777,22.005 22.891,22 23.005,22 C24.7855893,22.0018166 26.3505967,23.1803948 26.8441713,24.8912091 C27.337746,26.6020235 26.6410361,28.4331133 25.1350492,29.3831161 C23.6290624,30.3331189 21.6764373,30.173276 20.345,28.991 C19.3547816,29.6517129 18.1904055,30.0029402 17,30 L17,33 C17,34.6568542 15.6568542,36 14,36 Z M12,27.87 C12.5522847,27.87 13,28.3177153 13,28.87 L13,33 C13,33.5522847 13.4477153,34 14,34 C14.5522847,34 15,33.5522847 15,33 L15,28.9 C15.0000158,28.5973946 15.1370562,28.3110717 15.3727245,28.1212547 C15.6083929,27.9314378 15.9173387,27.858545 16.213,27.923 C16.4718719,27.9764277 16.7356817,28.0022388 17,28 C18.0351305,28.0024256 19.0308953,27.6034745 19.778,26.887 C19.9958278,26.6806741 20.2940449,26.5817569 20.592,26.617 C20.8896356,26.6538427 21.1550218,26.8223244 21.315,27.076 C21.6796663,27.6540477 22.3165457,28.003292 23,28 C24.1045695,28 25,27.1045695 25,26 C25,24.8954305 24.1045695,24 23,24 C22.7605876,23.9991487 22.5231428,24.0432456 22.3,24.13 C22.0180672,24.2414274 21.7008079,24.2189456 21.4374056,24.0688743 C21.1740032,23.918803 20.9928981,23.6573458 20.945,23.358 C20.6779612,21.7058816 19.4094622,20.3953121 17.7669326,20.0745299 C16.1244029,19.7537478 14.4560179,20.4907508 13.587,21.921 C13.3161906,22.3639417 12.7514589,22.5259763 12.287,22.294 C11.8863078,22.0983589 11.4458976,21.9977523 11,22 C9.34314575,22 8,23.3431458 8,25 C8,26.6568542 9.34314575,28 11,28 C11.2461191,28.0026483 11.4914284,27.9713537 11.729,27.907 C11.8172277,27.8823869 11.9084035,27.8699385 12,27.87 Z" id="Shape" fill="#428DFF"/><path d="M40,36 C38.3431458,36 37,34.6568542 37,33 L37,30 C35.0479129,30.0000965 33.2742702,28.86412 32.4579398,27.0909171 C31.6416093,25.3177143 31.931883,23.2315714 33.2012917,21.748586 C34.4707003,20.2656006 36.4870922,19.6569837 38.365,20.19 C39.7411955,18.5169485 41.9123937,17.7156624 44.0455095,18.0935937 C46.1786254,18.4715251 47.9423709,19.9699785 48.66,22.014 C48.772,22.005 48.886,22 49,22 C50.7805893,22.0018166 52.3455967,23.1803948 52.8391713,24.8912091 C53.332746,26.6020235 52.6360361,28.4331133 51.1300492,29.3831161 C49.6240624,30.3331189 47.6714373,30.173276 46.34,28.991 C45.3511975,29.6507637 44.1887029,30.0019485 43,30 L43,33 C43,34.6568542 41.6568542,36 40,36 Z M38,27.87 C38.5522847,27.87 39,28.3177153 39,28.87 L39,33 C39,33.5522847 39.4477153,34 40,34 C40.5522847,34 41,33.5522847 41,33 L41,28.9 C41.0000158,28.5973946 41.1370562,28.3110717 41.3727245,28.1212547 C41.6083929,27.9314378 41.9173387,27.858545 42.213,27.923 C42.4718719,27.9764277 42.7356817,28.0022388 43,28 C44.0351305,28.0024256 45.0308953,27.6034745 45.778,26.887 C45.9957546,26.6805518 46.2940305,26.5816151 46.592,26.617 C46.8896356,26.6538427 47.1550218,26.8223244 47.315,27.076 C47.6796663,27.6540477 48.3165457,28.003292 49,28 C50.1045695,28 51,27.1045695 51,26 C51,24.8954305 50.1045695,24 49,24 C48.7605876,23.9991487 48.5231428,24.0432456 48.3,24.13 C48.0180672,24.2414274 47.7008079,24.2189456 47.4374056,24.0688743 C47.1740032,23.918803 46.9928981,23.6573458 46.945,23.358 C46.6779612,21.7058816 45.4094622,20.3953121 43.7669326,20.0745299 C42.1244029,19.7537478 40.4560179,20.4907508 39.587,21.921 C39.3161906,22.3639417 38.7514589,22.5259763 38.287,22.294 C37.8863078,22.0983589 37.4458976,21.9977523 37,22 C35.3431458,22 34.0000001,23.3431458 34.0000001,25 C34.0000001,26.6568542 35.3431458,28 37,28 C37.2461191,28.0026483 37.4914284,27.9713537 37.729,27.907 C37.8172277,27.8823869 37.9084035,27.8699385 38,27.87 Z" id="Shape" fill="#428DFF"/><path d="M19,45 C17.3431458,45 16,43.6568542 16,42 C16,40.3431458 17.3431458,39 19,39 C20.6568542,39 22,40.3431458 22,42 C22,43.6568542 20.6568542,45 19,45 Z M19,41 C18.4477153,41 18,41.4477153 18,42 C18,42.5522847 18.4477153,43 19,43 C19.5522847,43 20,42.5522847 20,42 C20,41.4477153 19.5522847,41 19,41 Z" id="Shape" fill="#428DFF"/><path d="M45,45 C43.3431458,45 42,43.6568542 42,42 C42,40.3431458 43.3431458,39 45,39 C46.6568542,39 48,40.3431458 48,42 C48,43.6568542 46.6568542,45 45,45 Z M45,41 C44.4477153,41 44,41.4477153 44,42 C44,42.5522847 44.4477153,43 45,43 C45.5522847,43 46,42.5522847 46,42 C46,41.4477153 45.5522847,41 45,41 Z" id="Shape" fill="#428DFF"/><circle id="Oval" fill="#428DFF" cx="15" cy="47" r="1"/><circle id="Oval" fill="#428DFF" cx="21" cy="34" r="1"/><circle id="Oval" fill="#428DFF" cx="14" cy="39" r="1"/><circle id="Oval" fill="#428DFF" cx="41" cy="47" r="1"/><circle id="Oval" fill="#428DFF" cx="47" cy="34" r="1"/><circle id="Oval" fill="#428DFF" cx="40" cy="39" r="1"/></g></g></svg>
