<?xml version="1.0" encoding="UTF-8"?>
<svg xmlns="http://www.w3.org/2000/svg" xmlns:xlink="http://www.w3.org/1999/xlink" width="512" height="512" viewBox="0 0 52 60" version="1.1"><!-- Generator: Sketch 51.3 (57544) - http://www.bohemiancoding.com/sketch --><title>030 - Malt</title><desc>Created with Sketch.</desc><defs/><g id="Page-1" stroke="none" stroke-width="1" fill="none" fill-rule="evenodd"><g id="030---Malt" transform="translate(-1.000000, 0.000000)" fill-rule="nonzero"><path d="M47.16,49.88 C48.5571084,45.6858692 49.4140113,41.3307863 49.71,36.92 C49.87,35.09 49.96,33.17 49.99,31.2 C50,30.8 50,30.4 50,30 C50.0127126,26.0332163 49.7185013,22.071394 49.12,18.15 C48.7718224,15.8416295 48.2537485,13.5621044 47.57,11.33 C47.44,10.91 47.3,10.51 47.16,10.12 C47.24,10.04 47.33,9.96 47.41,9.88 C50.93,6.36 52.83,2.56 51.65,1.39 C51.23,0.97 50.46,0.95 49.49,1.26 C48.1369577,1.75542694 46.8737254,2.46810617 45.75,3.37 C45.4,3.64 45.05,3.92 44.69,4.23 C44.29,4.02 43.87,3.83 43.41,3.64 C39.87,2.15 34.56,1.16 28.55,1.02 C28.04,1.01 27.52,1 27,1 C26.66,1 26.33,1 26,1.01 C20.9836257,0.978712837 15.9965219,1.77610883 11.24,3.37 C10.5808231,3.61970038 9.93644108,3.90683433 9.31,4.23 C9.07,4.02 8.83,3.83 8.59,3.64 C7.56396391,2.79981881 6.43483037,2.09411034 5.23,1.54 C4.04,1.01 3.07,0.89 2.51,1.26 C2.45237222,1.29776261 2.39875968,1.3413228 2.35,1.39 C1.17,2.56 3.07,6.36 6.59,9.88 C6.67,9.96 6.76,10.04 6.84,10.12 C6.7,10.51 6.56,10.91 6.43,11.33 C5.7462515,13.5621044 5.22817761,15.8416295 4.88,18.15 C4.28149868,22.071394 3.98728741,26.0332163 4,30 C4,30.4 4,30.8 4.01,31.2 C4.04,33.17 4.13,35.09 4.29,36.92 C4.58598875,41.3307863 5.44289163,45.6858692 6.84,49.88 C6.76,49.96 6.67,50.04 6.59,50.12 C3.07,53.64 1.17,57.44 2.35,58.61 C2.39875968,58.6586772 2.45237222,58.7022374 2.51,58.74 C3.07,59.11 4.04,58.99 5.23,58.46 C6.43483037,57.9058897 7.56396391,57.2001812 8.59,56.36 C8.83,56.17 9.07,55.98 9.31,55.77 C9.93644108,56.0931657 10.5808231,56.3802996 11.24,56.63 L11.25,56.63 C16.0030537,58.2239817 20.986886,59.0213949 26,58.99 C26.33,59 26.66,59 27,59 C27.52,59 28.04,58.99 28.55,58.98 C34.56,58.84 39.87,57.85 43.41,56.36 C43.87,56.17 44.29,55.98 44.69,55.77 C45.05,56.08 45.4,56.36 45.75,56.63 C46.8737254,57.5318938 48.1369577,58.2445731 49.49,58.74 C50.46,59.05 51.23,59.03 51.65,58.61 C52.83,57.44 50.93,53.64 47.41,50.12 C47.33,50.04 47.24,49.96 47.16,49.88 Z M5.72,37.44 C6.24,37.61 6.79,37.78 7.38,37.93 C7.51,37.96 7.63,38 7.76,38.03 C7.63,38 7.5,37.97 7.38,37.94 L7.38,37.93 C6.79,37.78 6.24,37.62 5.72,37.44 Z" id="Shape" fill="#E4C05C"/><path d="M50,30 C50,30.4 50,30.8 49.99,31.2 C49.96,33.17 49.87,35.09 49.71,36.92 C49.0366891,37.1966293 48.3490363,37.436974 47.65,37.64 L47.71,36.92 C47.87,35.09 47.96,33.17 47.99,31.2 C48,30.8 48,30.4 48,30 C48.0132501,26.2423307 47.7491998,22.4888059 47.21,18.77 C47.9,18.57 48.54,18.37 49.12,18.15 C49.7185013,22.071394 50.0127126,26.0332163 50,30 Z" id="Shape" fill="#7FACFA"/><path d="M7.29,36.92 C7.32,37.26 7.35,37.6 7.38,37.93 C6.79,37.78 6.24,37.61 5.72,37.44 C5.53,37.38 5.35,37.32 5.17,37.26 C4.86,37.15 4.57,37.04 4.29,36.92 C4.13,35.09 4.04,33.17 4.01,31.2 C4,30.8 4,30.4 4,30 C3.98728741,26.0332163 4.28149868,22.071394 4.88,18.15 C5.82046634,18.4937766 6.77847376,18.787521 7.75,19.03 C7.24098461,22.6643388 6.99035591,26.3302013 7,30 C7,30.4 7,30.8 7.01,31.2 C7.04,33.17 7.13,35.09 7.29,36.92 Z" id="Shape" fill="#E8EDFC"/><path d="M48,30 C48,30.4 48,30.8 47.99,31.2 C47.96,33.17 47.87,35.09 47.71,36.92 L47.65,37.64 C42.9,39.08 35.42,40 27,40 C26.51,40 26.02,40 25.54,39.99 C25.08,39.98 24.62,39.98 24.16,39.96 C23.9,39.96 23.65,39.95 23.4,39.94 C22.22,39.91 21.07,39.85 19.96,39.78 C19.5,39.75 19.05,39.72 18.61,39.68 C18.27,39.65 17.95,39.63 17.62,39.6 C16.55,39.5 15.51,39.39 14.51,39.26 C13.47,39.13 12.48,38.98 11.53,38.82 L10.85,38.7 C9.74,38.49 8.71,38.27 7.76,38.03 C7.63,38 7.51,37.96 7.38,37.93 C7.35,37.6 7.32,37.26 7.29,36.92 C7.13,35.09 7.04,33.17 7.01,31.2 C7,30.8 7,30.4 7,30 C6.99035591,26.3302013 7.24098461,22.6643388 7.75,19.03 C14.0675087,20.4374457 20.5283626,21.0986344 27,21 C35.16,21 42.44,20.13 47.21,18.77 C47.7491998,22.4888059 48.0132501,26.2423307 48,30 Z" id="Shape" fill="#CAD9FC"/><path d="M51.65,58.61 C51.23,59.03 50.46,59.05 49.49,58.74 C49.5476278,58.7022374 49.6012403,58.6586772 49.65,58.61 C50.83,57.44 48.93,53.64 45.41,50.12 C45.33,50.04 45.24,49.96 45.16,49.88 C46.4843046,45.9163434 47.3204722,41.8060254 47.65,37.64 C48.3490363,37.436974 49.0366891,37.1966293 49.71,36.92 C49.4140113,41.3307863 48.5571084,45.6858692 47.16,49.88 C47.24,49.96 47.33,50.04 47.41,50.12 C50.93,53.64 52.83,57.44 51.65,58.61 Z" id="Shape" fill="#CAD9FC"/><path d="M9.59,50.12 C6.2,53.51 4.32,57.15 5.23,58.46 C4.04,58.99 3.07,59.11 2.51,58.74 C2.45237222,58.7022374 2.39875968,58.6586772 2.35,58.61 C1.17,57.44 3.07,53.64 6.59,50.12 C6.67,50.04 6.76,49.96 6.84,49.88 C5.44289163,45.6858692 4.58598875,41.3307863 4.29,36.92 C4.57,37.04 4.86,37.15 5.17,37.26 C5.35,37.32 5.53,37.38 5.72,37.44 C6.24,37.62 6.79,37.78 7.38,37.93 L7.38,37.94 C7.71376611,42.0048896 8.53980967,46.014223 9.84,49.88 C9.76,49.96 9.67,50.04 9.59,50.12 Z" id="Shape" fill="#FFFFFF"/><path d="M49.99,57.49 C50.0464817,57.8951356 49.9221698,58.3046336 49.65,58.61 C49.6012403,58.6586772 49.5476278,58.7022374 49.49,58.74 C48.1369577,58.2445731 46.8737254,57.5318938 45.75,56.63 C45.4,56.36 45.05,56.08 44.69,55.77 C44.29,55.98 43.87,56.17 43.41,56.36 C39.87,57.85 34.56,58.84 28.55,58.98 C28.04,58.99 27.52,59 27,59 C26.66,59 26.33,59 26,58.99 C20.986886,59.0213949 16.0030537,58.2239817 11.25,56.63 L11.24,56.63 C10.5808231,56.3802996 9.93644108,56.0931657 9.31,55.77 C9.07,55.98 8.83,56.17 8.59,56.36 C7.56396391,57.2001812 6.43483037,57.9058897 5.23,58.46 C4.32,57.15 6.2,53.51 9.59,50.12 C9.67,50.04 9.76,49.96 9.84,49.88 C8.53980967,46.014223 7.71376611,42.0048896 7.38,37.94 C7.5,37.97 7.63,38 7.76,38.03 C8.28,38.17 8.83,38.3 9.41,38.41 C9.87,38.52 10.36,38.61 10.85,38.7 L11.53,38.82 C12,38.9 12.48,38.98 12.98,39.05 L12.99,39.05 C13.49,39.13 13.99,39.2 14.51,39.26 C15.51,39.39 16.55,39.5 17.62,39.6 C17.95,39.63 18.27,39.65 18.61,39.68 C19.05,39.72 19.5,39.75 19.96,39.78 C21.08,39.85 22.23,39.91 23.4,39.94 C23.65,39.95 23.9,39.96 24.16,39.96 C24.61,39.98 25.08,39.98 25.54,39.99 C26.02,40 26.51,40 27,40 C35.42,40 42.9,39.08 47.65,37.64 C47.3204722,41.8060254 46.4843046,45.9163434 45.16,49.88 C45.24,49.96 45.33,50.04 45.41,50.12 C48.16,52.87 49.92,55.78 49.99,57.49 Z" id="Shape" fill="#E8EDFC"/><path d="M47.57,11.33 C48.2537485,13.5621044 48.7718224,15.8416295 49.12,18.15 C48.54,18.37 47.9,18.57 47.21,18.77 C47.18,18.56 47.15,18.35 47.12,18.15 C46.7718224,15.8416295 46.2537485,13.5621044 45.57,11.33 C45.44,10.91 45.3,10.51 45.16,10.12 C45.24,10.04 45.33,9.96 45.41,9.88 C48.93,6.36 50.83,2.56 49.65,1.39 C49.6012403,1.3413228 49.5476278,1.29776261 49.49,1.26 C50.46,0.95 51.23,0.97 51.65,1.39 C52.83,2.56 50.93,6.36 47.41,9.88 C47.33,9.96 47.24,10.04 47.16,10.12 C47.3,10.51 47.44,10.91 47.57,11.33 Z" id="Shape" fill="#CAD9FC"/><path d="M9.84,10.12 C9.7,10.51 9.56,10.91 9.43,11.33 C8.7462515,13.5621044 8.22817761,15.8416295 7.88,18.15 C7.83,18.44 7.79,18.73 7.75,19.03 C6.77847376,18.787521 5.82046634,18.4937766 4.88,18.15 C5.22817761,15.8416295 5.7462515,13.5621044 6.43,11.33 C6.56,10.91 6.7,10.51 6.84,10.12 C6.76,10.04 6.67,9.96 6.59,9.88 C3.07,6.36 1.17,2.56 2.35,1.39 C2.39875968,1.3413228 2.45237222,1.29776261 2.51,1.26 C3.07,0.89 4.04,1.01 5.23,1.54 C4.32,2.85 6.2,6.49 9.59,9.88 C9.67,9.96 9.76,10.04 9.84,10.12 Z" id="Shape" fill="#FFFFFF"/><path d="M47.12,18.15 C47.15,18.35 47.18,18.56 47.21,18.77 C42.44,20.13 35.16,21 27,21 C20.5283626,21.0986344 14.0675087,20.4374457 7.75,19.03 C7.79,18.73 7.83,18.44 7.88,18.15 C8.22817761,15.8416295 8.7462515,13.5621044 9.43,11.33 C9.56,10.91 9.7,10.51 9.84,10.12 C9.76,10.04 9.67,9.96 9.59,9.88 C6.2,6.49 4.32,2.85 5.23,1.54 C6.43483037,2.09411034 7.56396391,2.79981881 8.59,3.64 C8.83,3.83 9.07,4.02 9.31,4.23 C9.93644108,3.90683433 10.5808231,3.61970038 11.24,3.37 C15.9965219,1.77610883 20.9836257,0.978712837 26,1.01 C26.33,1 26.66,1 27,1 C27.52,1 28.04,1.01 28.55,1.02 C34.56,1.16 39.87,2.15 43.41,3.64 C43.87,3.83 44.29,4.02 44.69,4.23 C45.05,3.92 45.4,3.64 45.75,3.37 C46.8737254,2.46810617 48.1369577,1.75542694 49.49,1.26 C49.5476278,1.29776261 49.6012403,1.3413228 49.65,1.39 C49.9221698,1.69536638 50.0464817,2.10486439 49.99,2.51 C49.92,4.22 48.16,7.13 45.41,9.88 C45.33,9.96 45.24,10.04 45.16,10.12 C45.3,10.51 45.44,10.91 45.57,11.33 C46.2537485,13.5621044 46.7718224,15.8416295 47.12,18.15 Z" id="Shape" fill="#E8EDFC"/><path d="M12.99,39.05 L12.98,39.05 C12.48,38.98 12,38.9 11.53,38.82 C12.48,38.98 13.47,39.13 14.51,39.26 C13.99,39.2 13.49,39.13 12.99,39.05 Z" id="Shape" fill="#FFFFFF"/><path d="M47.238,7.853 C47.001,8.146 46.748,8.441 46.485,8.737 C46.747,8.441 47,8.146 47.238,7.853 Z" id="Shape" fill="#FFFFFF"/><path d="M19.96,39.78 C21.07,39.85 22.22,39.91 23.4,39.94 C22.23,39.91 21.08,39.85 19.96,39.78 Z" id="Shape" fill="#FFFFFF"/><path d="M49.931,1.894 C49.9850965,2.09354377 50.0050446,2.30080154 49.99,2.507 C50.0034972,2.30082232 49.9835735,2.09381851 49.931,1.894 Z" id="Shape" fill="#FFFFFF"/><path d="M46.485,8.737 C46.4183333,8.81166667 46.3516667,8.88666667 46.285,8.962 C46.3516667,8.88733333 46.4183333,8.81233333 46.485,8.737 Z" id="Shape" fill="#FFFFFF"/><path d="M47.238,7.853 C47.286,7.793 47.33,7.735 47.377,7.675 C47.33,7.735 47.286,7.794 47.238,7.853 Z" id="Shape" fill="#FFFFFF"/><path d="M9.393,38.406 L9.41,38.406 C9.87,38.516 10.36,38.606 10.85,38.696 C10.346,38.6 9.864,38.506 9.393,38.406 Z" id="Shape" fill="#FFFFFF"/><path d="M9.393,38.406 C8.82,38.297 8.275,38.169 7.76,38.03 C8.279,38.161 8.827,38.285 9.393,38.406 Z" id="Shape" fill="#FFFFFF"/><path d="M49.653,3.929 C49.8382949,3.47815055 49.9516747,3.00101055 49.989,2.515 C49.9513973,3.00096717 49.8380276,3.4780645 49.653,3.929 Z" id="Shape" fill="#FFFFFF"/><path d="M49.605,4.054 C49.622,4.011 49.637,3.97 49.653,3.929 C49.637,3.97 49.623,4.011 49.605,4.054 Z" id="Shape" fill="#FFFFFF"/><path d="M49.908,1.832 C49.8574002,1.66667018 49.769078,1.5153584 49.65,1.39 C49.7692255,1.51524753 49.8575693,1.66659619 49.908,1.832 Z" id="Shape" fill="#FFFFFF"/><path d="M49.257,4.82 C49.392,4.555 49.506,4.3 49.605,4.054 C49.507,4.3 49.391,4.55533333 49.257,4.82 Z" id="Shape" fill="#FFFFFF"/><path d="M49.931,1.894 C49.925,1.872 49.915,1.853 49.908,1.832 C49.915,1.853 49.925,1.872 49.931,1.894 Z" id="Shape" fill="#FFFFFF"/><path d="M48.114,6.694 C48.3073333,6.41866667 48.487,6.14833333 48.653,5.883 C48.4843333,6.149 48.3046667,6.41933333 48.114,6.694 Z" id="Shape" fill="#FFFFFF"/><path d="M47.931,6.946 C47.992,6.862 48.055,6.777 48.114,6.694 C48.055,6.777 47.992,6.862 47.931,6.946 Z" id="Shape" fill="#FFFFFF"/><path d="M49.165,4.992 C49.195,4.935 49.229,4.876 49.257,4.82 C49.229,4.876 49.2,4.935 49.165,4.992 Z" id="Shape" fill="#FFFFFF"/><path d="M47.377,7.675 C47.5716667,7.42966667 47.7563333,7.18666667 47.931,6.946 C47.7563333,7.18733333 47.5716667,7.43033333 47.377,7.675 Z" id="Shape" fill="#FFFFFF"/><path d="M48.653,5.883 C48.7,5.807 48.743,5.734 48.788,5.659 C48.743,5.734 48.7,5.808 48.653,5.883 Z" id="Shape" fill="#FFFFFF"/><path d="M48.788,5.659 C48.9213333,5.43233333 49.047,5.21 49.165,4.992 C49.051,5.209 48.924,5.432 48.788,5.659 Z" id="Shape" fill="#FFFFFF"/><path d="M46.281,8.962 C46.002,9.269 45.714,9.576 45.41,9.88 C45.714,9.576 46,9.269 46.281,8.962 Z" id="Shape" fill="#FFFFFF"/><path d="M49.653,56.072 C49.637,56.03 49.622,55.989 49.605,55.946 C49.622,55.989 49.637,56.03 49.653,56.072 Z" id="Shape" fill="#FFFFFF"/><path d="M49.605,55.946 C49.505,55.7 49.392,55.446 49.257,55.18 C49.391,55.4453333 49.507,55.7006667 49.605,55.946 Z" id="Shape" fill="#FFFFFF"/><path d="M49.257,55.18 C49.229,55.124 49.195,55.065 49.165,55.008 C49.2,55.065 49.229,55.124 49.257,55.18 Z" id="Shape" fill="#FFFFFF"/><path d="M49.165,55.008 C49.0496667,54.79 48.924,54.5676667 48.788,54.341 C48.924,54.568 49.051,54.791 49.165,55.008 Z" id="Shape" fill="#FFFFFF"/><path d="M49.931,58.106 C49.925,58.128 49.915,58.147 49.908,58.168 C49.915,58.147 49.925,58.128 49.931,58.106 Z" id="Shape" fill="#FFFFFF"/><polygon id="Shape" fill="#FFFFFF" points="49.99 57.493 49.99 57.49 49.989 57.485"/><path d="M49.99,57.493 C50.0050446,57.6991985 49.9850965,57.9064562 49.931,58.106 C49.9835735,57.9061815 50.0034972,57.6991777 49.99,57.493 Z" id="Shape" fill="#FFFFFF"/><path d="M49.908,58.168 C49.8575693,58.3334038 49.7692255,58.4847525 49.65,58.61 C49.769078,58.4846416 49.8574002,58.3333298 49.908,58.168 Z" id="Shape" fill="#FFFFFF"/><path d="M48.788,54.341 C48.743,54.266 48.7,54.193 48.653,54.117 C48.7,54.192 48.743,54.266 48.788,54.341 Z" id="Shape" fill="#FFFFFF"/><path d="M46.281,51.038 C46.002,50.731 45.714,50.424 45.41,50.12 C45.714,50.424 46,50.731 46.281,51.038 Z" id="Shape" fill="#FFFFFF"/><path d="M47.238,52.147 C47.001,51.854 46.747,51.559 46.485,51.263 C46.748,51.559 47,51.854 47.238,52.147 Z" id="Shape" fill="#FFFFFF"/><path d="M48.114,53.306 C48.055,53.223 47.992,53.138 47.931,53.054 C47.992,53.138 48.055,53.223 48.114,53.306 Z" id="Shape" fill="#FFFFFF"/><path d="M46.485,51.263 C46.4183333,51.1883333 46.3516667,51.1133333 46.285,51.038 C46.3516667,51.1133333 46.4183333,51.1883333 46.485,51.263 Z" id="Shape" fill="#FFFFFF"/><path d="M47.931,53.054 C47.7563333,52.8133333 47.5716667,52.5703333 47.377,52.325 C47.5723333,52.5696667 47.757,52.8126667 47.931,53.054 Z" id="Shape" fill="#FFFFFF"/><path d="M47.377,52.325 C47.33,52.265 47.286,52.207 47.238,52.147 C47.286,52.206 47.33,52.265 47.377,52.325 Z" id="Shape" fill="#FFFFFF"/><path d="M48.653,54.117 C48.487,53.8503333 48.3073333,53.58 48.114,53.306 C48.3046667,53.5813333 48.4843333,53.8516667 48.653,54.117 Z" id="Shape" fill="#FFFFFF"/><path d="M49.989,57.485 C49.9517682,56.9992979 49.838383,56.5224729 49.653,56.072 C49.8381147,56.5225594 49.9514897,56.9993415 49.989,57.485 Z" id="Shape" fill="#FFFFFF"/><polygon id="Shape" fill="#FFFFFF" points="49.99 2.51 49.99 2.507 49.989 2.515"/><path d="M5.9,50.222 C4.50276434,46.0229167 3.63473081,41.6659527 3.316,37.252 C3.197,35.052 3.072,32.867 3.005,30.666 C2.984,28.466 3.054,26.266 3.205,24.072 C3.46603604,19.652736 4.227914,15.2773893 5.476,11.03 L7.384,11.63 C6.18337333,15.7287907 5.45070651,19.9503471 5.2,24.214 C5.049,26.352 4.98,28.504 5,30.644 C5.067,32.784 5.189,34.933 5.3,37.075 C5.60676024,41.3160859 6.43982116,45.502553 7.78,49.538 L5.9,50.222 Z" id="Shape" fill="#FFFFFF"/><path d="M5.481,45.072 C5.22006976,45.1305979 4.99375858,45.291865 4.85319046,45.5193708 C4.71262234,45.7468766 4.66965687,46.0214268 4.734,46.281 C5.05000633,47.6150804 5.43926271,48.9307403 5.9,50.222 L7.78,49.538 C7.34550025,48.317041 6.97828226,47.0731735 6.68,45.812 C6.54541314,45.2822651 6.0148541,44.9548141 5.481,45.072 Z" id="Shape" fill="#428DFF"/><path d="M7.384,11.63 L5.476,11.03 C4.22926851,15.2775466 3.46873298,19.6528904 3.209,24.072 C3.054,26.272 2.984,28.462 3.009,30.666 C3.076,32.866 3.201,35.057 3.32,37.252 L3.415,38.259 C3.44172562,38.5236708 3.57280532,38.7667853 3.77924164,38.9345617 C3.98567797,39.1023382 4.25045545,39.1809476 4.515,39.153 C5.05728911,39.0876334 5.44935312,38.6029803 5.4,38.059 L5.307,37.075 C5.193,34.933 5.071,32.784 5.007,30.644 C4.986,28.504 5.055,26.352 5.207,24.214 C5.45542582,19.9506165 6.18574347,15.7290652 7.384,11.63 Z" id="Shape" fill="#428DFF"/><path d="M3.936,42.285 C3.98185562,42.5494068 4.12711478,42.7862579 4.342,42.947 L4.51,43.041 C4.57063167,43.0684958 4.63445843,43.0883157 4.7,43.1 C4.76058097,43.1185316 4.82365122,43.127638 4.887,43.127 C4.95397109,43.1266313 5.02082206,43.1212832 5.087,43.111 C5.34640671,43.060039 5.57786968,42.9151076 5.737,42.704 C6.0380096,42.2548238 5.93918395,41.6491887 5.511,41.319 C5.40321379,41.2446131 5.28247425,41.1910265 5.155,41.161 C5.02842491,41.1280513 4.89667079,41.1199016 4.767,41.137 C4.50515483,41.1796512 4.26926411,41.3201134 4.107,41.53 C3.95694765,41.7511489 3.89587918,42.0207787 3.936,42.285 Z" id="Shape" fill="#428DFF"/><path d="M27,60 C20,60 13.512,58.868 9.449,56.955 C6.643,59.227 3.259,60.933 1.643,59.317 C1.20542096,58.8615678 0.973109334,58.2470078 1,57.616 C1,55.604 2.912,52.384 5.883,49.416 L6.133,49.176 C6.52537889,48.7970278 7.14908478,48.8024476 7.53481858,49.1881814 C7.92055237,49.5739152 7.92597221,50.1976211 7.547,50.59 L7.297,50.83 C4.473,53.652 3,56.378 3,57.612 C2.98932147,57.7112201 3.00810292,57.8113878 3.054,57.9 C3.264,58.111 5.274,57.9 8.661,55.01 C8.97126381,54.7451052 9.41133299,54.6952412 9.773,54.884 C13.506,56.835 19.946,58 27,58 C34.054,58 40.494,56.835 44.227,54.884 C44.588667,54.6952412 45.0287362,54.7451052 45.339,55.01 C48.727,57.91 50.739,58.11 50.939,57.903 C50.9889819,57.8146591 51.0102968,57.7129767 51,57.612 C51,56.378 49.527,53.652 46.7,50.827 L46.45,50.587 C46.1758517,50.3122848 46.085414,49.9037556 46.218,49.539 C47.5789316,45.4271301 48.4165238,41.1602143 48.711,36.839 C48.863,35.09 48.957,33.19 48.987,31.188 C48.997,30.788 48.997,30.395 48.997,30.003 C49.0072819,26.0885334 48.7170963,22.1790513 48.129,18.309 C47.7882206,16.0494717 47.2815171,13.8181049 46.613,11.633 C46.486,11.225 46.351,10.833 46.213,10.461 C46.0822006,10.0967343 46.1733453,9.68969891 46.447,9.416 L46.697,9.176 C49.527,6.348 51,3.622 51,2.388 C51.0106785,2.28877989 50.9918971,2.18861218 50.946,2.1 C50.737,1.891 48.726,2.1 45.339,4.99 C45.0285361,5.25533367 44.5879222,5.30521449 44.226,5.116 C40.494,3.165 34.055,2 27,2 C19.945,2 13.506,3.165 9.774,5.116 C9.4120778,5.30521449 8.97146391,5.25533367 8.661,4.99 C5.274,2.096 3.261,1.89 3.061,2.097 C3.01101805,2.18534093 2.98970319,2.28702331 3,2.388 C3,3.622 4.473,6.348 7.3,9.173 L7.55,9.413 C7.82365467,9.68669891 7.91479945,10.0937343 7.784,10.458 C7.649,10.834 7.514,11.222 7.384,11.627 C7.27789212,11.9681886 6.99782242,12.2268521 6.64929046,12.3055543 C6.30075849,12.3842565 5.93671454,12.2710407 5.69429046,12.0085543 C5.45186637,11.7460678 5.36789212,11.3741886 5.474,11.033 C5.542,10.813 5.613,10.599 5.685,10.388 C2.828,7.473 1,4.352 1,2.384 C0.973195824,1.75154993 1.20665795,1.13573032 1.646,0.68 C3.263,-0.938 6.646,0.773 9.446,3.045 C13.512,1.131 20,0 27,0 C34,0 40.488,1.131 44.551,3.045 C47.356,0.773 50.741,-0.934 52.357,0.683 C52.794579,1.13843223 53.0268907,1.75299222 53,2.384 C53.005,4.352 51.172,7.473 48.314,10.384 C48.386,10.595 48.457,10.809 48.525,11.029 C49.2234818,13.3105484 49.7525862,15.6405464 50.108,18 C50.7160497,21.9708185 51.0142827,25.9829215 51,30 C51,30.408 51,30.816 50.99,31.225 C50.959,33.266 50.863,35.214 50.706,37.007 C50.4097263,41.2884473 49.6067867,45.5196569 48.314,49.612 C51.172,52.527 53.005,55.648 53,57.612 C53.0256977,58.243082 52.7923164,58.8572433 52.354,59.312 C50.737,60.929 47.354,59.219 44.554,56.947 C40.488,58.868 34.005,60 27,60 Z" id="Shape" fill="#428DFF"/><path d="M27,56 C19.057,56 13.372,54.508 10.7,53.111 C10.2257042,52.8477219 10.0478095,52.2543034 10.2990521,51.7735239 C10.5502948,51.2927443 11.139042,51.0999524 11.626,51.339 C14.088,52.625 19.418,54 27,54 C34.582,54 39.912,52.625 42.373,51.339 C42.6906218,51.1626905 43.0788761,51.1724978 43.3871913,51.3646186 C43.6955066,51.5567393 43.8753828,51.9009517 43.8570609,52.2637643 C43.8387391,52.6265768 43.6251013,52.950917 43.299,53.111 C40.628,54.508 34.943,56 27,56 Z" id="Shape" fill="#428DFF"/><path d="M42.835,8.774 C42.6741533,8.77403708 42.515671,8.7352741 42.373,8.661 C39.912,7.375 34.582,6 27,6 C19.418,6 14.088,7.375 11.627,8.661 C11.1373996,8.91698396 10.532984,8.7276004 10.277,8.23799998 C10.0210161,7.74839957 10.2103996,7.14398399 10.7,6.888 C13.371,5.492 19.056,4 27,4 C34.944,4 40.629,5.492 43.3,6.888 C43.7078987,7.10147239 43.9173442,7.56584809 43.8073591,8.0128996 C43.697374,8.4599511 43.2963822,8.77414495 42.836,8.774 L42.835,8.774 Z" id="Shape" fill="#428DFF"/><path d="M27,22 C17.816,22 9.416,20.911 4.53,19.087 C4.08701764,18.9211569 3.82082183,18.4676227 3.892,18 C4.24719382,15.6407458 4.77664209,13.3110396 5.476,11.03 C5.64168544,10.5031204 6.20312035,10.2103146 6.72999999,10.376 C7.25687963,10.5416854 7.54968541,11.1031204 7.384,11.63 C6.79200897,13.5481154 6.3296332,15.503858 6,17.484 C10.73,19.043 18.649,20 27,20 C35.351,20 43.27,19.043 48,17.484 C47.6713505,15.5039283 47.2099772,13.5481867 46.619,11.63 C46.4533146,11.1031204 46.7461204,10.5416855 47.273,10.3760001 C47.7998796,10.2103146 48.3613146,10.5031204 48.527,11.03 C49.2253434,13.3111179 49.7537886,15.6408229 50.108,18 C50.1817381,18.4693404 49.9150685,18.9257719 49.47,19.092 C44.584,20.911 36.184,22 27,22 Z" id="Shape" fill="#428DFF"/><path d="M27,41 C17.454,41 8.605,39.791 3.907,37.844 C3.56260151,37.7011028 3.32630867,37.3784648 3.294,37.007 C3.137,35.214 3.041,33.266 3.01,31.215 C3.00165053,30.663075 3.44208148,30.2087687 3.994,30.2 L4.01,30.2 C4.55647952,30.1999385 5.00180281,30.638582 5.01,31.185 C5.037,32.954 5.11,34.644 5.235,36.217 C9.838,37.94 18.076,39 27,39 C35.924,39 44.162,37.94 48.765,36.217 C48.888,34.644 48.965,32.954 48.99,31.185 C48.9981972,30.638582 49.4435205,30.1999385 49.99,30.2 L50.006,30.2 C50.5579185,30.2087687 50.9983495,30.663075 50.99,31.215 C50.959,33.266 50.863,35.215 50.706,37.007 C50.6736913,37.3784648 50.4373985,37.7011028 50.093,37.844 C45.4,39.791 36.546,41 27,41 Z" id="Shape" fill="#428DFF"/><path d="M16.6,35.742 L16.547,35.742 C16.2818326,35.7283053 16.0329978,35.6097152 15.855353,35.4123738 C15.6777082,35.2150323 15.5858395,34.955143 15.6,34.69 C15.728,32.23 15.874,29.903 16.039,27.645 C15.339,28.355 14.565,29.116 13.678,29.966 C13.45625,30.1781552 13.1493635,30.2767406 12.845544,30.2334214 C12.5417244,30.1901022 12.2746199,30.0096761 12.121,29.744 C11.668,28.961 11.221,28.175 10.776,27.389 C10.6386667,27.1463333 10.501,26.9033333 10.363,26.66 C10.17,28.168 9.963,29.671 9.763,31.144 L9.431,33.608 C9.35809841,34.1555903 8.85509033,34.5404016 8.3075,34.4675 C7.75990967,34.3945984 7.37509841,33.8915903 7.448,33.344 L7.78,30.875 C8.11,28.442 8.45,25.926 8.734,23.452 C8.78081623,23.0239649 9.09637009,22.6739576 9.51728321,22.5831947 C9.93819634,22.4924317 10.3699487,22.6812949 10.589,23.052 C11.243,24.16 11.877,25.279 12.511,26.397 C12.743,26.807 12.9763333,27.217 13.211,27.627 C14.522,26.349 15.564,25.273 16.511,24.227 C16.7988813,23.909943 17.256696,23.8113931 17.6495348,23.9819173 C18.0423735,24.1524414 18.2830216,24.5541812 18.248,24.981 C17.989,28.105 17.774,31.314 17.593,34.79 C17.5675033,35.3207585 17.1313615,35.7388925 16.6,35.742 Z" id="Shape" fill="#7FACFA"/><path d="M28.027,35.947 C27.488474,35.9473491 27.0463868,35.521177 27.027,34.983 C26.989,33.947 27.008,32.772 27.027,31.635 C27.046,30.414 27.065,29.151 27.013,28.125 C26.947,26.833 26.429,26.325 24.882,26.042 C24.6774588,26.0164931 24.4705412,26.0164931 24.266,26.042 C22.708,26.311 22.166,26.827 22.038,28.164 C21.944,29.147 21.904,30.301 21.861,31.523 C21.819,32.717 21.776,33.954 21.678,35.038 C21.6277421,35.5880756 21.1410756,35.9932579 20.591,35.943 C20.0409244,35.892742 19.6357421,35.4060756 19.686,34.856 C19.78,33.828 19.822,32.62 19.862,31.456 C19.904,30.256 19.947,29.02 20.048,27.975 C20.33,25.03 22.396,24.338 23.926,24.075 C24.3630473,24.0094795 24.8075674,24.0115031 25.244,24.081 C26.789,24.366 28.859,25.081 29.011,28.028 C29.066,29.122 29.047,30.419 29.027,31.673 C29.01,32.783 28.992,33.932 29.027,34.917 C29.036725,35.1820958 28.9407198,35.4401931 28.7601131,35.6344907 C28.5795063,35.8287883 28.329099,35.9433632 28.064,35.953 L28.027,35.947 Z" id="Shape" fill="#7FACFA"/><path d="M24.9,30.989 C24.233,30.989 23.571,30.989 22.917,30.989 L20.933,30.983 C20.3807153,30.983 19.933,30.5352847 19.933,29.983 C19.933,29.4307153 20.3807153,28.983 20.933,28.983 L22.926,28.989 C24.591,28.995 26.317,29.004 28.003,28.963 L28.027,28.963 C28.5792847,28.9560965 29.0325964,29.3982153 29.0394999,29.9505 C29.0464035,30.5027847 28.6042847,30.9560964 28.052,30.963 C27.007,30.982 25.95,30.989 24.9,30.989 Z" id="Shape" fill="#7FACFA"/><path d="M34.873,36 C34.5611317,36.0033297 34.2494017,35.9852874 33.94,35.946 C32.3225046,35.9050655 31.042775,34.5636299 31.078,32.946 C31.03,31.727 31.039,30.398 31.048,29.112 C31.057,27.736 31.066,26.312 31.007,25.012 C30.9950618,24.7470478 31.0888661,24.4882053 31.2677765,24.2924165 C31.446687,24.0966277 31.6960475,23.9799313 31.961,23.968 C32.5079993,23.9549837 32.9682139,24.3750838 33.005,24.921 C33.066,26.277 33.057,27.728 33.048,29.129 C33.039,30.451 33.03,31.698 33.076,32.872 C33.104,33.587 33.266,33.831 34.222,33.966 C34.6851604,34.0080211 35.1508659,34.0143732 35.615,33.985 C36.1194358,33.9585284 36.6250021,33.9622016 37.129,33.996 C37.6775341,34.0487392 38.0800231,34.5353036 38.029,35.084 C38.0076155,35.3492605 37.8798086,35.5945812 37.6746756,35.7641125 C37.4695427,35.9336439 37.2045408,36.0129586 36.94,35.984 C36.5193195,35.9608036 36.0976805,35.9608036 35.677,35.984 C35.412,35.991 35.141,36 34.873,36 Z" id="Shape" fill="#7FACFA"/><path d="M36.982,25.826 C36.4297153,25.8387025 35.9717026,25.4012847 35.959,24.849 C35.9462975,24.2967153 36.3837153,23.8387026 36.936,23.826 C38.279,23.761 39.652,23.638 40.979,23.518 C42.279,23.401 43.616,23.281 44.948,23.212 C45.4987436,23.1886378 45.9666903,23.6107685 46,24.161 C46.027774,24.7120405 45.6040013,25.1814573 45.053,25.21 C43.753,25.277 42.437,25.396 41.159,25.51 C39.812,25.631 38.419,25.757 37.032,25.824 L36.982,25.826 Z" id="Shape" fill="#7FACFA"/><path d="M41.059,35.927 C40.510211,35.9270222 40.0639391,35.4847668 40.059,34.936 C40.048,33.713 40.059,32.493 40.071,31.273 C40.092,29.079 40.113,26.809 39.995,24.588 C39.9654528,24.0357153 40.3892153,23.5640473 40.9415,23.5345 C41.4937847,23.5049528 41.9654528,23.9287153 41.995,24.481 C42.116,26.765 42.095,29.067 42.073,31.292 C42.062,32.5 42.05,33.708 42.061,34.918 C42.063397,35.1833915 41.9601959,35.4388504 41.7741292,35.6281058 C41.5880626,35.8173611 41.3343939,35.9248876 41.069,35.927 L41.059,35.927 Z" id="Shape" fill="#7FACFA"/></g></g></svg>
