<svg height="512" viewBox="0 0 60 60" width="512" xmlns="http://www.w3.org/2000/svg" xmlns:xlink="http://www.w3.org/1999/xlink"><linearGradient id="lg1"><stop offset="0" stop-color="#d3dff2"/><stop offset=".172" stop-color="#d3dff2"/><stop offset=".2" stop-color="#d3dff2"/><stop offset=".2" stop-color="#dae2f2"/><stop offset=".201" stop-color="#ebeaf2"/><stop offset=".201" stop-color="#f6eff2"/><stop offset=".202" stop-color="#fdf2f2"/><stop offset=".205" stop-color="#fff3f2"/><stop offset=".252" stop-color="#fff3f2"/><stop offset=".26" stop-color="#fff3f2"/><stop offset=".26" stop-color="#d3dff2"/><stop offset=".397" stop-color="#d3dff2"/><stop offset=".42" stop-color="#d3dff2"/><stop offset=".42" stop-color="#dae2f2"/><stop offset=".421" stop-color="#ebeaf2"/><stop offset=".421" stop-color="#f6eff2"/><stop offset=".422" stop-color="#fdf2f2"/><stop offset=".425" stop-color="#fff3f2"/><stop offset=".489" stop-color="#fff3f2"/><stop offset=".5" stop-color="#fff3f2"/><stop offset=".5" stop-color="#f8f0f2"/><stop offset=".5" stop-color="#e7e8f2"/><stop offset=".5" stop-color="#dce3f2"/><stop offset=".5" stop-color="#d5e0f2"/><stop offset=".501" stop-color="#d3dff2"/><stop offset=".706" stop-color="#d3dff2"/><stop offset=".74" stop-color="#d3dff2"/><stop offset=".741" stop-color="#fff3f2"/><stop offset=".835" stop-color="#fff3f2"/><stop offset=".85" stop-color="#fff3f2"/><stop offset=".851" stop-color="#d3dff2"/></linearGradient><linearGradient id="linearGradient-1" x1="-15.915%" x2="115.915%" xlink:href="#lg1" y1="23.437%" y2="86.911%"/><linearGradient id="linearGradient-2" x1="-8.166%" x2="108.166%" xlink:href="#lg1" y1="23.126%" y2="88.882%"/><g id="Page-1" fill="none" fill-rule="evenodd"><g id="053---Crushed-Bottle" fill-rule="nonzero"><path id="Shape" d="m27 16v38c0 2.152152-1.3771505 4.0628463-3.4188612 4.7434165s-4.2898476-.0216949-5.5811388-1.7434165c-.9442719 1.2590292-2.4262135 2-4 2s-3.0557281-.7409708-4-2c-1.29129122 1.7217216-3.53942813 2.4239867-5.58113883 1.7434165s-3.41886117-2.5912645-3.41886117-4.7434165v-38c0-3.3137085 2.6862915-6 6-6h2c1.1032019-.0032948 1.9967052-.89679813 2-2v-3h6v3c.0032948 1.10320187.8967981 1.9967052 2 2h2c3.3137085 0 6 2.6862915 6 6z" fill="url(#linearGradient-1)"/><path id="Shape" d="m21 10h-2c-1.1032019-.0032948-1.9967052-.89679813-2-2v-3h-3v3c.0032948 1.10320187.8967981 1.9967052 2 2h2c3.3137085 0 6 2.6862915 6 6v38c-.0058806 2.1858093-1.4350292 4.1128287-3.525 4.753 1.5197451.4973751 3.1859151.2342444 4.4784249-.7072574 1.2925098-.9415017 2.0539253-2.446695 2.0465751-4.0457426v-38c0-3.3137085-2.6862915-6-6-6z" fill="#a4c2f7"/><rect id="Rectangle-path" fill="#e8edfc" height="4" rx="1" width="8" x="10" y="1"/><path id="Shape" d="m17 1h-3c.5522847 0 1 .44771525 1 1v2c0 .55228475-.4477153 1-1 1h3c.5522847 0 1-.44771525 1-1v-2c0-.55228475-.4477153-1-1-1z" fill="#cad9fc"/><path id="Rectangle-path" d="m1 22h26v22h-26z" fill="#e8edfc"/><path id="Rectangle-path" d="m24 22h3v22h-3z" fill="#cad9fc"/><path id="Shape" d="m57 29 1.669 5.006c.2066328.622901.0945193 1.3075409-.3 1.832l-2.369 3.162 2.669 5.338c.213823.427093.2677405.9166072.152 1.38l-.821 3.282 1 3v1.785c.0427187 2.6214543-1.8915264 4.8562567-4.492 5.19-1.7447572.1759852-3.4545362-.5730861-4.508-1.975-.9442719 1.2590292-2.4262135 2-4 2s-3.0557281-.7409708-4-2c-1.0534638 1.4019139-2.7632428 2.1509852-4.508 1.975-2.6004736-.3337433-4.5347187-2.5685457-4.492-5.19v-1.785l1-3-.821-3.282c-.1157405-.4633928-.061823-.952907.152-1.38l2.669-5.338-2.371-3.162c-.3945193-.5244591-.5066328-1.209099-.3-1.832l1.671-5.006-1.414-1.414c-.3750987-.3749855-.5858867-.8836104-.586-1.414v-2.172c0-3.3137085 2.6862915-6 6-6h2c1.1032019-.0032948 1.9967052-.8967981 2-2v-3h6v3c.0032948 1.1032019.8967981 1.9967052 2 2h2c3.3137085 0 6 2.6862915 6 6v2.172c-.0001133.5303896-.2109013 1.0390145-.586 1.414z" fill="url(#linearGradient-2)"/><path id="Shape" d="m59 26.172v-2.172c0-3.3137085-2.6862915-6-6-6h-2c-1.1032019-.0032948-1.9967052-.8967981-2-2v-3h-3v3c.0032948 1.1032019.8967981 1.9967052 2 2h2c3.3137085 0 6 2.6862915 6 6v2.172c-.0001133.5303896-.2109013 1.0390145-.586 1.414l-1.414 1.414 1.669 5.006c.2066328.622901.0945193 1.3075409-.3 1.832l-2.369 3.162 2.669 5.338c.213823.427093.2677405.9166072.152 1.38l-.821 3.282 1 3v1.785c.0192184 2.2401639-1.3920373 4.2431976-3.508 4.979.6505455.2072395 1.3366421.2790483 2.016.211 2.6004736-.3337433 4.5347187-2.5685457 4.492-5.19v-1.785l-1-3 .821-3.282c.1157405-.4633928.061823-.952907-.152-1.38l-2.669-5.338 2.371-3.162c.3945193-.5244591.5066328-1.209099.3-1.832l-1.671-5.006 1.414-1.414c.3750987-.3749855.5858867-.8836104.586-1.414z" fill="#a4c2f7"/><rect id="Rectangle-path" fill="#e8edfc" height="4" rx="1" width="8" x="42" y="9"/><path id="Shape" d="m49 9h-3c.5522847 0 1 .44771525 1 1v2c0 .5522847-.4477153 1-1 1h3c.5522847 0 1-.4477153 1-1v-2c0-.55228475-.4477153-1-1-1z" fill="#cad9fc"/><ellipse id="Oval" cx="14" cy="33" fill="#e8edfc" rx="5" ry="6"/><path id="Shape" d="m1 54c.00372192 1.5977165.76896517 3.0979268 2.06020206 4.0388939 1.29123688.9409672 2.95373118 1.2099298 4.47579794.7241061-2.11498103-.6128103-3.56142576-2.5611747-3.536-4.763v-38c0-3.3137085 2.6862915-6 6-6h2c1.1032019-.0032948 1.9967052-.89679813 2-2v-3c-.5522847 0-1-.44771525-1-1v-2c0-.55228475.4477153-1 1-1h-3c-.5522847 0-1 .44771525-1 1v2c0 .55228475.4477153 1 1 1v3c-.0032948 1.10320187-.8967981 1.9967052-2 2h-2c-3.3137085 0-6 2.6862915-6 6z" fill="#fff"/><path id="Rectangle-path" d="m0 46h2v8h-2z" fill="#fff"/><g fill="#428dff"><path id="Shape" d="m1.02 51c-.55228473.0027614-1.00223852-.4427153-1.00499994-.995-.00276143-.5522847.44271521-1.0022385.99499994-1.005h.01c.55228475 0 1 .4477153 1 1s-.44771525 1-1 1z"/><path id="Shape" d="m6 60c1.47565348-.0042232 2.89863988-.5488712 4-1.531 2.276034 2.0412614 5.723966 2.0412614 8 0 1.7631686 1.5770265 4.2883746 1.9708933 6.4480589 1.0057304 2.1596844-.965163 3.550705-3.1091915 3.5519411-5.4747304v-38c-.0044086-3.8641657-3.1358343-6.99559136-7-7h-2c-.5522847 0-1-.44771525-1-1v-2.278c.6167513-.35441258.997855-1.01067322 1-1.722v-2c0-1.1045695-.8954305-2-2-2h-6c-1.1045695 0-2 .8954305-2 2v2c.002145.71132678.38324874 1.36758742 1 1.722v2.278c0 .55228475-.44771525 1-1 1h-2c-3.86416566.00440864-6.99559136 3.1358343-7 7v30c0 .5522847.44771525 1 1 1s1-.4477153 1-1v-1h24v9c0 1.7217216-1.1017204 3.250277-2.7350889 3.7947332-1.6333686.5444562-3.4318781-.0173559-4.4649111-1.3947332-.1967934-.2391708-.4902738-.3777478-.8-.3777478s-.6032066.138577-.8.3777478c-.7554175 1.0072234-1.9409708 1.6-3.2 1.6s-2.4445825-.5927766-3.2-1.6c-.1967934-.2391708-.4902738-.3777478-.8-.3777478-.30972619 0-.60320661.138577-.8.3777478-1.03303298 1.3773773-2.83154251 1.9391894-4.46491106 1.3947332-1.63336856-.5444562-2.73508894-2.0730116-2.73508894-3.7947332 0-.5522847-.44771525-1-1-1s-1 .4477153-1 1c.00330738 3.3123376 2.68766243 5.9966926 6 6zm13.932-28c-.419-3.386-2.915-6-5.932-6s-5.513 2.614-5.932 6h-6.068v-9h24v9zm-1.932 1c0 2.757-1.794 5-4 5s-4-2.243-4-5 1.794-5 4-5 4 2.243 4 5zm-7-31h6v2h-6zm-4 9h2c1.6568542 0 3-1.34314575 3-3v-2h4v2c0 1.65685425 1.3431458 3 3 3h2c2.7600532.0033061 4.9966939 2.2399468 5 5v5h-24v-5c.00330612-2.7600532 2.23994685-4.9966939 5-5zm-5 32v-9h6.068c.419 3.386 2.915 6 5.932 6s5.513-2.614 5.932-6h6.068v9z"/><path id="Shape" d="m53 17h-2c-.5522847 0-1-.4477153-1-1v-2.278c.6167513-.3544126.997855-1.0106732 1-1.722v-2c0-1.1045695-.8954305-2-2-2h-6c-1.1045695 0-2 .8954305-2 2v2c.002145.7113268.3832487 1.3675874 1 1.722v2.278c0 .5522847-.4477153 1-1 1h-2c-3.8641657.0044086-6.9955914 3.1358343-7 7v2.172c-.0022673.7960678.3142872 1.5599041.879 2.121l.977.978-1.473 4.418c-.1359321.4190617-.1772571.8630499-.121 1.3v.012.018c.013.1.037.194.059.291.0079427.0338093.0176222.0671869.029.1.0909588.3714153.2533081.721587.478 1.031l2 2.667-2.392 4.786c-.1320057.2705307-.2223597.5594612-.268.857l-.009.044c-.060233.3887899-.0435851.7856211.049 1.168l.75 3-.908 2.724c-.033201.1010116-.0500797.206672-.05.313v1.785c-.030259 3.1307338 2.2873087 5.7886526 5.393 6.185 1.6798301.1761686 3.3554786-.3690533 4.61-1.5 2.2752873 2.03722 5.7187127 2.03722 7.994 0 1.0959338.9876423 2.5197036 1.5329158 3.995 1.53.204 0 .409-.0103333.615-.031 3.1053091-.3963036 5.4227489-3.0536461 5.393-6.184v-1.785c.0000777-.1073885-.0171429-.2140884-.051-.316l-.908-2.724.75-3c.0925851-.3823789.109233-.7792101.049-1.168l-.009-.044c-.0456403-.2975388-.1359943-.5864693-.268-.857l-2.392-4.791 2-2.667c.2247755-.3091249.3874472-.65892.479-1.03.014-.032.018-.067.029-.1.022-.1.046-.191.059-.289 0-.006 0-.012 0-.018v-.012c.056324-.4369489.0149975-.8809518-.121-1.3l-1.473-4.418.977-.978c.5634794-.5598757.8799313-1.3216645.879-2.116v-2.172c-.0044086-3.8641657-3.1358343-6.9955914-7-7zm-10-7h6v2h-6zm15 16.172c-.0010349.2649991-.1062805.5189537-.293.707l-1.219 1.221-7.731 1.93c-.4897554.1227443-.8111846.5913178-.7493732 1.0924224s.4874708.8775246.9923732.8775776c.0822423-.0001749.1641648-.0102473.244-.03l7.1-1.776 1.268 3.806h-4.612c-.5522847 0-1 .4477153-1 1s.4477153 1 1 1h4l-1.5 2h-10.5c-.5522847 0-1 .4477153-1 1s.4477153 1 1 1h10.382l1.808 3.617-7.99-1.597c-.3556996-.0839647-.7288731.0328053-.9732685.3045463s-.32108.6551639-.2 1 .4206363.5961521.7812685.6554537l8.972 1.793-.561 2.227h-4.219c-.5522847 0-1 .4477153-1 1s.4477153 1 1 1h4.279l.721 2.162v1.623c.0387028 2.1063398-1.5047451 3.9084614-3.592 4.194-1.3967009.1450454-2.7668618-.4545898-3.608-1.579-.1888544-.2518058-.4852427-.4-.8-.4s-.6111456.1481942-.8.4c-.7554175 1.0072234-1.9409708 1.6-3.2 1.6s-2.4445825-.5927766-3.2-1.6c-.1967934-.2391708-.4902738-.3777478-.8-.3777478s-.6032066.138577-.8.3777478c-.8402292 1.1262984-2.2114223 1.726979-3.609 1.581-2.0876277-.2860856-3.6307917-2.0892369-3.591-4.196v-1.623l.721-2.162h14.279c.5522847 0 1-.4477153 1-1s-.4477153-1-1-1h-14.219l-.557-2.227 8.976-1.793c.5244774-.1238056.856525-.640941.7508396-1.1693679s-.611089-.8780721-1.1428396-.7906321l-7.994 1.6 1.804-3.62h4.382c.5522847 0 1-.4477153 1-1s-.4477153-1-1-1h-4.5l-1.5-2h14c.5522847 0 1-.4477153 1-1s-.4477153-1-1-1h-14.612l1.268-3.806 7.1 1.776c.0798352.0197527.1617577.0298251.244.03.5047125-.0005564.929899-.377126.9914367-.8780733.0615377-.5009472-.259865-.9692298-.7494367-1.0919267l-7.73-1.93-1.219-1.218c-.1874489-.1887848-.292754-.4439611-.293-.71v-2.172c.0033061-2.7600532 2.2399468-4.9966939 5-5h2c1.6568542 0 3-1.3431458 3-3v-2h4v2c0 1.6568542 1.3431458 3 3 3h2c2.7600532.0033061 4.9966939 2.2399468 5 5z"/></g></g></g></svg>