<svg height="512pt" viewBox="0 0 512 512" width="512pt" xmlns="http://www.w3.org/2000/svg"><path d="m359.5625 6.488281c-1.460938-3.902343-5.195312-6.488281-9.363281-6.488281h-188.144531c-4.167969 0-7.902344 2.585938-9.363282 6.488281l-56.886718 151.691407c-15.238282 40.644531-13.257813 86.421874 5.4375 125.597656 22.800781 47.773437 67.632812 81.222656 119.917968 89.480468 1.613282.253907 3.226563.484376 4.839844.703126v69.242187c0 5.800781-3.460938 10.996094-8.808594 13.234375l-46.054687 19.269531c-8.402344 3.515625-13.015625 12.203125-11.222657 21.132813 1.792969 8.925781 9.402344 15.160156 18.507813 15.160156h155.089844c9.105469 0 16.71875-6.238281 18.507812-15.167969 1.789063-8.929687-2.828125-17.617187-11.234375-21.128906l-45.96875-19.203125c-5.355468-2.238281-8.816406-7.433594-8.816406-13.238281v-69.269531c1.699219-.226563 3.398438-.46875 5.09375-.734376 52.289062-8.257812 97.117188-41.707031 119.917969-89.480468 18.695312-39.175782 20.675781-84.953125 5.4375-125.597656zm-190.578125 13.511719h174.285156l54.453125 145.203125c1.359375 3.632813 2.554688 7.3125 3.605469 11.027344-5.753906 3.636719-17.304687 9.804687-33.871094 13.226562-32.832031 6.777344-68.785156.164063-106.859375-19.664062-53.40625-27.816407-95.351562-26.230469-121.136718-20.003907-8.464844 2.042969-15.789063 4.703126-21.941407 7.457032zm118.121094 454.957031 40.800781 17.042969h-143.890625l40.894531-17.113281c12.8125-5.359375 21.089844-17.796875 21.089844-31.683594v-67.4375c3.375.152344 6.75.238281 10.128906.238281 3.289063 0 6.582032-.078125 9.871094-.226562v67.488281c0 13.894531 8.285156 26.332031 21.105469 31.691406zm105.855469-199.796875c-19.960938 41.828125-59.210938 71.113282-104.988282 78.34375-21.132812 3.335938-42.5625 3.335938-63.691406 0-45.777344-7.230468-85.027344-36.515625-104.988281-78.34375-13.324219-27.917968-16.949219-59.671875-10.640625-89.710937 6.785156-5.410157 57.832031-42.121094 142.707031 2.082031 35.921875 18.707031 66.785156 24.402344 91.050781 24.402344 11.75 0 21.953125-1.335938 30.433594-3.175782 14.015625-3.042968 25-7.746093 32.667969-11.84375 3.324219 26.542969-.910157 53.855469-12.550781 78.246094zm0 0"/><path d="m502 54h-13.125v-13.125c0-5.523438-4.476562-10-10-10s-10 4.476562-10 10v13.125h-13.125c-5.523438 0-10 4.476562-10 10s4.476562 10 10 10h13.125v13.125c0 5.523438 4.476562 10 10 10s10-4.476562 10-10v-13.125h13.125c5.523438 0 10-4.476562 10-10s-4.476562-10-10-10zm0 0"/><path d="m56.25 414.875h-13.125v-13.125c0-5.523438-4.476562-10-10-10s-10 4.476562-10 10v13.125h-13.125c-5.523438 0-10 4.476562-10 10s4.476562 10 10 10h13.125v13.125c0 5.523438 4.476562 10 10 10s10-4.476562 10-10v-13.125h13.125c5.523438 0 10-4.476562 10-10s-4.476562-10-10-10zm0 0"/><path d="m231.144531 310.039062c-31.457031-4.964843-58.425781-25.089843-72.140625-53.828124-5.21875-10.933594-8.292968-22.671876-9.144531-34.894532-.382813-5.511718-5.167969-9.664062-10.667969-9.285156-5.511718.382812-9.667968 5.160156-9.285156 10.671875 1.027344 14.738281 4.742188 28.910156 11.046875 42.121094 16.558594 34.6875 49.105469 58.976562 87.070313 64.972656.53125.082031 1.054687.121094 1.574218.121094 4.835938 0 9.085938-3.515625 9.863282-8.441407.863281-5.457031-2.863282-10.578124-8.316407-11.4375zm0 0"/><path d="m279 309.921875c-2.628906 0-5.210938 1.058594-7.070312 2.929687-1.859376 1.859376-2.929688 4.429688-2.929688 7.070313 0 2.628906 1.070312 5.199219 2.929688 7.066406 1.859374 1.863281 4.441406 2.933594 7.070312 2.933594s5.210938-1.070313 7.070312-2.933594c1.859376-1.859375 2.929688-4.4375 2.929688-7.066406 0-2.640625-1.070312-5.210937-2.929688-7.070313-1.859374-1.871093-4.441406-2.929687-7.070312-2.929687zm0 0"/></svg>