<svg height="512pt" viewBox="-20 0 512 512" width="512pt" xmlns="http://www.w3.org/2000/svg"><path d="m414.9375 451.9375h-23.054688v-38.769531c50.933594-44.851563 80.117188-109.28125 80.117188-177.167969 0-63.039062-24.546875-122.304688-69.121094-166.878906-44.574218-44.574219-103.839844-69.121094-166.878906-69.121094s-122.304688 24.546875-166.878906 69.121094c-44.574219 44.574218-69.121094 103.839844-69.121094 166.878906 0 67.855469 29.1875 132.328125 80.117188 177.171875v38.765625h-23.054688c-27.605469 0-50.0625 22.457031-50.0625 50.0625 0 5.523438 4.476562 10 10 10h438c5.523438 0 10-4.476562 10-10 0-27.605469-22.457031-50.0625-50.0625-50.0625zm-291.652344-88.640625c-.125-.117187-.238281-.242187-.367187-.359375-36.171875-32.25-56.917969-78.515625-56.917969-126.9375 0-14.855469 1.921875-29.269531 5.519531-43.011719.085938 0 .167969.011719.253907.011719h88.453124c5.519532 0 10-4.476562 10-10s-4.480468-10-10-10h-82.117187c4.429687-11.0625 9.988281-21.554688 16.535156-31.332031h32.582031c5.519532 0 10-4.476563 10-10 0-5.523438-4.480468-10-10-10h-16.929687c31.117187-34.183594 75.949219-55.667969 125.703125-55.667969 56.335938 0 106.351562 27.554688 137.300781 69.882812h-54.300781c-5.523438 0-10 4.476563-10 10 0 5.523438 4.476562 10 10 10h66.898438c12.820312 23.886719 20.101562 51.164063 20.101562 80.117188 0 3.386719-.113281 6.765625-.3125 10.128906h-73.6875c-5.523438 0-10 4.476563-10 10 0 5.519532 4.476562 10 10 10h71.289062c-6.6875 37.039063-25.5625 71.203125-54.035156 96.65625-.183594.164063-.351562.335938-.515625.511719-12.597656 1.714844-23.246093 9.617187-28.773437 20.542969-25.46875 14.492187-54.472656 22.160156-83.964844 22.160156-29.09375 0-57.800781-7.472656-83.011719-21.609375-.296875-.164063-.59375-.3125-.894531-.445313-5.511719-10.972656-16.179688-18.921874-28.808594-20.648437zm239.738282-268.464844c-31.363282-28.253906-72.15625-46.230469-117.023438-48.570312v-26.023438c52.03125 2.382813 99.320312 23.253907 135.425781 56.191407zm-137.023438-48.570312c-44.867188 2.339843-85.660156 20.316406-117.023438 48.570312l-18.402343-18.402343c36.105469-32.9375 83.394531-53.808594 135.425781-56.191407zm0 379.453125v26.050781c-24.117188-1.089844-47.5625-6.128906-69.882812-15.027344v-28.332031c21.894531 10.136719 45.667968 16.03125 69.882812 17.308594zm89.882812 11.027344c-22.316406 8.894531-45.753906 13.933593-69.882812 15.019531v-26.050781c24.234375-1.273438 47.980469-7.160157 69.882812-17.304688zm20 6.679687c0-.054687 0-.109375 0-.167969v-42.316406c0-9.925781 8.074219-18 18-18 9.925782 0 18 8.074219 18 18v51h-36zm53.6875-55.539063c-3.105468-8.464843-9.144531-15.515624-16.875-19.941406 31.71875-32.890625 50.621094-76.253906 53.039063-121.941406h26.019531c-2.472656 53.445312-24.652344 103.933594-62.183594 141.882812zm62.191407-161.882812h-26.023438c-2.339843-44.867188-20.316406-85.660156-48.570312-117.023438l18.402343-18.402343c32.9375 36.105469 53.808594 83.394531 56.191407 135.425781zm-375.332031-135.425781 18.402343 18.402343c-28.253906 31.363282-46.230469 72.15625-48.570312 117.023438h-26.023438c2.382813-52.03125 23.253907-99.320312 56.191407-135.425781zm-56.183594 155.425781h26.019531c2.414063 45.695312 21.3125 89.050781 53.035156 121.941406-7.726562 4.425782-13.765625 11.476563-16.871093 19.9375-37.519532-37.949218-59.710938-88.457031-62.183594-141.878906zm79.871094 154.9375c0-9.925781 8.074218-18 18-18 9.925781 0 18 8.074219 18 18v51h-36zm-71.40625 91.0625c4.128906-11.675781 15.277343-20.0625 28.351562-20.0625h357.875c13.074219 0 24.222656 8.386719 28.351562 20.0625zm0 0"/><path d="m160.863281 295.328125 45.136719-5.242187v46.980468c0 5.523438 4.476562 10 10 10h40c5.523438 0 10-4.476562 10-10v-51.515625c0-.6875-.070312-1.363281-.203125-2.011719 4.214844-5.953124 6.703125-13.210937 6.703125-21.039062 0-20.128906-16.375-36.5-36.5-36.5-9.460938 0-18.089844 3.617188-24.578125 9.539062l-50.558594-5.871093c-9.355469-1.085938-18.757812 1.882812-25.792969 8.148437-7.035156 6.265625-11.070312 15.261719-11.070312 24.683594s4.035156 18.417969 11.070312 24.683594c6.078126 5.414062 13.925782 8.367187 21.988282 8.367187 1.265625 0 2.535156-.074219 3.804687-.222656zm65.136719 31.738281v-29.46875c3.179688.90625 6.53125 1.402344 10 1.402344s6.820312-.496094 10-1.402344v29.46875zm26.5-64.566406c0 9.097656-7.402344 16.5-16.5 16.5s-16.5-7.402344-16.5-16.5 7.402344-16.5 16.5-16.5 16.5 7.402344 16.5 16.5zm-108.5 0c0-3.773438 1.550781-7.234375 4.371094-9.746094 2.820312-2.511718 6.433594-3.652344 10.183594-3.21875l41.863281 4.863282c-.59375 2.609374-.917969 5.316406-.917969 8.101562s.324219 5.496094.917969 8.101562l-41.863281 4.863282c-3.75.433594-7.363282-.707032-10.183594-3.21875-2.820313-2.511719-4.371094-5.972656-4.371094-9.746094zm0 0"/><path d="m262.5 211.925781h90.75c5.523438 0 10-4.480469 10-10 0-5.523437-4.476562-10-10-10h-90.75c-5.523438 0-10 4.476563-10 10 0 5.519531 4.476562 10 10 10zm0 0"/><path d="m277.378906 155.878906c2.632813 0 5.210938-1.070312 7.070313-2.929687s2.929687-4.4375 2.929687-7.070313c0-2.628906-1.070312-5.207031-2.929687-7.070312-1.859375-1.859375-4.4375-2.929688-7.070313-2.929688-2.628906 0-5.207031 1.070313-7.070312 2.929688-1.859375 1.863281-2.929688 4.441406-2.929688 7.070312 0 2.632813 1.070313 5.210938 2.929688 7.070313 1.863281 1.859375 4.441406 2.929687 7.070312 2.929687zm0 0"/></svg>