<svg height="512pt" viewBox="0 -82 512.00036 512" width="512pt" xmlns="http://www.w3.org/2000/svg"><path d="m510.65625 288.359375c-2.761719-4.785156-8.878906-6.425781-13.664062-3.660156l-26.597657 15.355469-33.160156-57.433594c3.570313-2.40625 7.046875-4.953125 10.40625-7.671875 27.480469-22.230469 42.234375-56.539063 39.472656-91.777344-2.269531-28.894531-16.40625-56.027344-38.789062-74.441406l-80.773438-66.453125c-3.21875-2.648438-7.746093-3.023438-11.355469-.9375l-100.195312 57.847656-100.195312-57.847656c-3.609376-2.085938-8.136719-1.710938-11.355469.941406l-80.773438 66.449219c-22.382812 18.414062-36.519531 45.546875-38.785156 74.441406-2.765625 35.238281 11.988281 69.546875 39.46875 91.777344 3.359375 2.71875 6.839844 5.265625 10.40625 7.671875l-33.160156 57.433594-26.597657-15.355469c-4.78125-2.761719-10.902343-1.125-13.664062 3.660156-2.765625 4.785156-1.125 10.90625 3.660156 13.667969l35.257813 20.355468c.003906 0 .003906 0 .003906.003907h.003906l42.410157 24.484375c1.578124.910156 3.296874 1.34375 4.996093 1.34375 3.457031 0 6.820313-1.792969 8.671875-5.003906 2.765625-4.785157 1.125-10.90625-3.660156-13.667969l-33.75-19.484375 33.140625-57.40625c4.023437 1.984375 8.132813 3.808594 12.335937 5.425781 12.464844 4.789063 25.507813 7.144531 38.488282 7.144531 21.386718 0 42.597656-6.398437 60.730468-18.851562 23.890626-16.410156 40.320313-42.222656 45.074219-70.8125l7.292969-43.84375 7.292969 43.84375c4.757812 28.589844 21.183593 54.402344 45.074219 70.8125 18.132812 12.453125 39.34375 18.851562 60.734374 18.851562 12.976563 0 26.023438-2.355468 38.484376-7.144531 4.203124-1.617187 8.3125-3.441406 12.335937-5.421875l33.144531 57.40625-33.75 19.484375c-4.785156 2.761719-6.425781 8.878906-3.664062 13.667969 1.855468 3.207031 5.214844 5 8.675781 5 1.695313 0 3.417969-.429688 4.992187-1.339844l42.410157-24.484375c.003906 0 .003906-.003906.003906-.003906h.003906l35.257813-20.359375c4.785156-2.761719 6.425781-8.882813 3.660156-13.667969zm-150.460938-266.222656 75.417969 62.046875c14.46875 11.90625 24.683594 28.296875 29.199219 46.320312h-19.203125c-6.761719-14.972656-16.90625-28.261718-29.628906-38.730468h-.003907l-20.636718-16.980469c-4.269532-3.511719-10.574219-2.898438-14.085938 1.371093-3.507812 4.265626-2.894531 10.570313 1.371094 14.082032l20.640625 16.980468c7.953125 6.542969 14.660156 14.445313 19.839844 23.28125h-147.023438l-9.074219-54.570312zm-167.890624 207.738281c-23.703126 16.28125-53.871094 19.839844-80.710938 9.523438-12.542969-4.824219-24.199219-11.554688-34.648438-20.007813-22.355468-18.082031-34.355468-45.992187-32.109374-74.65625 1.84375-23.503906 13.34375-45.574219 31.550781-60.550781l75.417969-62.046875 93.1875 53.800781-9.074219 54.566406h-115.984375c-5.527344 0-10.003906 4.480469-10.003906 10.003906 0 5.527344 4.476562 10.007813 10.003906 10.007813h112.65625l-3.621094 21.757813c-3.867188 23.257812-17.234375 44.253906-36.664062 57.601562zm208.097656 9.523438c-26.835938 10.316406-57.007813 6.753906-80.703125-9.523438-19.433594-13.347656-32.796875-34.34375-36.667969-57.601562l-3.621094-21.757813h159.484375.023438.023437 28.476563c.324219 26.597656-11.515625 52.011719-32.363281 68.875-10.449219 8.453125-22.105469 15.1875-34.652344 20.007813zm0 0"/><path d="m76.839844 130.503906c-2.628906 0-5.210938 1.074219-7.070313 2.933594-1.863281 1.859375-2.933593 4.441406-2.933593 7.074219 0 2.628906 1.070312 5.210937 2.933593 7.074219 1.859375 1.859374 4.441407 2.929687 7.070313 2.929687 2.644531 0 5.214844-1.070313 7.074218-2.929687 1.863282-1.863282 2.933594-4.445313 2.933594-7.074219 0-2.632813-1.070312-5.214844-2.933594-7.074219-1.859374-1.859375-4.429687-2.933594-7.074218-2.933594zm0 0"/><path d="m353.648438 67.796875c1.859374 1.859375 4.433593 2.929687 7.074218 2.929687 2.628906 0 5.210938-1.070312 7.074219-2.929687 1.859375-1.863281 2.929687-4.445313 2.929687-7.074219 0-2.632812-1.070312-5.214844-2.929687-7.074218-1.863281-1.871094-4.445313-2.933594-7.074219-2.933594-2.640625 0-5.214844 1.0625-7.074218 2.933594-1.871094 1.859374-2.933594 4.441406-2.933594 7.074218 0 2.628906 1.0625 5.210938 2.933594 7.074219zm0 0"/></svg>