<svg height="512pt" viewBox="0 -20 512 512" width="512pt" xmlns="http://www.w3.org/2000/svg"><path d="m478 0h-444c-18.746094 0-34 15.253906-34 34v256c0 5.523438 4.476562 10 10 10s10-4.476562 10-10v-256c0-7.71875 6.28125-14 14-14h212.128906v15.363281h-1.570312c-14.644532 0-26.558594 11.914063-26.558594 26.558594 0 5.523437 4.476562 10 10 10s10-4.476563 10-10c0-3.613281 2.941406-6.558594 6.558594-6.558594h1.570312v348.292969h-1.570312c-14.644532 0-26.558594 11.914062-26.558594 26.5625 0 5.519531 4.476562 10 10 10s10-4.480469 10-10c0-3.617188 2.941406-6.5625 6.558594-6.5625h1.570312v28.34375h-212.128906c-7.71875 0-14-6.28125-14-14v-71c0-5.523438-4.476562-10-10-10s-10 4.476562-10 10v71c0 18.746094 15.253906 34 34 34h444c18.746094 0 34-15.253906 34-34v-404c0-18.746094-15.253906-34-34-34zm14 438c0 7.71875-6.28125 14-14 14h-211.871094v-28.34375h1.3125c3.617188 0 6.558594 2.945312 6.558594 6.5625 0 5.519531 4.476562 10 10 10s10-4.480469 10-10c0-14.648438-11.914062-26.5625-26.558594-26.5625h-1.3125v-348.292969h1.3125c3.617188 0 6.558594 2.945313 6.558594 6.558594 0 5.523437 4.476562 10 10 10s10-4.476563 10-10c0-14.644531-11.914062-26.558594-26.558594-26.558594h-1.3125v-15.363281h211.871094c7.71875 0 14 6.28125 14 14zm0 0"/><path d="m10 339c2.628906 0 5.210938-1.070312 7.070312-2.929688 1.859376-1.859374 2.929688-4.441406 2.929688-7.070312s-1.070312-5.210938-2.929688-7.070312c-1.859374-1.859376-4.441406-2.929688-7.070312-2.929688s-5.210938 1.070312-7.070312 2.929688c-1.859376 1.859374-2.929688 4.441406-2.929688 7.070312s1.070312 5.210938 2.929688 7.070312c1.859374 1.859376 4.441406 2.929688 7.070312 2.929688zm0 0"/><path d="m49.546875 231.957031c1.339844 4.71875 5.910156 7.777344 10.773437 7.203125 9.890626-1.148437 17.917969-3.808594 24.355469-7.042968.058594.429687.125.859374.199219 1.292968 3.371094 20.035156 17.9375 37.414063 43.289062 51.652344 1.523438.855469 3.210938 1.28125 4.898438 1.28125s3.375-.425781 4.898438-1.28125c25.351562-14.238281 39.917968-31.617188 43.292968-51.652344.070313-.433594.136719-.863281.199219-1.292968 6.433594 3.234374 14.460937 5.894531 24.351563 7.042968 4.871093.570313 9.433593-2.484375 10.773437-7.203125 7.542969-26.5625.132813-45.460937-9.5625-56.960937 1.898437-1.261719 3.929687-2.722656 6.105469-4.425782 3.871094-3.03125 4.96875-8.421874 2.585937-12.71875-13.363281-24.136718-29.1875-37.175781-47.027343-38.753906-9.265626-.820312-17.53125 1.660156-24.3125 5.136719 2.363281-10.675781 7.886718-20.542969 15.949218-28.121094l.878906-.824219c4.027344-3.78125 4.226563-10.109374.441407-14.136718-3.78125-4.023438-10.109375-4.222656-14.132813-.441406l-.882812.828124c-12.363282 11.617188-20.355469 27.183594-22.769532 43.820313-7.140624-4.046875-16.164062-7.171875-26.40625-6.261719-17.835937 1.578125-33.660156 14.617188-47.023437 38.753906-2.382813 4.296876-1.285156 9.6875 2.582031 12.71875 2.175782 1.703126 4.210938 3.164063 6.109375 4.425782-9.695312 11.5-17.109375 30.398437-9.566406 56.960937zm32.769531-50.613281c4.421875-2.042969 6.632813-6.933594 5.359375-11.644531-1.171875-4.335938-5.148437-7.269531-9.5625-7.339844-.511719-.121094-2.320312-.636719-5.539062-2.523437 6.71875-10.125 15.839843-19.8125 26.539062-20.808594 10.574219-.984375 19.851563 6.578125 23.949219 10.566406v5.171875l-22.757812 20.054687c-4.144532 3.652344-4.542969 9.972657-.890626 14.117188 1.976563 2.242188 4.734376 3.386719 7.503907 3.386719 2.351562 0 4.707031-.820313 6.609375-2.496094l9.535156-8.402344v45.5c0 5.523438 4.476562 10 10 10s10-4.476562 10-10v-45.5l9.535156 8.402344c1.902344 1.675781 4.257813 2.496094 6.605469 2.496094 2.773437 0 5.53125-1.144531 7.507813-3.386719 3.652343-4.144531 3.253906-10.464844-.890626-14.117188l-22.757812-20.054687v-5.175781c4.085938-3.976563 13.324219-11.503906 23.851562-10.570313 10.738282.949219 19.894532 10.660157 26.632813 20.816407-3.214844 1.886718-5.023437 2.402343-5.535156 2.519531-4.414063.074219-8.390625 3.007812-9.566407 7.34375-1.269531 4.707031.941407 9.601562 5.363282 11.644531 2.355468 1.21875 18.898437 10.75 15.425781 36.230469-16.386719-4.554688-22.378906-14.726563-22.664063-15.226563-2.710937-4.753906-8.742187-6.445312-13.53125-3.789062-4.789062 2.652344-6.550781 8.660156-3.960937 13.480468 1.558594 2.890626 13.519531 28.078126-26.015625 52.691407-39.539062-24.613281-27.574219-49.800781-26.019531-52.691407 2.59375-4.820312.828125-10.828124-3.960938-13.480468-1.535156-.851563-3.195312-1.257813-4.839843-1.257813-3.472657 0-6.847657 1.816407-8.691407 5.046875-.285156.496094-6.277343 10.671875-22.660156 15.226563-3.476563-25.480469 13.070313-35.011719 15.425781-36.230469zm0 0"/><path d="m454 159.007812h-103c-5.523438 0-10 4.476563-10 10 0 5.523438 4.476562 10 10 10h103c5.523438 0 10-4.476562 10-10 0-5.523437-4.476562-10-10-10zm0 0"/><path d="m303 159.011719c-2.628906 0-5.210938 1.066406-7.070312 2.929687-1.859376 1.859375-2.929688 4.429688-2.929688 7.070313 0 2.628906 1.070312 5.207031 2.929688 7.066406 1.859374 1.863281 4.441406 2.933594 7.070312 2.933594s5.210938-1.070313 7.070312-2.933594c1.859376-1.859375 2.929688-4.4375 2.929688-7.066406 0-2.632813-1.070312-5.210938-2.929688-7.070313-1.859374-1.863281-4.441406-2.929687-7.070312-2.929687zm0 0"/><path d="m454 231.003906h-103c-5.523438 0-10 4.476563-10 10 0 5.523438 4.476562 10 10 10h103c5.523438 0 10-4.476562 10-10 0-5.523437-4.476562-10-10-10zm0 0"/><path d="m303 231c-2.628906 0-5.210938 1.070312-7.070312 2.929688-1.859376 1.859374-2.929688 4.441406-2.929688 7.082031 0 2.628906 1.070312 5.199219 2.929688 7.066406 1.859374 1.863281 4.441406 2.921875 7.070312 2.921875s5.210938-1.058594 7.070312-2.921875c1.859376-1.859375 2.929688-4.4375 2.929688-7.066406 0-2.640625-1.070312-5.222657-2.929688-7.082031-1.859374-1.859376-4.441406-2.929688-7.070312-2.929688zm0 0"/><path d="m454 87h-103c-5.523438 0-10 4.476562-10 10s4.476562 10 10 10h103c5.523438 0 10-4.476562 10-10s-4.476562-10-10-10zm0 0"/><path d="m303 87c-2.628906 0-5.210938 1.070312-7.070312 2.929688-1.859376 1.859374-2.929688 4.441406-2.929688 7.070312s1.070312 5.210938 2.929688 7.070312c1.859374 1.859376 4.441406 2.929688 7.070312 2.929688s5.210938-1.070312 7.070312-2.929688c1.859376-1.859374 2.929688-4.441406 2.929688-7.070312s-1.070312-5.210938-2.929688-7.070312c-1.859374-1.859376-4.441406-2.929688-7.070312-2.929688zm0 0"/><path d="m454 303.003906h-103c-5.523438 0-10 4.476563-10 10 0 5.519532 4.476562 10 10 10h103c5.523438 0 10-4.480468 10-10 0-5.523437-4.476562-10-10-10zm0 0"/><path d="m303 303c-2.628906 0-5.210938 1.070312-7.070312 2.929688-1.859376 1.859374-2.929688 4.441406-2.929688 7.070312s1.070312 5.210938 2.929688 7.070312c1.859374 1.859376 4.441406 2.929688 7.070312 2.929688s5.210938-1.070312 7.070312-2.929688c1.859376-1.859374 2.929688-4.441406 2.929688-7.070312s-1.070312-5.210938-2.929688-7.070312c-1.859374-1.859376-4.441406-2.929688-7.070312-2.929688zm0 0"/><path d="m454 375h-103c-5.523438 0-10 4.476562-10 10s4.476562 10 10 10h103c5.523438 0 10-4.476562 10-10s-4.476562-10-10-10zm0 0"/><path d="m303 375c-2.628906 0-5.210938 1.070312-7.070312 2.929688-1.859376 1.859374-2.929688 4.441406-2.929688 7.070312s1.070312 5.210938 2.929688 7.070312c1.859374 1.859376 4.441406 2.929688 7.070312 2.929688s5.210938-1.070312 7.070312-2.929688c1.859376-1.859374 2.929688-4.441406 2.929688-7.070312s-1.070312-5.210938-2.929688-7.070312c-1.859374-1.859376-4.441406-2.929688-7.070312-2.929688zm0 0"/><path d="m186 319h-105.871094c-5.523437 0-10 4.476562-10 10s4.476563 10 10 10h105.871094c5.523438 0 10-4.476562 10-10s-4.476562-10-10-10zm0 0"/><path d="m186 375h-105.871094c-5.523437 0-10 4.476562-10 10s4.476563 10 10 10h105.871094c5.523438 0 10-4.476562 10-10s-4.476562-10-10-10zm0 0"/></svg>