<svg height="512pt" viewBox="0 0 512 512.00099" width="512pt" xmlns="http://www.w3.org/2000/svg"><path d="m481.914062 352.027344c16.539063 0 29.996094-13.453125 29.996094-29.992188v-71.988281c0-16.539063-13.457031-29.996094-29.996094-29.996094h-109.179687c3.648437-6.925781 6.046875-13.511719 7.570313-19.558593 1.859374 1.679687 3.886718 3.320312 6.101562 4.898437 22.335938 15.898437 53.09375 18.507813 91.421875 7.746094 3.359375-.941407 5.980469-3.566407 6.925781-6.921875 10.757813-38.332032 8.148438-69.089844-7.75-91.425782-1.574218-2.210937-3.21875-4.238281-4.898437-6.097656 10.6875-2.695312 23.066406-8.113281 36.003906-18.355468 3.84375-3.042969 4.914063-8.425782 2.527344-12.707032-17.445313-31.28125-40.097657-41.335937-56.027344-44.261718-4.320313-.792969-8.371094-1.121094-12.039063-1.160157 1.058594-4.152343 2.003907-9.113281 2.726563-15.03125.59375-4.878906-2.441406-9.464843-7.164063-10.820312-36.097656-10.367188-63.679687-7.855469-81.976562 7.464843-13.238281 11.089844-18.605469 26.511719-20.691406 38.957032-20.03125-11.914063-45.625-11.351563-65.429688 2.671875l-.925781.652343c.515625-9.421874-1.257813-19.003906-5.421875-27.933593-5.507812-11.800781-15.28125-20.753907-27.523438-25.207031-12.242187-4.449219-25.484374-3.871094-37.289062 1.640624-16.488281 7.691407-25.457031 25.023438-23.355469 42.179688-19.710937-7.660156-42.980469-3.558594-58.871093 12.332031-20.308594 20.308594-21.367188 52.671875-3.199219 74.257813-7.449219 2.707031-14.28125 7.03125-20.054688 12.804687-20.1875 20.1875-21.359375 52.296875-3.527343 73.875h-59.871094c-16.539063 0-29.996094 13.457031-29.996094 29.996094v71.988281c0 16.539063 13.457031 29.992188 29.996094 29.992188h23.996094v27.996094h-23.996094c-16.539063 0-29.996094 13.457031-29.996094 29.996093v71.988281c0 16.539063 13.457031 29.992188 29.996094 29.992188h451.917968c16.539063 0 29.996094-13.453125 29.996094-29.992188v-71.988281c0-16.539062-13.457031-29.996093-29.996094-29.996093h-23.992187v-27.996094zm-262.75-225.378906c8.960938 0 17.921876 3.410156 24.742188 10.230468 13.644531 13.644532 13.644531 35.839844.007812 49.484375-.003906.003907-.003906.003907-.007812.003907 0 .003906 0 .003906-.003906.007812-13.644532 13.636719-35.839844 13.636719-49.484375-.007812-13.644531-13.640626-13.644531-35.84375 0-49.488282 6.824219-6.820312 15.785156-10.230468 24.746093-10.230468zm-23.257812 87.046874c7.304688 0 14.261719 2.230469 20.109375 6.355469h-40.21875c5.847656-4.125 12.804687-6.355469 20.109375-6.355469zm62.140625-13.1875c6.609375-6.609374 15.398437-10.25 24.746094-10.25 9.347656 0 18.132812 3.640626 24.742187 10.25 5.394532 5.394532 8.777344 12.179688 9.859375 19.542969h-69.203125c1.078125-7.367187 4.460938-14.148437 9.855469-19.542969zm39.636719-28.199218c2.21875-.421875 4.265625-.875 6.140625-1.355469.011719 1.132813.0625 2.3125.132812 3.515625-2.039062-.851562-4.136719-1.5625-6.273437-2.160156zm71.394531-143.222656c11.613281-9.660157 30.089844-11.582032 55.003906-5.742188-1.960937 9.703125-4.359375 13.300781-4.789062 13.886719-3.214844 3.128906-4 8.078125-1.773438 12.054687 2.367188 4.230469 7.398438 6.164063 11.976563 4.566406 1.457031-.484374 34.003906-10.726562 59.019531 25.960938-23.746094 15.304688-42.699219 10.808594-44.96875 10.191406-5.277344-1.445312-10.734375 1.625-12.246094 6.886719-1.507812 5.257813 1.492188 10.753906 6.734375 12.332031 4.894532 1.46875 46.292969 16.128906 28.914063 86.113282-69.988281 17.378906-84.644531-24.019532-86.113281-28.914063-1.574219-5.242187-7.066407-8.242187-12.332032-6.734375-5.261718 1.507812-8.328125 6.96875-6.886718 12.246094.621093 2.269531 5.113281 21.222656-10.191407 44.96875-36.6875-25.015625-26.445312-57.554688-25.984375-58.949219 1.597656-4.578125-.324218-9.644531-4.554687-12.015625-1.539063-.859375-3.21875-1.273438-4.878907-1.273438-2.644531 0-5.242187 1.046876-7.164062 3.015626-.578125.425781-4.179688 2.828124-13.886719 4.789062-5.839843-24.914062-3.917969-43.394531 5.742188-55.007812 11.417969-13.71875 31.523437-14.929688 39.394531-14.839844l7.707031 7.707031-2.820312 44.683594c-.347657 5.507812 3.835937 10.257812 9.347656 10.605469.214844.015624.429687.023437.640625.023437 5.234375 0 9.632812-4.074219 9.96875-9.371094l1.710938-27.097656 51.988281 51.992187c1.953125 1.953126 4.511719 2.929688 7.070312 2.929688 2.558594 0 5.117188-.976562 7.070313-2.929688 3.90625-3.90625 3.90625-10.234374 0-14.140624l-51.992188-51.988282 27.097656-1.710937c5.511719-.347657 9.695313-5.097657 9.347657-10.609375-.347657-5.511719-5.097657-9.707032-10.605469-9.347656l-44.683594 2.820312-7.707031-7.707031c-.089844-7.898438 1.128906-27.984375 14.84375-39.394531zm-87.488281 42.683593c10.183594-7.210937 22.65625-9.085937 33.964844-5.941406-10.375 2.949219-21.542969 8.476563-30.117188 18.714844-15.324219 18.296875-17.835938 45.875-7.46875 81.972656.417969 1.449219 1.140625 2.738281 2.078125 3.8125-2.277344.109375-4.527344.375-6.75.761719 2.957031-17.042969-2.117187-35.21875-15.25-48.351563-7.621094-7.621093-17.09375-12.71875-27.398437-14.898437zm-74.257813-49.046875c14.375-6.707031 31.527344-.472656 38.234375 13.902344 5.929688 12.707031 4.492188 27.417969-3.660156 38.742188l-31.414062 22.246093c-.046876-6.308593-1.171876-12.609375-3.367188-18.601562 6.035156.613281 12.304688-.332031 18.191406-3.078125 5.003906-2.335938 7.167969-8.285156 4.832032-13.289063-2.335938-5.003906-8.285157-7.167969-13.289063-4.832031-7.402344 3.453125-16.230469.242188-19.6875-7.160156-4.898437-10.5-.339844-23.03125 10.160156-27.929688zm-76.542969 50.527344c6.824219-6.820312 15.785157-10.230469 24.746094-10.230469 8.960938 0 17.921875 3.410157 24.746094 10.230469 13.644531 13.644531 13.644531 35.847656 0 49.488281-13.644531 13.644531-35.847656 13.644531-49.488281 0-13.648438-13.640625-13.648438-35.84375-.003907-49.488281zm-23.253906 136.554688c-13.644531-13.644532-13.644531-35.847657 0-49.492188 6.609375-6.609375 15.394532-10.246094 24.742188-10.246094s18.136718 3.636719 24.746094 10.246094c13.644531 13.644531 13.644531 35.847656 0 49.488281-6.59375 6.597657-15.359376 10.234375-24.683594 10.25h-.121094c-9.324219-.015625-18.089844-3.652343-24.683594-10.246093zm-87.539062 112.230468v-71.988281c0-5.515625 4.484375-10 10-10h102.222656.058594.0625 219.664062c.695313.152344 1.398438.242187 2.101563.242187.734375 0 1.464843-.082031 2.179687-.242187h125.628906c5.515626 0 10 4.484375 10 10v71.988281c0 5.511719-4.484374 9.996094-10 9.996094h-184.300781c-5.519531 0-9.996093 4.476562-9.996093 10 0 5.519531 4.476562 9.996094 9.996093 9.996094h92.320313v27.996094h-267.953125v-27.996094h88.316406c5.523437 0 9.996094-4.476563 9.996094-9.996094 0-5.523438-4.472657-10-9.996094-10h-180.300781c-5.515625 0-10-4.484375-10-9.996094zm53.992187 29.992188h27.996094v27.996094h-27.996094zm417.925781 57.992187v71.984375c0 5.515625-4.484374 10-10 10h-451.917968c-5.515625 0-10-4.484375-10-10v-71.984375c0-5.515625 4.484375-10 10-10h451.917968c5.515626 0 10 4.484375 10 10zm-53.992187-29.996093h-27.992187v-27.996094h27.992187zm0 0"/><path d="m423.925781 296.042969c2.628907 0 5.210938-1.070313 7.070313-2.929688s2.929687-4.4375 2.929687-7.070312c0-2.636719-1.070312-5.21875-2.929687-7.078125s-4.441406-2.917969-7.070313-2.917969c-2.628906 0-5.207031 1.058594-7.070312 2.917969-1.859375 1.871094-2.929688 4.441406-2.929688 7.078125 0 2.632812 1.070313 5.199219 2.929688 7.070312 1.863281 1.859375 4.441406 2.929688 7.070312 2.929688zm0 0"/><path d="m83.65625 296.03125c2.628906 0 5.207031-1.058594 7.066406-2.917969 1.863282-1.871093 2.929688-4.4375 2.929688-7.078125 0-2.628906-1.066406-5.210937-2.929688-7.070312-1.859375-1.859375-4.4375-2.917969-7.066406-2.917969-2.640625 0-5.210938 1.058594-7.070312 2.917969-1.867188 1.859375-2.929688 4.441406-2.929688 7.070312 0 2.640625 1.0625 5.207032 2.929688 7.078125 1.859374 1.859375 4.429687 2.917969 7.070312 2.917969zm0 0"/><path d="m423.925781 438.019531c-2.628906 0-5.207031 1.058594-7.070312 2.917969-1.859375 1.871094-2.929688 4.4375-2.929688 7.078125 0 2.628906 1.070313 5.199219 2.929688 7.070313 1.863281 1.859374 4.441406 2.929687 7.070312 2.929687 2.628907 0 5.210938-1.070313 7.070313-2.929687 1.859375-1.859376 2.929687-4.441407 2.929687-7.070313 0-2.640625-1.070312-5.207031-2.929687-7.078125-1.859375-1.859375-4.441406-2.917969-7.070313-2.917969zm0 0"/><path d="m83.65625 438.019531c-2.640625 0-5.210938 1.058594-7.070312 2.917969-1.867188 1.859375-2.929688 4.4375-2.929688 7.078125 0 2.628906 1.0625 5.210937 2.929688 7.070313 1.859374 1.859374 4.429687 2.929687 7.070312 2.929687 2.628906 0 5.207031-1.070313 7.066406-2.929687 1.863282-1.871094 2.929688-4.441407 2.929688-7.070313 0-2.640625-1.066406-5.207031-2.929688-7.078125-1.859375-1.859375-4.4375-2.917969-7.066406-2.917969zm0 0"/><path d="m255.957031 352.03125c2.628907 0 5.207031-1.066406 7.066407-2.925781 1.859374-1.863281 2.929687-4.441407 2.929687-7.070313 0-2.640625-1.070313-5.21875-2.929687-7.078125-1.859376-1.859375-4.4375-2.929687-7.066407-2.929687-2.632812 0-5.210937 1.070312-7.070312 2.929687-1.859375 1.867188-2.929688 4.4375-2.929688 7.078125 0 2.628906 1.070313 5.207032 2.929688 7.070313 1.859375 1.859375 4.4375 2.925781 7.070312 2.925781zm0 0"/></svg>