<svg height="512pt" viewBox="-18 0 512 512" width="512pt" xmlns="http://www.w3.org/2000/svg"><path d="m238 301.273438c-20.753906 0-37.636719 16.882812-37.636719 37.636718 0 20.75 16.882813 37.636719 37.636719 37.636719s37.636719-16.886719 37.636719-37.636719c0-20.753906-16.882813-37.636718-37.636719-37.636718zm0 55.273437c-9.726562 0-17.636719-7.914063-17.636719-17.636719 0-9.726562 7.910157-17.636718 17.636719-17.636718s17.636719 7.910156 17.636719 17.636718c0 9.722656-7.910157 17.636719-17.636719 17.636719zm0 0"/><path d="m425.125 123.957031v-113.957031c0-5.523438-4.480469-10-10-10h-50.25c-5.519531 0-10 4.476562-10 10v113.957031c-17.941406 9.335938-32.09375 24.011719-40.875 41.554688-8.78125-17.542969-22.933594-32.21875-40.875-41.554688v-113.957031c0-5.523438-4.480469-10-10-10h-50.25c-5.519531 0-10 4.476562-10 10v113.957031c-17.941406 9.335938-32.09375 24.011719-40.875 41.554688-8.78125-17.542969-22.933594-32.21875-40.875-41.554688v-113.957031c0-5.523438-4.480469-10-10-10h-50.25c-5.519531 0-10 4.476562-10 10v113.957031c-31.113281 16.191407-50.875 48.421875-50.875 83.867188v294.175781c0 5.523438 4.476562 10 10 10h456c5.523438 0 10-4.476562 10-10v-294.175781c0-35.445313-19.761719-67.675781-50.875-83.867188zm-20-103.957031v64.574219h-30.25v-64.574219zm-36.265625 119.433594c3.652344-1.585938 6.015625-5.1875 6.015625-9.171875v-25.6875h30.25v25.6875c0 3.984375 2.363281 7.585937 6.015625 9.171875 27.25 11.835937 44.859375 38.679687 44.859375 68.390625v38.175781h-132v-38.175781c0-29.710938 17.609375-56.554688 44.859375-68.390625zm-348.859375 126.566406h132v145.816406h-132zm152 0h132v145.816406h-132zm81.125-246v64.574219h-30.25v-64.574219zm-36.265625 119.433594c3.652344-1.585938 6.015625-5.1875 6.015625-9.171875v-25.6875h30.25v25.6875c0 3.984375 2.363281 7.585937 6.015625 9.171875 27.25 11.835937 44.859375 38.679687 44.859375 68.390625v38.175781h-20v-38.175781c0-8.191407-1.886719-16.417969-5.449219-23.78125-2.40625-4.972657-8.390625-7.050781-13.359375-4.644531-4.972656 2.410156-7.050781 8.386718-4.644531 13.359374 2.292969 4.730469 3.453125 9.800782 3.453125 15.066407v38.175781h-92v-38.175781c0-29.710938 17.609375-56.554688 44.859375-68.390625zm-115.734375-119.433594v64.574219h-30.25v-64.574219zm-36.265625 119.433594c3.652344-1.585938 6.015625-5.1875 6.015625-9.171875v-25.6875h30.25v25.6875c0 3.984375 2.363281 7.585937 6.015625 9.171875 27.25 11.835937 44.859375 38.679687 44.859375 68.390625v38.175781h-132v-38.175781c0-29.710938 17.609375-56.554688 44.859375-68.390625zm-44.859375 292.382812h132v60.183594h-132zm152 0h132v60.183594h-132zm152 60.183594v-60.183594h70.332031c5.523438 0 10-4.476562 10-10 0-5.519531-4.476562-10-10-10h-70.332031v-145.816406h132v226zm0 0"/><path d="m432 411.820312c-2.628906 0-5.210938 1.070313-7.070312 2.929688-1.859376 1.859375-2.929688 4.429688-2.929688 7.070312 0 2.628907 1.070312 5.210938 2.929688 7.070313 1.859374 1.859375 4.441406 2.929687 7.070312 2.929687s5.210938-1.070312 7.070312-2.929687c1.859376-1.859375 2.929688-4.441406 2.929688-7.070313 0-2.628906-1.070312-5.210937-2.929688-7.070312-1.859374-1.859375-4.441406-2.929688-7.070312-2.929688zm0 0"/><path d="m390 301.273438c-20.753906 0-37.636719 16.882812-37.636719 37.636718 0 20.75 16.882813 37.636719 37.636719 37.636719s37.636719-16.886719 37.636719-37.636719c0-20.753906-16.882813-37.636718-37.636719-37.636718zm0 55.273437c-9.726562 0-17.636719-7.914063-17.636719-17.636719 0-9.726562 7.910157-17.636718 17.636719-17.636718s17.636719 7.910156 17.636719 17.636718c0 9.722656-7.910157 17.636719-17.636719 17.636719zm0 0"/><path d="m86 301.273438c-20.753906 0-37.636719 16.882812-37.636719 37.636718 0 20.75 16.882813 37.636719 37.636719 37.636719s37.636719-16.886719 37.636719-37.636719c0-20.753906-16.882813-37.636718-37.636719-37.636718zm0 55.273437c-9.726562 0-17.636719-7.914063-17.636719-17.636719 0-9.726562 7.910157-17.636718 17.636719-17.636718s17.636719 7.910156 17.636719 17.636718c0 9.722656-7.910157 17.636719-17.636719 17.636719zm0 0"/><path d="m246.671875 173.671875c2.628906 0 5.207031-1.070313 7.066406-2.933594 1.859375-1.867187 2.933594-4.4375 2.933594-7.066406 0-2.632813-1.070313-5.210937-2.933594-7.070313-1.859375-1.863281-4.4375-2.929687-7.066406-2.929687-2.640625 0-5.210937 1.066406-7.070313 2.929687-1.871093 1.859376-2.929687 4.4375-2.929687 7.070313 0 2.628906 1.058594 5.199219 2.929687 7.066406 1.859376 1.863281 4.4375 2.933594 7.070313 2.933594zm0 0"/></svg>