<svg height="512pt" viewBox="0 0 512 512.001" width="512pt" xmlns="http://www.w3.org/2000/svg"><path d="m256 121.304688h.457031c5.523438 0 10-4.480469 10-10 0-5.523438-4.476562-10-10-10h-.457031c-5.523438 0-10 4.476562-10 10 0 5.519531 4.476562 10 10 10zm0 0"/><path d="m509 89.964844c-20.253906-19.839844-45.15625-36.996094-74.03125-51.03125v-3.308594c0-19.644531-15.980469-35.625-35.625-35.625-11.917969 0-22.480469 5.890625-28.949219 14.902344-36.347656-9.886719-74.796875-14.902344-114.394531-14.902344-39.636719 0-78.132812 5.035156-114.527344 14.945312-6.464844-9.039062-17.042968-14.945312-28.980468-14.945312-19.644532 0-35.625 15.980469-35.625 35.625v3.382812c-28.796876 14.011719-53.632813 31.136719-73.863282 50.957032-1.921875 1.878906-3.003906 4.453125-3.003906 7.140625v225.789062c0 2.6875 1.082031 5.261719 3.003906 7.140625 25.351563 24.835938 58.863282 45.929688 97.160156 61.234375-.027343.574219-.046874 1.152344-.046874 1.730469v45h-9.117188c-35.289062 0-64 28.710938-64 64 0 5.523438 4.476562 10 10 10h183.5c5.523438 0 10-4.476562 10-10s-4.476562-10-10-10h-172.351562c4.539062-19.460938 22.027343-34 42.851562-34h330c20.824219 0 38.316406 14.539062 42.855469 34h-168.355469c-5.523438 0-10 4.476562-10 10s4.476562 10 10 10h179.5c5.523438 0 10-4.476562 10-10 0-35.289062-28.710938-64-64-64h-9.117188v-45c0-.578125-.019531-1.148438-.042968-1.722656 38.308594-15.3125 71.796875-36.394532 97.15625-61.238282 1.921875-1.882812 3.003906-4.457031 3.003906-7.144531v-225.789062c0-2.6875-1.082031-5.261719-3-7.140625zm-17 110.035156h-57.03125v-58.601562c21.753906 5.535156 40.890625 11.992187 57.03125 19.257812zm-57.03125 20h57.03125v39.34375c-16.152344 7.269531-35.277344 13.730469-57.03125 19.261719zm57.03125-118.632812v37.53125c-16.617188-6.839844-35.71875-12.90625-57.03125-18.109376v-59.453124c21.84375 11.476562 40.980469 24.898437 57.03125 40.03125zm-315.882812 311.527343c25.933593 4.714844 52.757812 7.105469 79.882812 7.105469 27.121094 0 53.949219-2.394531 79.882812-7.109375v25.109375h-159.765624zm159.777343-20.34375c-25.863281 4.941407-52.714843 7.449219-79.894531 7.449219-27.183594 0-54.03125-2.507812-79.894531-7.449219-.203125-17.296875-12.011719-31.839843-27.988281-36.207031v-44.242188c34.390624 4.375 70.625 6.59375 107.882812 6.59375 37.179688 0 73.367188-2.210937 107.71875-6.570312v44.265625c-15.890625 4.417969-27.621094 18.925781-27.824219 36.160156zm27.824219-100.585937c-34.261719 4.464844-70.464844 6.730468-107.71875 6.730468-37.332031 0-73.578125-2.269531-107.882812-6.753906v-71.941406h215.601562zm-107.71875-271.964844c37.324219 0 73.535156 4.652344 107.765625 13.828125-.03125.59375-.046875 1.195313-.046875 1.796875v72.25c-17.484375-2.214844-35.609375-3.894531-54.023438-4.992188-5.515624-.320312-10.246093 3.875-10.574218 9.386719-.332032 5.515625 3.875 10.25 9.386718 10.578125 18.855469 1.125 37.394532 2.871094 55.210938 5.1875v71.964844h-215.601562v-71.933594c19.980468-2.609375 40.832031-4.492187 62.09375-5.589844 5.515624-.285156 9.757812-4.988281 9.472656-10.503906s-4.984375-9.742187-10.503906-9.472656c-20.863282 1.078125-41.359376 2.890625-61.0625 5.390625v-72.265625c0-.589844-.015626-1.171875-.042969-1.753906 34.28125-9.203125 70.554687-13.871094 107.925781-13.871094zm-179.132812 180h-56.867188v-39.34375c16.113281-7.253906 35.179688-13.695312 56.867188-19.21875zm-56.867188 20h56.867188v58.558594c-21.679688-5.519532-40.75-11.960938-56.867188-19.214844zm56.867188-158.574219v59.398438c-21.246094 5.191406-40.285157 11.25-56.867188 18.074219v-37.535157c16.027344-15.101562 35.101562-28.488281 56.867188-39.9375zm-56.867188 219.675781c16.582031 6.828126 35.621094 12.882813 56.867188 18.074219v59.363281c-21.671876-11.429687-40.9375-24.910156-56.867188-39.90625zm76.867188 87.097657v-332.574219c0-8.617188 7.011718-15.625 15.625-15.625 8.617187 0 15.625 7.007812 15.625 15.625v320.71875c-9.046876 2.472656-16.757813 8.210938-21.78125 15.867188-3.199219-1.292969-6.347657-2.636719-9.46875-4.011719zm23.25 69.800781v-45c0-9.925781 8.078124-18 18-18 9.925781 0 18 8.074219 18 18v45zm235.765624 0v-45c0-9.925781 8.074219-18 18-18 9.925782 0 18 8.074219 18 18v45zm27.835938-81.703125v-320.671875c0-8.617188 7.007812-15.625 15.625-15.625s15.625 7.007812 15.625 15.625v332.644531c-3.066406 1.347657-6.160156 2.671875-9.300781 3.941407-5.054688-7.703126-12.828125-13.464844-21.949219-15.914063zm51.25 2.328125v-59.410156c21.316406-5.199219 40.40625-11.269532 57.03125-18.113282v37.53125c-15.972656 15.039063-35.292969 28.542969-57.03125 39.992188zm0 0"/><path d="m256 492c-2.628906 0-5.210938 1.070312-7.070312 2.929688-1.859376 1.859374-2.929688 4.441406-2.929688 7.070312s1.070312 5.210938 2.929688 7.070312c1.859374 1.859376 4.441406 2.929688 7.070312 2.929688s5.210938-1.070312 7.070312-2.929688c1.859376-1.859374 2.929688-4.441406 2.929688-7.070312s-1.070312-5.210938-2.929688-7.070312c-1.859374-1.859376-4.441406-2.929688-7.070312-2.929688zm0 0"/></svg>