<svg height="511pt" viewBox="1 0 511.99974 511" width="511pt" xmlns="http://www.w3.org/2000/svg"><path d="m500.164062 109.476562-97.140624-97.140624c-15.78125-15.78125-41.453126-15.78125-57.234376 0-15.777343 15.777343-15.777343 41.453124 0 57.234374l28.410157 28.410157-15.207031 15.207031c-3.546876 3.546875-5.496094 8.265625-5.496094 13.28125 0 4.875 1.859375 9.460938 5.21875 12.972656l-.917969.917969c-1.035156 1.035156-2.5625 1.457031-3.984375 1.09375l-10.292969-2.632813c-6.734375-1.722656-13.78125.441407-18.386719 5.648438-4.609374 5.207031-5.898437 12.464844-3.367187 18.9375l5.160156 13.214844-7.679687-2.046875c-5.667969-1.515625-11.585938-.265625-16.136719 3.316406l-3.777344-3.78125c-3.90625-3.90625-10.238281-3.90625-14.144531 0l-74.140625 74.144531c-5.050781 5.050782-12.273437 7.375-19.320313 6.21875-45.898437-7.535156-92.929687 7.597656-125.816406 40.484375l-62.980468 62.980469c-3.90625 3.90625-3.90625 10.234375 0 14.140625 3.902343 3.90625 10.234374 3.90625 14.140624 0l27.558594-27.558594 123.273438 123.273438-27.550782 27.546875c-3.902343 3.90625-3.902343 10.238281 0 14.144531 1.953126 1.949219 4.511719 2.925781 7.070313 2.925781 2.5625 0 5.121094-.976562 7.074219-2.925781l62.964844-62.96875c32.886718-32.890625 48.023437-79.921875 40.488281-125.816406-1.15625-7.046875 1.167969-14.269531 6.21875-19.320313l74.144531-74.144531c1.875-1.875 2.925781-4.417969 2.925781-7.070313 0-2.652343-1.050781-5.195312-2.925781-7.070312l-17.371094-17.371094 3.785156 1.011719c6.757813 1.800781 13.847657-.316406 18.507813-5.53125 4.660156-5.210937 5.976563-12.496094 3.429687-19.007813l-5.175781-13.25 7.371094 1.882813c8.226563 2.105469 17.070313-.320313 23.078125-6.324219l.910156-.910156c3.648438 3.601562 8.414063 5.40625 13.183594 5.40625 4.808594 0 9.617188-1.832031 13.28125-5.492188l15.207031-15.207031 28.410157 28.410157c7.890624 7.890624 18.253906 11.835937 28.617187 11.835937s20.726563-3.945313 28.617187-11.835937c15.78125-15.777344 15.78125-41.453126 0-57.234376zm-296.84375 322.894532-21.277343 21.277344-14.140625-14.140626 21.277344-21.277343c12.824218-12.824219 22.144531-28.890625 26.953124-46.464844 1.457032-5.324219-1.679687-10.824219-7.003906-12.28125-5.328125-1.457031-10.828125 1.679687-12.285156 7.007813-3.894531 14.222656-11.433594 27.226562-21.804688 37.597656l-21.277343 21.277344-94.992188-94.992188 21.28125-21.277344c28.34375-28.34375 68.878907-41.390625 108.433594-34.890625 9.066406 1.488281 18.285156-.070312 26.273437-4.203125l27.65625 27.65625c-4.132812 7.988282-5.6875 17.207032-4.199218 26.277344 6.496094 39.554688-6.550782 80.089844-34.894532 108.433594zm51.828126-150.257813-24.839844-24.84375 32.875-32.875 24.839844 24.84375zm47.019531-47.019531-24.84375-24.839844 14.933593-14.933594 24.839844 24.84375zm83.863281-96.589844-12.035156-12.035156 14.34375-14.34375 12.035156 12.03125zm99.992188 14.066406c-7.980469 7.980469-20.96875 7.980469-28.953126 0l-97.140624-97.144531c-3.867188-3.863281-5.996094-9.003906-5.996094-14.472656s2.128906-10.609375 5.996094-14.476563c3.867187-3.867187 9.007812-5.996093 14.476562-5.996093s10.609375 2.128906 14.476562 5.996093l97.140626 97.140626c7.980468 7.984374 7.980468 20.972656 0 28.953124zm0 0"/><path d="m207.101562 318.757812c-4.839843.730469-9.296874 5.230469-8.378906 11.488282.007813.058594.015625.113281.023438.171875.917968 5.589843 5.511718 8.527343 9.933594 8.527343.515624 0 1.03125-.039062 1.539062-.121093 4.832031-.773438 9.25-5.308594 8.277344-11.5625-.96875-6.253907-6.554688-9.230469-11.394532-8.503907zm0 0"/></svg>