<svg height="512pt" viewBox="-4 0 512 512.00001" width="512pt" xmlns="http://www.w3.org/2000/svg"><path d="m248.65625 266.167969c2.640625 0 5.210938-1.070313 7.078125-2.929688 1.859375-1.859375 2.921875-4.441406 2.921875-7.070312 0-2.640625-1.0625-5.210938-2.921875-7.070313-1.867187-1.867187-4.4375-2.929687-7.078125-2.929687-2.628906 0-5.210938 1.0625-7.070312 2.929687-1.859376 1.859375-2.929688 4.429688-2.929688 7.070313 0 2.628906 1.070312 5.210937 2.929688 7.070312 1.859374 1.859375 4.441406 2.929688 7.070312 2.929688zm0 0"/><path d="m501.019531 421.703125-71.289062-61.402344c-18.328125-15.785156-38.808594-28.570312-60.660157-38.097656h62.210938c36.414062 0 66.039062-29.625 66.039062-66.039063 0-5.523437-4.476562-10-10-10h-132.597656v-52.773437c33.898438-4.867187 60.042969-34.089844 60.042969-69.3125v-114.078125c0-5.523438-4.476563-10-10-10h-120.082031c-5.523438 0-10 4.476562-10 10v114.078125c0 35.222656 26.144531 64.445313 60.042968 69.3125v52.773437h-46.148437c-5.523437 0-10 4.476563-10 10 0 5.523438 4.476563 10 10 10h187.648437c-4.578124 20.59375-22.992187 36.039063-44.941406 36.039063h-365.246094c-21.953124 0-40.367187-15.445313-44.945312-36.039063h184.152344c5.523437 0 10-4.476562 10-10 0-5.523437-4.476563-10-10-10h-42.652344v-52.773437c33.898438-4.867187 60.042969-34.089844 60.042969-69.3125v-114.078125c0-5.523438-4.476563-10-10-10h-120.082031c-5.523438 0-10 4.476562-10 10v114.078125c0 35.222656 26.144531 64.445313 60.042968 69.3125v52.773437h-132.597656c-5.523438 0-10 4.476563-10 10 0 19.097657 8.15625 36.316407 21.15625 48.386719-1.601562 1.050781-3.125 2.265625-4.539062 3.65625l-.355469.347657c-11.472657 11.269531-12.257813 29.597656-1.789063 41.730468l10.582032 12.269532c53.007812 61.4375 126.644531 99.925781 207.347656 108.375 27.03125 2.832031 53.542968 9.351562 78.804687 19.382812l52.84375 20.976562c1.210938.484376 2.460938.710938 3.6875.710938 3.976563 0 7.738281-2.390625 9.296875-6.3125 2.039063-5.132812-.472656-10.945312-5.605468-12.984375l-52.839844-20.980469c-26.960938-10.703125-55.257813-17.664062-84.105469-20.683594-75.621094-7.917968-144.617187-43.980468-194.285156-101.550781l-10.582031-12.265625c-3.601563-4.171875-3.3125-10.5.660156-14.398437l.351562-.347657c3.871094-3.800781 10.136719-3.769531 13.96875.0625l23.652344 23.664063c21.144531 21.15625 45.875 37.6875 73.507812 49.136719 27.632813 11.453125 56.8125 17.257812 86.722657 17.257812h47.863281c17.285156 0 31.347656-14.0625 31.347656-31.347656s-14.0625-31.347656-31.347656-31.347656h-73.546875c-7.636719 0-13.851563-6.214844-13.851563-13.851563s6.214844-13.847656 13.851563-13.847656h70.457031c52.621094 0 103.558594 18.910156 143.421875 53.25l71.289063 61.40625c4.1875 3.601563 10.5 3.132813 14.101562-1.054687 3.605469-4.179688 3.136719-10.496094-1.046875-14.101563zm-106.253906-401.703125v34.035156h-100.082031v-34.035156zm-100.082031 104.078125v-50.042969h100.082031v50.042969c0 27.59375-22.449219 50.039063-50.039063 50.039063-27.59375 0-50.042968-22.449219-50.042968-50.039063zm-92.046875-104.078125v34.035156h-100.082031v-34.035156zm-100.082031 104.078125v-50.042969h100.082031v50.042969c0 27.59375-22.449219 50.039063-50.042969 50.039063-27.589844 0-50.039062-22.449219-50.039062-50.039063zm100.242187 245.824219h73.546875c6.257812 0 11.347656 5.089844 11.347656 11.347656s-5.089844 11.347656-11.347656 11.347656h-47.863281c-55.191407 0-107.070313-21.496094-146.085938-60.53125l-9.855469-9.863281h99.382813c-1.90625 4.230469-2.976563 8.917969-2.976563 13.851563 0 18.664062 15.1875 33.847656 33.851563 33.847656zm0 0"/></svg>