<svg height="512pt" viewBox="-69 0 512 512" width="512pt" xmlns="http://www.w3.org/2000/svg"><path d="m373.835938 319.703125c-1.800782-91.824219-50.242188-173.164063-90.5625-225.226563-23.269532-30.046874-45.953126-53.257812-60.878907-67.4375-9.289062-8.820312-16.359375-14.910156-20.65625-18.464843-8.714843-7.210938-11.0625-8.574219-14.777343-8.574219-3.921876 0-5.941407 1.414062-14.523438 8.621094-4.316406 3.625-11.367188 9.769531-20.457031 18.429687-14.988281 14.28125-37.71875 37.566407-60.902344 67.40625-25.6875 33.066407-46.335937 66.890625-61.363281 100.53125-18.859375 42.21875-28.828125 84.167969-29.6289065 124.605469-.0585937 1.988281-.0859375 3.769531-.0859375 5.445312 0 103.09375 83.871094 186.960938 186.960938 186.960938 103.085937 0 186.957031-83.867188 186.957031-186.960938 0-1.679687-.027344-3.453124-.082031-5.335937zm-186.875 172.296875c-92.0625 0-166.960938-74.898438-166.960938-166.960938 0-1.484374.023438-3.078124.078125-4.964843 1.671875-84.371094 46.324219-160.25 83.488281-209.046875 35.078125-46.054688 70.4375-77.851563 83.519532-88.605469 12.875 10.40625 48.355468 41.988281 83.96875 88.992187 36.855468 48.640626 81.132812 124.324219 82.789062 208.773438.050781 1.777344.074219 3.363281.074219 4.851562 0 92.0625-74.898438 166.960938-166.957031 166.960938zm0 0"/><path d="m309.824219 365.574219c-5.097657-2.136719-10.953125.269531-13.085938 5.359375-13.203125 31.535156-39.324219 55.894531-71.667969 66.828125-5.230468 1.765625-8.039062 7.441406-6.269531 12.675781 1.410157 4.167969 5.300781 6.800781 9.472657 6.800781 1.0625 0 2.140624-.171875 3.203124-.53125 37.78125-12.769531 68.289063-41.21875 83.710938-78.046875 2.132812-5.09375-.269531-10.953125-5.363281-13.085937zm0 0"/><path d="m226.511719 353.71875c19.5625-3.570312 34.449219-20.726562 34.449219-41.308594 0-4.960937-.871094-9.71875-2.457032-14.140625 19.566406-3.566406 34.457032-20.726562 34.457032-41.308593 0-23.160157-18.84375-42-42-42-12.8125 0-24.292969 5.769531-32 14.839843-5.59375-6.578125-13.167969-11.417969-21.800782-13.582031.863282-8.285156 4.503906-15.964844 10.476563-21.941406l2.394531-2.390625c3.902344-3.90625 3.902344-10.238281 0-14.144531-3.90625-3.90625-10.238281-3.902344-14.144531 0l-2.394531 2.394531c-9.730469 9.734375-15.457032 22.398437-16.382813 36-8.777344 2.121093-16.480469 6.996093-22.148437 13.664062-7.710938-9.070312-19.191407-14.839843-32-14.839843-23.160157 0-42 18.839843-42 42 0 20.582031 14.886718 37.742187 34.453124 41.308593-1.585937 4.421875-2.453124 9.179688-2.453124 14.140625 0 20.582032 14.882812 37.738282 34.445312 41.308594-1.582031 4.414062-2.445312 9.164062-2.445312 14.117188 0 23.15625 18.839843 42 42 42 23.15625 0 42-18.84375 42-42 0-4.949219-.867188-9.703126-2.449219-14.117188zm-7.550781-19.308594c-12.132813 0-22-9.867187-22-22 0-12.128906 9.867187-22 22-22 12.128906 0 22 9.871094 22 22 0 12.132813-9.871094 22-22 22zm32-99.449218c12.128906 0 22 9.867187 22 22 0 12.132812-9.871094 22-22 22-12.132813 0-22-9.867188-22-22 0-12.132813 9.867187-22 22-22zm-64 0c12.128906 0 22 9.867187 22 22 0 12.132812-9.871094 22-22 22-12.132813 0-22-9.867188-22-22 0-12.132813 9.867187-22 22-22zm-86 22c0-12.132813 9.867187-22 22-22 12.128906 0 22 9.867187 22 22 0 12.132812-9.871094 22-22 22-12.132813 0-22-9.867188-22-22zm32 55.449218c0-12.128906 9.867187-22 22-22 12.128906 0 22 9.871094 22 22 0 12.132813-9.871094 22-22 22-12.132813 0-22-9.867187-22-22zm54 77.425782c-12.132813 0-22-9.867188-22-22 0-12.132813 9.867187-22 22-22 12.128906 0 22 9.867187 22 22 0 12.132812-9.871094 22-22 22zm0 0"/><path d="m317.960938 325.839844c-2.632813 0-5.210938 1.058594-7.070313 2.921875-1.863281 1.867187-2.929687 4.4375-2.929687 7.078125 0 2.628906 1.066406 5.210937 2.929687 7.070312 1.859375 1.859375 4.4375 2.917969 7.070313 2.917969 2.628906 0 5.207031-1.058594 7.066406-2.917969 1.863281-1.859375 2.933594-4.441406 2.933594-7.070312 0-2.640625-1.070313-5.210938-2.933594-7.078125-1.859375-1.863281-4.4375-2.921875-7.066406-2.921875zm0 0"/></svg>