<svg height="512pt" viewBox="-150 0 512 512" width="512pt" xmlns="http://www.w3.org/2000/svg"><path d="m202.121094 233.671875c-2.628906 0-5.199219 1.058594-7.066406 2.929687-1.859376 1.859376-2.933594 4.429688-2.933594 7.070313 0 2.628906 1.070312 5.207031 2.933594 7.066406 1.859374 1.863281 4.4375 2.933594 7.066406 2.933594 2.644531 0 5.210937-1.070313 7.070312-2.933594 1.871094-1.859375 2.929688-4.4375 2.929688-7.066406 0-2.640625-1.058594-5.210937-2.929688-7.070313-1.859375-1.871093-4.429687-2.929687-7.070312-2.929687zm0 0"/><path d="m212.125 106.0625c0-58.484375-47.578125-106.0625-106.0625-106.0625s-106.0625 47.578125-106.0625 106.0625v299.875c0 58.484375 47.578125 106.0625 106.0625 106.0625s106.0625-47.578125 106.0625-106.0625v-124.9375c0-5.523438-4.476562-10-10-10-5.519531 0-10 4.476562-10 10v124.9375c0 47.457031-38.605469 86.0625-86.0625 86.0625-47.453125 0-86.0625-38.605469-86.0625-86.0625v-299.875c0-47.453125 38.609375-86.0625 86.0625-86.0625 47.457031 0 86.0625 38.609375 86.0625 86.0625v94.9375c0 5.523438 4.480469 10 10 10 5.523438 0 10-4.476562 10-10zm0 0"/><path d="m106.0625 459.507812c27.570312 0 50-22.429687 50-50 0-15.773437-7.535156-30.609374-20-39.984374v-298.523438c0-16.542969-13.457031-30-30-30s-30 13.457031-30 30v298.519531c-12.464844 9.378907-20 24.210938-20 39.988281 0 27.570313 22.429688 50 50 50zm0-398.507812c5.515625 0 10 4.484375 10 10v134.667969h-20v-134.667969c0-5.515625 4.488281-10 10-10zm-14.992188 322.527344c3.089844-1.789063 4.992188-5.085938 4.992188-8.65625v-149.203125h20v149.203125c0 3.570312 1.902344 6.867187 4.992188 8.65625 9.257812 5.359375 15.007812 15.3125 15.007812 25.980468 0 16.542969-13.457031 30-30 30s-30-13.457031-30-30c0-10.667968 5.75-20.621093 15.007812-25.980468zm0 0"/><path d="m170.0625 345.667969c5.523438 0 10-4.480469 10-10 0-5.523438-4.476562-10-10-10h-13c-5.523438 0-10 4.476562-10 10 0 5.519531 4.476562 10 10 10zm0 0"/><path d="m170.0625 265.667969h-13c-5.523438 0-10 4.476562-10 10 0 5.519531 4.476562 10 10 10h13c5.523438 0 10-4.480469 10-10 0-5.523438-4.476562-10-10-10zm0 0"/><path d="m170.0625 205.667969h-13c-5.523438 0-10 4.476562-10 10 0 5.523437 4.476562 10 10 10h13c5.523438 0 10-4.476563 10-10 0-5.523438-4.476562-10-10-10zm0 0"/><path d="m170.0625 145.667969h-13c-5.523438 0-10 4.476562-10 10 0 5.523437 4.476562 10 10 10h13c5.523438 0 10-4.476563 10-10 0-5.523438-4.476562-10-10-10zm0 0"/><path d="m170.0625 85.667969h-13c-5.523438 0-10 4.476562-10 10 0 5.523437 4.476562 10 10 10h13c5.523438 0 10-4.476563 10-10 0-5.523438-4.476562-10-10-10zm0 0"/><path d="m42.0625 345.667969h13c5.523438 0 10-4.480469 10-10 0-5.523438-4.476562-10-10-10h-13c-5.523438 0-10 4.476562-10 10 0 5.519531 4.476562 10 10 10zm0 0"/><path d="m42.0625 285.667969h13c5.523438 0 10-4.480469 10-10 0-5.523438-4.476562-10-10-10h-13c-5.523438 0-10 4.476562-10 10 0 5.519531 4.476562 10 10 10zm0 0"/><path d="m42.0625 225.667969h13c5.523438 0 10-4.476563 10-10 0-5.523438-4.476562-10-10-10h-13c-5.523438 0-10 4.476562-10 10 0 5.523437 4.476562 10 10 10zm0 0"/><path d="m42.0625 165.667969h13c5.523438 0 10-4.476563 10-10 0-5.523438-4.476562-10-10-10h-13c-5.523438 0-10 4.476562-10 10 0 5.523437 4.476562 10 10 10zm0 0"/><path d="m42.0625 105.667969h13c5.523438 0 10-4.476563 10-10 0-5.523438-4.476562-10-10-10h-13c-5.523438 0-10 4.476562-10 10 0 5.523437 4.476562 10 10 10zm0 0"/></svg>