<svg height="512pt" viewBox="0 -20 512 512" width="512pt" xmlns="http://www.w3.org/2000/svg"><path d="m312.839844 154.238281c-15.226563-10.058593-24.3125-26.957031-24.3125-45.203125v-93.105468c0-8.78125-7.144532-15.929688-15.929688-15.929688h-32.941406c-8.78125 0-15.929688 7.144531-15.929688 15.929688v93.105468c0 18.246094-9.085937 35.144532-24.3125 45.203125-20.84375 13.769531-33.285156 36.90625-33.285156 61.890625v2.855469.015625.015625l.042969 177.191406c-.023437.289063-.042969.582031-.042969.878907 0 .300781.019532.59375.042969.886718l.015625 64.027344c.003906 5.523438 4.480469 9.996094 10 9.996094h160c2.652344 0 5.199219-1.050782 7.074219-2.929688 1.875-1.875 2.929687-4.417968 2.925781-7.070312l-.058594-245.867188c0-24.984375-12.445312-48.121094-33.289062-61.890625zm-44.3125-134.238281v74.402344h-24.800782v-74.402344zm-58.089844 150.925781c19.34375-12.777343 31.445312-33.621093 33.089844-56.523437h25.199218c1.644532 22.898437 13.746094 43.742187 33.089844 56.523437 13.214844 8.730469 21.796875 22.621094 23.832032 38.074219h-139.046876c2.035157-15.449219 10.621094-29.34375 23.835938-38.074219zm-24.253906 281.070313-.007813-44.910156h28.324219c5.523438 0 10-4.476563 10-10 0-5.523438-4.476562-10-10-10h-28.332031l-.039063-158.085938h140l.039063 158.085938h-28.667969c-5.523438 0-10 4.476562-10 10 0 5.523437 4.476562 10 10 10h28.675781l.007813 44.910156zm0 0"/><path d="m304.128906 315.9375c0-26.46875-21.535156-48-48-48-26.46875 0-48 21.53125-48 48 0 26.464844 21.53125 48 48 48 26.464844 0 48-21.535156 48-48zm-76 0c0-15.441406 12.558594-28 28-28 15.4375 0 28 12.558594 28 28 0 15.4375-12.5625 28-28 28-15.441406 0-28-12.5625-28-28zm0 0"/><path d="m512 333.191406v-114.191406c0-5.523438-4.476562-10-10-10h-104c-5.523438 0-10 4.476562-10 10v114.191406c0 30.785156 22.554688 56.390625 52.007812 61.183594l.042969 57.621094h-30.324219c-5.523437 0-10 4.480468-10 10 0 5.523437 4.476563 10 10 10h80.667969c5.519531 0 10-4.476563 10-10 0-5.519532-4.480469-10-10-10h-30.34375l-.042969-57.625c29.441407-4.800782 51.992188-30.402344 51.992188-61.179688zm-20-104.191406v42.191406h-84v-42.191406zm-84 104.191406v-42h84v42c0 23.160156-18.839844 42-42 42s-42-18.839844-42-42zm0 0"/><path d="m114 209h-104c-5.523438 0-10 4.476562-10 10v114.191406c0 30.785156 22.554688 56.390625 52.007812 61.183594l.042969 57.621094h-30.324219c-5.523437 0-10 4.480468-10 10 0 5.523437 4.476563 10 10 10h80.667969c5.523438 0 10-4.476563 10-10 0-5.519532-4.476562-10-10-10h-30.339843l-.046876-57.625c29.445313-4.800782 51.992188-30.402344 51.992188-61.179688v-114.191406c0-5.523438-4.476562-10-10-10zm-10 20v42.191406h-84v-42.191406zm-42 146.191406c-23.160156 0-42-18.839844-42-42v-42h84v42c0 23.160156-18.839844 42-42 42zm0 0"/><path d="m256.160156 387.089844c-2.640625 0-5.210937 1.058594-7.070312 2.929687-1.859375 1.859375-2.929688 4.429688-2.929688 7.070313 0 2.628906 1.070313 5.210937 2.929688 7.070312s4.441406 2.929688 7.070312 2.929688 5.210938-1.070313 7.070313-2.929688c1.859375-1.871094 2.929687-4.441406 2.929687-7.070312s-1.070312-5.210938-2.929687-7.070313c-1.859375-1.871093-4.441407-2.929687-7.070313-2.929687zm0 0"/></svg>