<svg height="512pt" viewBox="0 0 512 512" width="512pt" xmlns="http://www.w3.org/2000/svg"><path d="m236 0h-206c-16.542969 0-30 13.457031-30 30v452c0 16.542969 13.457031 30 30 30h206c16.542969 0 30-13.457031 30-30v-452c0-16.542969-13.457031-30-30-30zm-206 20h206c5.515625 0 10 4.484375 10 10v88h-226v-88c0-5.515625 4.484375-10 10-10zm216 354h-226v-236h226zm-10 118h-10v-38c0-5.523438-4.476562-10-10-10s-10 4.476562-10 10v38h-176c-5.515625 0-10-4.484375-10-10v-88h226v88c0 5.515625-4.484375 10-10 10zm0 0"/><path d="m76.152344 264.980469c-.75 2.796875-1.152344 5.734375-1.152344 8.765625 0 15.683594 10.679688 28.914062 25.144531 32.820312-.742187 2.792969-1.144531 5.722656-1.144531 8.746094 0 18.75 15.253906 34 34 34s34-15.25 34-34c0-3.023438-.402344-5.953125-1.144531-8.742188 14.464843-3.910156 25.144531-17.140624 25.144531-32.824218 0-3.03125-.402344-5.96875-1.152344-8.765625 14.472656-3.90625 25.152344-17.136719 25.152344-32.824219 0-18.75-15.253906-34-34-34-9.359375 0-17.847656 3.800781-24 9.941406-3.757812-3.75-8.390625-6.621094-13.558594-8.292968.917969-4.855469 3.265625-9.324219 6.835938-12.890626l1.792968-1.796874c3.90625-3.902344 3.90625-10.234376 0-14.140626s-10.234374-3.90625-14.140624 0l-1.796876 1.792969c-7.304687 7.304688-11.769531 16.6875-12.863281 26.8125-5.453125 1.632813-10.339843 4.59375-14.269531 8.515625-6.152344-6.140625-14.640625-9.941406-24-9.941406-18.746094 0-34 15.25-34 34 0 15.6875 10.679688 28.917969 25.152344 32.824219zm18.847656 8.765625c0-7.722656 6.28125-14 14-14s14 6.277344 14 14c0 7.71875-6.28125 14-14 14s-14-6.28125-14-14zm38 55.566406c-7.71875 0-14-6.28125-14-14s6.28125-14 14-14 14 6.28125 14 14-6.28125 14-14 14zm24-41.566406c-7.71875 0-14-6.28125-14-14 0-7.722656 6.28125-14 14-14s14 6.277344 14 14c0 7.71875-6.28125 14-14 14zm24-69.589844c7.71875 0 14 6.28125 14 14s-6.28125 14-14 14-14-6.28125-14-14 6.28125-14 14-14zm-48 0c7.71875 0 14 6.28125 14 14s-6.28125 14-14 14-14-6.28125-14-14 6.28125-14 14-14zm-48 0c7.71875 0 14 6.28125 14 14s-6.28125 14-14 14-14-6.28125-14-14 6.28125-14 14-14zm0 0"/><path d="m216 407c-2.628906 0-5.210938 1.070312-7.070312 2.929688-1.859376 1.859374-2.929688 4.441406-2.929688 7.070312s1.070312 5.210938 2.929688 7.070312c1.859374 1.859376 4.441406 2.929688 7.070312 2.929688s5.210938-1.070312 7.070312-2.929688c1.859376-1.859374 2.929688-4.441406 2.929688-7.070312s-1.070312-5.210938-2.929688-7.070312c-1.859374-1.859376-4.441406-2.929688-7.070312-2.929688zm0 0"/><path d="m461.125 123.957031v-113.957031c0-5.523438-4.476562-10-10-10h-50.25c-5.523438 0-10 4.476562-10 10v113.957031c-31.113281 16.191407-50.875 48.421875-50.875 83.867188v294.175781c0 5.523438 4.476562 10 10 10h152c5.523438 0 10-4.476562 10-10v-294.175781c0-35.445313-19.761719-67.675781-50.875-83.867188zm-20-103.957031v64.574219h-30.25v-64.574219zm-36.265625 119.433594c3.652344-1.585938 6.015625-5.1875 6.015625-9.171875v-25.6875h30.25v25.6875c0 3.980469 2.363281 7.585937 6.015625 9.171875 27.25 11.835937 44.859375 38.679687 44.859375 68.390625v38.175781h-132v-38.175781c0-29.710938 17.609375-56.554688 44.859375-68.390625zm-44.859375 352.566406v-60.183594h70.332031c5.523438 0 10-4.476562 10-10 0-5.519531-4.476562-10-10-10h-70.332031v-145.816406h132v226zm0 0"/><path d="m468 411.820312c-2.628906 0-5.210938 1.070313-7.070312 2.929688-1.859376 1.859375-2.929688 4.429688-2.929688 7.070312 0 2.628907 1.070312 5.210938 2.929688 7.070313 1.859374 1.859375 4.441406 2.929687 7.070312 2.929687s5.210938-1.070312 7.070312-2.929687c1.859376-1.859375 2.929688-4.441406 2.929688-7.070313 0-2.640624-1.070312-5.210937-2.929688-7.070312-1.859374-1.859375-4.441406-2.929688-7.070312-2.929688zm0 0"/><path d="m426 301.273438c-20.753906 0-37.636719 16.882812-37.636719 37.636718 0 20.75 16.882813 37.636719 37.636719 37.636719s37.636719-16.886719 37.636719-37.636719c0-20.753906-16.882813-37.636718-37.636719-37.636718zm0 55.273437c-9.726562 0-17.636719-7.914063-17.636719-17.636719 0-9.726562 7.914063-17.636718 17.636719-17.636718s17.636719 7.910156 17.636719 17.636718c0 9.722656-7.910157 17.636719-17.636719 17.636719zm0 0"/></svg>