<svg height="512pt" viewBox="-27 0 512 512" width="512pt" xmlns="http://www.w3.org/2000/svg"><path d="m448 0h-438c-5.523438 0-10 4.476562-10 10v492c0 5.523438 4.476562 10 10 10h438c5.523438 0 10-4.476562 10-10v-492c0-5.523438-4.476562-10-10-10zm-10 492h-418v-472h418zm0 0"/><path d="m58 464h342c5.523438 0 10-4.476562 10-10v-247.304688c0-5.523437-4.476562-10-10-10s-10 4.476563-10 10v237.304688h-322v-376h322v46.332031c0 5.523438 4.476562 10 10 10s10-4.476562 10-10v-56.332031c0-5.523438-4.476562-10-10-10h-342c-5.523438 0-10 4.476562-10 10v396c0 5.523438 4.476562 10 10 10zm0 0"/><path d="m321 168.253906c0-20.589844-16.746094-37.335937-37.332031-37.335937-10.785157 0-20.511719 4.601562-27.332031 11.941406-4.558594-4.902344-10.417969-8.578125-17.019532-10.480469.917969-6.277344 3.8125-12.070312 8.378906-16.636718l2.042969-2.042969c3.90625-3.90625 3.90625-10.238281 0-14.144531-3.90625-3.902344-10.238281-3.902344-14.144531 0l-2.042969 2.046874c-8.3125 8.3125-13.308593 19.054688-14.339843 30.628907-6.820313 1.855469-12.863282 5.59375-17.542969 10.628906-6.824219-7.339844-16.550781-11.941406-27.332031-11.941406-20.589844 0-37.335938 16.746093-37.335938 37.332031 0 17.714844 12.40625 32.578125 28.984375 36.382812-1.070313 3.472657-1.648437 7.160157-1.648437 10.980469 0 17.714844 12.402343 32.574219 28.976562 36.382813-1.066406 3.46875-1.644531 7.148437-1.644531 10.960937 0 20.585938 16.746093 37.332031 37.332031 37.332031s37.335938-16.746093 37.335938-37.332031c0-3.8125-.578126-7.492187-1.648438-10.960937 16.578125-3.808594 28.980469-18.667969 28.980469-36.382813 0-3.820312-.582031-7.507812-1.652344-10.980469 16.578125-3.804687 28.984375-18.664062 28.984375-36.378906zm-92-17.335937c9.558594 0 17.332031 7.777343 17.332031 17.335937 0 9.554688-7.773437 17.332032-17.332031 17.332032s-17.332031-7.777344-17.332031-17.332032c0-9.558594 7.773437-17.335937 17.332031-17.335937zm-72 17.335937c0-9.558594 7.777344-17.335937 17.332031-17.335937 9.558594 0 17.332031 7.777343 17.332031 17.335937 0 9.554688-7.773437 17.332032-17.332031 17.332032-9.558593 0-17.332031-7.777344-17.332031-17.332032zm27.332031 47.363282c0-9.558594 7.777344-17.335938 17.332031-17.335938 9.558594 0 17.335938 7.777344 17.335938 17.335938 0 9.554687-7.777344 17.332031-17.332031 17.332031-9.558594 0-17.335938-7.773438-17.335938-17.332031zm44.667969 64.671874c-9.558594 0-17.332031-7.773437-17.332031-17.332031 0-9.558593 7.773437-17.332031 17.332031-17.332031s17.332031 7.773438 17.332031 17.332031c0 9.558594-7.773437 17.332031-17.332031 17.332031zm27.332031-47.339843c-9.558593 0-17.332031-7.773438-17.332031-17.332031 0-9.558594 7.777344-17.335938 17.332031-17.335938 9.558594 0 17.332031 7.777344 17.332031 17.335938 0 9.558593-7.773437 17.332031-17.332031 17.332031zm27.335938-47.363281c-9.558594 0-17.332031-7.777344-17.332031-17.332032 0-9.558594 7.773437-17.335937 17.332031-17.335937 9.558593 0 17.332031 7.777343 17.332031 17.335937 0 9.554688-7.777344 17.332032-17.332031 17.332032zm0 0"/><path d="m178.226562 337.4375-12.382812 36.273438-12.378906-36.273438c-1.382813-4.050781-5.1875-6.769531-9.464844-6.769531s-8.082031 2.71875-9.464844 6.769531l-12.382812 36.273438-12.382813-36.273438c-1.78125-5.226562-7.464843-8.019531-12.691406-6.234375s-8.019531 7.46875-6.234375 12.695313l21.847656 64c1.378906 4.046874 5.183594 6.769531 9.460938 6.769531 4.28125 0 8.082031-2.722657 9.464844-6.769531l12.382812-36.277344 12.382812 36.277344c1.382813 4.046874 5.183594 6.769531 9.464844 6.769531 4.277344 0 8.082032-2.722657 9.460938-6.769531l21.847656-64c1.785156-5.226563-1.007812-10.910157-6.234375-12.695313-5.226563-1.78125-10.910156 1.007813-12.695313 6.234375zm0 0"/><path d="m221.050781 330.667969c-5.523437 0-10 4.476562-10 10v64c0 5.519531 4.476563 10 10 10 5.523438 0 10-4.480469 10-10v-64c0-5.523438-4.476562-10-10-10zm0 0"/><path d="m288.277344 340.667969v30.410156l-23.441406-35.882813c-2.417969-3.703124-6.984376-5.378906-11.222657-4.113281-4.242187 1.261719-7.148437 5.160157-7.148437 9.585938v64c0 5.519531 4.476562 10 10 10 5.523437 0 10-4.480469 10-10v-30.410157l23.441406 35.878907c1.882812 2.878906 5.0625 4.53125 8.375 4.53125.949219 0 1.90625-.136719 2.851562-.417969 4.238282-1.261719 7.144532-5.160156 7.144532-9.582031v-64c0-5.523438-4.476563-10-10-10-5.519532 0-10 4.476562-10 10zm0 0"/><path d="m357.585938 350.667969c5.523437 0 10-4.480469 10-10 0-5.523438-4.476563-10-10-10h-25.601563c-5.519531 0-10 4.476562-10 10v64c0 5.519531 4.480469 10 10 10h25.710937c5.523438 0 10-4.480469 10-10 0-5.523438-4.476562-10-10-10h-15.710937v-14.136719h15.601563c5.523437 0 10-4.476562 10-10 0-5.519531-4.476563-10-10-10h-15.601563v-9.863281zm0 0"/><path d="m400 149.960938c-2.628906 0-5.210938 1.058593-7.070312 2.929687-1.859376 1.859375-2.929688 4.4375-2.929688 7.070313 0 2.628906 1.070312 5.210937 2.929688 7.070312 1.859374 1.859375 4.441406 2.929688 7.070312 2.929688s5.210938-1.070313 7.070312-2.929688c1.859376-1.859375 2.929688-4.441406 2.929688-7.070312 0-2.632813-1.070312-5.210938-2.929688-7.070313-1.859374-1.871094-4.441406-2.929687-7.070312-2.929687zm0 0"/></svg>