<svg height="511.999pt" viewBox="1 1 511.999 511.999" width="511.999pt" xmlns="http://www.w3.org/2000/svg"><path d="m385.304688 0c-66.492188 0-121.183594 51.492188-126.300782 116.695312h-83.195312c-.84375 0-1.660156.113282-2.445313.3125l-67.832031-92.90625c-1.882812-2.578124-4.882812-4.101562-8.078125-4.101562h-87.453125c-5.523438 0-10 4.476562-10 10v40c0 5.523438 4.476562 10 10 10h62.070312l26.945313 36.695312h-64.730469c-5.523437 0-10 4.476563-10 10v42.542969c0 92.085938 67.449219 168.703125 155.535156 183.074219v105.789062l-51.851562 21.699219c-7.453125 3.117188-11.546875 10.828125-9.957031 18.746094 1.589843 7.921875 8.339843 13.453125 16.417969 13.453125h150.726562c8.082031 0 14.832031-5.535156 16.421875-13.457031 1.589844-7.925781-2.507813-15.632813-9.964844-18.746094l-51.792969-21.636719v-105.855468c59.105469-9.660157 108.910157-47.335938 135.273438-98.914063h10.210938c69.859374 0 126.695312-56.835937 126.695312-126.695313 0-69.859374-56.835938-126.695312-126.695312-126.695312zm-308.171876 60h-57.132812v-20h72.375l141.710938 194.097656c.410156.5625.871093 1.070313 1.367187 1.519532-3.984375 6.765624-6.859375 13.953124-8.558594 21.414062l-141.703125-192.949219c-1.882812-2.566406-4.875-4.082031-8.058594-4.082031zm185.542969 253.21875c-11.402343-11.480469-17.589843-25.480469-17.589843-40.128906 0-14.648438 6.1875-28.648438 17.589843-40.128906 11.398438 11.480468 17.585938 25.480468 17.585938 40.128906 0 14.648437-6.1875 28.648437-17.585938 40.128906zm-148.972656-176.523438 19.320313 26.304688h-88.738282v-26.304688zm-68.84375 46.304688h33.546875c-4.570312.589844-8.164062 4.230469-8.664062 8.832031-2.796876 25.765625 4.742187 49.035157 21.234374 65.527344 14.234376 14.234375 33.527344 21.800781 55.117188 21.800781 3.414062 0 6.886719-.1875 10.40625-.570312 4.667969-.507813 8.355469-4.195313 8.863281-8.863282 2.796875-25.765624-4.742187-49.035156-21.230469-65.523437-11.917968-11.921875-27.378906-19.160156-44.761718-21.203125h48.34375l79.796875 108.660156c3.722656 14.03125 11.667969 27.015625 23.324219 37.9375-13.128907 3.359375-26.878907 5.148438-41.039063 5.148438-86.628906 0-157.917969-66.898438-164.9375-151.746094zm44.320313 19.402344c16.179687.058594 30.453124 5.582031 40.8125 15.941406 10.355468 10.355469 15.878906 24.628906 15.9375 40.808594-16.179688-.054688-30.453126-5.578125-40.8125-15.9375-10.355469-10.355469-15.882813-24.628906-15.9375-40.8125zm136.785156 271.648437 42.972656 17.949219h-118.308594l43.050782-18.015625c3.71875-1.554687 6.140624-5.195313 6.140624-9.226563v-110.28125c3.300782.175782 6.628907.269532 9.976563.269532 3.363281 0 6.703125-.09375 10.023437-.269532v110.34375c0 4.035157 2.421876 7.671876 6.144532 9.230469zm60.511718-158.175781c9-12.847656 13.789063-27.484375 13.789063-42.785156 0-23.320313-11.125-45.105469-31.324219-61.347656-3.660156-2.941407-8.871094-2.941407-12.53125 0-2.988281 2.402343-5.773437 4.929687-8.359375 7.5625l-26.507812-36.304688h41.132812c5.523438 0 10-4.476562 10-10s-4.476562-10-10-10h-55.734375l-19.207031-26.304688h187.570313v26.304688h-26.304688c-5.523438 0-10 4.476562-10 10s4.476562 10 10 10h25.730469c-4.78125 57.761719-39.339844 107.195312-88.253907 132.875zm108.765626-141.773438c.039062-.363281.0625-3.859374.0625-4.863281v-18.402343l31.898437 31.898437c-9.667969 7.246094-21.265625 12.039063-33.867187 13.484375 1.0625-7.246094 1.710937-14.625 1.90625-22.117188zm46.105468-5.507812-31.898437-31.898438h45.128906c-1.699219 11.839844-6.363281 22.738282-13.230469 31.898438zm-31.898437-51.898438 31.898437-31.898437c6.867188 9.160156 11.53125 20.054687 13.230469 31.898437zm-14.144531-14.144531v-45.128906c11.84375 1.699219 22.738281 6.363281 31.898437 13.230469zm-20 0-31.898438-31.898437c9.164062-6.867188 20.058594-11.53125 31.898438-13.230469zm-46.039063-17.753906 31.898437 31.898437h-45.132812c1.703125-11.84375 6.367188-22.738281 13.234375-31.898437zm56.039063 148.59375h-1.4375c2.023437-5.480469 3.792968-11.078125 5.300781-16.785156 47.839843-2.03125 86.136719-41.578125 86.136719-89.910157 0-49.628906-40.371094-90-90-90-46.246094 0-84.449219 35.0625-89.441407 80h-16.777343c5.054687-54.160156 50.761718-96.695312 106.21875-96.695312 58.832031 0 106.695312 47.863281 106.695312 106.695312 0 58.828126-47.863281 106.695313-106.695312 106.695313zm0 0"/><path d="m180.480469 292.328125c-2.640625 0-5.210938 1.070313-7.082031 2.933594-1.859376 1.859375-2.917969 4.4375-2.917969 7.066406 0 2.632813 1.058593 5.210937 2.917969 7.070313 1.871093 1.871093 4.441406 2.929687 7.082031 2.929687 2.628906 0 5.199219-1.058594 7.070312-2.929687 1.859375-1.859376 2.929688-4.4375 2.929688-7.070313 0-2.628906-1.070313-5.207031-2.929688-7.066406-1.859375-1.863281-4.441406-2.933594-7.070312-2.933594zm0 0"/><path d="m309.109375 163c-2.628906 0-5.210937 1.070312-7.070313 2.929688-1.859374 1.859374-2.929687 4.441406-2.929687 7.070312s1.070313 5.210938 2.929687 7.070312c1.859376 1.859376 4.441407 2.929688 7.070313 2.929688s5.210937-1.070312 7.070313-2.929688c1.859374-1.859374 2.929687-4.441406 2.929687-7.070312s-1.070313-5.210938-2.929687-7.070312c-1.859376-1.859376-4.441407-2.929688-7.070313-2.929688zm0 0"/></svg>