<svg height="511pt" viewBox="-43 1 511 511.999" width="511pt" xmlns="http://www.w3.org/2000/svg"><path d="m111.800781 266c5.523438 0 10-4.476562 10-10v-.460938c0-5.519531-4.476562-10-10-10-5.519531 0-10 4.480469-10 10v.460938c0 5.523438 4.480469 10 10 10zm0 0"/><path d="m406.382812 367.453125c9.367188-35.492187 14.117188-72.949219 14.117188-111.453125 0-38.460938-4.734375-75.867188-14.074219-111.3125 11.859375-5.789062 20.050781-17.96875 20.050781-32.03125 0-19.644531-15.980468-35.625-35.625-35.625h-9.289062c-14.027344-28.871094-31.179688-53.769531-51.027344-74.027344-1.878906-1.921875-4.453125-3.003906-7.144531-3.003906h-225.78125c-2.691406 0-5.265625 1.082031-7.144531 3.003906-19.84375 20.253906-36.996094 45.15625-51.027344 74.027344h-3.3125c-19.644531 0-35.625 15.980469-35.625 35.625 0 11.917969 5.890625 22.480469 14.90625 28.949219-9.886719 36.351562-14.90625 74.796875-14.90625 114.394531 0 39.652344 5.027344 78.144531 14.941406 114.53125-9.035156 6.46875-14.941406 17.042969-14.941406 28.976562 0 19.644532 15.980469 35.625 35.625 35.625h3.390625c14.015625 28.796876 31.140625 53.644532 50.949219 73.863282 1.878906 1.921875 4.457031 3.003906 7.144531 3.003906h225.785156c2.6875 0 5.261719-1.082031 7.144531-3.003906 19.808594-20.21875 36.929688-45.0625 50.949219-73.863282h9.363281c19.644532 0 35.625-15.980468 35.625-35.625 0-14.078124-8.210937-26.273437-20.09375-32.054687zm-113.917968-219.171875c4.464844 34.261719 6.734375 70.464844 6.734375 107.71875 0 37.328125-2.277344 73.574219-6.757813 107.882812h-71.941406v-215.601562zm20.160156 0h74.054688c9.164062 34.226562 13.820312 70.433594 13.820312 107.71875 0 37.339844-4.671875 73.605469-13.871094 107.882812h-74.027344c4.375-34.394531 6.597657-70.628906 6.597657-107.882812 0-37.179688-2.214844-73.367188-6.574219-107.71875zm46.535156-71.25h-59.445312c-5.199219-21.316406-11.269532-40.410156-18.113282-57.03125h37.53125c15.136719 16.058594 28.554688 35.191406 40.027344 57.03125zm-158.660156-57.03125v57.03125h-58.597656c5.539062-21.761719 12-40.890625 19.265625-57.03125zm20 0h39.332031c7.273438 16.15625 13.738281 35.269531 19.269531 57.03125h-58.601562zm-118.632812 0h37.53125c-6.839844 16.613281-12.90625 35.71875-18.109376 57.03125h-59.453124c11.476562-21.839844 24.898437-40.976562 40.03125-57.03125zm-65.742188 77.03125h354.726562c8.617188 0 15.625 7.007812 15.625 15.625 0 8.613281-7.007812 15.625-15.625 15.625h-354.726562c-8.613281 0-15.625-7.011719-15.625-15.625 0-8.617188 7.007812-15.625 15.625-15.625zm-15.625 158.96875c0-37.320312 4.652344-73.535156 13.828125-107.765625.59375.03125 1.195313.046875 1.796875.046875h72.253906c-2.214844 17.484375-3.898437 35.605469-4.996094 54.023438-.328124 5.511718 3.875 10.246093 9.390626 10.578124.199218.011719.402343.015626.601562.015626 5.25 0 9.65625-4.09375 9.972656-9.40625 1.125-18.859376 2.871094-37.398438 5.191406-55.210938h71.960938v215.601562h-71.933594c-2.605468-19.980468-4.492187-40.832031-5.589844-62.09375-.285156-5.515624-4.976562-9.785156-10.503906-9.46875-5.515625.285157-9.753906 4.988282-9.46875 10.503907 1.078125 20.859375 2.886719 41.355469 5.386719 61.058593h-72.265625c-.585938 0-1.171875.015626-1.75.046876-9.207031-34.277344-13.875-70.542969-13.875-107.929688zm41.425781 179.132812h59.398438c5.191406 21.25 11.25 40.289063 18.074219 56.867188h-37.53125c-15.101563-16.019531-28.488282-35.097656-39.941407-56.867188zm158.574219 56.867188v-56.867188h58.5625c-5.523438 21.6875-11.972656 40.746094-19.230469 56.867188zm-20 0h-39.332031c-7.253907-16.113281-13.703125-35.171875-19.230469-56.867188h58.5625zm118.632812 0h-37.53125c6.828126-16.582031 12.882813-35.621094 18.074219-56.867188h59.398438c-11.453125 21.769532-24.839844 40.851563-39.941407 56.867188zm71.71875-76.867188h-354.726562c-8.613281 0-15.625-7.011718-15.625-15.625 0-8.613281 7.011719-15.625 15.625-15.625h354.726562c8.617188 0 15.625 7.011719 15.625 15.625 0 8.613282-7.007812 15.625-15.625 15.625zm0 0"/></svg>