<svg height="512pt" viewBox="0 0 512 512" width="512pt" xmlns="http://www.w3.org/2000/svg"><path d="m512 298c0-13.078125-8.417969-24.222656-20.117188-28.320312v-70.234376c.070313-.472656.117188-.953124.117188-1.445312s-.046875-.972656-.117188-1.445312v-.183594c0-36.761719-17.828124-71.511719-47.691406-92.953125-3.910156-2.804688-6.242187-7.351563-6.242187-12.164063v-81.253906c0-5.523438-4.476563-10-10-10h-42.71875c-5.523438 0-10 4.476562-10 10v81.253906c0 4.8125-2.335938 9.355469-6.242188 12.164063-16.632812 11.941406-29.523437 28.011719-37.691406 46.257812-8.164063-18.246093-21.058594-34.316406-37.691406-46.257812-3.90625-2.808594-6.238281-7.355469-6.238281-12.164063v-81.253906c0-5.523438-4.480469-10-10-10h-42.722657c-5.519531 0-10 4.476562-10 10v81.253906c0 4.808594-2.332031 9.355469-6.238281 12.164063-16.632812 11.941406-29.527344 28.011719-37.691406 46.257812-8.167969-18.246093-21.058594-34.316406-37.691406-46.257812-3.910157-2.808594-6.242188-7.355469-6.242188-12.164063v-81.253906c0-5.523438-4.476562-10-10-10h-42.71875c-5.523438 0-10 4.476562-10 10v81.253906c0 4.808594-2.332031 9.355469-6.242188 12.164063-29.863281 21.441406-47.691406 56.1875-47.691406 92.953125v73.304687c-11.707031 4.09375-20.128906 15.242188-20.128906 28.324219v72c0 7.679688 2.902344 14.6875 7.664062 20-4.761718 5.3125-7.664062 12.320312-7.664062 20v72c0 16.542969 13.457031 30 30 30h452c16.542969 0 30-13.457031 30-30v-72c0-7.679688-2.902344-14.6875-7.664062-20 4.761718-5.3125 7.664062-12.320312 7.664062-20zm-471.871094-90h130.582032v60h-130.582032zm150.585938 0h130.582031v60h-130.582031zm150.585937 0h130.582031v60h-130.582031zm53.929688-124.613281v-31.523438h22.71875v31.523438zm22.71875-63.386719v11.863281h-22.722657v-11.863281zm-37.296875 99.664062c5.722656-4.109374 10-9.820312 12.394531-16.277343h27.085937c2.394532 6.457031 6.667969 12.167969 12.394532 16.277343 22.363281 16.054688 36.546875 41.15625 38.980468 68.335938h-129.835937c2.433594-27.179688 16.617187-52.28125 38.980469-68.335938zm-136.007813-36.277343v-31.523438h22.722657v31.523438zm22.71875-63.386719v11.863281h-22.71875v-11.863281zm-37.296875 99.664062c5.726563-4.109374 10-9.820312 12.394532-16.277343h27.085937c2.394531 6.457031 6.671875 12.167969 12.394531 16.277343 22.367188 16.054688 36.546875 41.15625 38.984375 68.335938h-129.839843c2.433593-27.179688 16.617187-52.28125 38.980468-68.335938zm-136.003906-36.277343v-31.523438h22.71875v31.523438zm22.71875-63.386719v11.863281h-22.71875v-11.863281zm-37.296875 99.664062c5.722656-4.109374 10-9.820312 12.394531-16.277343h27.085938c2.394531 6.457031 6.667968 12.167969 12.394531 16.277343 22.363281 16.054688 36.546875 41.15625 38.980469 68.335938h-129.835938c2.433594-27.179688 16.617188-52.28125 38.980469-68.335938zm412.515625 362.335938c0 5.515625-4.484375 10-10 10h-452c-5.515625 0-10-4.484375-10-10v-72c0-5.515625 4.484375-10 10-10h185c5.523438 0 10-4.476562 10-10s-4.476562-10-10-10h-185c-5.515625 0-10-4.484375-10-10v-72c0-5.515625 4.484375-10 10-10h452c5.515625 0 10 4.484375 10 10v72c0 5.515625-4.484375 10-10 10h-185c-5.523438 0-10 4.476562-10 10s4.476562 10 10 10h185c5.515625 0 10 4.484375 10 10zm0 0"/><path d="m424 344c2.628906 0 5.210938-1.070312 7.070312-2.929688 1.859376-1.859374 2.929688-4.441406 2.929688-7.070312s-1.070312-5.210938-2.929688-7.070312c-1.859374-1.859376-4.441406-2.929688-7.070312-2.929688s-5.210938 1.070312-7.070312 2.929688c-1.859376 1.859374-2.929688 4.441406-2.929688 7.070312s1.070312 5.210938 2.929688 7.070312c1.859374 1.859376 4.441406 2.929688 7.070312 2.929688zm0 0"/><path d="m83.671875 324c-2.640625 0-5.210937 1.070312-7.070313 2.929688-1.871093 1.859374-2.929687 4.441406-2.929687 7.070312s1.058594 5.210938 2.929687 7.070312c1.859376 1.859376 4.429688 2.929688 7.070313 2.929688 2.628906 0 5.199219-1.070312 7.066406-2.929688 1.859375-1.859374 2.933594-4.441406 2.933594-7.070312s-1.070313-5.210938-2.933594-7.070312c-1.859375-1.859376-4.4375-2.929688-7.066406-2.929688zm0 0"/><path d="m424 438c-2.628906 0-5.210938 1.070312-7.070312 2.929688-1.859376 1.859374-2.929688 4.441406-2.929688 7.070312s1.070312 5.210938 2.929688 7.070312c1.859374 1.859376 4.441406 2.929688 7.070312 2.929688s5.210938-1.070312 7.070312-2.929688c1.859376-1.859374 2.929688-4.441406 2.929688-7.070312s-1.070312-5.210938-2.929688-7.070312c-1.859374-1.859376-4.441406-2.929688-7.070312-2.929688zm0 0"/><path d="m83.671875 438c-2.640625 0-5.210937 1.070312-7.070313 2.929688-1.871093 1.859374-2.929687 4.441406-2.929687 7.070312s1.058594 5.210938 2.929687 7.070312c1.859376 1.859376 4.4375 2.929688 7.070313 2.929688 2.628906 0 5.199219-1.070312 7.066406-2.929688 1.859375-1.859374 2.933594-4.441406 2.933594-7.070312s-1.070313-5.210938-2.933594-7.070312c-1.867187-1.859376-4.4375-2.929688-7.066406-2.929688zm0 0"/><path d="m256.128906 380c-2.640625 0-5.207031 1.070312-7.070312 2.929688-1.867188 1.859374-2.929688 4.441406-2.929688 7.070312s1.0625 5.210938 2.929688 7.070312c1.863281 1.859376 4.433594 2.929688 7.070312 2.929688 2.632813 0 5.199219-1.070312 7.070313-2.929688 1.859375-1.859374 2.929687-4.441406 2.929687-7.070312s-1.070312-5.210938-2.929687-7.070312c-1.859375-1.859376-4.4375-2.929688-7.070313-2.929688zm0 0"/></svg>