<svg height="512pt" viewBox="0 -102 512 512" width="512pt" xmlns="http://www.w3.org/2000/svg"><path d="m78.339844 55.671875c2.628906 0 5.210937-1.070313 7.070312-2.933594 1.859375-1.859375 2.929688-4.4375 2.929688-7.066406 0-2.640625-1.070313-5.210937-2.929688-7.070313-1.859375-1.859374-4.429687-2.929687-7.070312-2.929687-2.628906 0-5.210938 1.066406-7.070313 2.929687-1.859375 1.859376-2.929687 4.429688-2.929687 7.070313 0 2.628906 1.070312 5.207031 2.929687 7.066406 1.859375 1.863281 4.441407 2.933594 7.070313 2.933594zm0 0"/><path d="m161.25 123.636719c20.753906 0 37.636719-16.882813 37.636719-37.636719s-16.882813-37.636719-37.636719-37.636719-37.636719 16.882813-37.636719 37.636719 16.882813 37.636719 37.636719 37.636719zm0-55.273438c9.726562 0 17.636719 7.910157 17.636719 17.636719s-7.910157 17.636719-17.636719 17.636719-17.636719-7.910157-17.636719-17.636719 7.910157-17.636719 17.636719-17.636719zm0 0"/><path d="m502 186.875h-97.726562c-11.433594-21.972656-30.871094-38.269531-53.789063-45.960938 5.410156-5.96875 10.050781-12.617187 13.789063-19.789062h97.726562c5.523438 0 10-4.480469 10-10v-50.25c0-5.519531-4.476562-10-10-10h-97.726562c-16.191407-31.113281-48.417969-50.875-83.867188-50.875h-260.40625c-11.027344 0-20 8.972656-20 20v132c0 11.027344 8.972656 20 20 20h20v116c0 11.027344 8.972656 20 20 20h260.40625c35.445312 0 67.675781-19.761719 83.867188-50.875h97.726562c5.523438 0 10-4.480469 10-10v-50.25c0-5.519531-4.476562-10-10-10zm-50-85.75h-48.339844v-30.25h48.339844zm-103.203125-36.265625c1.585937 3.652344 5.191406 6.015625 9.171875 6.015625h25.691406v30.25h-25.691406c-3.980469 0-7.585938 2.363281-9.171875 6.015625-4.957031 11.417969-12.703125 21.410156-22.488281 29.050781-1.957032-.121094-3.921875-.191406-5.902344-.191406h-66.246094v-116h26.246094c29.710938 0 56.554688 17.609375 68.390625 44.859375zm-308.394531 87.140625h-20.402344v-132h214.160156v116h-145.820312v-58c0-5.523438-4.476563-10-10-10-5.519532 0-10 4.476562-10 10v58h-8.339844c-9.660156 0-17.738281 6.882812-19.597656 16zm19.597656 4h48.339844v132h-48.339844zm337.96875 81.125c-3.980469 0-7.585938 2.363281-9.171875 6.015625-11.835937 27.25-38.679687 44.859375-68.390625 44.859375h-192.066406v-132h145.820312v61c0 5.523438 4.476563 10 10 10 5.519532 0 10-4.476562 10-10v-61h26.246094c29.710938 0 56.558594 17.609375 68.390625 44.859375 1.585937 3.652344 5.191406 6.015625 9.171875 6.015625h25.691406v30.25zm94.03125 0h-48.339844v-30.25h48.339844zm0 0"/><path d="m284.160156 251c-2.632812 0-5.210937 1.070312-7.070312 2.929688-1.859375 1.859374-2.929688 4.441406-2.929688 7.070312s1.070313 5.210938 2.929688 7.070312c1.859375 1.859376 4.4375 2.929688 7.070312 2.929688 2.628906 0 5.210938-1.070312 7.070313-2.929688 1.859375-1.859374 2.929687-4.441406 2.929687-7.070312s-1.070312-5.210938-2.929687-7.070312c-1.859375-1.859376-4.441407-2.929688-7.070313-2.929688zm0 0"/><path d="m201.25 184.363281c-20.753906 0-37.636719 16.882813-37.636719 37.636719s16.882813 37.636719 37.636719 37.636719 37.636719-16.882813 37.636719-37.636719-16.882813-37.636719-37.636719-37.636719zm0 55.273438c-9.726562 0-17.636719-7.910157-17.636719-17.636719s7.910157-17.636719 17.636719-17.636719 17.636719 7.910157 17.636719 17.636719-7.910157 17.636719-17.636719 17.636719zm0 0"/></svg>