<svg height="511pt" viewBox="0 1 511 511.99901" width="511pt" xmlns="http://www.w3.org/2000/svg"><path d="m346.09375 225.140625c-4.007812-3.800781-10.335938-3.640625-14.136719.367187-3.800781 4.003907-3.636719 10.335938.367188 14.136719 11.480469 10.902344 15.941406 27.136719 11.632812 42.375l-9.972656 35.273438c-1.503906 5.3125 1.585937 10.835937 6.898437 12.339843.910157.257813 1.824219.378907 2.726563.378907 4.363281 0 8.371094-2.875 9.617187-7.277344l9.972657-35.273437c6.335937-22.40625-.21875-46.289063-17.105469-62.320313zm0 0"/><path d="m487.917969 134.226562c-22.003907-28.113281-55.097657-44.238281-90.796875-44.238281h-91.679688v-37.125l23.476563-37.566406c1.925781-3.082031 2.027343-6.964844.265625-10.144531-1.761719-3.179688-5.109375-5.152344-8.746094-5.152344h-155.875c-3.90625 0-7.449219 2.269531-9.082031 5.8125-1.632813 3.546875-1.054688 7.714844 1.480469 10.683594l31.785156 37.1875v53.257812c0 10.644532-4.425782 20.953125-12.144532 28.28125l-72.695312 69.015625c-23.691406 22.492188-32.890625 55.992188-24 87.429688l8.3125 29.390625c-1.035156.492187-2.058594 1.015625-3.0625 1.601562-17.796875 10.332032-25.160156 31.820313-18.417969 50.53125-4.617187.851563-9.171875 2.488282-13.460937 4.980469-17.789063 10.328125-25.152344 31.800781-18.425782 50.503906-4.667968.867188-9.203124 2.539063-13.429687 4.992188-9.699219 5.636719-16.625 14.707031-19.5 25.550781s-1.359375 22.15625 4.273437 31.855469c5.632813 9.699219 14.707032 16.628906 25.550782 19.503906 3.585937.949219 7.222656 1.421875 10.835937 1.421875 7.3125 0 14.527344-1.929688 21.019531-5.699219 4.285157-2.488281 7.957032-5.625 10.980469-9.210937 8.109375 9.5 19.914063 14.722656 31.992188 14.722656 7.152343 0 14.398437-1.828125 21.019531-5.671875 4.230469-2.457031 7.933594-5.570313 11.003906-9.199219 5.492188 6.449219 12.792969 11.082032 21.152344 13.300782.0625.015624.125.027343.183594.042968 1.582031 1.042969 3.472656 1.65625 5.507812 1.65625h163.304688c13.691406 0 25.855468-9.199218 29.582031-22.375l24.546875-86.824218 50.21875-16.492188c47.445312-15.582031 79.324219-59.601562 79.324219-109.539062v-71.425782c0-25.632812-8.703125-50.871094-24.5-71.058594zm-185.519531-114.230468-12.5 20h-86.542969l-17.09375-20zm-217.414063 333.339844c1.503906-5.679688 5.132813-10.433594 10.214844-13.382813 3.46875-2.015625 7.261719-2.972656 11.007812-2.972656 7.589844 0 14.984375 3.925781 19.0625 10.945312 6.089844 10.488281 2.511719 23.976563-7.976562 30.070313-5.082031 2.949218-11.007813 3.746094-16.6875 2.238281-5.679688-1.503906-10.429688-5.132813-13.382813-10.214844-2.949218-5.078125-3.746094-11.003906-2.238281-16.683593zm72.417969 49.925781v.003906c.003906 0 .003906 0 .003906.003906 2.949219 5.078125 3.742188 11.003907 2.238281 16.683594-1.507812 5.679687-5.132812 10.429687-10.214843 13.382813-5.082032 2.949218-11.007813 3.742187-16.6875 2.238281-5.679688-1.507813-10.433594-5.132813-13.382813-10.214844s-3.746094-11.007813-2.238281-16.6875c1.503906-5.679687 5.132812-10.429687 10.214844-13.382813 3.398437-1.976562 7.179687-2.984374 11.007812-2.984374 1.894531 0 3.800781.246093 5.675781.746093 5.679688 1.503907 10.429688 5.132813 13.382813 10.210938zm-94.082032-7.796875c3.464844-2.015625 7.261719-2.972656 11.007813-2.972656 7.589844 0 14.984375 3.925781 19.0625 10.945312 2.949219 5.082031 3.746094 11.007812 2.238281 16.6875-1.503906 5.679688-5.132812 10.429688-10.210937 13.382812-.003907 0-.003907 0-.003907 0 0 .003907-.003906.003907-.003906.003907-5.082031 2.945312-11.003906 3.742187-16.683594 2.238281-1.960937-.523438-3.800781-1.3125-5.507812-2.308594-.164062-.09375-.328125-.191406-.492188-.28125-3.015624-1.875-5.546874-4.46875-7.382812-7.628906-6.089844-10.484375-2.511719-23.976562 7.976562-30.066406zm-9.761718 93.542968c-5.082032 2.953126-11.007813 3.746094-16.6875 2.242188-5.679688-1.507812-10.429688-5.136719-13.382813-10.21875-2.949219-5.082031-3.746093-11.007812-2.238281-16.683594 1.503906-5.679687 5.132812-10.433594 10.214844-13.382812 3.402344-1.976563 7.179687-2.984375 11.011718-2.984375 1.890626 0 3.796876.246093 5.675782.742187 1.964844.523438 3.808594 1.3125 5.515625 2.3125.160156.09375.320312.1875.484375.273438 3.015625 1.875 5.546875 4.472656 7.382812 7.628906 1.898438 3.269531 2.855469 6.828125 2.960938 10.363281v.105469c.191406 7.777344-3.746094 15.425781-10.9375 19.601562zm74.207031-13.542968c-1.507813 5.679687-5.132813 10.433594-10.214844 13.382812-10.492187 6.09375-23.980469 2.515625-30.070312-7.976562-2.953125-5.078125-3.746094-11.007813-2.242188-16.6875 1.507813-5.675782 5.132813-10.429688 10.214844-13.378906h.003906c0-.003907 0-.003907 0-.003907 3.402344-1.972656 7.179688-2.980469 11.007813-2.980469 1.894531 0 3.796875.246094 5.675781.742188 5.679687 1.507812 10.433594 5.136719 13.382813 10.214844 2.953124 5.082031 3.75 11.007812 2.242187 16.6875zm31.707031-24.835938c3.398438-1.976562 7.179688-2.984375 11.007813-2.984375 1.894531 0 3.800781.246094 5.679687.746094 5.675782 1.503906 10.429688 5.132813 13.378906 10.214844 2.953126 5.078125 3.746094 11.007812 2.242188 16.683593-1.507812 5.679688-5.136719 10.433594-10.214844 13.382813-5.082031 2.953125-11.007812 3.746094-16.6875 2.242187-5.679687-1.507812-10.433594-5.136718-13.382812-10.214843-6.09375-10.488281-2.515625-23.980469 7.976562-30.070313zm179.609375 33.5c-1.300781 4.601563-5.550781 7.816406-10.335937 7.816406h-122.65625c7.980468-12.785156 8.824218-29.464843.742187-43.382812-5.632812-9.703125-14.707031-16.628906-25.546875-19.503906-1.105468-.292969-2.214844-.527344-3.328125-.730469.375-1.066406.722657-2.144531 1.015625-3.25 1.980469-7.472656 1.875-15.167969-.226562-22.40625 7.59375-3.410156 16.058594-4.117187 24.21875-1.953125l3.269531.867188c5.335937 1.414062 10.8125-1.765626 12.226563-7.105469 1.414062-5.335938-1.765626-10.808594-7.101563-12.226563l-3.269531-.867187c-13.296875-3.527344-27.121094-2.121094-39.34375 3.902343-5.285156-5.546874-12.003906-9.554687-19.601563-11.570312-1.109375-.292969-2.226562-.53125-3.34375-.734375 3.964844-11.214844 3.1875-24.03125-3.242187-35.101563-7.480469-12.882812-20.808594-20.292968-34.699219-20.851562l-8.710937-30.804688c-6.859376-24.265624.238281-50.125 18.527343-67.488281l72.695313-69.011719c11.675781-11.089843 18.375-26.679687 18.375-42.785156v-46.949218h76.695312v46.949218c0 16.105469 6.699219 31.695313 18.375 42.785156l72.695313 69.011719c18.289062 17.363281 25.386719 43.222657 18.527343 67.488281l-29.949218 105.914063c-.007813.023437-.011719.046875-.019532.070313zm51.199219-279.890625-48.722656-46.257812h55.5625c14.648437 0 28.226562 6.617187 37.253906 18.152343 6.480469 8.28125 10.050781 18.636719 10.050781 29.152344v71.421875c0 20.492188-13.078125 38.550781-32.546875 44.945313l-6.695312 2.195312 9.097656-32.183594c8.890625-31.433593-.308594-64.933593-24-87.425781zm102.136719 72.472657c0 41.273437-26.347657 77.660156-65.5625 90.539062l-37.417969 12.285156 9.1875-32.480468 19.496094-6.402344c27.695312-9.097656 46.300781-34.792969 46.300781-63.945313v-71.421875c0-14.960937-5.078125-29.691406-14.300781-41.476562-12.84375-16.414063-32.160156-25.824219-53-25.824219h-76.625l-2.910156-2.761719c-6.980469-6.625-11.253907-15.691406-12.011719-25.234375h91.546875c29.507812 0 56.859375 13.328125 75.046875 36.5625 13.058593 16.6875 20.25 37.546875 20.25 58.734375zm0 0"/><path d="m299.769531 192.710938c-2.628906 0-5.207031 1.070312-7.070312 2.929687-1.859375 1.859375-2.929688 4.4375-2.929688 7.070313 0 2.628906 1.070313 5.207031 2.929688 7.066406 1.863281 1.859375 4.441406 2.929687 7.070312 2.929687 2.628907 0 5.210938-1.070312 7.070313-2.929687s2.929687-4.4375 2.929687-7.066406c0-2.632813-1.070312-5.210938-2.929687-7.070313s-4.4375-2.929687-7.070313-2.929687zm0 0"/></svg>