<svg height="511pt" viewBox="1 1 511.99952 511" width="511pt" xmlns="http://www.w3.org/2000/svg"><path d="m491.246094 67.234375-45.984375-45.980469c-27.671875-27.671875-72.695313-27.671875-100.363281 0-27.671876 27.667969-27.671876 72.691406 0 100.363282l1.546874 1.550781-17.46875 17.46875-31.234374-31.234375c-8.355469-8.351563-19.460938-12.953125-31.277344-12.953125-11.8125 0-22.921875 4.601562-31.277344 12.953125-6.714844 6.71875-11 15.214844-12.421875 24.425781l-169.484375 130.398437-22.78125 9.296876c-1.230469.503906-2.351562 1.246093-3.292969 2.1875l-24.277343 24.277343c-3.90625 3.90625-3.90625 10.238281 0 14.144531 1.953124 1.953126 4.511718 2.929688 7.070312 2.929688s5.121094-.976562 7.070312-2.929688l22.855469-22.851562 22.164063-9.046875c.828125-.339844 1.609375-.789063 2.320312-1.335937l160.949219-123.832032c1.261719 3.171875 2.894531 6.199219 4.882813 9.015625l-167.183594 167.183594c-5.476563 5.476563-8.492188 12.757813-8.492188 20.5s3.015625 15.023437 8.492188 20.5l75.175781 75.171875c5.648437 5.652344 13.074219 8.480469 20.496094 8.480469 7.425781 0 14.847656-2.828125 20.5-8.480469l59.351562-59.347656c3.902344-3.90625 3.902344-10.238282 0-14.144532-3.90625-3.902343-10.238281-3.902343-14.144531 0l-59.351562 59.347657c-3.503907 3.507812-9.207032 3.507812-12.710938 0l-75.171875-75.171875c-1.699219-1.699219-2.632813-3.957032-2.632813-6.355469 0-2.402344.933594-4.660156 2.632813-6.355469l173.789063-173.789062c1.875-1.878906 2.929687-4.421875 2.929687-7.074219s-1.054687-5.195313-2.929687-7.070313l-1.660157-1.660156c-4.578125-4.578125-7.097656-10.660156-7.097656-17.132812s2.519531-12.558594 7.097656-17.136719c4.574219-4.574219 10.660157-7.09375 17.132813-7.09375s12.554687 2.519531 17.132812 7.09375l105.351563 105.355469c4.578125 4.574218 7.097656 10.660156 7.097656 17.132812s-2.519531 12.554688-7.097656 17.132813c-4.578125 4.574219-10.660157 7.097656-17.132813 7.097656s-12.558594-2.523437-17.132812-7.097656l-1.660156-1.664063c-3.90625-3.902344-10.238282-3.902344-14.144532 0l-66.171875 66.171875c-3.90625 3.90625-3.90625 10.238281 0 14.144531 3.90625 3.902344 10.238281 3.90625 14.144531 0l59.5625-59.5625c2.816407 1.984376 5.84375 3.617188 9.015626 4.882813l-123.832032 160.949219c-.546875.707031-.996094 1.488281-1.335937 2.316406l-9.046875 22.167969-22.851563 22.851562c-3.90625 3.90625-3.90625 10.238281 0 14.144531 1.953125 1.953126 4.511719 2.929688 7.070313 2.929688 2.5625 0 5.121094-.976562 7.074218-2.929688l24.277344-24.277343c.941406-.941407 1.683594-2.0625 2.1875-3.292969l9.296875-22.785156 130.398438-169.480469c9.210937-1.425781 17.710937-5.707031 24.425781-12.421875 8.355469-8.355469 12.953125-19.464844 12.953125-31.277344s-4.601563-22.921875-12.953125-31.277344l-31.234375-31.234374 17.46875-17.46875 1.554687 1.550781c13.832032 13.832031 32.007813 20.75 50.179688 20.75 18.175781 0 36.347656-6.917969 50.183594-20.75 27.671875-27.675781 27.671875-72.699219 0-100.371094zm-133.527344 102.144531-14.601562-14.597656 17.472656-17.472656 14.597656 14.597656zm119.382812-15.921875c-19.871093 19.871094-52.203124 19.875-72.078124 0l-8.617188-8.617187s-.003906-.003906-.003906-.003906l-28.742188-28.742188s-.003906-.003906-.003906-.003906l-8.617188-8.617188c-9.625-9.625-14.929687-22.425781-14.929687-36.039062 0-13.613282 5.304687-26.410156 14.929687-36.039063 19.871094-19.871093 52.207032-19.871093 72.078126 0l45.984374 45.984375c19.875 19.875 19.875 52.207032 0 72.078125zm0 0"/><path d="m415.804688 49.273438c-11.824219-11.824219-31.0625-11.820313-42.882813 0-5.726563 5.726562-8.882813 13.34375-8.882813 21.441406 0 8.101562 3.15625 15.714844 8.882813 21.441406l47.421875 47.421875c5.910156 5.910156 13.675781 8.867187 21.441406 8.867187 7.761719 0 15.527344-2.957031 21.441406-8.867187 11.820313-11.820313 11.820313-31.058594 0-42.882813zm33.277343 76.164062c-4.023437 4.019531-10.574219 4.023438-14.597656 0l-47.421875-47.421875c-1.949219-1.949219-3.023438-4.542969-3.023438-7.300781 0-2.757813 1.074219-5.347656 3.023438-7.296875 4.023438-4.027344 10.574219-4.027344 14.597656 0l47.421875 47.417969c4.023438 4.027343 4.023438 10.574218 0 14.601562zm0 0"/><path d="m307.132812 205.367188c-16.183593-16.183594-42.511718-16.183594-58.691406 0l-114.070312 114.066406c-16.179688 16.183594-16.179688 42.511718 0 58.691406 8.09375 8.089844 18.71875 12.136719 29.347656 12.136719 10.625 0 21.253906-4.046875 29.34375-12.136719l114.070312-114.066406c16.179688-16.183594 16.179688-42.511719 0-58.691406zm-158.617187 128.210937 114.070313-114.070313c1.414062-1.414062 2.984374-2.566406 4.648437-3.503906v26.71875c0 2.292969-1.867187 4.15625-4.160156 4.15625h-13.242188c-13.324219 0-24.160156 10.839844-24.160156 24.160156v15.003907c0 2.292969-1.867187 4.160156-4.160156 4.160156h-13.738281c-13.320313 0-24.160157 10.835937-24.160157 24.15625v10.386719c0 2.292968-1.863281 4.160156-4.15625 4.160156-6.457031 0-12.523437 2.511719-17.085937 7.074219l-16.863282 16.863281c-.898437.902344-1.582031 1.9375-2.070312 3.035156-.785156-2.253906-1.21875-4.640625-1.21875-7.097656 0-5.746094 2.234375-11.144531 6.296875-15.203125zm144.472656-83.664063-114.066406 114.066407c-6.019531 6.019531-14.742187 7.691406-22.285156 5.070312 1.089843-.484375 2.121093-1.167969 3.015625-2.0625l16.863281-16.863281c.785156-.785156 1.828125-1.21875 2.9375-1.21875 13.324219 0 24.160156-10.835938 24.160156-24.160156v-10.386719c0-2.292969 1.867188-4.15625 4.160157-4.15625h13.738281c13.320312 0 24.160156-10.839844 24.160156-24.160156v-15.003907c0-2.292968 1.863281-4.15625 4.15625-4.15625h13.246094c13.324219 0 24.160156-10.839843 24.160156-24.160156v-27.300781c2.078125 1.015625 4.03125 2.363281 5.753906 4.085937 8.382813 8.382813 8.382813 22.023438 0 30.40625zm0 0"/><path d="m254.605469 369.917969c2.640625 0 5.210937-1.070313 7.070312-2.929688 1.871094-1.859375 2.929688-4.441406 2.929688-7.070312 0-2.628907-1.058594-5.210938-2.929688-7.070313-1.859375-1.859375-4.429687-2.929687-7.070312-2.929687-2.628907 0-5.210938 1.070312-7.070313 2.929687s-2.929687 4.429688-2.929687 7.070313c0 2.628906 1.070312 5.210937 2.929687 7.070312s4.441406 2.929688 7.070313 2.929688zm0 0"/></svg>