<svg height="512pt" viewBox="0 0 512 512" width="512pt" xmlns="http://www.w3.org/2000/svg"><path d="m124 394c-2.640625 0-5.210938 1.070312-7.070312 2.929688-1.859376 1.859374-2.929688 4.429687-2.929688 7.070312 0 2.628906 1.070312 5.210938 2.929688 7.070312 1.859374 1.859376 4.441406 2.929688 7.070312 2.929688s5.210938-1.070312 7.070312-2.929688c1.859376-1.859374 2.929688-4.441406 2.929688-7.070312s-1.070312-5.210938-2.929688-7.070312c-1.859374-1.859376-4.441406-2.929688-7.070312-2.929688zm0 0"/><path d="m463.800781 235.640625v-83.742187c0-11.523438-9.375-20.898438-20.898437-20.898438h-2.902344v-28.902344c0-11.027344-8.972656-20-20-20h-101.871094v-62.097656c0-11.027344-8.972656-20-20-20h-155.085937c-11.027344 0-20 8.972656-20 20v20h-29.644531c-5.519532 0-10 4.476562-10 10v35.917969c0 37.324219-12.503907 74.195312-35.210938 103.820312l-8.851562 11.546875c-25.363282 33.097656-39.335938 74.285156-39.335938 115.988282v174.726562c0 11.027344 8.972656 20 20 20h482c5.523438 0 10-4.476562 10-10v-186.585938c0-33.671874-18.714844-64.296874-48.199219-79.773437zm-20-83.742187v44.101562h-27.601562v-44.101562c0-.496094.402343-.898438.898437-.898438h25.800782c.5 0 .902343.402344.902343.898438zm-23.800781-49.800782v28.902344h-2.898438c-11.527343 0-20.902343 9.375-20.902343 20.898438v83.742187c-29.484375 15.476563-48.199219 46.101563-48.199219 79.773437v176.585938h-29.871094v-389.902344zm-364.789062 111.355469 8.851562-11.550781c25.367188-33.09375 39.335938-74.285156 39.335938-115.984375v-25.917969h59.285156v25.917969c0 41.699219 13.96875 82.890625 39.335937 115.984375l8.851563 11.550781c20.675781 26.972656 32.890625 59.957031 34.910156 93.820313h-28.457031c-1.992188-29.484376-12.730469-58.152344-30.742188-81.65625l-8.851562-11.546876c-4.40625-5.75-8.566407-11.8125-12.367188-18.027343-2.878906-4.710938-9.035156-6.199219-13.746093-3.316407-4.714844 2.882813-6.195313 9.039063-3.316407 13.75 4.164063 6.808594 8.726563 13.457032 13.558594 19.761719l8.851563 11.546875c15.351562 20.03125 24.597656 44.386719 26.554687 69.488282h-176.960937c2.019531-33.863282 14.230468-66.847657 34.90625-93.820313zm-35.210938 200.546875h68.667969c5.519531 0 10-4.476562 10-10s-4.480469-10-10-10h-68.667969v-66.726562h226.082031v110.726562h-226.082031zm0 78v-34h226.082031v34zm206.746094-290.714844-8.851563-11.546875c-22.707031-29.625-35.210937-66.496093-35.210937-103.820312v-35.917969c0-5.523438-4.480469-10-10-10h-29.644532v-20h155.085938v472h-32.042969v-174.726562c0-41.703126-13.96875-82.890626-39.335937-115.988282zm265.253906 290.714844h-124v-176.585938c0-27.9375 16.558594-53.179687 42.183594-64.308593 3.652344-1.585938 6.015625-5.191407 6.015625-9.171875v-25.933594h27.605469v25.933594c0 3.980468 2.359374 7.585937 6.015624 9.171875 25.621094 11.128906 42.179688 36.371093 42.179688 64.308593zm0 0"/><path d="m445.117188 351.773438c.414062-.496094.847656-.980469 1.308593-1.441407l1.644531-1.644531c3.90625-3.90625 3.90625-10.234375.003907-14.144531-3.902344-3.90625-10.234375-3.90625-14.144531-.003907l-1.644532 1.648438c-5.066406 5.066406-8.671875 11.207031-10.613281 17.902344-4.148437-1.96875-8.78125-3.074219-13.671875-3.074219-17.644531 0-32 14.355469-32 32 0 14.476563 9.667969 26.734375 22.882812 30.671875-.570312 2.386719-.882812 4.875-.882812 7.433594 0 17.644531 14.355469 32 32 32s32-14.355469 32-32c0-2.558594-.308594-5.046875-.878906-7.433594 13.214844-3.9375 22.878906-16.191406 22.878906-30.667969 0-17.644531-14.355469-32-32-32-2.363281 0-4.664062.265625-6.882812.753907zm-37.117188 19.246093c6.617188 0 12 5.382813 12 12 0 6.617188-5.382812 12-12 12s-12-5.382812-12-12c0-6.617187 5.382812-12 12-12zm22 62.101563c-6.617188 0-12-5.382813-12-12 0-6.617188 5.382812-12 12-12s12 5.382812 12 12c0 6.617187-5.382812 12-12 12zm34-50.101563c0 6.617188-5.382812 12-12 12s-12-5.382812-12-12c0-6.617187 5.382812-12 12-12s12 5.382813 12 12zm0 0"/><path d="m142.5 174.800781c2.628906 0 5.210938-1.070312 7.070312-2.929687 1.859376-1.859375 2.929688-4.441406 2.929688-7.070313 0-2.628906-1.070312-5.210937-2.929688-7.070312-1.859374-1.859375-4.441406-2.929688-7.070312-2.929688s-5.210938 1.070313-7.070312 2.929688c-1.859376 1.859375-2.929688 4.441406-2.929688 7.070312 0 2.628907 1.070312 5.210938 2.929688 7.070313 1.859374 1.859375 4.441406 2.929687 7.070312 2.929687zm0 0"/></svg>