<svg height="512pt" viewBox="0 0 511 512" width="512pt" xmlns="http://www.w3.org/2000/svg"><path d="m458.484375 492h-234.871094c-74.070312 0-143.578125-27.832031-195.710937-78.363281-1.113282-1.082031-2.21875-2.167969-3.316406-3.269531-5.457032-5.457032-5.457032-14.339844 0-19.796876 5.460937-5.457031 14.34375-5.457031 19.800781 0 32.074219 32.074219 71.960937 55.378907 115.375 67.425782l.324219.125c10.765624 4.1875 21.945312 7.539062 33.234374 9.964844.707032.148437 1.410157.222656 2.109376.222656 4.609374 0 8.757812-3.210938 9.765624-7.902344 1.160157-5.398438-2.277343-10.714844-7.675781-11.875-10.238281-2.199219-20.378906-5.238281-30.140625-9.03125-26.449218-15.769531-50.761718-34.660156-72.265625-56.167969-5.460937-5.457031-5.460937-14.339843-.003906-19.796875 2.648437-2.648437 6.160156-4.101562 9.898437-4.101562h.15625c3.796876.042968 7.335938 1.578125 9.96875 4.324218 22.199219 23.183594 48.757813 43.058594 78.9375 59.070313 9.328126 4.949219 19.09375 9.570313 29.023438 13.730469 5.007812 2.097656 10.78125-.183594 12.996094-5.144532 2.214844-4.960937.0625-10.785156-4.847656-13.113281l-12.238282-5.804687c-17.761718-18.363282-27.519531-42.476563-27.519531-68.089844 0-26.175781 10.191406-50.785156 28.699219-69.292969 5.460937-5.460937 14.34375-5.457031 19.800781-.003906 5.460937 5.460937 5.460937 14.34375.003906 19.800781-13.222656 13.222656-20.503906 30.800782-20.503906 49.496094 0 18.699219 7.28125 36.277344 20.5 49.496094 13.222656 13.222656 30.800781 20.503906 49.5 20.503906 18.695313 0 36.273437-7.28125 49.496094-20.503906 13.222656-13.21875 20.503906-30.796875 20.503906-49.496094 0-18.695312-7.28125-36.273438-20.503906-49.496094-5.460938-5.457031-5.457031-14.339844 0-19.800781 5.457031-5.457031 14.339843-5.457031 19.796875 0 18.511718 18.511719 28.707031 43.121094 28.707031 69.296875 0 28.046875 17.941406 52.640625 44.648437 61.203125l67.296876 21.578125c5.261718 1.6875 10.890624-1.210938 12.574218-6.46875 1.6875-5.257812-1.207031-10.890625-6.46875-12.574219l-67.296875-21.578125c-18.394531-5.898437-30.757812-22.839844-30.757812-42.160156 0-31.519531-12.273438-61.148438-34.558594-83.4375-8.289063-8.285156-19.824219-11.390625-30.546875-9.316406 9.472656-5.859375 17.878906-13.496094 24.636719-22.628906 16.433593-22.199219 21.617187-51.28125 13.863281-77.792969l-26.328125-90.039063c-1.25-4.261718-5.15625-7.191406-9.601563-7.191406h-110.320312c-4.441406 0-8.351562 2.929688-9.597656 7.191406l-26.332032 90.039063c-2.398437 8.203125-3.558593 16.652343-3.53125 25.070312-.054687.675781-.046874 1.351563.035157 2.027344.472656 18.085937 6.417969 35.914063 17.359375 50.695313 6.835937 9.238281 15.363281 16.949218 24.972656 22.832031-10.980469-2.445313-22.953125.585937-31.484375 9.113281-22.285156 22.289062-34.5625 51.921875-34.5625 83.4375 0 16.828125 3.5 33.121094 10.152344 48.042969-19.394531-12.390625-36.84375-26.632813-52.0625-42.523438-6.382813-6.664062-14.972657-10.390625-24.191407-10.492187-9.246093-.085938-17.894531 3.4375-24.414062 9.957031-12.046875 12.046875-13.144531 30.957031-3.300781 44.257813-6.660157-5.386719-13.054688-11.132813-19.140625-17.21875-13.257813-13.253907-34.828125-13.257813-48.085938 0-13.253906 13.257812-13.253906 34.828124 0 48.082031 1.171875 1.167969 2.347656 2.328125 3.535156 3.480469 27.792969 26.9375 60.296876 47.933593 96.617188 62.402343 35.976562 14.335938 74.003906 21.605469 113.019531 21.605469h234.871094c5.523437 0 10-4.476562 10-10s-4.476563-10-10-10zm-216.363281-418h95.332031l24.230469 82.847656v-.003906c1.53125 5.238281 2.40625 10.605469 2.65625 15.984375-8.414063 4.90625-32.949219 14.996094-70.511719-4.566406-34.167969-17.792969-60.359375-14.851563-76.585937-9.015625.203124-.800782.414062-1.601563.648437-2.402344zm-13.488282 143.121094c-7.628906-10.300782-12.125-22.519532-13.214843-35.074219 8.625-5.203125 32.5-15.144531 69.171875 3.953125 19.941406 10.386719 37.238281 13.847656 51.4375 13.847656 10.148437 0 18.707031-1.769531 25.523437-4.042968-2.253906 7.601562-5.8125 14.839843-10.609375 21.316406-12.921875 17.460937-33.605468 27.882812-55.324218 27.882812h-11.65625c-21.722657 0-42.40625-10.421875-55.328126-27.882812zm51.152344 47.773437v79.4375h-12.363281c-5.523437 0-10 4.480469-10 10 0 5.523438 4.476563 10 10 10h44.730469c5.523437 0 10-4.476562 10-10 0-5.519531-4.476563-10-10-10h-12.367188v-79.4375c9.210938-.441406 18.230469-2.316406 26.738282-5.488281-.570313.5-1.136719 1.019531-1.683594 1.5625-13.253906 13.257812-13.253906 34.828125 0 48.085938 9.445312 9.441406 14.644531 21.996093 14.644531 35.351562s-5.199219 25.910156-14.644531 35.355469c-9.441406 9.441406-22 14.644531-35.355469 14.644531-13.351563 0-25.910156-5.199219-35.351563-14.644531-9.445312-9.445313-14.648437-22-14.648437-35.355469s5.203125-25.910156 14.648437-35.351562c13.253907-13.257813 13.253907-34.828126 0-48.085938-.699218-.699219-1.425781-1.351562-2.167968-1.980469 8.824218 3.421875 18.21875 5.449219 27.820312 5.90625zm0 0"/><path d="m502.484375 492c-2.628906 0-5.207031 1.070312-7.070313 2.929688-1.859374 1.859374-2.929687 4.441406-2.929687 7.070312s1.070313 5.210938 2.929687 7.070312c1.863282 1.859376 4.441407 2.929688 7.070313 2.929688 2.632813 0 5.210937-1.070312 7.070313-2.929688 1.859374-1.859374 2.929687-4.441406 2.929687-7.070312 0-2.640625-1.070313-5.210938-2.929687-7.070312-1.859376-1.859376-4.441407-2.929688-7.070313-2.929688zm0 0"/><path d="m456.234375 43.125h13.125v13.125c0 5.523438 4.480469 10 10 10 5.523437 0 10-4.476562 10-10v-13.125h13.125c5.523437 0 10-4.476562 10-10s-4.476563-10-10-10h-13.125v-13.125c0-5.523438-4.476563-10-10-10-5.519531 0-10 4.476562-10 10v13.125h-13.125c-5.519531 0-10 4.476562-10 10s4.476563 10 10 10zm0 0"/><path d="m75.652344 216.582031h13.125v13.125c0 5.519531 4.480468 10 10 10 5.523437 0 10-4.480469 10-10v-13.125h13.128906c5.519531 0 10-4.480469 10-10 0-5.523437-4.480469-10-10-10h-13.128906v-13.128906c0-5.519531-4.476563-10-10-10-5.519532 0-10 4.480469-10 10v13.128906h-13.125c-5.519532 0-10 4.476563-10 10 0 5.519531 4.480468 10 10 10zm0 0"/></svg>