<svg height="512pt" viewBox="-54 0 512 512" width="512pt" xmlns="http://www.w3.org/2000/svg"><path d="m335 0h-92c-5.523438 0-10 4.476562-10 10s4.476562 10 10 10h92c21.789062 0 40.289062 14.296875 46.644531 34h-25.523437c-11.457032 0-22.636719 4.6875-30.667969 12.859375l-5.171875 5.261719c-4.296875 4.371094-10.273438 6.878906-16.402344 6.878906h-21.878906c-5.523438 0-10 4.476562-10 10s4.476562 10 10 10h21.878906c11.457032 0 22.636719-4.6875 30.667969-12.859375l5.171875-5.261719c4.296875-4.371094 10.273438-6.878906 16.402344-6.878906h27.625c-2.511719 24.679688-23.414063 44-48.746094 44h-266c-21.355469 0-39.550781-13.734375-46.246094-32.832031h14.734375c12.449219 0 24.199219-4.800781 33.085938-13.523438l4.941406-4.847656c5.125-5.027344 11.898437-7.796875 19.078125-7.796875h50.65625c5.523438 0 10-4.476562 10-10s-4.476562-10-10-10h-50.65625c-12.449219 0-24.199219 4.800781-33.085938 13.523438l-4.941406 4.847656c-5.125 5.027344-11.898437 7.796875-19.078125 7.796875h-17.324219c1.964844-25.234375 23.109376-45.167969 48.835938-45.167969h90c5.523438 0 10-4.476562 10-10s-4.476562-10-10-10h-90c-38.046875 0-69 30.953125-69 69s30.953125 69 69 69h93.714844v54.207031c0 13.171875 10.714844 23.890625 23.890625 23.890625h5.394531v12.175782c0 6.320312-3.375 12.246093-8.8125 15.464843l-18.046875 10.699219c-8.652344 5.128906-13.644531 14.546875-13.027344 24.582031.613281 10.039063 6.714844 18.78125 15.925781 22.816407l31.183594 13.660156c3.394532 1.488281 3.921875 4.519531 3.992188 5.75.070312 1.234375-.117188 4.304687-3.324219 6.160156l-18.804687 10.886719c-8.011719 4.636719-12.984376 12.929687-13.300782 22.179687s4.074219 17.859375 11.746094 23.035156l23.742188 16.011719c2.671874 1.804688 2.949218 4.496094 2.945312 5.566407-.003906 1.074218-.304688 3.765624-2.988281 5.546874l-18.324219 12.160157c-7.09375 4.703125-11.425781 12.277343-11.890625 20.773437s3.011719 16.496094 9.546875 21.949219l9.328125 7.78125v28.703125c0 5.523438 4.476563 10 10 10 5.519531 0 10-4.476562 10-10v-33.382812c0-2.964844-1.316406-5.777344-3.59375-7.675782l-12.921875-10.78125c-1.636719-1.367187-2.507812-3.371094-2.390625-5.5s1.203125-4.023437 2.980469-5.203125l18.324218-12.160156c7.4375-4.9375 11.894532-13.210937 11.929688-22.136719.035156-8.921875-4.363281-17.230468-11.765625-22.222656l-23.738281-16.011719c-2.769532-1.867187-2.980469-4.65625-2.941406-5.769531.039062-1.113281.4375-3.882812 3.332031-5.558594l18.804687-10.886718c8.75-5.066407 13.839844-14.488282 13.273438-24.582032-.566406-10.097656-6.671875-18.894531-15.933594-22.953125l-31.1875-13.660156c-3.375-1.480469-3.914062-4.492187-3.988281-5.714844-.074219-1.226562.09375-4.28125 3.265625-6.160156l18.046875-10.695313c11.480469-6.804687 18.613281-19.324218 18.613281-32.671874v-12.175782h5.394531c13.175781 0 23.890625-10.71875 23.890625-23.894531v-54.203125h93.714844c38.046875 0 69-30.953125 69-69s-30.953125-69-69-69zm-113.714844 192.207031c0 2.144531-1.746094 3.890625-3.890625 3.890625h-14.332031c-.351562-.039062-.703125-.058594-1.0625-.058594s-.714844.019532-1.0625.058594h-14.335938c-2.144531 0-3.890624-1.746094-3.890624-3.890625v-54.207031h38.574218zm0 0"/><path d="m202 99c16.542969 0 30-13.457031 30-30s-13.457031-30-30-30-30 13.457031-30 30 13.457031 30 30 30zm0-40c5.515625 0 10 4.484375 10 10s-4.484375 10-10 10-10-4.484375-10-10 4.484375-10 10-10zm0 0"/><path d="m202 20.039062c2.628906 0 5.210938-1.070312 7.070312-2.929687 1.859376-1.859375 2.929688-4.4375 2.929688-7.070313 0-2.640624-1.070312-5.210937-2.929688-7.070312-1.859374-1.867188-4.441406-2.9296875-7.070312-2.9296875s-5.210938 1.0624995-7.070312 2.9296875c-1.859376 1.859375-2.929688 4.429688-2.929688 7.070312 0 2.632813 1.070312 5.210938 2.929688 7.070313 1.859374 1.859375 4.441406 2.929687 7.070312 2.929687zm0 0"/></svg>