<svg height="512pt" viewBox="-54 0 512 512" width="512pt" xmlns="http://www.w3.org/2000/svg"><path d="m374.25 231.953125c-17.792969-31.773437-27.199219-67.8125-27.199219-104.230469v-107.082031c0-11.378906-9.257812-20.640625-20.640625-20.640625h-36.902344c-11.382812 0-20.644531 9.261719-20.644531 20.640625v107.15625c0 36.371094-9.382812 72.371094-27.140625 104.132813l-.042968.078124c-19.417969 34.714844-29.679688 74.09375-29.679688 113.875v137.164063c0 15.964844 12.988281 28.953125 28.953125 28.953125h134.09375c15.964844 0 28.953125-12.988281 28.953125-28.953125v-137.089844c0-39.832031-10.285156-79.253906-29.75-114.003906zm-142.25 113.929687c0-5.265624.21875-10.519531.609375-15.753906h70.5c-1.742187 3.578125-3.050781 7.351563-3.90625 11.257813-4.027344-1.832031-8.496094-2.859375-13.203125-2.859375-17.644531 0-32 14.355468-32 32 0 14.476562 9.667969 26.730468 22.882812 30.667968-.570312 2.386719-.882812 4.875-.882812 7.433594 0 13.25 8.097656 24.644532 19.601562 29.5h-63.601562zm76 74.746094c-6.617188 0-12-5.382812-12-12 0-6.617187 5.382812-12 12-12s12 5.382813 12 12c0 6.617188-5.382812 12-12 12zm-22-38.101562c-6.617188 0-12-5.382813-12-12 0-6.617188 5.382812-12 12-12s12 5.382812 12 12c0 6.617187-5.382812 12-12 12zm44 0c-6.617188 0-12-5.382813-12-12 0-6.617188 5.382812-12 12-12s12 5.382812 12 12c0 6.617187-5.382812 12-12 12zm10 26.101562c0-2.558594-.3125-5.046875-.882812-7.433594 13.214843-3.9375 22.882812-16.191406 22.882812-30.667968 0-17.644532-14.355469-32-32-32-3.265625 0-6.417969.492187-9.386719 1.40625 1.527344-3.46875 3.691407-6.664063 6.453125-9.421875l.378906-.382813h55.9375c.394532 5.261719.617188 10.539063.617188 15.828125v92.171875h-63.597656c11.503906-4.855468 19.597656-16.25 19.597656-29.5zm-51.136719-280.832031v-59.828125h38.1875v59.753906c0 1.320313.015625 2.640625.039063 3.964844h-38.257813c.019531-1.296875.03125-2.59375.03125-3.890625zm0-107.15625c0-.351563.289063-.640625.644531-.640625h36.902344c.355469 0 .640625.289062.640625.640625v27.328125h-38.1875zm-29.71875 221.109375.042969-.078125c15.515625-27.742187 25.179688-58.464844 28.4375-89.984375h40.675781c3.269531 31.542969 12.957031 62.28125 28.5 90.039062 11.914063 21.273438 20.046875 44.46875 24.132813 68.402344h-20.535156c-2.882813-15.28125-7.585938-30.15625-14.03125-44.316406-2.285157-5.027344-8.214844-7.246094-13.242188-4.960938-5.027344 2.289063-7.246094 8.21875-4.960938 13.246094 5.257813 11.546875 9.207032 23.628906 11.828126 36.03125h-104.9375c4.074218-23.917968 12.191406-47.101562 24.089843-68.378906zm115.902344 250.25h-134.09375c-4.9375 0-8.953125-4.015625-8.953125-8.953125v-24.917969h152v24.917969c0 4.9375-4.019531 8.953125-8.953125 8.953125zm0 0"/><path d="m135.050781 127.722656v-107.082031c0-11.378906-9.257812-20.640625-20.640625-20.640625h-36.902344c-11.382812 0-20.644531 9.261719-20.644531 20.640625v107.15625c0 36.371094-9.382812 72.371094-27.140625 104.132813l-.042968.078124c-19.417969 34.714844-29.679688 74.09375-29.679688 113.875v137.164063c0 15.964844 12.988281 28.953125 28.953125 28.953125h134.09375c15.964844 0 28.953125-12.988281 28.953125-28.953125v-137.089844c0-39.832031-10.285156-79.253906-29.75-114.003906-17.792969-31.773437-27.199219-67.8125-27.199219-104.230469zm-58.1875.074219v-59.828125h38.1875v59.753906c0 1.320313.015625 2.640625.039063 3.964844h-38.257813c.019531-1.296875.03125-2.59375.03125-3.890625zm0-107.15625c0-.351563.289063-.640625.644531-.640625h36.902344c.355469 0 .640625.289062.640625.640625v27.328125h-38.1875zm-29.71875 221.109375.042969-.078125c15.515625-27.742187 25.179688-58.464844 28.4375-89.984375h40.675781c3.269531 31.542969 12.957031 62.28125 28.5 90.039062 11.914063 21.273438 20.046875 44.46875 24.132813 68.402344h-20.300782c-2.886718-15.28125-7.589843-30.15625-14.03125-44.316406-2.289062-5.027344-8.21875-7.246094-13.246093-4.960938-5.027344 2.289063-7.246094 8.21875-4.957031 13.246094 5.253906 11.546875 9.203124 23.628906 11.828124 36.03125h-105.171874c4.074218-23.917968 12.191406-47.101562 24.089843-68.378906zm-27.144531 104.132812c0-5.265624.21875-10.519531.609375-15.753906h70.5c-1.742187 3.578125-3.050781 7.351563-3.90625 11.257813-4.027344-1.832031-8.496094-2.859375-13.203125-2.859375-17.644531 0-32 14.355468-32 32 0 14.476562 9.667969 26.730468 22.882812 30.667968-.570312 2.386719-.882812 4.875-.882812 7.433594 0 13.25 8.097656 24.644532 19.601562 29.5h-63.601562zm76 74.746094c-6.617188 0-12-5.382812-12-12 0-6.617187 5.382812-12 12-12s12 5.382813 12 12c0 6.617188-5.382812 12-12 12zm-22-38.101562c-6.617188 0-12-5.382813-12-12 0-6.617188 5.382812-12 12-12s12 5.382812 12 12c0 6.617187-5.382812 12-12 12zm44 0c-6.617188 0-12-5.382813-12-12 0-6.617188 5.382812-12 12-12s12 5.382812 12 12c0 6.617187-5.382812 12-12 12zm10 26.101562c0-2.558594-.3125-5.046875-.882812-7.433594 13.214843-3.9375 22.882812-16.191406 22.882812-30.667968 0-17.644532-14.355469-32-32-32-3.265625 0-6.417969.492187-9.386719 1.40625 1.527344-3.46875 3.691407-6.664063 6.453125-9.421875l.378906-.382813h55.9375c.394532 5.261719.617188 10.539063.617188 15.828125v92.171875h-63.597656c11.503906-4.855468 19.597656-16.25 19.597656-29.5zm35.046875 83.371094h-134.09375c-4.9375 0-8.953125-4.015625-8.953125-8.953125v-24.917969h152v24.917969c0 4.9375-4.019531 8.953125-8.953125 8.953125zm0 0"/><path d="m97.796875 236.855469c1.597656 3.816406 5.304687 6.132812 9.222656 6.132812 1.238281 0 2.492188-.230469 3.710938-.71875 5.128906-2.050781 7.621093-7.871093 5.570312-12.996093-.015625-.042969-.035156-.089844-.054687-.136719-2.058594-4.988281-7.730469-7.460938-12.800782-5.527344-5.164062 1.96875-7.753906 7.746094-5.785156 12.90625.039063.109375.085938.226563.136719.339844zm0 0"/><path d="m309.5625 236.855469c1.601562 3.816406 5.308594 6.132812 9.226562 6.132812 1.234376 0 2.492188-.230469 3.710938-.71875 5.128906-2.050781 7.621094-7.871093 5.570312-12.996093-.019531-.042969-.035156-.089844-.054687-.136719-2.058594-4.988281-7.730469-7.460938-12.804687-5.527344-5.160157 1.96875-7.75 7.746094-5.785157 12.90625.042969.109375.089844.226563.136719.339844zm0 0"/></svg>